<?xml version="1.0" encoding="utf-8" standalone="no"?>
<!DOCTYPE svg PUBLIC "-//W3C//DTD SVG 1.1//EN"
  "http://www.w3.org/Graphics/SVG/1.1/DTD/svg11.dtd">
<!-- Created with matplotlib (https://matplotlib.org/) -->
<svg height="168.9334pt" version="1.1" viewBox="0 0 216.024272 168.9334" width="216.024272pt" xmlns="http://www.w3.org/2000/svg" xmlns:xlink="http://www.w3.org/1999/xlink">
 <defs>
  <style type="text/css">
*{stroke-linecap:butt;stroke-linejoin:round;}
  </style>
 </defs>
 <g id="figure_1">
  <g id="patch_1">
   <path d="M 0 168.9334 
L 216.024272 168.9334 
L 216.024272 0 
L 0 0 
z
" style="fill:#ffffff;"/>
  </g>
  <g id="axes_1">
   <g id="patch_2">
    <path clip-path="url(#p89d428fb5f)" d="M 172.917982 124.122697 
L 184.735242 124.122697 
L 178.826612 132.64476 
z
" style="fill:#778899;"/>
   </g>
   <g id="line2d_1">
    <path clip-path="url(#p89d428fb5f)" d="M 63.381072 43.5608 
L 204.279172 43.5608 
" style="fill:none;stroke:#000000;stroke-linecap:square;stroke-width:2;"/>
   </g>
   <g id="line2d_2">
    <path clip-path="url(#p89d428fb5f)" d="M 63.381072 89.0118 
L 204.279172 89.0118 
" style="fill:none;stroke:#000000;stroke-linecap:square;stroke-width:2;"/>
   </g>
   <g id="line2d_3">
    <path clip-path="url(#p89d428fb5f)" d="M 63.381072 132.985642 
L 204.279172 132.985642 
" style="fill:none;stroke:#778899;stroke-linecap:square;stroke-width:2;"/>
   </g>
   <g id="line2d_4">
    <path clip-path="url(#p89d428fb5f)" d="M 63.381072 135.939957 
L 204.279172 135.939957 
" style="fill:none;stroke:#778899;stroke-linecap:square;stroke-width:2;"/>
   </g>
   <g id="line2d_5">
    <path clip-path="url(#p89d428fb5f)" d="M 133.375612 89.0118 
L 133.375612 43.5608 
" style="fill:none;stroke:#6fa4ff;stroke-linecap:square;stroke-width:2;"/>
   </g>
   <g id="line2d_6">
    <path clip-path="url(#p89d428fb5f)" d="M 180.30377 89.0118 
L 180.30377 124.122697 
" style="fill:none;stroke:#778899;stroke-linecap:square;stroke-width:2;"/>
   </g>
   <g id="line2d_7">
    <path clip-path="url(#p89d428fb5f)" d="M 177.349455 89.0118 
L 177.349455 124.122697 
" style="fill:none;stroke:#778899;stroke-linecap:square;stroke-width:2;"/>
   </g>
   <g id="patch_3">
    <path clip-path="url(#p89d428fb5f)" d="M 73.153037 58.332375 
L 102.696187 58.332375 
L 102.696187 28.789225 
L 73.153037 28.789225 
z
" style="fill:#6fa4ff;stroke:#6fa4ff;stroke-linejoin:miter;stroke-width:1.5;"/>
   </g>
   <g id="patch_4">
    <path clip-path="url(#p89d428fb5f)" d="M 133.375612 47.992272 
C 134.550852 47.992272 135.678116 47.525345 136.509136 46.694324 
C 137.340157 45.863304 137.807085 44.73604 137.807085 43.5608 
C 137.807085 42.38556 137.340157 41.258296 136.509136 40.427276 
C 135.678116 39.596255 134.550852 39.129327 133.375612 39.129327 
C 132.200372 39.129327 131.073108 39.596255 130.242088 40.427276 
C 129.411067 41.258296 128.94414 42.38556 128.94414 43.5608 
C 128.94414 44.73604 129.411067 45.863304 130.242088 46.694324 
C 131.073108 47.525345 132.200372 47.992272 133.375612 47.992272 
z
" style="fill:#6fa4ff;stroke:#6fa4ff;stroke-linejoin:miter;stroke-width:1.5;"/>
   </g>
   <g id="patch_5">
    <path clip-path="url(#p89d428fb5f)" d="M 133.375612 99.351902 
C 136.117839 99.351902 138.748121 98.262404 140.687169 96.323357 
C 142.626216 94.384309 143.715715 91.754027 143.715715 89.0118 
C 143.715715 86.269573 142.626216 83.639291 140.687169 81.700243 
C 138.748121 79.761196 136.117839 78.671697 133.375612 78.671697 
C 130.633385 78.671697 128.003103 79.761196 126.064055 81.700243 
C 124.125008 83.639291 123.03551 86.269573 123.03551 89.0118 
C 123.03551 91.754027 124.125008 94.384309 126.064055 96.323357 
C 128.003103 98.262404 130.633385 99.351902 133.375612 99.351902 
z
" style="fill:#6fa4ff;stroke:#6fa4ff;stroke-linejoin:miter;stroke-width:2;"/>
   </g>
   <g id="patch_6">
    <path clip-path="url(#p89d428fb5f)" d="M 164.055037 103.783375 
L 193.598187 103.783375 
L 193.598187 74.240225 
L 164.055037 74.240225 
z
" style="stroke:#000000;stroke-linejoin:miter;stroke-width:1.5;"/>
   </g>
   <g id="patch_7">
    <path clip-path="url(#p89d428fb5f)" d="M 189.166715 93.443272 
C 189.166715 90.701959 188.07657 88.070118 186.138169 86.131716 
C 184.199767 84.193314 181.567926 83.10317 178.826612 83.10317 
C 176.085298 83.10317 173.453457 84.193314 171.515055 86.131716 
C 169.576654 88.070118 168.48651 90.701959 168.48651 93.443272 
" style="fill:none;stroke:#ffffff;stroke-linejoin:miter;stroke-width:2;"/>
   </g>
   <g id="line2d_8">
    <path clip-path="url(#p89d428fb5f)" d="M 178.826612 93.443272 
L 189.166715 83.10317 
" style="fill:none;stroke:#ffffff;stroke-linecap:square;stroke-width:2;"/>
   </g>
   <g id="line2d_9">
    <path clip-path="url(#p89d428fb5f)" d="M 133.375612 94.92043 
L 133.375612 83.10317 
" style="fill:none;stroke:#ffffff;stroke-linecap:square;stroke-width:2;"/>
   </g>
   <g id="line2d_10">
    <path clip-path="url(#p89d428fb5f)" d="M 127.466982 89.0118 
L 139.284242 89.0118 
" style="fill:none;stroke:#ffffff;stroke-linecap:square;stroke-width:2;"/>
   </g>
   <g id="text_1">
    <g clip-path="url(#p89d428fb5f)">
     <!-- H -->
     <defs>
      <path d="M 9.8125 72.90625 
L 19.671875 72.90625 
L 19.671875 43.015625 
L 55.515625 43.015625 
L 55.515625 72.90625 
L 65.375 72.90625 
L 65.375 0 
L 55.515625 0 
L 55.515625 34.71875 
L 19.671875 34.71875 
L 19.671875 0 
L 9.8125 0 
z
" id="DejaVuSans-72"/>
     </defs>
     <g transform="translate(83.036409 47.147987)scale(0.13 -0.13)">
      <use xlink:href="#DejaVuSans-72"/>
     </g>
    </g>
   </g>
   <g id="text_2">
    <g clip-path="url(#p89d428fb5f)">
     <!-- 0 -->
     <defs>
      <path d="M 31.78125 66.40625 
Q 24.171875 66.40625 20.328125 58.90625 
Q 16.5 51.421875 16.5 36.375 
Q 16.5 21.390625 20.328125 13.890625 
Q 24.171875 6.390625 31.78125 6.390625 
Q 39.453125 6.390625 43.28125 13.890625 
Q 47.125 21.390625 47.125 36.375 
Q 47.125 51.421875 43.28125 58.90625 
Q 39.453125 66.40625 31.78125 66.40625 
z
M 31.78125 74.21875 
Q 44.046875 74.21875 50.515625 64.515625 
Q 56.984375 54.828125 56.984375 36.375 
Q 56.984375 17.96875 50.515625 8.265625 
Q 44.046875 -1.421875 31.78125 -1.421875 
Q 19.53125 -1.421875 13.0625 8.265625 
Q 6.59375 17.96875 6.59375 36.375 
Q 6.59375 54.828125 13.0625 64.515625 
Q 19.53125 74.21875 31.78125 74.21875 
z
" id="DejaVuSans-48"/>
     </defs>
     <g transform="translate(190.189362 127.754825)scale(0.104 -0.104)">
      <use xlink:href="#DejaVuSans-48"/>
     </g>
    </g>
   </g>
   <g id="text_3">
    <g clip-path="url(#p89d428fb5f)">
     <!-- ${q}_{0}$ -->
     <defs>
      <path d="M 41.703125 8.203125 
Q 38.09375 3.46875 33.171875 1.015625 
Q 28.265625 -1.421875 22.3125 -1.421875 
Q 14.015625 -1.421875 9.296875 4.171875 
Q 4.59375 9.765625 4.59375 19.578125 
Q 4.59375 27.484375 7.5 34.859375 
Q 10.40625 42.234375 15.828125 48.09375 
Q 19.34375 51.90625 23.90625 53.953125 
Q 28.46875 56 33.5 56 
Q 39.546875 56 43.453125 53.609375 
Q 47.359375 51.21875 49.125 46.390625 
L 50.6875 54.59375 
L 59.71875 54.59375 
L 45.125 -20.609375 
L 36.078125 -20.609375 
z
M 13.921875 20.90625 
Q 13.921875 13.671875 16.9375 9.890625 
Q 19.96875 6.109375 25.6875 6.109375 
Q 34.1875 6.109375 40.1875 14.234375 
Q 46.1875 22.359375 46.1875 33.984375 
Q 46.1875 41.015625 43.078125 44.75 
Q 39.984375 48.484375 34.1875 48.484375 
Q 29.9375 48.484375 26.3125 46.5 
Q 22.703125 44.53125 20.015625 40.71875 
Q 17.1875 36.71875 15.546875 31.34375 
Q 13.921875 25.984375 13.921875 20.90625 
z
" id="DejaVuSans-Oblique-113"/>
     </defs>
     <g transform="translate(36.253372 48.011777)scale(0.1625 -0.1625)">
      <use xlink:href="#DejaVuSans-Oblique-113"/>
      <use transform="translate(63.476562 -16.40625)scale(0.7)" xlink:href="#DejaVuSans-48"/>
     </g>
    </g>
   </g>
   <g id="text_4">
    <g clip-path="url(#p89d428fb5f)">
     <!-- ${q}_{1}$ -->
     <defs>
      <path d="M 12.40625 8.296875 
L 28.515625 8.296875 
L 28.515625 63.921875 
L 10.984375 60.40625 
L 10.984375 69.390625 
L 28.421875 72.90625 
L 38.28125 72.90625 
L 38.28125 8.296875 
L 54.390625 8.296875 
L 54.390625 0 
L 12.40625 0 
z
" id="DejaVuSans-49"/>
     </defs>
     <g transform="translate(36.253372 93.462777)scale(0.1625 -0.1625)">
      <use xlink:href="#DejaVuSans-Oblique-113"/>
      <use transform="translate(63.476562 -16.40625)scale(0.7)" xlink:href="#DejaVuSans-49"/>
     </g>
    </g>
   </g>
   <g id="text_5">
    <g clip-path="url(#p89d428fb5f)">
     <!-- c -->
     <defs>
      <path d="M 48.78125 52.59375 
L 48.78125 44.1875 
Q 44.96875 46.296875 41.140625 47.34375 
Q 37.3125 48.390625 33.40625 48.390625 
Q 24.65625 48.390625 19.8125 42.84375 
Q 14.984375 37.3125 14.984375 27.296875 
Q 14.984375 17.28125 19.8125 11.734375 
Q 24.65625 6.203125 33.40625 6.203125 
Q 37.3125 6.203125 41.140625 7.25 
Q 44.96875 8.296875 48.78125 10.40625 
L 48.78125 2.09375 
Q 45.015625 0.34375 40.984375 -0.53125 
Q 36.96875 -1.421875 32.421875 -1.421875 
Q 20.0625 -1.421875 12.78125 6.34375 
Q 5.515625 14.109375 5.515625 27.296875 
Q 5.515625 40.671875 12.859375 48.328125 
Q 20.21875 56 33.015625 56 
Q 37.15625 56 41.109375 55.140625 
Q 45.0625 54.296875 48.78125 52.59375 
z
" id="DejaVuSans-99"/>
     </defs>
     <g transform="translate(45.355911 138.946784)scale(0.1625 -0.1625)">
      <use xlink:href="#DejaVuSans-99"/>
     </g>
    </g>
   </g>
  </g>
 </g>
 <defs>
  <clipPath id="p89d428fb5f">
   <rect height="154.5334" width="201.624272" x="7.2" y="7.2"/>
  </clipPath>
 </defs>
</svg>
