<?xml version="1.0" encoding="utf-8" standalone="no"?>
<!DOCTYPE svg PUBLIC "-//W3C//DTD SVG 1.1//EN"
  "http://www.w3.org/Graphics/SVG/1.1/DTD/svg11.dtd">
<!-- Created with matplotlib (https://matplotlib.org/) -->
<svg height="350.7374pt" version="1.1" viewBox="0 0 1017.43903 350.7374" width="1017.43903pt" xmlns="http://www.w3.org/2000/svg" xmlns:xlink="http://www.w3.org/1999/xlink">
 <defs>
  <style type="text/css">
*{stroke-linecap:butt;stroke-linejoin:round;}
  </style>
 </defs>
 <g id="figure_1">
  <g id="patch_1">
   <path d="M 0 350.7374 
L 1017.43903 350.7374 
L 1017.43903 0 
L 0 0 
z
" style="fill:#ffffff;"/>
  </g>
  <g id="axes_1">
   <g id="patch_2">
    <path clip-path="url(#pcf4d0d6a46)" d="M 792.52874 305.926697 
L 804.346 305.926697 
L 798.43737 314.44876 
z
" style="fill:#778899;"/>
   </g>
   <g id="patch_3">
    <path clip-path="url(#pcf4d0d6a46)" d="M 837.97974 305.926697 
L 849.797 305.926697 
L 843.88837 314.44876 
z
" style="fill:#778899;"/>
   </g>
   <g id="patch_4">
    <path clip-path="url(#pcf4d0d6a46)" d="M 883.43074 305.926697 
L 895.248 305.926697 
L 889.33937 314.44876 
z
" style="fill:#778899;"/>
   </g>
   <g id="patch_5">
    <path clip-path="url(#pcf4d0d6a46)" d="M 928.88174 305.926697 
L 940.699 305.926697 
L 934.79037 314.44876 
z
" style="fill:#778899;"/>
   </g>
   <g id="patch_6">
    <path clip-path="url(#pcf4d0d6a46)" d="M 974.33274 305.926697 
L 986.15 305.926697 
L 980.24137 314.44876 
z
" style="fill:#778899;"/>
   </g>
   <g id="line2d_1">
    <path clip-path="url(#pcf4d0d6a46)" d="M 92.12883 43.5608 
L 1005.69393 43.5608 
" style="fill:none;stroke:#000000;stroke-linecap:square;stroke-width:2;"/>
   </g>
   <g id="line2d_2">
    <path clip-path="url(#pcf4d0d6a46)" d="M 92.12883 89.0118 
L 1005.69393 89.0118 
" style="fill:none;stroke:#000000;stroke-linecap:square;stroke-width:2;"/>
   </g>
   <g id="line2d_3">
    <path clip-path="url(#pcf4d0d6a46)" d="M 92.12883 134.4628 
L 1005.69393 134.4628 
" style="fill:none;stroke:#000000;stroke-linecap:square;stroke-width:2;"/>
   </g>
   <g id="line2d_4">
    <path clip-path="url(#pcf4d0d6a46)" d="M 92.12883 179.9138 
L 1005.69393 179.9138 
" style="fill:none;stroke:#000000;stroke-linecap:square;stroke-width:2;"/>
   </g>
   <g id="line2d_5">
    <path clip-path="url(#pcf4d0d6a46)" d="M 92.12883 225.3648 
L 1005.69393 225.3648 
" style="fill:none;stroke:#000000;stroke-linecap:square;stroke-width:2;"/>
   </g>
   <g id="line2d_6">
    <path clip-path="url(#pcf4d0d6a46)" d="M 92.12883 269.338642 
L 1005.69393 269.338642 
" style="fill:none;stroke:#778899;stroke-linecap:square;stroke-width:2;"/>
   </g>
   <g id="line2d_7">
    <path clip-path="url(#pcf4d0d6a46)" d="M 92.12883 272.292957 
L 1005.69393 272.292957 
" style="fill:none;stroke:#778899;stroke-linecap:square;stroke-width:2;"/>
   </g>
   <g id="line2d_8">
    <path clip-path="url(#pcf4d0d6a46)" d="M 92.12883 314.789643 
L 1005.69393 314.789643 
" style="fill:none;stroke:#778899;stroke-linecap:square;stroke-width:2;"/>
   </g>
   <g id="line2d_9">
    <path clip-path="url(#pcf4d0d6a46)" d="M 92.12883 317.743957 
L 1005.69393 317.743957 
" style="fill:none;stroke:#778899;stroke-linecap:square;stroke-width:2;"/>
   </g>
   <g id="patch_7">
    <path clip-path="url(#pcf4d0d6a46)" d="M 744.123425 202.6393 
L 761.849315 202.6393 
L 761.849315 157.1883 
L 744.123425 157.1883 
z
" style="fill:#bdbdbd;opacity:0.6;"/>
   </g>
   <g id="patch_8">
    <path clip-path="url(#pcf4d0d6a46)" d="M 744.123425 111.7373 
L 761.849315 111.7373 
L 761.849315 66.2863 
L 744.123425 66.2863 
z
" style="fill:#bdbdbd;opacity:0.6;"/>
   </g>
   <g id="patch_9">
    <path clip-path="url(#pcf4d0d6a46)" d="M 744.123425 66.2863 
L 761.849315 66.2863 
L 761.849315 20.8353 
L 744.123425 20.8353 
z
" style="fill:#bdbdbd;opacity:0.6;"/>
   </g>
   <g id="patch_10">
    <path clip-path="url(#pcf4d0d6a46)" d="M 744.123425 248.0903 
L 761.849315 248.0903 
L 761.849315 202.6393 
L 744.123425 202.6393 
z
" style="fill:#bdbdbd;opacity:0.6;"/>
   </g>
   <g id="patch_11">
    <path clip-path="url(#pcf4d0d6a46)" d="M 744.123425 157.1883 
L 761.849315 157.1883 
L 761.849315 111.7373 
L 744.123425 111.7373 
z
" style="fill:#bdbdbd;opacity:0.6;"/>
   </g>
   <g id="line2d_10">
    <path clip-path="url(#pcf4d0d6a46)" d="M 162.12337 225.3648 
L 162.12337 179.9138 
" style="fill:none;stroke:#6fa4ff;stroke-linecap:square;stroke-width:2;"/>
   </g>
   <g id="line2d_11">
    <path clip-path="url(#pcf4d0d6a46)" d="M 207.57437 179.9138 
L 207.57437 134.4628 
" style="fill:none;stroke:#6fa4ff;stroke-linecap:square;stroke-width:2;"/>
   </g>
   <g id="line2d_12">
    <path clip-path="url(#pcf4d0d6a46)" d="M 253.02537 179.9138 
L 253.02537 134.4628 
" style="fill:none;stroke:#6fa4ff;stroke-linecap:square;stroke-width:2;"/>
   </g>
   <g id="line2d_13">
    <path clip-path="url(#pcf4d0d6a46)" d="M 298.47637 179.9138 
L 298.47637 134.4628 
" style="fill:none;stroke:#6fa4ff;stroke-linecap:square;stroke-width:2;"/>
   </g>
   <g id="line2d_14">
    <path clip-path="url(#pcf4d0d6a46)" d="M 343.92737 134.4628 
L 343.92737 89.0118 
" style="fill:none;stroke:#6fa4ff;stroke-linecap:square;stroke-width:2;"/>
   </g>
   <g id="line2d_15">
    <path clip-path="url(#pcf4d0d6a46)" d="M 343.92737 225.3648 
L 343.92737 179.9138 
" style="fill:none;stroke:#6fa4ff;stroke-linecap:square;stroke-width:2;"/>
   </g>
   <g id="line2d_16">
    <path clip-path="url(#pcf4d0d6a46)" d="M 389.37837 134.4628 
L 389.37837 89.0118 
" style="fill:none;stroke:#6fa4ff;stroke-linecap:square;stroke-width:2;"/>
   </g>
   <g id="line2d_17">
    <path clip-path="url(#pcf4d0d6a46)" d="M 389.37837 225.3648 
L 389.37837 179.9138 
" style="fill:none;stroke:#6fa4ff;stroke-linecap:square;stroke-width:2;"/>
   </g>
   <g id="line2d_18">
    <path clip-path="url(#pcf4d0d6a46)" d="M 434.82937 134.4628 
L 434.82937 89.0118 
" style="fill:none;stroke:#6fa4ff;stroke-linecap:square;stroke-width:2;"/>
   </g>
   <g id="line2d_19">
    <path clip-path="url(#pcf4d0d6a46)" d="M 434.82937 225.3648 
L 434.82937 179.9138 
" style="fill:none;stroke:#6fa4ff;stroke-linecap:square;stroke-width:2;"/>
   </g>
   <g id="line2d_20">
    <path clip-path="url(#pcf4d0d6a46)" d="M 480.28037 89.0118 
L 480.28037 43.5608 
" style="fill:none;stroke:#6fa4ff;stroke-linecap:square;stroke-width:2;"/>
   </g>
   <g id="line2d_21">
    <path clip-path="url(#pcf4d0d6a46)" d="M 480.28037 225.3648 
L 480.28037 179.9138 
" style="fill:none;stroke:#6fa4ff;stroke-linecap:square;stroke-width:2;"/>
   </g>
   <g id="line2d_22">
    <path clip-path="url(#pcf4d0d6a46)" d="M 525.73137 89.0118 
L 525.73137 43.5608 
" style="fill:none;stroke:#6fa4ff;stroke-linecap:square;stroke-width:2;"/>
   </g>
   <g id="line2d_23">
    <path clip-path="url(#pcf4d0d6a46)" d="M 525.73137 179.9138 
L 525.73137 134.4628 
" style="fill:none;stroke:#6fa4ff;stroke-linecap:square;stroke-width:2;"/>
   </g>
   <g id="line2d_24">
    <path clip-path="url(#pcf4d0d6a46)" d="M 571.18237 89.0118 
L 571.18237 43.5608 
" style="fill:none;stroke:#6fa4ff;stroke-linecap:square;stroke-width:2;"/>
   </g>
   <g id="line2d_25">
    <path clip-path="url(#pcf4d0d6a46)" d="M 571.18237 179.9138 
L 571.18237 134.4628 
" style="fill:none;stroke:#6fa4ff;stroke-linecap:square;stroke-width:2;"/>
   </g>
   <g id="line2d_26">
    <path clip-path="url(#pcf4d0d6a46)" d="M 616.63337 179.9138 
L 616.63337 134.4628 
" style="fill:none;stroke:#6fa4ff;stroke-linecap:square;stroke-width:2;"/>
   </g>
   <g id="line2d_27">
    <path clip-path="url(#pcf4d0d6a46)" d="M 662.08437 179.9138 
L 662.08437 134.4628 
" style="fill:none;stroke:#6fa4ff;stroke-linecap:square;stroke-width:2;"/>
   </g>
   <g id="line2d_28">
    <path clip-path="url(#pcf4d0d6a46)" d="M 707.53537 134.4628 
L 707.53537 89.0118 
" style="fill:none;stroke:#6fa4ff;stroke-linecap:square;stroke-width:2;"/>
   </g>
   <g id="line2d_29">
    <path clip-path="url(#pcf4d0d6a46)" d="M 799.914527 134.4628 
L 799.914527 305.926697 
" style="fill:none;stroke:#778899;stroke-linecap:square;stroke-width:2;"/>
   </g>
   <g id="line2d_30">
    <path clip-path="url(#pcf4d0d6a46)" d="M 796.960212 134.4628 
L 796.960212 305.926697 
" style="fill:none;stroke:#778899;stroke-linecap:square;stroke-width:2;"/>
   </g>
   <g id="line2d_31">
    <path clip-path="url(#pcf4d0d6a46)" d="M 845.365527 43.5608 
L 845.365527 305.926697 
" style="fill:none;stroke:#778899;stroke-linecap:square;stroke-width:2;"/>
   </g>
   <g id="line2d_32">
    <path clip-path="url(#pcf4d0d6a46)" d="M 842.411212 43.5608 
L 842.411212 305.926697 
" style="fill:none;stroke:#778899;stroke-linecap:square;stroke-width:2;"/>
   </g>
   <g id="line2d_33">
    <path clip-path="url(#pcf4d0d6a46)" d="M 890.816527 225.3648 
L 890.816527 305.926697 
" style="fill:none;stroke:#778899;stroke-linecap:square;stroke-width:2;"/>
   </g>
   <g id="line2d_34">
    <path clip-path="url(#pcf4d0d6a46)" d="M 887.862212 225.3648 
L 887.862212 305.926697 
" style="fill:none;stroke:#778899;stroke-linecap:square;stroke-width:2;"/>
   </g>
   <g id="line2d_35">
    <path clip-path="url(#pcf4d0d6a46)" d="M 936.267527 179.9138 
L 936.267527 305.926697 
" style="fill:none;stroke:#778899;stroke-linecap:square;stroke-width:2;"/>
   </g>
   <g id="line2d_36">
    <path clip-path="url(#pcf4d0d6a46)" d="M 933.313212 179.9138 
L 933.313212 305.926697 
" style="fill:none;stroke:#778899;stroke-linecap:square;stroke-width:2;"/>
   </g>
   <g id="line2d_37">
    <path clip-path="url(#pcf4d0d6a46)" d="M 981.718527 89.0118 
L 981.718527 305.926697 
" style="fill:none;stroke:#778899;stroke-linecap:square;stroke-width:2;"/>
   </g>
   <g id="line2d_38">
    <path clip-path="url(#pcf4d0d6a46)" d="M 978.764212 89.0118 
L 978.764212 305.926697 
" style="fill:none;stroke:#778899;stroke-linecap:square;stroke-width:2;"/>
   </g>
   <g id="line2d_39">
    <path clip-path="url(#pcf4d0d6a46)" d="M 101.21903 275.3609 
L 105.76413 266.2707 
" style="fill:none;stroke:#778899;stroke-linecap:square;stroke-width:1.5;"/>
   </g>
   <g id="line2d_40">
    <path clip-path="url(#pcf4d0d6a46)" d="M 101.21903 320.8119 
L 105.76413 311.7217 
" style="fill:none;stroke:#778899;stroke-linecap:square;stroke-width:1.5;"/>
   </g>
   <g id="patch_12">
    <path clip-path="url(#pcf4d0d6a46)" d="M 101.900795 240.136375 
L 131.443945 240.136375 
L 131.443945 210.593225 
L 101.900795 210.593225 
z
" style="fill:#fa74a6;stroke:#fa74a6;stroke-linejoin:miter;stroke-width:1.5;"/>
   </g>
   <g id="patch_13">
    <path clip-path="url(#pcf4d0d6a46)" d="M 162.12337 229.796272 
C 163.29861 229.796272 164.425873 229.329345 165.256894 228.498324 
C 166.087914 227.667304 166.554842 226.54004 166.554842 225.3648 
C 166.554842 224.18956 166.087914 223.062296 165.256894 222.231276 
C 164.425873 221.400255 163.29861 220.933327 162.12337 220.933327 
C 160.948129 220.933327 159.820866 221.400255 158.989845 222.231276 
C 158.158825 223.062296 157.691897 224.18956 157.691897 225.3648 
C 157.691897 226.54004 158.158825 227.667304 158.989845 228.498324 
C 159.820866 229.329345 160.948129 229.796272 162.12337 229.796272 
z
" style="fill:#6fa4ff;stroke:#6fa4ff;stroke-linejoin:miter;stroke-width:1.5;"/>
   </g>
   <g id="patch_14">
    <path clip-path="url(#pcf4d0d6a46)" d="M 162.12337 190.253902 
C 164.865597 190.253902 167.495879 189.164404 169.434926 187.225357 
C 171.373974 185.286309 172.463472 182.656027 172.463472 179.9138 
C 172.463472 177.171573 171.373974 174.541291 169.434926 172.602243 
C 167.495879 170.663196 164.865597 169.573697 162.12337 169.573697 
C 159.381142 169.573697 156.75086 170.663196 154.811813 172.602243 
C 152.872766 174.541291 151.783267 177.171573 151.783267 179.9138 
C 151.783267 182.656027 152.872766 185.286309 154.811813 187.225357 
C 156.75086 189.164404 159.381142 190.253902 162.12337 190.253902 
z
" style="fill:#6fa4ff;stroke:#6fa4ff;stroke-linejoin:miter;stroke-width:2;"/>
   </g>
   <g id="patch_15">
    <path clip-path="url(#pcf4d0d6a46)" d="M 207.57437 138.894272 
C 208.74961 138.894272 209.876873 138.427345 210.707894 137.596324 
C 211.538914 136.765304 212.005842 135.63804 212.005842 134.4628 
C 212.005842 133.28756 211.538914 132.160296 210.707894 131.329276 
C 209.876873 130.498255 208.74961 130.031327 207.57437 130.031327 
C 206.399129 130.031327 205.271866 130.498255 204.440845 131.329276 
C 203.609825 132.160296 203.142897 133.28756 203.142897 134.4628 
C 203.142897 135.63804 203.609825 136.765304 204.440845 137.596324 
C 205.271866 138.427345 206.399129 138.894272 207.57437 138.894272 
z
" style="fill:#6fa4ff;stroke:#6fa4ff;stroke-linejoin:miter;stroke-width:1.5;"/>
   </g>
   <g id="patch_16">
    <path clip-path="url(#pcf4d0d6a46)" d="M 207.57437 190.253902 
C 210.316597 190.253902 212.946879 189.164404 214.885926 187.225357 
C 216.824974 185.286309 217.914472 182.656027 217.914472 179.9138 
C 217.914472 177.171573 216.824974 174.541291 214.885926 172.602243 
C 212.946879 170.663196 210.316597 169.573697 207.57437 169.573697 
C 204.832142 169.573697 202.20186 170.663196 200.262813 172.602243 
C 198.323766 174.541291 197.234267 177.171573 197.234267 179.9138 
C 197.234267 182.656027 198.323766 185.286309 200.262813 187.225357 
C 202.20186 189.164404 204.832142 190.253902 207.57437 190.253902 
z
" style="fill:#6fa4ff;stroke:#6fa4ff;stroke-linejoin:miter;stroke-width:2;"/>
   </g>
   <g id="patch_17">
    <path clip-path="url(#pcf4d0d6a46)" d="M 253.02537 184.345272 
C 254.20061 184.345272 255.327873 183.878345 256.158894 183.047324 
C 256.989914 182.216304 257.456842 181.08904 257.456842 179.9138 
C 257.456842 178.73856 256.989914 177.611296 256.158894 176.780276 
C 255.327873 175.949255 254.20061 175.482327 253.02537 175.482327 
C 251.850129 175.482327 250.722866 175.949255 249.891845 176.780276 
C 249.060825 177.611296 248.593897 178.73856 248.593897 179.9138 
C 248.593897 181.08904 249.060825 182.216304 249.891845 183.047324 
C 250.722866 183.878345 251.850129 184.345272 253.02537 184.345272 
z
" style="fill:#6fa4ff;stroke:#6fa4ff;stroke-linejoin:miter;stroke-width:1.5;"/>
   </g>
   <g id="patch_18">
    <path clip-path="url(#pcf4d0d6a46)" d="M 253.02537 144.802902 
C 255.767597 144.802902 258.397879 143.713404 260.336926 141.774357 
C 262.275974 139.835309 263.365472 137.205027 263.365472 134.4628 
C 263.365472 131.720573 262.275974 129.090291 260.336926 127.151243 
C 258.397879 125.212196 255.767597 124.122697 253.02537 124.122697 
C 250.283142 124.122697 247.65286 125.212196 245.713813 127.151243 
C 243.774766 129.090291 242.685267 131.720573 242.685267 134.4628 
C 242.685267 137.205027 243.774766 139.835309 245.713813 141.774357 
C 247.65286 143.713404 250.283142 144.802902 253.02537 144.802902 
z
" style="fill:#6fa4ff;stroke:#6fa4ff;stroke-linejoin:miter;stroke-width:2;"/>
   </g>
   <g id="patch_19">
    <path clip-path="url(#pcf4d0d6a46)" d="M 298.47637 138.894272 
C 299.65161 138.894272 300.778873 138.427345 301.609894 137.596324 
C 302.440914 136.765304 302.907842 135.63804 302.907842 134.4628 
C 302.907842 133.28756 302.440914 132.160296 301.609894 131.329276 
C 300.778873 130.498255 299.65161 130.031327 298.47637 130.031327 
C 297.301129 130.031327 296.173866 130.498255 295.342845 131.329276 
C 294.511825 132.160296 294.044897 133.28756 294.044897 134.4628 
C 294.044897 135.63804 294.511825 136.765304 295.342845 137.596324 
C 296.173866 138.427345 297.301129 138.894272 298.47637 138.894272 
z
" style="fill:#6fa4ff;stroke:#6fa4ff;stroke-linejoin:miter;stroke-width:1.5;"/>
   </g>
   <g id="patch_20">
    <path clip-path="url(#pcf4d0d6a46)" d="M 298.47637 190.253902 
C 301.218597 190.253902 303.848879 189.164404 305.787926 187.225357 
C 307.726974 185.286309 308.816472 182.656027 308.816472 179.9138 
C 308.816472 177.171573 307.726974 174.541291 305.787926 172.602243 
C 303.848879 170.663196 301.218597 169.573697 298.47637 169.573697 
C 295.734142 169.573697 293.10386 170.663196 291.164813 172.602243 
C 289.225766 174.541291 288.136267 177.171573 288.136267 179.9138 
C 288.136267 182.656027 289.225766 185.286309 291.164813 187.225357 
C 293.10386 189.164404 295.734142 190.253902 298.47637 190.253902 
z
" style="fill:#6fa4ff;stroke:#6fa4ff;stroke-linejoin:miter;stroke-width:2;"/>
   </g>
   <g id="patch_21">
    <path clip-path="url(#pcf4d0d6a46)" d="M 343.92737 93.443272 
C 345.10261 93.443272 346.229873 92.976345 347.060894 92.145324 
C 347.891914 91.314304 348.358842 90.18704 348.358842 89.0118 
C 348.358842 87.83656 347.891914 86.709296 347.060894 85.878276 
C 346.229873 85.047255 345.10261 84.580327 343.92737 84.580327 
C 342.752129 84.580327 341.624866 85.047255 340.793845 85.878276 
C 339.962825 86.709296 339.495897 87.83656 339.495897 89.0118 
C 339.495897 90.18704 339.962825 91.314304 340.793845 92.145324 
C 341.624866 92.976345 342.752129 93.443272 343.92737 93.443272 
z
" style="fill:#6fa4ff;stroke:#6fa4ff;stroke-linejoin:miter;stroke-width:1.5;"/>
   </g>
   <g id="patch_22">
    <path clip-path="url(#pcf4d0d6a46)" d="M 343.92737 144.802902 
C 346.669597 144.802902 349.299879 143.713404 351.238926 141.774357 
C 353.177974 139.835309 354.267472 137.205027 354.267472 134.4628 
C 354.267472 131.720573 353.177974 129.090291 351.238926 127.151243 
C 349.299879 125.212196 346.669597 124.122697 343.92737 124.122697 
C 341.185142 124.122697 338.55486 125.212196 336.615813 127.151243 
C 334.676766 129.090291 333.587267 131.720573 333.587267 134.4628 
C 333.587267 137.205027 334.676766 139.835309 336.615813 141.774357 
C 338.55486 143.713404 341.185142 144.802902 343.92737 144.802902 
z
" style="fill:#6fa4ff;stroke:#6fa4ff;stroke-linejoin:miter;stroke-width:2;"/>
   </g>
   <g id="patch_23">
    <path clip-path="url(#pcf4d0d6a46)" d="M 343.92737 229.796272 
C 345.10261 229.796272 346.229873 229.329345 347.060894 228.498324 
C 347.891914 227.667304 348.358842 226.54004 348.358842 225.3648 
C 348.358842 224.18956 347.891914 223.062296 347.060894 222.231276 
C 346.229873 221.400255 345.10261 220.933327 343.92737 220.933327 
C 342.752129 220.933327 341.624866 221.400255 340.793845 222.231276 
C 339.962825 223.062296 339.495897 224.18956 339.495897 225.3648 
C 339.495897 226.54004 339.962825 227.667304 340.793845 228.498324 
C 341.624866 229.329345 342.752129 229.796272 343.92737 229.796272 
z
" style="fill:#6fa4ff;stroke:#6fa4ff;stroke-linejoin:miter;stroke-width:1.5;"/>
   </g>
   <g id="patch_24">
    <path clip-path="url(#pcf4d0d6a46)" d="M 343.92737 190.253902 
C 346.669597 190.253902 349.299879 189.164404 351.238926 187.225357 
C 353.177974 185.286309 354.267472 182.656027 354.267472 179.9138 
C 354.267472 177.171573 353.177974 174.541291 351.238926 172.602243 
C 349.299879 170.663196 346.669597 169.573697 343.92737 169.573697 
C 341.185142 169.573697 338.55486 170.663196 336.615813 172.602243 
C 334.676766 174.541291 333.587267 177.171573 333.587267 179.9138 
C 333.587267 182.656027 334.676766 185.286309 336.615813 187.225357 
C 338.55486 189.164404 341.185142 190.253902 343.92737 190.253902 
z
" style="fill:#6fa4ff;stroke:#6fa4ff;stroke-linejoin:miter;stroke-width:2;"/>
   </g>
   <g id="patch_25">
    <path clip-path="url(#pcf4d0d6a46)" d="M 389.37837 138.894272 
C 390.55361 138.894272 391.680873 138.427345 392.511894 137.596324 
C 393.342914 136.765304 393.809842 135.63804 393.809842 134.4628 
C 393.809842 133.28756 393.342914 132.160296 392.511894 131.329276 
C 391.680873 130.498255 390.55361 130.031327 389.37837 130.031327 
C 388.203129 130.031327 387.075866 130.498255 386.244845 131.329276 
C 385.413825 132.160296 384.946897 133.28756 384.946897 134.4628 
C 384.946897 135.63804 385.413825 136.765304 386.244845 137.596324 
C 387.075866 138.427345 388.203129 138.894272 389.37837 138.894272 
z
" style="fill:#6fa4ff;stroke:#6fa4ff;stroke-linejoin:miter;stroke-width:1.5;"/>
   </g>
   <g id="patch_26">
    <path clip-path="url(#pcf4d0d6a46)" d="M 389.37837 99.351902 
C 392.120597 99.351902 394.750879 98.262404 396.689926 96.323357 
C 398.628974 94.384309 399.718472 91.754027 399.718472 89.0118 
C 399.718472 86.269573 398.628974 83.639291 396.689926 81.700243 
C 394.750879 79.761196 392.120597 78.671697 389.37837 78.671697 
C 386.636142 78.671697 384.00586 79.761196 382.066813 81.700243 
C 380.127766 83.639291 379.038267 86.269573 379.038267 89.0118 
C 379.038267 91.754027 380.127766 94.384309 382.066813 96.323357 
C 384.00586 98.262404 386.636142 99.351902 389.37837 99.351902 
z
" style="fill:#6fa4ff;stroke:#6fa4ff;stroke-linejoin:miter;stroke-width:2;"/>
   </g>
   <g id="patch_27">
    <path clip-path="url(#pcf4d0d6a46)" d="M 389.37837 184.345272 
C 390.55361 184.345272 391.680873 183.878345 392.511894 183.047324 
C 393.342914 182.216304 393.809842 181.08904 393.809842 179.9138 
C 393.809842 178.73856 393.342914 177.611296 392.511894 176.780276 
C 391.680873 175.949255 390.55361 175.482327 389.37837 175.482327 
C 388.203129 175.482327 387.075866 175.949255 386.244845 176.780276 
C 385.413825 177.611296 384.946897 178.73856 384.946897 179.9138 
C 384.946897 181.08904 385.413825 182.216304 386.244845 183.047324 
C 387.075866 183.878345 388.203129 184.345272 389.37837 184.345272 
z
" style="fill:#6fa4ff;stroke:#6fa4ff;stroke-linejoin:miter;stroke-width:1.5;"/>
   </g>
   <g id="patch_28">
    <path clip-path="url(#pcf4d0d6a46)" d="M 389.37837 235.704902 
C 392.120597 235.704902 394.750879 234.615404 396.689926 232.676357 
C 398.628974 230.737309 399.718472 228.107027 399.718472 225.3648 
C 399.718472 222.622573 398.628974 219.992291 396.689926 218.053243 
C 394.750879 216.114196 392.120597 215.024697 389.37837 215.024697 
C 386.636142 215.024697 384.00586 216.114196 382.066813 218.053243 
C 380.127766 219.992291 379.038267 222.622573 379.038267 225.3648 
C 379.038267 228.107027 380.127766 230.737309 382.066813 232.676357 
C 384.00586 234.615404 386.636142 235.704902 389.37837 235.704902 
z
" style="fill:#6fa4ff;stroke:#6fa4ff;stroke-linejoin:miter;stroke-width:2;"/>
   </g>
   <g id="patch_29">
    <path clip-path="url(#pcf4d0d6a46)" d="M 434.82937 93.443272 
C 436.00461 93.443272 437.131873 92.976345 437.962894 92.145324 
C 438.793914 91.314304 439.260842 90.18704 439.260842 89.0118 
C 439.260842 87.83656 438.793914 86.709296 437.962894 85.878276 
C 437.131873 85.047255 436.00461 84.580327 434.82937 84.580327 
C 433.654129 84.580327 432.526866 85.047255 431.695845 85.878276 
C 430.864825 86.709296 430.397897 87.83656 430.397897 89.0118 
C 430.397897 90.18704 430.864825 91.314304 431.695845 92.145324 
C 432.526866 92.976345 433.654129 93.443272 434.82937 93.443272 
z
" style="fill:#6fa4ff;stroke:#6fa4ff;stroke-linejoin:miter;stroke-width:1.5;"/>
   </g>
   <g id="patch_30">
    <path clip-path="url(#pcf4d0d6a46)" d="M 434.82937 144.802902 
C 437.571597 144.802902 440.201879 143.713404 442.140926 141.774357 
C 444.079974 139.835309 445.169472 137.205027 445.169472 134.4628 
C 445.169472 131.720573 444.079974 129.090291 442.140926 127.151243 
C 440.201879 125.212196 437.571597 124.122697 434.82937 124.122697 
C 432.087142 124.122697 429.45686 125.212196 427.517813 127.151243 
C 425.578766 129.090291 424.489267 131.720573 424.489267 134.4628 
C 424.489267 137.205027 425.578766 139.835309 427.517813 141.774357 
C 429.45686 143.713404 432.087142 144.802902 434.82937 144.802902 
z
" style="fill:#6fa4ff;stroke:#6fa4ff;stroke-linejoin:miter;stroke-width:2;"/>
   </g>
   <g id="patch_31">
    <path clip-path="url(#pcf4d0d6a46)" d="M 434.82937 229.796272 
C 436.00461 229.796272 437.131873 229.329345 437.962894 228.498324 
C 438.793914 227.667304 439.260842 226.54004 439.260842 225.3648 
C 439.260842 224.18956 438.793914 223.062296 437.962894 222.231276 
C 437.131873 221.400255 436.00461 220.933327 434.82937 220.933327 
C 433.654129 220.933327 432.526866 221.400255 431.695845 222.231276 
C 430.864825 223.062296 430.397897 224.18956 430.397897 225.3648 
C 430.397897 226.54004 430.864825 227.667304 431.695845 228.498324 
C 432.526866 229.329345 433.654129 229.796272 434.82937 229.796272 
z
" style="fill:#6fa4ff;stroke:#6fa4ff;stroke-linejoin:miter;stroke-width:1.5;"/>
   </g>
   <g id="patch_32">
    <path clip-path="url(#pcf4d0d6a46)" d="M 434.82937 190.253902 
C 437.571597 190.253902 440.201879 189.164404 442.140926 187.225357 
C 444.079974 185.286309 445.169472 182.656027 445.169472 179.9138 
C 445.169472 177.171573 444.079974 174.541291 442.140926 172.602243 
C 440.201879 170.663196 437.571597 169.573697 434.82937 169.573697 
C 432.087142 169.573697 429.45686 170.663196 427.517813 172.602243 
C 425.578766 174.541291 424.489267 177.171573 424.489267 179.9138 
C 424.489267 182.656027 425.578766 185.286309 427.517813 187.225357 
C 429.45686 189.164404 432.087142 190.253902 434.82937 190.253902 
z
" style="fill:#6fa4ff;stroke:#6fa4ff;stroke-linejoin:miter;stroke-width:2;"/>
   </g>
   <g id="patch_33">
    <path clip-path="url(#pcf4d0d6a46)" d="M 480.28037 47.992272 
C 481.45561 47.992272 482.582873 47.525345 483.413894 46.694324 
C 484.244914 45.863304 484.711842 44.73604 484.711842 43.5608 
C 484.711842 42.38556 484.244914 41.258296 483.413894 40.427276 
C 482.582873 39.596255 481.45561 39.129327 480.28037 39.129327 
C 479.105129 39.129327 477.977866 39.596255 477.146845 40.427276 
C 476.315825 41.258296 475.848897 42.38556 475.848897 43.5608 
C 475.848897 44.73604 476.315825 45.863304 477.146845 46.694324 
C 477.977866 47.525345 479.105129 47.992272 480.28037 47.992272 
z
" style="fill:#6fa4ff;stroke:#6fa4ff;stroke-linejoin:miter;stroke-width:1.5;"/>
   </g>
   <g id="patch_34">
    <path clip-path="url(#pcf4d0d6a46)" d="M 480.28037 99.351902 
C 483.022597 99.351902 485.652879 98.262404 487.591926 96.323357 
C 489.530974 94.384309 490.620472 91.754027 490.620472 89.0118 
C 490.620472 86.269573 489.530974 83.639291 487.591926 81.700243 
C 485.652879 79.761196 483.022597 78.671697 480.28037 78.671697 
C 477.538142 78.671697 474.90786 79.761196 472.968813 81.700243 
C 471.029766 83.639291 469.940267 86.269573 469.940267 89.0118 
C 469.940267 91.754027 471.029766 94.384309 472.968813 96.323357 
C 474.90786 98.262404 477.538142 99.351902 480.28037 99.351902 
z
" style="fill:#6fa4ff;stroke:#6fa4ff;stroke-linejoin:miter;stroke-width:2;"/>
   </g>
   <g id="patch_35">
    <path clip-path="url(#pcf4d0d6a46)" d="M 480.28037 184.345272 
C 481.45561 184.345272 482.582873 183.878345 483.413894 183.047324 
C 484.244914 182.216304 484.711842 181.08904 484.711842 179.9138 
C 484.711842 178.73856 484.244914 177.611296 483.413894 176.780276 
C 482.582873 175.949255 481.45561 175.482327 480.28037 175.482327 
C 479.105129 175.482327 477.977866 175.949255 477.146845 176.780276 
C 476.315825 177.611296 475.848897 178.73856 475.848897 179.9138 
C 475.848897 181.08904 476.315825 182.216304 477.146845 183.047324 
C 477.977866 183.878345 479.105129 184.345272 480.28037 184.345272 
z
" style="fill:#6fa4ff;stroke:#6fa4ff;stroke-linejoin:miter;stroke-width:1.5;"/>
   </g>
   <g id="patch_36">
    <path clip-path="url(#pcf4d0d6a46)" d="M 480.28037 235.704902 
C 483.022597 235.704902 485.652879 234.615404 487.591926 232.676357 
C 489.530974 230.737309 490.620472 228.107027 490.620472 225.3648 
C 490.620472 222.622573 489.530974 219.992291 487.591926 218.053243 
C 485.652879 216.114196 483.022597 215.024697 480.28037 215.024697 
C 477.538142 215.024697 474.90786 216.114196 472.968813 218.053243 
C 471.029766 219.992291 469.940267 222.622573 469.940267 225.3648 
C 469.940267 228.107027 471.029766 230.737309 472.968813 232.676357 
C 474.90786 234.615404 477.538142 235.704902 480.28037 235.704902 
z
" style="fill:#6fa4ff;stroke:#6fa4ff;stroke-linejoin:miter;stroke-width:2;"/>
   </g>
   <g id="patch_37">
    <path clip-path="url(#pcf4d0d6a46)" d="M 525.73137 93.443272 
C 526.90661 93.443272 528.033873 92.976345 528.864894 92.145324 
C 529.695914 91.314304 530.162842 90.18704 530.162842 89.0118 
C 530.162842 87.83656 529.695914 86.709296 528.864894 85.878276 
C 528.033873 85.047255 526.90661 84.580327 525.73137 84.580327 
C 524.556129 84.580327 523.428866 85.047255 522.597845 85.878276 
C 521.766825 86.709296 521.299897 87.83656 521.299897 89.0118 
C 521.299897 90.18704 521.766825 91.314304 522.597845 92.145324 
C 523.428866 92.976345 524.556129 93.443272 525.73137 93.443272 
z
" style="fill:#6fa4ff;stroke:#6fa4ff;stroke-linejoin:miter;stroke-width:1.5;"/>
   </g>
   <g id="patch_38">
    <path clip-path="url(#pcf4d0d6a46)" d="M 525.73137 53.900902 
C 528.473597 53.900902 531.103879 52.811404 533.042926 50.872357 
C 534.981974 48.933309 536.071472 46.303027 536.071472 43.5608 
C 536.071472 40.818573 534.981974 38.188291 533.042926 36.249243 
C 531.103879 34.310196 528.473597 33.220697 525.73137 33.220697 
C 522.989142 33.220697 520.35886 34.310196 518.419813 36.249243 
C 516.480766 38.188291 515.391267 40.818573 515.391267 43.5608 
C 515.391267 46.303027 516.480766 48.933309 518.419813 50.872357 
C 520.35886 52.811404 522.989142 53.900902 525.73137 53.900902 
z
" style="fill:#6fa4ff;stroke:#6fa4ff;stroke-linejoin:miter;stroke-width:2;"/>
   </g>
   <g id="patch_39">
    <path clip-path="url(#pcf4d0d6a46)" d="M 525.73137 184.345272 
C 526.90661 184.345272 528.033873 183.878345 528.864894 183.047324 
C 529.695914 182.216304 530.162842 181.08904 530.162842 179.9138 
C 530.162842 178.73856 529.695914 177.611296 528.864894 176.780276 
C 528.033873 175.949255 526.90661 175.482327 525.73137 175.482327 
C 524.556129 175.482327 523.428866 175.949255 522.597845 176.780276 
C 521.766825 177.611296 521.299897 178.73856 521.299897 179.9138 
C 521.299897 181.08904 521.766825 182.216304 522.597845 183.047324 
C 523.428866 183.878345 524.556129 184.345272 525.73137 184.345272 
z
" style="fill:#6fa4ff;stroke:#6fa4ff;stroke-linejoin:miter;stroke-width:1.5;"/>
   </g>
   <g id="patch_40">
    <path clip-path="url(#pcf4d0d6a46)" d="M 525.73137 144.802902 
C 528.473597 144.802902 531.103879 143.713404 533.042926 141.774357 
C 534.981974 139.835309 536.071472 137.205027 536.071472 134.4628 
C 536.071472 131.720573 534.981974 129.090291 533.042926 127.151243 
C 531.103879 125.212196 528.473597 124.122697 525.73137 124.122697 
C 522.989142 124.122697 520.35886 125.212196 518.419813 127.151243 
C 516.480766 129.090291 515.391267 131.720573 515.391267 134.4628 
C 515.391267 137.205027 516.480766 139.835309 518.419813 141.774357 
C 520.35886 143.713404 522.989142 144.802902 525.73137 144.802902 
z
" style="fill:#6fa4ff;stroke:#6fa4ff;stroke-linejoin:miter;stroke-width:2;"/>
   </g>
   <g id="patch_41">
    <path clip-path="url(#pcf4d0d6a46)" d="M 571.18237 47.992272 
C 572.35761 47.992272 573.484873 47.525345 574.315894 46.694324 
C 575.146914 45.863304 575.613842 44.73604 575.613842 43.5608 
C 575.613842 42.38556 575.146914 41.258296 574.315894 40.427276 
C 573.484873 39.596255 572.35761 39.129327 571.18237 39.129327 
C 570.007129 39.129327 568.879866 39.596255 568.048845 40.427276 
C 567.217825 41.258296 566.750897 42.38556 566.750897 43.5608 
C 566.750897 44.73604 567.217825 45.863304 568.048845 46.694324 
C 568.879866 47.525345 570.007129 47.992272 571.18237 47.992272 
z
" style="fill:#6fa4ff;stroke:#6fa4ff;stroke-linejoin:miter;stroke-width:1.5;"/>
   </g>
   <g id="patch_42">
    <path clip-path="url(#pcf4d0d6a46)" d="M 571.18237 99.351902 
C 573.924597 99.351902 576.554879 98.262404 578.493926 96.323357 
C 580.432974 94.384309 581.522472 91.754027 581.522472 89.0118 
C 581.522472 86.269573 580.432974 83.639291 578.493926 81.700243 
C 576.554879 79.761196 573.924597 78.671697 571.18237 78.671697 
C 568.440142 78.671697 565.80986 79.761196 563.870813 81.700243 
C 561.931766 83.639291 560.842267 86.269573 560.842267 89.0118 
C 560.842267 91.754027 561.931766 94.384309 563.870813 96.323357 
C 565.80986 98.262404 568.440142 99.351902 571.18237 99.351902 
z
" style="fill:#6fa4ff;stroke:#6fa4ff;stroke-linejoin:miter;stroke-width:2;"/>
   </g>
   <g id="patch_43">
    <path clip-path="url(#pcf4d0d6a46)" d="M 571.18237 138.894272 
C 572.35761 138.894272 573.484873 138.427345 574.315894 137.596324 
C 575.146914 136.765304 575.613842 135.63804 575.613842 134.4628 
C 575.613842 133.28756 575.146914 132.160296 574.315894 131.329276 
C 573.484873 130.498255 572.35761 130.031327 571.18237 130.031327 
C 570.007129 130.031327 568.879866 130.498255 568.048845 131.329276 
C 567.217825 132.160296 566.750897 133.28756 566.750897 134.4628 
C 566.750897 135.63804 567.217825 136.765304 568.048845 137.596324 
C 568.879866 138.427345 570.007129 138.894272 571.18237 138.894272 
z
" style="fill:#6fa4ff;stroke:#6fa4ff;stroke-linejoin:miter;stroke-width:1.5;"/>
   </g>
   <g id="patch_44">
    <path clip-path="url(#pcf4d0d6a46)" d="M 571.18237 190.253902 
C 573.924597 190.253902 576.554879 189.164404 578.493926 187.225357 
C 580.432974 185.286309 581.522472 182.656027 581.522472 179.9138 
C 581.522472 177.171573 580.432974 174.541291 578.493926 172.602243 
C 576.554879 170.663196 573.924597 169.573697 571.18237 169.573697 
C 568.440142 169.573697 565.80986 170.663196 563.870813 172.602243 
C 561.931766 174.541291 560.842267 177.171573 560.842267 179.9138 
C 560.842267 182.656027 561.931766 185.286309 563.870813 187.225357 
C 565.80986 189.164404 568.440142 190.253902 571.18237 190.253902 
z
" style="fill:#6fa4ff;stroke:#6fa4ff;stroke-linejoin:miter;stroke-width:2;"/>
   </g>
   <g id="patch_45">
    <path clip-path="url(#pcf4d0d6a46)" d="M 616.63337 184.345272 
C 617.80861 184.345272 618.935873 183.878345 619.766894 183.047324 
C 620.597914 182.216304 621.064842 181.08904 621.064842 179.9138 
C 621.064842 178.73856 620.597914 177.611296 619.766894 176.780276 
C 618.935873 175.949255 617.80861 175.482327 616.63337 175.482327 
C 615.458129 175.482327 614.330866 175.949255 613.499845 176.780276 
C 612.668825 177.611296 612.201897 178.73856 612.201897 179.9138 
C 612.201897 181.08904 612.668825 182.216304 613.499845 183.047324 
C 614.330866 183.878345 615.458129 184.345272 616.63337 184.345272 
z
" style="fill:#6fa4ff;stroke:#6fa4ff;stroke-linejoin:miter;stroke-width:1.5;"/>
   </g>
   <g id="patch_46">
    <path clip-path="url(#pcf4d0d6a46)" d="M 616.63337 144.802902 
C 619.375597 144.802902 622.005879 143.713404 623.944926 141.774357 
C 625.883974 139.835309 626.973472 137.205027 626.973472 134.4628 
C 626.973472 131.720573 625.883974 129.090291 623.944926 127.151243 
C 622.005879 125.212196 619.375597 124.122697 616.63337 124.122697 
C 613.891142 124.122697 611.26086 125.212196 609.321813 127.151243 
C 607.382766 129.090291 606.293267 131.720573 606.293267 134.4628 
C 606.293267 137.205027 607.382766 139.835309 609.321813 141.774357 
C 611.26086 143.713404 613.891142 144.802902 616.63337 144.802902 
z
" style="fill:#6fa4ff;stroke:#6fa4ff;stroke-linejoin:miter;stroke-width:2;"/>
   </g>
   <g id="patch_47">
    <path clip-path="url(#pcf4d0d6a46)" d="M 662.08437 138.894272 
C 663.25961 138.894272 664.386873 138.427345 665.217894 137.596324 
C 666.048914 136.765304 666.515842 135.63804 666.515842 134.4628 
C 666.515842 133.28756 666.048914 132.160296 665.217894 131.329276 
C 664.386873 130.498255 663.25961 130.031327 662.08437 130.031327 
C 660.909129 130.031327 659.781866 130.498255 658.950845 131.329276 
C 658.119825 132.160296 657.652897 133.28756 657.652897 134.4628 
C 657.652897 135.63804 658.119825 136.765304 658.950845 137.596324 
C 659.781866 138.427345 660.909129 138.894272 662.08437 138.894272 
z
" style="fill:#6fa4ff;stroke:#6fa4ff;stroke-linejoin:miter;stroke-width:1.5;"/>
   </g>
   <g id="patch_48">
    <path clip-path="url(#pcf4d0d6a46)" d="M 662.08437 190.253902 
C 664.826597 190.253902 667.456879 189.164404 669.395926 187.225357 
C 671.334974 185.286309 672.424472 182.656027 672.424472 179.9138 
C 672.424472 177.171573 671.334974 174.541291 669.395926 172.602243 
C 667.456879 170.663196 664.826597 169.573697 662.08437 169.573697 
C 659.342142 169.573697 656.71186 170.663196 654.772813 172.602243 
C 652.833766 174.541291 651.744267 177.171573 651.744267 179.9138 
C 651.744267 182.656027 652.833766 185.286309 654.772813 187.225357 
C 656.71186 189.164404 659.342142 190.253902 662.08437 190.253902 
z
" style="fill:#6fa4ff;stroke:#6fa4ff;stroke-linejoin:miter;stroke-width:2;"/>
   </g>
   <g id="patch_49">
    <path clip-path="url(#pcf4d0d6a46)" d="M 707.53537 138.894272 
C 708.71061 138.894272 709.837873 138.427345 710.668894 137.596324 
C 711.499914 136.765304 711.966842 135.63804 711.966842 134.4628 
C 711.966842 133.28756 711.499914 132.160296 710.668894 131.329276 
C 709.837873 130.498255 708.71061 130.031327 707.53537 130.031327 
C 706.360129 130.031327 705.232866 130.498255 704.401845 131.329276 
C 703.570825 132.160296 703.103897 133.28756 703.103897 134.4628 
C 703.103897 135.63804 703.570825 136.765304 704.401845 137.596324 
C 705.232866 138.427345 706.360129 138.894272 707.53537 138.894272 
z
" style="fill:#6fa4ff;stroke:#6fa4ff;stroke-linejoin:miter;stroke-width:1.5;"/>
   </g>
   <g id="patch_50">
    <path clip-path="url(#pcf4d0d6a46)" d="M 707.53537 99.351902 
C 710.277597 99.351902 712.907879 98.262404 714.846926 96.323357 
C 716.785974 94.384309 717.875472 91.754027 717.875472 89.0118 
C 717.875472 86.269573 716.785974 83.639291 714.846926 81.700243 
C 712.907879 79.761196 710.277597 78.671697 707.53537 78.671697 
C 704.793142 78.671697 702.16286 79.761196 700.223813 81.700243 
C 698.284766 83.639291 697.195267 86.269573 697.195267 89.0118 
C 697.195267 91.754027 698.284766 94.384309 700.223813 96.323357 
C 702.16286 98.262404 704.793142 99.351902 707.53537 99.351902 
z
" style="fill:#6fa4ff;stroke:#6fa4ff;stroke-linejoin:miter;stroke-width:2;"/>
   </g>
   <g id="patch_51">
    <path clip-path="url(#pcf4d0d6a46)" d="M 783.665795 149.234375 
L 813.208945 149.234375 
L 813.208945 119.691225 
L 783.665795 119.691225 
z
" style="stroke:#000000;stroke-linejoin:miter;stroke-width:1.5;"/>
   </g>
   <g id="patch_52">
    <path clip-path="url(#pcf4d0d6a46)" d="M 808.777472 138.894272 
C 808.777472 136.152959 807.687328 133.521118 805.748926 131.582716 
C 803.810525 129.644314 801.178684 128.55417 798.43737 128.55417 
C 795.696056 128.55417 793.064215 129.644314 791.125813 131.582716 
C 789.187411 133.521118 788.097267 136.152959 788.097267 138.894272 
" style="fill:none;stroke:#ffffff;stroke-linejoin:miter;stroke-width:2;"/>
   </g>
   <g id="patch_53">
    <path clip-path="url(#pcf4d0d6a46)" d="M 829.116795 58.332375 
L 858.659945 58.332375 
L 858.659945 28.789225 
L 829.116795 28.789225 
z
" style="stroke:#000000;stroke-linejoin:miter;stroke-width:1.5;"/>
   </g>
   <g id="patch_54">
    <path clip-path="url(#pcf4d0d6a46)" d="M 854.228472 47.992272 
C 854.228472 45.250959 853.138328 42.619118 851.199926 40.680716 
C 849.261525 38.742314 846.629684 37.65217 843.88837 37.65217 
C 841.147056 37.65217 838.515215 38.742314 836.576813 40.680716 
C 834.638411 42.619118 833.548267 45.250959 833.548267 47.992272 
" style="fill:none;stroke:#ffffff;stroke-linejoin:miter;stroke-width:2;"/>
   </g>
   <g id="patch_55">
    <path clip-path="url(#pcf4d0d6a46)" d="M 874.567795 240.136375 
L 904.110945 240.136375 
L 904.110945 210.593225 
L 874.567795 210.593225 
z
" style="stroke:#000000;stroke-linejoin:miter;stroke-width:1.5;"/>
   </g>
   <g id="patch_56">
    <path clip-path="url(#pcf4d0d6a46)" d="M 899.679472 229.796272 
C 899.679472 227.054959 898.589328 224.423118 896.650926 222.484716 
C 894.712525 220.546314 892.080684 219.45617 889.33937 219.45617 
C 886.598056 219.45617 883.966215 220.546314 882.027813 222.484716 
C 880.089411 224.423118 878.999267 227.054959 878.999267 229.796272 
" style="fill:none;stroke:#ffffff;stroke-linejoin:miter;stroke-width:2;"/>
   </g>
   <g id="patch_57">
    <path clip-path="url(#pcf4d0d6a46)" d="M 920.018795 194.685375 
L 949.561945 194.685375 
L 949.561945 165.142225 
L 920.018795 165.142225 
z
" style="stroke:#000000;stroke-linejoin:miter;stroke-width:1.5;"/>
   </g>
   <g id="patch_58">
    <path clip-path="url(#pcf4d0d6a46)" d="M 945.130472 184.345272 
C 945.130472 181.603959 944.040328 178.972118 942.101926 177.033716 
C 940.163525 175.095314 937.531684 174.00517 934.79037 174.00517 
C 932.049056 174.00517 929.417215 175.095314 927.478813 177.033716 
C 925.540411 178.972118 924.450267 181.603959 924.450267 184.345272 
" style="fill:none;stroke:#ffffff;stroke-linejoin:miter;stroke-width:2;"/>
   </g>
   <g id="patch_59">
    <path clip-path="url(#pcf4d0d6a46)" d="M 965.469795 103.783375 
L 995.012945 103.783375 
L 995.012945 74.240225 
L 965.469795 74.240225 
z
" style="stroke:#000000;stroke-linejoin:miter;stroke-width:1.5;"/>
   </g>
   <g id="patch_60">
    <path clip-path="url(#pcf4d0d6a46)" d="M 990.581472 93.443272 
C 990.581472 90.701959 989.491328 88.070118 987.552926 86.131716 
C 985.614525 84.193314 982.982684 83.10317 980.24137 83.10317 
C 977.500056 83.10317 974.868215 84.193314 972.929813 86.131716 
C 970.991411 88.070118 969.901267 90.701959 969.901267 93.443272 
" style="fill:none;stroke:#ffffff;stroke-linejoin:miter;stroke-width:2;"/>
   </g>
   <g id="line2d_41">
    <path clip-path="url(#pcf4d0d6a46)" d="M 798.43737 138.894272 
L 808.777472 128.55417 
" style="fill:none;stroke:#ffffff;stroke-linecap:square;stroke-width:2;"/>
   </g>
   <g id="line2d_42">
    <path clip-path="url(#pcf4d0d6a46)" d="M 843.88837 47.992272 
L 854.228472 37.65217 
" style="fill:none;stroke:#ffffff;stroke-linecap:square;stroke-width:2;"/>
   </g>
   <g id="line2d_43">
    <path clip-path="url(#pcf4d0d6a46)" d="M 889.33937 229.796272 
L 899.679472 219.45617 
" style="fill:none;stroke:#ffffff;stroke-linecap:square;stroke-width:2;"/>
   </g>
   <g id="line2d_44">
    <path clip-path="url(#pcf4d0d6a46)" d="M 934.79037 184.345272 
L 945.130472 174.00517 
" style="fill:none;stroke:#ffffff;stroke-linecap:square;stroke-width:2;"/>
   </g>
   <g id="line2d_45">
    <path clip-path="url(#pcf4d0d6a46)" d="M 980.24137 93.443272 
L 990.581472 83.10317 
" style="fill:none;stroke:#ffffff;stroke-linecap:square;stroke-width:2;"/>
   </g>
   <g id="line2d_46">
    <path clip-path="url(#pcf4d0d6a46)" d="M 162.12337 185.82243 
L 162.12337 174.00517 
" style="fill:none;stroke:#ffffff;stroke-linecap:square;stroke-width:2;"/>
   </g>
   <g id="line2d_47">
    <path clip-path="url(#pcf4d0d6a46)" d="M 156.21474 179.9138 
L 168.032 179.9138 
" style="fill:none;stroke:#ffffff;stroke-linecap:square;stroke-width:2;"/>
   </g>
   <g id="line2d_48">
    <path clip-path="url(#pcf4d0d6a46)" d="M 207.57437 185.82243 
L 207.57437 174.00517 
" style="fill:none;stroke:#ffffff;stroke-linecap:square;stroke-width:2;"/>
   </g>
   <g id="line2d_49">
    <path clip-path="url(#pcf4d0d6a46)" d="M 201.66574 179.9138 
L 213.483 179.9138 
" style="fill:none;stroke:#ffffff;stroke-linecap:square;stroke-width:2;"/>
   </g>
   <g id="line2d_50">
    <path clip-path="url(#pcf4d0d6a46)" d="M 253.02537 140.37143 
L 253.02537 128.55417 
" style="fill:none;stroke:#ffffff;stroke-linecap:square;stroke-width:2;"/>
   </g>
   <g id="line2d_51">
    <path clip-path="url(#pcf4d0d6a46)" d="M 247.11674 134.4628 
L 258.934 134.4628 
" style="fill:none;stroke:#ffffff;stroke-linecap:square;stroke-width:2;"/>
   </g>
   <g id="line2d_52">
    <path clip-path="url(#pcf4d0d6a46)" d="M 298.47637 185.82243 
L 298.47637 174.00517 
" style="fill:none;stroke:#ffffff;stroke-linecap:square;stroke-width:2;"/>
   </g>
   <g id="line2d_53">
    <path clip-path="url(#pcf4d0d6a46)" d="M 292.56774 179.9138 
L 304.385 179.9138 
" style="fill:none;stroke:#ffffff;stroke-linecap:square;stroke-width:2;"/>
   </g>
   <g id="line2d_54">
    <path clip-path="url(#pcf4d0d6a46)" d="M 343.92737 140.37143 
L 343.92737 128.55417 
" style="fill:none;stroke:#ffffff;stroke-linecap:square;stroke-width:2;"/>
   </g>
   <g id="line2d_55">
    <path clip-path="url(#pcf4d0d6a46)" d="M 338.01874 134.4628 
L 349.836 134.4628 
" style="fill:none;stroke:#ffffff;stroke-linecap:square;stroke-width:2;"/>
   </g>
   <g id="line2d_56">
    <path clip-path="url(#pcf4d0d6a46)" d="M 343.92737 185.82243 
L 343.92737 174.00517 
" style="fill:none;stroke:#ffffff;stroke-linecap:square;stroke-width:2;"/>
   </g>
   <g id="line2d_57">
    <path clip-path="url(#pcf4d0d6a46)" d="M 338.01874 179.9138 
L 349.836 179.9138 
" style="fill:none;stroke:#ffffff;stroke-linecap:square;stroke-width:2;"/>
   </g>
   <g id="line2d_58">
    <path clip-path="url(#pcf4d0d6a46)" d="M 389.37837 94.92043 
L 389.37837 83.10317 
" style="fill:none;stroke:#ffffff;stroke-linecap:square;stroke-width:2;"/>
   </g>
   <g id="line2d_59">
    <path clip-path="url(#pcf4d0d6a46)" d="M 383.46974 89.0118 
L 395.287 89.0118 
" style="fill:none;stroke:#ffffff;stroke-linecap:square;stroke-width:2;"/>
   </g>
   <g id="line2d_60">
    <path clip-path="url(#pcf4d0d6a46)" d="M 389.37837 231.27343 
L 389.37837 219.45617 
" style="fill:none;stroke:#ffffff;stroke-linecap:square;stroke-width:2;"/>
   </g>
   <g id="line2d_61">
    <path clip-path="url(#pcf4d0d6a46)" d="M 383.46974 225.3648 
L 395.287 225.3648 
" style="fill:none;stroke:#ffffff;stroke-linecap:square;stroke-width:2;"/>
   </g>
   <g id="line2d_62">
    <path clip-path="url(#pcf4d0d6a46)" d="M 434.82937 140.37143 
L 434.82937 128.55417 
" style="fill:none;stroke:#ffffff;stroke-linecap:square;stroke-width:2;"/>
   </g>
   <g id="line2d_63">
    <path clip-path="url(#pcf4d0d6a46)" d="M 428.92074 134.4628 
L 440.738 134.4628 
" style="fill:none;stroke:#ffffff;stroke-linecap:square;stroke-width:2;"/>
   </g>
   <g id="line2d_64">
    <path clip-path="url(#pcf4d0d6a46)" d="M 434.82937 185.82243 
L 434.82937 174.00517 
" style="fill:none;stroke:#ffffff;stroke-linecap:square;stroke-width:2;"/>
   </g>
   <g id="line2d_65">
    <path clip-path="url(#pcf4d0d6a46)" d="M 428.92074 179.9138 
L 440.738 179.9138 
" style="fill:none;stroke:#ffffff;stroke-linecap:square;stroke-width:2;"/>
   </g>
   <g id="line2d_66">
    <path clip-path="url(#pcf4d0d6a46)" d="M 480.28037 94.92043 
L 480.28037 83.10317 
" style="fill:none;stroke:#ffffff;stroke-linecap:square;stroke-width:2;"/>
   </g>
   <g id="line2d_67">
    <path clip-path="url(#pcf4d0d6a46)" d="M 474.37174 89.0118 
L 486.189 89.0118 
" style="fill:none;stroke:#ffffff;stroke-linecap:square;stroke-width:2;"/>
   </g>
   <g id="line2d_68">
    <path clip-path="url(#pcf4d0d6a46)" d="M 480.28037 231.27343 
L 480.28037 219.45617 
" style="fill:none;stroke:#ffffff;stroke-linecap:square;stroke-width:2;"/>
   </g>
   <g id="line2d_69">
    <path clip-path="url(#pcf4d0d6a46)" d="M 474.37174 225.3648 
L 486.189 225.3648 
" style="fill:none;stroke:#ffffff;stroke-linecap:square;stroke-width:2;"/>
   </g>
   <g id="line2d_70">
    <path clip-path="url(#pcf4d0d6a46)" d="M 525.73137 49.46943 
L 525.73137 37.65217 
" style="fill:none;stroke:#ffffff;stroke-linecap:square;stroke-width:2;"/>
   </g>
   <g id="line2d_71">
    <path clip-path="url(#pcf4d0d6a46)" d="M 519.82274 43.5608 
L 531.64 43.5608 
" style="fill:none;stroke:#ffffff;stroke-linecap:square;stroke-width:2;"/>
   </g>
   <g id="line2d_72">
    <path clip-path="url(#pcf4d0d6a46)" d="M 525.73137 140.37143 
L 525.73137 128.55417 
" style="fill:none;stroke:#ffffff;stroke-linecap:square;stroke-width:2;"/>
   </g>
   <g id="line2d_73">
    <path clip-path="url(#pcf4d0d6a46)" d="M 519.82274 134.4628 
L 531.64 134.4628 
" style="fill:none;stroke:#ffffff;stroke-linecap:square;stroke-width:2;"/>
   </g>
   <g id="line2d_74">
    <path clip-path="url(#pcf4d0d6a46)" d="M 571.18237 94.92043 
L 571.18237 83.10317 
" style="fill:none;stroke:#ffffff;stroke-linecap:square;stroke-width:2;"/>
   </g>
   <g id="line2d_75">
    <path clip-path="url(#pcf4d0d6a46)" d="M 565.27374 89.0118 
L 577.091 89.0118 
" style="fill:none;stroke:#ffffff;stroke-linecap:square;stroke-width:2;"/>
   </g>
   <g id="line2d_76">
    <path clip-path="url(#pcf4d0d6a46)" d="M 571.18237 185.82243 
L 571.18237 174.00517 
" style="fill:none;stroke:#ffffff;stroke-linecap:square;stroke-width:2;"/>
   </g>
   <g id="line2d_77">
    <path clip-path="url(#pcf4d0d6a46)" d="M 565.27374 179.9138 
L 577.091 179.9138 
" style="fill:none;stroke:#ffffff;stroke-linecap:square;stroke-width:2;"/>
   </g>
   <g id="line2d_78">
    <path clip-path="url(#pcf4d0d6a46)" d="M 616.63337 140.37143 
L 616.63337 128.55417 
" style="fill:none;stroke:#ffffff;stroke-linecap:square;stroke-width:2;"/>
   </g>
   <g id="line2d_79">
    <path clip-path="url(#pcf4d0d6a46)" d="M 610.72474 134.4628 
L 622.542 134.4628 
" style="fill:none;stroke:#ffffff;stroke-linecap:square;stroke-width:2;"/>
   </g>
   <g id="line2d_80">
    <path clip-path="url(#pcf4d0d6a46)" d="M 662.08437 185.82243 
L 662.08437 174.00517 
" style="fill:none;stroke:#ffffff;stroke-linecap:square;stroke-width:2;"/>
   </g>
   <g id="line2d_81">
    <path clip-path="url(#pcf4d0d6a46)" d="M 656.17574 179.9138 
L 667.993 179.9138 
" style="fill:none;stroke:#ffffff;stroke-linecap:square;stroke-width:2;"/>
   </g>
   <g id="line2d_82">
    <path clip-path="url(#pcf4d0d6a46)" d="M 707.53537 94.92043 
L 707.53537 83.10317 
" style="fill:none;stroke:#ffffff;stroke-linecap:square;stroke-width:2;"/>
   </g>
   <g id="line2d_83">
    <path clip-path="url(#pcf4d0d6a46)" d="M 701.62674 89.0118 
L 713.444 89.0118 
" style="fill:none;stroke:#ffffff;stroke-linecap:square;stroke-width:2;"/>
   </g>
   <g id="line2d_84">
    <path clip-path="url(#pcf4d0d6a46)" d="M 752.98637 157.1883 
L 752.98637 202.6393 
" style="fill:none;stroke:#000000;stroke-dasharray:3.7,1.6;stroke-dashoffset:0;"/>
   </g>
   <g id="line2d_85">
    <path clip-path="url(#pcf4d0d6a46)" d="M 752.98637 66.2863 
L 752.98637 111.7373 
" style="fill:none;stroke:#000000;stroke-dasharray:3.7,1.6;stroke-dashoffset:0;"/>
   </g>
   <g id="line2d_86">
    <path clip-path="url(#pcf4d0d6a46)" d="M 752.98637 20.8353 
L 752.98637 66.2863 
" style="fill:none;stroke:#000000;stroke-dasharray:3.7,1.6;stroke-dashoffset:0;"/>
   </g>
   <g id="line2d_87">
    <path clip-path="url(#pcf4d0d6a46)" d="M 752.98637 202.6393 
L 752.98637 248.0903 
" style="fill:none;stroke:#000000;stroke-dasharray:3.7,1.6;stroke-dashoffset:0;"/>
   </g>
   <g id="line2d_88">
    <path clip-path="url(#pcf4d0d6a46)" d="M 752.98637 111.7373 
L 752.98637 157.1883 
" style="fill:none;stroke:#000000;stroke-dasharray:3.7,1.6;stroke-dashoffset:0;"/>
   </g>
   <g id="text_1">
    <g clip-path="url(#pcf4d0d6a46)">
     <!-- $\mathrm{U}_3$ -->
     <defs>
      <path d="M 8.6875 72.90625 
L 18.609375 72.90625 
L 18.609375 28.609375 
Q 18.609375 16.890625 22.84375 11.734375 
Q 27.09375 6.59375 36.625 6.59375 
Q 46.09375 6.59375 50.34375 11.734375 
Q 54.59375 16.890625 54.59375 28.609375 
L 54.59375 72.90625 
L 64.5 72.90625 
L 64.5 27.390625 
Q 64.5 13.140625 57.4375 5.859375 
Q 50.390625 -1.421875 36.625 -1.421875 
Q 22.796875 -1.421875 15.734375 5.859375 
Q 8.6875 13.140625 8.6875 27.390625 
z
" id="DejaVuSans-85"/>
      <path d="M 40.578125 39.3125 
Q 47.65625 37.796875 51.625 33 
Q 55.609375 28.21875 55.609375 21.1875 
Q 55.609375 10.40625 48.1875 4.484375 
Q 40.765625 -1.421875 27.09375 -1.421875 
Q 22.515625 -1.421875 17.65625 -0.515625 
Q 12.796875 0.390625 7.625 2.203125 
L 7.625 11.71875 
Q 11.71875 9.328125 16.59375 8.109375 
Q 21.484375 6.890625 26.8125 6.890625 
Q 36.078125 6.890625 40.9375 10.546875 
Q 45.796875 14.203125 45.796875 21.1875 
Q 45.796875 27.640625 41.28125 31.265625 
Q 36.765625 34.90625 28.71875 34.90625 
L 20.21875 34.90625 
L 20.21875 43.015625 
L 29.109375 43.015625 
Q 36.375 43.015625 40.234375 45.921875 
Q 44.09375 48.828125 44.09375 54.296875 
Q 44.09375 59.90625 40.109375 62.90625 
Q 36.140625 65.921875 28.71875 65.921875 
Q 24.65625 65.921875 20.015625 65.03125 
Q 15.375 64.15625 9.8125 62.3125 
L 9.8125 71.09375 
Q 15.4375 72.65625 20.34375 73.4375 
Q 25.25 74.21875 29.59375 74.21875 
Q 40.828125 74.21875 47.359375 69.109375 
Q 53.90625 64.015625 53.90625 55.328125 
Q 53.90625 49.265625 50.4375 45.09375 
Q 46.96875 40.921875 40.578125 39.3125 
z
" id="DejaVuSans-51"/>
     </defs>
     <g transform="translate(108.74237 224.520515)scale(0.13 -0.13)">
      <use transform="translate(0 0.09375)" xlink:href="#DejaVuSans-85"/>
      <use transform="translate(74.150391 -16.3125)scale(0.7)" xlink:href="#DejaVuSans-51"/>
     </g>
    </g>
   </g>
   <g id="text_2">
    <g clip-path="url(#pcf4d0d6a46)">
     <!-- $\pi$, 0, $\pi$ -->
     <defs>
      <path d="M 9.125 54.6875 
L 61.53125 54.6875 
L 59.765625 45.703125 
L 52.875 45.703125 
L 46.34375 12.109375 
Q 45.65625 8.59375 46.578125 7.03125 
Q 47.46875 5.515625 50.140625 5.515625 
Q 50.875 5.515625 51.953125 5.671875 
Q 53.078125 5.765625 53.421875 5.8125 
L 52.15625 -0.6875 
Q 50.34375 -1.3125 48.484375 -1.609375 
Q 46.578125 -1.90625 44.78125 -1.90625 
Q 38.921875 -1.90625 37.3125 1.265625 
Q 35.6875 4.5 37.359375 13.09375 
L 43.703125 45.703125 
L 23.53125 45.703125 
L 14.65625 0 
L 5.46875 0 
L 14.359375 45.703125 
L 7.375 45.703125 
z
" id="DejaVuSans-Oblique-960"/>
      <path d="M 11.71875 12.40625 
L 22.015625 12.40625 
L 22.015625 4 
L 14.015625 -11.625 
L 7.71875 -11.625 
L 11.71875 4 
z
" id="DejaVuSans-44"/>
      <path id="DejaVuSans-32"/>
      <path d="M 31.78125 66.40625 
Q 24.171875 66.40625 20.328125 58.90625 
Q 16.5 51.421875 16.5 36.375 
Q 16.5 21.390625 20.328125 13.890625 
Q 24.171875 6.390625 31.78125 6.390625 
Q 39.453125 6.390625 43.28125 13.890625 
Q 47.125 21.390625 47.125 36.375 
Q 47.125 51.421875 43.28125 58.90625 
Q 39.453125 66.40625 31.78125 66.40625 
z
M 31.78125 74.21875 
Q 44.046875 74.21875 50.515625 64.515625 
Q 56.984375 54.828125 56.984375 36.375 
Q 56.984375 17.96875 50.515625 8.265625 
Q 44.046875 -1.421875 31.78125 -1.421875 
Q 19.53125 -1.421875 13.0625 8.265625 
Q 6.59375 17.96875 6.59375 36.375 
Q 6.59375 54.828125 13.0625 64.515625 
Q 19.53125 74.21875 31.78125 74.21875 
z
" id="DejaVuSans-48"/>
     </defs>
     <g transform="translate(104.19237 236.435245)scale(0.08 -0.08)">
      <use transform="translate(0 0.78125)" xlink:href="#DejaVuSans-Oblique-960"/>
      <use transform="translate(60.205078 0.78125)" xlink:href="#DejaVuSans-44"/>
      <use transform="translate(91.992188 0.78125)" xlink:href="#DejaVuSans-32"/>
      <use transform="translate(123.779297 0.78125)" xlink:href="#DejaVuSans-48"/>
      <use transform="translate(187.402344 0.78125)" xlink:href="#DejaVuSans-44"/>
      <use transform="translate(219.189453 0.78125)" xlink:href="#DejaVuSans-32"/>
      <use transform="translate(250.976562 0.78125)" xlink:href="#DejaVuSans-Oblique-960"/>
     </g>
    </g>
   </g>
   <g id="text_3">
    <g clip-path="url(#pcf4d0d6a46)">
     <!-- 0 -->
     <g transform="translate(809.80012 309.558825)scale(0.104 -0.104)">
      <use xlink:href="#DejaVuSans-48"/>
     </g>
    </g>
   </g>
   <g id="text_4">
    <g clip-path="url(#pcf4d0d6a46)">
     <!-- 1 -->
     <defs>
      <path d="M 12.40625 8.296875 
L 28.515625 8.296875 
L 28.515625 63.921875 
L 10.984375 60.40625 
L 10.984375 69.390625 
L 28.421875 72.90625 
L 38.28125 72.90625 
L 38.28125 8.296875 
L 54.390625 8.296875 
L 54.390625 0 
L 12.40625 0 
z
" id="DejaVuSans-49"/>
     </defs>
     <g transform="translate(855.25112 309.558825)scale(0.104 -0.104)">
      <use xlink:href="#DejaVuSans-49"/>
     </g>
    </g>
   </g>
   <g id="text_5">
    <g clip-path="url(#pcf4d0d6a46)">
     <!-- 2 -->
     <defs>
      <path d="M 19.1875 8.296875 
L 53.609375 8.296875 
L 53.609375 0 
L 7.328125 0 
L 7.328125 8.296875 
Q 12.9375 14.109375 22.625 23.890625 
Q 32.328125 33.6875 34.8125 36.53125 
Q 39.546875 41.84375 41.421875 45.53125 
Q 43.3125 49.21875 43.3125 52.78125 
Q 43.3125 58.59375 39.234375 62.25 
Q 35.15625 65.921875 28.609375 65.921875 
Q 23.96875 65.921875 18.8125 64.3125 
Q 13.671875 62.703125 7.8125 59.421875 
L 7.8125 69.390625 
Q 13.765625 71.78125 18.9375 73 
Q 24.125 74.21875 28.421875 74.21875 
Q 39.75 74.21875 46.484375 68.546875 
Q 53.21875 62.890625 53.21875 53.421875 
Q 53.21875 48.921875 51.53125 44.890625 
Q 49.859375 40.875 45.40625 35.40625 
Q 44.1875 33.984375 37.640625 27.21875 
Q 31.109375 20.453125 19.1875 8.296875 
z
" id="DejaVuSans-50"/>
     </defs>
     <g transform="translate(900.70212 309.558825)scale(0.104 -0.104)">
      <use xlink:href="#DejaVuSans-50"/>
     </g>
    </g>
   </g>
   <g id="text_6">
    <g clip-path="url(#pcf4d0d6a46)">
     <!-- 3 -->
     <g transform="translate(946.15312 309.558825)scale(0.104 -0.104)">
      <use xlink:href="#DejaVuSans-51"/>
     </g>
    </g>
   </g>
   <g id="text_7">
    <g clip-path="url(#pcf4d0d6a46)">
     <!-- 4 -->
     <defs>
      <path d="M 37.796875 64.3125 
L 12.890625 25.390625 
L 37.796875 25.390625 
z
M 35.203125 72.90625 
L 47.609375 72.90625 
L 47.609375 25.390625 
L 58.015625 25.390625 
L 58.015625 17.1875 
L 47.609375 17.1875 
L 47.609375 0 
L 37.796875 0 
L 37.796875 17.1875 
L 4.890625 17.1875 
L 4.890625 26.703125 
z
" id="DejaVuSans-52"/>
     </defs>
     <g transform="translate(991.60412 309.558825)scale(0.104 -0.104)">
      <use xlink:href="#DejaVuSans-52"/>
     </g>
    </g>
   </g>
   <g id="text_8">
    <g clip-path="url(#pcf4d0d6a46)">
     <!-- ${q}_{4}\;\mapsto\;{0}$ -->
     <defs>
      <path d="M 41.703125 8.203125 
Q 38.09375 3.46875 33.171875 1.015625 
Q 28.265625 -1.421875 22.3125 -1.421875 
Q 14.015625 -1.421875 9.296875 4.171875 
Q 4.59375 9.765625 4.59375 19.578125 
Q 4.59375 27.484375 7.5 34.859375 
Q 10.40625 42.234375 15.828125 48.09375 
Q 19.34375 51.90625 23.90625 53.953125 
Q 28.46875 56 33.5 56 
Q 39.546875 56 43.453125 53.609375 
Q 47.359375 51.21875 49.125 46.390625 
L 50.6875 54.59375 
L 59.71875 54.59375 
L 45.125 -20.609375 
L 36.078125 -20.609375 
z
M 13.921875 20.90625 
Q 13.921875 13.671875 16.9375 9.890625 
Q 19.96875 6.109375 25.6875 6.109375 
Q 34.1875 6.109375 40.1875 14.234375 
Q 46.1875 22.359375 46.1875 33.984375 
Q 46.1875 41.015625 43.078125 44.75 
Q 39.984375 48.484375 34.1875 48.484375 
Q 29.9375 48.484375 26.3125 46.5 
Q 22.703125 44.53125 20.015625 40.71875 
Q 17.1875 36.71875 15.546875 31.34375 
Q 13.921875 25.984375 13.921875 20.90625 
z
" id="DejaVuSans-Oblique-113"/>
      <path d="M 65.234375 27.203125 
L 14.015625 27.203125 
L 14.015625 10.359375 
L 5.71875 10.359375 
L 5.71875 52.34375 
L 14.015625 52.34375 
L 14.015625 35.5 
L 65.234375 35.5 
L 53.859375 46.875 
L 59.71875 52.734375 
L 78.90625 33.546875 
L 78.90625 29.15625 
L 59.71875 9.96875 
L 53.859375 15.828125 
z
" id="DejaVuSans-8614"/>
     </defs>
     <g transform="translate(25.83863 48.011777)scale(0.1625 -0.1625)">
      <use transform="translate(0 0.78125)" xlink:href="#DejaVuSans-Oblique-113"/>
      <use transform="translate(63.476562 -15.625)scale(0.7)" xlink:href="#DejaVuSans-52"/>
      <use transform="translate(157.288628 0.78125)" xlink:href="#DejaVuSans-8614"/>
      <use transform="translate(287.619248 0.78125)" xlink:href="#DejaVuSans-48"/>
     </g>
    </g>
   </g>
   <g id="text_9">
    <g clip-path="url(#pcf4d0d6a46)">
     <!-- ${q}_{3}\;\mapsto\;{1}$ -->
     <g transform="translate(25.83863 93.462777)scale(0.1625 -0.1625)">
      <use transform="translate(0 0.09375)" xlink:href="#DejaVuSans-Oblique-113"/>
      <use transform="translate(63.476562 -16.3125)scale(0.7)" xlink:href="#DejaVuSans-51"/>
      <use transform="translate(157.288628 0.09375)" xlink:href="#DejaVuSans-8614"/>
      <use transform="translate(287.619248 0.09375)" xlink:href="#DejaVuSans-49"/>
     </g>
    </g>
   </g>
   <g id="text_10">
    <g clip-path="url(#pcf4d0d6a46)">
     <!-- ${q}_{2}\;\mapsto\;{2}$ -->
     <g transform="translate(25.83863 138.913777)scale(0.1625 -0.1625)">
      <use transform="translate(0 0.78125)" xlink:href="#DejaVuSans-Oblique-113"/>
      <use transform="translate(63.476562 -15.625)scale(0.7)" xlink:href="#DejaVuSans-50"/>
      <use transform="translate(157.288628 0.78125)" xlink:href="#DejaVuSans-8614"/>
      <use transform="translate(287.619248 0.78125)" xlink:href="#DejaVuSans-50"/>
     </g>
    </g>
   </g>
   <g id="text_11">
    <g clip-path="url(#pcf4d0d6a46)">
     <!-- ${q}_{1}\;\mapsto\;{3}$ -->
     <g transform="translate(25.83863 184.364777)scale(0.1625 -0.1625)">
      <use transform="translate(0 0.78125)" xlink:href="#DejaVuSans-Oblique-113"/>
      <use transform="translate(63.476562 -15.625)scale(0.7)" xlink:href="#DejaVuSans-49"/>
      <use transform="translate(157.288628 0.78125)" xlink:href="#DejaVuSans-8614"/>
      <use transform="translate(287.619248 0.78125)" xlink:href="#DejaVuSans-51"/>
     </g>
    </g>
   </g>
   <g id="text_12">
    <g clip-path="url(#pcf4d0d6a46)">
     <!-- ${q}_{0}\;\mapsto\;{4}$ -->
     <g transform="translate(25.83863 229.815777)scale(0.1625 -0.1625)">
      <use transform="translate(0 0.09375)" xlink:href="#DejaVuSans-Oblique-113"/>
      <use transform="translate(63.476562 -16.3125)scale(0.7)" xlink:href="#DejaVuSans-48"/>
      <use transform="translate(157.288628 0.09375)" xlink:href="#DejaVuSans-8614"/>
      <use transform="translate(287.619248 0.09375)" xlink:href="#DejaVuSans-52"/>
     </g>
    </g>
   </g>
   <g id="text_13">
    <g clip-path="url(#pcf4d0d6a46)">
     <!-- 5 -->
     <defs>
      <path d="M 10.796875 72.90625 
L 49.515625 72.90625 
L 49.515625 64.59375 
L 19.828125 64.59375 
L 19.828125 46.734375 
Q 21.96875 47.46875 24.109375 47.828125 
Q 26.265625 48.1875 28.421875 48.1875 
Q 40.625 48.1875 47.75 41.5 
Q 54.890625 34.8125 54.890625 23.390625 
Q 54.890625 11.625 47.5625 5.09375 
Q 40.234375 -1.421875 26.90625 -1.421875 
Q 22.3125 -1.421875 17.546875 -0.640625 
Q 12.796875 0.140625 7.71875 1.703125 
L 7.71875 11.625 
Q 12.109375 9.234375 16.796875 8.0625 
Q 21.484375 6.890625 26.703125 6.890625 
Q 35.15625 6.890625 40.078125 11.328125 
Q 45.015625 15.765625 45.015625 23.390625 
Q 45.015625 31 40.078125 35.4375 
Q 35.15625 39.890625 26.703125 39.890625 
Q 22.75 39.890625 18.8125 39.015625 
Q 14.890625 38.140625 10.796875 36.28125 
z
" id="DejaVuSans-53"/>
     </defs>
     <g transform="translate(96.67393 264.107825)scale(0.104 -0.104)">
      <use xlink:href="#DejaVuSans-53"/>
     </g>
    </g>
   </g>
   <g id="text_14">
    <g clip-path="url(#pcf4d0d6a46)">
     <!-- c -->
     <defs>
      <path d="M 48.78125 52.59375 
L 48.78125 44.1875 
Q 44.96875 46.296875 41.140625 47.34375 
Q 37.3125 48.390625 33.40625 48.390625 
Q 24.65625 48.390625 19.8125 42.84375 
Q 14.984375 37.3125 14.984375 27.296875 
Q 14.984375 17.28125 19.8125 11.734375 
Q 24.65625 6.203125 33.40625 6.203125 
Q 37.3125 6.203125 41.140625 7.25 
Q 44.96875 8.296875 48.78125 10.40625 
L 48.78125 2.09375 
Q 45.015625 0.34375 40.984375 -0.53125 
Q 36.96875 -1.421875 32.421875 -1.421875 
Q 20.0625 -1.421875 12.78125 6.34375 
Q 5.515625 14.109375 5.515625 27.296875 
Q 5.515625 40.671875 12.859375 48.328125 
Q 20.21875 56 33.015625 56 
Q 37.15625 56 41.109375 55.140625 
Q 45.0625 54.296875 48.78125 52.59375 
z
" id="DejaVuSans-99"/>
     </defs>
     <g transform="translate(74.103669 275.299784)scale(0.1625 -0.1625)">
      <use xlink:href="#DejaVuSans-99"/>
     </g>
    </g>
   </g>
   <g id="text_15">
    <g clip-path="url(#pcf4d0d6a46)">
     <!-- 5 -->
     <g transform="translate(96.67393 309.558825)scale(0.104 -0.104)">
      <use xlink:href="#DejaVuSans-53"/>
     </g>
    </g>
   </g>
   <g id="text_16">
    <g clip-path="url(#pcf4d0d6a46)">
     <!-- meas -->
     <defs>
      <path d="M 52 44.1875 
Q 55.375 50.25 60.0625 53.125 
Q 64.75 56 71.09375 56 
Q 79.640625 56 84.28125 50.015625 
Q 88.921875 44.046875 88.921875 33.015625 
L 88.921875 0 
L 79.890625 0 
L 79.890625 32.71875 
Q 79.890625 40.578125 77.09375 44.375 
Q 74.3125 48.1875 68.609375 48.1875 
Q 61.625 48.1875 57.5625 43.546875 
Q 53.515625 38.921875 53.515625 30.90625 
L 53.515625 0 
L 44.484375 0 
L 44.484375 32.71875 
Q 44.484375 40.625 41.703125 44.40625 
Q 38.921875 48.1875 33.109375 48.1875 
Q 26.21875 48.1875 22.15625 43.53125 
Q 18.109375 38.875 18.109375 30.90625 
L 18.109375 0 
L 9.078125 0 
L 9.078125 54.6875 
L 18.109375 54.6875 
L 18.109375 46.1875 
Q 21.1875 51.21875 25.484375 53.609375 
Q 29.78125 56 35.6875 56 
Q 41.65625 56 45.828125 52.96875 
Q 50 49.953125 52 44.1875 
z
" id="DejaVuSans-109"/>
      <path d="M 56.203125 29.59375 
L 56.203125 25.203125 
L 14.890625 25.203125 
Q 15.484375 15.921875 20.484375 11.0625 
Q 25.484375 6.203125 34.421875 6.203125 
Q 39.59375 6.203125 44.453125 7.46875 
Q 49.3125 8.734375 54.109375 11.28125 
L 54.109375 2.78125 
Q 49.265625 0.734375 44.1875 -0.34375 
Q 39.109375 -1.421875 33.890625 -1.421875 
Q 20.796875 -1.421875 13.15625 6.1875 
Q 5.515625 13.8125 5.515625 26.8125 
Q 5.515625 40.234375 12.765625 48.109375 
Q 20.015625 56 32.328125 56 
Q 43.359375 56 49.78125 48.890625 
Q 56.203125 41.796875 56.203125 29.59375 
z
M 47.21875 32.234375 
Q 47.125 39.59375 43.09375 43.984375 
Q 39.0625 48.390625 32.421875 48.390625 
Q 24.90625 48.390625 20.390625 44.140625 
Q 15.875 39.890625 15.1875 32.171875 
z
" id="DejaVuSans-101"/>
      <path d="M 34.28125 27.484375 
Q 23.390625 27.484375 19.1875 25 
Q 14.984375 22.515625 14.984375 16.5 
Q 14.984375 11.71875 18.140625 8.90625 
Q 21.296875 6.109375 26.703125 6.109375 
Q 34.1875 6.109375 38.703125 11.40625 
Q 43.21875 16.703125 43.21875 25.484375 
L 43.21875 27.484375 
z
M 52.203125 31.203125 
L 52.203125 0 
L 43.21875 0 
L 43.21875 8.296875 
Q 40.140625 3.328125 35.546875 0.953125 
Q 30.953125 -1.421875 24.3125 -1.421875 
Q 15.921875 -1.421875 10.953125 3.296875 
Q 6 8.015625 6 15.921875 
Q 6 25.140625 12.171875 29.828125 
Q 18.359375 34.515625 30.609375 34.515625 
L 43.21875 34.515625 
L 43.21875 35.40625 
Q 43.21875 41.609375 39.140625 45 
Q 35.0625 48.390625 27.6875 48.390625 
Q 23 48.390625 18.546875 47.265625 
Q 14.109375 46.140625 10.015625 43.890625 
L 10.015625 52.203125 
Q 14.9375 54.109375 19.578125 55.046875 
Q 24.21875 56 28.609375 56 
Q 40.484375 56 46.34375 49.84375 
Q 52.203125 43.703125 52.203125 31.203125 
z
" id="DejaVuSans-97"/>
      <path d="M 44.28125 53.078125 
L 44.28125 44.578125 
Q 40.484375 46.53125 36.375 47.5 
Q 32.28125 48.484375 27.875 48.484375 
Q 21.1875 48.484375 17.84375 46.4375 
Q 14.5 44.390625 14.5 40.28125 
Q 14.5 37.15625 16.890625 35.375 
Q 19.28125 33.59375 26.515625 31.984375 
L 29.59375 31.296875 
Q 39.15625 29.25 43.1875 25.515625 
Q 47.21875 21.78125 47.21875 15.09375 
Q 47.21875 7.46875 41.1875 3.015625 
Q 35.15625 -1.421875 24.609375 -1.421875 
Q 20.21875 -1.421875 15.453125 -0.5625 
Q 10.6875 0.296875 5.421875 2 
L 5.421875 11.28125 
Q 10.40625 8.6875 15.234375 7.390625 
Q 20.0625 6.109375 24.8125 6.109375 
Q 31.15625 6.109375 34.5625 8.28125 
Q 37.984375 10.453125 37.984375 14.40625 
Q 37.984375 18.0625 35.515625 20.015625 
Q 33.0625 21.96875 24.703125 23.78125 
L 21.578125 24.515625 
Q 13.234375 26.265625 9.515625 29.90625 
Q 5.8125 33.546875 5.8125 39.890625 
Q 5.8125 47.609375 11.28125 51.796875 
Q 16.75 56 26.8125 56 
Q 31.78125 56 36.171875 55.265625 
Q 40.578125 54.546875 44.28125 53.078125 
z
" id="DejaVuSans-115"/>
     </defs>
     <g transform="translate(38.787848 320.750784)scale(0.1625 -0.1625)">
      <use xlink:href="#DejaVuSans-109"/>
      <use x="97.412109" xlink:href="#DejaVuSans-101"/>
      <use x="158.935547" xlink:href="#DejaVuSans-97"/>
      <use x="220.214844" xlink:href="#DejaVuSans-115"/>
     </g>
    </g>
   </g>
  </g>
 </g>
 <defs>
  <clipPath id="pcf4d0d6a46">
   <rect height="336.3374" width="1003.03903" x="7.2" y="7.2"/>
  </clipPath>
 </defs>
</svg>
