<?xml version="1.0" encoding="utf-8" standalone="no"?>
<!DOCTYPE svg PUBLIC "-//W3C//DTD SVG 1.1//EN"
  "http://www.w3.org/Graphics/SVG/1.1/DTD/svg11.dtd">
<!-- Created with matplotlib (https://matplotlib.org/) -->
<svg height="123.4824pt" version="1.1" viewBox="0 0 215.804744 123.4824" width="215.804744pt" xmlns="http://www.w3.org/2000/svg" xmlns:xlink="http://www.w3.org/1999/xlink">
 <defs>
  <style type="text/css">
*{stroke-linecap:butt;stroke-linejoin:round;}
  </style>
 </defs>
 <g id="figure_1">
  <g id="patch_1">
   <path d="M 0 123.4824 
L 215.804744 123.4824 
L 215.804744 0 
L 0 0 
z
" style="fill:#ffffff;"/>
  </g>
  <g id="axes_1">
   <g id="line2d_1">
    <path clip-path="url(#pc8356d2019)" d="M 63.161544 43.5608 
L 204.059644 43.5608 
" style="fill:none;stroke:#000000;stroke-linecap:square;stroke-width:2;"/>
   </g>
   <g id="line2d_2">
    <path clip-path="url(#pc8356d2019)" d="M 63.161544 89.0118 
L 204.059644 89.0118 
" style="fill:none;stroke:#000000;stroke-linecap:square;stroke-width:2;"/>
   </g>
   <g id="line2d_3">
    <path clip-path="url(#pc8356d2019)" d="M 133.156084 89.0118 
L 133.156084 43.5608 
" style="fill:none;stroke:#6fa4ff;stroke-linecap:square;stroke-width:2;"/>
   </g>
   <g id="line2d_4">
    <path clip-path="url(#pc8356d2019)" d="M 178.607084 89.0118 
L 178.607084 43.5608 
" style="fill:none;stroke:#6fa4ff;stroke-linecap:square;stroke-width:2;"/>
   </g>
   <g id="patch_2">
    <path clip-path="url(#pc8356d2019)" d="M 72.933509 58.332375 
L 102.476659 58.332375 
L 102.476659 28.789225 
L 72.933509 28.789225 
z
" style="fill:#6fa4ff;stroke:#6fa4ff;stroke-linejoin:miter;stroke-width:1.5;"/>
   </g>
   <g id="patch_3">
    <path clip-path="url(#pc8356d2019)" d="M 133.156084 47.992273 
C 134.331324 47.992273 135.458588 47.525345 136.289608 46.694324 
C 137.120628 45.863304 137.587556 44.73604 137.587556 43.5608 
C 137.587556 42.38556 137.120628 41.258296 136.289608 40.427276 
C 135.458588 39.596255 134.331324 39.129328 133.156084 39.129328 
C 131.980844 39.129328 130.85358 39.596255 130.022559 40.427276 
C 129.191539 41.258296 128.724611 42.38556 128.724611 43.5608 
C 128.724611 44.73604 129.191539 45.863304 130.022559 46.694324 
C 130.85358 47.525345 131.980844 47.992273 133.156084 47.992273 
z
" style="fill:#6fa4ff;stroke:#6fa4ff;stroke-linejoin:miter;stroke-width:1.5;"/>
   </g>
   <g id="patch_4">
    <path clip-path="url(#pc8356d2019)" d="M 133.156084 99.351903 
C 135.898311 99.351903 138.528593 98.262404 140.46764 96.323357 
C 142.406688 94.384309 143.496186 91.754027 143.496186 89.0118 
C 143.496186 86.269573 142.406688 83.639291 140.46764 81.700243 
C 138.528593 79.761196 135.898311 78.671698 133.156084 78.671698 
C 130.413857 78.671698 127.783575 79.761196 125.844527 81.700243 
C 123.90548 83.639291 122.815981 86.269573 122.815981 89.0118 
C 122.815981 91.754027 123.90548 94.384309 125.844527 96.323357 
C 127.783575 98.262404 130.413857 99.351903 133.156084 99.351903 
z
" style="fill:#6fa4ff;stroke:#6fa4ff;stroke-linejoin:miter;stroke-width:2;"/>
   </g>
   <g id="patch_5">
    <path clip-path="url(#pc8356d2019)" d="M 178.607084 47.992273 
C 179.782324 47.992273 180.909588 47.525345 181.740608 46.694324 
C 182.571628 45.863304 183.038556 44.73604 183.038556 43.5608 
C 183.038556 42.38556 182.571628 41.258296 181.740608 40.427276 
C 180.909588 39.596255 179.782324 39.129328 178.607084 39.129328 
C 177.431844 39.129328 176.30458 39.596255 175.473559 40.427276 
C 174.642539 41.258296 174.175611 42.38556 174.175611 43.5608 
C 174.175611 44.73604 174.642539 45.863304 175.473559 46.694324 
C 176.30458 47.525345 177.431844 47.992273 178.607084 47.992273 
z
" style="fill:#6fa4ff;stroke:#6fa4ff;stroke-linejoin:miter;stroke-width:1.5;"/>
   </g>
   <g id="patch_6">
    <path clip-path="url(#pc8356d2019)" d="M 178.607084 99.351903 
C 181.349311 99.351903 183.979593 98.262404 185.91864 96.323357 
C 187.857688 94.384309 188.947186 91.754027 188.947186 89.0118 
C 188.947186 86.269573 187.857688 83.639291 185.91864 81.700243 
C 183.979593 79.761196 181.349311 78.671698 178.607084 78.671698 
C 175.864857 78.671698 173.234575 79.761196 171.295527 81.700243 
C 169.35648 83.639291 168.266981 86.269573 168.266981 89.0118 
C 168.266981 91.754027 169.35648 94.384309 171.295527 96.323357 
C 173.234575 98.262404 175.864857 99.351903 178.607084 99.351903 
z
" style="fill:#6fa4ff;stroke:#6fa4ff;stroke-linejoin:miter;stroke-width:2;"/>
   </g>
   <g id="line2d_5">
    <path clip-path="url(#pc8356d2019)" d="M 133.156084 94.92043 
L 133.156084 83.10317 
" style="fill:none;stroke:#ffffff;stroke-linecap:square;stroke-width:2;"/>
   </g>
   <g id="line2d_6">
    <path clip-path="url(#pc8356d2019)" d="M 127.247454 89.0118 
L 139.064714 89.0118 
" style="fill:none;stroke:#ffffff;stroke-linecap:square;stroke-width:2;"/>
   </g>
   <g id="line2d_7">
    <path clip-path="url(#pc8356d2019)" d="M 178.607084 94.92043 
L 178.607084 83.10317 
" style="fill:none;stroke:#ffffff;stroke-linecap:square;stroke-width:2;"/>
   </g>
   <g id="line2d_8">
    <path clip-path="url(#pc8356d2019)" d="M 172.698454 89.0118 
L 184.515714 89.0118 
" style="fill:none;stroke:#ffffff;stroke-linecap:square;stroke-width:2;"/>
   </g>
   <g id="text_1">
    <g clip-path="url(#pc8356d2019)">
     <!-- H -->
     <defs>
      <path d="M 9.8125 72.90625 
L 19.671875 72.90625 
L 19.671875 43.015625 
L 55.515625 43.015625 
L 55.515625 72.90625 
L 65.375 72.90625 
L 65.375 0 
L 55.515625 0 
L 55.515625 34.71875 
L 19.671875 34.71875 
L 19.671875 0 
L 9.8125 0 
z
" id="DejaVuSans-72"/>
     </defs>
     <g transform="translate(82.816881 47.147988)scale(0.13 -0.13)">
      <use xlink:href="#DejaVuSans-72"/>
     </g>
    </g>
   </g>
   <g id="text_2">
    <g clip-path="url(#pc8356d2019)">
     <!-- ${a}_{0}$ -->
     <defs>
      <path d="M 53.71875 31.203125 
L 47.609375 0 
L 38.625 0 
L 40.28125 8.296875 
Q 36.328125 3.421875 31.265625 1 
Q 26.21875 -1.421875 20.015625 -1.421875 
Q 13.03125 -1.421875 8.5625 2.84375 
Q 4.109375 7.125 4.109375 13.8125 
Q 4.109375 23.390625 11.75 28.953125 
Q 19.390625 34.515625 32.8125 34.515625 
L 45.3125 34.515625 
L 45.796875 36.921875 
Q 45.90625 37.3125 45.953125 37.765625 
Q 46 38.234375 46 39.203125 
Q 46 43.5625 42.453125 45.96875 
Q 38.921875 48.390625 32.515625 48.390625 
Q 28.125 48.390625 23.5 47.265625 
Q 18.890625 46.140625 14.015625 43.890625 
L 15.578125 52.203125 
Q 20.65625 54.109375 25.515625 55.046875 
Q 30.375 56 34.90625 56 
Q 44.578125 56 49.625 51.796875 
Q 54.6875 47.609375 54.6875 39.59375 
Q 54.6875 37.984375 54.4375 35.8125 
Q 54.203125 33.640625 53.71875 31.203125 
z
M 44 27.484375 
L 35.015625 27.484375 
Q 23.96875 27.484375 18.671875 24.53125 
Q 13.375 21.578125 13.375 15.375 
Q 13.375 11.078125 16.078125 8.640625 
Q 18.796875 6.203125 23.578125 6.203125 
Q 30.90625 6.203125 36.375 11.453125 
Q 41.84375 16.703125 43.609375 25.484375 
z
" id="DejaVuSans-Oblique-97"/>
      <path d="M 31.78125 66.40625 
Q 24.171875 66.40625 20.328125 58.90625 
Q 16.5 51.421875 16.5 36.375 
Q 16.5 21.390625 20.328125 13.890625 
Q 24.171875 6.390625 31.78125 6.390625 
Q 39.453125 6.390625 43.28125 13.890625 
Q 47.125 21.390625 47.125 36.375 
Q 47.125 51.421875 43.28125 58.90625 
Q 39.453125 66.40625 31.78125 66.40625 
z
M 31.78125 74.21875 
Q 44.046875 74.21875 50.515625 64.515625 
Q 56.984375 54.828125 56.984375 36.375 
Q 56.984375 17.96875 50.515625 8.265625 
Q 44.046875 -1.421875 31.78125 -1.421875 
Q 19.53125 -1.421875 13.0625 8.265625 
Q 6.59375 17.96875 6.59375 36.375 
Q 6.59375 54.828125 13.0625 64.515625 
Q 19.53125 74.21875 31.78125 74.21875 
z
" id="DejaVuSans-48"/>
     </defs>
     <g transform="translate(36.358844 48.044784)scale(0.1625 -0.1625)">
      <use xlink:href="#DejaVuSans-Oblique-97"/>
      <use transform="translate(61.279297 -16.40625)scale(0.7)" xlink:href="#DejaVuSans-48"/>
     </g>
    </g>
   </g>
   <g id="text_3">
    <g clip-path="url(#pc8356d2019)">
     <!-- ${a}_{1}$ -->
     <defs>
      <path d="M 12.40625 8.296875 
L 28.515625 8.296875 
L 28.515625 63.921875 
L 10.984375 60.40625 
L 10.984375 69.390625 
L 28.421875 72.90625 
L 38.28125 72.90625 
L 38.28125 8.296875 
L 54.390625 8.296875 
L 54.390625 0 
L 12.40625 0 
z
" id="DejaVuSans-49"/>
     </defs>
     <g transform="translate(36.358844 93.495784)scale(0.1625 -0.1625)">
      <use xlink:href="#DejaVuSans-Oblique-97"/>
      <use transform="translate(61.279297 -16.40625)scale(0.7)" xlink:href="#DejaVuSans-49"/>
     </g>
    </g>
   </g>
  </g>
 </g>
 <defs>
  <clipPath id="pc8356d2019">
   <rect height="109.0824" width="201.404744" x="7.2" y="7.2"/>
  </clipPath>
 </defs>
</svg>
