<?xml version="1.0" encoding="utf-8" standalone="no"?>
<!DOCTYPE svg PUBLIC "-//W3C//DTD SVG 1.1//EN"
  "http://www.w3.org/Graphics/SVG/1.1/DTD/svg11.dtd">
<!-- Created with matplotlib (https://matplotlib.org/) -->
<svg height="502.86375pt" version="1.1" viewBox="0 0 748.724687 502.86375" width="748.724687pt" xmlns="http://www.w3.org/2000/svg" xmlns:xlink="http://www.w3.org/1999/xlink">
 <defs>
  <style type="text/css">
*{stroke-linecap:butt;stroke-linejoin:round;}
  </style>
 </defs>
 <g id="figure_1">
  <g id="patch_1">
   <path d="M 0 502.86375 
L 748.724687 502.86375 
L 748.724687 0 
L 0 0 
z
" style="fill:none;"/>
  </g>
  <g id="axes_1">
   <g id="patch_2">
    <path d="M 71.924688 442.08 
L 741.524688 442.08 
L 741.524688 7.2 
L 71.924688 7.2 
z
" style="fill:#ffffff;"/>
   </g>
   <g id="matplotlib.axis_1">
    <g id="xtick_1">
     <g id="line2d_1">
      <path clip-path="url(#p166b506543)" d="M 102.361051 442.08 
L 102.361051 7.2 
" style="fill:none;stroke:#b0b0b0;stroke-linecap:square;stroke-width:0.8;"/>
     </g>
     <g id="line2d_2">
      <defs>
       <path d="M 0 0 
L 0 3.5 
" id="m1ac7cb3a03" style="stroke:#000000;stroke-width:0.8;"/>
      </defs>
      <g>
       <use style="stroke:#000000;stroke-width:0.8;" x="102.361051" xlink:href="#m1ac7cb3a03" y="442.08"/>
      </g>
     </g>
     <g id="text_1">
      <!-- 0 -->
      <defs>
       <path d="M 31.78125 66.40625 
Q 24.171875 66.40625 20.328125 58.90625 
Q 16.5 51.421875 16.5 36.375 
Q 16.5 21.390625 20.328125 13.890625 
Q 24.171875 6.390625 31.78125 6.390625 
Q 39.453125 6.390625 43.28125 13.890625 
Q 47.125 21.390625 47.125 36.375 
Q 47.125 51.421875 43.28125 58.90625 
Q 39.453125 66.40625 31.78125 66.40625 
z
M 31.78125 74.21875 
Q 44.046875 74.21875 50.515625 64.515625 
Q 56.984375 54.828125 56.984375 36.375 
Q 56.984375 17.96875 50.515625 8.265625 
Q 44.046875 -1.421875 31.78125 -1.421875 
Q 19.53125 -1.421875 13.0625 8.265625 
Q 6.59375 17.96875 6.59375 36.375 
Q 6.59375 54.828125 13.0625 64.515625 
Q 19.53125 74.21875 31.78125 74.21875 
z
" id="DejaVuSans-48"/>
      </defs>
      <g transform="translate(95.362301 465.796562)scale(0.22 -0.22)">
       <use xlink:href="#DejaVuSans-48"/>
      </g>
     </g>
    </g>
    <g id="xtick_2">
     <g id="line2d_3">
      <path clip-path="url(#p166b506543)" d="M 199.243006 442.08 
L 199.243006 7.2 
" style="fill:none;stroke:#b0b0b0;stroke-linecap:square;stroke-width:0.8;"/>
     </g>
     <g id="line2d_4">
      <g>
       <use style="stroke:#000000;stroke-width:0.8;" x="199.243006" xlink:href="#m1ac7cb3a03" y="442.08"/>
      </g>
     </g>
     <g id="text_2">
      <!-- 1 -->
      <defs>
       <path d="M 12.40625 8.296875 
L 28.515625 8.296875 
L 28.515625 63.921875 
L 10.984375 60.40625 
L 10.984375 69.390625 
L 28.421875 72.90625 
L 38.28125 72.90625 
L 38.28125 8.296875 
L 54.390625 8.296875 
L 54.390625 0 
L 12.40625 0 
z
" id="DejaVuSans-49"/>
      </defs>
      <g transform="translate(192.244256 465.796562)scale(0.22 -0.22)">
       <use xlink:href="#DejaVuSans-49"/>
      </g>
     </g>
    </g>
    <g id="xtick_3">
     <g id="line2d_5">
      <path clip-path="url(#p166b506543)" d="M 296.12496 442.08 
L 296.12496 7.2 
" style="fill:none;stroke:#b0b0b0;stroke-linecap:square;stroke-width:0.8;"/>
     </g>
     <g id="line2d_6">
      <g>
       <use style="stroke:#000000;stroke-width:0.8;" x="296.12496" xlink:href="#m1ac7cb3a03" y="442.08"/>
      </g>
     </g>
     <g id="text_3">
      <!-- 2 -->
      <defs>
       <path d="M 19.1875 8.296875 
L 53.609375 8.296875 
L 53.609375 0 
L 7.328125 0 
L 7.328125 8.296875 
Q 12.9375 14.109375 22.625 23.890625 
Q 32.328125 33.6875 34.8125 36.53125 
Q 39.546875 41.84375 41.421875 45.53125 
Q 43.3125 49.21875 43.3125 52.78125 
Q 43.3125 58.59375 39.234375 62.25 
Q 35.15625 65.921875 28.609375 65.921875 
Q 23.96875 65.921875 18.8125 64.3125 
Q 13.671875 62.703125 7.8125 59.421875 
L 7.8125 69.390625 
Q 13.765625 71.78125 18.9375 73 
Q 24.125 74.21875 28.421875 74.21875 
Q 39.75 74.21875 46.484375 68.546875 
Q 53.21875 62.890625 53.21875 53.421875 
Q 53.21875 48.921875 51.53125 44.890625 
Q 49.859375 40.875 45.40625 35.40625 
Q 44.1875 33.984375 37.640625 27.21875 
Q 31.109375 20.453125 19.1875 8.296875 
z
" id="DejaVuSans-50"/>
      </defs>
      <g transform="translate(289.12621 465.796562)scale(0.22 -0.22)">
       <use xlink:href="#DejaVuSans-50"/>
      </g>
     </g>
    </g>
    <g id="xtick_4">
     <g id="line2d_7">
      <path clip-path="url(#p166b506543)" d="M 393.006914 442.08 
L 393.006914 7.2 
" style="fill:none;stroke:#b0b0b0;stroke-linecap:square;stroke-width:0.8;"/>
     </g>
     <g id="line2d_8">
      <g>
       <use style="stroke:#000000;stroke-width:0.8;" x="393.006914" xlink:href="#m1ac7cb3a03" y="442.08"/>
      </g>
     </g>
     <g id="text_4">
      <!-- 3 -->
      <defs>
       <path d="M 40.578125 39.3125 
Q 47.65625 37.796875 51.625 33 
Q 55.609375 28.21875 55.609375 21.1875 
Q 55.609375 10.40625 48.1875 4.484375 
Q 40.765625 -1.421875 27.09375 -1.421875 
Q 22.515625 -1.421875 17.65625 -0.515625 
Q 12.796875 0.390625 7.625 2.203125 
L 7.625 11.71875 
Q 11.71875 9.328125 16.59375 8.109375 
Q 21.484375 6.890625 26.8125 6.890625 
Q 36.078125 6.890625 40.9375 10.546875 
Q 45.796875 14.203125 45.796875 21.1875 
Q 45.796875 27.640625 41.28125 31.265625 
Q 36.765625 34.90625 28.71875 34.90625 
L 20.21875 34.90625 
L 20.21875 43.015625 
L 29.109375 43.015625 
Q 36.375 43.015625 40.234375 45.921875 
Q 44.09375 48.828125 44.09375 54.296875 
Q 44.09375 59.90625 40.109375 62.90625 
Q 36.140625 65.921875 28.71875 65.921875 
Q 24.65625 65.921875 20.015625 65.03125 
Q 15.375 64.15625 9.8125 62.3125 
L 9.8125 71.09375 
Q 15.4375 72.65625 20.34375 73.4375 
Q 25.25 74.21875 29.59375 74.21875 
Q 40.828125 74.21875 47.359375 69.109375 
Q 53.90625 64.015625 53.90625 55.328125 
Q 53.90625 49.265625 50.4375 45.09375 
Q 46.96875 40.921875 40.578125 39.3125 
z
" id="DejaVuSans-51"/>
      </defs>
      <g transform="translate(386.008164 465.796562)scale(0.22 -0.22)">
       <use xlink:href="#DejaVuSans-51"/>
      </g>
     </g>
    </g>
    <g id="xtick_5">
     <g id="line2d_9">
      <path clip-path="url(#p166b506543)" d="M 489.888869 442.08 
L 489.888869 7.2 
" style="fill:none;stroke:#b0b0b0;stroke-linecap:square;stroke-width:0.8;"/>
     </g>
     <g id="line2d_10">
      <g>
       <use style="stroke:#000000;stroke-width:0.8;" x="489.888869" xlink:href="#m1ac7cb3a03" y="442.08"/>
      </g>
     </g>
     <g id="text_5">
      <!-- 4 -->
      <defs>
       <path d="M 37.796875 64.3125 
L 12.890625 25.390625 
L 37.796875 25.390625 
z
M 35.203125 72.90625 
L 47.609375 72.90625 
L 47.609375 25.390625 
L 58.015625 25.390625 
L 58.015625 17.1875 
L 47.609375 17.1875 
L 47.609375 0 
L 37.796875 0 
L 37.796875 17.1875 
L 4.890625 17.1875 
L 4.890625 26.703125 
z
" id="DejaVuSans-52"/>
      </defs>
      <g transform="translate(482.890119 465.796562)scale(0.22 -0.22)">
       <use xlink:href="#DejaVuSans-52"/>
      </g>
     </g>
    </g>
    <g id="xtick_6">
     <g id="line2d_11">
      <path clip-path="url(#p166b506543)" d="M 586.770823 442.08 
L 586.770823 7.2 
" style="fill:none;stroke:#b0b0b0;stroke-linecap:square;stroke-width:0.8;"/>
     </g>
     <g id="line2d_12">
      <g>
       <use style="stroke:#000000;stroke-width:0.8;" x="586.770823" xlink:href="#m1ac7cb3a03" y="442.08"/>
      </g>
     </g>
     <g id="text_6">
      <!-- 5 -->
      <defs>
       <path d="M 10.796875 72.90625 
L 49.515625 72.90625 
L 49.515625 64.59375 
L 19.828125 64.59375 
L 19.828125 46.734375 
Q 21.96875 47.46875 24.109375 47.828125 
Q 26.265625 48.1875 28.421875 48.1875 
Q 40.625 48.1875 47.75 41.5 
Q 54.890625 34.8125 54.890625 23.390625 
Q 54.890625 11.625 47.5625 5.09375 
Q 40.234375 -1.421875 26.90625 -1.421875 
Q 22.3125 -1.421875 17.546875 -0.640625 
Q 12.796875 0.140625 7.71875 1.703125 
L 7.71875 11.625 
Q 12.109375 9.234375 16.796875 8.0625 
Q 21.484375 6.890625 26.703125 6.890625 
Q 35.15625 6.890625 40.078125 11.328125 
Q 45.015625 15.765625 45.015625 23.390625 
Q 45.015625 31 40.078125 35.4375 
Q 35.15625 39.890625 26.703125 39.890625 
Q 22.75 39.890625 18.8125 39.015625 
Q 14.890625 38.140625 10.796875 36.28125 
z
" id="DejaVuSans-53"/>
      </defs>
      <g transform="translate(579.772073 465.796562)scale(0.22 -0.22)">
       <use xlink:href="#DejaVuSans-53"/>
      </g>
     </g>
    </g>
    <g id="xtick_7">
     <g id="line2d_13">
      <path clip-path="url(#p166b506543)" d="M 683.652778 442.08 
L 683.652778 7.2 
" style="fill:none;stroke:#b0b0b0;stroke-linecap:square;stroke-width:0.8;"/>
     </g>
     <g id="line2d_14">
      <g>
       <use style="stroke:#000000;stroke-width:0.8;" x="683.652778" xlink:href="#m1ac7cb3a03" y="442.08"/>
      </g>
     </g>
     <g id="text_7">
      <!-- 6 -->
      <defs>
       <path d="M 33.015625 40.375 
Q 26.375 40.375 22.484375 35.828125 
Q 18.609375 31.296875 18.609375 23.390625 
Q 18.609375 15.53125 22.484375 10.953125 
Q 26.375 6.390625 33.015625 6.390625 
Q 39.65625 6.390625 43.53125 10.953125 
Q 47.40625 15.53125 47.40625 23.390625 
Q 47.40625 31.296875 43.53125 35.828125 
Q 39.65625 40.375 33.015625 40.375 
z
M 52.59375 71.296875 
L 52.59375 62.3125 
Q 48.875 64.0625 45.09375 64.984375 
Q 41.3125 65.921875 37.59375 65.921875 
Q 27.828125 65.921875 22.671875 59.328125 
Q 17.53125 52.734375 16.796875 39.40625 
Q 19.671875 43.65625 24.015625 45.921875 
Q 28.375 48.1875 33.59375 48.1875 
Q 44.578125 48.1875 50.953125 41.515625 
Q 57.328125 34.859375 57.328125 23.390625 
Q 57.328125 12.15625 50.6875 5.359375 
Q 44.046875 -1.421875 33.015625 -1.421875 
Q 20.359375 -1.421875 13.671875 8.265625 
Q 6.984375 17.96875 6.984375 36.375 
Q 6.984375 53.65625 15.1875 63.9375 
Q 23.390625 74.21875 37.203125 74.21875 
Q 40.921875 74.21875 44.703125 73.484375 
Q 48.484375 72.75 52.59375 71.296875 
z
" id="DejaVuSans-54"/>
      </defs>
      <g transform="translate(676.654028 465.796562)scale(0.22 -0.22)">
       <use xlink:href="#DejaVuSans-54"/>
      </g>
     </g>
    </g>
    <g id="text_8">
     <!-- Theta -->
     <defs>
      <path d="M -0.296875 72.90625 
L 61.375 72.90625 
L 61.375 64.59375 
L 35.5 64.59375 
L 35.5 0 
L 25.59375 0 
L 25.59375 64.59375 
L -0.296875 64.59375 
z
" id="DejaVuSans-84"/>
      <path d="M 54.890625 33.015625 
L 54.890625 0 
L 45.90625 0 
L 45.90625 32.71875 
Q 45.90625 40.484375 42.875 44.328125 
Q 39.84375 48.1875 33.796875 48.1875 
Q 26.515625 48.1875 22.3125 43.546875 
Q 18.109375 38.921875 18.109375 30.90625 
L 18.109375 0 
L 9.078125 0 
L 9.078125 75.984375 
L 18.109375 75.984375 
L 18.109375 46.1875 
Q 21.34375 51.125 25.703125 53.5625 
Q 30.078125 56 35.796875 56 
Q 45.21875 56 50.046875 50.171875 
Q 54.890625 44.34375 54.890625 33.015625 
z
" id="DejaVuSans-104"/>
      <path d="M 56.203125 29.59375 
L 56.203125 25.203125 
L 14.890625 25.203125 
Q 15.484375 15.921875 20.484375 11.0625 
Q 25.484375 6.203125 34.421875 6.203125 
Q 39.59375 6.203125 44.453125 7.46875 
Q 49.3125 8.734375 54.109375 11.28125 
L 54.109375 2.78125 
Q 49.265625 0.734375 44.1875 -0.34375 
Q 39.109375 -1.421875 33.890625 -1.421875 
Q 20.796875 -1.421875 13.15625 6.1875 
Q 5.515625 13.8125 5.515625 26.8125 
Q 5.515625 40.234375 12.765625 48.109375 
Q 20.015625 56 32.328125 56 
Q 43.359375 56 49.78125 48.890625 
Q 56.203125 41.796875 56.203125 29.59375 
z
M 47.21875 32.234375 
Q 47.125 39.59375 43.09375 43.984375 
Q 39.0625 48.390625 32.421875 48.390625 
Q 24.90625 48.390625 20.390625 44.140625 
Q 15.875 39.890625 15.1875 32.171875 
z
" id="DejaVuSans-101"/>
      <path d="M 18.3125 70.21875 
L 18.3125 54.6875 
L 36.8125 54.6875 
L 36.8125 47.703125 
L 18.3125 47.703125 
L 18.3125 18.015625 
Q 18.3125 11.328125 20.140625 9.421875 
Q 21.96875 7.515625 27.59375 7.515625 
L 36.8125 7.515625 
L 36.8125 0 
L 27.59375 0 
Q 17.1875 0 13.234375 3.875 
Q 9.28125 7.765625 9.28125 18.015625 
L 9.28125 47.703125 
L 2.6875 47.703125 
L 2.6875 54.6875 
L 9.28125 54.6875 
L 9.28125 70.21875 
z
" id="DejaVuSans-116"/>
      <path d="M 34.28125 27.484375 
Q 23.390625 27.484375 19.1875 25 
Q 14.984375 22.515625 14.984375 16.5 
Q 14.984375 11.71875 18.140625 8.90625 
Q 21.296875 6.109375 26.703125 6.109375 
Q 34.1875 6.109375 38.703125 11.40625 
Q 43.21875 16.703125 43.21875 25.484375 
L 43.21875 27.484375 
z
M 52.203125 31.203125 
L 52.203125 0 
L 43.21875 0 
L 43.21875 8.296875 
Q 40.140625 3.328125 35.546875 0.953125 
Q 30.953125 -1.421875 24.3125 -1.421875 
Q 15.921875 -1.421875 10.953125 3.296875 
Q 6 8.015625 6 15.921875 
Q 6 25.140625 12.171875 29.828125 
Q 18.359375 34.515625 30.609375 34.515625 
L 43.21875 34.515625 
L 43.21875 35.40625 
Q 43.21875 41.609375 39.140625 45 
Q 35.0625 48.390625 27.6875 48.390625 
Q 23 48.390625 18.546875 47.265625 
Q 14.109375 46.140625 10.015625 43.890625 
L 10.015625 52.203125 
Q 14.9375 54.109375 19.578125 55.046875 
Q 24.21875 56 28.609375 56 
Q 40.484375 56 46.34375 49.84375 
Q 52.203125 43.703125 52.203125 31.203125 
z
" id="DejaVuSans-97"/>
     </defs>
     <g transform="translate(375.213125 491.088437)scale(0.22 -0.22)">
      <use xlink:href="#DejaVuSans-84"/>
      <use x="61.083984" xlink:href="#DejaVuSans-104"/>
      <use x="124.462891" xlink:href="#DejaVuSans-101"/>
      <use x="185.986328" xlink:href="#DejaVuSans-116"/>
      <use x="225.195312" xlink:href="#DejaVuSans-97"/>
     </g>
    </g>
   </g>
   <g id="matplotlib.axis_2">
    <g id="ytick_1">
     <g id="line2d_15">
      <path clip-path="url(#p166b506543)" d="M 71.924688 432.152556 
L 741.524688 432.152556 
" style="fill:none;stroke:#b0b0b0;stroke-linecap:square;stroke-width:0.8;"/>
     </g>
     <g id="line2d_16">
      <defs>
       <path d="M 0 0 
L -3.5 0 
" id="mc6e627ede1" style="stroke:#000000;stroke-width:0.8;"/>
      </defs>
      <g>
       <use style="stroke:#000000;stroke-width:0.8;" x="71.924688" xlink:href="#mc6e627ede1" y="432.152556"/>
      </g>
     </g>
     <g id="text_9">
      <!-- −3 -->
      <defs>
       <path d="M 10.59375 35.5 
L 73.1875 35.5 
L 73.1875 27.203125 
L 10.59375 27.203125 
z
" id="DejaVuSans-8722"/>
      </defs>
      <g transform="translate(32.491875 440.510837)scale(0.22 -0.22)">
       <use xlink:href="#DejaVuSans-8722"/>
       <use x="83.789062" xlink:href="#DejaVuSans-51"/>
      </g>
     </g>
    </g>
    <g id="ytick_2">
     <g id="line2d_17">
      <path clip-path="url(#p166b506543)" d="M 71.924688 363.138962 
L 741.524688 363.138962 
" style="fill:none;stroke:#b0b0b0;stroke-linecap:square;stroke-width:0.8;"/>
     </g>
     <g id="line2d_18">
      <g>
       <use style="stroke:#000000;stroke-width:0.8;" x="71.924688" xlink:href="#mc6e627ede1" y="363.138962"/>
      </g>
     </g>
     <g id="text_10">
      <!-- −2 -->
      <g transform="translate(32.491875 371.497243)scale(0.22 -0.22)">
       <use xlink:href="#DejaVuSans-8722"/>
       <use x="83.789062" xlink:href="#DejaVuSans-50"/>
      </g>
     </g>
    </g>
    <g id="ytick_3">
     <g id="line2d_19">
      <path clip-path="url(#p166b506543)" d="M 71.924688 294.125367 
L 741.524688 294.125367 
" style="fill:none;stroke:#b0b0b0;stroke-linecap:square;stroke-width:0.8;"/>
     </g>
     <g id="line2d_20">
      <g>
       <use style="stroke:#000000;stroke-width:0.8;" x="71.924688" xlink:href="#mc6e627ede1" y="294.125367"/>
      </g>
     </g>
     <g id="text_11">
      <!-- −1 -->
      <g transform="translate(32.491875 302.483648)scale(0.22 -0.22)">
       <use xlink:href="#DejaVuSans-8722"/>
       <use x="83.789062" xlink:href="#DejaVuSans-49"/>
      </g>
     </g>
    </g>
    <g id="ytick_4">
     <g id="line2d_21">
      <path clip-path="url(#p166b506543)" d="M 71.924688 225.111773 
L 741.524688 225.111773 
" style="fill:none;stroke:#b0b0b0;stroke-linecap:square;stroke-width:0.8;"/>
     </g>
     <g id="line2d_22">
      <g>
       <use style="stroke:#000000;stroke-width:0.8;" x="71.924688" xlink:href="#mc6e627ede1" y="225.111773"/>
      </g>
     </g>
     <g id="text_12">
      <!-- 0 -->
      <g transform="translate(50.927188 233.470054)scale(0.22 -0.22)">
       <use xlink:href="#DejaVuSans-48"/>
      </g>
     </g>
    </g>
    <g id="ytick_5">
     <g id="line2d_23">
      <path clip-path="url(#p166b506543)" d="M 71.924688 156.098178 
L 741.524688 156.098178 
" style="fill:none;stroke:#b0b0b0;stroke-linecap:square;stroke-width:0.8;"/>
     </g>
     <g id="line2d_24">
      <g>
       <use style="stroke:#000000;stroke-width:0.8;" x="71.924688" xlink:href="#mc6e627ede1" y="156.098178"/>
      </g>
     </g>
     <g id="text_13">
      <!-- 1 -->
      <g transform="translate(50.927188 164.456459)scale(0.22 -0.22)">
       <use xlink:href="#DejaVuSans-49"/>
      </g>
     </g>
    </g>
    <g id="ytick_6">
     <g id="line2d_25">
      <path clip-path="url(#p166b506543)" d="M 71.924688 87.084584 
L 741.524688 87.084584 
" style="fill:none;stroke:#b0b0b0;stroke-linecap:square;stroke-width:0.8;"/>
     </g>
     <g id="line2d_26">
      <g>
       <use style="stroke:#000000;stroke-width:0.8;" x="71.924688" xlink:href="#mc6e627ede1" y="87.084584"/>
      </g>
     </g>
     <g id="text_14">
      <!-- 2 -->
      <g transform="translate(50.927188 95.442865)scale(0.22 -0.22)">
       <use xlink:href="#DejaVuSans-50"/>
      </g>
     </g>
    </g>
    <g id="ytick_7">
     <g id="line2d_27">
      <path clip-path="url(#p166b506543)" d="M 71.924688 18.070989 
L 741.524688 18.070989 
" style="fill:none;stroke:#b0b0b0;stroke-linecap:square;stroke-width:0.8;"/>
     </g>
     <g id="line2d_28">
      <g>
       <use style="stroke:#000000;stroke-width:0.8;" x="71.924688" xlink:href="#mc6e627ede1" y="18.070989"/>
      </g>
     </g>
     <g id="text_15">
      <!-- 3 -->
      <g transform="translate(50.927188 26.42927)scale(0.22 -0.22)">
       <use xlink:href="#DejaVuSans-51"/>
      </g>
     </g>
    </g>
    <g id="text_16">
     <!-- CHSH witness -->
     <defs>
      <path d="M 64.40625 67.28125 
L 64.40625 56.890625 
Q 59.421875 61.53125 53.78125 63.8125 
Q 48.140625 66.109375 41.796875 66.109375 
Q 29.296875 66.109375 22.65625 58.46875 
Q 16.015625 50.828125 16.015625 36.375 
Q 16.015625 21.96875 22.65625 14.328125 
Q 29.296875 6.6875 41.796875 6.6875 
Q 48.140625 6.6875 53.78125 8.984375 
Q 59.421875 11.28125 64.40625 15.921875 
L 64.40625 5.609375 
Q 59.234375 2.09375 53.4375 0.328125 
Q 47.65625 -1.421875 41.21875 -1.421875 
Q 24.65625 -1.421875 15.125 8.703125 
Q 5.609375 18.84375 5.609375 36.375 
Q 5.609375 53.953125 15.125 64.078125 
Q 24.65625 74.21875 41.21875 74.21875 
Q 47.75 74.21875 53.53125 72.484375 
Q 59.328125 70.75 64.40625 67.28125 
z
" id="DejaVuSans-67"/>
      <path d="M 9.8125 72.90625 
L 19.671875 72.90625 
L 19.671875 43.015625 
L 55.515625 43.015625 
L 55.515625 72.90625 
L 65.375 72.90625 
L 65.375 0 
L 55.515625 0 
L 55.515625 34.71875 
L 19.671875 34.71875 
L 19.671875 0 
L 9.8125 0 
z
" id="DejaVuSans-72"/>
      <path d="M 53.515625 70.515625 
L 53.515625 60.890625 
Q 47.90625 63.578125 42.921875 64.890625 
Q 37.9375 66.21875 33.296875 66.21875 
Q 25.25 66.21875 20.875 63.09375 
Q 16.5 59.96875 16.5 54.203125 
Q 16.5 49.359375 19.40625 46.890625 
Q 22.3125 44.4375 30.421875 42.921875 
L 36.375 41.703125 
Q 47.40625 39.59375 52.65625 34.296875 
Q 57.90625 29 57.90625 20.125 
Q 57.90625 9.515625 50.796875 4.046875 
Q 43.703125 -1.421875 29.984375 -1.421875 
Q 24.8125 -1.421875 18.96875 -0.25 
Q 13.140625 0.921875 6.890625 3.21875 
L 6.890625 13.375 
Q 12.890625 10.015625 18.65625 8.296875 
Q 24.421875 6.59375 29.984375 6.59375 
Q 38.421875 6.59375 43.015625 9.90625 
Q 47.609375 13.234375 47.609375 19.390625 
Q 47.609375 24.75 44.3125 27.78125 
Q 41.015625 30.8125 33.5 32.328125 
L 27.484375 33.5 
Q 16.453125 35.6875 11.515625 40.375 
Q 6.59375 45.0625 6.59375 53.421875 
Q 6.59375 63.09375 13.40625 68.65625 
Q 20.21875 74.21875 32.171875 74.21875 
Q 37.3125 74.21875 42.625 73.28125 
Q 47.953125 72.359375 53.515625 70.515625 
z
" id="DejaVuSans-83"/>
      <path id="DejaVuSans-32"/>
      <path d="M 4.203125 54.6875 
L 13.1875 54.6875 
L 24.421875 12.015625 
L 35.59375 54.6875 
L 46.1875 54.6875 
L 57.421875 12.015625 
L 68.609375 54.6875 
L 77.59375 54.6875 
L 63.28125 0 
L 52.6875 0 
L 40.921875 44.828125 
L 29.109375 0 
L 18.5 0 
z
" id="DejaVuSans-119"/>
      <path d="M 9.421875 54.6875 
L 18.40625 54.6875 
L 18.40625 0 
L 9.421875 0 
z
M 9.421875 75.984375 
L 18.40625 75.984375 
L 18.40625 64.59375 
L 9.421875 64.59375 
z
" id="DejaVuSans-105"/>
      <path d="M 54.890625 33.015625 
L 54.890625 0 
L 45.90625 0 
L 45.90625 32.71875 
Q 45.90625 40.484375 42.875 44.328125 
Q 39.84375 48.1875 33.796875 48.1875 
Q 26.515625 48.1875 22.3125 43.546875 
Q 18.109375 38.921875 18.109375 30.90625 
L 18.109375 0 
L 9.078125 0 
L 9.078125 54.6875 
L 18.109375 54.6875 
L 18.109375 46.1875 
Q 21.34375 51.125 25.703125 53.5625 
Q 30.078125 56 35.796875 56 
Q 45.21875 56 50.046875 50.171875 
Q 54.890625 44.34375 54.890625 33.015625 
z
" id="DejaVuSans-110"/>
      <path d="M 44.28125 53.078125 
L 44.28125 44.578125 
Q 40.484375 46.53125 36.375 47.5 
Q 32.28125 48.484375 27.875 48.484375 
Q 21.1875 48.484375 17.84375 46.4375 
Q 14.5 44.390625 14.5 40.28125 
Q 14.5 37.15625 16.890625 35.375 
Q 19.28125 33.59375 26.515625 31.984375 
L 29.59375 31.296875 
Q 39.15625 29.25 43.1875 25.515625 
Q 47.21875 21.78125 47.21875 15.09375 
Q 47.21875 7.46875 41.1875 3.015625 
Q 35.15625 -1.421875 24.609375 -1.421875 
Q 20.21875 -1.421875 15.453125 -0.5625 
Q 10.6875 0.296875 5.421875 2 
L 5.421875 11.28125 
Q 10.40625 8.6875 15.234375 7.390625 
Q 20.0625 6.109375 24.8125 6.109375 
Q 31.15625 6.109375 34.5625 8.28125 
Q 37.984375 10.453125 37.984375 14.40625 
Q 37.984375 18.0625 35.515625 20.015625 
Q 33.0625 21.96875 24.703125 23.78125 
L 21.578125 24.515625 
Q 13.234375 26.265625 9.515625 29.90625 
Q 5.8125 33.546875 5.8125 39.890625 
Q 5.8125 47.609375 11.28125 51.796875 
Q 16.75 56 26.8125 56 
Q 31.78125 56 36.171875 55.265625 
Q 40.578125 54.546875 44.28125 53.078125 
z
" id="DejaVuSans-115"/>
     </defs>
     <g transform="translate(23.916563 300.909531)rotate(-90)scale(0.22 -0.22)">
      <use xlink:href="#DejaVuSans-67"/>
      <use x="69.824219" xlink:href="#DejaVuSans-72"/>
      <use x="145.019531" xlink:href="#DejaVuSans-83"/>
      <use x="208.496094" xlink:href="#DejaVuSans-72"/>
      <use x="283.691406" xlink:href="#DejaVuSans-32"/>
      <use x="315.478516" xlink:href="#DejaVuSans-119"/>
      <use x="397.265625" xlink:href="#DejaVuSans-105"/>
      <use x="425.048828" xlink:href="#DejaVuSans-116"/>
      <use x="464.257812" xlink:href="#DejaVuSans-110"/>
      <use x="527.636719" xlink:href="#DejaVuSans-101"/>
      <use x="589.160156" xlink:href="#DejaVuSans-115"/>
      <use x="641.259766" xlink:href="#DejaVuSans-115"/>
     </g>
    </g>
   </g>
   <g id="line2d_29">
    <path clip-path="url(#p166b506543)" d="M 102.361051 88.836882 
L 145.841571 154.076295 
L 189.32209 243.713093 
L 232.80261 327.823411 
L 276.283129 387.671138 
L 319.763649 412.607691 
L 363.244168 411.664145 
L 406.724688 363.947715 
L 450.205207 289.542433 
L 493.685726 202.871063 
L 537.166246 129.544119 
L 580.646765 57.969473 
L 624.127285 27.371649 
L 667.607804 44.75984 
L 711.088324 86.006246 
" style="fill:none;stroke:#1f77b4;stroke-linecap:square;stroke-width:1.5;"/>
    <defs>
     <path d="M 0 3 
C 0.795609 3 1.55874 2.683901 2.12132 2.12132 
C 2.683901 1.55874 3 0.795609 3 0 
C 3 -0.795609 2.683901 -1.55874 2.12132 -2.12132 
C 1.55874 -2.683901 0.795609 -3 0 -3 
C -0.795609 -3 -1.55874 -2.683901 -2.12132 -2.12132 
C -2.683901 -1.55874 -3 -0.795609 -3 0 
C -3 0.795609 -2.683901 1.55874 -2.12132 2.12132 
C -1.55874 2.683901 -0.795609 3 0 3 
z
" id="mfd431abc88" style="stroke:#1f77b4;"/>
    </defs>
    <g clip-path="url(#p166b506543)">
     <use style="fill:#1f77b4;stroke:#1f77b4;" x="102.361051" xlink:href="#mfd431abc88" y="88.836882"/>
     <use style="fill:#1f77b4;stroke:#1f77b4;" x="145.841571" xlink:href="#mfd431abc88" y="154.076295"/>
     <use style="fill:#1f77b4;stroke:#1f77b4;" x="189.32209" xlink:href="#mfd431abc88" y="243.713093"/>
     <use style="fill:#1f77b4;stroke:#1f77b4;" x="232.80261" xlink:href="#mfd431abc88" y="327.823411"/>
     <use style="fill:#1f77b4;stroke:#1f77b4;" x="276.283129" xlink:href="#mfd431abc88" y="387.671138"/>
     <use style="fill:#1f77b4;stroke:#1f77b4;" x="319.763649" xlink:href="#mfd431abc88" y="412.607691"/>
     <use style="fill:#1f77b4;stroke:#1f77b4;" x="363.244168" xlink:href="#mfd431abc88" y="411.664145"/>
     <use style="fill:#1f77b4;stroke:#1f77b4;" x="406.724688" xlink:href="#mfd431abc88" y="363.947715"/>
     <use style="fill:#1f77b4;stroke:#1f77b4;" x="450.205207" xlink:href="#mfd431abc88" y="289.542433"/>
     <use style="fill:#1f77b4;stroke:#1f77b4;" x="493.685726" xlink:href="#mfd431abc88" y="202.871063"/>
     <use style="fill:#1f77b4;stroke:#1f77b4;" x="537.166246" xlink:href="#mfd431abc88" y="129.544119"/>
     <use style="fill:#1f77b4;stroke:#1f77b4;" x="580.646765" xlink:href="#mfd431abc88" y="57.969473"/>
     <use style="fill:#1f77b4;stroke:#1f77b4;" x="624.127285" xlink:href="#mfd431abc88" y="27.371649"/>
     <use style="fill:#1f77b4;stroke:#1f77b4;" x="667.607804" xlink:href="#mfd431abc88" y="44.75984"/>
     <use style="fill:#1f77b4;stroke:#1f77b4;" x="711.088324" xlink:href="#mfd431abc88" y="86.006246"/>
    </g>
   </g>
   <g id="line2d_30">
    <path clip-path="url(#p166b506543)" d="M 102.361051 85.332285 
L 145.841571 48.668813 
L 189.32209 26.967273 
L 232.80261 58.508642 
L 276.283129 118.356369 
L 319.763649 199.366467 
L 363.244168 284.42033 
L 406.724688 362.330209 
L 450.205207 408.698717 
L 493.685726 422.312727 
L 537.166246 397.241382 
L 580.646765 328.092996 
L 624.127285 247.622066 
L 667.607804 158.524437 
L 711.088324 88.162921 
" style="fill:none;stroke:#ff7f0e;stroke-linecap:square;stroke-width:1.5;"/>
    <defs>
     <path d="M 0 3 
C 0.795609 3 1.55874 2.683901 2.12132 2.12132 
C 2.683901 1.55874 3 0.795609 3 0 
C 3 -0.795609 2.683901 -1.55874 2.12132 -2.12132 
C 1.55874 -2.683901 0.795609 -3 0 -3 
C -0.795609 -3 -1.55874 -2.683901 -2.12132 -2.12132 
C -2.683901 -1.55874 -3 -0.795609 -3 0 
C -3 0.795609 -2.683901 1.55874 -2.12132 2.12132 
C -1.55874 2.683901 -0.795609 3 0 3 
z
" id="m0c5bcfc2d6" style="stroke:#ff7f0e;"/>
    </defs>
    <g clip-path="url(#p166b506543)">
     <use style="fill:#ff7f0e;stroke:#ff7f0e;" x="102.361051" xlink:href="#m0c5bcfc2d6" y="85.332285"/>
     <use style="fill:#ff7f0e;stroke:#ff7f0e;" x="145.841571" xlink:href="#m0c5bcfc2d6" y="48.668813"/>
     <use style="fill:#ff7f0e;stroke:#ff7f0e;" x="189.32209" xlink:href="#m0c5bcfc2d6" y="26.967273"/>
     <use style="fill:#ff7f0e;stroke:#ff7f0e;" x="232.80261" xlink:href="#m0c5bcfc2d6" y="58.508642"/>
     <use style="fill:#ff7f0e;stroke:#ff7f0e;" x="276.283129" xlink:href="#m0c5bcfc2d6" y="118.356369"/>
     <use style="fill:#ff7f0e;stroke:#ff7f0e;" x="319.763649" xlink:href="#m0c5bcfc2d6" y="199.366467"/>
     <use style="fill:#ff7f0e;stroke:#ff7f0e;" x="363.244168" xlink:href="#m0c5bcfc2d6" y="284.42033"/>
     <use style="fill:#ff7f0e;stroke:#ff7f0e;" x="406.724688" xlink:href="#m0c5bcfc2d6" y="362.330209"/>
     <use style="fill:#ff7f0e;stroke:#ff7f0e;" x="450.205207" xlink:href="#m0c5bcfc2d6" y="408.698717"/>
     <use style="fill:#ff7f0e;stroke:#ff7f0e;" x="493.685726" xlink:href="#m0c5bcfc2d6" y="422.312727"/>
     <use style="fill:#ff7f0e;stroke:#ff7f0e;" x="537.166246" xlink:href="#m0c5bcfc2d6" y="397.241382"/>
     <use style="fill:#ff7f0e;stroke:#ff7f0e;" x="580.646765" xlink:href="#m0c5bcfc2d6" y="328.092996"/>
     <use style="fill:#ff7f0e;stroke:#ff7f0e;" x="624.127285" xlink:href="#m0c5bcfc2d6" y="247.622066"/>
     <use style="fill:#ff7f0e;stroke:#ff7f0e;" x="667.607804" xlink:href="#m0c5bcfc2d6" y="158.524437"/>
     <use style="fill:#ff7f0e;stroke:#ff7f0e;" x="711.088324" xlink:href="#m0c5bcfc2d6" y="88.162921"/>
    </g>
   </g>
   <g id="line2d_31">
    <path clip-path="url(#p166b506543)" d="M 102.361051 97.901656 
L 145.841571 165.297744 
L 189.32209 243.494056 
L 232.80261 319.567391 
L 276.283129 377.730215 
L 319.763649 403.290181 
L 363.244168 393.349258 
L 406.724688 352.288191 
L 450.205207 283.830615 
L 493.685726 204.269532 
L 537.166246 128.280443 
L 580.646765 72.055256 
L 624.127285 47.607325 
L 667.607804 56.486759 
L 711.088324 98.912597 
" style="fill:none;stroke:#2ca02c;stroke-linecap:square;stroke-width:1.5;"/>
    <defs>
     <path d="M -3 3 
L 3 -3 
M -3 -3 
L 3 3 
" id="m7220c03c23" style="stroke:#2ca02c;"/>
    </defs>
    <g clip-path="url(#p166b506543)">
     <use style="fill:#2ca02c;stroke:#2ca02c;" x="102.361051" xlink:href="#m7220c03c23" y="97.901656"/>
     <use style="fill:#2ca02c;stroke:#2ca02c;" x="145.841571" xlink:href="#m7220c03c23" y="165.297744"/>
     <use style="fill:#2ca02c;stroke:#2ca02c;" x="189.32209" xlink:href="#m7220c03c23" y="243.494056"/>
     <use style="fill:#2ca02c;stroke:#2ca02c;" x="232.80261" xlink:href="#m7220c03c23" y="319.567391"/>
     <use style="fill:#2ca02c;stroke:#2ca02c;" x="276.283129" xlink:href="#m7220c03c23" y="377.730215"/>
     <use style="fill:#2ca02c;stroke:#2ca02c;" x="319.763649" xlink:href="#m7220c03c23" y="403.290181"/>
     <use style="fill:#2ca02c;stroke:#2ca02c;" x="363.244168" xlink:href="#m7220c03c23" y="393.349258"/>
     <use style="fill:#2ca02c;stroke:#2ca02c;" x="406.724688" xlink:href="#m7220c03c23" y="352.288191"/>
     <use style="fill:#2ca02c;stroke:#2ca02c;" x="450.205207" xlink:href="#m7220c03c23" y="283.830615"/>
     <use style="fill:#2ca02c;stroke:#2ca02c;" x="493.685726" xlink:href="#m7220c03c23" y="204.269532"/>
     <use style="fill:#2ca02c;stroke:#2ca02c;" x="537.166246" xlink:href="#m7220c03c23" y="128.280443"/>
     <use style="fill:#2ca02c;stroke:#2ca02c;" x="580.646765" xlink:href="#m7220c03c23" y="72.055256"/>
     <use style="fill:#2ca02c;stroke:#2ca02c;" x="624.127285" xlink:href="#m7220c03c23" y="47.607325"/>
     <use style="fill:#2ca02c;stroke:#2ca02c;" x="667.607804" xlink:href="#m7220c03c23" y="56.486759"/>
     <use style="fill:#2ca02c;stroke:#2ca02c;" x="711.088324" xlink:href="#m7220c03c23" y="98.912597"/>
    </g>
   </g>
   <g id="line2d_32">
    <path clip-path="url(#p166b506543)" d="M 102.361051 99.182181 
L 145.841571 55.745402 
L 189.32209 49.696604 
L 232.80261 72.49333 
L 276.283129 130.420268 
L 319.763649 207.201262 
L 363.244168 283.931709 
L 406.724688 352.759964 
L 450.205207 394.562388 
L 493.685726 402.885805 
L 537.166246 376.09586 
L 580.646765 320.44354 
L 624.127285 243.696244 
L 667.607804 166.274987 
L 711.088324 96.755922 
" style="fill:none;stroke:#d62728;stroke-linecap:square;stroke-width:1.5;"/>
    <defs>
     <path d="M -3 3 
L 3 -3 
M -3 -3 
L 3 3 
" id="ma6884bf940" style="stroke:#d62728;"/>
    </defs>
    <g clip-path="url(#p166b506543)">
     <use style="fill:#d62728;stroke:#d62728;" x="102.361051" xlink:href="#ma6884bf940" y="99.182181"/>
     <use style="fill:#d62728;stroke:#d62728;" x="145.841571" xlink:href="#ma6884bf940" y="55.745402"/>
     <use style="fill:#d62728;stroke:#d62728;" x="189.32209" xlink:href="#ma6884bf940" y="49.696604"/>
     <use style="fill:#d62728;stroke:#d62728;" x="232.80261" xlink:href="#ma6884bf940" y="72.49333"/>
     <use style="fill:#d62728;stroke:#d62728;" x="276.283129" xlink:href="#ma6884bf940" y="130.420268"/>
     <use style="fill:#d62728;stroke:#d62728;" x="319.763649" xlink:href="#ma6884bf940" y="207.201262"/>
     <use style="fill:#d62728;stroke:#d62728;" x="363.244168" xlink:href="#ma6884bf940" y="283.931709"/>
     <use style="fill:#d62728;stroke:#d62728;" x="406.724688" xlink:href="#ma6884bf940" y="352.759964"/>
     <use style="fill:#d62728;stroke:#d62728;" x="450.205207" xlink:href="#ma6884bf940" y="394.562388"/>
     <use style="fill:#d62728;stroke:#d62728;" x="493.685726" xlink:href="#ma6884bf940" y="402.885805"/>
     <use style="fill:#d62728;stroke:#d62728;" x="537.166246" xlink:href="#ma6884bf940" y="376.09586"/>
     <use style="fill:#d62728;stroke:#d62728;" x="580.646765" xlink:href="#ma6884bf940" y="320.44354"/>
     <use style="fill:#d62728;stroke:#d62728;" x="624.127285" xlink:href="#ma6884bf940" y="243.696244"/>
     <use style="fill:#d62728;stroke:#d62728;" x="667.607804" xlink:href="#ma6884bf940" y="166.274987"/>
     <use style="fill:#d62728;stroke:#d62728;" x="711.088324" xlink:href="#ma6884bf940" y="96.755922"/>
    </g>
   </g>
   <g id="line2d_33">
    <path clip-path="url(#p166b506543)" d="M 71.924688 87.084584 
L 741.524688 87.084584 
" style="fill:none;stroke:#ff0000;stroke-linecap:square;stroke-width:1.5;"/>
   </g>
   <g id="line2d_34">
    <path clip-path="url(#p166b506543)" d="M 71.924688 363.138962 
L 741.524688 363.138962 
" style="fill:none;stroke:#ff0000;stroke-linecap:square;stroke-width:1.5;"/>
   </g>
   <g id="line2d_35">
    <path clip-path="url(#p166b506543)" d="M 71.924688 29.91185 
L 741.524688 29.91185 
" style="fill:none;stroke:#000000;stroke-dasharray:9.6,2.4,1.5,2.4;stroke-dashoffset:0;stroke-width:1.5;"/>
   </g>
   <g id="line2d_36">
    <path clip-path="url(#p166b506543)" d="M 71.924688 420.311695 
L 741.524688 420.311695 
" style="fill:none;stroke:#000000;stroke-dasharray:9.6,2.4,1.5,2.4;stroke-dashoffset:0;stroke-width:1.5;"/>
   </g>
   <g id="patch_3">
    <path d="M 71.924688 442.08 
L 71.924688 7.2 
" style="fill:none;stroke:#000000;stroke-linecap:square;stroke-linejoin:miter;stroke-width:0.8;"/>
   </g>
   <g id="patch_4">
    <path d="M 741.524688 442.08 
L 741.524688 7.2 
" style="fill:none;stroke:#000000;stroke-linecap:square;stroke-linejoin:miter;stroke-width:0.8;"/>
   </g>
   <g id="patch_5">
    <path d="M 71.924688 442.08 
L 741.524688 442.08 
" style="fill:none;stroke:#000000;stroke-linecap:square;stroke-linejoin:miter;stroke-width:0.8;"/>
   </g>
   <g id="patch_6">
    <path d="M 71.924688 7.2 
L 741.524688 7.2 
" style="fill:none;stroke:#000000;stroke-linecap:square;stroke-linejoin:miter;stroke-width:0.8;"/>
   </g>
   <g id="legend_1">
    <g id="patch_7">
     <path d="M 313.122187 113.94 
L 500.327188 113.94 
Q 503.527188 113.94 503.527188 110.74 
L 503.527188 18.4 
Q 503.527188 15.2 500.327188 15.2 
L 313.122187 15.2 
Q 309.922188 15.2 309.922188 18.4 
L 309.922188 110.74 
Q 309.922188 113.94 313.122187 113.94 
z
" style="fill:#ffffff;opacity:0.8;stroke:#cccccc;stroke-linejoin:miter;"/>
    </g>
    <g id="line2d_37">
     <path d="M 316.322187 28.1575 
L 348.322187 28.1575 
" style="fill:none;stroke:#1f77b4;stroke-linecap:square;stroke-width:1.5;"/>
    </g>
    <g id="line2d_38">
     <g>
      <use style="fill:#1f77b4;stroke:#1f77b4;" x="332.322187" xlink:href="#mfd431abc88" y="28.1575"/>
     </g>
    </g>
    <g id="text_17">
     <!-- CHSH1 Noiseless -->
     <defs>
      <path d="M 9.8125 72.90625 
L 23.09375 72.90625 
L 55.421875 11.921875 
L 55.421875 72.90625 
L 64.984375 72.90625 
L 64.984375 0 
L 51.703125 0 
L 19.390625 60.984375 
L 19.390625 0 
L 9.8125 0 
z
" id="DejaVuSans-78"/>
      <path d="M 30.609375 48.390625 
Q 23.390625 48.390625 19.1875 42.75 
Q 14.984375 37.109375 14.984375 27.296875 
Q 14.984375 17.484375 19.15625 11.84375 
Q 23.34375 6.203125 30.609375 6.203125 
Q 37.796875 6.203125 41.984375 11.859375 
Q 46.1875 17.53125 46.1875 27.296875 
Q 46.1875 37.015625 41.984375 42.703125 
Q 37.796875 48.390625 30.609375 48.390625 
z
M 30.609375 56 
Q 42.328125 56 49.015625 48.375 
Q 55.71875 40.765625 55.71875 27.296875 
Q 55.71875 13.875 49.015625 6.21875 
Q 42.328125 -1.421875 30.609375 -1.421875 
Q 18.84375 -1.421875 12.171875 6.21875 
Q 5.515625 13.875 5.515625 27.296875 
Q 5.515625 40.765625 12.171875 48.375 
Q 18.84375 56 30.609375 56 
z
" id="DejaVuSans-111"/>
      <path d="M 9.421875 75.984375 
L 18.40625 75.984375 
L 18.40625 0 
L 9.421875 0 
z
" id="DejaVuSans-108"/>
     </defs>
     <g transform="translate(361.122187 33.7575)scale(0.16 -0.16)">
      <use xlink:href="#DejaVuSans-67"/>
      <use x="69.824219" xlink:href="#DejaVuSans-72"/>
      <use x="145.019531" xlink:href="#DejaVuSans-83"/>
      <use x="208.496094" xlink:href="#DejaVuSans-72"/>
      <use x="283.691406" xlink:href="#DejaVuSans-49"/>
      <use x="347.314453" xlink:href="#DejaVuSans-32"/>
      <use x="379.101562" xlink:href="#DejaVuSans-78"/>
      <use x="453.90625" xlink:href="#DejaVuSans-111"/>
      <use x="515.087891" xlink:href="#DejaVuSans-105"/>
      <use x="542.871094" xlink:href="#DejaVuSans-115"/>
      <use x="594.970703" xlink:href="#DejaVuSans-101"/>
      <use x="656.494141" xlink:href="#DejaVuSans-108"/>
      <use x="684.277344" xlink:href="#DejaVuSans-101"/>
      <use x="745.800781" xlink:href="#DejaVuSans-115"/>
      <use x="797.900391" xlink:href="#DejaVuSans-115"/>
     </g>
    </g>
    <g id="line2d_39">
     <path d="M 316.322187 51.6425 
L 348.322187 51.6425 
" style="fill:none;stroke:#ff7f0e;stroke-linecap:square;stroke-width:1.5;"/>
    </g>
    <g id="line2d_40">
     <g>
      <use style="fill:#ff7f0e;stroke:#ff7f0e;" x="332.322187" xlink:href="#m0c5bcfc2d6" y="51.6425"/>
     </g>
    </g>
    <g id="text_18">
     <!-- CHSH2 Noiseless -->
     <g transform="translate(361.122187 57.2425)scale(0.16 -0.16)">
      <use xlink:href="#DejaVuSans-67"/>
      <use x="69.824219" xlink:href="#DejaVuSans-72"/>
      <use x="145.019531" xlink:href="#DejaVuSans-83"/>
      <use x="208.496094" xlink:href="#DejaVuSans-72"/>
      <use x="283.691406" xlink:href="#DejaVuSans-50"/>
      <use x="347.314453" xlink:href="#DejaVuSans-32"/>
      <use x="379.101562" xlink:href="#DejaVuSans-78"/>
      <use x="453.90625" xlink:href="#DejaVuSans-111"/>
      <use x="515.087891" xlink:href="#DejaVuSans-105"/>
      <use x="542.871094" xlink:href="#DejaVuSans-115"/>
      <use x="594.970703" xlink:href="#DejaVuSans-101"/>
      <use x="656.494141" xlink:href="#DejaVuSans-108"/>
      <use x="684.277344" xlink:href="#DejaVuSans-101"/>
      <use x="745.800781" xlink:href="#DejaVuSans-115"/>
      <use x="797.900391" xlink:href="#DejaVuSans-115"/>
     </g>
    </g>
    <g id="line2d_41">
     <path d="M 316.322187 75.1275 
L 348.322187 75.1275 
" style="fill:none;stroke:#2ca02c;stroke-linecap:square;stroke-width:1.5;"/>
    </g>
    <g id="line2d_42">
     <g>
      <use style="fill:#2ca02c;stroke:#2ca02c;" x="332.322187" xlink:href="#m7220c03c23" y="75.1275"/>
     </g>
    </g>
    <g id="text_19">
     <!-- CHSH1 Lima -->
     <defs>
      <path d="M 9.8125 72.90625 
L 19.671875 72.90625 
L 19.671875 8.296875 
L 55.171875 8.296875 
L 55.171875 0 
L 9.8125 0 
z
" id="DejaVuSans-76"/>
      <path d="M 52 44.1875 
Q 55.375 50.25 60.0625 53.125 
Q 64.75 56 71.09375 56 
Q 79.640625 56 84.28125 50.015625 
Q 88.921875 44.046875 88.921875 33.015625 
L 88.921875 0 
L 79.890625 0 
L 79.890625 32.71875 
Q 79.890625 40.578125 77.09375 44.375 
Q 74.3125 48.1875 68.609375 48.1875 
Q 61.625 48.1875 57.5625 43.546875 
Q 53.515625 38.921875 53.515625 30.90625 
L 53.515625 0 
L 44.484375 0 
L 44.484375 32.71875 
Q 44.484375 40.625 41.703125 44.40625 
Q 38.921875 48.1875 33.109375 48.1875 
Q 26.21875 48.1875 22.15625 43.53125 
Q 18.109375 38.875 18.109375 30.90625 
L 18.109375 0 
L 9.078125 0 
L 9.078125 54.6875 
L 18.109375 54.6875 
L 18.109375 46.1875 
Q 21.1875 51.21875 25.484375 53.609375 
Q 29.78125 56 35.6875 56 
Q 41.65625 56 45.828125 52.96875 
Q 50 49.953125 52 44.1875 
z
" id="DejaVuSans-109"/>
     </defs>
     <g transform="translate(361.122187 80.7275)scale(0.16 -0.16)">
      <use xlink:href="#DejaVuSans-67"/>
      <use x="69.824219" xlink:href="#DejaVuSans-72"/>
      <use x="145.019531" xlink:href="#DejaVuSans-83"/>
      <use x="208.496094" xlink:href="#DejaVuSans-72"/>
      <use x="283.691406" xlink:href="#DejaVuSans-49"/>
      <use x="347.314453" xlink:href="#DejaVuSans-32"/>
      <use x="379.101562" xlink:href="#DejaVuSans-76"/>
      <use x="434.814453" xlink:href="#DejaVuSans-105"/>
      <use x="462.597656" xlink:href="#DejaVuSans-109"/>
      <use x="560.009766" xlink:href="#DejaVuSans-97"/>
     </g>
    </g>
    <g id="line2d_43">
     <path d="M 316.322187 98.6125 
L 348.322187 98.6125 
" style="fill:none;stroke:#d62728;stroke-linecap:square;stroke-width:1.5;"/>
    </g>
    <g id="line2d_44">
     <g>
      <use style="fill:#d62728;stroke:#d62728;" x="332.322187" xlink:href="#ma6884bf940" y="98.6125"/>
     </g>
    </g>
    <g id="text_20">
     <!-- CHSH2 Lima -->
     <g transform="translate(361.122187 104.2125)scale(0.16 -0.16)">
      <use xlink:href="#DejaVuSans-67"/>
      <use x="69.824219" xlink:href="#DejaVuSans-72"/>
      <use x="145.019531" xlink:href="#DejaVuSans-83"/>
      <use x="208.496094" xlink:href="#DejaVuSans-72"/>
      <use x="283.691406" xlink:href="#DejaVuSans-50"/>
      <use x="347.314453" xlink:href="#DejaVuSans-32"/>
      <use x="379.101562" xlink:href="#DejaVuSans-76"/>
      <use x="434.814453" xlink:href="#DejaVuSans-105"/>
      <use x="462.597656" xlink:href="#DejaVuSans-109"/>
      <use x="560.009766" xlink:href="#DejaVuSans-97"/>
     </g>
    </g>
   </g>
  </g>
 </g>
 <defs>
  <clipPath id="p166b506543">
   <rect height="434.88" width="669.6" x="71.924688" y="7.2"/>
  </clipPath>
 </defs>
</svg>
