<?xml version="1.0" encoding="utf-8" standalone="no"?>
<!DOCTYPE svg PUBLIC "-//W3C//DTD SVG 1.1//EN"
  "http://www.w3.org/Graphics/SVG/1.1/DTD/svg11.dtd">
<!-- Created with matplotlib (https://matplotlib.org/) -->
<svg height="259.8354pt" version="1.1" viewBox="0 0 1511.624344 259.8354" width="1511.624344pt" xmlns="http://www.w3.org/2000/svg" xmlns:xlink="http://www.w3.org/1999/xlink">
 <defs>
  <style type="text/css">
*{stroke-linecap:butt;stroke-linejoin:round;}
  </style>
 </defs>
 <g id="figure_1">
  <g id="patch_1">
   <path d="M 0 259.8354 
L 1511.624344 259.8354 
L 1511.624344 0 
L 0 0 
z
" style="fill:#ffffff;"/>
  </g>
  <g id="axes_1">
   <g id="patch_2">
    <path clip-path="url(#p3a4ac63bcf)" d="M 1332.165054 215.024697 
L 1343.982314 215.024697 
L 1338.073684 223.54676 
z
" style="fill:#778899;"/>
   </g>
   <g id="patch_3">
    <path clip-path="url(#p3a4ac63bcf)" d="M 1377.616054 215.024697 
L 1389.433314 215.024697 
L 1383.524684 223.54676 
z
" style="fill:#778899;"/>
   </g>
   <g id="patch_4">
    <path clip-path="url(#p3a4ac63bcf)" d="M 1423.067054 215.024697 
L 1434.884314 215.024697 
L 1428.975684 223.54676 
z
" style="fill:#778899;"/>
   </g>
   <g id="patch_5">
    <path clip-path="url(#p3a4ac63bcf)" d="M 1468.518054 215.024697 
L 1480.335314 215.024697 
L 1474.426684 223.54676 
z
" style="fill:#778899;"/>
   </g>
   <g id="line2d_1">
    <path clip-path="url(#p3a4ac63bcf)" d="M 86.353144 43.5608 
L 1499.879244 43.5608 
" style="fill:none;stroke:#000000;stroke-linecap:square;stroke-width:2;"/>
   </g>
   <g id="line2d_2">
    <path clip-path="url(#p3a4ac63bcf)" d="M 86.353144 89.0118 
L 1499.879244 89.0118 
" style="fill:none;stroke:#000000;stroke-linecap:square;stroke-width:2;"/>
   </g>
   <g id="line2d_3">
    <path clip-path="url(#p3a4ac63bcf)" d="M 86.353144 134.4628 
L 1499.879244 134.4628 
" style="fill:none;stroke:#000000;stroke-linecap:square;stroke-width:2;"/>
   </g>
   <g id="line2d_4">
    <path clip-path="url(#p3a4ac63bcf)" d="M 86.353144 179.9138 
L 1499.879244 179.9138 
" style="fill:none;stroke:#000000;stroke-linecap:square;stroke-width:2;"/>
   </g>
   <g id="line2d_5">
    <path clip-path="url(#p3a4ac63bcf)" d="M 86.353144 223.887642 
L 1499.879244 223.887642 
" style="fill:none;stroke:#778899;stroke-linecap:square;stroke-width:2;"/>
   </g>
   <g id="line2d_6">
    <path clip-path="url(#p3a4ac63bcf)" d="M 86.353144 226.841957 
L 1499.879244 226.841957 
" style="fill:none;stroke:#778899;stroke-linecap:square;stroke-width:2;"/>
   </g>
   <g id="patch_6">
    <path clip-path="url(#p3a4ac63bcf)" d="M 1283.759739 66.2863 
L 1301.485629 66.2863 
L 1301.485629 20.8353 
L 1283.759739 20.8353 
z
" style="fill:#bdbdbd;opacity:0.6;"/>
   </g>
   <g id="patch_7">
    <path clip-path="url(#p3a4ac63bcf)" d="M 1283.759739 111.7373 
L 1301.485629 111.7373 
L 1301.485629 66.2863 
L 1283.759739 66.2863 
z
" style="fill:#bdbdbd;opacity:0.6;"/>
   </g>
   <g id="patch_8">
    <path clip-path="url(#p3a4ac63bcf)" d="M 1283.759739 157.1883 
L 1301.485629 157.1883 
L 1301.485629 111.7373 
L 1283.759739 111.7373 
z
" style="fill:#bdbdbd;opacity:0.6;"/>
   </g>
   <g id="patch_9">
    <path clip-path="url(#p3a4ac63bcf)" d="M 1283.759739 202.6393 
L 1301.485629 202.6393 
L 1301.485629 157.1883 
L 1283.759739 157.1883 
z
" style="fill:#bdbdbd;opacity:0.6;"/>
   </g>
   <g id="line2d_7">
    <path clip-path="url(#p3a4ac63bcf)" d="M 292.700684 89.0118 
L 292.700684 43.5608 
" style="fill:none;stroke:#6fa4ff;stroke-linecap:square;stroke-width:2;"/>
   </g>
   <g id="line2d_8">
    <path clip-path="url(#p3a4ac63bcf)" d="M 383.602684 89.0118 
L 383.602684 43.5608 
" style="fill:none;stroke:#6fa4ff;stroke-linecap:square;stroke-width:2;"/>
   </g>
   <g id="line2d_9">
    <path clip-path="url(#p3a4ac63bcf)" d="M 565.406684 134.4628 
L 565.406684 43.5608 
" style="fill:none;stroke:#6fa4ff;stroke-linecap:square;stroke-width:2;"/>
   </g>
   <g id="line2d_10">
    <path clip-path="url(#p3a4ac63bcf)" d="M 656.308684 134.4628 
L 656.308684 43.5608 
" style="fill:none;stroke:#6fa4ff;stroke-linecap:square;stroke-width:2;"/>
   </g>
   <g id="line2d_11">
    <path clip-path="url(#p3a4ac63bcf)" d="M 792.661684 134.4628 
L 792.661684 89.0118 
" style="fill:none;stroke:#6fa4ff;stroke-linecap:square;stroke-width:2;"/>
   </g>
   <g id="line2d_12">
    <path clip-path="url(#p3a4ac63bcf)" d="M 883.563684 134.4628 
L 883.563684 89.0118 
" style="fill:none;stroke:#6fa4ff;stroke-linecap:square;stroke-width:2;"/>
   </g>
   <g id="line2d_13">
    <path clip-path="url(#p3a4ac63bcf)" d="M 929.014684 179.9138 
L 929.014684 134.4628 
" style="fill:none;stroke:#6fa4ff;stroke-linecap:square;stroke-width:2;"/>
   </g>
   <g id="line2d_14">
    <path clip-path="url(#p3a4ac63bcf)" d="M 1019.916684 179.9138 
L 1019.916684 89.0118 
" style="fill:none;stroke:#6fa4ff;stroke-linecap:square;stroke-width:2;"/>
   </g>
   <g id="line2d_15">
    <path clip-path="url(#p3a4ac63bcf)" d="M 1110.818684 179.9138 
L 1110.818684 134.4628 
" style="fill:none;stroke:#6fa4ff;stroke-linecap:square;stroke-width:2;"/>
   </g>
   <g id="line2d_16">
    <path clip-path="url(#p3a4ac63bcf)" d="M 1201.720684 179.9138 
L 1201.720684 89.0118 
" style="fill:none;stroke:#6fa4ff;stroke-linecap:square;stroke-width:2;"/>
   </g>
   <g id="line2d_17">
    <path clip-path="url(#p3a4ac63bcf)" d="M 1339.550841 43.5608 
L 1339.550841 215.024697 
" style="fill:none;stroke:#778899;stroke-linecap:square;stroke-width:2;"/>
   </g>
   <g id="line2d_18">
    <path clip-path="url(#p3a4ac63bcf)" d="M 1336.596526 43.5608 
L 1336.596526 215.024697 
" style="fill:none;stroke:#778899;stroke-linecap:square;stroke-width:2;"/>
   </g>
   <g id="line2d_19">
    <path clip-path="url(#p3a4ac63bcf)" d="M 1385.001841 89.0118 
L 1385.001841 215.024697 
" style="fill:none;stroke:#778899;stroke-linecap:square;stroke-width:2;"/>
   </g>
   <g id="line2d_20">
    <path clip-path="url(#p3a4ac63bcf)" d="M 1382.047526 89.0118 
L 1382.047526 215.024697 
" style="fill:none;stroke:#778899;stroke-linecap:square;stroke-width:2;"/>
   </g>
   <g id="line2d_21">
    <path clip-path="url(#p3a4ac63bcf)" d="M 1430.452841 134.4628 
L 1430.452841 215.024697 
" style="fill:none;stroke:#778899;stroke-linecap:square;stroke-width:2;"/>
   </g>
   <g id="line2d_22">
    <path clip-path="url(#p3a4ac63bcf)" d="M 1427.498526 134.4628 
L 1427.498526 215.024697 
" style="fill:none;stroke:#778899;stroke-linecap:square;stroke-width:2;"/>
   </g>
   <g id="line2d_23">
    <path clip-path="url(#p3a4ac63bcf)" d="M 1475.903841 179.9138 
L 1475.903841 215.024697 
" style="fill:none;stroke:#778899;stroke-linecap:square;stroke-width:2;"/>
   </g>
   <g id="line2d_24">
    <path clip-path="url(#p3a4ac63bcf)" d="M 1472.949526 179.9138 
L 1472.949526 215.024697 
" style="fill:none;stroke:#778899;stroke-linecap:square;stroke-width:2;"/>
   </g>
   <g id="line2d_25">
    <path clip-path="url(#p3a4ac63bcf)" d="M 95.443344 229.9099 
L 99.988444 220.8197 
" style="fill:none;stroke:#778899;stroke-linecap:square;stroke-width:1.5;"/>
   </g>
   <g id="patch_10">
    <path clip-path="url(#p3a4ac63bcf)" d="M 96.125109 58.332375 
L 125.668259 58.332375 
L 125.668259 28.789225 
L 96.125109 28.789225 
z
" style="fill:#bb8bff;stroke:#bb8bff;stroke-linejoin:miter;stroke-width:1.5;"/>
   </g>
   <g id="patch_11">
    <path clip-path="url(#p3a4ac63bcf)" d="M 96.125109 103.783375 
L 125.668259 103.783375 
L 125.668259 74.240225 
L 96.125109 74.240225 
z
" style="fill:#6fa4ff;stroke:#6fa4ff;stroke-linejoin:miter;stroke-width:1.5;"/>
   </g>
   <g id="patch_12">
    <path clip-path="url(#p3a4ac63bcf)" d="M 96.125109 149.234375 
L 125.668259 149.234375 
L 125.668259 119.691225 
L 96.125109 119.691225 
z
" style="fill:#6fa4ff;stroke:#6fa4ff;stroke-linejoin:miter;stroke-width:1.5;"/>
   </g>
   <g id="patch_13">
    <path clip-path="url(#p3a4ac63bcf)" d="M 164.301609 103.783375 
L 193.844759 103.783375 
L 193.844759 74.240225 
L 164.301609 74.240225 
z
" style="fill:#bb8bff;stroke:#bb8bff;stroke-linejoin:miter;stroke-width:1.5;"/>
   </g>
   <g id="patch_14">
    <path clip-path="url(#p3a4ac63bcf)" d="M 164.301609 149.234375 
L 193.844759 149.234375 
L 193.844759 119.691225 
L 164.301609 119.691225 
z
" style="fill:#bb8bff;stroke:#bb8bff;stroke-linejoin:miter;stroke-width:1.5;"/>
   </g>
   <g id="patch_15">
    <path clip-path="url(#p3a4ac63bcf)" d="M 141.76473 58.332375 
L 216.381637 58.332375 
L 216.381637 28.789225 
L 141.76473 28.789225 
z
" style="fill:#bb8bff;stroke:#bb8bff;stroke-linejoin:miter;stroke-width:1.5;"/>
   </g>
   <g id="patch_16">
    <path clip-path="url(#p3a4ac63bcf)" d="M 232.478109 58.332375 
L 262.021259 58.332375 
L 262.021259 28.789225 
L 232.478109 28.789225 
z
" style="fill:#bb8bff;stroke:#bb8bff;stroke-linejoin:miter;stroke-width:1.5;"/>
   </g>
   <g id="patch_17">
    <path clip-path="url(#p3a4ac63bcf)" d="M 292.700684 93.443272 
C 293.875924 93.443272 295.003188 92.976345 295.834208 92.145324 
C 296.665228 91.314304 297.132156 90.18704 297.132156 89.0118 
C 297.132156 87.83656 296.665228 86.709296 295.834208 85.878276 
C 295.003188 85.047255 293.875924 84.580327 292.700684 84.580327 
C 291.525444 84.580327 290.39818 85.047255 289.567159 85.878276 
C 288.736139 86.709296 288.269211 87.83656 288.269211 89.0118 
C 288.269211 90.18704 288.736139 91.314304 289.567159 92.145324 
C 290.39818 92.976345 291.525444 93.443272 292.700684 93.443272 
z
" style="fill:#6fa4ff;stroke:#6fa4ff;stroke-linejoin:miter;stroke-width:1.5;"/>
   </g>
   <g id="patch_18">
    <path clip-path="url(#p3a4ac63bcf)" d="M 292.700684 53.900902 
C 295.442911 53.900902 298.073193 52.811404 300.01224 50.872357 
C 301.951288 48.933309 303.040786 46.303027 303.040786 43.5608 
C 303.040786 40.818573 301.951288 38.188291 300.01224 36.249243 
C 298.073193 34.310196 295.442911 33.220697 292.700684 33.220697 
C 289.958457 33.220697 287.328175 34.310196 285.389127 36.249243 
C 283.45008 38.188291 282.360581 40.818573 282.360581 43.5608 
C 282.360581 46.303027 283.45008 48.933309 285.389127 50.872357 
C 287.328175 52.811404 289.958457 53.900902 292.700684 53.900902 
z
" style="fill:#6fa4ff;stroke:#6fa4ff;stroke-linejoin:miter;stroke-width:2;"/>
   </g>
   <g id="patch_19">
    <path clip-path="url(#p3a4ac63bcf)" d="M 322.573354 58.332375 
L 353.730014 58.332375 
L 353.730014 28.789225 
L 322.573354 28.789225 
z
" style="fill:#bb8bff;stroke:#bb8bff;stroke-linejoin:miter;stroke-width:1.5;"/>
   </g>
   <g id="patch_20">
    <path clip-path="url(#p3a4ac63bcf)" d="M 383.602684 93.443272 
C 384.777924 93.443272 385.905188 92.976345 386.736208 92.145324 
C 387.567228 91.314304 388.034156 90.18704 388.034156 89.0118 
C 388.034156 87.83656 387.567228 86.709296 386.736208 85.878276 
C 385.905188 85.047255 384.777924 84.580327 383.602684 84.580327 
C 382.427444 84.580327 381.30018 85.047255 380.469159 85.878276 
C 379.638139 86.709296 379.171211 87.83656 379.171211 89.0118 
C 379.171211 90.18704 379.638139 91.314304 380.469159 92.145324 
C 381.30018 92.976345 382.427444 93.443272 383.602684 93.443272 
z
" style="fill:#6fa4ff;stroke:#6fa4ff;stroke-linejoin:miter;stroke-width:1.5;"/>
   </g>
   <g id="patch_21">
    <path clip-path="url(#p3a4ac63bcf)" d="M 383.602684 53.900902 
C 386.344911 53.900902 388.975193 52.811404 390.91424 50.872357 
C 392.853288 48.933309 393.942786 46.303027 393.942786 43.5608 
C 393.942786 40.818573 392.853288 38.188291 390.91424 36.249243 
C 388.975193 34.310196 386.344911 33.220697 383.602684 33.220697 
C 380.860457 33.220697 378.230175 34.310196 376.291127 36.249243 
C 374.35208 38.188291 373.262581 40.818573 373.262581 43.5608 
C 373.262581 46.303027 374.35208 48.933309 376.291127 50.872357 
C 378.230175 52.811404 380.860457 53.900902 383.602684 53.900902 
z
" style="fill:#6fa4ff;stroke:#6fa4ff;stroke-linejoin:miter;stroke-width:2;"/>
   </g>
   <g id="patch_22">
    <path clip-path="url(#p3a4ac63bcf)" d="M 414.282109 58.332375 
L 443.825259 58.332375 
L 443.825259 28.789225 
L 414.282109 28.789225 
z
" style="fill:#bb8bff;stroke:#bb8bff;stroke-linejoin:miter;stroke-width:1.5;"/>
   </g>
   <g id="patch_23">
    <path clip-path="url(#p3a4ac63bcf)" d="M 459.733109 58.332375 
L 489.276259 58.332375 
L 489.276259 28.789225 
L 459.733109 28.789225 
z
" style="fill:#bb8bff;stroke:#bb8bff;stroke-linejoin:miter;stroke-width:1.5;"/>
   </g>
   <g id="patch_24">
    <path clip-path="url(#p3a4ac63bcf)" d="M 505.184109 58.332375 
L 534.727259 58.332375 
L 534.727259 28.789225 
L 505.184109 28.789225 
z
" style="fill:#bb8bff;stroke:#bb8bff;stroke-linejoin:miter;stroke-width:1.5;"/>
   </g>
   <g id="patch_25">
    <path clip-path="url(#p3a4ac63bcf)" d="M 565.406684 138.894272 
C 566.581924 138.894272 567.709188 138.427345 568.540208 137.596324 
C 569.371228 136.765304 569.838156 135.63804 569.838156 134.4628 
C 569.838156 133.28756 569.371228 132.160296 568.540208 131.329276 
C 567.709188 130.498255 566.581924 130.031327 565.406684 130.031327 
C 564.231444 130.031327 563.10418 130.498255 562.273159 131.329276 
C 561.442139 132.160296 560.975211 133.28756 560.975211 134.4628 
C 560.975211 135.63804 561.442139 136.765304 562.273159 137.596324 
C 563.10418 138.427345 564.231444 138.894272 565.406684 138.894272 
z
" style="fill:#6fa4ff;stroke:#6fa4ff;stroke-linejoin:miter;stroke-width:1.5;"/>
   </g>
   <g id="patch_26">
    <path clip-path="url(#p3a4ac63bcf)" d="M 565.406684 53.900902 
C 568.148911 53.900902 570.779193 52.811404 572.71824 50.872357 
C 574.657288 48.933309 575.746786 46.303027 575.746786 43.5608 
C 575.746786 40.818573 574.657288 38.188291 572.71824 36.249243 
C 570.779193 34.310196 568.148911 33.220697 565.406684 33.220697 
C 562.664457 33.220697 560.034175 34.310196 558.095127 36.249243 
C 556.15608 38.188291 555.066581 40.818573 555.066581 43.5608 
C 555.066581 46.303027 556.15608 48.933309 558.095127 50.872357 
C 560.034175 52.811404 562.664457 53.900902 565.406684 53.900902 
z
" style="fill:#6fa4ff;stroke:#6fa4ff;stroke-linejoin:miter;stroke-width:2;"/>
   </g>
   <g id="patch_27">
    <path clip-path="url(#p3a4ac63bcf)" d="M 596.086109 58.332375 
L 625.629259 58.332375 
L 625.629259 28.789225 
L 596.086109 28.789225 
z
" style="fill:#bb8bff;stroke:#bb8bff;stroke-linejoin:miter;stroke-width:1.5;"/>
   </g>
   <g id="patch_28">
    <path clip-path="url(#p3a4ac63bcf)" d="M 656.308684 138.894272 
C 657.483924 138.894272 658.611188 138.427345 659.442208 137.596324 
C 660.273228 136.765304 660.740156 135.63804 660.740156 134.4628 
C 660.740156 133.28756 660.273228 132.160296 659.442208 131.329276 
C 658.611188 130.498255 657.483924 130.031327 656.308684 130.031327 
C 655.133444 130.031327 654.00618 130.498255 653.175159 131.329276 
C 652.344139 132.160296 651.877211 133.28756 651.877211 134.4628 
C 651.877211 135.63804 652.344139 136.765304 653.175159 137.596324 
C 654.00618 138.427345 655.133444 138.894272 656.308684 138.894272 
z
" style="fill:#6fa4ff;stroke:#6fa4ff;stroke-linejoin:miter;stroke-width:1.5;"/>
   </g>
   <g id="patch_29">
    <path clip-path="url(#p3a4ac63bcf)" d="M 656.308684 53.900902 
C 659.050911 53.900902 661.681193 52.811404 663.62024 50.872357 
C 665.559288 48.933309 666.648786 46.303027 666.648786 43.5608 
C 666.648786 40.818573 665.559288 38.188291 663.62024 36.249243 
C 661.681193 34.310196 659.050911 33.220697 656.308684 33.220697 
C 653.566457 33.220697 650.936175 34.310196 648.997127 36.249243 
C 647.05808 38.188291 645.968581 40.818573 645.968581 43.5608 
C 645.968581 46.303027 647.05808 48.933309 648.997127 50.872357 
C 650.936175 52.811404 653.566457 53.900902 656.308684 53.900902 
z
" style="fill:#6fa4ff;stroke:#6fa4ff;stroke-linejoin:miter;stroke-width:2;"/>
   </g>
   <g id="patch_30">
    <path clip-path="url(#p3a4ac63bcf)" d="M 686.988109 58.332375 
L 716.531259 58.332375 
L 716.531259 28.789225 
L 686.988109 28.789225 
z
" style="fill:#bb8bff;stroke:#bb8bff;stroke-linejoin:miter;stroke-width:1.5;"/>
   </g>
   <g id="patch_31">
    <path clip-path="url(#p3a4ac63bcf)" d="M 686.988109 149.234375 
L 716.531259 149.234375 
L 716.531259 119.691225 
L 686.988109 119.691225 
z
" style="fill:#6fa4ff;stroke:#6fa4ff;stroke-linejoin:miter;stroke-width:1.5;"/>
   </g>
   <g id="patch_32">
    <path clip-path="url(#p3a4ac63bcf)" d="M 732.439109 58.332375 
L 761.982259 58.332375 
L 761.982259 28.789225 
L 732.439109 28.789225 
z
" style="fill:#bb8bff;stroke:#bb8bff;stroke-linejoin:miter;stroke-width:1.5;"/>
   </g>
   <g id="patch_33">
    <path clip-path="url(#p3a4ac63bcf)" d="M 732.439109 149.234375 
L 761.982259 149.234375 
L 761.982259 119.691225 
L 732.439109 119.691225 
z
" style="fill:#bb8bff;stroke:#bb8bff;stroke-linejoin:miter;stroke-width:1.5;"/>
   </g>
   <g id="patch_34">
    <path clip-path="url(#p3a4ac63bcf)" d="M 792.661684 93.443272 
C 793.836924 93.443272 794.964188 92.976345 795.795208 92.145324 
C 796.626228 91.314304 797.093156 90.18704 797.093156 89.0118 
C 797.093156 87.83656 796.626228 86.709296 795.795208 85.878276 
C 794.964188 85.047255 793.836924 84.580327 792.661684 84.580327 
C 791.486444 84.580327 790.35918 85.047255 789.528159 85.878276 
C 788.697139 86.709296 788.230211 87.83656 788.230211 89.0118 
C 788.230211 90.18704 788.697139 91.314304 789.528159 92.145324 
C 790.35918 92.976345 791.486444 93.443272 792.661684 93.443272 
z
" style="fill:#6fa4ff;stroke:#6fa4ff;stroke-linejoin:miter;stroke-width:1.5;"/>
   </g>
   <g id="patch_35">
    <path clip-path="url(#p3a4ac63bcf)" d="M 792.661684 144.802902 
C 795.403911 144.802902 798.034193 143.713404 799.97324 141.774357 
C 801.912288 139.835309 803.001786 137.205027 803.001786 134.4628 
C 803.001786 131.720573 801.912288 129.090291 799.97324 127.151243 
C 798.034193 125.212196 795.403911 124.122697 792.661684 124.122697 
C 789.919457 124.122697 787.289175 125.212196 785.350127 127.151243 
C 783.41108 129.090291 782.321581 131.720573 782.321581 134.4628 
C 782.321581 137.205027 783.41108 139.835309 785.350127 141.774357 
C 787.289175 143.713404 789.919457 144.802902 792.661684 144.802902 
z
" style="fill:#6fa4ff;stroke:#6fa4ff;stroke-linejoin:miter;stroke-width:2;"/>
   </g>
   <g id="patch_36">
    <path clip-path="url(#p3a4ac63bcf)" d="M 823.341109 149.234375 
L 852.884259 149.234375 
L 852.884259 119.691225 
L 823.341109 119.691225 
z
" style="fill:#bb8bff;stroke:#bb8bff;stroke-linejoin:miter;stroke-width:1.5;"/>
   </g>
   <g id="patch_37">
    <path clip-path="url(#p3a4ac63bcf)" d="M 883.563684 93.443272 
C 884.738924 93.443272 885.866188 92.976345 886.697208 92.145324 
C 887.528228 91.314304 887.995156 90.18704 887.995156 89.0118 
C 887.995156 87.83656 887.528228 86.709296 886.697208 85.878276 
C 885.866188 85.047255 884.738924 84.580327 883.563684 84.580327 
C 882.388444 84.580327 881.26118 85.047255 880.430159 85.878276 
C 879.599139 86.709296 879.132211 87.83656 879.132211 89.0118 
C 879.132211 90.18704 879.599139 91.314304 880.430159 92.145324 
C 881.26118 92.976345 882.388444 93.443272 883.563684 93.443272 
z
" style="fill:#6fa4ff;stroke:#6fa4ff;stroke-linejoin:miter;stroke-width:1.5;"/>
   </g>
   <g id="patch_38">
    <path clip-path="url(#p3a4ac63bcf)" d="M 883.563684 144.802902 
C 886.305911 144.802902 888.936193 143.713404 890.87524 141.774357 
C 892.814288 139.835309 893.903786 137.205027 893.903786 134.4628 
C 893.903786 131.720573 892.814288 129.090291 890.87524 127.151243 
C 888.936193 125.212196 886.305911 124.122697 883.563684 124.122697 
C 880.821457 124.122697 878.191175 125.212196 876.252127 127.151243 
C 874.31308 129.090291 873.223581 131.720573 873.223581 134.4628 
C 873.223581 137.205027 874.31308 139.835309 876.252127 141.774357 
C 878.191175 143.713404 880.821457 144.802902 883.563684 144.802902 
z
" style="fill:#6fa4ff;stroke:#6fa4ff;stroke-linejoin:miter;stroke-width:2;"/>
   </g>
   <g id="patch_39">
    <path clip-path="url(#p3a4ac63bcf)" d="M 914.243109 103.783375 
L 943.786259 103.783375 
L 943.786259 74.240225 
L 914.243109 74.240225 
z
" style="fill:#bb8bff;stroke:#bb8bff;stroke-linejoin:miter;stroke-width:1.5;"/>
   </g>
   <g id="patch_40">
    <path clip-path="url(#p3a4ac63bcf)" d="M 929.014684 138.894272 
C 930.189924 138.894272 931.317188 138.427345 932.148208 137.596324 
C 932.979228 136.765304 933.446156 135.63804 933.446156 134.4628 
C 933.446156 133.28756 932.979228 132.160296 932.148208 131.329276 
C 931.317188 130.498255 930.189924 130.031327 929.014684 130.031327 
C 927.839444 130.031327 926.71218 130.498255 925.881159 131.329276 
C 925.050139 132.160296 924.583211 133.28756 924.583211 134.4628 
C 924.583211 135.63804 925.050139 136.765304 925.881159 137.596324 
C 926.71218 138.427345 927.839444 138.894272 929.014684 138.894272 
z
" style="fill:#6fa4ff;stroke:#6fa4ff;stroke-linejoin:miter;stroke-width:1.5;"/>
   </g>
   <g id="patch_41">
    <path clip-path="url(#p3a4ac63bcf)" d="M 929.014684 190.253902 
C 931.756911 190.253902 934.387193 189.164404 936.32624 187.225357 
C 938.265288 185.286309 939.354786 182.656027 939.354786 179.9138 
C 939.354786 177.171573 938.265288 174.541291 936.32624 172.602243 
C 934.387193 170.663196 931.756911 169.573697 929.014684 169.573697 
C 926.272457 169.573697 923.642175 170.663196 921.703127 172.602243 
C 919.76408 174.541291 918.674581 177.171573 918.674581 179.9138 
C 918.674581 182.656027 919.76408 185.286309 921.703127 187.225357 
C 923.642175 189.164404 926.272457 190.253902 929.014684 190.253902 
z
" style="fill:#6fa4ff;stroke:#6fa4ff;stroke-linejoin:miter;stroke-width:2;"/>
   </g>
   <g id="patch_42">
    <path clip-path="url(#p3a4ac63bcf)" d="M 959.694109 103.783375 
L 989.237259 103.783375 
L 989.237259 74.240225 
L 959.694109 74.240225 
z
" style="fill:#6fa4ff;stroke:#6fa4ff;stroke-linejoin:miter;stroke-width:1.5;"/>
   </g>
   <g id="patch_43">
    <path clip-path="url(#p3a4ac63bcf)" d="M 958.83963 194.685375 
L 990.091738 194.685375 
L 990.091738 165.142225 
L 958.83963 165.142225 
z
" style="fill:#bb8bff;stroke:#bb8bff;stroke-linejoin:miter;stroke-width:1.5;"/>
   </g>
   <g id="patch_44">
    <path clip-path="url(#p3a4ac63bcf)" d="M 1019.916684 93.443272 
C 1021.091924 93.443272 1022.219188 92.976345 1023.050208 92.145324 
C 1023.881228 91.314304 1024.348156 90.18704 1024.348156 89.0118 
C 1024.348156 87.83656 1023.881228 86.709296 1023.050208 85.878276 
C 1022.219188 85.047255 1021.091924 84.580327 1019.916684 84.580327 
C 1018.741444 84.580327 1017.61418 85.047255 1016.783159 85.878276 
C 1015.952139 86.709296 1015.485211 87.83656 1015.485211 89.0118 
C 1015.485211 90.18704 1015.952139 91.314304 1016.783159 92.145324 
C 1017.61418 92.976345 1018.741444 93.443272 1019.916684 93.443272 
z
" style="fill:#6fa4ff;stroke:#6fa4ff;stroke-linejoin:miter;stroke-width:1.5;"/>
   </g>
   <g id="patch_45">
    <path clip-path="url(#p3a4ac63bcf)" d="M 1019.916684 190.253902 
C 1022.658911 190.253902 1025.289193 189.164404 1027.22824 187.225357 
C 1029.167288 185.286309 1030.256786 182.656027 1030.256786 179.9138 
C 1030.256786 177.171573 1029.167288 174.541291 1027.22824 172.602243 
C 1025.289193 170.663196 1022.658911 169.573697 1019.916684 169.573697 
C 1017.174457 169.573697 1014.544175 170.663196 1012.605127 172.602243 
C 1010.66608 174.541291 1009.576581 177.171573 1009.576581 179.9138 
C 1009.576581 182.656027 1010.66608 185.286309 1012.605127 187.225357 
C 1014.544175 189.164404 1017.174457 190.253902 1019.916684 190.253902 
z
" style="fill:#6fa4ff;stroke:#6fa4ff;stroke-linejoin:miter;stroke-width:2;"/>
   </g>
   <g id="patch_46">
    <path clip-path="url(#p3a4ac63bcf)" d="M 1049.693906 194.685375 
L 1081.041461 194.685375 
L 1081.041461 165.142225 
L 1049.693906 165.142225 
z
" style="fill:#bb8bff;stroke:#bb8bff;stroke-linejoin:miter;stroke-width:1.5;"/>
   </g>
   <g id="patch_47">
    <path clip-path="url(#p3a4ac63bcf)" d="M 1110.818684 138.894272 
C 1111.993924 138.894272 1113.121188 138.427345 1113.952208 137.596324 
C 1114.783228 136.765304 1115.250156 135.63804 1115.250156 134.4628 
C 1115.250156 133.28756 1114.783228 132.160296 1113.952208 131.329276 
C 1113.121188 130.498255 1111.993924 130.031327 1110.818684 130.031327 
C 1109.643444 130.031327 1108.51618 130.498255 1107.685159 131.329276 
C 1106.854139 132.160296 1106.387211 133.28756 1106.387211 134.4628 
C 1106.387211 135.63804 1106.854139 136.765304 1107.685159 137.596324 
C 1108.51618 138.427345 1109.643444 138.894272 1110.818684 138.894272 
z
" style="fill:#6fa4ff;stroke:#6fa4ff;stroke-linejoin:miter;stroke-width:1.5;"/>
   </g>
   <g id="patch_48">
    <path clip-path="url(#p3a4ac63bcf)" d="M 1110.818684 190.253902 
C 1113.560911 190.253902 1116.191193 189.164404 1118.13024 187.225357 
C 1120.069288 185.286309 1121.158786 182.656027 1121.158786 179.9138 
C 1121.158786 177.171573 1120.069288 174.541291 1118.13024 172.602243 
C 1116.191193 170.663196 1113.560911 169.573697 1110.818684 169.573697 
C 1108.076457 169.573697 1105.446175 170.663196 1103.507127 172.602243 
C 1101.56808 174.541291 1100.478581 177.171573 1100.478581 179.9138 
C 1100.478581 182.656027 1101.56808 185.286309 1103.507127 187.225357 
C 1105.446175 189.164404 1108.076457 190.253902 1110.818684 190.253902 
z
" style="fill:#6fa4ff;stroke:#6fa4ff;stroke-linejoin:miter;stroke-width:2;"/>
   </g>
   <g id="patch_49">
    <path clip-path="url(#p3a4ac63bcf)" d="M 1141.498109 194.685375 
L 1171.041259 194.685375 
L 1171.041259 165.142225 
L 1141.498109 165.142225 
z
" style="fill:#bb8bff;stroke:#bb8bff;stroke-linejoin:miter;stroke-width:1.5;"/>
   </g>
   <g id="patch_50">
    <path clip-path="url(#p3a4ac63bcf)" d="M 1201.720684 93.443272 
C 1202.895924 93.443272 1204.023188 92.976345 1204.854208 92.145324 
C 1205.685228 91.314304 1206.152156 90.18704 1206.152156 89.0118 
C 1206.152156 87.83656 1205.685228 86.709296 1204.854208 85.878276 
C 1204.023188 85.047255 1202.895924 84.580327 1201.720684 84.580327 
C 1200.545444 84.580327 1199.41818 85.047255 1198.587159 85.878276 
C 1197.756139 86.709296 1197.289211 87.83656 1197.289211 89.0118 
C 1197.289211 90.18704 1197.756139 91.314304 1198.587159 92.145324 
C 1199.41818 92.976345 1200.545444 93.443272 1201.720684 93.443272 
z
" style="fill:#6fa4ff;stroke:#6fa4ff;stroke-linejoin:miter;stroke-width:1.5;"/>
   </g>
   <g id="patch_51">
    <path clip-path="url(#p3a4ac63bcf)" d="M 1201.720684 190.253902 
C 1204.462911 190.253902 1207.093193 189.164404 1209.03224 187.225357 
C 1210.971288 185.286309 1212.060786 182.656027 1212.060786 179.9138 
C 1212.060786 177.171573 1210.971288 174.541291 1209.03224 172.602243 
C 1207.093193 170.663196 1204.462911 169.573697 1201.720684 169.573697 
C 1198.978457 169.573697 1196.348175 170.663196 1194.409127 172.602243 
C 1192.47008 174.541291 1191.380581 177.171573 1191.380581 179.9138 
C 1191.380581 182.656027 1192.47008 185.286309 1194.409127 187.225357 
C 1196.348175 189.164404 1198.978457 190.253902 1201.720684 190.253902 
z
" style="fill:#6fa4ff;stroke:#6fa4ff;stroke-linejoin:miter;stroke-width:2;"/>
   </g>
   <g id="patch_52">
    <path clip-path="url(#p3a4ac63bcf)" d="M 1232.400109 194.685375 
L 1261.943259 194.685375 
L 1261.943259 165.142225 
L 1232.400109 165.142225 
z
" style="fill:#bb8bff;stroke:#bb8bff;stroke-linejoin:miter;stroke-width:1.5;"/>
   </g>
   <g id="patch_53">
    <path clip-path="url(#p3a4ac63bcf)" d="M 1323.302109 58.332375 
L 1352.845259 58.332375 
L 1352.845259 28.789225 
L 1323.302109 28.789225 
z
" style="stroke:#000000;stroke-linejoin:miter;stroke-width:1.5;"/>
   </g>
   <g id="patch_54">
    <path clip-path="url(#p3a4ac63bcf)" d="M 1348.413786 47.992272 
C 1348.413786 45.250959 1347.323642 42.619118 1345.38524 40.680716 
C 1343.446839 38.742314 1340.814998 37.65217 1338.073684 37.65217 
C 1335.33237 37.65217 1332.700529 38.742314 1330.762127 40.680716 
C 1328.823725 42.619118 1327.733581 45.250959 1327.733581 47.992272 
" style="fill:none;stroke:#ffffff;stroke-linejoin:miter;stroke-width:2;"/>
   </g>
   <g id="patch_55">
    <path clip-path="url(#p3a4ac63bcf)" d="M 1368.753109 103.783375 
L 1398.296259 103.783375 
L 1398.296259 74.240225 
L 1368.753109 74.240225 
z
" style="stroke:#000000;stroke-linejoin:miter;stroke-width:1.5;"/>
   </g>
   <g id="patch_56">
    <path clip-path="url(#p3a4ac63bcf)" d="M 1393.864786 93.443272 
C 1393.864786 90.701959 1392.774642 88.070118 1390.83624 86.131716 
C 1388.897839 84.193314 1386.265998 83.10317 1383.524684 83.10317 
C 1380.78337 83.10317 1378.151529 84.193314 1376.213127 86.131716 
C 1374.274725 88.070118 1373.184581 90.701959 1373.184581 93.443272 
" style="fill:none;stroke:#ffffff;stroke-linejoin:miter;stroke-width:2;"/>
   </g>
   <g id="patch_57">
    <path clip-path="url(#p3a4ac63bcf)" d="M 1414.204109 149.234375 
L 1443.747259 149.234375 
L 1443.747259 119.691225 
L 1414.204109 119.691225 
z
" style="stroke:#000000;stroke-linejoin:miter;stroke-width:1.5;"/>
   </g>
   <g id="patch_58">
    <path clip-path="url(#p3a4ac63bcf)" d="M 1439.315786 138.894272 
C 1439.315786 136.152959 1438.225642 133.521118 1436.28724 131.582716 
C 1434.348839 129.644314 1431.716998 128.55417 1428.975684 128.55417 
C 1426.23437 128.55417 1423.602529 129.644314 1421.664127 131.582716 
C 1419.725725 133.521118 1418.635581 136.152959 1418.635581 138.894272 
" style="fill:none;stroke:#ffffff;stroke-linejoin:miter;stroke-width:2;"/>
   </g>
   <g id="patch_59">
    <path clip-path="url(#p3a4ac63bcf)" d="M 1459.655109 194.685375 
L 1489.198259 194.685375 
L 1489.198259 165.142225 
L 1459.655109 165.142225 
z
" style="stroke:#000000;stroke-linejoin:miter;stroke-width:1.5;"/>
   </g>
   <g id="patch_60">
    <path clip-path="url(#p3a4ac63bcf)" d="M 1484.766786 184.345272 
C 1484.766786 181.603959 1483.676642 178.972118 1481.73824 177.033716 
C 1479.799839 175.095314 1477.167998 174.00517 1474.426684 174.00517 
C 1471.68537 174.00517 1469.053529 175.095314 1467.115127 177.033716 
C 1465.176725 178.972118 1464.086581 181.603959 1464.086581 184.345272 
" style="fill:none;stroke:#ffffff;stroke-linejoin:miter;stroke-width:2;"/>
   </g>
   <g id="line2d_26">
    <path clip-path="url(#p3a4ac63bcf)" d="M 1338.073684 47.992272 
L 1348.413786 37.65217 
" style="fill:none;stroke:#ffffff;stroke-linecap:square;stroke-width:2;"/>
   </g>
   <g id="line2d_27">
    <path clip-path="url(#p3a4ac63bcf)" d="M 1383.524684 93.443272 
L 1393.864786 83.10317 
" style="fill:none;stroke:#ffffff;stroke-linecap:square;stroke-width:2;"/>
   </g>
   <g id="line2d_28">
    <path clip-path="url(#p3a4ac63bcf)" d="M 1428.975684 138.894272 
L 1439.315786 128.55417 
" style="fill:none;stroke:#ffffff;stroke-linecap:square;stroke-width:2;"/>
   </g>
   <g id="line2d_29">
    <path clip-path="url(#p3a4ac63bcf)" d="M 1474.426684 184.345272 
L 1484.766786 174.00517 
" style="fill:none;stroke:#ffffff;stroke-linecap:square;stroke-width:2;"/>
   </g>
   <g id="line2d_30">
    <path clip-path="url(#p3a4ac63bcf)" d="M 292.700684 49.46943 
L 292.700684 37.65217 
" style="fill:none;stroke:#ffffff;stroke-linecap:square;stroke-width:2;"/>
   </g>
   <g id="line2d_31">
    <path clip-path="url(#p3a4ac63bcf)" d="M 286.792054 43.5608 
L 298.609314 43.5608 
" style="fill:none;stroke:#ffffff;stroke-linecap:square;stroke-width:2;"/>
   </g>
   <g id="line2d_32">
    <path clip-path="url(#p3a4ac63bcf)" d="M 383.602684 49.46943 
L 383.602684 37.65217 
" style="fill:none;stroke:#ffffff;stroke-linecap:square;stroke-width:2;"/>
   </g>
   <g id="line2d_33">
    <path clip-path="url(#p3a4ac63bcf)" d="M 377.694054 43.5608 
L 389.511314 43.5608 
" style="fill:none;stroke:#ffffff;stroke-linecap:square;stroke-width:2;"/>
   </g>
   <g id="line2d_34">
    <path clip-path="url(#p3a4ac63bcf)" d="M 565.406684 49.46943 
L 565.406684 37.65217 
" style="fill:none;stroke:#ffffff;stroke-linecap:square;stroke-width:2;"/>
   </g>
   <g id="line2d_35">
    <path clip-path="url(#p3a4ac63bcf)" d="M 559.498054 43.5608 
L 571.315314 43.5608 
" style="fill:none;stroke:#ffffff;stroke-linecap:square;stroke-width:2;"/>
   </g>
   <g id="line2d_36">
    <path clip-path="url(#p3a4ac63bcf)" d="M 656.308684 49.46943 
L 656.308684 37.65217 
" style="fill:none;stroke:#ffffff;stroke-linecap:square;stroke-width:2;"/>
   </g>
   <g id="line2d_37">
    <path clip-path="url(#p3a4ac63bcf)" d="M 650.400054 43.5608 
L 662.217314 43.5608 
" style="fill:none;stroke:#ffffff;stroke-linecap:square;stroke-width:2;"/>
   </g>
   <g id="line2d_38">
    <path clip-path="url(#p3a4ac63bcf)" d="M 792.661684 140.37143 
L 792.661684 128.55417 
" style="fill:none;stroke:#ffffff;stroke-linecap:square;stroke-width:2;"/>
   </g>
   <g id="line2d_39">
    <path clip-path="url(#p3a4ac63bcf)" d="M 786.753054 134.4628 
L 798.570314 134.4628 
" style="fill:none;stroke:#ffffff;stroke-linecap:square;stroke-width:2;"/>
   </g>
   <g id="line2d_40">
    <path clip-path="url(#p3a4ac63bcf)" d="M 883.563684 140.37143 
L 883.563684 128.55417 
" style="fill:none;stroke:#ffffff;stroke-linecap:square;stroke-width:2;"/>
   </g>
   <g id="line2d_41">
    <path clip-path="url(#p3a4ac63bcf)" d="M 877.655054 134.4628 
L 889.472314 134.4628 
" style="fill:none;stroke:#ffffff;stroke-linecap:square;stroke-width:2;"/>
   </g>
   <g id="line2d_42">
    <path clip-path="url(#p3a4ac63bcf)" d="M 929.014684 185.82243 
L 929.014684 174.00517 
" style="fill:none;stroke:#ffffff;stroke-linecap:square;stroke-width:2;"/>
   </g>
   <g id="line2d_43">
    <path clip-path="url(#p3a4ac63bcf)" d="M 923.106054 179.9138 
L 934.923314 179.9138 
" style="fill:none;stroke:#ffffff;stroke-linecap:square;stroke-width:2;"/>
   </g>
   <g id="line2d_44">
    <path clip-path="url(#p3a4ac63bcf)" d="M 1019.916684 185.82243 
L 1019.916684 174.00517 
" style="fill:none;stroke:#ffffff;stroke-linecap:square;stroke-width:2;"/>
   </g>
   <g id="line2d_45">
    <path clip-path="url(#p3a4ac63bcf)" d="M 1014.008054 179.9138 
L 1025.825314 179.9138 
" style="fill:none;stroke:#ffffff;stroke-linecap:square;stroke-width:2;"/>
   </g>
   <g id="line2d_46">
    <path clip-path="url(#p3a4ac63bcf)" d="M 1110.818684 185.82243 
L 1110.818684 174.00517 
" style="fill:none;stroke:#ffffff;stroke-linecap:square;stroke-width:2;"/>
   </g>
   <g id="line2d_47">
    <path clip-path="url(#p3a4ac63bcf)" d="M 1104.910054 179.9138 
L 1116.727314 179.9138 
" style="fill:none;stroke:#ffffff;stroke-linecap:square;stroke-width:2;"/>
   </g>
   <g id="line2d_48">
    <path clip-path="url(#p3a4ac63bcf)" d="M 1201.720684 185.82243 
L 1201.720684 174.00517 
" style="fill:none;stroke:#ffffff;stroke-linecap:square;stroke-width:2;"/>
   </g>
   <g id="line2d_49">
    <path clip-path="url(#p3a4ac63bcf)" d="M 1195.812054 179.9138 
L 1207.629314 179.9138 
" style="fill:none;stroke:#ffffff;stroke-linecap:square;stroke-width:2;"/>
   </g>
   <g id="line2d_50">
    <path clip-path="url(#p3a4ac63bcf)" d="M 1292.622684 20.8353 
L 1292.622684 66.2863 
" style="fill:none;stroke:#000000;stroke-dasharray:3.7,1.6;stroke-dashoffset:0;"/>
   </g>
   <g id="line2d_51">
    <path clip-path="url(#p3a4ac63bcf)" d="M 1292.622684 66.2863 
L 1292.622684 111.7373 
" style="fill:none;stroke:#000000;stroke-dasharray:3.7,1.6;stroke-dashoffset:0;"/>
   </g>
   <g id="line2d_52">
    <path clip-path="url(#p3a4ac63bcf)" d="M 1292.622684 111.7373 
L 1292.622684 157.1883 
" style="fill:none;stroke:#000000;stroke-dasharray:3.7,1.6;stroke-dashoffset:0;"/>
   </g>
   <g id="line2d_53">
    <path clip-path="url(#p3a4ac63bcf)" d="M 1292.622684 157.1883 
L 1292.622684 202.6393 
" style="fill:none;stroke:#000000;stroke-dasharray:3.7,1.6;stroke-dashoffset:0;"/>
   </g>
   <g id="text_1">
    <g clip-path="url(#p3a4ac63bcf)">
     <!-- $\mathrm{R}_\mathrm{Y}$ -->
     <defs>
      <path d="M 44.390625 34.1875 
Q 47.5625 33.109375 50.5625 29.59375 
Q 53.5625 26.078125 56.59375 19.921875 
L 66.609375 0 
L 56 0 
L 46.6875 18.703125 
Q 43.0625 26.03125 39.671875 28.421875 
Q 36.28125 30.8125 30.421875 30.8125 
L 19.671875 30.8125 
L 19.671875 0 
L 9.8125 0 
L 9.8125 72.90625 
L 32.078125 72.90625 
Q 44.578125 72.90625 50.734375 67.671875 
Q 56.890625 62.453125 56.890625 51.90625 
Q 56.890625 45.015625 53.6875 40.46875 
Q 50.484375 35.9375 44.390625 34.1875 
z
M 19.671875 64.796875 
L 19.671875 38.921875 
L 32.078125 38.921875 
Q 39.203125 38.921875 42.84375 42.21875 
Q 46.484375 45.515625 46.484375 51.90625 
Q 46.484375 58.296875 42.84375 61.546875 
Q 39.203125 64.796875 32.078125 64.796875 
z
" id="DejaVuSans-82"/>
      <path d="M -0.203125 72.90625 
L 10.40625 72.90625 
L 30.609375 42.921875 
L 50.6875 72.90625 
L 61.28125 72.90625 
L 35.5 34.71875 
L 35.5 0 
L 25.59375 0 
L 25.59375 34.71875 
z
" id="DejaVuSans-89"/>
     </defs>
     <g transform="translate(103.356684 42.716515)scale(0.13 -0.13)">
      <use transform="translate(0 0.09375)" xlink:href="#DejaVuSans-82"/>
      <use transform="translate(70.439453 -16.3125)scale(0.7)" xlink:href="#DejaVuSans-89"/>
     </g>
    </g>
   </g>
   <g id="text_2">
    <g clip-path="url(#p3a4ac63bcf)">
     <!-- 0 -->
     <defs>
      <path d="M 31.78125 66.40625 
Q 24.171875 66.40625 20.328125 58.90625 
Q 16.5 51.421875 16.5 36.375 
Q 16.5 21.390625 20.328125 13.890625 
Q 24.171875 6.390625 31.78125 6.390625 
Q 39.453125 6.390625 43.28125 13.890625 
Q 47.125 21.390625 47.125 36.375 
Q 47.125 51.421875 43.28125 58.90625 
Q 39.453125 66.40625 31.78125 66.40625 
z
M 31.78125 74.21875 
Q 44.046875 74.21875 50.515625 64.515625 
Q 56.984375 54.828125 56.984375 36.375 
Q 56.984375 17.96875 50.515625 8.265625 
Q 44.046875 -1.421875 31.78125 -1.421875 
Q 19.53125 -1.421875 13.0625 8.265625 
Q 6.59375 17.96875 6.59375 36.375 
Q 6.59375 54.828125 13.0625 64.515625 
Q 19.53125 74.21875 31.78125 74.21875 
z
" id="DejaVuSans-48"/>
     </defs>
     <g transform="translate(108.351684 54.631245)scale(0.08 -0.08)">
      <use xlink:href="#DejaVuSans-48"/>
     </g>
    </g>
   </g>
   <g id="text_3">
    <g clip-path="url(#p3a4ac63bcf)">
     <!-- H -->
     <defs>
      <path d="M 9.8125 72.90625 
L 19.671875 72.90625 
L 19.671875 43.015625 
L 55.515625 43.015625 
L 55.515625 72.90625 
L 65.375 72.90625 
L 65.375 0 
L 55.515625 0 
L 55.515625 34.71875 
L 19.671875 34.71875 
L 19.671875 0 
L 9.8125 0 
z
" id="DejaVuSans-72"/>
     </defs>
     <g transform="translate(106.008481 92.598987)scale(0.13 -0.13)">
      <use xlink:href="#DejaVuSans-72"/>
     </g>
    </g>
   </g>
   <g id="text_4">
    <g clip-path="url(#p3a4ac63bcf)">
     <!-- H -->
     <g transform="translate(106.008481 138.049987)scale(0.13 -0.13)">
      <use xlink:href="#DejaVuSans-72"/>
     </g>
    </g>
   </g>
   <g id="text_5">
    <g clip-path="url(#p3a4ac63bcf)">
     <!-- P -->
     <defs>
      <path d="M 19.671875 64.796875 
L 19.671875 37.40625 
L 32.078125 37.40625 
Q 38.96875 37.40625 42.71875 40.96875 
Q 46.484375 44.53125 46.484375 51.125 
Q 46.484375 57.671875 42.71875 61.234375 
Q 38.96875 64.796875 32.078125 64.796875 
z
M 9.8125 72.90625 
L 32.078125 72.90625 
Q 44.34375 72.90625 50.609375 67.359375 
Q 56.890625 61.8125 56.890625 51.125 
Q 56.890625 40.328125 50.609375 34.8125 
Q 44.34375 29.296875 32.078125 29.296875 
L 19.671875 29.296875 
L 19.671875 0 
L 9.8125 0 
z
" id="DejaVuSans-80"/>
     </defs>
     <g transform="translate(175.153887 88.167515)scale(0.13 -0.13)">
      <use xlink:href="#DejaVuSans-80"/>
     </g>
    </g>
   </g>
   <g id="text_6">
    <g clip-path="url(#p3a4ac63bcf)">
     <!-- 2 -->
     <defs>
      <path d="M 19.1875 8.296875 
L 53.609375 8.296875 
L 53.609375 0 
L 7.328125 0 
L 7.328125 8.296875 
Q 12.9375 14.109375 22.625 23.890625 
Q 32.328125 33.6875 34.8125 36.53125 
Q 39.546875 41.84375 41.421875 45.53125 
Q 43.3125 49.21875 43.3125 52.78125 
Q 43.3125 58.59375 39.234375 62.25 
Q 35.15625 65.921875 28.609375 65.921875 
Q 23.96875 65.921875 18.8125 64.3125 
Q 13.671875 62.703125 7.8125 59.421875 
L 7.8125 69.390625 
Q 13.765625 71.78125 18.9375 73 
Q 24.125 74.21875 28.421875 74.21875 
Q 39.75 74.21875 46.484375 68.546875 
Q 53.21875 62.890625 53.21875 53.421875 
Q 53.21875 48.921875 51.53125 44.890625 
Q 49.859375 40.875 45.40625 35.40625 
Q 44.1875 33.984375 37.640625 27.21875 
Q 31.109375 20.453125 19.1875 8.296875 
z
" id="DejaVuSans-50"/>
     </defs>
     <g transform="translate(176.528184 100.082245)scale(0.08 -0.08)">
      <use xlink:href="#DejaVuSans-50"/>
     </g>
    </g>
   </g>
   <g id="text_7">
    <g clip-path="url(#p3a4ac63bcf)">
     <!-- P -->
     <g transform="translate(175.153887 133.618515)scale(0.13 -0.13)">
      <use xlink:href="#DejaVuSans-80"/>
     </g>
    </g>
   </g>
   <g id="text_8">
    <g clip-path="url(#p3a4ac63bcf)">
     <!-- 4 -->
     <defs>
      <path d="M 37.796875 64.3125 
L 12.890625 25.390625 
L 37.796875 25.390625 
z
M 35.203125 72.90625 
L 47.609375 72.90625 
L 47.609375 25.390625 
L 58.015625 25.390625 
L 58.015625 17.1875 
L 47.609375 17.1875 
L 47.609375 0 
L 37.796875 0 
L 37.796875 17.1875 
L 4.890625 17.1875 
L 4.890625 26.703125 
z
" id="DejaVuSans-52"/>
     </defs>
     <g transform="translate(176.528184 145.533245)scale(0.08 -0.08)">
      <use xlink:href="#DejaVuSans-52"/>
     </g>
    </g>
   </g>
   <g id="text_9">
    <g clip-path="url(#p3a4ac63bcf)">
     <!-- U -->
     <defs>
      <path d="M 8.6875 72.90625 
L 18.609375 72.90625 
L 18.609375 28.609375 
Q 18.609375 16.890625 22.84375 11.734375 
Q 27.09375 6.59375 36.625 6.59375 
Q 46.09375 6.59375 50.34375 11.734375 
Q 54.59375 16.890625 54.59375 28.609375 
L 54.59375 72.90625 
L 64.5 72.90625 
L 64.5 27.390625 
Q 64.5 13.140625 57.4375 5.859375 
Q 50.390625 -1.421875 36.625 -1.421875 
Q 22.796875 -1.421875 15.734375 5.859375 
Q 8.6875 13.140625 8.6875 27.390625 
z
" id="DejaVuSans-85"/>
     </defs>
     <g transform="translate(174.315996 42.716515)scale(0.13 -0.13)">
      <use xlink:href="#DejaVuSans-85"/>
     </g>
    </g>
   </g>
   <g id="text_10">
    <g clip-path="url(#p3a4ac63bcf)">
     <!-- $-$0.667, $-$$\pi$/2, $\pi$/2 -->
     <defs>
      <path d="M 10.59375 35.5 
L 73.1875 35.5 
L 73.1875 27.203125 
L 10.59375 27.203125 
z
" id="DejaVuSans-8722"/>
      <path d="M 10.6875 12.40625 
L 21 12.40625 
L 21 0 
L 10.6875 0 
z
" id="DejaVuSans-46"/>
      <path d="M 33.015625 40.375 
Q 26.375 40.375 22.484375 35.828125 
Q 18.609375 31.296875 18.609375 23.390625 
Q 18.609375 15.53125 22.484375 10.953125 
Q 26.375 6.390625 33.015625 6.390625 
Q 39.65625 6.390625 43.53125 10.953125 
Q 47.40625 15.53125 47.40625 23.390625 
Q 47.40625 31.296875 43.53125 35.828125 
Q 39.65625 40.375 33.015625 40.375 
z
M 52.59375 71.296875 
L 52.59375 62.3125 
Q 48.875 64.0625 45.09375 64.984375 
Q 41.3125 65.921875 37.59375 65.921875 
Q 27.828125 65.921875 22.671875 59.328125 
Q 17.53125 52.734375 16.796875 39.40625 
Q 19.671875 43.65625 24.015625 45.921875 
Q 28.375 48.1875 33.59375 48.1875 
Q 44.578125 48.1875 50.953125 41.515625 
Q 57.328125 34.859375 57.328125 23.390625 
Q 57.328125 12.15625 50.6875 5.359375 
Q 44.046875 -1.421875 33.015625 -1.421875 
Q 20.359375 -1.421875 13.671875 8.265625 
Q 6.984375 17.96875 6.984375 36.375 
Q 6.984375 53.65625 15.1875 63.9375 
Q 23.390625 74.21875 37.203125 74.21875 
Q 40.921875 74.21875 44.703125 73.484375 
Q 48.484375 72.75 52.59375 71.296875 
z
" id="DejaVuSans-54"/>
      <path d="M 8.203125 72.90625 
L 55.078125 72.90625 
L 55.078125 68.703125 
L 28.609375 0 
L 18.3125 0 
L 43.21875 64.59375 
L 8.203125 64.59375 
z
" id="DejaVuSans-55"/>
      <path d="M 11.71875 12.40625 
L 22.015625 12.40625 
L 22.015625 4 
L 14.015625 -11.625 
L 7.71875 -11.625 
L 11.71875 4 
z
" id="DejaVuSans-44"/>
      <path id="DejaVuSans-32"/>
      <path d="M 9.125 54.6875 
L 61.53125 54.6875 
L 59.765625 45.703125 
L 52.875 45.703125 
L 46.34375 12.109375 
Q 45.65625 8.59375 46.578125 7.03125 
Q 47.46875 5.515625 50.140625 5.515625 
Q 50.875 5.515625 51.953125 5.671875 
Q 53.078125 5.765625 53.421875 5.8125 
L 52.15625 -0.6875 
Q 50.34375 -1.3125 48.484375 -1.609375 
Q 46.578125 -1.90625 44.78125 -1.90625 
Q 38.921875 -1.90625 37.3125 1.265625 
Q 35.6875 4.5 37.359375 13.09375 
L 43.703125 45.703125 
L 23.53125 45.703125 
L 14.65625 0 
L 5.46875 0 
L 14.359375 45.703125 
L 7.375 45.703125 
z
" id="DejaVuSans-Oblique-960"/>
      <path d="M 25.390625 72.90625 
L 33.6875 72.90625 
L 8.296875 -9.28125 
L 0 -9.28125 
z
" id="DejaVuSans-47"/>
     </defs>
     <g transform="translate(143.513184 54.631245)scale(0.08 -0.08)">
      <use transform="translate(0 0.78125)" xlink:href="#DejaVuSans-8722"/>
      <use transform="translate(83.789062 0.78125)" xlink:href="#DejaVuSans-48"/>
      <use transform="translate(147.412109 0.78125)" xlink:href="#DejaVuSans-46"/>
      <use transform="translate(179.199219 0.78125)" xlink:href="#DejaVuSans-54"/>
      <use transform="translate(242.822266 0.78125)" xlink:href="#DejaVuSans-54"/>
      <use transform="translate(306.445312 0.78125)" xlink:href="#DejaVuSans-55"/>
      <use transform="translate(370.068359 0.78125)" xlink:href="#DejaVuSans-44"/>
      <use transform="translate(401.855469 0.78125)" xlink:href="#DejaVuSans-32"/>
      <use transform="translate(433.642578 0.78125)" xlink:href="#DejaVuSans-8722"/>
      <use transform="translate(517.431641 0.78125)" xlink:href="#DejaVuSans-Oblique-960"/>
      <use transform="translate(577.636719 0.78125)" xlink:href="#DejaVuSans-47"/>
      <use transform="translate(607.703125 0.78125)" xlink:href="#DejaVuSans-50"/>
      <use transform="translate(671.326172 0.78125)" xlink:href="#DejaVuSans-44"/>
      <use transform="translate(703.113281 0.78125)" xlink:href="#DejaVuSans-32"/>
      <use transform="translate(734.900391 0.78125)" xlink:href="#DejaVuSans-Oblique-960"/>
      <use transform="translate(795.105469 0.78125)" xlink:href="#DejaVuSans-47"/>
      <use transform="translate(825.171875 0.78125)" xlink:href="#DejaVuSans-50"/>
     </g>
    </g>
   </g>
   <g id="text_11">
    <g clip-path="url(#p3a4ac63bcf)">
     <!-- P -->
     <g transform="translate(243.330387 42.716515)scale(0.13 -0.13)">
      <use xlink:href="#DejaVuSans-80"/>
     </g>
    </g>
   </g>
   <g id="text_12">
    <g clip-path="url(#p3a4ac63bcf)">
     <!-- $\pi$/2 -->
     <g transform="translate(241.089684 54.631245)scale(0.08 -0.08)">
      <use transform="translate(0 0.78125)" xlink:href="#DejaVuSans-Oblique-960"/>
      <use transform="translate(60.205078 0.78125)" xlink:href="#DejaVuSans-47"/>
      <use transform="translate(90.271484 0.78125)" xlink:href="#DejaVuSans-50"/>
     </g>
    </g>
   </g>
   <g id="text_13">
    <g clip-path="url(#p3a4ac63bcf)">
     <!-- $\mathrm{R}_\mathrm{Y}$ -->
     <g transform="translate(330.611684 42.716515)scale(0.13 -0.13)">
      <use transform="translate(0 0.09375)" xlink:href="#DejaVuSans-82"/>
      <use transform="translate(70.439453 -16.3125)scale(0.7)" xlink:href="#DejaVuSans-89"/>
     </g>
    </g>
   </g>
   <g id="text_14">
    <g clip-path="url(#p3a4ac63bcf)">
     <!-- $-$0.667 -->
     <g transform="translate(323.311684 54.631245)scale(0.08 -0.08)">
      <use transform="translate(0 0.78125)" xlink:href="#DejaVuSans-8722"/>
      <use transform="translate(83.789062 0.78125)" xlink:href="#DejaVuSans-48"/>
      <use transform="translate(147.412109 0.78125)" xlink:href="#DejaVuSans-46"/>
      <use transform="translate(179.199219 0.78125)" xlink:href="#DejaVuSans-54"/>
      <use transform="translate(242.822266 0.78125)" xlink:href="#DejaVuSans-54"/>
      <use transform="translate(306.445312 0.78125)" xlink:href="#DejaVuSans-55"/>
     </g>
    </g>
   </g>
   <g id="text_15">
    <g clip-path="url(#p3a4ac63bcf)">
     <!-- $\mathrm{R}_\mathrm{Y}$ -->
     <g transform="translate(421.513684 42.716515)scale(0.13 -0.13)">
      <use transform="translate(0 0.09375)" xlink:href="#DejaVuSans-82"/>
      <use transform="translate(70.439453 -16.3125)scale(0.7)" xlink:href="#DejaVuSans-89"/>
     </g>
    </g>
   </g>
   <g id="text_16">
    <g clip-path="url(#p3a4ac63bcf)">
     <!-- 0.667 -->
     <g transform="translate(417.602434 54.631245)scale(0.08 -0.08)">
      <use xlink:href="#DejaVuSans-48"/>
      <use x="63.623047" xlink:href="#DejaVuSans-46"/>
      <use x="95.410156" xlink:href="#DejaVuSans-54"/>
      <use x="159.033203" xlink:href="#DejaVuSans-54"/>
      <use x="222.65625" xlink:href="#DejaVuSans-55"/>
     </g>
    </g>
   </g>
   <g id="text_17">
    <g clip-path="url(#p3a4ac63bcf)">
     <!-- P -->
     <g transform="translate(470.585387 42.716515)scale(0.13 -0.13)">
      <use xlink:href="#DejaVuSans-80"/>
     </g>
    </g>
   </g>
   <g id="text_18">
    <g clip-path="url(#p3a4ac63bcf)">
     <!-- 3$\pi$/2 -->
     <defs>
      <path d="M 40.578125 39.3125 
Q 47.65625 37.796875 51.625 33 
Q 55.609375 28.21875 55.609375 21.1875 
Q 55.609375 10.40625 48.1875 4.484375 
Q 40.765625 -1.421875 27.09375 -1.421875 
Q 22.515625 -1.421875 17.65625 -0.515625 
Q 12.796875 0.390625 7.625 2.203125 
L 7.625 11.71875 
Q 11.71875 9.328125 16.59375 8.109375 
Q 21.484375 6.890625 26.8125 6.890625 
Q 36.078125 6.890625 40.9375 10.546875 
Q 45.796875 14.203125 45.796875 21.1875 
Q 45.796875 27.640625 41.28125 31.265625 
Q 36.765625 34.90625 28.71875 34.90625 
L 20.21875 34.90625 
L 20.21875 43.015625 
L 29.109375 43.015625 
Q 36.375 43.015625 40.234375 45.921875 
Q 44.09375 48.828125 44.09375 54.296875 
Q 44.09375 59.90625 40.109375 62.90625 
Q 36.140625 65.921875 28.71875 65.921875 
Q 24.65625 65.921875 20.015625 65.03125 
Q 15.375 64.15625 9.8125 62.3125 
L 9.8125 71.09375 
Q 15.4375 72.65625 20.34375 73.4375 
Q 25.25 74.21875 29.59375 74.21875 
Q 40.828125 74.21875 47.359375 69.109375 
Q 53.90625 64.015625 53.90625 55.328125 
Q 53.90625 49.265625 50.4375 45.09375 
Q 46.96875 40.921875 40.578125 39.3125 
z
" id="DejaVuSans-51"/>
     </defs>
     <g transform="translate(465.784684 54.631245)scale(0.08 -0.08)">
      <use transform="translate(0 0.78125)" xlink:href="#DejaVuSans-51"/>
      <use transform="translate(63.623047 0.78125)" xlink:href="#DejaVuSans-Oblique-960"/>
      <use transform="translate(123.828125 0.78125)" xlink:href="#DejaVuSans-47"/>
      <use transform="translate(153.894531 0.78125)" xlink:href="#DejaVuSans-50"/>
     </g>
    </g>
   </g>
   <g id="text_19">
    <g clip-path="url(#p3a4ac63bcf)">
     <!-- P -->
     <g transform="translate(516.036387 42.716515)scale(0.13 -0.13)">
      <use xlink:href="#DejaVuSans-80"/>
     </g>
    </g>
   </g>
   <g id="text_20">
    <g clip-path="url(#p3a4ac63bcf)">
     <!-- $\pi$/2 -->
     <g transform="translate(513.795684 54.631245)scale(0.08 -0.08)">
      <use transform="translate(0 0.78125)" xlink:href="#DejaVuSans-Oblique-960"/>
      <use transform="translate(60.205078 0.78125)" xlink:href="#DejaVuSans-47"/>
      <use transform="translate(90.271484 0.78125)" xlink:href="#DejaVuSans-50"/>
     </g>
    </g>
   </g>
   <g id="text_21">
    <g clip-path="url(#p3a4ac63bcf)">
     <!-- $\mathrm{R}_\mathrm{Y}$ -->
     <g transform="translate(603.317684 42.716515)scale(0.13 -0.13)">
      <use transform="translate(0 0.09375)" xlink:href="#DejaVuSans-82"/>
      <use transform="translate(70.439453 -16.3125)scale(0.7)" xlink:href="#DejaVuSans-89"/>
     </g>
    </g>
   </g>
   <g id="text_22">
    <g clip-path="url(#p3a4ac63bcf)">
     <!-- $-$1.33 -->
     <defs>
      <path d="M 12.40625 8.296875 
L 28.515625 8.296875 
L 28.515625 63.921875 
L 10.984375 60.40625 
L 10.984375 69.390625 
L 28.421875 72.90625 
L 38.28125 72.90625 
L 38.28125 8.296875 
L 54.390625 8.296875 
L 54.390625 0 
L 12.40625 0 
z
" id="DejaVuSans-49"/>
     </defs>
     <g transform="translate(598.577684 54.631245)scale(0.08 -0.08)">
      <use transform="translate(0 0.78125)" xlink:href="#DejaVuSans-8722"/>
      <use transform="translate(83.789062 0.78125)" xlink:href="#DejaVuSans-49"/>
      <use transform="translate(147.412109 0.78125)" xlink:href="#DejaVuSans-46"/>
      <use transform="translate(179.199219 0.78125)" xlink:href="#DejaVuSans-51"/>
      <use transform="translate(242.822266 0.78125)" xlink:href="#DejaVuSans-51"/>
     </g>
    </g>
   </g>
   <g id="text_23">
    <g clip-path="url(#p3a4ac63bcf)">
     <!-- $\mathrm{R}_\mathrm{Y}$ -->
     <g transform="translate(694.219684 42.716515)scale(0.13 -0.13)">
      <use transform="translate(0 0.09375)" xlink:href="#DejaVuSans-82"/>
      <use transform="translate(70.439453 -16.3125)scale(0.7)" xlink:href="#DejaVuSans-89"/>
     </g>
    </g>
   </g>
   <g id="text_24">
    <g clip-path="url(#p3a4ac63bcf)">
     <!-- 1.33 -->
     <g transform="translate(692.853434 54.631245)scale(0.08 -0.08)">
      <use xlink:href="#DejaVuSans-49"/>
      <use x="63.623047" xlink:href="#DejaVuSans-46"/>
      <use x="95.410156" xlink:href="#DejaVuSans-51"/>
      <use x="159.033203" xlink:href="#DejaVuSans-51"/>
     </g>
    </g>
   </g>
   <g id="text_25">
    <g clip-path="url(#p3a4ac63bcf)">
     <!-- H -->
     <g transform="translate(696.871481 138.049987)scale(0.13 -0.13)">
      <use xlink:href="#DejaVuSans-72"/>
     </g>
    </g>
   </g>
   <g id="text_26">
    <g clip-path="url(#p3a4ac63bcf)">
     <!-- P -->
     <g transform="translate(743.291387 42.716515)scale(0.13 -0.13)">
      <use xlink:href="#DejaVuSans-80"/>
     </g>
    </g>
   </g>
   <g id="text_27">
    <g clip-path="url(#p3a4ac63bcf)">
     <!-- 3$\pi$/2 -->
     <g transform="translate(738.490684 54.631245)scale(0.08 -0.08)">
      <use transform="translate(0 0.78125)" xlink:href="#DejaVuSans-51"/>
      <use transform="translate(63.623047 0.78125)" xlink:href="#DejaVuSans-Oblique-960"/>
      <use transform="translate(123.828125 0.78125)" xlink:href="#DejaVuSans-47"/>
      <use transform="translate(153.894531 0.78125)" xlink:href="#DejaVuSans-50"/>
     </g>
    </g>
   </g>
   <g id="text_28">
    <g clip-path="url(#p3a4ac63bcf)">
     <!-- $\mathrm{R}_\mathrm{Z}$ -->
     <defs>
      <path d="M 5.609375 72.90625 
L 62.890625 72.90625 
L 62.890625 65.375 
L 16.796875 8.296875 
L 64.015625 8.296875 
L 64.015625 0 
L 4.5 0 
L 4.5 7.515625 
L 50.59375 64.59375 
L 5.609375 64.59375 
z
" id="DejaVuSans-90"/>
     </defs>
     <g transform="translate(739.280684 133.618515)scale(0.13 -0.13)">
      <use transform="translate(0 0.09375)" xlink:href="#DejaVuSans-82"/>
      <use transform="translate(70.439453 -16.3125)scale(0.7)" xlink:href="#DejaVuSans-90"/>
     </g>
    </g>
   </g>
   <g id="text_29">
    <g clip-path="url(#p3a4ac63bcf)">
     <!-- $-$$\pi$/4 -->
     <g transform="translate(737.530684 145.533245)scale(0.08 -0.08)">
      <use transform="translate(0 0.09375)" xlink:href="#DejaVuSans-8722"/>
      <use transform="translate(83.789062 0.09375)" xlink:href="#DejaVuSans-Oblique-960"/>
      <use transform="translate(143.994141 0.09375)" xlink:href="#DejaVuSans-47"/>
      <use transform="translate(177.685547 0.09375)" xlink:href="#DejaVuSans-52"/>
     </g>
    </g>
   </g>
   <g id="text_30">
    <g clip-path="url(#p3a4ac63bcf)">
     <!-- $\mathrm{R}_\mathrm{Z}$ -->
     <g transform="translate(830.182684 133.618515)scale(0.13 -0.13)">
      <use transform="translate(0 0.09375)" xlink:href="#DejaVuSans-82"/>
      <use transform="translate(70.439453 -16.3125)scale(0.7)" xlink:href="#DejaVuSans-90"/>
     </g>
    </g>
   </g>
   <g id="text_31">
    <g clip-path="url(#p3a4ac63bcf)">
     <!-- $\pi$/4 -->
     <g transform="translate(831.792684 145.533245)scale(0.08 -0.08)">
      <use transform="translate(0 0.09375)" xlink:href="#DejaVuSans-Oblique-960"/>
      <use transform="translate(60.205078 0.09375)" xlink:href="#DejaVuSans-47"/>
      <use transform="translate(93.896484 0.09375)" xlink:href="#DejaVuSans-52"/>
     </g>
    </g>
   </g>
   <g id="text_32">
    <g clip-path="url(#p3a4ac63bcf)">
     <!-- $\mathrm{R}_\mathrm{Z}$ -->
     <g transform="translate(921.084684 88.167515)scale(0.13 -0.13)">
      <use transform="translate(0 0.09375)" xlink:href="#DejaVuSans-82"/>
      <use transform="translate(70.439453 -16.3125)scale(0.7)" xlink:href="#DejaVuSans-90"/>
     </g>
    </g>
   </g>
   <g id="text_33">
    <g clip-path="url(#p3a4ac63bcf)">
     <!-- $-$$\pi$/4 -->
     <g transform="translate(919.334684 100.082245)scale(0.08 -0.08)">
      <use transform="translate(0 0.09375)" xlink:href="#DejaVuSans-8722"/>
      <use transform="translate(83.789062 0.09375)" xlink:href="#DejaVuSans-Oblique-960"/>
      <use transform="translate(143.994141 0.09375)" xlink:href="#DejaVuSans-47"/>
      <use transform="translate(177.685547 0.09375)" xlink:href="#DejaVuSans-52"/>
     </g>
    </g>
   </g>
   <g id="text_34">
    <g clip-path="url(#p3a4ac63bcf)">
     <!-- H -->
     <g transform="translate(969.577481 92.598987)scale(0.13 -0.13)">
      <use xlink:href="#DejaVuSans-72"/>
     </g>
    </g>
   </g>
   <g id="text_35">
    <g clip-path="url(#p3a4ac63bcf)">
     <!-- $\mathrm{R}_\mathrm{Y}$ -->
     <g transform="translate(966.925684 179.069515)scale(0.13 -0.13)">
      <use transform="translate(0 0.09375)" xlink:href="#DejaVuSans-82"/>
      <use transform="translate(70.439453 -16.3125)scale(0.7)" xlink:href="#DejaVuSans-89"/>
     </g>
    </g>
   </g>
   <g id="text_36">
    <g clip-path="url(#p3a4ac63bcf)">
     <!-- $-$0.694 -->
     <defs>
      <path d="M 10.984375 1.515625 
L 10.984375 10.5 
Q 14.703125 8.734375 18.5 7.8125 
Q 22.3125 6.890625 25.984375 6.890625 
Q 35.75 6.890625 40.890625 13.453125 
Q 46.046875 20.015625 46.78125 33.40625 
Q 43.953125 29.203125 39.59375 26.953125 
Q 35.25 24.703125 29.984375 24.703125 
Q 19.046875 24.703125 12.671875 31.3125 
Q 6.296875 37.9375 6.296875 49.421875 
Q 6.296875 60.640625 12.9375 67.421875 
Q 19.578125 74.21875 30.609375 74.21875 
Q 43.265625 74.21875 49.921875 64.515625 
Q 56.59375 54.828125 56.59375 36.375 
Q 56.59375 19.140625 48.40625 8.859375 
Q 40.234375 -1.421875 26.421875 -1.421875 
Q 22.703125 -1.421875 18.890625 -0.6875 
Q 15.09375 0.046875 10.984375 1.515625 
z
M 30.609375 32.421875 
Q 37.25 32.421875 41.125 36.953125 
Q 45.015625 41.5 45.015625 49.421875 
Q 45.015625 57.28125 41.125 61.84375 
Q 37.25 66.40625 30.609375 66.40625 
Q 23.96875 66.40625 20.09375 61.84375 
Q 16.21875 57.28125 16.21875 49.421875 
Q 16.21875 41.5 20.09375 36.953125 
Q 23.96875 32.421875 30.609375 32.421875 
z
" id="DejaVuSans-57"/>
     </defs>
     <g transform="translate(959.625684 190.984245)scale(0.08 -0.08)">
      <use transform="translate(0 0.78125)" xlink:href="#DejaVuSans-8722"/>
      <use transform="translate(83.789062 0.78125)" xlink:href="#DejaVuSans-48"/>
      <use transform="translate(147.412109 0.78125)" xlink:href="#DejaVuSans-46"/>
      <use transform="translate(179.199219 0.78125)" xlink:href="#DejaVuSans-54"/>
      <use transform="translate(242.822266 0.78125)" xlink:href="#DejaVuSans-57"/>
      <use transform="translate(306.445312 0.78125)" xlink:href="#DejaVuSans-52"/>
     </g>
    </g>
   </g>
   <g id="text_37">
    <g clip-path="url(#p3a4ac63bcf)">
     <!-- $\mathrm{R}_\mathrm{Y}$ -->
     <g transform="translate(1057.827684 179.069515)scale(0.13 -0.13)">
      <use transform="translate(0 0.09375)" xlink:href="#DejaVuSans-82"/>
      <use transform="translate(70.439453 -16.3125)scale(0.7)" xlink:href="#DejaVuSans-89"/>
     </g>
    </g>
   </g>
   <g id="text_38">
    <g clip-path="url(#p3a4ac63bcf)">
     <!-- $-$0.877 -->
     <defs>
      <path d="M 31.78125 34.625 
Q 24.75 34.625 20.71875 30.859375 
Q 16.703125 27.09375 16.703125 20.515625 
Q 16.703125 13.921875 20.71875 10.15625 
Q 24.75 6.390625 31.78125 6.390625 
Q 38.8125 6.390625 42.859375 10.171875 
Q 46.921875 13.96875 46.921875 20.515625 
Q 46.921875 27.09375 42.890625 30.859375 
Q 38.875 34.625 31.78125 34.625 
z
M 21.921875 38.8125 
Q 15.578125 40.375 12.03125 44.71875 
Q 8.5 49.078125 8.5 55.328125 
Q 8.5 64.0625 14.71875 69.140625 
Q 20.953125 74.21875 31.78125 74.21875 
Q 42.671875 74.21875 48.875 69.140625 
Q 55.078125 64.0625 55.078125 55.328125 
Q 55.078125 49.078125 51.53125 44.71875 
Q 48 40.375 41.703125 38.8125 
Q 48.828125 37.15625 52.796875 32.3125 
Q 56.78125 27.484375 56.78125 20.515625 
Q 56.78125 9.90625 50.3125 4.234375 
Q 43.84375 -1.421875 31.78125 -1.421875 
Q 19.734375 -1.421875 13.25 4.234375 
Q 6.78125 9.90625 6.78125 20.515625 
Q 6.78125 27.484375 10.78125 32.3125 
Q 14.796875 37.15625 21.921875 38.8125 
z
M 18.3125 54.390625 
Q 18.3125 48.734375 21.84375 45.5625 
Q 25.390625 42.390625 31.78125 42.390625 
Q 38.140625 42.390625 41.71875 45.5625 
Q 45.3125 48.734375 45.3125 54.390625 
Q 45.3125 60.0625 41.71875 63.234375 
Q 38.140625 66.40625 31.78125 66.40625 
Q 25.390625 66.40625 21.84375 63.234375 
Q 18.3125 60.0625 18.3125 54.390625 
z
" id="DejaVuSans-56"/>
     </defs>
     <g transform="translate(1050.727684 190.984245)scale(0.08 -0.08)">
      <use transform="translate(0 0.78125)" xlink:href="#DejaVuSans-8722"/>
      <use transform="translate(83.789062 0.78125)" xlink:href="#DejaVuSans-48"/>
      <use transform="translate(147.412109 0.78125)" xlink:href="#DejaVuSans-46"/>
      <use transform="translate(176.574219 0.78125)" xlink:href="#DejaVuSans-56"/>
      <use transform="translate(240.197266 0.78125)" xlink:href="#DejaVuSans-55"/>
      <use transform="translate(302.070312 0.78125)" xlink:href="#DejaVuSans-55"/>
     </g>
    </g>
   </g>
   <g id="text_39">
    <g clip-path="url(#p3a4ac63bcf)">
     <!-- $\mathrm{R}_\mathrm{Y}$ -->
     <g transform="translate(1148.729684 179.069515)scale(0.13 -0.13)">
      <use transform="translate(0 0.09375)" xlink:href="#DejaVuSans-82"/>
      <use transform="translate(70.439453 -16.3125)scale(0.7)" xlink:href="#DejaVuSans-89"/>
     </g>
    </g>
   </g>
   <g id="text_40">
    <g clip-path="url(#p3a4ac63bcf)">
     <!-- 0.354 -->
     <defs>
      <path d="M 10.796875 72.90625 
L 49.515625 72.90625 
L 49.515625 64.59375 
L 19.828125 64.59375 
L 19.828125 46.734375 
Q 21.96875 47.46875 24.109375 47.828125 
Q 26.265625 48.1875 28.421875 48.1875 
Q 40.625 48.1875 47.75 41.5 
Q 54.890625 34.8125 54.890625 23.390625 
Q 54.890625 11.625 47.5625 5.09375 
Q 40.234375 -1.421875 26.90625 -1.421875 
Q 22.3125 -1.421875 17.546875 -0.640625 
Q 12.796875 0.140625 7.71875 1.703125 
L 7.71875 11.625 
Q 12.109375 9.234375 16.796875 8.0625 
Q 21.484375 6.890625 26.703125 6.890625 
Q 35.15625 6.890625 40.078125 11.328125 
Q 45.015625 15.765625 45.015625 23.390625 
Q 45.015625 31 40.078125 35.4375 
Q 35.15625 39.890625 26.703125 39.890625 
Q 22.75 39.890625 18.8125 39.015625 
Q 14.890625 38.140625 10.796875 36.28125 
z
" id="DejaVuSans-53"/>
     </defs>
     <g transform="translate(1144.818434 190.984245)scale(0.08 -0.08)">
      <use xlink:href="#DejaVuSans-48"/>
      <use x="63.623047" xlink:href="#DejaVuSans-46"/>
      <use x="95.410156" xlink:href="#DejaVuSans-51"/>
      <use x="159.033203" xlink:href="#DejaVuSans-53"/>
      <use x="222.65625" xlink:href="#DejaVuSans-52"/>
     </g>
    </g>
   </g>
   <g id="text_41">
    <g clip-path="url(#p3a4ac63bcf)">
     <!-- $\mathrm{R}_\mathrm{Y}$ -->
     <g transform="translate(1239.631684 179.069515)scale(0.13 -0.13)">
      <use transform="translate(0 0.09375)" xlink:href="#DejaVuSans-82"/>
      <use transform="translate(70.439453 -16.3125)scale(0.7)" xlink:href="#DejaVuSans-89"/>
     </g>
    </g>
   </g>
   <g id="text_42">
    <g clip-path="url(#p3a4ac63bcf)">
     <!-- 1.22 -->
     <g transform="translate(1238.265434 190.984245)scale(0.08 -0.08)">
      <use xlink:href="#DejaVuSans-49"/>
      <use x="63.623047" xlink:href="#DejaVuSans-46"/>
      <use x="95.410156" xlink:href="#DejaVuSans-50"/>
      <use x="159.033203" xlink:href="#DejaVuSans-50"/>
     </g>
    </g>
   </g>
   <g id="text_43">
    <g clip-path="url(#p3a4ac63bcf)">
     <!-- 0 -->
     <g transform="translate(1349.436434 218.656825)scale(0.104 -0.104)">
      <use xlink:href="#DejaVuSans-48"/>
     </g>
    </g>
   </g>
   <g id="text_44">
    <g clip-path="url(#p3a4ac63bcf)">
     <!-- 1 -->
     <g transform="translate(1394.887434 218.656825)scale(0.104 -0.104)">
      <use xlink:href="#DejaVuSans-49"/>
     </g>
    </g>
   </g>
   <g id="text_45">
    <g clip-path="url(#p3a4ac63bcf)">
     <!-- 2 -->
     <g transform="translate(1440.338434 218.656825)scale(0.104 -0.104)">
      <use xlink:href="#DejaVuSans-50"/>
     </g>
    </g>
   </g>
   <g id="text_46">
    <g clip-path="url(#p3a4ac63bcf)">
     <!-- 3 -->
     <g transform="translate(1485.789434 218.656825)scale(0.104 -0.104)">
      <use xlink:href="#DejaVuSans-51"/>
     </g>
    </g>
   </g>
   <g id="text_47">
    <g clip-path="url(#p3a4ac63bcf)">
     <!-- ${q16}_{0}$ -->
     <defs>
      <path d="M 41.703125 8.203125 
Q 38.09375 3.46875 33.171875 1.015625 
Q 28.265625 -1.421875 22.3125 -1.421875 
Q 14.015625 -1.421875 9.296875 4.171875 
Q 4.59375 9.765625 4.59375 19.578125 
Q 4.59375 27.484375 7.5 34.859375 
Q 10.40625 42.234375 15.828125 48.09375 
Q 19.34375 51.90625 23.90625 53.953125 
Q 28.46875 56 33.5 56 
Q 39.546875 56 43.453125 53.609375 
Q 47.359375 51.21875 49.125 46.390625 
L 50.6875 54.59375 
L 59.71875 54.59375 
L 45.125 -20.609375 
L 36.078125 -20.609375 
z
M 13.921875 20.90625 
Q 13.921875 13.671875 16.9375 9.890625 
Q 19.96875 6.109375 25.6875 6.109375 
Q 34.1875 6.109375 40.1875 14.234375 
Q 46.1875 22.359375 46.1875 33.984375 
Q 46.1875 41.015625 43.078125 44.75 
Q 39.984375 48.484375 34.1875 48.484375 
Q 29.9375 48.484375 26.3125 46.5 
Q 22.703125 44.53125 20.015625 40.71875 
Q 17.1875 36.71875 15.546875 31.34375 
Q 13.921875 25.984375 13.921875 20.90625 
z
" id="DejaVuSans-Oblique-113"/>
     </defs>
     <g transform="translate(38.425444 48.011777)scale(0.1625 -0.1625)">
      <use transform="translate(0 0.78125)" xlink:href="#DejaVuSans-Oblique-113"/>
      <use transform="translate(63.476562 0.78125)" xlink:href="#DejaVuSans-49"/>
      <use transform="translate(127.099609 0.78125)" xlink:href="#DejaVuSans-54"/>
      <use transform="translate(191.679688 -15.625)scale(0.7)" xlink:href="#DejaVuSans-48"/>
     </g>
    </g>
   </g>
   <g id="text_48">
    <g clip-path="url(#p3a4ac63bcf)">
     <!-- ${q16}_{1}$ -->
     <g transform="translate(38.425444 93.462777)scale(0.1625 -0.1625)">
      <use transform="translate(0 0.78125)" xlink:href="#DejaVuSans-Oblique-113"/>
      <use transform="translate(63.476562 0.78125)" xlink:href="#DejaVuSans-49"/>
      <use transform="translate(127.099609 0.78125)" xlink:href="#DejaVuSans-54"/>
      <use transform="translate(191.679688 -15.625)scale(0.7)" xlink:href="#DejaVuSans-49"/>
     </g>
    </g>
   </g>
   <g id="text_49">
    <g clip-path="url(#p3a4ac63bcf)">
     <!-- ${q16}_{2}$ -->
     <g transform="translate(38.425444 138.913777)scale(0.1625 -0.1625)">
      <use transform="translate(0 0.78125)" xlink:href="#DejaVuSans-Oblique-113"/>
      <use transform="translate(63.476562 0.78125)" xlink:href="#DejaVuSans-49"/>
      <use transform="translate(127.099609 0.78125)" xlink:href="#DejaVuSans-54"/>
      <use transform="translate(191.679688 -15.625)scale(0.7)" xlink:href="#DejaVuSans-50"/>
     </g>
    </g>
   </g>
   <g id="text_50">
    <g clip-path="url(#p3a4ac63bcf)">
     <!-- ${q16}_{3}$ -->
     <g transform="translate(38.425444 184.364777)scale(0.1625 -0.1625)">
      <use transform="translate(0 0.78125)" xlink:href="#DejaVuSans-Oblique-113"/>
      <use transform="translate(63.476562 0.78125)" xlink:href="#DejaVuSans-49"/>
      <use transform="translate(127.099609 0.78125)" xlink:href="#DejaVuSans-54"/>
      <use transform="translate(191.679688 -15.625)scale(0.7)" xlink:href="#DejaVuSans-51"/>
     </g>
    </g>
   </g>
   <g id="text_51">
    <g clip-path="url(#p3a4ac63bcf)">
     <!-- 4 -->
     <g transform="translate(90.898244 218.656825)scale(0.104 -0.104)">
      <use xlink:href="#DejaVuSans-52"/>
     </g>
    </g>
   </g>
   <g id="text_52">
    <g clip-path="url(#p3a4ac63bcf)">
     <!-- meas -->
     <defs>
      <path d="M 52 44.1875 
Q 55.375 50.25 60.0625 53.125 
Q 64.75 56 71.09375 56 
Q 79.640625 56 84.28125 50.015625 
Q 88.921875 44.046875 88.921875 33.015625 
L 88.921875 0 
L 79.890625 0 
L 79.890625 32.71875 
Q 79.890625 40.578125 77.09375 44.375 
Q 74.3125 48.1875 68.609375 48.1875 
Q 61.625 48.1875 57.5625 43.546875 
Q 53.515625 38.921875 53.515625 30.90625 
L 53.515625 0 
L 44.484375 0 
L 44.484375 32.71875 
Q 44.484375 40.625 41.703125 44.40625 
Q 38.921875 48.1875 33.109375 48.1875 
Q 26.21875 48.1875 22.15625 43.53125 
Q 18.109375 38.875 18.109375 30.90625 
L 18.109375 0 
L 9.078125 0 
L 9.078125 54.6875 
L 18.109375 54.6875 
L 18.109375 46.1875 
Q 21.1875 51.21875 25.484375 53.609375 
Q 29.78125 56 35.6875 56 
Q 41.65625 56 45.828125 52.96875 
Q 50 49.953125 52 44.1875 
z
" id="DejaVuSans-109"/>
      <path d="M 56.203125 29.59375 
L 56.203125 25.203125 
L 14.890625 25.203125 
Q 15.484375 15.921875 20.484375 11.0625 
Q 25.484375 6.203125 34.421875 6.203125 
Q 39.59375 6.203125 44.453125 7.46875 
Q 49.3125 8.734375 54.109375 11.28125 
L 54.109375 2.78125 
Q 49.265625 0.734375 44.1875 -0.34375 
Q 39.109375 -1.421875 33.890625 -1.421875 
Q 20.796875 -1.421875 13.15625 6.1875 
Q 5.515625 13.8125 5.515625 26.8125 
Q 5.515625 40.234375 12.765625 48.109375 
Q 20.015625 56 32.328125 56 
Q 43.359375 56 49.78125 48.890625 
Q 56.203125 41.796875 56.203125 29.59375 
z
M 47.21875 32.234375 
Q 47.125 39.59375 43.09375 43.984375 
Q 39.0625 48.390625 32.421875 48.390625 
Q 24.90625 48.390625 20.390625 44.140625 
Q 15.875 39.890625 15.1875 32.171875 
z
" id="DejaVuSans-101"/>
      <path d="M 34.28125 27.484375 
Q 23.390625 27.484375 19.1875 25 
Q 14.984375 22.515625 14.984375 16.5 
Q 14.984375 11.71875 18.140625 8.90625 
Q 21.296875 6.109375 26.703125 6.109375 
Q 34.1875 6.109375 38.703125 11.40625 
Q 43.21875 16.703125 43.21875 25.484375 
L 43.21875 27.484375 
z
M 52.203125 31.203125 
L 52.203125 0 
L 43.21875 0 
L 43.21875 8.296875 
Q 40.140625 3.328125 35.546875 0.953125 
Q 30.953125 -1.421875 24.3125 -1.421875 
Q 15.921875 -1.421875 10.953125 3.296875 
Q 6 8.015625 6 15.921875 
Q 6 25.140625 12.171875 29.828125 
Q 18.359375 34.515625 30.609375 34.515625 
L 43.21875 34.515625 
L 43.21875 35.40625 
Q 43.21875 41.609375 39.140625 45 
Q 35.0625 48.390625 27.6875 48.390625 
Q 23 48.390625 18.546875 47.265625 
Q 14.109375 46.140625 10.015625 43.890625 
L 10.015625 52.203125 
Q 14.9375 54.109375 19.578125 55.046875 
Q 24.21875 56 28.609375 56 
Q 40.484375 56 46.34375 49.84375 
Q 52.203125 43.703125 52.203125 31.203125 
z
" id="DejaVuSans-97"/>
      <path d="M 44.28125 53.078125 
L 44.28125 44.578125 
Q 40.484375 46.53125 36.375 47.5 
Q 32.28125 48.484375 27.875 48.484375 
Q 21.1875 48.484375 17.84375 46.4375 
Q 14.5 44.390625 14.5 40.28125 
Q 14.5 37.15625 16.890625 35.375 
Q 19.28125 33.59375 26.515625 31.984375 
L 29.59375 31.296875 
Q 39.15625 29.25 43.1875 25.515625 
Q 47.21875 21.78125 47.21875 15.09375 
Q 47.21875 7.46875 41.1875 3.015625 
Q 35.15625 -1.421875 24.609375 -1.421875 
Q 20.21875 -1.421875 15.453125 -0.5625 
Q 10.6875 0.296875 5.421875 2 
L 5.421875 11.28125 
Q 10.40625 8.6875 15.234375 7.390625 
Q 20.0625 6.109375 24.8125 6.109375 
Q 31.15625 6.109375 34.5625 8.28125 
Q 37.984375 10.453125 37.984375 14.40625 
Q 37.984375 18.0625 35.515625 20.015625 
Q 33.0625 21.96875 24.703125 23.78125 
L 21.578125 24.515625 
Q 13.234375 26.265625 9.515625 29.90625 
Q 5.8125 33.546875 5.8125 39.890625 
Q 5.8125 47.609375 11.28125 51.796875 
Q 16.75 56 26.8125 56 
Q 31.78125 56 36.171875 55.265625 
Q 40.578125 54.546875 44.28125 53.078125 
z
" id="DejaVuSans-115"/>
     </defs>
     <g transform="translate(33.012163 229.848784)scale(0.1625 -0.1625)">
      <use xlink:href="#DejaVuSans-109"/>
      <use x="97.412109" xlink:href="#DejaVuSans-101"/>
      <use x="158.935547" xlink:href="#DejaVuSans-97"/>
      <use x="220.214844" xlink:href="#DejaVuSans-115"/>
     </g>
    </g>
   </g>
  </g>
 </g>
 <defs>
  <clipPath id="p3a4ac63bcf">
   <rect height="245.4354" width="1497.224344" x="7.2" y="7.2"/>
  </clipPath>
 </defs>
</svg>
