<?xml version="1.0" encoding="utf-8" standalone="no"?>
<!DOCTYPE svg PUBLIC "-//W3C//DTD SVG 1.1//EN"
  "http://www.w3.org/Graphics/SVG/1.1/DTD/svg11.dtd">
<!-- Created with matplotlib (https://matplotlib.org/) -->
<svg height="441.6394pt" version="1.1" viewBox="0 0 1238.918344 441.6394" width="1238.918344pt" xmlns="http://www.w3.org/2000/svg" xmlns:xlink="http://www.w3.org/1999/xlink">
 <defs>
  <style type="text/css">
*{stroke-linecap:butt;stroke-linejoin:round;}
  </style>
 </defs>
 <g id="figure_1">
  <g id="patch_1">
   <path d="M 0 441.6394 
L 1238.918344 441.6394 
L 1238.918344 0 
L 0 0 
z
" style="fill:#ffffff;"/>
  </g>
  <g id="axes_1">
   <g id="patch_2">
    <path clip-path="url(#p72676c98fe)" d="M 286.792054 396.828697 
L 298.609314 396.828697 
L 292.700684 405.35076 
z
" style="fill:#778899;"/>
   </g>
   <g id="patch_3">
    <path clip-path="url(#p72676c98fe)" d="M 332.243054 396.828697 
L 344.060314 396.828697 
L 338.151684 405.35076 
z
" style="fill:#778899;"/>
   </g>
   <g id="patch_4">
    <path clip-path="url(#p72676c98fe)" d="M 377.694054 396.828697 
L 389.511314 396.828697 
L 383.602684 405.35076 
z
" style="fill:#778899;"/>
   </g>
   <g id="line2d_1">
    <path clip-path="url(#p72676c98fe)" d="M 86.353144 43.5608 
L 1227.173244 43.5608 
" style="fill:none;stroke:#000000;stroke-linecap:square;stroke-width:2;"/>
   </g>
   <g id="line2d_2">
    <path clip-path="url(#p72676c98fe)" d="M 86.353144 89.0118 
L 1227.173244 89.0118 
" style="fill:none;stroke:#000000;stroke-linecap:square;stroke-width:2;"/>
   </g>
   <g id="line2d_3">
    <path clip-path="url(#p72676c98fe)" d="M 86.353144 134.4628 
L 1227.173244 134.4628 
" style="fill:none;stroke:#000000;stroke-linecap:square;stroke-width:2;"/>
   </g>
   <g id="line2d_4">
    <path clip-path="url(#p72676c98fe)" d="M 86.353144 178.436642 
L 1227.173244 178.436642 
" style="fill:none;stroke:#778899;stroke-linecap:square;stroke-width:2;"/>
   </g>
   <g id="line2d_5">
    <path clip-path="url(#p72676c98fe)" d="M 86.353144 181.390957 
L 1227.173244 181.390957 
" style="fill:none;stroke:#778899;stroke-linecap:square;stroke-width:2;"/>
   </g>
   <g id="line2d_6">
    <path clip-path="url(#p72676c98fe)" d="M 86.353144 270.8158 
L 1227.173244 270.8158 
" style="fill:none;stroke:#000000;stroke-linecap:square;stroke-width:2;"/>
   </g>
   <g id="line2d_7">
    <path clip-path="url(#p72676c98fe)" d="M 86.353144 316.2668 
L 1227.173244 316.2668 
" style="fill:none;stroke:#000000;stroke-linecap:square;stroke-width:2;"/>
   </g>
   <g id="line2d_8">
    <path clip-path="url(#p72676c98fe)" d="M 86.353144 361.7178 
L 1227.173244 361.7178 
" style="fill:none;stroke:#000000;stroke-linecap:square;stroke-width:2;"/>
   </g>
   <g id="line2d_9">
    <path clip-path="url(#p72676c98fe)" d="M 86.353144 405.691643 
L 1227.173244 405.691643 
" style="fill:none;stroke:#778899;stroke-linecap:square;stroke-width:2;"/>
   </g>
   <g id="line2d_10">
    <path clip-path="url(#p72676c98fe)" d="M 86.353144 408.645958 
L 1227.173244 408.645958 
" style="fill:none;stroke:#778899;stroke-linecap:square;stroke-width:2;"/>
   </g>
   <g id="patch_5">
    <path clip-path="url(#p72676c98fe)" d="M 147.484739 66.2863 
L 165.210629 66.2863 
L 165.210629 20.8353 
L 147.484739 20.8353 
z
" style="fill:#bdbdbd;opacity:0.6;"/>
   </g>
   <g id="patch_6">
    <path clip-path="url(#p72676c98fe)" d="M 147.484739 111.7373 
L 165.210629 111.7373 
L 165.210629 66.2863 
L 147.484739 66.2863 
z
" style="fill:#bdbdbd;opacity:0.6;"/>
   </g>
   <g id="patch_7">
    <path clip-path="url(#p72676c98fe)" d="M 147.484739 157.1883 
L 165.210629 157.1883 
L 165.210629 111.7373 
L 147.484739 111.7373 
z
" style="fill:#bdbdbd;opacity:0.6;"/>
   </g>
   <g id="patch_8">
    <path clip-path="url(#p72676c98fe)" d="M 420.190739 66.2863 
L 437.916629 66.2863 
L 437.916629 20.8353 
L 420.190739 20.8353 
z
" style="fill:#bdbdbd;opacity:0.6;"/>
   </g>
   <g id="patch_9">
    <path clip-path="url(#p72676c98fe)" d="M 420.190739 111.7373 
L 437.916629 111.7373 
L 437.916629 66.2863 
L 420.190739 66.2863 
z
" style="fill:#bdbdbd;opacity:0.6;"/>
   </g>
   <g id="patch_10">
    <path clip-path="url(#p72676c98fe)" d="M 420.190739 157.1883 
L 437.916629 157.1883 
L 437.916629 111.7373 
L 420.190739 111.7373 
z
" style="fill:#bdbdbd;opacity:0.6;"/>
   </g>
   <g id="patch_11">
    <path clip-path="url(#p72676c98fe)" d="M 738.347739 66.2863 
L 756.073629 66.2863 
L 756.073629 20.8353 
L 738.347739 20.8353 
z
" style="fill:#bdbdbd;opacity:0.6;"/>
   </g>
   <g id="patch_12">
    <path clip-path="url(#p72676c98fe)" d="M 738.347739 111.7373 
L 756.073629 111.7373 
L 756.073629 66.2863 
L 738.347739 66.2863 
z
" style="fill:#bdbdbd;opacity:0.6;"/>
   </g>
   <g id="patch_13">
    <path clip-path="url(#p72676c98fe)" d="M 738.347739 157.1883 
L 756.073629 157.1883 
L 756.073629 111.7373 
L 738.347739 111.7373 
z
" style="fill:#bdbdbd;opacity:0.6;"/>
   </g>
   <g id="patch_14">
    <path clip-path="url(#p72676c98fe)" d="M 1056.504739 66.2863 
L 1074.230629 66.2863 
L 1074.230629 20.8353 
L 1056.504739 20.8353 
z
" style="fill:#bdbdbd;opacity:0.6;"/>
   </g>
   <g id="patch_15">
    <path clip-path="url(#p72676c98fe)" d="M 1056.504739 111.7373 
L 1074.230629 111.7373 
L 1074.230629 66.2863 
L 1056.504739 66.2863 
z
" style="fill:#bdbdbd;opacity:0.6;"/>
   </g>
   <g id="patch_16">
    <path clip-path="url(#p72676c98fe)" d="M 1056.504739 157.1883 
L 1074.230629 157.1883 
L 1074.230629 111.7373 
L 1056.504739 111.7373 
z
" style="fill:#bdbdbd;opacity:0.6;"/>
   </g>
   <g id="patch_17">
    <path clip-path="url(#p72676c98fe)" d="M 238.386739 293.5413 
L 256.112629 293.5413 
L 256.112629 248.0903 
L 238.386739 248.0903 
z
" style="fill:#bdbdbd;opacity:0.6;"/>
   </g>
   <g id="patch_18">
    <path clip-path="url(#p72676c98fe)" d="M 238.386739 338.9923 
L 256.112629 338.9923 
L 256.112629 293.5413 
L 238.386739 293.5413 
z
" style="fill:#bdbdbd;opacity:0.6;"/>
   </g>
   <g id="patch_19">
    <path clip-path="url(#p72676c98fe)" d="M 238.386739 384.4433 
L 256.112629 384.4433 
L 256.112629 338.9923 
L 238.386739 338.9923 
z
" style="fill:#bdbdbd;opacity:0.6;"/>
   </g>
   <g id="line2d_11">
    <path clip-path="url(#p72676c98fe)" d="M 201.798684 134.4628 
L 201.798684 43.5608 
" style="fill:none;stroke:#bb8bff;stroke-linecap:square;stroke-width:2;"/>
   </g>
   <g id="line2d_12">
    <path clip-path="url(#p72676c98fe)" d="M 247.249684 89.0118 
L 247.249684 43.5608 
" style="fill:none;stroke:#6fa4ff;stroke-linecap:square;stroke-width:2;"/>
   </g>
   <g id="line2d_13">
    <path clip-path="url(#p72676c98fe)" d="M 292.700684 134.4628 
L 292.700684 89.0118 
" style="fill:none;stroke:#bb8bff;stroke-linecap:square;stroke-width:2;"/>
   </g>
   <g id="line2d_14">
    <path clip-path="url(#p72676c98fe)" d="M 338.151684 89.0118 
L 338.151684 43.5608 
" style="fill:none;stroke:#6fa4ff;stroke-linecap:square;stroke-width:2;"/>
   </g>
   <g id="line2d_15">
    <path clip-path="url(#p72676c98fe)" d="M 383.602684 134.4628 
L 383.602684 89.0118 
" style="fill:none;stroke:#bb8bff;stroke-linecap:square;stroke-width:2;"/>
   </g>
   <g id="line2d_16">
    <path clip-path="url(#p72676c98fe)" d="M 519.955684 134.4628 
L 519.955684 43.5608 
" style="fill:none;stroke:#bb8bff;stroke-linecap:square;stroke-width:2;"/>
   </g>
   <g id="line2d_17">
    <path clip-path="url(#p72676c98fe)" d="M 565.406684 89.0118 
L 565.406684 43.5608 
" style="fill:none;stroke:#6fa4ff;stroke-linecap:square;stroke-width:2;"/>
   </g>
   <g id="line2d_18">
    <path clip-path="url(#p72676c98fe)" d="M 610.857684 134.4628 
L 610.857684 89.0118 
" style="fill:none;stroke:#bb8bff;stroke-linecap:square;stroke-width:2;"/>
   </g>
   <g id="line2d_19">
    <path clip-path="url(#p72676c98fe)" d="M 656.308684 89.0118 
L 656.308684 43.5608 
" style="fill:none;stroke:#6fa4ff;stroke-linecap:square;stroke-width:2;"/>
   </g>
   <g id="line2d_20">
    <path clip-path="url(#p72676c98fe)" d="M 701.759684 134.4628 
L 701.759684 89.0118 
" style="fill:none;stroke:#bb8bff;stroke-linecap:square;stroke-width:2;"/>
   </g>
   <g id="line2d_21">
    <path clip-path="url(#p72676c98fe)" d="M 838.112684 134.4628 
L 838.112684 43.5608 
" style="fill:none;stroke:#bb8bff;stroke-linecap:square;stroke-width:2;"/>
   </g>
   <g id="line2d_22">
    <path clip-path="url(#p72676c98fe)" d="M 883.563684 89.0118 
L 883.563684 43.5608 
" style="fill:none;stroke:#6fa4ff;stroke-linecap:square;stroke-width:2;"/>
   </g>
   <g id="line2d_23">
    <path clip-path="url(#p72676c98fe)" d="M 929.014684 134.4628 
L 929.014684 89.0118 
" style="fill:none;stroke:#bb8bff;stroke-linecap:square;stroke-width:2;"/>
   </g>
   <g id="line2d_24">
    <path clip-path="url(#p72676c98fe)" d="M 974.465684 89.0118 
L 974.465684 43.5608 
" style="fill:none;stroke:#6fa4ff;stroke-linecap:square;stroke-width:2;"/>
   </g>
   <g id="line2d_25">
    <path clip-path="url(#p72676c98fe)" d="M 1019.916684 134.4628 
L 1019.916684 89.0118 
" style="fill:none;stroke:#bb8bff;stroke-linecap:square;stroke-width:2;"/>
   </g>
   <g id="line2d_26">
    <path clip-path="url(#p72676c98fe)" d="M 1156.269684 134.4628 
L 1156.269684 43.5608 
" style="fill:none;stroke:#bb8bff;stroke-linecap:square;stroke-width:2;"/>
   </g>
   <g id="line2d_27">
    <path clip-path="url(#p72676c98fe)" d="M 1201.720684 89.0118 
L 1201.720684 43.5608 
" style="fill:none;stroke:#6fa4ff;stroke-linecap:square;stroke-width:2;"/>
   </g>
   <g id="line2d_28">
    <path clip-path="url(#p72676c98fe)" d="M 110.896684 361.7178 
L 110.896684 316.2668 
" style="fill:none;stroke:#bb8bff;stroke-linecap:square;stroke-width:2;"/>
   </g>
   <g id="line2d_29">
    <path clip-path="url(#p72676c98fe)" d="M 156.347684 316.2668 
L 156.347684 270.8158 
" style="fill:none;stroke:#6fa4ff;stroke-linecap:square;stroke-width:2;"/>
   </g>
   <g id="line2d_30">
    <path clip-path="url(#p72676c98fe)" d="M 201.798684 361.7178 
L 201.798684 316.2668 
" style="fill:none;stroke:#bb8bff;stroke-linecap:square;stroke-width:2;"/>
   </g>
   <g id="line2d_31">
    <path clip-path="url(#p72676c98fe)" d="M 294.177841 270.8158 
L 294.177841 396.828697 
" style="fill:none;stroke:#778899;stroke-linecap:square;stroke-width:2;"/>
   </g>
   <g id="line2d_32">
    <path clip-path="url(#p72676c98fe)" d="M 291.223526 270.8158 
L 291.223526 396.828697 
" style="fill:none;stroke:#778899;stroke-linecap:square;stroke-width:2;"/>
   </g>
   <g id="line2d_33">
    <path clip-path="url(#p72676c98fe)" d="M 339.628841 316.2668 
L 339.628841 396.828697 
" style="fill:none;stroke:#778899;stroke-linecap:square;stroke-width:2;"/>
   </g>
   <g id="line2d_34">
    <path clip-path="url(#p72676c98fe)" d="M 336.674526 316.2668 
L 336.674526 396.828697 
" style="fill:none;stroke:#778899;stroke-linecap:square;stroke-width:2;"/>
   </g>
   <g id="line2d_35">
    <path clip-path="url(#p72676c98fe)" d="M 385.079841 361.7178 
L 385.079841 396.828697 
" style="fill:none;stroke:#778899;stroke-linecap:square;stroke-width:2;"/>
   </g>
   <g id="line2d_36">
    <path clip-path="url(#p72676c98fe)" d="M 382.125526 361.7178 
L 382.125526 396.828697 
" style="fill:none;stroke:#778899;stroke-linecap:square;stroke-width:2;"/>
   </g>
   <g id="line2d_37">
    <path clip-path="url(#p72676c98fe)" d="M 95.443344 184.4589 
L 99.988444 175.3687 
" style="fill:none;stroke:#778899;stroke-linecap:square;stroke-width:1.5;"/>
   </g>
   <g id="line2d_38">
    <path clip-path="url(#p72676c98fe)" d="M 1227.173244 43.5608 
L 1227.173244 179.9138 
" style="fill:none;stroke:#000000;stroke-linecap:square;stroke-width:1.5;"/>
   </g>
   <g id="line2d_39">
    <path clip-path="url(#p72676c98fe)" d="M 95.443344 411.7139 
L 99.988444 402.6237 
" style="fill:none;stroke:#778899;stroke-linecap:square;stroke-width:1.5;"/>
   </g>
   <g id="line2d_40">
    <path clip-path="url(#p72676c98fe)" d="M 85.898634 270.8158 
L 85.898634 407.1688 
" style="fill:none;stroke:#000000;stroke-linecap:square;stroke-width:1.5;"/>
   </g>
   <g id="patch_20">
    <path clip-path="url(#p72676c98fe)" d="M 96.125109 58.332375 
L 125.668259 58.332375 
L 125.668259 28.789225 
L 96.125109 28.789225 
z
" style="fill:#6fa4ff;stroke:#6fa4ff;stroke-linejoin:miter;stroke-width:1.5;"/>
   </g>
   <g id="patch_21">
    <path clip-path="url(#p72676c98fe)" d="M 96.125109 103.783375 
L 125.668259 103.783375 
L 125.668259 74.240225 
L 96.125109 74.240225 
z
" style="fill:#6fa4ff;stroke:#6fa4ff;stroke-linejoin:miter;stroke-width:1.5;"/>
   </g>
   <g id="patch_22">
    <path clip-path="url(#p72676c98fe)" d="M 201.798684 47.992272 
C 202.973924 47.992272 204.101188 47.525345 204.932208 46.694324 
C 205.763228 45.863304 206.230156 44.73604 206.230156 43.5608 
C 206.230156 42.38556 205.763228 41.258296 204.932208 40.427276 
C 204.101188 39.596255 202.973924 39.129327 201.798684 39.129327 
C 200.623444 39.129327 199.49618 39.596255 198.665159 40.427276 
C 197.834139 41.258296 197.367211 42.38556 197.367211 43.5608 
C 197.367211 44.73604 197.834139 45.863304 198.665159 46.694324 
C 199.49618 47.525345 200.623444 47.992272 201.798684 47.992272 
z
" style="fill:#bb8bff;stroke:#bb8bff;stroke-linejoin:miter;stroke-width:1.5;"/>
   </g>
   <g id="patch_23">
    <path clip-path="url(#p72676c98fe)" d="M 187.027109 149.234375 
L 216.570259 149.234375 
L 216.570259 119.691225 
L 187.027109 119.691225 
z
" style="fill:#bb8bff;stroke:#bb8bff;stroke-linejoin:miter;stroke-width:1.5;"/>
   </g>
   <g id="patch_24">
    <path clip-path="url(#p72676c98fe)" d="M 247.249684 47.992272 
C 248.424924 47.992272 249.552188 47.525345 250.383208 46.694324 
C 251.214228 45.863304 251.681156 44.73604 251.681156 43.5608 
C 251.681156 42.38556 251.214228 41.258296 250.383208 40.427276 
C 249.552188 39.596255 248.424924 39.129327 247.249684 39.129327 
C 246.074444 39.129327 244.94718 39.596255 244.116159 40.427276 
C 243.285139 41.258296 242.818211 42.38556 242.818211 43.5608 
C 242.818211 44.73604 243.285139 45.863304 244.116159 46.694324 
C 244.94718 47.525345 246.074444 47.992272 247.249684 47.992272 
z
" style="fill:#6fa4ff;stroke:#6fa4ff;stroke-linejoin:miter;stroke-width:1.5;"/>
   </g>
   <g id="patch_25">
    <path clip-path="url(#p72676c98fe)" d="M 247.249684 99.351902 
C 249.991911 99.351902 252.622193 98.262404 254.56124 96.323357 
C 256.500288 94.384309 257.589786 91.754027 257.589786 89.0118 
C 257.589786 86.269573 256.500288 83.639291 254.56124 81.700243 
C 252.622193 79.761196 249.991911 78.671697 247.249684 78.671697 
C 244.507457 78.671697 241.877175 79.761196 239.938127 81.700243 
C 237.99908 83.639291 236.909581 86.269573 236.909581 89.0118 
C 236.909581 91.754027 237.99908 94.384309 239.938127 96.323357 
C 241.877175 98.262404 244.507457 99.351902 247.249684 99.351902 
z
" style="fill:#6fa4ff;stroke:#6fa4ff;stroke-linejoin:miter;stroke-width:2;"/>
   </g>
   <g id="patch_26">
    <path clip-path="url(#p72676c98fe)" d="M 292.700684 93.443272 
C 293.875924 93.443272 295.003188 92.976345 295.834208 92.145324 
C 296.665228 91.314304 297.132156 90.18704 297.132156 89.0118 
C 297.132156 87.83656 296.665228 86.709296 295.834208 85.878276 
C 295.003188 85.047255 293.875924 84.580327 292.700684 84.580327 
C 291.525444 84.580327 290.39818 85.047255 289.567159 85.878276 
C 288.736139 86.709296 288.269211 87.83656 288.269211 89.0118 
C 288.269211 90.18704 288.736139 91.314304 289.567159 92.145324 
C 290.39818 92.976345 291.525444 93.443272 292.700684 93.443272 
z
" style="fill:#bb8bff;stroke:#bb8bff;stroke-linejoin:miter;stroke-width:1.5;"/>
   </g>
   <g id="patch_27">
    <path clip-path="url(#p72676c98fe)" d="M 277.929109 149.234375 
L 307.472259 149.234375 
L 307.472259 119.691225 
L 277.929109 119.691225 
z
" style="fill:#bb8bff;stroke:#bb8bff;stroke-linejoin:miter;stroke-width:1.5;"/>
   </g>
   <g id="patch_28">
    <path clip-path="url(#p72676c98fe)" d="M 338.151684 47.992272 
C 339.326924 47.992272 340.454188 47.525345 341.285208 46.694324 
C 342.116228 45.863304 342.583156 44.73604 342.583156 43.5608 
C 342.583156 42.38556 342.116228 41.258296 341.285208 40.427276 
C 340.454188 39.596255 339.326924 39.129327 338.151684 39.129327 
C 336.976444 39.129327 335.84918 39.596255 335.018159 40.427276 
C 334.187139 41.258296 333.720211 42.38556 333.720211 43.5608 
C 333.720211 44.73604 334.187139 45.863304 335.018159 46.694324 
C 335.84918 47.525345 336.976444 47.992272 338.151684 47.992272 
z
" style="fill:#6fa4ff;stroke:#6fa4ff;stroke-linejoin:miter;stroke-width:1.5;"/>
   </g>
   <g id="patch_29">
    <path clip-path="url(#p72676c98fe)" d="M 338.151684 99.351902 
C 340.893911 99.351902 343.524193 98.262404 345.46324 96.323357 
C 347.402288 94.384309 348.491786 91.754027 348.491786 89.0118 
C 348.491786 86.269573 347.402288 83.639291 345.46324 81.700243 
C 343.524193 79.761196 340.893911 78.671697 338.151684 78.671697 
C 335.409457 78.671697 332.779175 79.761196 330.840127 81.700243 
C 328.90108 83.639291 327.811581 86.269573 327.811581 89.0118 
C 327.811581 91.754027 328.90108 94.384309 330.840127 96.323357 
C 332.779175 98.262404 335.409457 99.351902 338.151684 99.351902 
z
" style="fill:#6fa4ff;stroke:#6fa4ff;stroke-linejoin:miter;stroke-width:2;"/>
   </g>
   <g id="patch_30">
    <path clip-path="url(#p72676c98fe)" d="M 383.602684 93.443272 
C 384.777924 93.443272 385.905188 92.976345 386.736208 92.145324 
C 387.567228 91.314304 388.034156 90.18704 388.034156 89.0118 
C 388.034156 87.83656 387.567228 86.709296 386.736208 85.878276 
C 385.905188 85.047255 384.777924 84.580327 383.602684 84.580327 
C 382.427444 84.580327 381.30018 85.047255 380.469159 85.878276 
C 379.638139 86.709296 379.171211 87.83656 379.171211 89.0118 
C 379.171211 90.18704 379.638139 91.314304 380.469159 92.145324 
C 381.30018 92.976345 382.427444 93.443272 383.602684 93.443272 
z
" style="fill:#bb8bff;stroke:#bb8bff;stroke-linejoin:miter;stroke-width:1.5;"/>
   </g>
   <g id="patch_31">
    <path clip-path="url(#p72676c98fe)" d="M 368.831109 149.234375 
L 398.374259 149.234375 
L 398.374259 119.691225 
L 368.831109 119.691225 
z
" style="fill:#bb8bff;stroke:#bb8bff;stroke-linejoin:miter;stroke-width:1.5;"/>
   </g>
   <g id="patch_32">
    <path clip-path="url(#p72676c98fe)" d="M 459.733109 103.783375 
L 489.276259 103.783375 
L 489.276259 74.240225 
L 459.733109 74.240225 
z
" style="fill:#05bab6;stroke:#05bab6;stroke-linejoin:miter;stroke-width:1.5;"/>
   </g>
   <g id="patch_33">
    <path clip-path="url(#p72676c98fe)" d="M 519.955684 47.992272 
C 521.130924 47.992272 522.258188 47.525345 523.089208 46.694324 
C 523.920228 45.863304 524.387156 44.73604 524.387156 43.5608 
C 524.387156 42.38556 523.920228 41.258296 523.089208 40.427276 
C 522.258188 39.596255 521.130924 39.129327 519.955684 39.129327 
C 518.780444 39.129327 517.65318 39.596255 516.822159 40.427276 
C 515.991139 41.258296 515.524211 42.38556 515.524211 43.5608 
C 515.524211 44.73604 515.991139 45.863304 516.822159 46.694324 
C 517.65318 47.525345 518.780444 47.992272 519.955684 47.992272 
z
" style="fill:#bb8bff;stroke:#bb8bff;stroke-linejoin:miter;stroke-width:1.5;"/>
   </g>
   <g id="patch_34">
    <path clip-path="url(#p72676c98fe)" d="M 505.184109 149.234375 
L 534.727259 149.234375 
L 534.727259 119.691225 
L 505.184109 119.691225 
z
" style="fill:#bb8bff;stroke:#bb8bff;stroke-linejoin:miter;stroke-width:1.5;"/>
   </g>
   <g id="patch_35">
    <path clip-path="url(#p72676c98fe)" d="M 565.406684 47.992272 
C 566.581924 47.992272 567.709188 47.525345 568.540208 46.694324 
C 569.371228 45.863304 569.838156 44.73604 569.838156 43.5608 
C 569.838156 42.38556 569.371228 41.258296 568.540208 40.427276 
C 567.709188 39.596255 566.581924 39.129327 565.406684 39.129327 
C 564.231444 39.129327 563.10418 39.596255 562.273159 40.427276 
C 561.442139 41.258296 560.975211 42.38556 560.975211 43.5608 
C 560.975211 44.73604 561.442139 45.863304 562.273159 46.694324 
C 563.10418 47.525345 564.231444 47.992272 565.406684 47.992272 
z
" style="fill:#6fa4ff;stroke:#6fa4ff;stroke-linejoin:miter;stroke-width:1.5;"/>
   </g>
   <g id="patch_36">
    <path clip-path="url(#p72676c98fe)" d="M 565.406684 99.351902 
C 568.148911 99.351902 570.779193 98.262404 572.71824 96.323357 
C 574.657288 94.384309 575.746786 91.754027 575.746786 89.0118 
C 575.746786 86.269573 574.657288 83.639291 572.71824 81.700243 
C 570.779193 79.761196 568.148911 78.671697 565.406684 78.671697 
C 562.664457 78.671697 560.034175 79.761196 558.095127 81.700243 
C 556.15608 83.639291 555.066581 86.269573 555.066581 89.0118 
C 555.066581 91.754027 556.15608 94.384309 558.095127 96.323357 
C 560.034175 98.262404 562.664457 99.351902 565.406684 99.351902 
z
" style="fill:#6fa4ff;stroke:#6fa4ff;stroke-linejoin:miter;stroke-width:2;"/>
   </g>
   <g id="patch_37">
    <path clip-path="url(#p72676c98fe)" d="M 610.857684 93.443272 
C 612.032924 93.443272 613.160188 92.976345 613.991208 92.145324 
C 614.822228 91.314304 615.289156 90.18704 615.289156 89.0118 
C 615.289156 87.83656 614.822228 86.709296 613.991208 85.878276 
C 613.160188 85.047255 612.032924 84.580327 610.857684 84.580327 
C 609.682444 84.580327 608.55518 85.047255 607.724159 85.878276 
C 606.893139 86.709296 606.426211 87.83656 606.426211 89.0118 
C 606.426211 90.18704 606.893139 91.314304 607.724159 92.145324 
C 608.55518 92.976345 609.682444 93.443272 610.857684 93.443272 
z
" style="fill:#bb8bff;stroke:#bb8bff;stroke-linejoin:miter;stroke-width:1.5;"/>
   </g>
   <g id="patch_38">
    <path clip-path="url(#p72676c98fe)" d="M 596.086109 149.234375 
L 625.629259 149.234375 
L 625.629259 119.691225 
L 596.086109 119.691225 
z
" style="fill:#bb8bff;stroke:#bb8bff;stroke-linejoin:miter;stroke-width:1.5;"/>
   </g>
   <g id="patch_39">
    <path clip-path="url(#p72676c98fe)" d="M 656.308684 47.992272 
C 657.483924 47.992272 658.611188 47.525345 659.442208 46.694324 
C 660.273228 45.863304 660.740156 44.73604 660.740156 43.5608 
C 660.740156 42.38556 660.273228 41.258296 659.442208 40.427276 
C 658.611188 39.596255 657.483924 39.129327 656.308684 39.129327 
C 655.133444 39.129327 654.00618 39.596255 653.175159 40.427276 
C 652.344139 41.258296 651.877211 42.38556 651.877211 43.5608 
C 651.877211 44.73604 652.344139 45.863304 653.175159 46.694324 
C 654.00618 47.525345 655.133444 47.992272 656.308684 47.992272 
z
" style="fill:#6fa4ff;stroke:#6fa4ff;stroke-linejoin:miter;stroke-width:1.5;"/>
   </g>
   <g id="patch_40">
    <path clip-path="url(#p72676c98fe)" d="M 656.308684 99.351902 
C 659.050911 99.351902 661.681193 98.262404 663.62024 96.323357 
C 665.559288 94.384309 666.648786 91.754027 666.648786 89.0118 
C 666.648786 86.269573 665.559288 83.639291 663.62024 81.700243 
C 661.681193 79.761196 659.050911 78.671697 656.308684 78.671697 
C 653.566457 78.671697 650.936175 79.761196 648.997127 81.700243 
C 647.05808 83.639291 645.968581 86.269573 645.968581 89.0118 
C 645.968581 91.754027 647.05808 94.384309 648.997127 96.323357 
C 650.936175 98.262404 653.566457 99.351902 656.308684 99.351902 
z
" style="fill:#6fa4ff;stroke:#6fa4ff;stroke-linejoin:miter;stroke-width:2;"/>
   </g>
   <g id="patch_41">
    <path clip-path="url(#p72676c98fe)" d="M 701.759684 93.443272 
C 702.934924 93.443272 704.062188 92.976345 704.893208 92.145324 
C 705.724228 91.314304 706.191156 90.18704 706.191156 89.0118 
C 706.191156 87.83656 705.724228 86.709296 704.893208 85.878276 
C 704.062188 85.047255 702.934924 84.580327 701.759684 84.580327 
C 700.584444 84.580327 699.45718 85.047255 698.626159 85.878276 
C 697.795139 86.709296 697.328211 87.83656 697.328211 89.0118 
C 697.328211 90.18704 697.795139 91.314304 698.626159 92.145324 
C 699.45718 92.976345 700.584444 93.443272 701.759684 93.443272 
z
" style="fill:#bb8bff;stroke:#bb8bff;stroke-linejoin:miter;stroke-width:1.5;"/>
   </g>
   <g id="patch_42">
    <path clip-path="url(#p72676c98fe)" d="M 686.988109 149.234375 
L 716.531259 149.234375 
L 716.531259 119.691225 
L 686.988109 119.691225 
z
" style="fill:#bb8bff;stroke:#bb8bff;stroke-linejoin:miter;stroke-width:1.5;"/>
   </g>
   <g id="patch_43">
    <path clip-path="url(#p72676c98fe)" d="M 777.890109 103.783375 
L 807.433259 103.783375 
L 807.433259 74.240225 
L 777.890109 74.240225 
z
" style="fill:#05bab6;stroke:#05bab6;stroke-linejoin:miter;stroke-width:1.5;"/>
   </g>
   <g id="patch_44">
    <path clip-path="url(#p72676c98fe)" d="M 777.890109 58.332375 
L 807.433259 58.332375 
L 807.433259 28.789225 
L 777.890109 28.789225 
z
" style="fill:#05bab6;stroke:#05bab6;stroke-linejoin:miter;stroke-width:1.5;"/>
   </g>
   <g id="patch_45">
    <path clip-path="url(#p72676c98fe)" d="M 838.112684 47.992272 
C 839.287924 47.992272 840.415188 47.525345 841.246208 46.694324 
C 842.077228 45.863304 842.544156 44.73604 842.544156 43.5608 
C 842.544156 42.38556 842.077228 41.258296 841.246208 40.427276 
C 840.415188 39.596255 839.287924 39.129327 838.112684 39.129327 
C 836.937444 39.129327 835.81018 39.596255 834.979159 40.427276 
C 834.148139 41.258296 833.681211 42.38556 833.681211 43.5608 
C 833.681211 44.73604 834.148139 45.863304 834.979159 46.694324 
C 835.81018 47.525345 836.937444 47.992272 838.112684 47.992272 
z
" style="fill:#bb8bff;stroke:#bb8bff;stroke-linejoin:miter;stroke-width:1.5;"/>
   </g>
   <g id="patch_46">
    <path clip-path="url(#p72676c98fe)" d="M 823.341109 149.234375 
L 852.884259 149.234375 
L 852.884259 119.691225 
L 823.341109 119.691225 
z
" style="fill:#bb8bff;stroke:#bb8bff;stroke-linejoin:miter;stroke-width:1.5;"/>
   </g>
   <g id="patch_47">
    <path clip-path="url(#p72676c98fe)" d="M 883.563684 47.992272 
C 884.738924 47.992272 885.866188 47.525345 886.697208 46.694324 
C 887.528228 45.863304 887.995156 44.73604 887.995156 43.5608 
C 887.995156 42.38556 887.528228 41.258296 886.697208 40.427276 
C 885.866188 39.596255 884.738924 39.129327 883.563684 39.129327 
C 882.388444 39.129327 881.26118 39.596255 880.430159 40.427276 
C 879.599139 41.258296 879.132211 42.38556 879.132211 43.5608 
C 879.132211 44.73604 879.599139 45.863304 880.430159 46.694324 
C 881.26118 47.525345 882.388444 47.992272 883.563684 47.992272 
z
" style="fill:#6fa4ff;stroke:#6fa4ff;stroke-linejoin:miter;stroke-width:1.5;"/>
   </g>
   <g id="patch_48">
    <path clip-path="url(#p72676c98fe)" d="M 883.563684 99.351902 
C 886.305911 99.351902 888.936193 98.262404 890.87524 96.323357 
C 892.814288 94.384309 893.903786 91.754027 893.903786 89.0118 
C 893.903786 86.269573 892.814288 83.639291 890.87524 81.700243 
C 888.936193 79.761196 886.305911 78.671697 883.563684 78.671697 
C 880.821457 78.671697 878.191175 79.761196 876.252127 81.700243 
C 874.31308 83.639291 873.223581 86.269573 873.223581 89.0118 
C 873.223581 91.754027 874.31308 94.384309 876.252127 96.323357 
C 878.191175 98.262404 880.821457 99.351902 883.563684 99.351902 
z
" style="fill:#6fa4ff;stroke:#6fa4ff;stroke-linejoin:miter;stroke-width:2;"/>
   </g>
   <g id="patch_49">
    <path clip-path="url(#p72676c98fe)" d="M 929.014684 93.443272 
C 930.189924 93.443272 931.317188 92.976345 932.148208 92.145324 
C 932.979228 91.314304 933.446156 90.18704 933.446156 89.0118 
C 933.446156 87.83656 932.979228 86.709296 932.148208 85.878276 
C 931.317188 85.047255 930.189924 84.580327 929.014684 84.580327 
C 927.839444 84.580327 926.71218 85.047255 925.881159 85.878276 
C 925.050139 86.709296 924.583211 87.83656 924.583211 89.0118 
C 924.583211 90.18704 925.050139 91.314304 925.881159 92.145324 
C 926.71218 92.976345 927.839444 93.443272 929.014684 93.443272 
z
" style="fill:#bb8bff;stroke:#bb8bff;stroke-linejoin:miter;stroke-width:1.5;"/>
   </g>
   <g id="patch_50">
    <path clip-path="url(#p72676c98fe)" d="M 914.243109 149.234375 
L 943.786259 149.234375 
L 943.786259 119.691225 
L 914.243109 119.691225 
z
" style="fill:#bb8bff;stroke:#bb8bff;stroke-linejoin:miter;stroke-width:1.5;"/>
   </g>
   <g id="patch_51">
    <path clip-path="url(#p72676c98fe)" d="M 974.465684 47.992272 
C 975.640924 47.992272 976.768188 47.525345 977.599208 46.694324 
C 978.430228 45.863304 978.897156 44.73604 978.897156 43.5608 
C 978.897156 42.38556 978.430228 41.258296 977.599208 40.427276 
C 976.768188 39.596255 975.640924 39.129327 974.465684 39.129327 
C 973.290444 39.129327 972.16318 39.596255 971.332159 40.427276 
C 970.501139 41.258296 970.034211 42.38556 970.034211 43.5608 
C 970.034211 44.73604 970.501139 45.863304 971.332159 46.694324 
C 972.16318 47.525345 973.290444 47.992272 974.465684 47.992272 
z
" style="fill:#6fa4ff;stroke:#6fa4ff;stroke-linejoin:miter;stroke-width:1.5;"/>
   </g>
   <g id="patch_52">
    <path clip-path="url(#p72676c98fe)" d="M 974.465684 99.351902 
C 977.207911 99.351902 979.838193 98.262404 981.77724 96.323357 
C 983.716288 94.384309 984.805786 91.754027 984.805786 89.0118 
C 984.805786 86.269573 983.716288 83.639291 981.77724 81.700243 
C 979.838193 79.761196 977.207911 78.671697 974.465684 78.671697 
C 971.723457 78.671697 969.093175 79.761196 967.154127 81.700243 
C 965.21508 83.639291 964.125581 86.269573 964.125581 89.0118 
C 964.125581 91.754027 965.21508 94.384309 967.154127 96.323357 
C 969.093175 98.262404 971.723457 99.351902 974.465684 99.351902 
z
" style="fill:#6fa4ff;stroke:#6fa4ff;stroke-linejoin:miter;stroke-width:2;"/>
   </g>
   <g id="patch_53">
    <path clip-path="url(#p72676c98fe)" d="M 1019.916684 93.443272 
C 1021.091924 93.443272 1022.219188 92.976345 1023.050208 92.145324 
C 1023.881228 91.314304 1024.348156 90.18704 1024.348156 89.0118 
C 1024.348156 87.83656 1023.881228 86.709296 1023.050208 85.878276 
C 1022.219188 85.047255 1021.091924 84.580327 1019.916684 84.580327 
C 1018.741444 84.580327 1017.61418 85.047255 1016.783159 85.878276 
C 1015.952139 86.709296 1015.485211 87.83656 1015.485211 89.0118 
C 1015.485211 90.18704 1015.952139 91.314304 1016.783159 92.145324 
C 1017.61418 92.976345 1018.741444 93.443272 1019.916684 93.443272 
z
" style="fill:#bb8bff;stroke:#bb8bff;stroke-linejoin:miter;stroke-width:1.5;"/>
   </g>
   <g id="patch_54">
    <path clip-path="url(#p72676c98fe)" d="M 1005.145109 149.234375 
L 1034.688259 149.234375 
L 1034.688259 119.691225 
L 1005.145109 119.691225 
z
" style="fill:#bb8bff;stroke:#bb8bff;stroke-linejoin:miter;stroke-width:1.5;"/>
   </g>
   <g id="patch_55">
    <path clip-path="url(#p72676c98fe)" d="M 1096.047109 103.783375 
L 1125.590259 103.783375 
L 1125.590259 74.240225 
L 1096.047109 74.240225 
z
" style="fill:#05bab6;stroke:#05bab6;stroke-linejoin:miter;stroke-width:1.5;"/>
   </g>
   <g id="patch_56">
    <path clip-path="url(#p72676c98fe)" d="M 1156.269684 47.992272 
C 1157.444924 47.992272 1158.572188 47.525345 1159.403208 46.694324 
C 1160.234228 45.863304 1160.701156 44.73604 1160.701156 43.5608 
C 1160.701156 42.38556 1160.234228 41.258296 1159.403208 40.427276 
C 1158.572188 39.596255 1157.444924 39.129327 1156.269684 39.129327 
C 1155.094444 39.129327 1153.96718 39.596255 1153.136159 40.427276 
C 1152.305139 41.258296 1151.838211 42.38556 1151.838211 43.5608 
C 1151.838211 44.73604 1152.305139 45.863304 1153.136159 46.694324 
C 1153.96718 47.525345 1155.094444 47.992272 1156.269684 47.992272 
z
" style="fill:#bb8bff;stroke:#bb8bff;stroke-linejoin:miter;stroke-width:1.5;"/>
   </g>
   <g id="patch_57">
    <path clip-path="url(#p72676c98fe)" d="M 1141.498109 149.234375 
L 1171.041259 149.234375 
L 1171.041259 119.691225 
L 1141.498109 119.691225 
z
" style="fill:#bb8bff;stroke:#bb8bff;stroke-linejoin:miter;stroke-width:1.5;"/>
   </g>
   <g id="patch_58">
    <path clip-path="url(#p72676c98fe)" d="M 1201.720684 47.992272 
C 1202.895924 47.992272 1204.023188 47.525345 1204.854208 46.694324 
C 1205.685228 45.863304 1206.152156 44.73604 1206.152156 43.5608 
C 1206.152156 42.38556 1205.685228 41.258296 1204.854208 40.427276 
C 1204.023188 39.596255 1202.895924 39.129327 1201.720684 39.129327 
C 1200.545444 39.129327 1199.41818 39.596255 1198.587159 40.427276 
C 1197.756139 41.258296 1197.289211 42.38556 1197.289211 43.5608 
C 1197.289211 44.73604 1197.756139 45.863304 1198.587159 46.694324 
C 1199.41818 47.525345 1200.545444 47.992272 1201.720684 47.992272 
z
" style="fill:#6fa4ff;stroke:#6fa4ff;stroke-linejoin:miter;stroke-width:1.5;"/>
   </g>
   <g id="patch_59">
    <path clip-path="url(#p72676c98fe)" d="M 1201.720684 99.351902 
C 1204.462911 99.351902 1207.093193 98.262404 1209.03224 96.323357 
C 1210.971288 94.384309 1212.060786 91.754027 1212.060786 89.0118 
C 1212.060786 86.269573 1210.971288 83.639291 1209.03224 81.700243 
C 1207.093193 79.761196 1204.462911 78.671697 1201.720684 78.671697 
C 1198.978457 78.671697 1196.348175 79.761196 1194.409127 81.700243 
C 1192.47008 83.639291 1191.380581 86.269573 1191.380581 89.0118 
C 1191.380581 91.754027 1192.47008 94.384309 1194.409127 96.323357 
C 1196.348175 98.262404 1198.978457 99.351902 1201.720684 99.351902 
z
" style="fill:#6fa4ff;stroke:#6fa4ff;stroke-linejoin:miter;stroke-width:2;"/>
   </g>
   <g id="patch_60">
    <path clip-path="url(#p72676c98fe)" d="M 110.896684 320.698272 
C 112.071924 320.698272 113.199188 320.231345 114.030208 319.400324 
C 114.861228 318.569304 115.328156 317.44204 115.328156 316.2668 
C 115.328156 315.09156 114.861228 313.964296 114.030208 313.133276 
C 113.199188 312.302255 112.071924 311.835328 110.896684 311.835328 
C 109.721444 311.835328 108.59418 312.302255 107.763159 313.133276 
C 106.932139 313.964296 106.465211 315.09156 106.465211 316.2668 
C 106.465211 317.44204 106.932139 318.569304 107.763159 319.400324 
C 108.59418 320.231345 109.721444 320.698272 110.896684 320.698272 
z
" style="fill:#bb8bff;stroke:#bb8bff;stroke-linejoin:miter;stroke-width:1.5;"/>
   </g>
   <g id="patch_61">
    <path clip-path="url(#p72676c98fe)" d="M 96.125109 376.489375 
L 125.668259 376.489375 
L 125.668259 346.946225 
L 96.125109 346.946225 
z
" style="fill:#bb8bff;stroke:#bb8bff;stroke-linejoin:miter;stroke-width:1.5;"/>
   </g>
   <g id="patch_62">
    <path clip-path="url(#p72676c98fe)" d="M 156.347684 275.247272 
C 157.522924 275.247272 158.650188 274.780345 159.481208 273.949324 
C 160.312228 273.118304 160.779156 271.99104 160.779156 270.8158 
C 160.779156 269.64056 160.312228 268.513296 159.481208 267.682276 
C 158.650188 266.851255 157.522924 266.384327 156.347684 266.384327 
C 155.172444 266.384327 154.04518 266.851255 153.214159 267.682276 
C 152.383139 268.513296 151.916211 269.64056 151.916211 270.8158 
C 151.916211 271.99104 152.383139 273.118304 153.214159 273.949324 
C 154.04518 274.780345 155.172444 275.247272 156.347684 275.247272 
z
" style="fill:#6fa4ff;stroke:#6fa4ff;stroke-linejoin:miter;stroke-width:1.5;"/>
   </g>
   <g id="patch_63">
    <path clip-path="url(#p72676c98fe)" d="M 156.347684 326.606902 
C 159.089911 326.606902 161.720193 325.517404 163.65924 323.578357 
C 165.598288 321.639309 166.687786 319.009027 166.687786 316.2668 
C 166.687786 313.524573 165.598288 310.894291 163.65924 308.955243 
C 161.720193 307.016196 159.089911 305.926697 156.347684 305.926697 
C 153.605457 305.926697 150.975175 307.016196 149.036127 308.955243 
C 147.09708 310.894291 146.007581 313.524573 146.007581 316.2668 
C 146.007581 319.009027 147.09708 321.639309 149.036127 323.578357 
C 150.975175 325.517404 153.605457 326.606902 156.347684 326.606902 
z
" style="fill:#6fa4ff;stroke:#6fa4ff;stroke-linejoin:miter;stroke-width:2;"/>
   </g>
   <g id="patch_64">
    <path clip-path="url(#p72676c98fe)" d="M 201.798684 320.698272 
C 202.973924 320.698272 204.101188 320.231345 204.932208 319.400324 
C 205.763228 318.569304 206.230156 317.44204 206.230156 316.2668 
C 206.230156 315.09156 205.763228 313.964296 204.932208 313.133276 
C 204.101188 312.302255 202.973924 311.835328 201.798684 311.835328 
C 200.623444 311.835328 199.49618 312.302255 198.665159 313.133276 
C 197.834139 313.964296 197.367211 315.09156 197.367211 316.2668 
C 197.367211 317.44204 197.834139 318.569304 198.665159 319.400324 
C 199.49618 320.231345 200.623444 320.698272 201.798684 320.698272 
z
" style="fill:#bb8bff;stroke:#bb8bff;stroke-linejoin:miter;stroke-width:1.5;"/>
   </g>
   <g id="patch_65">
    <path clip-path="url(#p72676c98fe)" d="M 187.027109 376.489375 
L 216.570259 376.489375 
L 216.570259 346.946225 
L 187.027109 346.946225 
z
" style="fill:#bb8bff;stroke:#bb8bff;stroke-linejoin:miter;stroke-width:1.5;"/>
   </g>
   <g id="patch_66">
    <path clip-path="url(#p72676c98fe)" d="M 277.929109 285.587375 
L 307.472259 285.587375 
L 307.472259 256.044225 
L 277.929109 256.044225 
z
" style="stroke:#000000;stroke-linejoin:miter;stroke-width:1.5;"/>
   </g>
   <g id="patch_67">
    <path clip-path="url(#p72676c98fe)" d="M 303.040786 275.247273 
C 303.040786 272.505959 301.950642 269.874118 300.01224 267.935716 
C 298.073839 265.997314 295.441998 264.90717 292.700684 264.90717 
C 289.95937 264.90717 287.327529 265.997314 285.389127 267.935716 
C 283.450725 269.874118 282.360581 272.505959 282.360581 275.247273 
" style="fill:none;stroke:#ffffff;stroke-linejoin:miter;stroke-width:2;"/>
   </g>
   <g id="patch_68">
    <path clip-path="url(#p72676c98fe)" d="M 323.380109 331.038375 
L 352.923259 331.038375 
L 352.923259 301.495225 
L 323.380109 301.495225 
z
" style="stroke:#000000;stroke-linejoin:miter;stroke-width:1.5;"/>
   </g>
   <g id="patch_69">
    <path clip-path="url(#p72676c98fe)" d="M 348.491786 320.698272 
C 348.491786 317.956959 347.401642 315.325118 345.46324 313.386716 
C 343.524839 311.448314 340.892998 310.35817 338.151684 310.35817 
C 335.41037 310.35817 332.778529 311.448314 330.840127 313.386716 
C 328.901725 315.325118 327.811581 317.956959 327.811581 320.698272 
" style="fill:none;stroke:#ffffff;stroke-linejoin:miter;stroke-width:2;"/>
   </g>
   <g id="patch_70">
    <path clip-path="url(#p72676c98fe)" d="M 368.831109 376.489375 
L 398.374259 376.489375 
L 398.374259 346.946225 
L 368.831109 346.946225 
z
" style="stroke:#000000;stroke-linejoin:miter;stroke-width:1.5;"/>
   </g>
   <g id="patch_71">
    <path clip-path="url(#p72676c98fe)" d="M 393.942786 366.149272 
C 393.942786 363.407959 392.852642 360.776118 390.91424 358.837716 
C 388.975839 356.899314 386.343998 355.80917 383.602684 355.80917 
C 380.86137 355.80917 378.229529 356.899314 376.291127 358.837716 
C 374.352725 360.776118 373.262581 363.407959 373.262581 366.149272 
" style="fill:none;stroke:#ffffff;stroke-linejoin:miter;stroke-width:2;"/>
   </g>
   <g id="line2d_41">
    <path clip-path="url(#p72676c98fe)" d="M 292.700684 275.247273 
L 303.040786 264.90717 
" style="fill:none;stroke:#ffffff;stroke-linecap:square;stroke-width:2;"/>
   </g>
   <g id="line2d_42">
    <path clip-path="url(#p72676c98fe)" d="M 338.151684 320.698272 
L 348.491786 310.35817 
" style="fill:none;stroke:#ffffff;stroke-linecap:square;stroke-width:2;"/>
   </g>
   <g id="line2d_43">
    <path clip-path="url(#p72676c98fe)" d="M 383.602684 366.149272 
L 393.942786 355.80917 
" style="fill:none;stroke:#ffffff;stroke-linecap:square;stroke-width:2;"/>
   </g>
   <g id="line2d_44">
    <path clip-path="url(#p72676c98fe)" d="M 156.347684 20.8353 
L 156.347684 66.2863 
" style="fill:none;stroke:#000000;stroke-dasharray:3.7,1.6;stroke-dashoffset:0;"/>
   </g>
   <g id="line2d_45">
    <path clip-path="url(#p72676c98fe)" d="M 156.347684 66.2863 
L 156.347684 111.7373 
" style="fill:none;stroke:#000000;stroke-dasharray:3.7,1.6;stroke-dashoffset:0;"/>
   </g>
   <g id="line2d_46">
    <path clip-path="url(#p72676c98fe)" d="M 156.347684 111.7373 
L 156.347684 157.1883 
" style="fill:none;stroke:#000000;stroke-dasharray:3.7,1.6;stroke-dashoffset:0;"/>
   </g>
   <g id="line2d_47">
    <path clip-path="url(#p72676c98fe)" d="M 247.249684 94.92043 
L 247.249684 83.10317 
" style="fill:none;stroke:#ffffff;stroke-linecap:square;stroke-width:2;"/>
   </g>
   <g id="line2d_48">
    <path clip-path="url(#p72676c98fe)" d="M 241.341054 89.0118 
L 253.158314 89.0118 
" style="fill:none;stroke:#ffffff;stroke-linecap:square;stroke-width:2;"/>
   </g>
   <g id="line2d_49">
    <path clip-path="url(#p72676c98fe)" d="M 338.151684 94.92043 
L 338.151684 83.10317 
" style="fill:none;stroke:#ffffff;stroke-linecap:square;stroke-width:2;"/>
   </g>
   <g id="line2d_50">
    <path clip-path="url(#p72676c98fe)" d="M 332.243054 89.0118 
L 344.060314 89.0118 
" style="fill:none;stroke:#ffffff;stroke-linecap:square;stroke-width:2;"/>
   </g>
   <g id="line2d_51">
    <path clip-path="url(#p72676c98fe)" d="M 429.053684 20.8353 
L 429.053684 66.2863 
" style="fill:none;stroke:#000000;stroke-dasharray:3.7,1.6;stroke-dashoffset:0;"/>
   </g>
   <g id="line2d_52">
    <path clip-path="url(#p72676c98fe)" d="M 429.053684 66.2863 
L 429.053684 111.7373 
" style="fill:none;stroke:#000000;stroke-dasharray:3.7,1.6;stroke-dashoffset:0;"/>
   </g>
   <g id="line2d_53">
    <path clip-path="url(#p72676c98fe)" d="M 429.053684 111.7373 
L 429.053684 157.1883 
" style="fill:none;stroke:#000000;stroke-dasharray:3.7,1.6;stroke-dashoffset:0;"/>
   </g>
   <g id="line2d_54">
    <path clip-path="url(#p72676c98fe)" d="M 565.406684 94.92043 
L 565.406684 83.10317 
" style="fill:none;stroke:#ffffff;stroke-linecap:square;stroke-width:2;"/>
   </g>
   <g id="line2d_55">
    <path clip-path="url(#p72676c98fe)" d="M 559.498054 89.0118 
L 571.315314 89.0118 
" style="fill:none;stroke:#ffffff;stroke-linecap:square;stroke-width:2;"/>
   </g>
   <g id="line2d_56">
    <path clip-path="url(#p72676c98fe)" d="M 656.308684 94.92043 
L 656.308684 83.10317 
" style="fill:none;stroke:#ffffff;stroke-linecap:square;stroke-width:2;"/>
   </g>
   <g id="line2d_57">
    <path clip-path="url(#p72676c98fe)" d="M 650.400054 89.0118 
L 662.217314 89.0118 
" style="fill:none;stroke:#ffffff;stroke-linecap:square;stroke-width:2;"/>
   </g>
   <g id="line2d_58">
    <path clip-path="url(#p72676c98fe)" d="M 747.210684 20.8353 
L 747.210684 66.2863 
" style="fill:none;stroke:#000000;stroke-dasharray:3.7,1.6;stroke-dashoffset:0;"/>
   </g>
   <g id="line2d_59">
    <path clip-path="url(#p72676c98fe)" d="M 747.210684 66.2863 
L 747.210684 111.7373 
" style="fill:none;stroke:#000000;stroke-dasharray:3.7,1.6;stroke-dashoffset:0;"/>
   </g>
   <g id="line2d_60">
    <path clip-path="url(#p72676c98fe)" d="M 747.210684 111.7373 
L 747.210684 157.1883 
" style="fill:none;stroke:#000000;stroke-dasharray:3.7,1.6;stroke-dashoffset:0;"/>
   </g>
   <g id="line2d_61">
    <path clip-path="url(#p72676c98fe)" d="M 883.563684 94.92043 
L 883.563684 83.10317 
" style="fill:none;stroke:#ffffff;stroke-linecap:square;stroke-width:2;"/>
   </g>
   <g id="line2d_62">
    <path clip-path="url(#p72676c98fe)" d="M 877.655054 89.0118 
L 889.472314 89.0118 
" style="fill:none;stroke:#ffffff;stroke-linecap:square;stroke-width:2;"/>
   </g>
   <g id="line2d_63">
    <path clip-path="url(#p72676c98fe)" d="M 974.465684 94.92043 
L 974.465684 83.10317 
" style="fill:none;stroke:#ffffff;stroke-linecap:square;stroke-width:2;"/>
   </g>
   <g id="line2d_64">
    <path clip-path="url(#p72676c98fe)" d="M 968.557054 89.0118 
L 980.374314 89.0118 
" style="fill:none;stroke:#ffffff;stroke-linecap:square;stroke-width:2;"/>
   </g>
   <g id="line2d_65">
    <path clip-path="url(#p72676c98fe)" d="M 1065.367684 20.8353 
L 1065.367684 66.2863 
" style="fill:none;stroke:#000000;stroke-dasharray:3.7,1.6;stroke-dashoffset:0;"/>
   </g>
   <g id="line2d_66">
    <path clip-path="url(#p72676c98fe)" d="M 1065.367684 66.2863 
L 1065.367684 111.7373 
" style="fill:none;stroke:#000000;stroke-dasharray:3.7,1.6;stroke-dashoffset:0;"/>
   </g>
   <g id="line2d_67">
    <path clip-path="url(#p72676c98fe)" d="M 1065.367684 111.7373 
L 1065.367684 157.1883 
" style="fill:none;stroke:#000000;stroke-dasharray:3.7,1.6;stroke-dashoffset:0;"/>
   </g>
   <g id="line2d_68">
    <path clip-path="url(#p72676c98fe)" d="M 1201.720684 94.92043 
L 1201.720684 83.10317 
" style="fill:none;stroke:#ffffff;stroke-linecap:square;stroke-width:2;"/>
   </g>
   <g id="line2d_69">
    <path clip-path="url(#p72676c98fe)" d="M 1195.812054 89.0118 
L 1207.629314 89.0118 
" style="fill:none;stroke:#ffffff;stroke-linecap:square;stroke-width:2;"/>
   </g>
   <g id="line2d_70">
    <path clip-path="url(#p72676c98fe)" d="M 156.347684 322.17543 
L 156.347684 310.35817 
" style="fill:none;stroke:#ffffff;stroke-linecap:square;stroke-width:2;"/>
   </g>
   <g id="line2d_71">
    <path clip-path="url(#p72676c98fe)" d="M 150.439054 316.2668 
L 162.256314 316.2668 
" style="fill:none;stroke:#ffffff;stroke-linecap:square;stroke-width:2;"/>
   </g>
   <g id="line2d_72">
    <path clip-path="url(#p72676c98fe)" d="M 247.249684 248.0903 
L 247.249684 293.5413 
" style="fill:none;stroke:#000000;stroke-dasharray:3.7,1.6;stroke-dashoffset:0;"/>
   </g>
   <g id="line2d_73">
    <path clip-path="url(#p72676c98fe)" d="M 247.249684 293.5413 
L 247.249684 338.9923 
" style="fill:none;stroke:#000000;stroke-dasharray:3.7,1.6;stroke-dashoffset:0;"/>
   </g>
   <g id="line2d_74">
    <path clip-path="url(#p72676c98fe)" d="M 247.249684 338.9923 
L 247.249684 384.4433 
" style="fill:none;stroke:#000000;stroke-dasharray:3.7,1.6;stroke-dashoffset:0;"/>
   </g>
   <g id="text_1">
    <g clip-path="url(#p72676c98fe)">
     <!-- H -->
     <defs>
      <path d="M 9.8125 72.90625 
L 19.671875 72.90625 
L 19.671875 43.015625 
L 55.515625 43.015625 
L 55.515625 72.90625 
L 65.375 72.90625 
L 65.375 0 
L 55.515625 0 
L 55.515625 34.71875 
L 19.671875 34.71875 
L 19.671875 0 
L 9.8125 0 
z
" id="DejaVuSans-72"/>
     </defs>
     <g transform="translate(106.008481 47.147987)scale(0.13 -0.13)">
      <use xlink:href="#DejaVuSans-72"/>
     </g>
    </g>
   </g>
   <g id="text_2">
    <g clip-path="url(#p72676c98fe)">
     <!-- H -->
     <g transform="translate(106.008481 92.598988)scale(0.13 -0.13)">
      <use xlink:href="#DejaVuSans-72"/>
     </g>
    </g>
   </g>
   <g id="text_3">
    <g clip-path="url(#p72676c98fe)">
     <!-- $\mathrm{R}_\mathrm{Y}$ -->
     <defs>
      <path d="M 44.390625 34.1875 
Q 47.5625 33.109375 50.5625 29.59375 
Q 53.5625 26.078125 56.59375 19.921875 
L 66.609375 0 
L 56 0 
L 46.6875 18.703125 
Q 43.0625 26.03125 39.671875 28.421875 
Q 36.28125 30.8125 30.421875 30.8125 
L 19.671875 30.8125 
L 19.671875 0 
L 9.8125 0 
L 9.8125 72.90625 
L 32.078125 72.90625 
Q 44.578125 72.90625 50.734375 67.671875 
Q 56.890625 62.453125 56.890625 51.90625 
Q 56.890625 45.015625 53.6875 40.46875 
Q 50.484375 35.9375 44.390625 34.1875 
z
M 19.671875 64.796875 
L 19.671875 38.921875 
L 32.078125 38.921875 
Q 39.203125 38.921875 42.84375 42.21875 
Q 46.484375 45.515625 46.484375 51.90625 
Q 46.484375 58.296875 42.84375 61.546875 
Q 39.203125 64.796875 32.078125 64.796875 
z
" id="DejaVuSans-82"/>
      <path d="M -0.203125 72.90625 
L 10.40625 72.90625 
L 30.609375 42.921875 
L 50.6875 72.90625 
L 61.28125 72.90625 
L 35.5 34.71875 
L 35.5 0 
L 25.59375 0 
L 25.59375 34.71875 
z
" id="DejaVuSans-89"/>
     </defs>
     <g transform="translate(194.258684 133.618515)scale(0.13 -0.13)">
      <use transform="translate(0 0.09375)" xlink:href="#DejaVuSans-82"/>
      <use transform="translate(70.439453 -16.3125)scale(0.7)" xlink:href="#DejaVuSans-89"/>
     </g>
    </g>
   </g>
   <g id="text_4">
    <g clip-path="url(#p72676c98fe)">
     <!-- $\pi$/4 -->
     <defs>
      <path d="M 9.125 54.6875 
L 61.53125 54.6875 
L 59.765625 45.703125 
L 52.875 45.703125 
L 46.34375 12.109375 
Q 45.65625 8.59375 46.578125 7.03125 
Q 47.46875 5.515625 50.140625 5.515625 
Q 50.875 5.515625 51.953125 5.671875 
Q 53.078125 5.765625 53.421875 5.8125 
L 52.15625 -0.6875 
Q 50.34375 -1.3125 48.484375 -1.609375 
Q 46.578125 -1.90625 44.78125 -1.90625 
Q 38.921875 -1.90625 37.3125 1.265625 
Q 35.6875 4.5 37.359375 13.09375 
L 43.703125 45.703125 
L 23.53125 45.703125 
L 14.65625 0 
L 5.46875 0 
L 14.359375 45.703125 
L 7.375 45.703125 
z
" id="DejaVuSans-Oblique-960"/>
      <path d="M 25.390625 72.90625 
L 33.6875 72.90625 
L 8.296875 -9.28125 
L 0 -9.28125 
z
" id="DejaVuSans-47"/>
      <path d="M 37.796875 64.3125 
L 12.890625 25.390625 
L 37.796875 25.390625 
z
M 35.203125 72.90625 
L 47.609375 72.90625 
L 47.609375 25.390625 
L 58.015625 25.390625 
L 58.015625 17.1875 
L 47.609375 17.1875 
L 47.609375 0 
L 37.796875 0 
L 37.796875 17.1875 
L 4.890625 17.1875 
L 4.890625 26.703125 
z
" id="DejaVuSans-52"/>
     </defs>
     <g transform="translate(195.478684 145.533245)scale(0.08 -0.08)">
      <use transform="translate(0 0.09375)" xlink:href="#DejaVuSans-Oblique-960"/>
      <use transform="translate(60.205078 0.09375)" xlink:href="#DejaVuSans-47"/>
      <use transform="translate(93.896484 0.09375)" xlink:href="#DejaVuSans-52"/>
     </g>
    </g>
   </g>
   <g id="text_5">
    <g clip-path="url(#p72676c98fe)">
     <!-- $\mathrm{R}_\mathrm{Y}$ -->
     <g transform="translate(285.160684 133.618515)scale(0.13 -0.13)">
      <use transform="translate(0 0.09375)" xlink:href="#DejaVuSans-82"/>
      <use transform="translate(70.439453 -16.3125)scale(0.7)" xlink:href="#DejaVuSans-89"/>
     </g>
    </g>
   </g>
   <g id="text_6">
    <g clip-path="url(#p72676c98fe)">
     <!-- $-$$\pi$/4 -->
     <defs>
      <path d="M 10.59375 35.5 
L 73.1875 35.5 
L 73.1875 27.203125 
L 10.59375 27.203125 
z
" id="DejaVuSans-8722"/>
     </defs>
     <g transform="translate(283.020684 145.533245)scale(0.08 -0.08)">
      <use transform="translate(0 0.09375)" xlink:href="#DejaVuSans-8722"/>
      <use transform="translate(83.789062 0.09375)" xlink:href="#DejaVuSans-Oblique-960"/>
      <use transform="translate(143.994141 0.09375)" xlink:href="#DejaVuSans-47"/>
      <use transform="translate(177.685547 0.09375)" xlink:href="#DejaVuSans-52"/>
     </g>
    </g>
   </g>
   <g id="text_7">
    <g clip-path="url(#p72676c98fe)">
     <!-- $\mathrm{R}_\mathrm{Y}$ -->
     <g transform="translate(376.062684 133.618515)scale(0.13 -0.13)">
      <use transform="translate(0 0.09375)" xlink:href="#DejaVuSans-82"/>
      <use transform="translate(70.439453 -16.3125)scale(0.7)" xlink:href="#DejaVuSans-89"/>
     </g>
    </g>
   </g>
   <g id="text_8">
    <g clip-path="url(#p72676c98fe)">
     <!-- $\pi$/4 -->
     <g transform="translate(377.282684 145.533245)scale(0.08 -0.08)">
      <use transform="translate(0 0.09375)" xlink:href="#DejaVuSans-Oblique-960"/>
      <use transform="translate(60.205078 0.09375)" xlink:href="#DejaVuSans-47"/>
      <use transform="translate(93.896484 0.09375)" xlink:href="#DejaVuSans-52"/>
     </g>
    </g>
   </g>
   <g id="text_9">
    <g clip-path="url(#p72676c98fe)">
     <!-- X -->
     <defs>
      <path d="M 6.296875 72.90625 
L 16.890625 72.90625 
L 35.015625 45.796875 
L 53.21875 72.90625 
L 63.8125 72.90625 
L 40.375 37.890625 
L 65.375 0 
L 54.78125 0 
L 34.28125 31 
L 13.625 0 
L 2.984375 0 
L 29 38.921875 
z
" id="DejaVuSans-88"/>
     </defs>
     <g transform="translate(470.052184 92.598988)scale(0.13 -0.13)">
      <use xlink:href="#DejaVuSans-88"/>
     </g>
    </g>
   </g>
   <g id="text_10">
    <g clip-path="url(#p72676c98fe)">
     <!-- $\mathrm{R}_\mathrm{Y}$ -->
     <g transform="translate(512.415684 133.618515)scale(0.13 -0.13)">
      <use transform="translate(0 0.09375)" xlink:href="#DejaVuSans-82"/>
      <use transform="translate(70.439453 -16.3125)scale(0.7)" xlink:href="#DejaVuSans-89"/>
     </g>
    </g>
   </g>
   <g id="text_11">
    <g clip-path="url(#p72676c98fe)">
     <!-- $\pi$/4 -->
     <g transform="translate(513.635684 145.533245)scale(0.08 -0.08)">
      <use transform="translate(0 0.09375)" xlink:href="#DejaVuSans-Oblique-960"/>
      <use transform="translate(60.205078 0.09375)" xlink:href="#DejaVuSans-47"/>
      <use transform="translate(93.896484 0.09375)" xlink:href="#DejaVuSans-52"/>
     </g>
    </g>
   </g>
   <g id="text_12">
    <g clip-path="url(#p72676c98fe)">
     <!-- $\mathrm{R}_\mathrm{Y}$ -->
     <g transform="translate(603.317684 133.618515)scale(0.13 -0.13)">
      <use transform="translate(0 0.09375)" xlink:href="#DejaVuSans-82"/>
      <use transform="translate(70.439453 -16.3125)scale(0.7)" xlink:href="#DejaVuSans-89"/>
     </g>
    </g>
   </g>
   <g id="text_13">
    <g clip-path="url(#p72676c98fe)">
     <!-- $-$$\pi$/4 -->
     <g transform="translate(601.177684 145.533245)scale(0.08 -0.08)">
      <use transform="translate(0 0.09375)" xlink:href="#DejaVuSans-8722"/>
      <use transform="translate(83.789062 0.09375)" xlink:href="#DejaVuSans-Oblique-960"/>
      <use transform="translate(143.994141 0.09375)" xlink:href="#DejaVuSans-47"/>
      <use transform="translate(177.685547 0.09375)" xlink:href="#DejaVuSans-52"/>
     </g>
    </g>
   </g>
   <g id="text_14">
    <g clip-path="url(#p72676c98fe)">
     <!-- $\mathrm{R}_\mathrm{Y}$ -->
     <g transform="translate(694.219684 133.618515)scale(0.13 -0.13)">
      <use transform="translate(0 0.09375)" xlink:href="#DejaVuSans-82"/>
      <use transform="translate(70.439453 -16.3125)scale(0.7)" xlink:href="#DejaVuSans-89"/>
     </g>
    </g>
   </g>
   <g id="text_15">
    <g clip-path="url(#p72676c98fe)">
     <!-- $\pi$/4 -->
     <g transform="translate(695.439684 145.533245)scale(0.08 -0.08)">
      <use transform="translate(0 0.09375)" xlink:href="#DejaVuSans-Oblique-960"/>
      <use transform="translate(60.205078 0.09375)" xlink:href="#DejaVuSans-47"/>
      <use transform="translate(93.896484 0.09375)" xlink:href="#DejaVuSans-52"/>
     </g>
    </g>
   </g>
   <g id="text_16">
    <g clip-path="url(#p72676c98fe)">
     <!-- X -->
     <g transform="translate(788.209184 92.598988)scale(0.13 -0.13)">
      <use xlink:href="#DejaVuSans-88"/>
     </g>
    </g>
   </g>
   <g id="text_17">
    <g clip-path="url(#p72676c98fe)">
     <!-- X -->
     <g transform="translate(788.209184 47.147987)scale(0.13 -0.13)">
      <use xlink:href="#DejaVuSans-88"/>
     </g>
    </g>
   </g>
   <g id="text_18">
    <g clip-path="url(#p72676c98fe)">
     <!-- $\mathrm{R}_\mathrm{Y}$ -->
     <g transform="translate(830.572684 133.618515)scale(0.13 -0.13)">
      <use transform="translate(0 0.09375)" xlink:href="#DejaVuSans-82"/>
      <use transform="translate(70.439453 -16.3125)scale(0.7)" xlink:href="#DejaVuSans-89"/>
     </g>
    </g>
   </g>
   <g id="text_19">
    <g clip-path="url(#p72676c98fe)">
     <!-- $\pi$/4 -->
     <g transform="translate(831.792684 145.533245)scale(0.08 -0.08)">
      <use transform="translate(0 0.09375)" xlink:href="#DejaVuSans-Oblique-960"/>
      <use transform="translate(60.205078 0.09375)" xlink:href="#DejaVuSans-47"/>
      <use transform="translate(93.896484 0.09375)" xlink:href="#DejaVuSans-52"/>
     </g>
    </g>
   </g>
   <g id="text_20">
    <g clip-path="url(#p72676c98fe)">
     <!-- $\mathrm{R}_\mathrm{Y}$ -->
     <g transform="translate(921.474684 133.618515)scale(0.13 -0.13)">
      <use transform="translate(0 0.09375)" xlink:href="#DejaVuSans-82"/>
      <use transform="translate(70.439453 -16.3125)scale(0.7)" xlink:href="#DejaVuSans-89"/>
     </g>
    </g>
   </g>
   <g id="text_21">
    <g clip-path="url(#p72676c98fe)">
     <!-- $-$$\pi$/4 -->
     <g transform="translate(919.334684 145.533245)scale(0.08 -0.08)">
      <use transform="translate(0 0.09375)" xlink:href="#DejaVuSans-8722"/>
      <use transform="translate(83.789062 0.09375)" xlink:href="#DejaVuSans-Oblique-960"/>
      <use transform="translate(143.994141 0.09375)" xlink:href="#DejaVuSans-47"/>
      <use transform="translate(177.685547 0.09375)" xlink:href="#DejaVuSans-52"/>
     </g>
    </g>
   </g>
   <g id="text_22">
    <g clip-path="url(#p72676c98fe)">
     <!-- $\mathrm{R}_\mathrm{Y}$ -->
     <g transform="translate(1012.376684 133.618515)scale(0.13 -0.13)">
      <use transform="translate(0 0.09375)" xlink:href="#DejaVuSans-82"/>
      <use transform="translate(70.439453 -16.3125)scale(0.7)" xlink:href="#DejaVuSans-89"/>
     </g>
    </g>
   </g>
   <g id="text_23">
    <g clip-path="url(#p72676c98fe)">
     <!-- $\pi$/4 -->
     <g transform="translate(1013.596684 145.533245)scale(0.08 -0.08)">
      <use transform="translate(0 0.09375)" xlink:href="#DejaVuSans-Oblique-960"/>
      <use transform="translate(60.205078 0.09375)" xlink:href="#DejaVuSans-47"/>
      <use transform="translate(93.896484 0.09375)" xlink:href="#DejaVuSans-52"/>
     </g>
    </g>
   </g>
   <g id="text_24">
    <g clip-path="url(#p72676c98fe)">
     <!-- X -->
     <g transform="translate(1106.366184 92.598988)scale(0.13 -0.13)">
      <use xlink:href="#DejaVuSans-88"/>
     </g>
    </g>
   </g>
   <g id="text_25">
    <g clip-path="url(#p72676c98fe)">
     <!-- $\mathrm{R}_\mathrm{Y}$ -->
     <g transform="translate(1148.729684 133.618515)scale(0.13 -0.13)">
      <use transform="translate(0 0.09375)" xlink:href="#DejaVuSans-82"/>
      <use transform="translate(70.439453 -16.3125)scale(0.7)" xlink:href="#DejaVuSans-89"/>
     </g>
    </g>
   </g>
   <g id="text_26">
    <g clip-path="url(#p72676c98fe)">
     <!-- $\pi$/4 -->
     <g transform="translate(1149.949684 145.533245)scale(0.08 -0.08)">
      <use transform="translate(0 0.09375)" xlink:href="#DejaVuSans-Oblique-960"/>
      <use transform="translate(60.205078 0.09375)" xlink:href="#DejaVuSans-47"/>
      <use transform="translate(93.896484 0.09375)" xlink:href="#DejaVuSans-52"/>
     </g>
    </g>
   </g>
   <g id="text_27">
    <g clip-path="url(#p72676c98fe)">
     <!-- $\mathrm{R}_\mathrm{Y}$ -->
     <g transform="translate(103.356684 360.873515)scale(0.13 -0.13)">
      <use transform="translate(0 0.09375)" xlink:href="#DejaVuSans-82"/>
      <use transform="translate(70.439453 -16.3125)scale(0.7)" xlink:href="#DejaVuSans-89"/>
     </g>
    </g>
   </g>
   <g id="text_28">
    <g clip-path="url(#p72676c98fe)">
     <!-- $-$$\pi$/4 -->
     <g transform="translate(101.216684 372.788245)scale(0.08 -0.08)">
      <use transform="translate(0 0.09375)" xlink:href="#DejaVuSans-8722"/>
      <use transform="translate(83.789062 0.09375)" xlink:href="#DejaVuSans-Oblique-960"/>
      <use transform="translate(143.994141 0.09375)" xlink:href="#DejaVuSans-47"/>
      <use transform="translate(177.685547 0.09375)" xlink:href="#DejaVuSans-52"/>
     </g>
    </g>
   </g>
   <g id="text_29">
    <g clip-path="url(#p72676c98fe)">
     <!-- $\mathrm{R}_\mathrm{Y}$ -->
     <g transform="translate(194.258684 360.873515)scale(0.13 -0.13)">
      <use transform="translate(0 0.09375)" xlink:href="#DejaVuSans-82"/>
      <use transform="translate(70.439453 -16.3125)scale(0.7)" xlink:href="#DejaVuSans-89"/>
     </g>
    </g>
   </g>
   <g id="text_30">
    <g clip-path="url(#p72676c98fe)">
     <!-- $\pi$/4 -->
     <g transform="translate(195.478684 372.788245)scale(0.08 -0.08)">
      <use transform="translate(0 0.09375)" xlink:href="#DejaVuSans-Oblique-960"/>
      <use transform="translate(60.205078 0.09375)" xlink:href="#DejaVuSans-47"/>
      <use transform="translate(93.896484 0.09375)" xlink:href="#DejaVuSans-52"/>
     </g>
    </g>
   </g>
   <g id="text_31">
    <g clip-path="url(#p72676c98fe)">
     <!-- 0 -->
     <defs>
      <path d="M 31.78125 66.40625 
Q 24.171875 66.40625 20.328125 58.90625 
Q 16.5 51.421875 16.5 36.375 
Q 16.5 21.390625 20.328125 13.890625 
Q 24.171875 6.390625 31.78125 6.390625 
Q 39.453125 6.390625 43.28125 13.890625 
Q 47.125 21.390625 47.125 36.375 
Q 47.125 51.421875 43.28125 58.90625 
Q 39.453125 66.40625 31.78125 66.40625 
z
M 31.78125 74.21875 
Q 44.046875 74.21875 50.515625 64.515625 
Q 56.984375 54.828125 56.984375 36.375 
Q 56.984375 17.96875 50.515625 8.265625 
Q 44.046875 -1.421875 31.78125 -1.421875 
Q 19.53125 -1.421875 13.0625 8.265625 
Q 6.59375 17.96875 6.59375 36.375 
Q 6.59375 54.828125 13.0625 64.515625 
Q 19.53125 74.21875 31.78125 74.21875 
z
" id="DejaVuSans-48"/>
     </defs>
     <g transform="translate(304.063434 400.460825)scale(0.104 -0.104)">
      <use xlink:href="#DejaVuSans-48"/>
     </g>
    </g>
   </g>
   <g id="text_32">
    <g clip-path="url(#p72676c98fe)">
     <!-- 1 -->
     <defs>
      <path d="M 12.40625 8.296875 
L 28.515625 8.296875 
L 28.515625 63.921875 
L 10.984375 60.40625 
L 10.984375 69.390625 
L 28.421875 72.90625 
L 38.28125 72.90625 
L 38.28125 8.296875 
L 54.390625 8.296875 
L 54.390625 0 
L 12.40625 0 
z
" id="DejaVuSans-49"/>
     </defs>
     <g transform="translate(349.514434 400.460825)scale(0.104 -0.104)">
      <use xlink:href="#DejaVuSans-49"/>
     </g>
    </g>
   </g>
   <g id="text_33">
    <g clip-path="url(#p72676c98fe)">
     <!-- 2 -->
     <defs>
      <path d="M 19.1875 8.296875 
L 53.609375 8.296875 
L 53.609375 0 
L 7.328125 0 
L 7.328125 8.296875 
Q 12.9375 14.109375 22.625 23.890625 
Q 32.328125 33.6875 34.8125 36.53125 
Q 39.546875 41.84375 41.421875 45.53125 
Q 43.3125 49.21875 43.3125 52.78125 
Q 43.3125 58.59375 39.234375 62.25 
Q 35.15625 65.921875 28.609375 65.921875 
Q 23.96875 65.921875 18.8125 64.3125 
Q 13.671875 62.703125 7.8125 59.421875 
L 7.8125 69.390625 
Q 13.765625 71.78125 18.9375 73 
Q 24.125 74.21875 28.421875 74.21875 
Q 39.75 74.21875 46.484375 68.546875 
Q 53.21875 62.890625 53.21875 53.421875 
Q 53.21875 48.921875 51.53125 44.890625 
Q 49.859375 40.875 45.40625 35.40625 
Q 44.1875 33.984375 37.640625 27.21875 
Q 31.109375 20.453125 19.1875 8.296875 
z
" id="DejaVuSans-50"/>
     </defs>
     <g transform="translate(394.965434 400.460825)scale(0.104 -0.104)">
      <use xlink:href="#DejaVuSans-50"/>
     </g>
    </g>
   </g>
   <g id="text_34">
    <g clip-path="url(#p72676c98fe)">
     <!-- ${q}_{0}$ -->
     <defs>
      <path d="M 41.703125 8.203125 
Q 38.09375 3.46875 33.171875 1.015625 
Q 28.265625 -1.421875 22.3125 -1.421875 
Q 14.015625 -1.421875 9.296875 4.171875 
Q 4.59375 9.765625 4.59375 19.578125 
Q 4.59375 27.484375 7.5 34.859375 
Q 10.40625 42.234375 15.828125 48.09375 
Q 19.34375 51.90625 23.90625 53.953125 
Q 28.46875 56 33.5 56 
Q 39.546875 56 43.453125 53.609375 
Q 47.359375 51.21875 49.125 46.390625 
L 50.6875 54.59375 
L 59.71875 54.59375 
L 45.125 -20.609375 
L 36.078125 -20.609375 
z
M 13.921875 20.90625 
Q 13.921875 13.671875 16.9375 9.890625 
Q 19.96875 6.109375 25.6875 6.109375 
Q 34.1875 6.109375 40.1875 14.234375 
Q 46.1875 22.359375 46.1875 33.984375 
Q 46.1875 41.015625 43.078125 44.75 
Q 39.984375 48.484375 34.1875 48.484375 
Q 29.9375 48.484375 26.3125 46.5 
Q 22.703125 44.53125 20.015625 40.71875 
Q 17.1875 36.71875 15.546875 31.34375 
Q 13.921875 25.984375 13.921875 20.90625 
z
" id="DejaVuSans-Oblique-113"/>
     </defs>
     <g transform="translate(59.225444 48.011777)scale(0.1625 -0.1625)">
      <use xlink:href="#DejaVuSans-Oblique-113"/>
      <use transform="translate(63.476562 -16.40625)scale(0.7)" xlink:href="#DejaVuSans-48"/>
     </g>
    </g>
   </g>
   <g id="text_35">
    <g clip-path="url(#p72676c98fe)">
     <!-- ${q}_{1}$ -->
     <g transform="translate(59.225444 93.462777)scale(0.1625 -0.1625)">
      <use xlink:href="#DejaVuSans-Oblique-113"/>
      <use transform="translate(63.476562 -16.40625)scale(0.7)" xlink:href="#DejaVuSans-49"/>
     </g>
    </g>
   </g>
   <g id="text_36">
    <g clip-path="url(#p72676c98fe)">
     <!-- ${q}_{2}$ -->
     <g transform="translate(59.225444 138.913777)scale(0.1625 -0.1625)">
      <use xlink:href="#DejaVuSans-Oblique-113"/>
      <use transform="translate(63.476562 -16.40625)scale(0.7)" xlink:href="#DejaVuSans-50"/>
     </g>
    </g>
   </g>
   <g id="text_37">
    <g clip-path="url(#p72676c98fe)">
     <!-- 3 -->
     <defs>
      <path d="M 40.578125 39.3125 
Q 47.65625 37.796875 51.625 33 
Q 55.609375 28.21875 55.609375 21.1875 
Q 55.609375 10.40625 48.1875 4.484375 
Q 40.765625 -1.421875 27.09375 -1.421875 
Q 22.515625 -1.421875 17.65625 -0.515625 
Q 12.796875 0.390625 7.625 2.203125 
L 7.625 11.71875 
Q 11.71875 9.328125 16.59375 8.109375 
Q 21.484375 6.890625 26.8125 6.890625 
Q 36.078125 6.890625 40.9375 10.546875 
Q 45.796875 14.203125 45.796875 21.1875 
Q 45.796875 27.640625 41.28125 31.265625 
Q 36.765625 34.90625 28.71875 34.90625 
L 20.21875 34.90625 
L 20.21875 43.015625 
L 29.109375 43.015625 
Q 36.375 43.015625 40.234375 45.921875 
Q 44.09375 48.828125 44.09375 54.296875 
Q 44.09375 59.90625 40.109375 62.90625 
Q 36.140625 65.921875 28.71875 65.921875 
Q 24.65625 65.921875 20.015625 65.03125 
Q 15.375 64.15625 9.8125 62.3125 
L 9.8125 71.09375 
Q 15.4375 72.65625 20.34375 73.4375 
Q 25.25 74.21875 29.59375 74.21875 
Q 40.828125 74.21875 47.359375 69.109375 
Q 53.90625 64.015625 53.90625 55.328125 
Q 53.90625 49.265625 50.4375 45.09375 
Q 46.96875 40.921875 40.578125 39.3125 
z
" id="DejaVuSans-51"/>
     </defs>
     <g transform="translate(90.898244 173.205825)scale(0.104 -0.104)">
      <use xlink:href="#DejaVuSans-51"/>
     </g>
    </g>
   </g>
   <g id="text_38">
    <g clip-path="url(#p72676c98fe)">
     <!-- meas -->
     <defs>
      <path d="M 52 44.1875 
Q 55.375 50.25 60.0625 53.125 
Q 64.75 56 71.09375 56 
Q 79.640625 56 84.28125 50.015625 
Q 88.921875 44.046875 88.921875 33.015625 
L 88.921875 0 
L 79.890625 0 
L 79.890625 32.71875 
Q 79.890625 40.578125 77.09375 44.375 
Q 74.3125 48.1875 68.609375 48.1875 
Q 61.625 48.1875 57.5625 43.546875 
Q 53.515625 38.921875 53.515625 30.90625 
L 53.515625 0 
L 44.484375 0 
L 44.484375 32.71875 
Q 44.484375 40.625 41.703125 44.40625 
Q 38.921875 48.1875 33.109375 48.1875 
Q 26.21875 48.1875 22.15625 43.53125 
Q 18.109375 38.875 18.109375 30.90625 
L 18.109375 0 
L 9.078125 0 
L 9.078125 54.6875 
L 18.109375 54.6875 
L 18.109375 46.1875 
Q 21.1875 51.21875 25.484375 53.609375 
Q 29.78125 56 35.6875 56 
Q 41.65625 56 45.828125 52.96875 
Q 50 49.953125 52 44.1875 
z
" id="DejaVuSans-109"/>
      <path d="M 56.203125 29.59375 
L 56.203125 25.203125 
L 14.890625 25.203125 
Q 15.484375 15.921875 20.484375 11.0625 
Q 25.484375 6.203125 34.421875 6.203125 
Q 39.59375 6.203125 44.453125 7.46875 
Q 49.3125 8.734375 54.109375 11.28125 
L 54.109375 2.78125 
Q 49.265625 0.734375 44.1875 -0.34375 
Q 39.109375 -1.421875 33.890625 -1.421875 
Q 20.796875 -1.421875 13.15625 6.1875 
Q 5.515625 13.8125 5.515625 26.8125 
Q 5.515625 40.234375 12.765625 48.109375 
Q 20.015625 56 32.328125 56 
Q 43.359375 56 49.78125 48.890625 
Q 56.203125 41.796875 56.203125 29.59375 
z
M 47.21875 32.234375 
Q 47.125 39.59375 43.09375 43.984375 
Q 39.0625 48.390625 32.421875 48.390625 
Q 24.90625 48.390625 20.390625 44.140625 
Q 15.875 39.890625 15.1875 32.171875 
z
" id="DejaVuSans-101"/>
      <path d="M 34.28125 27.484375 
Q 23.390625 27.484375 19.1875 25 
Q 14.984375 22.515625 14.984375 16.5 
Q 14.984375 11.71875 18.140625 8.90625 
Q 21.296875 6.109375 26.703125 6.109375 
Q 34.1875 6.109375 38.703125 11.40625 
Q 43.21875 16.703125 43.21875 25.484375 
L 43.21875 27.484375 
z
M 52.203125 31.203125 
L 52.203125 0 
L 43.21875 0 
L 43.21875 8.296875 
Q 40.140625 3.328125 35.546875 0.953125 
Q 30.953125 -1.421875 24.3125 -1.421875 
Q 15.921875 -1.421875 10.953125 3.296875 
Q 6 8.015625 6 15.921875 
Q 6 25.140625 12.171875 29.828125 
Q 18.359375 34.515625 30.609375 34.515625 
L 43.21875 34.515625 
L 43.21875 35.40625 
Q 43.21875 41.609375 39.140625 45 
Q 35.0625 48.390625 27.6875 48.390625 
Q 23 48.390625 18.546875 47.265625 
Q 14.109375 46.140625 10.015625 43.890625 
L 10.015625 52.203125 
Q 14.9375 54.109375 19.578125 55.046875 
Q 24.21875 56 28.609375 56 
Q 40.484375 56 46.34375 49.84375 
Q 52.203125 43.703125 52.203125 31.203125 
z
" id="DejaVuSans-97"/>
      <path d="M 44.28125 53.078125 
L 44.28125 44.578125 
Q 40.484375 46.53125 36.375 47.5 
Q 32.28125 48.484375 27.875 48.484375 
Q 21.1875 48.484375 17.84375 46.4375 
Q 14.5 44.390625 14.5 40.28125 
Q 14.5 37.15625 16.890625 35.375 
Q 19.28125 33.59375 26.515625 31.984375 
L 29.59375 31.296875 
Q 39.15625 29.25 43.1875 25.515625 
Q 47.21875 21.78125 47.21875 15.09375 
Q 47.21875 7.46875 41.1875 3.015625 
Q 35.15625 -1.421875 24.609375 -1.421875 
Q 20.21875 -1.421875 15.453125 -0.5625 
Q 10.6875 0.296875 5.421875 2 
L 5.421875 11.28125 
Q 10.40625 8.6875 15.234375 7.390625 
Q 20.0625 6.109375 24.8125 6.109375 
Q 31.15625 6.109375 34.5625 8.28125 
Q 37.984375 10.453125 37.984375 14.40625 
Q 37.984375 18.0625 35.515625 20.015625 
Q 33.0625 21.96875 24.703125 23.78125 
L 21.578125 24.515625 
Q 13.234375 26.265625 9.515625 29.90625 
Q 5.8125 33.546875 5.8125 39.890625 
Q 5.8125 47.609375 11.28125 51.796875 
Q 16.75 56 26.8125 56 
Q 31.78125 56 36.171875 55.265625 
Q 40.578125 54.546875 44.28125 53.078125 
z
" id="DejaVuSans-115"/>
     </defs>
     <g transform="translate(33.012163 184.397784)scale(0.1625 -0.1625)">
      <use xlink:href="#DejaVuSans-109"/>
      <use x="97.412109" xlink:href="#DejaVuSans-101"/>
      <use x="158.935547" xlink:href="#DejaVuSans-97"/>
      <use x="220.214844" xlink:href="#DejaVuSans-115"/>
     </g>
    </g>
   </g>
   <g id="text_39">
    <g clip-path="url(#p72676c98fe)">
     <!-- ${q}_{0}$ -->
     <g transform="translate(59.225444 275.266777)scale(0.1625 -0.1625)">
      <use xlink:href="#DejaVuSans-Oblique-113"/>
      <use transform="translate(63.476562 -16.40625)scale(0.7)" xlink:href="#DejaVuSans-48"/>
     </g>
    </g>
   </g>
   <g id="text_40">
    <g clip-path="url(#p72676c98fe)">
     <!-- ${q}_{1}$ -->
     <g transform="translate(59.225444 320.717777)scale(0.1625 -0.1625)">
      <use xlink:href="#DejaVuSans-Oblique-113"/>
      <use transform="translate(63.476562 -16.40625)scale(0.7)" xlink:href="#DejaVuSans-49"/>
     </g>
    </g>
   </g>
   <g id="text_41">
    <g clip-path="url(#p72676c98fe)">
     <!-- ${q}_{2}$ -->
     <g transform="translate(59.225444 366.168777)scale(0.1625 -0.1625)">
      <use xlink:href="#DejaVuSans-Oblique-113"/>
      <use transform="translate(63.476562 -16.40625)scale(0.7)" xlink:href="#DejaVuSans-50"/>
     </g>
    </g>
   </g>
   <g id="text_42">
    <g clip-path="url(#p72676c98fe)">
     <!-- 3 -->
     <g transform="translate(90.898244 400.460825)scale(0.104 -0.104)">
      <use xlink:href="#DejaVuSans-51"/>
     </g>
    </g>
   </g>
   <g id="text_43">
    <g clip-path="url(#p72676c98fe)">
     <!-- meas -->
     <g transform="translate(33.012163 411.652784)scale(0.1625 -0.1625)">
      <use xlink:href="#DejaVuSans-109"/>
      <use x="97.412109" xlink:href="#DejaVuSans-101"/>
      <use x="158.935547" xlink:href="#DejaVuSans-97"/>
      <use x="220.214844" xlink:href="#DejaVuSans-115"/>
     </g>
    </g>
   </g>
  </g>
 </g>
 <defs>
  <clipPath id="p72676c98fe">
   <rect height="427.2394" width="1224.518344" x="7.2" y="7.2"/>
  </clipPath>
 </defs>
</svg>
