<?xml version="1.0" encoding="utf-8" standalone="no"?>
<!DOCTYPE svg PUBLIC "-//W3C//DTD SVG 1.1//EN"
  "http://www.w3.org/Graphics/SVG/1.1/DTD/svg11.dtd">
<!-- Created with matplotlib (https://matplotlib.org/) -->
<svg height="532.5414pt" version="1.1" viewBox="0 0 319.733909 532.5414" width="319.733909pt" xmlns="http://www.w3.org/2000/svg" xmlns:xlink="http://www.w3.org/1999/xlink">
 <defs>
  <style type="text/css">
*{stroke-linecap:butt;stroke-linejoin:round;}
  </style>
 </defs>
 <g id="figure_1">
  <g id="patch_1">
   <path d="M 0 532.5414 
L 319.733909 532.5414 
L 319.733909 0 
L 0 0 
z
" style="fill:#ffffff;"/>
  </g>
  <g id="axes_1">
   <g id="line2d_1">
    <path clip-path="url(#p6d16c1f622)" d="M 121.639709 43.5608 
L 307.988809 43.5608 
" style="fill:none;stroke:#000000;stroke-linecap:square;stroke-width:2;"/>
   </g>
   <g id="line2d_2">
    <path clip-path="url(#p6d16c1f622)" d="M 121.639709 89.0118 
L 307.988809 89.0118 
" style="fill:none;stroke:#000000;stroke-linecap:square;stroke-width:2;"/>
   </g>
   <g id="line2d_3">
    <path clip-path="url(#p6d16c1f622)" d="M 121.639709 134.4628 
L 307.988809 134.4628 
" style="fill:none;stroke:#000000;stroke-linecap:square;stroke-width:2;"/>
   </g>
   <g id="line2d_4">
    <path clip-path="url(#p6d16c1f622)" d="M 121.639709 179.9138 
L 307.988809 179.9138 
" style="fill:none;stroke:#000000;stroke-linecap:square;stroke-width:2;"/>
   </g>
   <g id="line2d_5">
    <path clip-path="url(#p6d16c1f622)" d="M 121.639709 225.3648 
L 307.988809 225.3648 
" style="fill:none;stroke:#000000;stroke-linecap:square;stroke-width:2;"/>
   </g>
   <g id="line2d_6">
    <path clip-path="url(#p6d16c1f622)" d="M 121.639709 270.8158 
L 307.988809 270.8158 
" style="fill:none;stroke:#000000;stroke-linecap:square;stroke-width:2;"/>
   </g>
   <g id="line2d_7">
    <path clip-path="url(#p6d16c1f622)" d="M 121.639709 316.2668 
L 307.988809 316.2668 
" style="fill:none;stroke:#000000;stroke-linecap:square;stroke-width:2;"/>
   </g>
   <g id="line2d_8">
    <path clip-path="url(#p6d16c1f622)" d="M 121.639709 361.7178 
L 307.988809 361.7178 
" style="fill:none;stroke:#000000;stroke-linecap:square;stroke-width:2;"/>
   </g>
   <g id="line2d_9">
    <path clip-path="url(#p6d16c1f622)" d="M 121.639709 407.1688 
L 307.988809 407.1688 
" style="fill:none;stroke:#000000;stroke-linecap:square;stroke-width:2;"/>
   </g>
   <g id="line2d_10">
    <path clip-path="url(#p6d16c1f622)" d="M 121.639709 452.6198 
L 307.988809 452.6198 
" style="fill:none;stroke:#000000;stroke-linecap:square;stroke-width:2;"/>
   </g>
   <g id="line2d_11">
    <path clip-path="url(#p6d16c1f622)" d="M 121.639709 496.593642 
L 307.988809 496.593642 
" style="fill:none;stroke:#778899;stroke-linecap:square;stroke-width:2;"/>
   </g>
   <g id="line2d_12">
    <path clip-path="url(#p6d16c1f622)" d="M 121.639709 499.547957 
L 307.988809 499.547957 
" style="fill:none;stroke:#778899;stroke-linecap:square;stroke-width:2;"/>
   </g>
   <g id="patch_2">
    <path clip-path="url(#p6d16c1f622)" d="M 182.771304 66.2863 
L 200.497194 66.2863 
L 200.497194 20.8353 
L 182.771304 20.8353 
z
" style="fill:#bdbdbd;opacity:0.6;"/>
   </g>
   <g id="patch_3">
    <path clip-path="url(#p6d16c1f622)" d="M 182.771304 111.7373 
L 200.497194 111.7373 
L 200.497194 66.2863 
L 182.771304 66.2863 
z
" style="fill:#bdbdbd;opacity:0.6;"/>
   </g>
   <g id="patch_4">
    <path clip-path="url(#p6d16c1f622)" d="M 182.771304 157.1883 
L 200.497194 157.1883 
L 200.497194 111.7373 
L 182.771304 111.7373 
z
" style="fill:#bdbdbd;opacity:0.6;"/>
   </g>
   <g id="patch_5">
    <path clip-path="url(#p6d16c1f622)" d="M 182.771304 202.6393 
L 200.497194 202.6393 
L 200.497194 157.1883 
L 182.771304 157.1883 
z
" style="fill:#bdbdbd;opacity:0.6;"/>
   </g>
   <g id="patch_6">
    <path clip-path="url(#p6d16c1f622)" d="M 182.771304 248.0903 
L 200.497194 248.0903 
L 200.497194 202.6393 
L 182.771304 202.6393 
z
" style="fill:#bdbdbd;opacity:0.6;"/>
   </g>
   <g id="patch_7">
    <path clip-path="url(#p6d16c1f622)" d="M 182.771304 293.5413 
L 200.497194 293.5413 
L 200.497194 248.0903 
L 182.771304 248.0903 
z
" style="fill:#bdbdbd;opacity:0.6;"/>
   </g>
   <g id="patch_8">
    <path clip-path="url(#p6d16c1f622)" d="M 182.771304 338.9923 
L 200.497194 338.9923 
L 200.497194 293.5413 
L 182.771304 293.5413 
z
" style="fill:#bdbdbd;opacity:0.6;"/>
   </g>
   <g id="patch_9">
    <path clip-path="url(#p6d16c1f622)" d="M 182.771304 384.4433 
L 200.497194 384.4433 
L 200.497194 338.9923 
L 182.771304 338.9923 
z
" style="fill:#bdbdbd;opacity:0.6;"/>
   </g>
   <g id="patch_10">
    <path clip-path="url(#p6d16c1f622)" d="M 182.771304 429.8943 
L 200.497194 429.8943 
L 200.497194 384.4433 
L 182.771304 384.4433 
z
" style="fill:#bdbdbd;opacity:0.6;"/>
   </g>
   <g id="patch_11">
    <path clip-path="url(#p6d16c1f622)" d="M 182.771304 475.3453 
L 200.497194 475.3453 
L 200.497194 429.8943 
L 182.771304 429.8943 
z
" style="fill:#bdbdbd;opacity:0.6;"/>
   </g>
   <g id="patch_12">
    <path clip-path="url(#p6d16c1f622)" d="M 273.673304 66.2863 
L 291.399194 66.2863 
L 291.399194 20.8353 
L 273.673304 20.8353 
z
" style="fill:#bdbdbd;opacity:0.6;"/>
   </g>
   <g id="patch_13">
    <path clip-path="url(#p6d16c1f622)" d="M 273.673304 111.7373 
L 291.399194 111.7373 
L 291.399194 66.2863 
L 273.673304 66.2863 
z
" style="fill:#bdbdbd;opacity:0.6;"/>
   </g>
   <g id="patch_14">
    <path clip-path="url(#p6d16c1f622)" d="M 273.673304 157.1883 
L 291.399194 157.1883 
L 291.399194 111.7373 
L 273.673304 111.7373 
z
" style="fill:#bdbdbd;opacity:0.6;"/>
   </g>
   <g id="patch_15">
    <path clip-path="url(#p6d16c1f622)" d="M 273.673304 202.6393 
L 291.399194 202.6393 
L 291.399194 157.1883 
L 273.673304 157.1883 
z
" style="fill:#bdbdbd;opacity:0.6;"/>
   </g>
   <g id="patch_16">
    <path clip-path="url(#p6d16c1f622)" d="M 273.673304 248.0903 
L 291.399194 248.0903 
L 291.399194 202.6393 
L 273.673304 202.6393 
z
" style="fill:#bdbdbd;opacity:0.6;"/>
   </g>
   <g id="patch_17">
    <path clip-path="url(#p6d16c1f622)" d="M 273.673304 293.5413 
L 291.399194 293.5413 
L 291.399194 248.0903 
L 273.673304 248.0903 
z
" style="fill:#bdbdbd;opacity:0.6;"/>
   </g>
   <g id="patch_18">
    <path clip-path="url(#p6d16c1f622)" d="M 273.673304 338.9923 
L 291.399194 338.9923 
L 291.399194 293.5413 
L 273.673304 293.5413 
z
" style="fill:#bdbdbd;opacity:0.6;"/>
   </g>
   <g id="patch_19">
    <path clip-path="url(#p6d16c1f622)" d="M 273.673304 384.4433 
L 291.399194 384.4433 
L 291.399194 338.9923 
L 273.673304 338.9923 
z
" style="fill:#bdbdbd;opacity:0.6;"/>
   </g>
   <g id="patch_20">
    <path clip-path="url(#p6d16c1f622)" d="M 273.673304 429.8943 
L 291.399194 429.8943 
L 291.399194 384.4433 
L 273.673304 384.4433 
z
" style="fill:#bdbdbd;opacity:0.6;"/>
   </g>
   <g id="patch_21">
    <path clip-path="url(#p6d16c1f622)" d="M 273.673304 475.3453 
L 291.399194 475.3453 
L 291.399194 429.8943 
L 273.673304 429.8943 
z
" style="fill:#bdbdbd;opacity:0.6;"/>
   </g>
   <g id="line2d_13">
    <path clip-path="url(#p6d16c1f622)" d="M 130.729909 502.6159 
L 135.275009 493.5257 
" style="fill:none;stroke:#778899;stroke-linecap:square;stroke-width:1.5;"/>
   </g>
   <g id="patch_22">
    <path clip-path="url(#p6d16c1f622)" d="M 131.411674 58.332375 
L 160.954824 58.332375 
L 160.954824 28.789225 
L 131.411674 28.789225 
z
" style="fill:#05bab6;stroke:#05bab6;stroke-linejoin:miter;stroke-width:1.5;"/>
   </g>
   <g id="patch_23">
    <path clip-path="url(#p6d16c1f622)" d="M 131.411674 103.783375 
L 160.954824 103.783375 
L 160.954824 74.240225 
L 131.411674 74.240225 
z
" style="fill:#05bab6;stroke:#05bab6;stroke-linejoin:miter;stroke-width:1.5;"/>
   </g>
   <g id="patch_24">
    <path clip-path="url(#p6d16c1f622)" d="M 131.411674 149.234375 
L 160.954824 149.234375 
L 160.954824 119.691225 
L 131.411674 119.691225 
z
" style="fill:#05bab6;stroke:#05bab6;stroke-linejoin:miter;stroke-width:1.5;"/>
   </g>
   <g id="patch_25">
    <path clip-path="url(#p6d16c1f622)" d="M 131.411674 194.685375 
L 160.954824 194.685375 
L 160.954824 165.142225 
L 131.411674 165.142225 
z
" style="fill:#05bab6;stroke:#05bab6;stroke-linejoin:miter;stroke-width:1.5;"/>
   </g>
   <g id="patch_26">
    <path clip-path="url(#p6d16c1f622)" d="M 131.411674 240.136375 
L 160.954824 240.136375 
L 160.954824 210.593225 
L 131.411674 210.593225 
z
" style="fill:#05bab6;stroke:#05bab6;stroke-linejoin:miter;stroke-width:1.5;"/>
   </g>
   <g id="patch_27">
    <path clip-path="url(#p6d16c1f622)" d="M 131.411674 285.587375 
L 160.954824 285.587375 
L 160.954824 256.044225 
L 131.411674 256.044225 
z
" style="fill:#05bab6;stroke:#05bab6;stroke-linejoin:miter;stroke-width:1.5;"/>
   </g>
   <g id="patch_28">
    <path clip-path="url(#p6d16c1f622)" d="M 131.411674 331.038375 
L 160.954824 331.038375 
L 160.954824 301.495225 
L 131.411674 301.495225 
z
" style="fill:#05bab6;stroke:#05bab6;stroke-linejoin:miter;stroke-width:1.5;"/>
   </g>
   <g id="patch_29">
    <path clip-path="url(#p6d16c1f622)" d="M 131.411674 376.489375 
L 160.954824 376.489375 
L 160.954824 346.946225 
L 131.411674 346.946225 
z
" style="fill:#05bab6;stroke:#05bab6;stroke-linejoin:miter;stroke-width:1.5;"/>
   </g>
   <g id="patch_30">
    <path clip-path="url(#p6d16c1f622)" d="M 131.411674 421.940375 
L 160.954824 421.940375 
L 160.954824 392.397225 
L 131.411674 392.397225 
z
" style="fill:#6fa4ff;stroke:#6fa4ff;stroke-linejoin:miter;stroke-width:1.5;"/>
   </g>
   <g id="patch_31">
    <path clip-path="url(#p6d16c1f622)" d="M 131.411674 467.391375 
L 160.954824 467.391375 
L 160.954824 437.848225 
L 131.411674 437.848225 
z
" style="fill:#6fa4ff;stroke:#6fa4ff;stroke-linejoin:miter;stroke-width:1.5;"/>
   </g>
   <g id="patch_32">
    <path clip-path="url(#p6d16c1f622)" d="M 222.313674 58.332375 
L 251.856824 58.332375 
L 251.856824 28.789225 
L 222.313674 28.789225 
z
" style="fill:#05bab6;stroke:#05bab6;stroke-linejoin:miter;stroke-width:1.5;"/>
   </g>
   <g id="patch_33">
    <path clip-path="url(#p6d16c1f622)" d="M 222.313674 103.783375 
L 251.856824 103.783375 
L 251.856824 74.240225 
L 222.313674 74.240225 
z
" style="fill:#05bab6;stroke:#05bab6;stroke-linejoin:miter;stroke-width:1.5;"/>
   </g>
   <g id="patch_34">
    <path clip-path="url(#p6d16c1f622)" d="M 222.313674 149.234375 
L 251.856824 149.234375 
L 251.856824 119.691225 
L 222.313674 119.691225 
z
" style="fill:#05bab6;stroke:#05bab6;stroke-linejoin:miter;stroke-width:1.5;"/>
   </g>
   <g id="patch_35">
    <path clip-path="url(#p6d16c1f622)" d="M 222.313674 194.685375 
L 251.856824 194.685375 
L 251.856824 165.142225 
L 222.313674 165.142225 
z
" style="fill:#05bab6;stroke:#05bab6;stroke-linejoin:miter;stroke-width:1.5;"/>
   </g>
   <g id="patch_36">
    <path clip-path="url(#p6d16c1f622)" d="M 222.313674 240.136375 
L 251.856824 240.136375 
L 251.856824 210.593225 
L 222.313674 210.593225 
z
" style="fill:#05bab6;stroke:#05bab6;stroke-linejoin:miter;stroke-width:1.5;"/>
   </g>
   <g id="patch_37">
    <path clip-path="url(#p6d16c1f622)" d="M 222.313674 285.587375 
L 251.856824 285.587375 
L 251.856824 256.044225 
L 222.313674 256.044225 
z
" style="fill:#05bab6;stroke:#05bab6;stroke-linejoin:miter;stroke-width:1.5;"/>
   </g>
   <g id="patch_38">
    <path clip-path="url(#p6d16c1f622)" d="M 222.313674 331.038375 
L 251.856824 331.038375 
L 251.856824 301.495225 
L 222.313674 301.495225 
z
" style="fill:#05bab6;stroke:#05bab6;stroke-linejoin:miter;stroke-width:1.5;"/>
   </g>
   <g id="patch_39">
    <path clip-path="url(#p6d16c1f622)" d="M 222.313674 376.489375 
L 251.856824 376.489375 
L 251.856824 346.946225 
L 222.313674 346.946225 
z
" style="fill:#05bab6;stroke:#05bab6;stroke-linejoin:miter;stroke-width:1.5;"/>
   </g>
   <g id="patch_40">
    <path clip-path="url(#p6d16c1f622)" d="M 222.313674 421.940375 
L 251.856824 421.940375 
L 251.856824 392.397225 
L 222.313674 392.397225 
z
" style="fill:#05bab6;stroke:#05bab6;stroke-linejoin:miter;stroke-width:1.5;"/>
   </g>
   <g id="patch_41">
    <path clip-path="url(#p6d16c1f622)" d="M 222.313674 467.391375 
L 251.856824 467.391375 
L 251.856824 437.848225 
L 222.313674 437.848225 
z
" style="fill:#05bab6;stroke:#05bab6;stroke-linejoin:miter;stroke-width:1.5;"/>
   </g>
   <g id="line2d_14">
    <path clip-path="url(#p6d16c1f622)" d="M 191.634249 20.8353 
L 191.634249 66.2863 
" style="fill:none;stroke:#000000;stroke-dasharray:3.7,1.6;stroke-dashoffset:0;"/>
   </g>
   <g id="line2d_15">
    <path clip-path="url(#p6d16c1f622)" d="M 191.634249 66.2863 
L 191.634249 111.7373 
" style="fill:none;stroke:#000000;stroke-dasharray:3.7,1.6;stroke-dashoffset:0;"/>
   </g>
   <g id="line2d_16">
    <path clip-path="url(#p6d16c1f622)" d="M 191.634249 111.7373 
L 191.634249 157.1883 
" style="fill:none;stroke:#000000;stroke-dasharray:3.7,1.6;stroke-dashoffset:0;"/>
   </g>
   <g id="line2d_17">
    <path clip-path="url(#p6d16c1f622)" d="M 191.634249 157.1883 
L 191.634249 202.6393 
" style="fill:none;stroke:#000000;stroke-dasharray:3.7,1.6;stroke-dashoffset:0;"/>
   </g>
   <g id="line2d_18">
    <path clip-path="url(#p6d16c1f622)" d="M 191.634249 202.6393 
L 191.634249 248.0903 
" style="fill:none;stroke:#000000;stroke-dasharray:3.7,1.6;stroke-dashoffset:0;"/>
   </g>
   <g id="line2d_19">
    <path clip-path="url(#p6d16c1f622)" d="M 191.634249 248.0903 
L 191.634249 293.5413 
" style="fill:none;stroke:#000000;stroke-dasharray:3.7,1.6;stroke-dashoffset:0;"/>
   </g>
   <g id="line2d_20">
    <path clip-path="url(#p6d16c1f622)" d="M 191.634249 293.5413 
L 191.634249 338.9923 
" style="fill:none;stroke:#000000;stroke-dasharray:3.7,1.6;stroke-dashoffset:0;"/>
   </g>
   <g id="line2d_21">
    <path clip-path="url(#p6d16c1f622)" d="M 191.634249 338.9923 
L 191.634249 384.4433 
" style="fill:none;stroke:#000000;stroke-dasharray:3.7,1.6;stroke-dashoffset:0;"/>
   </g>
   <g id="line2d_22">
    <path clip-path="url(#p6d16c1f622)" d="M 191.634249 384.4433 
L 191.634249 429.8943 
" style="fill:none;stroke:#000000;stroke-dasharray:3.7,1.6;stroke-dashoffset:0;"/>
   </g>
   <g id="line2d_23">
    <path clip-path="url(#p6d16c1f622)" d="M 191.634249 429.8943 
L 191.634249 475.3453 
" style="fill:none;stroke:#000000;stroke-dasharray:3.7,1.6;stroke-dashoffset:0;"/>
   </g>
   <g id="line2d_24">
    <path clip-path="url(#p6d16c1f622)" d="M 282.536249 20.8353 
L 282.536249 66.2863 
" style="fill:none;stroke:#000000;stroke-dasharray:3.7,1.6;stroke-dashoffset:0;"/>
   </g>
   <g id="line2d_25">
    <path clip-path="url(#p6d16c1f622)" d="M 282.536249 66.2863 
L 282.536249 111.7373 
" style="fill:none;stroke:#000000;stroke-dasharray:3.7,1.6;stroke-dashoffset:0;"/>
   </g>
   <g id="line2d_26">
    <path clip-path="url(#p6d16c1f622)" d="M 282.536249 111.7373 
L 282.536249 157.1883 
" style="fill:none;stroke:#000000;stroke-dasharray:3.7,1.6;stroke-dashoffset:0;"/>
   </g>
   <g id="line2d_27">
    <path clip-path="url(#p6d16c1f622)" d="M 282.536249 157.1883 
L 282.536249 202.6393 
" style="fill:none;stroke:#000000;stroke-dasharray:3.7,1.6;stroke-dashoffset:0;"/>
   </g>
   <g id="line2d_28">
    <path clip-path="url(#p6d16c1f622)" d="M 282.536249 202.6393 
L 282.536249 248.0903 
" style="fill:none;stroke:#000000;stroke-dasharray:3.7,1.6;stroke-dashoffset:0;"/>
   </g>
   <g id="line2d_29">
    <path clip-path="url(#p6d16c1f622)" d="M 282.536249 248.0903 
L 282.536249 293.5413 
" style="fill:none;stroke:#000000;stroke-dasharray:3.7,1.6;stroke-dashoffset:0;"/>
   </g>
   <g id="line2d_30">
    <path clip-path="url(#p6d16c1f622)" d="M 282.536249 293.5413 
L 282.536249 338.9923 
" style="fill:none;stroke:#000000;stroke-dasharray:3.7,1.6;stroke-dashoffset:0;"/>
   </g>
   <g id="line2d_31">
    <path clip-path="url(#p6d16c1f622)" d="M 282.536249 338.9923 
L 282.536249 384.4433 
" style="fill:none;stroke:#000000;stroke-dasharray:3.7,1.6;stroke-dashoffset:0;"/>
   </g>
   <g id="line2d_32">
    <path clip-path="url(#p6d16c1f622)" d="M 282.536249 384.4433 
L 282.536249 429.8943 
" style="fill:none;stroke:#000000;stroke-dasharray:3.7,1.6;stroke-dashoffset:0;"/>
   </g>
   <g id="line2d_33">
    <path clip-path="url(#p6d16c1f622)" d="M 282.536249 429.8943 
L 282.536249 475.3453 
" style="fill:none;stroke:#000000;stroke-dasharray:3.7,1.6;stroke-dashoffset:0;"/>
   </g>
   <g id="text_1">
    <g clip-path="url(#p6d16c1f622)">
     <!-- I -->
     <defs>
      <path d="M 9.8125 72.90625 
L 19.671875 72.90625 
L 19.671875 0 
L 9.8125 0 
z
" id="DejaVuSans-73"/>
     </defs>
     <g transform="translate(144.265749 47.147988)scale(0.13 -0.13)">
      <use xlink:href="#DejaVuSans-73"/>
     </g>
    </g>
   </g>
   <g id="text_2">
    <g clip-path="url(#p6d16c1f622)">
     <!-- I -->
     <g transform="translate(144.265749 92.598988)scale(0.13 -0.13)">
      <use xlink:href="#DejaVuSans-73"/>
     </g>
    </g>
   </g>
   <g id="text_3">
    <g clip-path="url(#p6d16c1f622)">
     <!-- I -->
     <g transform="translate(144.265749 138.049988)scale(0.13 -0.13)">
      <use xlink:href="#DejaVuSans-73"/>
     </g>
    </g>
   </g>
   <g id="text_4">
    <g clip-path="url(#p6d16c1f622)">
     <!-- I -->
     <g transform="translate(144.265749 183.500988)scale(0.13 -0.13)">
      <use xlink:href="#DejaVuSans-73"/>
     </g>
    </g>
   </g>
   <g id="text_5">
    <g clip-path="url(#p6d16c1f622)">
     <!-- I -->
     <g transform="translate(144.265749 228.951987)scale(0.13 -0.13)">
      <use xlink:href="#DejaVuSans-73"/>
     </g>
    </g>
   </g>
   <g id="text_6">
    <g clip-path="url(#p6d16c1f622)">
     <!-- I -->
     <g transform="translate(144.265749 274.402987)scale(0.13 -0.13)">
      <use xlink:href="#DejaVuSans-73"/>
     </g>
    </g>
   </g>
   <g id="text_7">
    <g clip-path="url(#p6d16c1f622)">
     <!-- I -->
     <g transform="translate(144.265749 319.853987)scale(0.13 -0.13)">
      <use xlink:href="#DejaVuSans-73"/>
     </g>
    </g>
   </g>
   <g id="text_8">
    <g clip-path="url(#p6d16c1f622)">
     <!-- I -->
     <g transform="translate(144.265749 365.304987)scale(0.13 -0.13)">
      <use xlink:href="#DejaVuSans-73"/>
     </g>
    </g>
   </g>
   <g id="text_9">
    <g clip-path="url(#p6d16c1f622)">
     <!-- H -->
     <defs>
      <path d="M 9.8125 72.90625 
L 19.671875 72.90625 
L 19.671875 43.015625 
L 55.515625 43.015625 
L 55.515625 72.90625 
L 65.375 72.90625 
L 65.375 0 
L 55.515625 0 
L 55.515625 34.71875 
L 19.671875 34.71875 
L 19.671875 0 
L 9.8125 0 
z
" id="DejaVuSans-72"/>
     </defs>
     <g transform="translate(141.295046 410.755987)scale(0.13 -0.13)">
      <use xlink:href="#DejaVuSans-72"/>
     </g>
    </g>
   </g>
   <g id="text_10">
    <g clip-path="url(#p6d16c1f622)">
     <!-- H -->
     <g transform="translate(141.295046 456.206987)scale(0.13 -0.13)">
      <use xlink:href="#DejaVuSans-72"/>
     </g>
    </g>
   </g>
   <g id="text_11">
    <g clip-path="url(#p6d16c1f622)">
     <!-- I -->
     <g transform="translate(235.167749 47.147988)scale(0.13 -0.13)">
      <use xlink:href="#DejaVuSans-73"/>
     </g>
    </g>
   </g>
   <g id="text_12">
    <g clip-path="url(#p6d16c1f622)">
     <!-- I -->
     <g transform="translate(235.167749 92.598988)scale(0.13 -0.13)">
      <use xlink:href="#DejaVuSans-73"/>
     </g>
    </g>
   </g>
   <g id="text_13">
    <g clip-path="url(#p6d16c1f622)">
     <!-- I -->
     <g transform="translate(235.167749 138.049988)scale(0.13 -0.13)">
      <use xlink:href="#DejaVuSans-73"/>
     </g>
    </g>
   </g>
   <g id="text_14">
    <g clip-path="url(#p6d16c1f622)">
     <!-- I -->
     <g transform="translate(235.167749 183.500988)scale(0.13 -0.13)">
      <use xlink:href="#DejaVuSans-73"/>
     </g>
    </g>
   </g>
   <g id="text_15">
    <g clip-path="url(#p6d16c1f622)">
     <!-- I -->
     <g transform="translate(235.167749 228.951987)scale(0.13 -0.13)">
      <use xlink:href="#DejaVuSans-73"/>
     </g>
    </g>
   </g>
   <g id="text_16">
    <g clip-path="url(#p6d16c1f622)">
     <!-- I -->
     <g transform="translate(235.167749 274.402987)scale(0.13 -0.13)">
      <use xlink:href="#DejaVuSans-73"/>
     </g>
    </g>
   </g>
   <g id="text_17">
    <g clip-path="url(#p6d16c1f622)">
     <!-- I -->
     <g transform="translate(235.167749 319.853987)scale(0.13 -0.13)">
      <use xlink:href="#DejaVuSans-73"/>
     </g>
    </g>
   </g>
   <g id="text_18">
    <g clip-path="url(#p6d16c1f622)">
     <!-- I -->
     <g transform="translate(235.167749 365.304987)scale(0.13 -0.13)">
      <use xlink:href="#DejaVuSans-73"/>
     </g>
    </g>
   </g>
   <g id="text_19">
    <g clip-path="url(#p6d16c1f622)">
     <!-- I -->
     <g transform="translate(235.167749 410.755987)scale(0.13 -0.13)">
      <use xlink:href="#DejaVuSans-73"/>
     </g>
    </g>
   </g>
   <g id="text_20">
    <g clip-path="url(#p6d16c1f622)">
     <!-- I -->
     <g transform="translate(235.167749 456.206987)scale(0.13 -0.13)">
      <use xlink:href="#DejaVuSans-73"/>
     </g>
    </g>
   </g>
   <g id="text_21">
    <g clip-path="url(#p6d16c1f622)">
     <!-- ${intensity}_{0}$ -->
     <defs>
      <path d="M 18.3125 75.984375 
L 27.296875 75.984375 
L 25.09375 64.59375 
L 16.109375 64.59375 
z
M 14.203125 54.6875 
L 23.1875 54.6875 
L 12.5 0 
L 3.515625 0 
z
" id="DejaVuSans-Oblique-105"/>
      <path d="M 55.71875 33.015625 
L 49.3125 0 
L 40.28125 0 
L 46.6875 32.671875 
Q 47.125 34.96875 47.359375 36.71875 
Q 47.609375 38.484375 47.609375 39.5 
Q 47.609375 43.609375 45.015625 45.890625 
Q 42.4375 48.1875 37.796875 48.1875 
Q 30.5625 48.1875 25.34375 43.375 
Q 20.125 38.578125 18.5 30.328125 
L 12.5 0 
L 3.515625 0 
L 14.109375 54.6875 
L 23.09375 54.6875 
L 21.296875 46.09375 
Q 25.046875 50.828125 30.3125 53.40625 
Q 35.59375 56 41.40625 56 
Q 48.640625 56 52.609375 52.09375 
Q 56.59375 48.1875 56.59375 41.109375 
Q 56.59375 39.359375 56.375 37.359375 
Q 56.15625 35.359375 55.71875 33.015625 
z
" id="DejaVuSans-Oblique-110"/>
      <path d="M 42.28125 54.6875 
L 40.921875 47.703125 
L 23 47.703125 
L 17.1875 18.015625 
Q 16.890625 16.359375 16.75 15.234375 
Q 16.609375 14.109375 16.609375 13.484375 
Q 16.609375 10.359375 18.484375 8.9375 
Q 20.359375 7.515625 24.515625 7.515625 
L 33.59375 7.515625 
L 32.078125 0 
L 23.484375 0 
Q 15.484375 0 11.546875 3.125 
Q 7.625 6.25 7.625 12.59375 
Q 7.625 13.71875 7.765625 15.0625 
Q 7.90625 16.40625 8.203125 18.015625 
L 14.015625 47.703125 
L 6.390625 47.703125 
L 7.8125 54.6875 
L 15.28125 54.6875 
L 18.3125 70.21875 
L 27.296875 70.21875 
L 24.3125 54.6875 
z
" id="DejaVuSans-Oblique-116"/>
      <path d="M 48.09375 32.234375 
Q 48.25 33.015625 48.3125 33.84375 
Q 48.390625 34.671875 48.390625 35.5 
Q 48.390625 41.453125 44.890625 44.921875 
Q 41.40625 48.390625 35.40625 48.390625 
Q 28.71875 48.390625 23.578125 44.15625 
Q 18.453125 39.9375 15.828125 32.171875 
z
M 55.90625 25.203125 
L 14.109375 25.203125 
Q 13.8125 23.34375 13.71875 22.265625 
Q 13.625 21.1875 13.625 20.40625 
Q 13.625 13.625 17.796875 9.90625 
Q 21.96875 6.203125 29.59375 6.203125 
Q 35.453125 6.203125 40.671875 7.515625 
Q 45.90625 8.84375 50.390625 11.375 
L 48.6875 2.484375 
Q 43.84375 0.53125 38.6875 -0.4375 
Q 33.546875 -1.421875 28.21875 -1.421875 
Q 16.84375 -1.421875 10.71875 4.015625 
Q 4.59375 9.46875 4.59375 19.484375 
Q 4.59375 28.03125 7.640625 35.375 
Q 10.6875 42.71875 16.609375 48.484375 
Q 20.40625 52.09375 25.65625 54.046875 
Q 30.90625 56 36.8125 56 
Q 46.09375 56 51.578125 50.4375 
Q 57.078125 44.875 57.078125 35.5 
Q 57.078125 33.25 56.78125 30.6875 
Q 56.5 28.125 55.90625 25.203125 
z
" id="DejaVuSans-Oblique-101"/>
      <path d="M 50 53.078125 
L 48.296875 44.578125 
Q 44.734375 46.53125 40.765625 47.5 
Q 36.8125 48.484375 32.625 48.484375 
Q 25.53125 48.484375 21.453125 46.0625 
Q 17.390625 43.65625 17.390625 39.5 
Q 17.390625 34.671875 26.859375 32.078125 
Q 27.59375 31.890625 27.9375 31.78125 
L 30.8125 30.90625 
Q 39.796875 28.421875 42.796875 25.6875 
Q 45.796875 22.953125 45.796875 18.21875 
Q 45.796875 9.515625 38.890625 4.046875 
Q 31.984375 -1.421875 20.796875 -1.421875 
Q 16.453125 -1.421875 11.671875 -0.578125 
Q 6.890625 0.25 1.125 2 
L 2.875 11.28125 
Q 7.8125 8.734375 12.59375 7.421875 
Q 17.390625 6.109375 21.78125 6.109375 
Q 28.375 6.109375 32.5 8.9375 
Q 36.625 11.765625 36.625 16.109375 
Q 36.625 20.796875 25.78125 23.6875 
L 24.859375 23.921875 
L 21.78125 24.703125 
Q 14.9375 26.515625 11.765625 29.46875 
Q 8.59375 32.421875 8.59375 37.015625 
Q 8.59375 45.75 15.15625 50.875 
Q 21.734375 56 33.015625 56 
Q 37.453125 56 41.671875 55.265625 
Q 45.90625 54.546875 50 53.078125 
z
" id="DejaVuSans-Oblique-115"/>
      <path d="M 24.8125 -5.078125 
Q 18.5625 -15.578125 14.625 -18.1875 
Q 10.6875 -20.796875 4.59375 -20.796875 
L -2.484375 -20.796875 
L -0.984375 -13.28125 
L 4.203125 -13.28125 
Q 7.953125 -13.28125 10.59375 -11.234375 
Q 13.234375 -9.1875 16.5 -3.21875 
L 19.28125 2 
L 7.171875 54.6875 
L 16.703125 54.6875 
L 25.78125 12.796875 
L 50.875 54.6875 
L 60.296875 54.6875 
z
" id="DejaVuSans-Oblique-121"/>
      <path d="M 31.78125 66.40625 
Q 24.171875 66.40625 20.328125 58.90625 
Q 16.5 51.421875 16.5 36.375 
Q 16.5 21.390625 20.328125 13.890625 
Q 24.171875 6.390625 31.78125 6.390625 
Q 39.453125 6.390625 43.28125 13.890625 
Q 47.125 21.390625 47.125 36.375 
Q 47.125 51.421875 43.28125 58.90625 
Q 39.453125 66.40625 31.78125 66.40625 
z
M 31.78125 74.21875 
Q 44.046875 74.21875 50.515625 64.515625 
Q 56.984375 54.828125 56.984375 36.375 
Q 56.984375 17.96875 50.515625 8.265625 
Q 44.046875 -1.421875 31.78125 -1.421875 
Q 19.53125 -1.421875 13.0625 8.265625 
Q 6.59375 17.96875 6.59375 36.375 
Q 6.59375 54.828125 13.0625 64.515625 
Q 19.53125 74.21875 31.78125 74.21875 
z
" id="DejaVuSans-48"/>
     </defs>
     <g transform="translate(34.387009 48.02955)scale(0.1625 -0.1625)">
      <use transform="translate(0 0.015625)" xlink:href="#DejaVuSans-Oblique-105"/>
      <use transform="translate(27.783203 0.015625)" xlink:href="#DejaVuSans-Oblique-110"/>
      <use transform="translate(91.162109 0.015625)" xlink:href="#DejaVuSans-Oblique-116"/>
      <use transform="translate(130.371094 0.015625)" xlink:href="#DejaVuSans-Oblique-101"/>
      <use transform="translate(191.894531 0.015625)" xlink:href="#DejaVuSans-Oblique-110"/>
      <use transform="translate(255.273438 0.015625)" xlink:href="#DejaVuSans-Oblique-115"/>
      <use transform="translate(307.373047 0.015625)" xlink:href="#DejaVuSans-Oblique-105"/>
      <use transform="translate(335.15625 0.015625)" xlink:href="#DejaVuSans-Oblique-116"/>
      <use transform="translate(374.365234 0.015625)" xlink:href="#DejaVuSans-Oblique-121"/>
      <use transform="translate(433.544922 -16.390625)scale(0.7)" xlink:href="#DejaVuSans-48"/>
     </g>
    </g>
   </g>
   <g id="text_22">
    <g clip-path="url(#p6d16c1f622)">
     <!-- ${intensity}_{1}$ -->
     <defs>
      <path d="M 12.40625 8.296875 
L 28.515625 8.296875 
L 28.515625 63.921875 
L 10.984375 60.40625 
L 10.984375 69.390625 
L 28.421875 72.90625 
L 38.28125 72.90625 
L 38.28125 8.296875 
L 54.390625 8.296875 
L 54.390625 0 
L 12.40625 0 
z
" id="DejaVuSans-49"/>
     </defs>
     <g transform="translate(34.387009 93.48055)scale(0.1625 -0.1625)">
      <use transform="translate(0 0.015625)" xlink:href="#DejaVuSans-Oblique-105"/>
      <use transform="translate(27.783203 0.015625)" xlink:href="#DejaVuSans-Oblique-110"/>
      <use transform="translate(91.162109 0.015625)" xlink:href="#DejaVuSans-Oblique-116"/>
      <use transform="translate(130.371094 0.015625)" xlink:href="#DejaVuSans-Oblique-101"/>
      <use transform="translate(191.894531 0.015625)" xlink:href="#DejaVuSans-Oblique-110"/>
      <use transform="translate(255.273438 0.015625)" xlink:href="#DejaVuSans-Oblique-115"/>
      <use transform="translate(307.373047 0.015625)" xlink:href="#DejaVuSans-Oblique-105"/>
      <use transform="translate(335.15625 0.015625)" xlink:href="#DejaVuSans-Oblique-116"/>
      <use transform="translate(374.365234 0.015625)" xlink:href="#DejaVuSans-Oblique-121"/>
      <use transform="translate(433.544922 -16.390625)scale(0.7)" xlink:href="#DejaVuSans-49"/>
     </g>
    </g>
   </g>
   <g id="text_23">
    <g clip-path="url(#p6d16c1f622)">
     <!-- ${intensity}_{2}$ -->
     <defs>
      <path d="M 19.1875 8.296875 
L 53.609375 8.296875 
L 53.609375 0 
L 7.328125 0 
L 7.328125 8.296875 
Q 12.9375 14.109375 22.625 23.890625 
Q 32.328125 33.6875 34.8125 36.53125 
Q 39.546875 41.84375 41.421875 45.53125 
Q 43.3125 49.21875 43.3125 52.78125 
Q 43.3125 58.59375 39.234375 62.25 
Q 35.15625 65.921875 28.609375 65.921875 
Q 23.96875 65.921875 18.8125 64.3125 
Q 13.671875 62.703125 7.8125 59.421875 
L 7.8125 69.390625 
Q 13.765625 71.78125 18.9375 73 
Q 24.125 74.21875 28.421875 74.21875 
Q 39.75 74.21875 46.484375 68.546875 
Q 53.21875 62.890625 53.21875 53.421875 
Q 53.21875 48.921875 51.53125 44.890625 
Q 49.859375 40.875 45.40625 35.40625 
Q 44.1875 33.984375 37.640625 27.21875 
Q 31.109375 20.453125 19.1875 8.296875 
z
" id="DejaVuSans-50"/>
     </defs>
     <g transform="translate(34.387009 138.93155)scale(0.1625 -0.1625)">
      <use transform="translate(0 0.015625)" xlink:href="#DejaVuSans-Oblique-105"/>
      <use transform="translate(27.783203 0.015625)" xlink:href="#DejaVuSans-Oblique-110"/>
      <use transform="translate(91.162109 0.015625)" xlink:href="#DejaVuSans-Oblique-116"/>
      <use transform="translate(130.371094 0.015625)" xlink:href="#DejaVuSans-Oblique-101"/>
      <use transform="translate(191.894531 0.015625)" xlink:href="#DejaVuSans-Oblique-110"/>
      <use transform="translate(255.273438 0.015625)" xlink:href="#DejaVuSans-Oblique-115"/>
      <use transform="translate(307.373047 0.015625)" xlink:href="#DejaVuSans-Oblique-105"/>
      <use transform="translate(335.15625 0.015625)" xlink:href="#DejaVuSans-Oblique-116"/>
      <use transform="translate(374.365234 0.015625)" xlink:href="#DejaVuSans-Oblique-121"/>
      <use transform="translate(433.544922 -16.390625)scale(0.7)" xlink:href="#DejaVuSans-50"/>
     </g>
    </g>
   </g>
   <g id="text_24">
    <g clip-path="url(#p6d16c1f622)">
     <!-- ${intensity}_{3}$ -->
     <defs>
      <path d="M 40.578125 39.3125 
Q 47.65625 37.796875 51.625 33 
Q 55.609375 28.21875 55.609375 21.1875 
Q 55.609375 10.40625 48.1875 4.484375 
Q 40.765625 -1.421875 27.09375 -1.421875 
Q 22.515625 -1.421875 17.65625 -0.515625 
Q 12.796875 0.390625 7.625 2.203125 
L 7.625 11.71875 
Q 11.71875 9.328125 16.59375 8.109375 
Q 21.484375 6.890625 26.8125 6.890625 
Q 36.078125 6.890625 40.9375 10.546875 
Q 45.796875 14.203125 45.796875 21.1875 
Q 45.796875 27.640625 41.28125 31.265625 
Q 36.765625 34.90625 28.71875 34.90625 
L 20.21875 34.90625 
L 20.21875 43.015625 
L 29.109375 43.015625 
Q 36.375 43.015625 40.234375 45.921875 
Q 44.09375 48.828125 44.09375 54.296875 
Q 44.09375 59.90625 40.109375 62.90625 
Q 36.140625 65.921875 28.71875 65.921875 
Q 24.65625 65.921875 20.015625 65.03125 
Q 15.375 64.15625 9.8125 62.3125 
L 9.8125 71.09375 
Q 15.4375 72.65625 20.34375 73.4375 
Q 25.25 74.21875 29.59375 74.21875 
Q 40.828125 74.21875 47.359375 69.109375 
Q 53.90625 64.015625 53.90625 55.328125 
Q 53.90625 49.265625 50.4375 45.09375 
Q 46.96875 40.921875 40.578125 39.3125 
z
" id="DejaVuSans-51"/>
     </defs>
     <g transform="translate(34.387009 184.38255)scale(0.1625 -0.1625)">
      <use transform="translate(0 0.015625)" xlink:href="#DejaVuSans-Oblique-105"/>
      <use transform="translate(27.783203 0.015625)" xlink:href="#DejaVuSans-Oblique-110"/>
      <use transform="translate(91.162109 0.015625)" xlink:href="#DejaVuSans-Oblique-116"/>
      <use transform="translate(130.371094 0.015625)" xlink:href="#DejaVuSans-Oblique-101"/>
      <use transform="translate(191.894531 0.015625)" xlink:href="#DejaVuSans-Oblique-110"/>
      <use transform="translate(255.273438 0.015625)" xlink:href="#DejaVuSans-Oblique-115"/>
      <use transform="translate(307.373047 0.015625)" xlink:href="#DejaVuSans-Oblique-105"/>
      <use transform="translate(335.15625 0.015625)" xlink:href="#DejaVuSans-Oblique-116"/>
      <use transform="translate(374.365234 0.015625)" xlink:href="#DejaVuSans-Oblique-121"/>
      <use transform="translate(433.544922 -16.390625)scale(0.7)" xlink:href="#DejaVuSans-51"/>
     </g>
    </g>
   </g>
   <g id="text_25">
    <g clip-path="url(#p6d16c1f622)">
     <!-- ${intensity}_{4}$ -->
     <defs>
      <path d="M 37.796875 64.3125 
L 12.890625 25.390625 
L 37.796875 25.390625 
z
M 35.203125 72.90625 
L 47.609375 72.90625 
L 47.609375 25.390625 
L 58.015625 25.390625 
L 58.015625 17.1875 
L 47.609375 17.1875 
L 47.609375 0 
L 37.796875 0 
L 37.796875 17.1875 
L 4.890625 17.1875 
L 4.890625 26.703125 
z
" id="DejaVuSans-52"/>
     </defs>
     <g transform="translate(34.387009 229.83355)scale(0.1625 -0.1625)">
      <use transform="translate(0 0.015625)" xlink:href="#DejaVuSans-Oblique-105"/>
      <use transform="translate(27.783203 0.015625)" xlink:href="#DejaVuSans-Oblique-110"/>
      <use transform="translate(91.162109 0.015625)" xlink:href="#DejaVuSans-Oblique-116"/>
      <use transform="translate(130.371094 0.015625)" xlink:href="#DejaVuSans-Oblique-101"/>
      <use transform="translate(191.894531 0.015625)" xlink:href="#DejaVuSans-Oblique-110"/>
      <use transform="translate(255.273438 0.015625)" xlink:href="#DejaVuSans-Oblique-115"/>
      <use transform="translate(307.373047 0.015625)" xlink:href="#DejaVuSans-Oblique-105"/>
      <use transform="translate(335.15625 0.015625)" xlink:href="#DejaVuSans-Oblique-116"/>
      <use transform="translate(374.365234 0.015625)" xlink:href="#DejaVuSans-Oblique-121"/>
      <use transform="translate(433.544922 -16.390625)scale(0.7)" xlink:href="#DejaVuSans-52"/>
     </g>
    </g>
   </g>
   <g id="text_26">
    <g clip-path="url(#p6d16c1f622)">
     <!-- ${intensity}_{5}$ -->
     <defs>
      <path d="M 10.796875 72.90625 
L 49.515625 72.90625 
L 49.515625 64.59375 
L 19.828125 64.59375 
L 19.828125 46.734375 
Q 21.96875 47.46875 24.109375 47.828125 
Q 26.265625 48.1875 28.421875 48.1875 
Q 40.625 48.1875 47.75 41.5 
Q 54.890625 34.8125 54.890625 23.390625 
Q 54.890625 11.625 47.5625 5.09375 
Q 40.234375 -1.421875 26.90625 -1.421875 
Q 22.3125 -1.421875 17.546875 -0.640625 
Q 12.796875 0.140625 7.71875 1.703125 
L 7.71875 11.625 
Q 12.109375 9.234375 16.796875 8.0625 
Q 21.484375 6.890625 26.703125 6.890625 
Q 35.15625 6.890625 40.078125 11.328125 
Q 45.015625 15.765625 45.015625 23.390625 
Q 45.015625 31 40.078125 35.4375 
Q 35.15625 39.890625 26.703125 39.890625 
Q 22.75 39.890625 18.8125 39.015625 
Q 14.890625 38.140625 10.796875 36.28125 
z
" id="DejaVuSans-53"/>
     </defs>
     <g transform="translate(34.387009 275.28455)scale(0.1625 -0.1625)">
      <use transform="translate(0 0.015625)" xlink:href="#DejaVuSans-Oblique-105"/>
      <use transform="translate(27.783203 0.015625)" xlink:href="#DejaVuSans-Oblique-110"/>
      <use transform="translate(91.162109 0.015625)" xlink:href="#DejaVuSans-Oblique-116"/>
      <use transform="translate(130.371094 0.015625)" xlink:href="#DejaVuSans-Oblique-101"/>
      <use transform="translate(191.894531 0.015625)" xlink:href="#DejaVuSans-Oblique-110"/>
      <use transform="translate(255.273438 0.015625)" xlink:href="#DejaVuSans-Oblique-115"/>
      <use transform="translate(307.373047 0.015625)" xlink:href="#DejaVuSans-Oblique-105"/>
      <use transform="translate(335.15625 0.015625)" xlink:href="#DejaVuSans-Oblique-116"/>
      <use transform="translate(374.365234 0.015625)" xlink:href="#DejaVuSans-Oblique-121"/>
      <use transform="translate(433.544922 -16.390625)scale(0.7)" xlink:href="#DejaVuSans-53"/>
     </g>
    </g>
   </g>
   <g id="text_27">
    <g clip-path="url(#p6d16c1f622)">
     <!-- ${intensity}_{6}$ -->
     <defs>
      <path d="M 33.015625 40.375 
Q 26.375 40.375 22.484375 35.828125 
Q 18.609375 31.296875 18.609375 23.390625 
Q 18.609375 15.53125 22.484375 10.953125 
Q 26.375 6.390625 33.015625 6.390625 
Q 39.65625 6.390625 43.53125 10.953125 
Q 47.40625 15.53125 47.40625 23.390625 
Q 47.40625 31.296875 43.53125 35.828125 
Q 39.65625 40.375 33.015625 40.375 
z
M 52.59375 71.296875 
L 52.59375 62.3125 
Q 48.875 64.0625 45.09375 64.984375 
Q 41.3125 65.921875 37.59375 65.921875 
Q 27.828125 65.921875 22.671875 59.328125 
Q 17.53125 52.734375 16.796875 39.40625 
Q 19.671875 43.65625 24.015625 45.921875 
Q 28.375 48.1875 33.59375 48.1875 
Q 44.578125 48.1875 50.953125 41.515625 
Q 57.328125 34.859375 57.328125 23.390625 
Q 57.328125 12.15625 50.6875 5.359375 
Q 44.046875 -1.421875 33.015625 -1.421875 
Q 20.359375 -1.421875 13.671875 8.265625 
Q 6.984375 17.96875 6.984375 36.375 
Q 6.984375 53.65625 15.1875 63.9375 
Q 23.390625 74.21875 37.203125 74.21875 
Q 40.921875 74.21875 44.703125 73.484375 
Q 48.484375 72.75 52.59375 71.296875 
z
" id="DejaVuSans-54"/>
     </defs>
     <g transform="translate(34.387009 320.73555)scale(0.1625 -0.1625)">
      <use transform="translate(0 0.015625)" xlink:href="#DejaVuSans-Oblique-105"/>
      <use transform="translate(27.783203 0.015625)" xlink:href="#DejaVuSans-Oblique-110"/>
      <use transform="translate(91.162109 0.015625)" xlink:href="#DejaVuSans-Oblique-116"/>
      <use transform="translate(130.371094 0.015625)" xlink:href="#DejaVuSans-Oblique-101"/>
      <use transform="translate(191.894531 0.015625)" xlink:href="#DejaVuSans-Oblique-110"/>
      <use transform="translate(255.273438 0.015625)" xlink:href="#DejaVuSans-Oblique-115"/>
      <use transform="translate(307.373047 0.015625)" xlink:href="#DejaVuSans-Oblique-105"/>
      <use transform="translate(335.15625 0.015625)" xlink:href="#DejaVuSans-Oblique-116"/>
      <use transform="translate(374.365234 0.015625)" xlink:href="#DejaVuSans-Oblique-121"/>
      <use transform="translate(433.544922 -16.390625)scale(0.7)" xlink:href="#DejaVuSans-54"/>
     </g>
    </g>
   </g>
   <g id="text_28">
    <g clip-path="url(#p6d16c1f622)">
     <!-- ${intensity}_{7}$ -->
     <defs>
      <path d="M 8.203125 72.90625 
L 55.078125 72.90625 
L 55.078125 68.703125 
L 28.609375 0 
L 18.3125 0 
L 43.21875 64.59375 
L 8.203125 64.59375 
z
" id="DejaVuSans-55"/>
     </defs>
     <g transform="translate(34.387009 366.18655)scale(0.1625 -0.1625)">
      <use transform="translate(0 0.015625)" xlink:href="#DejaVuSans-Oblique-105"/>
      <use transform="translate(27.783203 0.015625)" xlink:href="#DejaVuSans-Oblique-110"/>
      <use transform="translate(91.162109 0.015625)" xlink:href="#DejaVuSans-Oblique-116"/>
      <use transform="translate(130.371094 0.015625)" xlink:href="#DejaVuSans-Oblique-101"/>
      <use transform="translate(191.894531 0.015625)" xlink:href="#DejaVuSans-Oblique-110"/>
      <use transform="translate(255.273438 0.015625)" xlink:href="#DejaVuSans-Oblique-115"/>
      <use transform="translate(307.373047 0.015625)" xlink:href="#DejaVuSans-Oblique-105"/>
      <use transform="translate(335.15625 0.015625)" xlink:href="#DejaVuSans-Oblique-116"/>
      <use transform="translate(374.365234 0.015625)" xlink:href="#DejaVuSans-Oblique-121"/>
      <use transform="translate(433.544922 -16.390625)scale(0.7)" xlink:href="#DejaVuSans-55"/>
     </g>
    </g>
   </g>
   <g id="text_29">
    <g clip-path="url(#p6d16c1f622)">
     <!-- ${idx}_{0}$ -->
     <defs>
      <path d="M 41.796875 8.203125 
Q 38.1875 3.46875 33.25 1.015625 
Q 28.328125 -1.421875 22.3125 -1.421875 
Q 14.109375 -1.421875 9.34375 4.171875 
Q 4.59375 9.765625 4.59375 19.484375 
Q 4.59375 27.59375 7.46875 34.9375 
Q 10.359375 42.28125 15.828125 48.09375 
Q 19.4375 51.953125 23.96875 53.96875 
Q 28.515625 56 33.5 56 
Q 38.765625 56 42.796875 53.453125 
Q 46.828125 50.921875 49.03125 46.1875 
L 54.890625 75.984375 
L 63.921875 75.984375 
L 49.125 0 
L 40.09375 0 
z
M 13.921875 21.09375 
Q 13.921875 14.015625 17.109375 10.0625 
Q 20.3125 6.109375 25.984375 6.109375 
Q 30.171875 6.109375 33.765625 8.125 
Q 37.359375 10.15625 40.09375 14.109375 
Q 42.96875 18.21875 44.625 23.578125 
Q 46.296875 28.953125 46.296875 34.1875 
Q 46.296875 40.96875 43.09375 44.765625 
Q 39.890625 48.578125 34.28125 48.578125 
Q 30.03125 48.578125 26.359375 46.578125 
Q 22.703125 44.578125 20.125 40.828125 
Q 17.28125 36.765625 15.59375 31.390625 
Q 13.921875 26.03125 13.921875 21.09375 
z
" id="DejaVuSans-Oblique-100"/>
      <path d="M 60.015625 54.6875 
L 34.90625 27.875 
L 50.296875 0 
L 39.984375 0 
L 28.421875 21.6875 
L 8.296875 0 
L -2.59375 0 
L 24.3125 28.8125 
L 10.015625 54.6875 
L 20.3125 54.6875 
L 30.8125 34.90625 
L 49.125 54.6875 
z
" id="DejaVuSans-Oblique-120"/>
     </defs>
     <g transform="translate(80.374509 411.652784)scale(0.1625 -0.1625)">
      <use transform="translate(0 0.015625)" xlink:href="#DejaVuSans-Oblique-105"/>
      <use transform="translate(27.783203 0.015625)" xlink:href="#DejaVuSans-Oblique-100"/>
      <use transform="translate(91.259766 0.015625)" xlink:href="#DejaVuSans-Oblique-120"/>
      <use transform="translate(150.439453 -16.390625)scale(0.7)" xlink:href="#DejaVuSans-48"/>
     </g>
    </g>
   </g>
   <g id="text_30">
    <g clip-path="url(#p6d16c1f622)">
     <!-- ${idx}_{1}$ -->
     <g transform="translate(80.374509 457.103784)scale(0.1625 -0.1625)">
      <use transform="translate(0 0.015625)" xlink:href="#DejaVuSans-Oblique-105"/>
      <use transform="translate(27.783203 0.015625)" xlink:href="#DejaVuSans-Oblique-100"/>
      <use transform="translate(91.259766 0.015625)" xlink:href="#DejaVuSans-Oblique-120"/>
      <use transform="translate(150.439453 -16.390625)scale(0.7)" xlink:href="#DejaVuSans-49"/>
     </g>
    </g>
   </g>
   <g id="text_31">
    <g clip-path="url(#p6d16c1f622)">
     <!-- 10 -->
     <g transform="translate(126.184809 491.362825)scale(0.104 -0.104)">
      <use xlink:href="#DejaVuSans-49"/>
      <use x="63.623047" xlink:href="#DejaVuSans-48"/>
     </g>
    </g>
   </g>
   <g id="text_32">
    <g clip-path="url(#p6d16c1f622)">
     <!-- cr -->
     <defs>
      <path d="M 48.78125 52.59375 
L 48.78125 44.1875 
Q 44.96875 46.296875 41.140625 47.34375 
Q 37.3125 48.390625 33.40625 48.390625 
Q 24.65625 48.390625 19.8125 42.84375 
Q 14.984375 37.3125 14.984375 27.296875 
Q 14.984375 17.28125 19.8125 11.734375 
Q 24.65625 6.203125 33.40625 6.203125 
Q 37.3125 6.203125 41.140625 7.25 
Q 44.96875 8.296875 48.78125 10.40625 
L 48.78125 2.09375 
Q 45.015625 0.34375 40.984375 -0.53125 
Q 36.96875 -1.421875 32.421875 -1.421875 
Q 20.0625 -1.421875 12.78125 6.34375 
Q 5.515625 14.109375 5.515625 27.296875 
Q 5.515625 40.671875 12.859375 48.328125 
Q 20.21875 56 33.015625 56 
Q 37.15625 56 41.109375 55.140625 
Q 45.0625 54.296875 48.78125 52.59375 
z
" id="DejaVuSans-99"/>
      <path d="M 41.109375 46.296875 
Q 39.59375 47.171875 37.8125 47.578125 
Q 36.03125 48 33.890625 48 
Q 26.265625 48 22.1875 43.046875 
Q 18.109375 38.09375 18.109375 28.8125 
L 18.109375 0 
L 9.078125 0 
L 9.078125 54.6875 
L 18.109375 54.6875 
L 18.109375 46.1875 
Q 20.953125 51.171875 25.484375 53.578125 
Q 30.03125 56 36.53125 56 
Q 37.453125 56 38.578125 55.875 
Q 39.703125 55.765625 41.0625 55.515625 
z
" id="DejaVuSans-114"/>
     </defs>
     <g transform="translate(96.934275 502.554784)scale(0.1625 -0.1625)">
      <use xlink:href="#DejaVuSans-99"/>
      <use x="54.980469" xlink:href="#DejaVuSans-114"/>
     </g>
    </g>
   </g>
  </g>
 </g>
 <defs>
  <clipPath id="p6d16c1f622">
   <rect height="518.1414" width="305.333909" x="7.2" y="7.2"/>
  </clipPath>
 </defs>
</svg>
