<?xml version="1.0" encoding="utf-8" standalone="no"?>
<!DOCTYPE svg PUBLIC "-//W3C//DTD SVG 1.1//EN"
  "http://www.w3.org/Graphics/SVG/1.1/DTD/svg11.dtd">
<!-- Created with matplotlib (https://matplotlib.org/) -->
<svg height="259.8354pt" version="1.1" viewBox="0 0 1044.052408 259.8354" width="1044.052408pt" xmlns="http://www.w3.org/2000/svg" xmlns:xlink="http://www.w3.org/1999/xlink">
 <defs>
  <style type="text/css">
*{stroke-linecap:butt;stroke-linejoin:round;}
  </style>
 </defs>
 <g id="figure_1">
  <g id="patch_1">
   <path d="M 0 259.8354 
L 1044.052408 259.8354 
L 1044.052408 0 
L 0 0 
z
" style="fill:#ffffff;"/>
  </g>
  <g id="axes_1">
   <g id="line2d_1">
    <path clip-path="url(#pd4b80b7bd5)" d="M 73.291208 43.5608 
L 1032.307308 43.5608 
" style="fill:none;stroke:#000000;stroke-linecap:square;stroke-width:2;"/>
   </g>
   <g id="line2d_2">
    <path clip-path="url(#pd4b80b7bd5)" d="M 73.291208 89.0118 
L 1032.307308 89.0118 
" style="fill:none;stroke:#000000;stroke-linecap:square;stroke-width:2;"/>
   </g>
   <g id="line2d_3">
    <path clip-path="url(#pd4b80b7bd5)" d="M 73.291208 134.4628 
L 1032.307308 134.4628 
" style="fill:none;stroke:#000000;stroke-linecap:square;stroke-width:2;"/>
   </g>
   <g id="line2d_4">
    <path clip-path="url(#pd4b80b7bd5)" d="M 73.291208 179.9138 
L 1032.307308 179.9138 
" style="fill:none;stroke:#000000;stroke-linecap:square;stroke-width:2;"/>
   </g>
   <g id="line2d_5">
    <path clip-path="url(#pd4b80b7bd5)" d="M 73.291208 225.3648 
L 1032.307308 225.3648 
" style="fill:none;stroke:#000000;stroke-linecap:square;stroke-width:2;"/>
   </g>
   <g id="line2d_6">
    <path clip-path="url(#pd4b80b7bd5)" d="M 97.834748 89.0118 
L 97.834748 43.5608 
" style="fill:none;stroke:#bb8bff;stroke-linecap:square;stroke-width:2;"/>
   </g>
   <g id="line2d_7">
    <path clip-path="url(#pd4b80b7bd5)" d="M 143.285748 134.4628 
L 143.285748 43.5608 
" style="fill:none;stroke:#bb8bff;stroke-linecap:square;stroke-width:2;"/>
   </g>
   <g id="line2d_8">
    <path clip-path="url(#pd4b80b7bd5)" d="M 188.736748 179.9138 
L 188.736748 43.5608 
" style="fill:none;stroke:#bb8bff;stroke-linecap:square;stroke-width:2;"/>
   </g>
   <g id="line2d_9">
    <path clip-path="url(#pd4b80b7bd5)" d="M 234.187748 225.3648 
L 234.187748 43.5608 
" style="fill:none;stroke:#bb8bff;stroke-linecap:square;stroke-width:2;"/>
   </g>
   <g id="line2d_10">
    <path clip-path="url(#pd4b80b7bd5)" d="M 325.089748 225.3648 
L 325.089748 43.5608 
" style="fill:none;stroke:#bb8bff;stroke-linecap:square;stroke-width:2;"/>
   </g>
   <g id="line2d_11">
    <path clip-path="url(#pd4b80b7bd5)" d="M 370.540748 225.3648 
L 370.540748 43.5608 
" style="fill:none;stroke:#bb8bff;stroke-linecap:square;stroke-width:2;"/>
   </g>
   <g id="line2d_12">
    <path clip-path="url(#pd4b80b7bd5)" d="M 461.442748 225.3648 
L 461.442748 43.5608 
" style="fill:none;stroke:#bb8bff;stroke-linecap:square;stroke-width:2;"/>
   </g>
   <g id="line2d_13">
    <path clip-path="url(#pd4b80b7bd5)" d="M 506.893748 89.0118 
L 506.893748 43.5608 
" style="fill:none;stroke:#bb8bff;stroke-linecap:square;stroke-width:2;"/>
   </g>
   <g id="line2d_14">
    <path clip-path="url(#pd4b80b7bd5)" d="M 552.344748 134.4628 
L 552.344748 43.5608 
" style="fill:none;stroke:#bb8bff;stroke-linecap:square;stroke-width:2;"/>
   </g>
   <g id="line2d_15">
    <path clip-path="url(#pd4b80b7bd5)" d="M 597.795748 179.9138 
L 597.795748 43.5608 
" style="fill:none;stroke:#bb8bff;stroke-linecap:square;stroke-width:2;"/>
   </g>
   <g id="line2d_16">
    <path clip-path="url(#pd4b80b7bd5)" d="M 643.246748 225.3648 
L 643.246748 43.5608 
" style="fill:none;stroke:#bb8bff;stroke-linecap:square;stroke-width:2;"/>
   </g>
   <g id="line2d_17">
    <path clip-path="url(#pd4b80b7bd5)" d="M 734.148748 225.3648 
L 734.148748 43.5608 
" style="fill:none;stroke:#bb8bff;stroke-linecap:square;stroke-width:2;"/>
   </g>
   <g id="line2d_18">
    <path clip-path="url(#pd4b80b7bd5)" d="M 779.599748 225.3648 
L 779.599748 43.5608 
" style="fill:none;stroke:#bb8bff;stroke-linecap:square;stroke-width:2;"/>
   </g>
   <g id="line2d_19">
    <path clip-path="url(#pd4b80b7bd5)" d="M 870.501748 225.3648 
L 870.501748 43.5608 
" style="fill:none;stroke:#bb8bff;stroke-linecap:square;stroke-width:2;"/>
   </g>
   <g id="line2d_20">
    <path clip-path="url(#pd4b80b7bd5)" d="M 915.952748 89.0118 
L 915.952748 43.5608 
" style="fill:none;stroke:#bb8bff;stroke-linecap:square;stroke-width:2;"/>
   </g>
   <g id="line2d_21">
    <path clip-path="url(#pd4b80b7bd5)" d="M 961.403748 134.4628 
L 961.403748 43.5608 
" style="fill:none;stroke:#bb8bff;stroke-linecap:square;stroke-width:2;"/>
   </g>
   <g id="line2d_22">
    <path clip-path="url(#pd4b80b7bd5)" d="M 1006.854748 179.9138 
L 1006.854748 43.5608 
" style="fill:none;stroke:#bb8bff;stroke-linecap:square;stroke-width:2;"/>
   </g>
   <g id="line2d_23">
    <path clip-path="url(#pd4b80b7bd5)" d="M 279.638748 225.3648 
L 279.638748 89.0118 
" style="fill:none;stroke:#6fa4ff;stroke-linecap:square;stroke-width:2;"/>
   </g>
   <g id="line2d_24">
    <path clip-path="url(#pd4b80b7bd5)" d="M 415.991748 225.3648 
L 415.991748 179.9138 
" style="fill:none;stroke:#6fa4ff;stroke-linecap:square;stroke-width:2;"/>
   </g>
   <g id="line2d_25">
    <path clip-path="url(#pd4b80b7bd5)" d="M 688.697748 225.3648 
L 688.697748 134.4628 
" style="fill:none;stroke:#6fa4ff;stroke-linecap:square;stroke-width:2;"/>
   </g>
   <g id="line2d_26">
    <path clip-path="url(#pd4b80b7bd5)" d="M 825.050748 225.3648 
L 825.050748 179.9138 
" style="fill:none;stroke:#6fa4ff;stroke-linecap:square;stroke-width:2;"/>
   </g>
   <g id="patch_2">
    <path clip-path="url(#pd4b80b7bd5)" d="M 97.834748 47.992272 
C 99.009988 47.992272 100.137252 47.525345 100.968272 46.694324 
C 101.799293 45.863304 102.266221 44.73604 102.266221 43.5608 
C 102.266221 42.38556 101.799293 41.258296 100.968272 40.427276 
C 100.137252 39.596255 99.009988 39.129328 97.834748 39.129328 
C 96.659508 39.129328 95.532244 39.596255 94.701224 40.427276 
C 93.870204 41.258296 93.403276 42.38556 93.403276 43.5608 
C 93.403276 44.73604 93.870204 45.863304 94.701224 46.694324 
C 95.532244 47.525345 96.659508 47.992272 97.834748 47.992272 
z
" style="fill:#bb8bff;stroke:#bb8bff;stroke-linejoin:miter;stroke-width:1.5;"/>
   </g>
   <g id="patch_3">
    <path clip-path="url(#pd4b80b7bd5)" d="M 83.063173 103.783375 
L 112.606323 103.783375 
L 112.606323 74.240225 
L 83.063173 74.240225 
z
" style="fill:#bb8bff;stroke:#bb8bff;stroke-linejoin:miter;stroke-width:1.5;"/>
   </g>
   <g id="patch_4">
    <path clip-path="url(#pd4b80b7bd5)" d="M 143.285748 47.992272 
C 144.460988 47.992272 145.588252 47.525345 146.419272 46.694324 
C 147.250293 45.863304 147.717221 44.73604 147.717221 43.5608 
C 147.717221 42.38556 147.250293 41.258296 146.419272 40.427276 
C 145.588252 39.596255 144.460988 39.129328 143.285748 39.129328 
C 142.110508 39.129328 140.983244 39.596255 140.152224 40.427276 
C 139.321204 41.258296 138.854276 42.38556 138.854276 43.5608 
C 138.854276 44.73604 139.321204 45.863304 140.152224 46.694324 
C 140.983244 47.525345 142.110508 47.992272 143.285748 47.992272 
z
" style="fill:#bb8bff;stroke:#bb8bff;stroke-linejoin:miter;stroke-width:1.5;"/>
   </g>
   <g id="patch_5">
    <path clip-path="url(#pd4b80b7bd5)" d="M 128.514173 149.234375 
L 158.057323 149.234375 
L 158.057323 119.691225 
L 128.514173 119.691225 
z
" style="fill:#bb8bff;stroke:#bb8bff;stroke-linejoin:miter;stroke-width:1.5;"/>
   </g>
   <g id="patch_6">
    <path clip-path="url(#pd4b80b7bd5)" d="M 188.736748 47.992272 
C 189.911988 47.992272 191.039252 47.525345 191.870272 46.694324 
C 192.701293 45.863304 193.168221 44.73604 193.168221 43.5608 
C 193.168221 42.38556 192.701293 41.258296 191.870272 40.427276 
C 191.039252 39.596255 189.911988 39.129328 188.736748 39.129328 
C 187.561508 39.129328 186.434244 39.596255 185.603224 40.427276 
C 184.772204 41.258296 184.305276 42.38556 184.305276 43.5608 
C 184.305276 44.73604 184.772204 45.863304 185.603224 46.694324 
C 186.434244 47.525345 187.561508 47.992272 188.736748 47.992272 
z
" style="fill:#bb8bff;stroke:#bb8bff;stroke-linejoin:miter;stroke-width:1.5;"/>
   </g>
   <g id="patch_7">
    <path clip-path="url(#pd4b80b7bd5)" d="M 173.965173 194.685375 
L 203.508323 194.685375 
L 203.508323 165.142225 
L 173.965173 165.142225 
z
" style="fill:#bb8bff;stroke:#bb8bff;stroke-linejoin:miter;stroke-width:1.5;"/>
   </g>
   <g id="patch_8">
    <path clip-path="url(#pd4b80b7bd5)" d="M 234.187748 47.992272 
C 235.362988 47.992272 236.490252 47.525345 237.321272 46.694324 
C 238.152293 45.863304 238.619221 44.73604 238.619221 43.5608 
C 238.619221 42.38556 238.152293 41.258296 237.321272 40.427276 
C 236.490252 39.596255 235.362988 39.129328 234.187748 39.129328 
C 233.012508 39.129328 231.885244 39.596255 231.054224 40.427276 
C 230.223204 41.258296 229.756276 42.38556 229.756276 43.5608 
C 229.756276 44.73604 230.223204 45.863304 231.054224 46.694324 
C 231.885244 47.525345 233.012508 47.992272 234.187748 47.992272 
z
" style="fill:#bb8bff;stroke:#bb8bff;stroke-linejoin:miter;stroke-width:1.5;"/>
   </g>
   <g id="patch_9">
    <path clip-path="url(#pd4b80b7bd5)" d="M 234.187748 138.894273 
C 235.362988 138.894273 236.490252 138.427345 237.321272 137.596324 
C 238.152293 136.765304 238.619221 135.63804 238.619221 134.4628 
C 238.619221 133.28756 238.152293 132.160296 237.321272 131.329276 
C 236.490252 130.498255 235.362988 130.031328 234.187748 130.031328 
C 233.012508 130.031328 231.885244 130.498255 231.054224 131.329276 
C 230.223204 132.160296 229.756276 133.28756 229.756276 134.4628 
C 229.756276 135.63804 230.223204 136.765304 231.054224 137.596324 
C 231.885244 138.427345 233.012508 138.894273 234.187748 138.894273 
z
" style="fill:#bb8bff;stroke:#bb8bff;stroke-linejoin:miter;stroke-width:1.5;"/>
   </g>
   <g id="patch_10">
    <path clip-path="url(#pd4b80b7bd5)" d="M 234.187748 235.704903 
C 236.929975 235.704903 239.560257 234.615404 241.499305 232.676357 
C 243.438352 230.737309 244.527851 228.107027 244.527851 225.3648 
C 244.527851 222.622573 243.438352 219.992291 241.499305 218.053243 
C 239.560257 216.114196 236.929975 215.024698 234.187748 215.024698 
C 231.445521 215.024698 228.815239 216.114196 226.876192 218.053243 
C 224.937144 219.992291 223.847646 222.622573 223.847646 225.3648 
C 223.847646 228.107027 224.937144 230.737309 226.876192 232.676357 
C 228.815239 234.615404 231.445521 235.704903 234.187748 235.704903 
z
" style="fill:#bb8bff;stroke:#bb8bff;stroke-linejoin:miter;stroke-width:2;"/>
   </g>
   <g id="patch_11">
    <path clip-path="url(#pd4b80b7bd5)" d="M 279.638748 93.443272 
C 280.813988 93.443272 281.941252 92.976345 282.772272 92.145324 
C 283.603293 91.314304 284.070221 90.18704 284.070221 89.0118 
C 284.070221 87.83656 283.603293 86.709296 282.772272 85.878276 
C 281.941252 85.047255 280.813988 84.580327 279.638748 84.580327 
C 278.463508 84.580327 277.336244 85.047255 276.505224 85.878276 
C 275.674204 86.709296 275.207276 87.83656 275.207276 89.0118 
C 275.207276 90.18704 275.674204 91.314304 276.505224 92.145324 
C 277.336244 92.976345 278.463508 93.443272 279.638748 93.443272 
z
" style="fill:#6fa4ff;stroke:#6fa4ff;stroke-linejoin:miter;stroke-width:1.5;"/>
   </g>
   <g id="patch_12">
    <path clip-path="url(#pd4b80b7bd5)" d="M 279.638748 229.796273 
C 280.813988 229.796273 281.941252 229.329345 282.772272 228.498324 
C 283.603293 227.667304 284.070221 226.54004 284.070221 225.3648 
C 284.070221 224.18956 283.603293 223.062296 282.772272 222.231276 
C 281.941252 221.400255 280.813988 220.933328 279.638748 220.933328 
C 278.463508 220.933328 277.336244 221.400255 276.505224 222.231276 
C 275.674204 223.062296 275.207276 224.18956 275.207276 225.3648 
C 275.207276 226.54004 275.674204 227.667304 276.505224 228.498324 
C 277.336244 229.329345 278.463508 229.796273 279.638748 229.796273 
z
" style="fill:#6fa4ff;stroke:#6fa4ff;stroke-linejoin:miter;stroke-width:1.5;"/>
   </g>
   <g id="patch_13">
    <path clip-path="url(#pd4b80b7bd5)" d="M 325.089748 47.992272 
C 326.264988 47.992272 327.392252 47.525345 328.223272 46.694324 
C 329.054293 45.863304 329.521221 44.73604 329.521221 43.5608 
C 329.521221 42.38556 329.054293 41.258296 328.223272 40.427276 
C 327.392252 39.596255 326.264988 39.129328 325.089748 39.129328 
C 323.914508 39.129328 322.787244 39.596255 321.956224 40.427276 
C 321.125204 41.258296 320.658276 42.38556 320.658276 43.5608 
C 320.658276 44.73604 321.125204 45.863304 321.956224 46.694324 
C 322.787244 47.525345 323.914508 47.992272 325.089748 47.992272 
z
" style="fill:#bb8bff;stroke:#bb8bff;stroke-linejoin:miter;stroke-width:1.5;"/>
   </g>
   <g id="patch_14">
    <path clip-path="url(#pd4b80b7bd5)" d="M 325.089748 138.894273 
C 326.264988 138.894273 327.392252 138.427345 328.223272 137.596324 
C 329.054293 136.765304 329.521221 135.63804 329.521221 134.4628 
C 329.521221 133.28756 329.054293 132.160296 328.223272 131.329276 
C 327.392252 130.498255 326.264988 130.031328 325.089748 130.031328 
C 323.914508 130.031328 322.787244 130.498255 321.956224 131.329276 
C 321.125204 132.160296 320.658276 133.28756 320.658276 134.4628 
C 320.658276 135.63804 321.125204 136.765304 321.956224 137.596324 
C 322.787244 138.427345 323.914508 138.894273 325.089748 138.894273 
z
" style="fill:#bb8bff;stroke:#bb8bff;stroke-linejoin:miter;stroke-width:1.5;"/>
   </g>
   <g id="patch_15">
    <path clip-path="url(#pd4b80b7bd5)" d="M 325.089748 235.704903 
C 327.831975 235.704903 330.462257 234.615404 332.401305 232.676357 
C 334.340352 230.737309 335.429851 228.107027 335.429851 225.3648 
C 335.429851 222.622573 334.340352 219.992291 332.401305 218.053243 
C 330.462257 216.114196 327.831975 215.024698 325.089748 215.024698 
C 322.347521 215.024698 319.717239 216.114196 317.778192 218.053243 
C 315.839144 219.992291 314.749646 222.622573 314.749646 225.3648 
C 314.749646 228.107027 315.839144 230.737309 317.778192 232.676357 
C 319.717239 234.615404 322.347521 235.704903 325.089748 235.704903 
z
" style="fill:#bb8bff;stroke:#bb8bff;stroke-linejoin:miter;stroke-width:2;"/>
   </g>
   <g id="patch_16">
    <path clip-path="url(#pd4b80b7bd5)" d="M 370.540748 47.992272 
C 371.715988 47.992272 372.843252 47.525345 373.674272 46.694324 
C 374.505293 45.863304 374.972221 44.73604 374.972221 43.5608 
C 374.972221 42.38556 374.505293 41.258296 373.674272 40.427276 
C 372.843252 39.596255 371.715988 39.129328 370.540748 39.129328 
C 369.365508 39.129328 368.238244 39.596255 367.407224 40.427276 
C 366.576204 41.258296 366.109276 42.38556 366.109276 43.5608 
C 366.109276 44.73604 366.576204 45.863304 367.407224 46.694324 
C 368.238244 47.525345 369.365508 47.992272 370.540748 47.992272 
z
" style="fill:#bb8bff;stroke:#bb8bff;stroke-linejoin:miter;stroke-width:1.5;"/>
   </g>
   <g id="patch_17">
    <path clip-path="url(#pd4b80b7bd5)" d="M 370.540748 93.443272 
C 371.715988 93.443272 372.843252 92.976345 373.674272 92.145324 
C 374.505293 91.314304 374.972221 90.18704 374.972221 89.0118 
C 374.972221 87.83656 374.505293 86.709296 373.674272 85.878276 
C 372.843252 85.047255 371.715988 84.580327 370.540748 84.580327 
C 369.365508 84.580327 368.238244 85.047255 367.407224 85.878276 
C 366.576204 86.709296 366.109276 87.83656 366.109276 89.0118 
C 366.109276 90.18704 366.576204 91.314304 367.407224 92.145324 
C 368.238244 92.976345 369.365508 93.443272 370.540748 93.443272 
z
" style="fill:#bb8bff;stroke:#bb8bff;stroke-linejoin:miter;stroke-width:1.5;"/>
   </g>
   <g id="patch_18">
    <path clip-path="url(#pd4b80b7bd5)" d="M 370.540748 235.704903 
C 373.282975 235.704903 375.913257 234.615404 377.852305 232.676357 
C 379.791352 230.737309 380.880851 228.107027 380.880851 225.3648 
C 380.880851 222.622573 379.791352 219.992291 377.852305 218.053243 
C 375.913257 216.114196 373.282975 215.024698 370.540748 215.024698 
C 367.798521 215.024698 365.168239 216.114196 363.229192 218.053243 
C 361.290144 219.992291 360.200646 222.622573 360.200646 225.3648 
C 360.200646 228.107027 361.290144 230.737309 363.229192 232.676357 
C 365.168239 234.615404 367.798521 235.704903 370.540748 235.704903 
z
" style="fill:#bb8bff;stroke:#bb8bff;stroke-linejoin:miter;stroke-width:2;"/>
   </g>
   <g id="patch_19">
    <path clip-path="url(#pd4b80b7bd5)" d="M 415.991748 184.345273 
C 417.166988 184.345273 418.294252 183.878345 419.125272 183.047324 
C 419.956293 182.216304 420.423221 181.08904 420.423221 179.9138 
C 420.423221 178.73856 419.956293 177.611296 419.125272 176.780276 
C 418.294252 175.949255 417.166988 175.482327 415.991748 175.482327 
C 414.816508 175.482327 413.689244 175.949255 412.858224 176.780276 
C 412.027204 177.611296 411.560276 178.73856 411.560276 179.9138 
C 411.560276 181.08904 412.027204 182.216304 412.858224 183.047324 
C 413.689244 183.878345 414.816508 184.345273 415.991748 184.345273 
z
" style="fill:#6fa4ff;stroke:#6fa4ff;stroke-linejoin:miter;stroke-width:1.5;"/>
   </g>
   <g id="patch_20">
    <path clip-path="url(#pd4b80b7bd5)" d="M 415.991748 229.796273 
C 417.166988 229.796273 418.294252 229.329345 419.125272 228.498324 
C 419.956293 227.667304 420.423221 226.54004 420.423221 225.3648 
C 420.423221 224.18956 419.956293 223.062296 419.125272 222.231276 
C 418.294252 221.400255 417.166988 220.933328 415.991748 220.933328 
C 414.816508 220.933328 413.689244 221.400255 412.858224 222.231276 
C 412.027204 223.062296 411.560276 224.18956 411.560276 225.3648 
C 411.560276 226.54004 412.027204 227.667304 412.858224 228.498324 
C 413.689244 229.329345 414.816508 229.796273 415.991748 229.796273 
z
" style="fill:#6fa4ff;stroke:#6fa4ff;stroke-linejoin:miter;stroke-width:1.5;"/>
   </g>
   <g id="patch_21">
    <path clip-path="url(#pd4b80b7bd5)" d="M 461.442748 47.992272 
C 462.617988 47.992272 463.745252 47.525345 464.576272 46.694324 
C 465.407293 45.863304 465.874221 44.73604 465.874221 43.5608 
C 465.874221 42.38556 465.407293 41.258296 464.576272 40.427276 
C 463.745252 39.596255 462.617988 39.129328 461.442748 39.129328 
C 460.267508 39.129328 459.140244 39.596255 458.309224 40.427276 
C 457.478204 41.258296 457.011276 42.38556 457.011276 43.5608 
C 457.011276 44.73604 457.478204 45.863304 458.309224 46.694324 
C 459.140244 47.525345 460.267508 47.992272 461.442748 47.992272 
z
" style="fill:#bb8bff;stroke:#bb8bff;stroke-linejoin:miter;stroke-width:1.5;"/>
   </g>
   <g id="patch_22">
    <path clip-path="url(#pd4b80b7bd5)" d="M 461.442748 93.443272 
C 462.617988 93.443272 463.745252 92.976345 464.576272 92.145324 
C 465.407293 91.314304 465.874221 90.18704 465.874221 89.0118 
C 465.874221 87.83656 465.407293 86.709296 464.576272 85.878276 
C 463.745252 85.047255 462.617988 84.580327 461.442748 84.580327 
C 460.267508 84.580327 459.140244 85.047255 458.309224 85.878276 
C 457.478204 86.709296 457.011276 87.83656 457.011276 89.0118 
C 457.011276 90.18704 457.478204 91.314304 458.309224 92.145324 
C 459.140244 92.976345 460.267508 93.443272 461.442748 93.443272 
z
" style="fill:#bb8bff;stroke:#bb8bff;stroke-linejoin:miter;stroke-width:1.5;"/>
   </g>
   <g id="patch_23">
    <path clip-path="url(#pd4b80b7bd5)" d="M 461.442748 235.704903 
C 464.184975 235.704903 466.815257 234.615404 468.754305 232.676357 
C 470.693352 230.737309 471.782851 228.107027 471.782851 225.3648 
C 471.782851 222.622573 470.693352 219.992291 468.754305 218.053243 
C 466.815257 216.114196 464.184975 215.024698 461.442748 215.024698 
C 458.700521 215.024698 456.070239 216.114196 454.131192 218.053243 
C 452.192144 219.992291 451.102646 222.622573 451.102646 225.3648 
C 451.102646 228.107027 452.192144 230.737309 454.131192 232.676357 
C 456.070239 234.615404 458.700521 235.704903 461.442748 235.704903 
z
" style="fill:#bb8bff;stroke:#bb8bff;stroke-linejoin:miter;stroke-width:2;"/>
   </g>
   <g id="patch_24">
    <path clip-path="url(#pd4b80b7bd5)" d="M 506.893748 47.992272 
C 508.068988 47.992272 509.196252 47.525345 510.027272 46.694324 
C 510.858293 45.863304 511.325221 44.73604 511.325221 43.5608 
C 511.325221 42.38556 510.858293 41.258296 510.027272 40.427276 
C 509.196252 39.596255 508.068988 39.129328 506.893748 39.129328 
C 505.718508 39.129328 504.591244 39.596255 503.760224 40.427276 
C 502.929204 41.258296 502.462276 42.38556 502.462276 43.5608 
C 502.462276 44.73604 502.929204 45.863304 503.760224 46.694324 
C 504.591244 47.525345 505.718508 47.992272 506.893748 47.992272 
z
" style="fill:#bb8bff;stroke:#bb8bff;stroke-linejoin:miter;stroke-width:1.5;"/>
   </g>
   <g id="patch_25">
    <path clip-path="url(#pd4b80b7bd5)" d="M 492.122173 103.783375 
L 521.665323 103.783375 
L 521.665323 74.240225 
L 492.122173 74.240225 
z
" style="fill:#bb8bff;stroke:#bb8bff;stroke-linejoin:miter;stroke-width:1.5;"/>
   </g>
   <g id="patch_26">
    <path clip-path="url(#pd4b80b7bd5)" d="M 552.344748 47.992272 
C 553.519988 47.992272 554.647252 47.525345 555.478272 46.694324 
C 556.309293 45.863304 556.776221 44.73604 556.776221 43.5608 
C 556.776221 42.38556 556.309293 41.258296 555.478272 40.427276 
C 554.647252 39.596255 553.519988 39.129328 552.344748 39.129328 
C 551.169508 39.129328 550.042244 39.596255 549.211224 40.427276 
C 548.380204 41.258296 547.913276 42.38556 547.913276 43.5608 
C 547.913276 44.73604 548.380204 45.863304 549.211224 46.694324 
C 550.042244 47.525345 551.169508 47.992272 552.344748 47.992272 
z
" style="fill:#bb8bff;stroke:#bb8bff;stroke-linejoin:miter;stroke-width:1.5;"/>
   </g>
   <g id="patch_27">
    <path clip-path="url(#pd4b80b7bd5)" d="M 537.573173 149.234375 
L 567.116323 149.234375 
L 567.116323 119.691225 
L 537.573173 119.691225 
z
" style="fill:#bb8bff;stroke:#bb8bff;stroke-linejoin:miter;stroke-width:1.5;"/>
   </g>
   <g id="patch_28">
    <path clip-path="url(#pd4b80b7bd5)" d="M 597.795748 47.992272 
C 598.970988 47.992272 600.098252 47.525345 600.929272 46.694324 
C 601.760293 45.863304 602.227221 44.73604 602.227221 43.5608 
C 602.227221 42.38556 601.760293 41.258296 600.929272 40.427276 
C 600.098252 39.596255 598.970988 39.129328 597.795748 39.129328 
C 596.620508 39.129328 595.493244 39.596255 594.662224 40.427276 
C 593.831204 41.258296 593.364276 42.38556 593.364276 43.5608 
C 593.364276 44.73604 593.831204 45.863304 594.662224 46.694324 
C 595.493244 47.525345 596.620508 47.992272 597.795748 47.992272 
z
" style="fill:#bb8bff;stroke:#bb8bff;stroke-linejoin:miter;stroke-width:1.5;"/>
   </g>
   <g id="patch_29">
    <path clip-path="url(#pd4b80b7bd5)" d="M 583.024173 194.685375 
L 612.567323 194.685375 
L 612.567323 165.142225 
L 583.024173 165.142225 
z
" style="fill:#bb8bff;stroke:#bb8bff;stroke-linejoin:miter;stroke-width:1.5;"/>
   </g>
   <g id="patch_30">
    <path clip-path="url(#pd4b80b7bd5)" d="M 643.246748 47.992272 
C 644.421988 47.992272 645.549252 47.525345 646.380272 46.694324 
C 647.211293 45.863304 647.678221 44.73604 647.678221 43.5608 
C 647.678221 42.38556 647.211293 41.258296 646.380272 40.427276 
C 645.549252 39.596255 644.421988 39.129328 643.246748 39.129328 
C 642.071508 39.129328 640.944244 39.596255 640.113224 40.427276 
C 639.282204 41.258296 638.815276 42.38556 638.815276 43.5608 
C 638.815276 44.73604 639.282204 45.863304 640.113224 46.694324 
C 640.944244 47.525345 642.071508 47.992272 643.246748 47.992272 
z
" style="fill:#bb8bff;stroke:#bb8bff;stroke-linejoin:miter;stroke-width:1.5;"/>
   </g>
   <g id="patch_31">
    <path clip-path="url(#pd4b80b7bd5)" d="M 643.246748 184.345273 
C 644.421988 184.345273 645.549252 183.878345 646.380272 183.047324 
C 647.211293 182.216304 647.678221 181.08904 647.678221 179.9138 
C 647.678221 178.73856 647.211293 177.611296 646.380272 176.780276 
C 645.549252 175.949255 644.421988 175.482327 643.246748 175.482327 
C 642.071508 175.482327 640.944244 175.949255 640.113224 176.780276 
C 639.282204 177.611296 638.815276 178.73856 638.815276 179.9138 
C 638.815276 181.08904 639.282204 182.216304 640.113224 183.047324 
C 640.944244 183.878345 642.071508 184.345273 643.246748 184.345273 
z
" style="fill:#bb8bff;stroke:#bb8bff;stroke-linejoin:miter;stroke-width:1.5;"/>
   </g>
   <g id="patch_32">
    <path clip-path="url(#pd4b80b7bd5)" d="M 643.246748 235.704903 
C 645.988975 235.704903 648.619257 234.615404 650.558305 232.676357 
C 652.497352 230.737309 653.586851 228.107027 653.586851 225.3648 
C 653.586851 222.622573 652.497352 219.992291 650.558305 218.053243 
C 648.619257 216.114196 645.988975 215.024698 643.246748 215.024698 
C 640.504521 215.024698 637.874239 216.114196 635.935192 218.053243 
C 633.996144 219.992291 632.906646 222.622573 632.906646 225.3648 
C 632.906646 228.107027 633.996144 230.737309 635.935192 232.676357 
C 637.874239 234.615404 640.504521 235.704903 643.246748 235.704903 
z
" style="fill:#bb8bff;stroke:#bb8bff;stroke-linejoin:miter;stroke-width:2;"/>
   </g>
   <g id="patch_33">
    <path clip-path="url(#pd4b80b7bd5)" d="M 688.697748 138.894273 
C 689.872988 138.894273 691.000252 138.427345 691.831272 137.596324 
C 692.662293 136.765304 693.129221 135.63804 693.129221 134.4628 
C 693.129221 133.28756 692.662293 132.160296 691.831272 131.329276 
C 691.000252 130.498255 689.872988 130.031328 688.697748 130.031328 
C 687.522508 130.031328 686.395244 130.498255 685.564224 131.329276 
C 684.733204 132.160296 684.266276 133.28756 684.266276 134.4628 
C 684.266276 135.63804 684.733204 136.765304 685.564224 137.596324 
C 686.395244 138.427345 687.522508 138.894273 688.697748 138.894273 
z
" style="fill:#6fa4ff;stroke:#6fa4ff;stroke-linejoin:miter;stroke-width:1.5;"/>
   </g>
   <g id="patch_34">
    <path clip-path="url(#pd4b80b7bd5)" d="M 688.697748 229.796273 
C 689.872988 229.796273 691.000252 229.329345 691.831272 228.498324 
C 692.662293 227.667304 693.129221 226.54004 693.129221 225.3648 
C 693.129221 224.18956 692.662293 223.062296 691.831272 222.231276 
C 691.000252 221.400255 689.872988 220.933328 688.697748 220.933328 
C 687.522508 220.933328 686.395244 221.400255 685.564224 222.231276 
C 684.733204 223.062296 684.266276 224.18956 684.266276 225.3648 
C 684.266276 226.54004 684.733204 227.667304 685.564224 228.498324 
C 686.395244 229.329345 687.522508 229.796273 688.697748 229.796273 
z
" style="fill:#6fa4ff;stroke:#6fa4ff;stroke-linejoin:miter;stroke-width:1.5;"/>
   </g>
   <g id="patch_35">
    <path clip-path="url(#pd4b80b7bd5)" d="M 734.148748 47.992272 
C 735.323988 47.992272 736.451252 47.525345 737.282272 46.694324 
C 738.113293 45.863304 738.580221 44.73604 738.580221 43.5608 
C 738.580221 42.38556 738.113293 41.258296 737.282272 40.427276 
C 736.451252 39.596255 735.323988 39.129328 734.148748 39.129328 
C 732.973508 39.129328 731.846244 39.596255 731.015224 40.427276 
C 730.184204 41.258296 729.717276 42.38556 729.717276 43.5608 
C 729.717276 44.73604 730.184204 45.863304 731.015224 46.694324 
C 731.846244 47.525345 732.973508 47.992272 734.148748 47.992272 
z
" style="fill:#bb8bff;stroke:#bb8bff;stroke-linejoin:miter;stroke-width:1.5;"/>
   </g>
   <g id="patch_36">
    <path clip-path="url(#pd4b80b7bd5)" d="M 734.148748 184.345273 
C 735.323988 184.345273 736.451252 183.878345 737.282272 183.047324 
C 738.113293 182.216304 738.580221 181.08904 738.580221 179.9138 
C 738.580221 178.73856 738.113293 177.611296 737.282272 176.780276 
C 736.451252 175.949255 735.323988 175.482327 734.148748 175.482327 
C 732.973508 175.482327 731.846244 175.949255 731.015224 176.780276 
C 730.184204 177.611296 729.717276 178.73856 729.717276 179.9138 
C 729.717276 181.08904 730.184204 182.216304 731.015224 183.047324 
C 731.846244 183.878345 732.973508 184.345273 734.148748 184.345273 
z
" style="fill:#bb8bff;stroke:#bb8bff;stroke-linejoin:miter;stroke-width:1.5;"/>
   </g>
   <g id="patch_37">
    <path clip-path="url(#pd4b80b7bd5)" d="M 734.148748 235.704903 
C 736.890975 235.704903 739.521257 234.615404 741.460305 232.676357 
C 743.399352 230.737309 744.488851 228.107027 744.488851 225.3648 
C 744.488851 222.622573 743.399352 219.992291 741.460305 218.053243 
C 739.521257 216.114196 736.890975 215.024698 734.148748 215.024698 
C 731.406521 215.024698 728.776239 216.114196 726.837192 218.053243 
C 724.898144 219.992291 723.808646 222.622573 723.808646 225.3648 
C 723.808646 228.107027 724.898144 230.737309 726.837192 232.676357 
C 728.776239 234.615404 731.406521 235.704903 734.148748 235.704903 
z
" style="fill:#bb8bff;stroke:#bb8bff;stroke-linejoin:miter;stroke-width:2;"/>
   </g>
   <g id="patch_38">
    <path clip-path="url(#pd4b80b7bd5)" d="M 779.599748 47.992272 
C 780.774988 47.992272 781.902252 47.525345 782.733272 46.694324 
C 783.564293 45.863304 784.031221 44.73604 784.031221 43.5608 
C 784.031221 42.38556 783.564293 41.258296 782.733272 40.427276 
C 781.902252 39.596255 780.774988 39.129328 779.599748 39.129328 
C 778.424508 39.129328 777.297244 39.596255 776.466224 40.427276 
C 775.635204 41.258296 775.168276 42.38556 775.168276 43.5608 
C 775.168276 44.73604 775.635204 45.863304 776.466224 46.694324 
C 777.297244 47.525345 778.424508 47.992272 779.599748 47.992272 
z
" style="fill:#bb8bff;stroke:#bb8bff;stroke-linejoin:miter;stroke-width:1.5;"/>
   </g>
   <g id="patch_39">
    <path clip-path="url(#pd4b80b7bd5)" d="M 779.599748 93.443272 
C 780.774988 93.443272 781.902252 92.976345 782.733272 92.145324 
C 783.564293 91.314304 784.031221 90.18704 784.031221 89.0118 
C 784.031221 87.83656 783.564293 86.709296 782.733272 85.878276 
C 781.902252 85.047255 780.774988 84.580327 779.599748 84.580327 
C 778.424508 84.580327 777.297244 85.047255 776.466224 85.878276 
C 775.635204 86.709296 775.168276 87.83656 775.168276 89.0118 
C 775.168276 90.18704 775.635204 91.314304 776.466224 92.145324 
C 777.297244 92.976345 778.424508 93.443272 779.599748 93.443272 
z
" style="fill:#bb8bff;stroke:#bb8bff;stroke-linejoin:miter;stroke-width:1.5;"/>
   </g>
   <g id="patch_40">
    <path clip-path="url(#pd4b80b7bd5)" d="M 779.599748 235.704903 
C 782.341975 235.704903 784.972257 234.615404 786.911305 232.676357 
C 788.850352 230.737309 789.939851 228.107027 789.939851 225.3648 
C 789.939851 222.622573 788.850352 219.992291 786.911305 218.053243 
C 784.972257 216.114196 782.341975 215.024698 779.599748 215.024698 
C 776.857521 215.024698 774.227239 216.114196 772.288192 218.053243 
C 770.349144 219.992291 769.259646 222.622573 769.259646 225.3648 
C 769.259646 228.107027 770.349144 230.737309 772.288192 232.676357 
C 774.227239 234.615404 776.857521 235.704903 779.599748 235.704903 
z
" style="fill:#bb8bff;stroke:#bb8bff;stroke-linejoin:miter;stroke-width:2;"/>
   </g>
   <g id="patch_41">
    <path clip-path="url(#pd4b80b7bd5)" d="M 825.050748 184.345273 
C 826.225988 184.345273 827.353252 183.878345 828.184272 183.047324 
C 829.015293 182.216304 829.482221 181.08904 829.482221 179.9138 
C 829.482221 178.73856 829.015293 177.611296 828.184272 176.780276 
C 827.353252 175.949255 826.225988 175.482327 825.050748 175.482327 
C 823.875508 175.482327 822.748244 175.949255 821.917224 176.780276 
C 821.086204 177.611296 820.619276 178.73856 820.619276 179.9138 
C 820.619276 181.08904 821.086204 182.216304 821.917224 183.047324 
C 822.748244 183.878345 823.875508 184.345273 825.050748 184.345273 
z
" style="fill:#6fa4ff;stroke:#6fa4ff;stroke-linejoin:miter;stroke-width:1.5;"/>
   </g>
   <g id="patch_42">
    <path clip-path="url(#pd4b80b7bd5)" d="M 825.050748 229.796273 
C 826.225988 229.796273 827.353252 229.329345 828.184272 228.498324 
C 829.015293 227.667304 829.482221 226.54004 829.482221 225.3648 
C 829.482221 224.18956 829.015293 223.062296 828.184272 222.231276 
C 827.353252 221.400255 826.225988 220.933328 825.050748 220.933328 
C 823.875508 220.933328 822.748244 221.400255 821.917224 222.231276 
C 821.086204 223.062296 820.619276 224.18956 820.619276 225.3648 
C 820.619276 226.54004 821.086204 227.667304 821.917224 228.498324 
C 822.748244 229.329345 823.875508 229.796273 825.050748 229.796273 
z
" style="fill:#6fa4ff;stroke:#6fa4ff;stroke-linejoin:miter;stroke-width:1.5;"/>
   </g>
   <g id="patch_43">
    <path clip-path="url(#pd4b80b7bd5)" d="M 870.501748 47.992272 
C 871.676988 47.992272 872.804252 47.525345 873.635272 46.694324 
C 874.466293 45.863304 874.933221 44.73604 874.933221 43.5608 
C 874.933221 42.38556 874.466293 41.258296 873.635272 40.427276 
C 872.804252 39.596255 871.676988 39.129328 870.501748 39.129328 
C 869.326508 39.129328 868.199244 39.596255 867.368224 40.427276 
C 866.537204 41.258296 866.070276 42.38556 866.070276 43.5608 
C 866.070276 44.73604 866.537204 45.863304 867.368224 46.694324 
C 868.199244 47.525345 869.326508 47.992272 870.501748 47.992272 
z
" style="fill:#bb8bff;stroke:#bb8bff;stroke-linejoin:miter;stroke-width:1.5;"/>
   </g>
   <g id="patch_44">
    <path clip-path="url(#pd4b80b7bd5)" d="M 870.501748 93.443272 
C 871.676988 93.443272 872.804252 92.976345 873.635272 92.145324 
C 874.466293 91.314304 874.933221 90.18704 874.933221 89.0118 
C 874.933221 87.83656 874.466293 86.709296 873.635272 85.878276 
C 872.804252 85.047255 871.676988 84.580327 870.501748 84.580327 
C 869.326508 84.580327 868.199244 85.047255 867.368224 85.878276 
C 866.537204 86.709296 866.070276 87.83656 866.070276 89.0118 
C 866.070276 90.18704 866.537204 91.314304 867.368224 92.145324 
C 868.199244 92.976345 869.326508 93.443272 870.501748 93.443272 
z
" style="fill:#bb8bff;stroke:#bb8bff;stroke-linejoin:miter;stroke-width:1.5;"/>
   </g>
   <g id="patch_45">
    <path clip-path="url(#pd4b80b7bd5)" d="M 870.501748 235.704903 
C 873.243975 235.704903 875.874257 234.615404 877.813305 232.676357 
C 879.752352 230.737309 880.841851 228.107027 880.841851 225.3648 
C 880.841851 222.622573 879.752352 219.992291 877.813305 218.053243 
C 875.874257 216.114196 873.243975 215.024698 870.501748 215.024698 
C 867.759521 215.024698 865.129239 216.114196 863.190192 218.053243 
C 861.251144 219.992291 860.161646 222.622573 860.161646 225.3648 
C 860.161646 228.107027 861.251144 230.737309 863.190192 232.676357 
C 865.129239 234.615404 867.759521 235.704903 870.501748 235.704903 
z
" style="fill:#bb8bff;stroke:#bb8bff;stroke-linejoin:miter;stroke-width:2;"/>
   </g>
   <g id="patch_46">
    <path clip-path="url(#pd4b80b7bd5)" d="M 915.952748 47.992272 
C 917.127988 47.992272 918.255252 47.525345 919.086272 46.694324 
C 919.917293 45.863304 920.384221 44.73604 920.384221 43.5608 
C 920.384221 42.38556 919.917293 41.258296 919.086272 40.427276 
C 918.255252 39.596255 917.127988 39.129328 915.952748 39.129328 
C 914.777508 39.129328 913.650244 39.596255 912.819224 40.427276 
C 911.988204 41.258296 911.521276 42.38556 911.521276 43.5608 
C 911.521276 44.73604 911.988204 45.863304 912.819224 46.694324 
C 913.650244 47.525345 914.777508 47.992272 915.952748 47.992272 
z
" style="fill:#bb8bff;stroke:#bb8bff;stroke-linejoin:miter;stroke-width:1.5;"/>
   </g>
   <g id="patch_47">
    <path clip-path="url(#pd4b80b7bd5)" d="M 901.181173 103.783375 
L 930.724323 103.783375 
L 930.724323 74.240225 
L 901.181173 74.240225 
z
" style="fill:#bb8bff;stroke:#bb8bff;stroke-linejoin:miter;stroke-width:1.5;"/>
   </g>
   <g id="patch_48">
    <path clip-path="url(#pd4b80b7bd5)" d="M 961.403748 47.992272 
C 962.578988 47.992272 963.706252 47.525345 964.537272 46.694324 
C 965.368293 45.863304 965.835221 44.73604 965.835221 43.5608 
C 965.835221 42.38556 965.368293 41.258296 964.537272 40.427276 
C 963.706252 39.596255 962.578988 39.129328 961.403748 39.129328 
C 960.228508 39.129328 959.101244 39.596255 958.270224 40.427276 
C 957.439204 41.258296 956.972276 42.38556 956.972276 43.5608 
C 956.972276 44.73604 957.439204 45.863304 958.270224 46.694324 
C 959.101244 47.525345 960.228508 47.992272 961.403748 47.992272 
z
" style="fill:#bb8bff;stroke:#bb8bff;stroke-linejoin:miter;stroke-width:1.5;"/>
   </g>
   <g id="patch_49">
    <path clip-path="url(#pd4b80b7bd5)" d="M 946.632173 149.234375 
L 976.175323 149.234375 
L 976.175323 119.691225 
L 946.632173 119.691225 
z
" style="fill:#bb8bff;stroke:#bb8bff;stroke-linejoin:miter;stroke-width:1.5;"/>
   </g>
   <g id="patch_50">
    <path clip-path="url(#pd4b80b7bd5)" d="M 1006.854748 47.992272 
C 1008.029988 47.992272 1009.157252 47.525345 1009.988272 46.694324 
C 1010.819293 45.863304 1011.286221 44.73604 1011.286221 43.5608 
C 1011.286221 42.38556 1010.819293 41.258296 1009.988272 40.427276 
C 1009.157252 39.596255 1008.029988 39.129328 1006.854748 39.129328 
C 1005.679508 39.129328 1004.552244 39.596255 1003.721224 40.427276 
C 1002.890204 41.258296 1002.423276 42.38556 1002.423276 43.5608 
C 1002.423276 44.73604 1002.890204 45.863304 1003.721224 46.694324 
C 1004.552244 47.525345 1005.679508 47.992272 1006.854748 47.992272 
z
" style="fill:#bb8bff;stroke:#bb8bff;stroke-linejoin:miter;stroke-width:1.5;"/>
   </g>
   <g id="patch_51">
    <path clip-path="url(#pd4b80b7bd5)" d="M 992.083173 194.685375 
L 1021.626323 194.685375 
L 1021.626323 165.142225 
L 992.083173 165.142225 
z
" style="fill:#bb8bff;stroke:#bb8bff;stroke-linejoin:miter;stroke-width:1.5;"/>
   </g>
   <g id="line2d_27">
    <path clip-path="url(#pd4b80b7bd5)" d="M 234.187748 231.27343 
L 234.187748 219.45617 
" style="fill:none;stroke:#ffffff;stroke-linecap:square;stroke-width:2;"/>
   </g>
   <g id="line2d_28">
    <path clip-path="url(#pd4b80b7bd5)" d="M 228.279118 225.3648 
L 240.096378 225.3648 
" style="fill:none;stroke:#ffffff;stroke-linecap:square;stroke-width:2;"/>
   </g>
   <g id="line2d_29">
    <path clip-path="url(#pd4b80b7bd5)" d="M 325.089748 231.27343 
L 325.089748 219.45617 
" style="fill:none;stroke:#ffffff;stroke-linecap:square;stroke-width:2;"/>
   </g>
   <g id="line2d_30">
    <path clip-path="url(#pd4b80b7bd5)" d="M 319.181118 225.3648 
L 330.998378 225.3648 
" style="fill:none;stroke:#ffffff;stroke-linecap:square;stroke-width:2;"/>
   </g>
   <g id="line2d_31">
    <path clip-path="url(#pd4b80b7bd5)" d="M 370.540748 231.27343 
L 370.540748 219.45617 
" style="fill:none;stroke:#ffffff;stroke-linecap:square;stroke-width:2;"/>
   </g>
   <g id="line2d_32">
    <path clip-path="url(#pd4b80b7bd5)" d="M 364.632118 225.3648 
L 376.449378 225.3648 
" style="fill:none;stroke:#ffffff;stroke-linecap:square;stroke-width:2;"/>
   </g>
   <g id="line2d_33">
    <path clip-path="url(#pd4b80b7bd5)" d="M 461.442748 231.27343 
L 461.442748 219.45617 
" style="fill:none;stroke:#ffffff;stroke-linecap:square;stroke-width:2;"/>
   </g>
   <g id="line2d_34">
    <path clip-path="url(#pd4b80b7bd5)" d="M 455.534118 225.3648 
L 467.351378 225.3648 
" style="fill:none;stroke:#ffffff;stroke-linecap:square;stroke-width:2;"/>
   </g>
   <g id="line2d_35">
    <path clip-path="url(#pd4b80b7bd5)" d="M 643.246748 231.27343 
L 643.246748 219.45617 
" style="fill:none;stroke:#ffffff;stroke-linecap:square;stroke-width:2;"/>
   </g>
   <g id="line2d_36">
    <path clip-path="url(#pd4b80b7bd5)" d="M 637.338118 225.3648 
L 649.155378 225.3648 
" style="fill:none;stroke:#ffffff;stroke-linecap:square;stroke-width:2;"/>
   </g>
   <g id="line2d_37">
    <path clip-path="url(#pd4b80b7bd5)" d="M 734.148748 231.27343 
L 734.148748 219.45617 
" style="fill:none;stroke:#ffffff;stroke-linecap:square;stroke-width:2;"/>
   </g>
   <g id="line2d_38">
    <path clip-path="url(#pd4b80b7bd5)" d="M 728.240118 225.3648 
L 740.057378 225.3648 
" style="fill:none;stroke:#ffffff;stroke-linecap:square;stroke-width:2;"/>
   </g>
   <g id="line2d_39">
    <path clip-path="url(#pd4b80b7bd5)" d="M 779.599748 231.27343 
L 779.599748 219.45617 
" style="fill:none;stroke:#ffffff;stroke-linecap:square;stroke-width:2;"/>
   </g>
   <g id="line2d_40">
    <path clip-path="url(#pd4b80b7bd5)" d="M 773.691118 225.3648 
L 785.508378 225.3648 
" style="fill:none;stroke:#ffffff;stroke-linecap:square;stroke-width:2;"/>
   </g>
   <g id="line2d_41">
    <path clip-path="url(#pd4b80b7bd5)" d="M 870.501748 231.27343 
L 870.501748 219.45617 
" style="fill:none;stroke:#ffffff;stroke-linecap:square;stroke-width:2;"/>
   </g>
   <g id="line2d_42">
    <path clip-path="url(#pd4b80b7bd5)" d="M 864.593118 225.3648 
L 876.410378 225.3648 
" style="fill:none;stroke:#ffffff;stroke-linecap:square;stroke-width:2;"/>
   </g>
   <g id="text_1">
    <g clip-path="url(#pd4b80b7bd5)">
     <!-- $\mathrm{R}_\mathrm{Y}$ -->
     <defs>
      <path d="M 44.390625 34.1875 
Q 47.5625 33.109375 50.5625 29.59375 
Q 53.5625 26.078125 56.59375 19.921875 
L 66.609375 0 
L 56 0 
L 46.6875 18.703125 
Q 43.0625 26.03125 39.671875 28.421875 
Q 36.28125 30.8125 30.421875 30.8125 
L 19.671875 30.8125 
L 19.671875 0 
L 9.8125 0 
L 9.8125 72.90625 
L 32.078125 72.90625 
Q 44.578125 72.90625 50.734375 67.671875 
Q 56.890625 62.453125 56.890625 51.90625 
Q 56.890625 45.015625 53.6875 40.46875 
Q 50.484375 35.9375 44.390625 34.1875 
z
M 19.671875 64.796875 
L 19.671875 38.921875 
L 32.078125 38.921875 
Q 39.203125 38.921875 42.84375 42.21875 
Q 46.484375 45.515625 46.484375 51.90625 
Q 46.484375 58.296875 42.84375 61.546875 
Q 39.203125 64.796875 32.078125 64.796875 
z
" id="DejaVuSans-82"/>
      <path d="M -0.203125 72.90625 
L 10.40625 72.90625 
L 30.609375 42.921875 
L 50.6875 72.90625 
L 61.28125 72.90625 
L 35.5 34.71875 
L 35.5 0 
L 25.59375 0 
L 25.59375 34.71875 
z
" id="DejaVuSans-89"/>
     </defs>
     <g transform="translate(90.294748 88.167515)scale(0.13 -0.13)">
      <use transform="translate(0 0.09375)" xlink:href="#DejaVuSans-82"/>
      <use transform="translate(70.439453 -16.3125)scale(0.7)" xlink:href="#DejaVuSans-89"/>
     </g>
    </g>
   </g>
   <g id="text_2">
    <g clip-path="url(#pd4b80b7bd5)">
     <!-- 1 -->
     <defs>
      <path d="M 12.40625 8.296875 
L 28.515625 8.296875 
L 28.515625 63.921875 
L 10.984375 60.40625 
L 10.984375 69.390625 
L 28.421875 72.90625 
L 38.28125 72.90625 
L 38.28125 8.296875 
L 54.390625 8.296875 
L 54.390625 0 
L 12.40625 0 
z
" id="DejaVuSans-49"/>
     </defs>
     <g transform="translate(95.289748 100.082245)scale(0.08 -0.08)">
      <use xlink:href="#DejaVuSans-49"/>
     </g>
    </g>
   </g>
   <g id="text_3">
    <g clip-path="url(#pd4b80b7bd5)">
     <!-- $\mathrm{R}_\mathrm{Y}$ -->
     <g transform="translate(135.745748 133.618515)scale(0.13 -0.13)">
      <use transform="translate(0 0.09375)" xlink:href="#DejaVuSans-82"/>
      <use transform="translate(70.439453 -16.3125)scale(0.7)" xlink:href="#DejaVuSans-89"/>
     </g>
    </g>
   </g>
   <g id="text_4">
    <g clip-path="url(#pd4b80b7bd5)">
     <!-- 1 -->
     <g transform="translate(140.740748 145.533245)scale(0.08 -0.08)">
      <use xlink:href="#DejaVuSans-49"/>
     </g>
    </g>
   </g>
   <g id="text_5">
    <g clip-path="url(#pd4b80b7bd5)">
     <!-- $\mathrm{R}_\mathrm{Y}$ -->
     <g transform="translate(181.196748 179.069515)scale(0.13 -0.13)">
      <use transform="translate(0 0.09375)" xlink:href="#DejaVuSans-82"/>
      <use transform="translate(70.439453 -16.3125)scale(0.7)" xlink:href="#DejaVuSans-89"/>
     </g>
    </g>
   </g>
   <g id="text_6">
    <g clip-path="url(#pd4b80b7bd5)">
     <!-- 1 -->
     <g transform="translate(186.191748 190.984245)scale(0.08 -0.08)">
      <use xlink:href="#DejaVuSans-49"/>
     </g>
    </g>
   </g>
   <g id="text_7">
    <g clip-path="url(#pd4b80b7bd5)">
     <!-- $\mathrm{R}_\mathrm{Y}$ -->
     <g transform="translate(499.353748 88.167515)scale(0.13 -0.13)">
      <use transform="translate(0 0.09375)" xlink:href="#DejaVuSans-82"/>
      <use transform="translate(70.439453 -16.3125)scale(0.7)" xlink:href="#DejaVuSans-89"/>
     </g>
    </g>
   </g>
   <g id="text_8">
    <g clip-path="url(#pd4b80b7bd5)">
     <!-- 1 -->
     <g transform="translate(504.348748 100.082245)scale(0.08 -0.08)">
      <use xlink:href="#DejaVuSans-49"/>
     </g>
    </g>
   </g>
   <g id="text_9">
    <g clip-path="url(#pd4b80b7bd5)">
     <!-- $\mathrm{R}_\mathrm{Y}$ -->
     <g transform="translate(544.804748 133.618515)scale(0.13 -0.13)">
      <use transform="translate(0 0.09375)" xlink:href="#DejaVuSans-82"/>
      <use transform="translate(70.439453 -16.3125)scale(0.7)" xlink:href="#DejaVuSans-89"/>
     </g>
    </g>
   </g>
   <g id="text_10">
    <g clip-path="url(#pd4b80b7bd5)">
     <!-- 1 -->
     <g transform="translate(549.799748 145.533245)scale(0.08 -0.08)">
      <use xlink:href="#DejaVuSans-49"/>
     </g>
    </g>
   </g>
   <g id="text_11">
    <g clip-path="url(#pd4b80b7bd5)">
     <!-- $\mathrm{R}_\mathrm{Y}$ -->
     <g transform="translate(590.255748 179.069515)scale(0.13 -0.13)">
      <use transform="translate(0 0.09375)" xlink:href="#DejaVuSans-82"/>
      <use transform="translate(70.439453 -16.3125)scale(0.7)" xlink:href="#DejaVuSans-89"/>
     </g>
    </g>
   </g>
   <g id="text_12">
    <g clip-path="url(#pd4b80b7bd5)">
     <!-- 1 -->
     <g transform="translate(595.250748 190.984245)scale(0.08 -0.08)">
      <use xlink:href="#DejaVuSans-49"/>
     </g>
    </g>
   </g>
   <g id="text_13">
    <g clip-path="url(#pd4b80b7bd5)">
     <!-- $\mathrm{R}_\mathrm{Y}$ -->
     <g transform="translate(908.412748 88.167515)scale(0.13 -0.13)">
      <use transform="translate(0 0.09375)" xlink:href="#DejaVuSans-82"/>
      <use transform="translate(70.439453 -16.3125)scale(0.7)" xlink:href="#DejaVuSans-89"/>
     </g>
    </g>
   </g>
   <g id="text_14">
    <g clip-path="url(#pd4b80b7bd5)">
     <!-- 1 -->
     <g transform="translate(913.407748 100.082245)scale(0.08 -0.08)">
      <use xlink:href="#DejaVuSans-49"/>
     </g>
    </g>
   </g>
   <g id="text_15">
    <g clip-path="url(#pd4b80b7bd5)">
     <!-- $\mathrm{R}_\mathrm{Y}$ -->
     <g transform="translate(953.863748 133.618515)scale(0.13 -0.13)">
      <use transform="translate(0 0.09375)" xlink:href="#DejaVuSans-82"/>
      <use transform="translate(70.439453 -16.3125)scale(0.7)" xlink:href="#DejaVuSans-89"/>
     </g>
    </g>
   </g>
   <g id="text_16">
    <g clip-path="url(#pd4b80b7bd5)">
     <!-- 1 -->
     <g transform="translate(958.858748 145.533245)scale(0.08 -0.08)">
      <use xlink:href="#DejaVuSans-49"/>
     </g>
    </g>
   </g>
   <g id="text_17">
    <g clip-path="url(#pd4b80b7bd5)">
     <!-- $\mathrm{R}_\mathrm{Y}$ -->
     <g transform="translate(999.314748 179.069515)scale(0.13 -0.13)">
      <use transform="translate(0 0.09375)" xlink:href="#DejaVuSans-82"/>
      <use transform="translate(70.439453 -16.3125)scale(0.7)" xlink:href="#DejaVuSans-89"/>
     </g>
    </g>
   </g>
   <g id="text_18">
    <g clip-path="url(#pd4b80b7bd5)">
     <!-- 1 -->
     <g transform="translate(1004.309748 190.984245)scale(0.08 -0.08)">
      <use xlink:href="#DejaVuSans-49"/>
     </g>
    </g>
   </g>
   <g id="text_19">
    <g clip-path="url(#pd4b80b7bd5)">
     <!-- ${q0}_{0}$ -->
     <defs>
      <path d="M 41.703125 8.203125 
Q 38.09375 3.46875 33.171875 1.015625 
Q 28.265625 -1.421875 22.3125 -1.421875 
Q 14.015625 -1.421875 9.296875 4.171875 
Q 4.59375 9.765625 4.59375 19.578125 
Q 4.59375 27.484375 7.5 34.859375 
Q 10.40625 42.234375 15.828125 48.09375 
Q 19.34375 51.90625 23.90625 53.953125 
Q 28.46875 56 33.5 56 
Q 39.546875 56 43.453125 53.609375 
Q 47.359375 51.21875 49.125 46.390625 
L 50.6875 54.59375 
L 59.71875 54.59375 
L 45.125 -20.609375 
L 36.078125 -20.609375 
z
M 13.921875 20.90625 
Q 13.921875 13.671875 16.9375 9.890625 
Q 19.96875 6.109375 25.6875 6.109375 
Q 34.1875 6.109375 40.1875 14.234375 
Q 46.1875 22.359375 46.1875 33.984375 
Q 46.1875 41.015625 43.078125 44.75 
Q 39.984375 48.484375 34.1875 48.484375 
Q 29.9375 48.484375 26.3125 46.5 
Q 22.703125 44.53125 20.015625 40.71875 
Q 17.1875 36.71875 15.546875 31.34375 
Q 13.921875 25.984375 13.921875 20.90625 
z
" id="DejaVuSans-Oblique-113"/>
      <path d="M 31.78125 66.40625 
Q 24.171875 66.40625 20.328125 58.90625 
Q 16.5 51.421875 16.5 36.375 
Q 16.5 21.390625 20.328125 13.890625 
Q 24.171875 6.390625 31.78125 6.390625 
Q 39.453125 6.390625 43.28125 13.890625 
Q 47.125 21.390625 47.125 36.375 
Q 47.125 51.421875 43.28125 58.90625 
Q 39.453125 66.40625 31.78125 66.40625 
z
M 31.78125 74.21875 
Q 44.046875 74.21875 50.515625 64.515625 
Q 56.984375 54.828125 56.984375 36.375 
Q 56.984375 17.96875 50.515625 8.265625 
Q 44.046875 -1.421875 31.78125 -1.421875 
Q 19.53125 -1.421875 13.0625 8.265625 
Q 6.59375 17.96875 6.59375 36.375 
Q 6.59375 54.828125 13.0625 64.515625 
Q 19.53125 74.21875 31.78125 74.21875 
z
" id="DejaVuSans-48"/>
     </defs>
     <g transform="translate(35.601008 48.011777)scale(0.1625 -0.1625)">
      <use transform="translate(0 0.78125)" xlink:href="#DejaVuSans-Oblique-113"/>
      <use transform="translate(63.476562 0.78125)" xlink:href="#DejaVuSans-48"/>
      <use transform="translate(128.056641 -15.625)scale(0.7)" xlink:href="#DejaVuSans-48"/>
     </g>
    </g>
   </g>
   <g id="text_20">
    <g clip-path="url(#pd4b80b7bd5)">
     <!-- ${q0}_{1}$ -->
     <g transform="translate(35.601008 93.462777)scale(0.1625 -0.1625)">
      <use transform="translate(0 0.78125)" xlink:href="#DejaVuSans-Oblique-113"/>
      <use transform="translate(63.476562 0.78125)" xlink:href="#DejaVuSans-48"/>
      <use transform="translate(128.056641 -15.625)scale(0.7)" xlink:href="#DejaVuSans-49"/>
     </g>
    </g>
   </g>
   <g id="text_21">
    <g clip-path="url(#pd4b80b7bd5)">
     <!-- ${q0}_{2}$ -->
     <defs>
      <path d="M 19.1875 8.296875 
L 53.609375 8.296875 
L 53.609375 0 
L 7.328125 0 
L 7.328125 8.296875 
Q 12.9375 14.109375 22.625 23.890625 
Q 32.328125 33.6875 34.8125 36.53125 
Q 39.546875 41.84375 41.421875 45.53125 
Q 43.3125 49.21875 43.3125 52.78125 
Q 43.3125 58.59375 39.234375 62.25 
Q 35.15625 65.921875 28.609375 65.921875 
Q 23.96875 65.921875 18.8125 64.3125 
Q 13.671875 62.703125 7.8125 59.421875 
L 7.8125 69.390625 
Q 13.765625 71.78125 18.9375 73 
Q 24.125 74.21875 28.421875 74.21875 
Q 39.75 74.21875 46.484375 68.546875 
Q 53.21875 62.890625 53.21875 53.421875 
Q 53.21875 48.921875 51.53125 44.890625 
Q 49.859375 40.875 45.40625 35.40625 
Q 44.1875 33.984375 37.640625 27.21875 
Q 31.109375 20.453125 19.1875 8.296875 
z
" id="DejaVuSans-50"/>
     </defs>
     <g transform="translate(35.601008 138.913777)scale(0.1625 -0.1625)">
      <use transform="translate(0 0.78125)" xlink:href="#DejaVuSans-Oblique-113"/>
      <use transform="translate(63.476562 0.78125)" xlink:href="#DejaVuSans-48"/>
      <use transform="translate(128.056641 -15.625)scale(0.7)" xlink:href="#DejaVuSans-50"/>
     </g>
    </g>
   </g>
   <g id="text_22">
    <g clip-path="url(#pd4b80b7bd5)">
     <!-- ${q0}_{3}$ -->
     <defs>
      <path d="M 40.578125 39.3125 
Q 47.65625 37.796875 51.625 33 
Q 55.609375 28.21875 55.609375 21.1875 
Q 55.609375 10.40625 48.1875 4.484375 
Q 40.765625 -1.421875 27.09375 -1.421875 
Q 22.515625 -1.421875 17.65625 -0.515625 
Q 12.796875 0.390625 7.625 2.203125 
L 7.625 11.71875 
Q 11.71875 9.328125 16.59375 8.109375 
Q 21.484375 6.890625 26.8125 6.890625 
Q 36.078125 6.890625 40.9375 10.546875 
Q 45.796875 14.203125 45.796875 21.1875 
Q 45.796875 27.640625 41.28125 31.265625 
Q 36.765625 34.90625 28.71875 34.90625 
L 20.21875 34.90625 
L 20.21875 43.015625 
L 29.109375 43.015625 
Q 36.375 43.015625 40.234375 45.921875 
Q 44.09375 48.828125 44.09375 54.296875 
Q 44.09375 59.90625 40.109375 62.90625 
Q 36.140625 65.921875 28.71875 65.921875 
Q 24.65625 65.921875 20.015625 65.03125 
Q 15.375 64.15625 9.8125 62.3125 
L 9.8125 71.09375 
Q 15.4375 72.65625 20.34375 73.4375 
Q 25.25 74.21875 29.59375 74.21875 
Q 40.828125 74.21875 47.359375 69.109375 
Q 53.90625 64.015625 53.90625 55.328125 
Q 53.90625 49.265625 50.4375 45.09375 
Q 46.96875 40.921875 40.578125 39.3125 
z
" id="DejaVuSans-51"/>
     </defs>
     <g transform="translate(35.601008 184.364777)scale(0.1625 -0.1625)">
      <use transform="translate(0 0.78125)" xlink:href="#DejaVuSans-Oblique-113"/>
      <use transform="translate(63.476562 0.78125)" xlink:href="#DejaVuSans-48"/>
      <use transform="translate(128.056641 -15.625)scale(0.7)" xlink:href="#DejaVuSans-51"/>
     </g>
    </g>
   </g>
   <g id="text_23">
    <g clip-path="url(#pd4b80b7bd5)">
     <!-- ${q0}_{4}$ -->
     <defs>
      <path d="M 37.796875 64.3125 
L 12.890625 25.390625 
L 37.796875 25.390625 
z
M 35.203125 72.90625 
L 47.609375 72.90625 
L 47.609375 25.390625 
L 58.015625 25.390625 
L 58.015625 17.1875 
L 47.609375 17.1875 
L 47.609375 0 
L 37.796875 0 
L 37.796875 17.1875 
L 4.890625 17.1875 
L 4.890625 26.703125 
z
" id="DejaVuSans-52"/>
     </defs>
     <g transform="translate(35.601008 229.815777)scale(0.1625 -0.1625)">
      <use transform="translate(0 0.78125)" xlink:href="#DejaVuSans-Oblique-113"/>
      <use transform="translate(63.476562 0.78125)" xlink:href="#DejaVuSans-48"/>
      <use transform="translate(128.056641 -15.625)scale(0.7)" xlink:href="#DejaVuSans-52"/>
     </g>
    </g>
   </g>
  </g>
 </g>
 <defs>
  <clipPath id="pd4b80b7bd5">
   <rect height="245.4354" width="1029.652408" x="7.2" y="7.2"/>
  </clipPath>
 </defs>
</svg>
