<?xml version="1.0" encoding="utf-8" standalone="no"?>
<!DOCTYPE svg PUBLIC "-//W3C//DTD SVG 1.1//EN"
  "http://www.w3.org/Graphics/SVG/1.1/DTD/svg11.dtd">
<!-- Created with matplotlib (https://matplotlib.org/) -->
<svg height="532.5414pt" version="1.1" viewBox="0 0 1225.966172 532.5414" width="1225.966172pt" xmlns="http://www.w3.org/2000/svg" xmlns:xlink="http://www.w3.org/1999/xlink">
 <defs>
  <style type="text/css">
*{stroke-linecap:butt;stroke-linejoin:round;}
  </style>
 </defs>
 <g id="figure_1">
  <g id="patch_1">
   <path d="M 0 532.5414 
L 1225.966172 532.5414 
L 1225.966172 0 
L 0 0 
z
" style="fill:#ffffff;"/>
  </g>
  <g id="axes_1">
   <g id="line2d_1">
    <path clip-path="url(#p9867940a74)" d="M 73.400972 43.5608 
L 1214.221072 43.5608 
" style="fill:none;stroke:#000000;stroke-linecap:square;stroke-width:2;"/>
   </g>
   <g id="line2d_2">
    <path clip-path="url(#p9867940a74)" d="M 73.400972 89.0118 
L 1214.221072 89.0118 
" style="fill:none;stroke:#000000;stroke-linecap:square;stroke-width:2;"/>
   </g>
   <g id="line2d_3">
    <path clip-path="url(#p9867940a74)" d="M 73.400972 134.4628 
L 1214.221072 134.4628 
" style="fill:none;stroke:#000000;stroke-linecap:square;stroke-width:2;"/>
   </g>
   <g id="line2d_4">
    <path clip-path="url(#p9867940a74)" d="M 73.400972 179.9138 
L 1214.221072 179.9138 
" style="fill:none;stroke:#000000;stroke-linecap:square;stroke-width:2;"/>
   </g>
   <g id="line2d_5">
    <path clip-path="url(#p9867940a74)" d="M 73.400972 225.3648 
L 1214.221072 225.3648 
" style="fill:none;stroke:#000000;stroke-linecap:square;stroke-width:2;"/>
   </g>
   <g id="line2d_6">
    <path clip-path="url(#p9867940a74)" d="M 73.400972 316.2668 
L 1214.221072 316.2668 
" style="fill:none;stroke:#000000;stroke-linecap:square;stroke-width:2;"/>
   </g>
   <g id="line2d_7">
    <path clip-path="url(#p9867940a74)" d="M 73.400972 361.7178 
L 1214.221072 361.7178 
" style="fill:none;stroke:#000000;stroke-linecap:square;stroke-width:2;"/>
   </g>
   <g id="line2d_8">
    <path clip-path="url(#p9867940a74)" d="M 73.400972 407.1688 
L 1214.221072 407.1688 
" style="fill:none;stroke:#000000;stroke-linecap:square;stroke-width:2;"/>
   </g>
   <g id="line2d_9">
    <path clip-path="url(#p9867940a74)" d="M 73.400972 452.6198 
L 1214.221072 452.6198 
" style="fill:none;stroke:#000000;stroke-linecap:square;stroke-width:2;"/>
   </g>
   <g id="line2d_10">
    <path clip-path="url(#p9867940a74)" d="M 73.400972 498.0708 
L 1214.221072 498.0708 
" style="fill:none;stroke:#000000;stroke-linecap:square;stroke-width:2;"/>
   </g>
   <g id="line2d_11">
    <path clip-path="url(#p9867940a74)" d="M 143.395512 89.0118 
L 143.395512 43.5608 
" style="fill:none;stroke:#bb8bff;stroke-linecap:square;stroke-width:2;"/>
   </g>
   <g id="line2d_12">
    <path clip-path="url(#p9867940a74)" d="M 188.846512 134.4628 
L 188.846512 43.5608 
" style="fill:none;stroke:#bb8bff;stroke-linecap:square;stroke-width:2;"/>
   </g>
   <g id="line2d_13">
    <path clip-path="url(#p9867940a74)" d="M 234.297512 179.9138 
L 234.297512 43.5608 
" style="fill:none;stroke:#bb8bff;stroke-linecap:square;stroke-width:2;"/>
   </g>
   <g id="line2d_14">
    <path clip-path="url(#p9867940a74)" d="M 279.748512 225.3648 
L 279.748512 43.5608 
" style="fill:none;stroke:#bb8bff;stroke-linecap:square;stroke-width:2;"/>
   </g>
   <g id="line2d_15">
    <path clip-path="url(#p9867940a74)" d="M 370.650512 225.3648 
L 370.650512 43.5608 
" style="fill:none;stroke:#bb8bff;stroke-linecap:square;stroke-width:2;"/>
   </g>
   <g id="line2d_16">
    <path clip-path="url(#p9867940a74)" d="M 416.101512 225.3648 
L 416.101512 43.5608 
" style="fill:none;stroke:#bb8bff;stroke-linecap:square;stroke-width:2;"/>
   </g>
   <g id="line2d_17">
    <path clip-path="url(#p9867940a74)" d="M 507.003512 225.3648 
L 507.003512 43.5608 
" style="fill:none;stroke:#bb8bff;stroke-linecap:square;stroke-width:2;"/>
   </g>
   <g id="line2d_18">
    <path clip-path="url(#p9867940a74)" d="M 552.454512 89.0118 
L 552.454512 43.5608 
" style="fill:none;stroke:#bb8bff;stroke-linecap:square;stroke-width:2;"/>
   </g>
   <g id="line2d_19">
    <path clip-path="url(#p9867940a74)" d="M 597.905512 134.4628 
L 597.905512 43.5608 
" style="fill:none;stroke:#bb8bff;stroke-linecap:square;stroke-width:2;"/>
   </g>
   <g id="line2d_20">
    <path clip-path="url(#p9867940a74)" d="M 643.356512 179.9138 
L 643.356512 43.5608 
" style="fill:none;stroke:#bb8bff;stroke-linecap:square;stroke-width:2;"/>
   </g>
   <g id="line2d_21">
    <path clip-path="url(#p9867940a74)" d="M 688.807512 225.3648 
L 688.807512 43.5608 
" style="fill:none;stroke:#bb8bff;stroke-linecap:square;stroke-width:2;"/>
   </g>
   <g id="line2d_22">
    <path clip-path="url(#p9867940a74)" d="M 779.709512 225.3648 
L 779.709512 43.5608 
" style="fill:none;stroke:#bb8bff;stroke-linecap:square;stroke-width:2;"/>
   </g>
   <g id="line2d_23">
    <path clip-path="url(#p9867940a74)" d="M 825.160512 225.3648 
L 825.160512 43.5608 
" style="fill:none;stroke:#bb8bff;stroke-linecap:square;stroke-width:2;"/>
   </g>
   <g id="line2d_24">
    <path clip-path="url(#p9867940a74)" d="M 916.062512 225.3648 
L 916.062512 43.5608 
" style="fill:none;stroke:#bb8bff;stroke-linecap:square;stroke-width:2;"/>
   </g>
   <g id="line2d_25">
    <path clip-path="url(#p9867940a74)" d="M 961.513512 89.0118 
L 961.513512 43.5608 
" style="fill:none;stroke:#bb8bff;stroke-linecap:square;stroke-width:2;"/>
   </g>
   <g id="line2d_26">
    <path clip-path="url(#p9867940a74)" d="M 1006.964512 134.4628 
L 1006.964512 43.5608 
" style="fill:none;stroke:#bb8bff;stroke-linecap:square;stroke-width:2;"/>
   </g>
   <g id="line2d_27">
    <path clip-path="url(#p9867940a74)" d="M 1052.415512 179.9138 
L 1052.415512 43.5608 
" style="fill:none;stroke:#bb8bff;stroke-linecap:square;stroke-width:2;"/>
   </g>
   <g id="line2d_28">
    <path clip-path="url(#p9867940a74)" d="M 1097.866512 89.0118 
L 1097.866512 43.5608 
" style="fill:none;stroke:#bb8bff;stroke-linecap:square;stroke-width:2;"/>
   </g>
   <g id="line2d_29">
    <path clip-path="url(#p9867940a74)" d="M 1143.317512 134.4628 
L 1143.317512 43.5608 
" style="fill:none;stroke:#bb8bff;stroke-linecap:square;stroke-width:2;"/>
   </g>
   <g id="line2d_30">
    <path clip-path="url(#p9867940a74)" d="M 1188.768512 179.9138 
L 1188.768512 43.5608 
" style="fill:none;stroke:#bb8bff;stroke-linecap:square;stroke-width:2;"/>
   </g>
   <g id="line2d_31">
    <path clip-path="url(#p9867940a74)" d="M 1214.221072 43.5608 
L 1214.221072 225.3648 
" style="fill:none;stroke:#000000;stroke-linecap:square;stroke-width:1.5;"/>
   </g>
   <g id="line2d_32">
    <path clip-path="url(#p9867940a74)" d="M 72.946462 316.2668 
L 72.946462 498.0708 
" style="fill:none;stroke:#000000;stroke-linecap:square;stroke-width:1.5;"/>
   </g>
   <g id="line2d_33">
    <path clip-path="url(#p9867940a74)" d="M 325.199512 225.3648 
L 325.199512 89.0118 
" style="fill:none;stroke:#6fa4ff;stroke-linecap:square;stroke-width:2;"/>
   </g>
   <g id="line2d_34">
    <path clip-path="url(#p9867940a74)" d="M 461.552512 225.3648 
L 461.552512 179.9138 
" style="fill:none;stroke:#6fa4ff;stroke-linecap:square;stroke-width:2;"/>
   </g>
   <g id="line2d_35">
    <path clip-path="url(#p9867940a74)" d="M 734.258512 225.3648 
L 734.258512 134.4628 
" style="fill:none;stroke:#6fa4ff;stroke-linecap:square;stroke-width:2;"/>
   </g>
   <g id="line2d_36">
    <path clip-path="url(#p9867940a74)" d="M 870.611512 225.3648 
L 870.611512 179.9138 
" style="fill:none;stroke:#6fa4ff;stroke-linecap:square;stroke-width:2;"/>
   </g>
   <g id="patch_2">
    <path clip-path="url(#p9867940a74)" d="M 83.172937 58.332375 
L 112.716087 58.332375 
L 112.716087 28.789225 
L 83.172937 28.789225 
z
" style="fill:#6fa4ff;stroke:#6fa4ff;stroke-linejoin:miter;stroke-width:1.5;"/>
   </g>
   <g id="patch_3">
    <path clip-path="url(#p9867940a74)" d="M 143.395512 47.992273 
C 144.570753 47.992273 145.698016 47.525345 146.529037 46.694324 
C 147.360057 45.863304 147.826985 44.73604 147.826985 43.5608 
C 147.826985 42.38556 147.360057 41.258296 146.529037 40.427276 
C 145.698016 39.596255 144.570753 39.129328 143.395512 39.129328 
C 142.220272 39.129328 141.093008 39.596255 140.261988 40.427276 
C 139.430968 41.258296 138.96404 42.38556 138.96404 43.5608 
C 138.96404 44.73604 139.430968 45.863304 140.261988 46.694324 
C 141.093008 47.525345 142.220272 47.992273 143.395512 47.992273 
z
" style="fill:#bb8bff;stroke:#bb8bff;stroke-linejoin:miter;stroke-width:1.5;"/>
   </g>
   <g id="patch_4">
    <path clip-path="url(#p9867940a74)" d="M 128.623937 103.783375 
L 158.167087 103.783375 
L 158.167087 74.240225 
L 128.623937 74.240225 
z
" style="fill:#bb8bff;stroke:#bb8bff;stroke-linejoin:miter;stroke-width:1.5;"/>
   </g>
   <g id="patch_5">
    <path clip-path="url(#p9867940a74)" d="M 188.846512 47.992273 
C 190.021753 47.992273 191.149016 47.525345 191.980037 46.694324 
C 192.811057 45.863304 193.277985 44.73604 193.277985 43.5608 
C 193.277985 42.38556 192.811057 41.258296 191.980037 40.427276 
C 191.149016 39.596255 190.021753 39.129328 188.846512 39.129328 
C 187.671272 39.129328 186.544008 39.596255 185.712988 40.427276 
C 184.881968 41.258296 184.41504 42.38556 184.41504 43.5608 
C 184.41504 44.73604 184.881968 45.863304 185.712988 46.694324 
C 186.544008 47.525345 187.671272 47.992273 188.846512 47.992273 
z
" style="fill:#bb8bff;stroke:#bb8bff;stroke-linejoin:miter;stroke-width:1.5;"/>
   </g>
   <g id="patch_6">
    <path clip-path="url(#p9867940a74)" d="M 174.074937 149.234375 
L 203.618087 149.234375 
L 203.618087 119.691225 
L 174.074937 119.691225 
z
" style="fill:#bb8bff;stroke:#bb8bff;stroke-linejoin:miter;stroke-width:1.5;"/>
   </g>
   <g id="patch_7">
    <path clip-path="url(#p9867940a74)" d="M 234.297512 47.992273 
C 235.472753 47.992273 236.600016 47.525345 237.431037 46.694324 
C 238.262057 45.863304 238.728985 44.73604 238.728985 43.5608 
C 238.728985 42.38556 238.262057 41.258296 237.431037 40.427276 
C 236.600016 39.596255 235.472753 39.129328 234.297512 39.129328 
C 233.122272 39.129328 231.995008 39.596255 231.163988 40.427276 
C 230.332968 41.258296 229.86604 42.38556 229.86604 43.5608 
C 229.86604 44.73604 230.332968 45.863304 231.163988 46.694324 
C 231.995008 47.525345 233.122272 47.992273 234.297512 47.992273 
z
" style="fill:#bb8bff;stroke:#bb8bff;stroke-linejoin:miter;stroke-width:1.5;"/>
   </g>
   <g id="patch_8">
    <path clip-path="url(#p9867940a74)" d="M 219.525937 194.685375 
L 249.069087 194.685375 
L 249.069087 165.142225 
L 219.525937 165.142225 
z
" style="fill:#bb8bff;stroke:#bb8bff;stroke-linejoin:miter;stroke-width:1.5;"/>
   </g>
   <g id="patch_9">
    <path clip-path="url(#p9867940a74)" d="M 279.748512 47.992273 
C 280.923753 47.992273 282.051016 47.525345 282.882037 46.694324 
C 283.713057 45.863304 284.179985 44.73604 284.179985 43.5608 
C 284.179985 42.38556 283.713057 41.258296 282.882037 40.427276 
C 282.051016 39.596255 280.923753 39.129328 279.748512 39.129328 
C 278.573272 39.129328 277.446008 39.596255 276.614988 40.427276 
C 275.783968 41.258296 275.31704 42.38556 275.31704 43.5608 
C 275.31704 44.73604 275.783968 45.863304 276.614988 46.694324 
C 277.446008 47.525345 278.573272 47.992273 279.748512 47.992273 
z
" style="fill:#bb8bff;stroke:#bb8bff;stroke-linejoin:miter;stroke-width:1.5;"/>
   </g>
   <g id="patch_10">
    <path clip-path="url(#p9867940a74)" d="M 279.748512 138.894273 
C 280.923753 138.894273 282.051016 138.427345 282.882037 137.596324 
C 283.713057 136.765304 284.179985 135.63804 284.179985 134.4628 
C 284.179985 133.28756 283.713057 132.160296 282.882037 131.329276 
C 282.051016 130.498255 280.923753 130.031328 279.748512 130.031328 
C 278.573272 130.031328 277.446008 130.498255 276.614988 131.329276 
C 275.783968 132.160296 275.31704 133.28756 275.31704 134.4628 
C 275.31704 135.63804 275.783968 136.765304 276.614988 137.596324 
C 277.446008 138.427345 278.573272 138.894273 279.748512 138.894273 
z
" style="fill:#bb8bff;stroke:#bb8bff;stroke-linejoin:miter;stroke-width:1.5;"/>
   </g>
   <g id="patch_11">
    <path clip-path="url(#p9867940a74)" d="M 279.748512 235.704902 
C 282.49074 235.704902 285.121021 234.615404 287.060069 232.676357 
C 288.999116 230.737309 290.088615 228.107027 290.088615 225.3648 
C 290.088615 222.622573 288.999116 219.992291 287.060069 218.053243 
C 285.121021 216.114196 282.49074 215.024697 279.748512 215.024697 
C 277.006285 215.024697 274.376003 216.114196 272.436956 218.053243 
C 270.497908 219.992291 269.40841 222.622573 269.40841 225.3648 
C 269.40841 228.107027 270.497908 230.737309 272.436956 232.676357 
C 274.376003 234.615404 277.006285 235.704902 279.748512 235.704902 
z
" style="fill:#bb8bff;stroke:#bb8bff;stroke-linejoin:miter;stroke-width:2;"/>
   </g>
   <g id="patch_12">
    <path clip-path="url(#p9867940a74)" d="M 325.199512 93.443272 
C 326.374753 93.443272 327.502016 92.976345 328.333037 92.145324 
C 329.164057 91.314304 329.630985 90.18704 329.630985 89.0118 
C 329.630985 87.83656 329.164057 86.709296 328.333037 85.878276 
C 327.502016 85.047255 326.374753 84.580327 325.199512 84.580327 
C 324.024272 84.580327 322.897008 85.047255 322.065988 85.878276 
C 321.234968 86.709296 320.76804 87.83656 320.76804 89.0118 
C 320.76804 90.18704 321.234968 91.314304 322.065988 92.145324 
C 322.897008 92.976345 324.024272 93.443272 325.199512 93.443272 
z
" style="fill:#6fa4ff;stroke:#6fa4ff;stroke-linejoin:miter;stroke-width:1.5;"/>
   </g>
   <g id="patch_13">
    <path clip-path="url(#p9867940a74)" d="M 325.199512 229.796272 
C 326.374753 229.796272 327.502016 229.329345 328.333037 228.498324 
C 329.164057 227.667304 329.630985 226.54004 329.630985 225.3648 
C 329.630985 224.18956 329.164057 223.062296 328.333037 222.231276 
C 327.502016 221.400255 326.374753 220.933327 325.199512 220.933327 
C 324.024272 220.933327 322.897008 221.400255 322.065988 222.231276 
C 321.234968 223.062296 320.76804 224.18956 320.76804 225.3648 
C 320.76804 226.54004 321.234968 227.667304 322.065988 228.498324 
C 322.897008 229.329345 324.024272 229.796272 325.199512 229.796272 
z
" style="fill:#6fa4ff;stroke:#6fa4ff;stroke-linejoin:miter;stroke-width:1.5;"/>
   </g>
   <g id="patch_14">
    <path clip-path="url(#p9867940a74)" d="M 370.650512 47.992273 
C 371.825753 47.992273 372.953016 47.525345 373.784037 46.694324 
C 374.615057 45.863304 375.081985 44.73604 375.081985 43.5608 
C 375.081985 42.38556 374.615057 41.258296 373.784037 40.427276 
C 372.953016 39.596255 371.825753 39.129328 370.650512 39.129328 
C 369.475272 39.129328 368.348008 39.596255 367.516988 40.427276 
C 366.685968 41.258296 366.21904 42.38556 366.21904 43.5608 
C 366.21904 44.73604 366.685968 45.863304 367.516988 46.694324 
C 368.348008 47.525345 369.475272 47.992273 370.650512 47.992273 
z
" style="fill:#bb8bff;stroke:#bb8bff;stroke-linejoin:miter;stroke-width:1.5;"/>
   </g>
   <g id="patch_15">
    <path clip-path="url(#p9867940a74)" d="M 370.650512 138.894273 
C 371.825753 138.894273 372.953016 138.427345 373.784037 137.596324 
C 374.615057 136.765304 375.081985 135.63804 375.081985 134.4628 
C 375.081985 133.28756 374.615057 132.160296 373.784037 131.329276 
C 372.953016 130.498255 371.825753 130.031328 370.650512 130.031328 
C 369.475272 130.031328 368.348008 130.498255 367.516988 131.329276 
C 366.685968 132.160296 366.21904 133.28756 366.21904 134.4628 
C 366.21904 135.63804 366.685968 136.765304 367.516988 137.596324 
C 368.348008 138.427345 369.475272 138.894273 370.650512 138.894273 
z
" style="fill:#bb8bff;stroke:#bb8bff;stroke-linejoin:miter;stroke-width:1.5;"/>
   </g>
   <g id="patch_16">
    <path clip-path="url(#p9867940a74)" d="M 370.650512 235.704902 
C 373.39274 235.704902 376.023021 234.615404 377.962069 232.676357 
C 379.901116 230.737309 380.990615 228.107027 380.990615 225.3648 
C 380.990615 222.622573 379.901116 219.992291 377.962069 218.053243 
C 376.023021 216.114196 373.39274 215.024697 370.650512 215.024697 
C 367.908285 215.024697 365.278003 216.114196 363.338956 218.053243 
C 361.399908 219.992291 360.31041 222.622573 360.31041 225.3648 
C 360.31041 228.107027 361.399908 230.737309 363.338956 232.676357 
C 365.278003 234.615404 367.908285 235.704902 370.650512 235.704902 
z
" style="fill:#bb8bff;stroke:#bb8bff;stroke-linejoin:miter;stroke-width:2;"/>
   </g>
   <g id="patch_17">
    <path clip-path="url(#p9867940a74)" d="M 416.101512 47.992273 
C 417.276753 47.992273 418.404016 47.525345 419.235037 46.694324 
C 420.066057 45.863304 420.532985 44.73604 420.532985 43.5608 
C 420.532985 42.38556 420.066057 41.258296 419.235037 40.427276 
C 418.404016 39.596255 417.276753 39.129328 416.101512 39.129328 
C 414.926272 39.129328 413.799008 39.596255 412.967988 40.427276 
C 412.136968 41.258296 411.67004 42.38556 411.67004 43.5608 
C 411.67004 44.73604 412.136968 45.863304 412.967988 46.694324 
C 413.799008 47.525345 414.926272 47.992273 416.101512 47.992273 
z
" style="fill:#bb8bff;stroke:#bb8bff;stroke-linejoin:miter;stroke-width:1.5;"/>
   </g>
   <g id="patch_18">
    <path clip-path="url(#p9867940a74)" d="M 416.101512 93.443272 
C 417.276753 93.443272 418.404016 92.976345 419.235037 92.145324 
C 420.066057 91.314304 420.532985 90.18704 420.532985 89.0118 
C 420.532985 87.83656 420.066057 86.709296 419.235037 85.878276 
C 418.404016 85.047255 417.276753 84.580327 416.101512 84.580327 
C 414.926272 84.580327 413.799008 85.047255 412.967988 85.878276 
C 412.136968 86.709296 411.67004 87.83656 411.67004 89.0118 
C 411.67004 90.18704 412.136968 91.314304 412.967988 92.145324 
C 413.799008 92.976345 414.926272 93.443272 416.101512 93.443272 
z
" style="fill:#bb8bff;stroke:#bb8bff;stroke-linejoin:miter;stroke-width:1.5;"/>
   </g>
   <g id="patch_19">
    <path clip-path="url(#p9867940a74)" d="M 416.101512 235.704902 
C 418.84374 235.704902 421.474021 234.615404 423.413069 232.676357 
C 425.352116 230.737309 426.441615 228.107027 426.441615 225.3648 
C 426.441615 222.622573 425.352116 219.992291 423.413069 218.053243 
C 421.474021 216.114196 418.84374 215.024697 416.101512 215.024697 
C 413.359285 215.024697 410.729003 216.114196 408.789956 218.053243 
C 406.850908 219.992291 405.76141 222.622573 405.76141 225.3648 
C 405.76141 228.107027 406.850908 230.737309 408.789956 232.676357 
C 410.729003 234.615404 413.359285 235.704902 416.101512 235.704902 
z
" style="fill:#bb8bff;stroke:#bb8bff;stroke-linejoin:miter;stroke-width:2;"/>
   </g>
   <g id="patch_20">
    <path clip-path="url(#p9867940a74)" d="M 461.552512 184.345272 
C 462.727753 184.345272 463.855016 183.878345 464.686037 183.047324 
C 465.517057 182.216304 465.983985 181.08904 465.983985 179.9138 
C 465.983985 178.73856 465.517057 177.611296 464.686037 176.780276 
C 463.855016 175.949255 462.727753 175.482327 461.552512 175.482327 
C 460.377272 175.482327 459.250008 175.949255 458.418988 176.780276 
C 457.587968 177.611296 457.12104 178.73856 457.12104 179.9138 
C 457.12104 181.08904 457.587968 182.216304 458.418988 183.047324 
C 459.250008 183.878345 460.377272 184.345272 461.552512 184.345272 
z
" style="fill:#6fa4ff;stroke:#6fa4ff;stroke-linejoin:miter;stroke-width:1.5;"/>
   </g>
   <g id="patch_21">
    <path clip-path="url(#p9867940a74)" d="M 461.552512 229.796272 
C 462.727753 229.796272 463.855016 229.329345 464.686037 228.498324 
C 465.517057 227.667304 465.983985 226.54004 465.983985 225.3648 
C 465.983985 224.18956 465.517057 223.062296 464.686037 222.231276 
C 463.855016 221.400255 462.727753 220.933327 461.552512 220.933327 
C 460.377272 220.933327 459.250008 221.400255 458.418988 222.231276 
C 457.587968 223.062296 457.12104 224.18956 457.12104 225.3648 
C 457.12104 226.54004 457.587968 227.667304 458.418988 228.498324 
C 459.250008 229.329345 460.377272 229.796272 461.552512 229.796272 
z
" style="fill:#6fa4ff;stroke:#6fa4ff;stroke-linejoin:miter;stroke-width:1.5;"/>
   </g>
   <g id="patch_22">
    <path clip-path="url(#p9867940a74)" d="M 507.003512 47.992273 
C 508.178753 47.992273 509.306016 47.525345 510.137037 46.694324 
C 510.968057 45.863304 511.434985 44.73604 511.434985 43.5608 
C 511.434985 42.38556 510.968057 41.258296 510.137037 40.427276 
C 509.306016 39.596255 508.178753 39.129328 507.003512 39.129328 
C 505.828272 39.129328 504.701008 39.596255 503.869988 40.427276 
C 503.038968 41.258296 502.57204 42.38556 502.57204 43.5608 
C 502.57204 44.73604 503.038968 45.863304 503.869988 46.694324 
C 504.701008 47.525345 505.828272 47.992273 507.003512 47.992273 
z
" style="fill:#bb8bff;stroke:#bb8bff;stroke-linejoin:miter;stroke-width:1.5;"/>
   </g>
   <g id="patch_23">
    <path clip-path="url(#p9867940a74)" d="M 507.003512 93.443272 
C 508.178753 93.443272 509.306016 92.976345 510.137037 92.145324 
C 510.968057 91.314304 511.434985 90.18704 511.434985 89.0118 
C 511.434985 87.83656 510.968057 86.709296 510.137037 85.878276 
C 509.306016 85.047255 508.178753 84.580327 507.003512 84.580327 
C 505.828272 84.580327 504.701008 85.047255 503.869988 85.878276 
C 503.038968 86.709296 502.57204 87.83656 502.57204 89.0118 
C 502.57204 90.18704 503.038968 91.314304 503.869988 92.145324 
C 504.701008 92.976345 505.828272 93.443272 507.003512 93.443272 
z
" style="fill:#bb8bff;stroke:#bb8bff;stroke-linejoin:miter;stroke-width:1.5;"/>
   </g>
   <g id="patch_24">
    <path clip-path="url(#p9867940a74)" d="M 507.003512 235.704902 
C 509.74574 235.704902 512.376021 234.615404 514.315069 232.676357 
C 516.254116 230.737309 517.343615 228.107027 517.343615 225.3648 
C 517.343615 222.622573 516.254116 219.992291 514.315069 218.053243 
C 512.376021 216.114196 509.74574 215.024697 507.003512 215.024697 
C 504.261285 215.024697 501.631003 216.114196 499.691956 218.053243 
C 497.752908 219.992291 496.66341 222.622573 496.66341 225.3648 
C 496.66341 228.107027 497.752908 230.737309 499.691956 232.676357 
C 501.631003 234.615404 504.261285 235.704902 507.003512 235.704902 
z
" style="fill:#bb8bff;stroke:#bb8bff;stroke-linejoin:miter;stroke-width:2;"/>
   </g>
   <g id="patch_25">
    <path clip-path="url(#p9867940a74)" d="M 552.454512 47.992273 
C 553.629753 47.992273 554.757016 47.525345 555.588037 46.694324 
C 556.419057 45.863304 556.885985 44.73604 556.885985 43.5608 
C 556.885985 42.38556 556.419057 41.258296 555.588037 40.427276 
C 554.757016 39.596255 553.629753 39.129328 552.454512 39.129328 
C 551.279272 39.129328 550.152008 39.596255 549.320988 40.427276 
C 548.489968 41.258296 548.02304 42.38556 548.02304 43.5608 
C 548.02304 44.73604 548.489968 45.863304 549.320988 46.694324 
C 550.152008 47.525345 551.279272 47.992273 552.454512 47.992273 
z
" style="fill:#bb8bff;stroke:#bb8bff;stroke-linejoin:miter;stroke-width:1.5;"/>
   </g>
   <g id="patch_26">
    <path clip-path="url(#p9867940a74)" d="M 537.682937 103.783375 
L 567.226087 103.783375 
L 567.226087 74.240225 
L 537.682937 74.240225 
z
" style="fill:#bb8bff;stroke:#bb8bff;stroke-linejoin:miter;stroke-width:1.5;"/>
   </g>
   <g id="patch_27">
    <path clip-path="url(#p9867940a74)" d="M 597.905512 47.992273 
C 599.080753 47.992273 600.208016 47.525345 601.039037 46.694324 
C 601.870057 45.863304 602.336985 44.73604 602.336985 43.5608 
C 602.336985 42.38556 601.870057 41.258296 601.039037 40.427276 
C 600.208016 39.596255 599.080753 39.129328 597.905512 39.129328 
C 596.730272 39.129328 595.603008 39.596255 594.771988 40.427276 
C 593.940968 41.258296 593.47404 42.38556 593.47404 43.5608 
C 593.47404 44.73604 593.940968 45.863304 594.771988 46.694324 
C 595.603008 47.525345 596.730272 47.992273 597.905512 47.992273 
z
" style="fill:#bb8bff;stroke:#bb8bff;stroke-linejoin:miter;stroke-width:1.5;"/>
   </g>
   <g id="patch_28">
    <path clip-path="url(#p9867940a74)" d="M 583.133937 149.234375 
L 612.677087 149.234375 
L 612.677087 119.691225 
L 583.133937 119.691225 
z
" style="fill:#bb8bff;stroke:#bb8bff;stroke-linejoin:miter;stroke-width:1.5;"/>
   </g>
   <g id="patch_29">
    <path clip-path="url(#p9867940a74)" d="M 643.356512 47.992273 
C 644.531753 47.992273 645.659016 47.525345 646.490037 46.694324 
C 647.321057 45.863304 647.787985 44.73604 647.787985 43.5608 
C 647.787985 42.38556 647.321057 41.258296 646.490037 40.427276 
C 645.659016 39.596255 644.531753 39.129328 643.356512 39.129328 
C 642.181272 39.129328 641.054008 39.596255 640.222988 40.427276 
C 639.391968 41.258296 638.92504 42.38556 638.92504 43.5608 
C 638.92504 44.73604 639.391968 45.863304 640.222988 46.694324 
C 641.054008 47.525345 642.181272 47.992273 643.356512 47.992273 
z
" style="fill:#bb8bff;stroke:#bb8bff;stroke-linejoin:miter;stroke-width:1.5;"/>
   </g>
   <g id="patch_30">
    <path clip-path="url(#p9867940a74)" d="M 628.584937 194.685375 
L 658.128087 194.685375 
L 658.128087 165.142225 
L 628.584937 165.142225 
z
" style="fill:#bb8bff;stroke:#bb8bff;stroke-linejoin:miter;stroke-width:1.5;"/>
   </g>
   <g id="patch_31">
    <path clip-path="url(#p9867940a74)" d="M 688.807512 47.992273 
C 689.982753 47.992273 691.110016 47.525345 691.941037 46.694324 
C 692.772057 45.863304 693.238985 44.73604 693.238985 43.5608 
C 693.238985 42.38556 692.772057 41.258296 691.941037 40.427276 
C 691.110016 39.596255 689.982753 39.129328 688.807512 39.129328 
C 687.632272 39.129328 686.505008 39.596255 685.673988 40.427276 
C 684.842968 41.258296 684.37604 42.38556 684.37604 43.5608 
C 684.37604 44.73604 684.842968 45.863304 685.673988 46.694324 
C 686.505008 47.525345 687.632272 47.992273 688.807512 47.992273 
z
" style="fill:#bb8bff;stroke:#bb8bff;stroke-linejoin:miter;stroke-width:1.5;"/>
   </g>
   <g id="patch_32">
    <path clip-path="url(#p9867940a74)" d="M 688.807512 184.345272 
C 689.982753 184.345272 691.110016 183.878345 691.941037 183.047324 
C 692.772057 182.216304 693.238985 181.08904 693.238985 179.9138 
C 693.238985 178.73856 692.772057 177.611296 691.941037 176.780276 
C 691.110016 175.949255 689.982753 175.482327 688.807512 175.482327 
C 687.632272 175.482327 686.505008 175.949255 685.673988 176.780276 
C 684.842968 177.611296 684.37604 178.73856 684.37604 179.9138 
C 684.37604 181.08904 684.842968 182.216304 685.673988 183.047324 
C 686.505008 183.878345 687.632272 184.345272 688.807512 184.345272 
z
" style="fill:#bb8bff;stroke:#bb8bff;stroke-linejoin:miter;stroke-width:1.5;"/>
   </g>
   <g id="patch_33">
    <path clip-path="url(#p9867940a74)" d="M 688.807512 235.704902 
C 691.54974 235.704902 694.180021 234.615404 696.119069 232.676357 
C 698.058116 230.737309 699.147615 228.107027 699.147615 225.3648 
C 699.147615 222.622573 698.058116 219.992291 696.119069 218.053243 
C 694.180021 216.114196 691.54974 215.024697 688.807512 215.024697 
C 686.065285 215.024697 683.435003 216.114196 681.495956 218.053243 
C 679.556908 219.992291 678.46741 222.622573 678.46741 225.3648 
C 678.46741 228.107027 679.556908 230.737309 681.495956 232.676357 
C 683.435003 234.615404 686.065285 235.704902 688.807512 235.704902 
z
" style="fill:#bb8bff;stroke:#bb8bff;stroke-linejoin:miter;stroke-width:2;"/>
   </g>
   <g id="patch_34">
    <path clip-path="url(#p9867940a74)" d="M 734.258512 138.894273 
C 735.433753 138.894273 736.561016 138.427345 737.392037 137.596324 
C 738.223057 136.765304 738.689985 135.63804 738.689985 134.4628 
C 738.689985 133.28756 738.223057 132.160296 737.392037 131.329276 
C 736.561016 130.498255 735.433753 130.031328 734.258512 130.031328 
C 733.083272 130.031328 731.956008 130.498255 731.124988 131.329276 
C 730.293968 132.160296 729.82704 133.28756 729.82704 134.4628 
C 729.82704 135.63804 730.293968 136.765304 731.124988 137.596324 
C 731.956008 138.427345 733.083272 138.894273 734.258512 138.894273 
z
" style="fill:#6fa4ff;stroke:#6fa4ff;stroke-linejoin:miter;stroke-width:1.5;"/>
   </g>
   <g id="patch_35">
    <path clip-path="url(#p9867940a74)" d="M 734.258512 229.796272 
C 735.433753 229.796272 736.561016 229.329345 737.392037 228.498324 
C 738.223057 227.667304 738.689985 226.54004 738.689985 225.3648 
C 738.689985 224.18956 738.223057 223.062296 737.392037 222.231276 
C 736.561016 221.400255 735.433753 220.933327 734.258512 220.933327 
C 733.083272 220.933327 731.956008 221.400255 731.124988 222.231276 
C 730.293968 223.062296 729.82704 224.18956 729.82704 225.3648 
C 729.82704 226.54004 730.293968 227.667304 731.124988 228.498324 
C 731.956008 229.329345 733.083272 229.796272 734.258512 229.796272 
z
" style="fill:#6fa4ff;stroke:#6fa4ff;stroke-linejoin:miter;stroke-width:1.5;"/>
   </g>
   <g id="patch_36">
    <path clip-path="url(#p9867940a74)" d="M 779.709512 47.992273 
C 780.884753 47.992273 782.012016 47.525345 782.843037 46.694324 
C 783.674057 45.863304 784.140985 44.73604 784.140985 43.5608 
C 784.140985 42.38556 783.674057 41.258296 782.843037 40.427276 
C 782.012016 39.596255 780.884753 39.129328 779.709512 39.129328 
C 778.534272 39.129328 777.407008 39.596255 776.575988 40.427276 
C 775.744968 41.258296 775.27804 42.38556 775.27804 43.5608 
C 775.27804 44.73604 775.744968 45.863304 776.575988 46.694324 
C 777.407008 47.525345 778.534272 47.992273 779.709512 47.992273 
z
" style="fill:#bb8bff;stroke:#bb8bff;stroke-linejoin:miter;stroke-width:1.5;"/>
   </g>
   <g id="patch_37">
    <path clip-path="url(#p9867940a74)" d="M 779.709512 184.345272 
C 780.884753 184.345272 782.012016 183.878345 782.843037 183.047324 
C 783.674057 182.216304 784.140985 181.08904 784.140985 179.9138 
C 784.140985 178.73856 783.674057 177.611296 782.843037 176.780276 
C 782.012016 175.949255 780.884753 175.482327 779.709512 175.482327 
C 778.534272 175.482327 777.407008 175.949255 776.575988 176.780276 
C 775.744968 177.611296 775.27804 178.73856 775.27804 179.9138 
C 775.27804 181.08904 775.744968 182.216304 776.575988 183.047324 
C 777.407008 183.878345 778.534272 184.345272 779.709512 184.345272 
z
" style="fill:#bb8bff;stroke:#bb8bff;stroke-linejoin:miter;stroke-width:1.5;"/>
   </g>
   <g id="patch_38">
    <path clip-path="url(#p9867940a74)" d="M 779.709512 235.704902 
C 782.45174 235.704902 785.082021 234.615404 787.021069 232.676357 
C 788.960116 230.737309 790.049615 228.107027 790.049615 225.3648 
C 790.049615 222.622573 788.960116 219.992291 787.021069 218.053243 
C 785.082021 216.114196 782.45174 215.024697 779.709512 215.024697 
C 776.967285 215.024697 774.337003 216.114196 772.397956 218.053243 
C 770.458908 219.992291 769.36941 222.622573 769.36941 225.3648 
C 769.36941 228.107027 770.458908 230.737309 772.397956 232.676357 
C 774.337003 234.615404 776.967285 235.704902 779.709512 235.704902 
z
" style="fill:#bb8bff;stroke:#bb8bff;stroke-linejoin:miter;stroke-width:2;"/>
   </g>
   <g id="patch_39">
    <path clip-path="url(#p9867940a74)" d="M 825.160512 47.992273 
C 826.335753 47.992273 827.463016 47.525345 828.294037 46.694324 
C 829.125057 45.863304 829.591985 44.73604 829.591985 43.5608 
C 829.591985 42.38556 829.125057 41.258296 828.294037 40.427276 
C 827.463016 39.596255 826.335753 39.129328 825.160512 39.129328 
C 823.985272 39.129328 822.858008 39.596255 822.026988 40.427276 
C 821.195968 41.258296 820.72904 42.38556 820.72904 43.5608 
C 820.72904 44.73604 821.195968 45.863304 822.026988 46.694324 
C 822.858008 47.525345 823.985272 47.992273 825.160512 47.992273 
z
" style="fill:#bb8bff;stroke:#bb8bff;stroke-linejoin:miter;stroke-width:1.5;"/>
   </g>
   <g id="patch_40">
    <path clip-path="url(#p9867940a74)" d="M 825.160512 93.443272 
C 826.335753 93.443272 827.463016 92.976345 828.294037 92.145324 
C 829.125057 91.314304 829.591985 90.18704 829.591985 89.0118 
C 829.591985 87.83656 829.125057 86.709296 828.294037 85.878276 
C 827.463016 85.047255 826.335753 84.580327 825.160512 84.580327 
C 823.985272 84.580327 822.858008 85.047255 822.026988 85.878276 
C 821.195968 86.709296 820.72904 87.83656 820.72904 89.0118 
C 820.72904 90.18704 821.195968 91.314304 822.026988 92.145324 
C 822.858008 92.976345 823.985272 93.443272 825.160512 93.443272 
z
" style="fill:#bb8bff;stroke:#bb8bff;stroke-linejoin:miter;stroke-width:1.5;"/>
   </g>
   <g id="patch_41">
    <path clip-path="url(#p9867940a74)" d="M 825.160512 235.704902 
C 827.90274 235.704902 830.533021 234.615404 832.472069 232.676357 
C 834.411116 230.737309 835.500615 228.107027 835.500615 225.3648 
C 835.500615 222.622573 834.411116 219.992291 832.472069 218.053243 
C 830.533021 216.114196 827.90274 215.024697 825.160512 215.024697 
C 822.418285 215.024697 819.788003 216.114196 817.848956 218.053243 
C 815.909908 219.992291 814.82041 222.622573 814.82041 225.3648 
C 814.82041 228.107027 815.909908 230.737309 817.848956 232.676357 
C 819.788003 234.615404 822.418285 235.704902 825.160512 235.704902 
z
" style="fill:#bb8bff;stroke:#bb8bff;stroke-linejoin:miter;stroke-width:2;"/>
   </g>
   <g id="patch_42">
    <path clip-path="url(#p9867940a74)" d="M 870.611512 184.345272 
C 871.786753 184.345272 872.914016 183.878345 873.745037 183.047324 
C 874.576057 182.216304 875.042985 181.08904 875.042985 179.9138 
C 875.042985 178.73856 874.576057 177.611296 873.745037 176.780276 
C 872.914016 175.949255 871.786753 175.482327 870.611512 175.482327 
C 869.436272 175.482327 868.309008 175.949255 867.477988 176.780276 
C 866.646968 177.611296 866.18004 178.73856 866.18004 179.9138 
C 866.18004 181.08904 866.646968 182.216304 867.477988 183.047324 
C 868.309008 183.878345 869.436272 184.345272 870.611512 184.345272 
z
" style="fill:#6fa4ff;stroke:#6fa4ff;stroke-linejoin:miter;stroke-width:1.5;"/>
   </g>
   <g id="patch_43">
    <path clip-path="url(#p9867940a74)" d="M 870.611512 229.796272 
C 871.786753 229.796272 872.914016 229.329345 873.745037 228.498324 
C 874.576057 227.667304 875.042985 226.54004 875.042985 225.3648 
C 875.042985 224.18956 874.576057 223.062296 873.745037 222.231276 
C 872.914016 221.400255 871.786753 220.933327 870.611512 220.933327 
C 869.436272 220.933327 868.309008 221.400255 867.477988 222.231276 
C 866.646968 223.062296 866.18004 224.18956 866.18004 225.3648 
C 866.18004 226.54004 866.646968 227.667304 867.477988 228.498324 
C 868.309008 229.329345 869.436272 229.796272 870.611512 229.796272 
z
" style="fill:#6fa4ff;stroke:#6fa4ff;stroke-linejoin:miter;stroke-width:1.5;"/>
   </g>
   <g id="patch_44">
    <path clip-path="url(#p9867940a74)" d="M 916.062512 47.992273 
C 917.237753 47.992273 918.365016 47.525345 919.196037 46.694324 
C 920.027057 45.863304 920.493985 44.73604 920.493985 43.5608 
C 920.493985 42.38556 920.027057 41.258296 919.196037 40.427276 
C 918.365016 39.596255 917.237753 39.129328 916.062512 39.129328 
C 914.887272 39.129328 913.760008 39.596255 912.928988 40.427276 
C 912.097968 41.258296 911.63104 42.38556 911.63104 43.5608 
C 911.63104 44.73604 912.097968 45.863304 912.928988 46.694324 
C 913.760008 47.525345 914.887272 47.992273 916.062512 47.992273 
z
" style="fill:#bb8bff;stroke:#bb8bff;stroke-linejoin:miter;stroke-width:1.5;"/>
   </g>
   <g id="patch_45">
    <path clip-path="url(#p9867940a74)" d="M 916.062512 93.443272 
C 917.237753 93.443272 918.365016 92.976345 919.196037 92.145324 
C 920.027057 91.314304 920.493985 90.18704 920.493985 89.0118 
C 920.493985 87.83656 920.027057 86.709296 919.196037 85.878276 
C 918.365016 85.047255 917.237753 84.580327 916.062512 84.580327 
C 914.887272 84.580327 913.760008 85.047255 912.928988 85.878276 
C 912.097968 86.709296 911.63104 87.83656 911.63104 89.0118 
C 911.63104 90.18704 912.097968 91.314304 912.928988 92.145324 
C 913.760008 92.976345 914.887272 93.443272 916.062512 93.443272 
z
" style="fill:#bb8bff;stroke:#bb8bff;stroke-linejoin:miter;stroke-width:1.5;"/>
   </g>
   <g id="patch_46">
    <path clip-path="url(#p9867940a74)" d="M 916.062512 235.704902 
C 918.80474 235.704902 921.435021 234.615404 923.374069 232.676357 
C 925.313116 230.737309 926.402615 228.107027 926.402615 225.3648 
C 926.402615 222.622573 925.313116 219.992291 923.374069 218.053243 
C 921.435021 216.114196 918.80474 215.024697 916.062512 215.024697 
C 913.320285 215.024697 910.690003 216.114196 908.750956 218.053243 
C 906.811908 219.992291 905.72241 222.622573 905.72241 225.3648 
C 905.72241 228.107027 906.811908 230.737309 908.750956 232.676357 
C 910.690003 234.615404 913.320285 235.704902 916.062512 235.704902 
z
" style="fill:#bb8bff;stroke:#bb8bff;stroke-linejoin:miter;stroke-width:2;"/>
   </g>
   <g id="patch_47">
    <path clip-path="url(#p9867940a74)" d="M 961.513512 47.992273 
C 962.688753 47.992273 963.816016 47.525345 964.647037 46.694324 
C 965.478057 45.863304 965.944985 44.73604 965.944985 43.5608 
C 965.944985 42.38556 965.478057 41.258296 964.647037 40.427276 
C 963.816016 39.596255 962.688753 39.129328 961.513512 39.129328 
C 960.338272 39.129328 959.211008 39.596255 958.379988 40.427276 
C 957.548968 41.258296 957.08204 42.38556 957.08204 43.5608 
C 957.08204 44.73604 957.548968 45.863304 958.379988 46.694324 
C 959.211008 47.525345 960.338272 47.992273 961.513512 47.992273 
z
" style="fill:#bb8bff;stroke:#bb8bff;stroke-linejoin:miter;stroke-width:1.5;"/>
   </g>
   <g id="patch_48">
    <path clip-path="url(#p9867940a74)" d="M 946.741937 103.783375 
L 976.285087 103.783375 
L 976.285087 74.240225 
L 946.741937 74.240225 
z
" style="fill:#bb8bff;stroke:#bb8bff;stroke-linejoin:miter;stroke-width:1.5;"/>
   </g>
   <g id="patch_49">
    <path clip-path="url(#p9867940a74)" d="M 1006.964512 47.992273 
C 1008.139753 47.992273 1009.267016 47.525345 1010.098037 46.694324 
C 1010.929057 45.863304 1011.395985 44.73604 1011.395985 43.5608 
C 1011.395985 42.38556 1010.929057 41.258296 1010.098037 40.427276 
C 1009.267016 39.596255 1008.139753 39.129328 1006.964512 39.129328 
C 1005.789272 39.129328 1004.662008 39.596255 1003.830988 40.427276 
C 1002.999968 41.258296 1002.53304 42.38556 1002.53304 43.5608 
C 1002.53304 44.73604 1002.999968 45.863304 1003.830988 46.694324 
C 1004.662008 47.525345 1005.789272 47.992273 1006.964512 47.992273 
z
" style="fill:#bb8bff;stroke:#bb8bff;stroke-linejoin:miter;stroke-width:1.5;"/>
   </g>
   <g id="patch_50">
    <path clip-path="url(#p9867940a74)" d="M 992.192937 149.234375 
L 1021.736087 149.234375 
L 1021.736087 119.691225 
L 992.192937 119.691225 
z
" style="fill:#bb8bff;stroke:#bb8bff;stroke-linejoin:miter;stroke-width:1.5;"/>
   </g>
   <g id="patch_51">
    <path clip-path="url(#p9867940a74)" d="M 1052.415512 47.992273 
C 1053.590753 47.992273 1054.718016 47.525345 1055.549037 46.694324 
C 1056.380057 45.863304 1056.846985 44.73604 1056.846985 43.5608 
C 1056.846985 42.38556 1056.380057 41.258296 1055.549037 40.427276 
C 1054.718016 39.596255 1053.590753 39.129328 1052.415512 39.129328 
C 1051.240272 39.129328 1050.113008 39.596255 1049.281988 40.427276 
C 1048.450968 41.258296 1047.98404 42.38556 1047.98404 43.5608 
C 1047.98404 44.73604 1048.450968 45.863304 1049.281988 46.694324 
C 1050.113008 47.525345 1051.240272 47.992273 1052.415512 47.992273 
z
" style="fill:#bb8bff;stroke:#bb8bff;stroke-linejoin:miter;stroke-width:1.5;"/>
   </g>
   <g id="patch_52">
    <path clip-path="url(#p9867940a74)" d="M 1037.643937 194.685375 
L 1067.187087 194.685375 
L 1067.187087 165.142225 
L 1037.643937 165.142225 
z
" style="fill:#bb8bff;stroke:#bb8bff;stroke-linejoin:miter;stroke-width:1.5;"/>
   </g>
   <g id="patch_53">
    <path clip-path="url(#p9867940a74)" d="M 1097.866512 47.992273 
C 1099.041753 47.992273 1100.169016 47.525345 1101.000037 46.694324 
C 1101.831057 45.863304 1102.297985 44.73604 1102.297985 43.5608 
C 1102.297985 42.38556 1101.831057 41.258296 1101.000037 40.427276 
C 1100.169016 39.596255 1099.041753 39.129328 1097.866512 39.129328 
C 1096.691272 39.129328 1095.564008 39.596255 1094.732988 40.427276 
C 1093.901968 41.258296 1093.43504 42.38556 1093.43504 43.5608 
C 1093.43504 44.73604 1093.901968 45.863304 1094.732988 46.694324 
C 1095.564008 47.525345 1096.691272 47.992273 1097.866512 47.992273 
z
" style="fill:#bb8bff;stroke:#bb8bff;stroke-linejoin:miter;stroke-width:1.5;"/>
   </g>
   <g id="patch_54">
    <path clip-path="url(#p9867940a74)" d="M 1083.094937 103.783375 
L 1112.638087 103.783375 
L 1112.638087 74.240225 
L 1083.094937 74.240225 
z
" style="fill:#bb8bff;stroke:#bb8bff;stroke-linejoin:miter;stroke-width:1.5;"/>
   </g>
   <g id="patch_55">
    <path clip-path="url(#p9867940a74)" d="M 1143.317512 47.992273 
C 1144.492753 47.992273 1145.620016 47.525345 1146.451037 46.694324 
C 1147.282057 45.863304 1147.748985 44.73604 1147.748985 43.5608 
C 1147.748985 42.38556 1147.282057 41.258296 1146.451037 40.427276 
C 1145.620016 39.596255 1144.492753 39.129328 1143.317512 39.129328 
C 1142.142272 39.129328 1141.015008 39.596255 1140.183988 40.427276 
C 1139.352968 41.258296 1138.88604 42.38556 1138.88604 43.5608 
C 1138.88604 44.73604 1139.352968 45.863304 1140.183988 46.694324 
C 1141.015008 47.525345 1142.142272 47.992273 1143.317512 47.992273 
z
" style="fill:#bb8bff;stroke:#bb8bff;stroke-linejoin:miter;stroke-width:1.5;"/>
   </g>
   <g id="patch_56">
    <path clip-path="url(#p9867940a74)" d="M 1128.545937 149.234375 
L 1158.089087 149.234375 
L 1158.089087 119.691225 
L 1128.545937 119.691225 
z
" style="fill:#bb8bff;stroke:#bb8bff;stroke-linejoin:miter;stroke-width:1.5;"/>
   </g>
   <g id="patch_57">
    <path clip-path="url(#p9867940a74)" d="M 1188.768512 47.992273 
C 1189.943753 47.992273 1191.071016 47.525345 1191.902037 46.694324 
C 1192.733057 45.863304 1193.199985 44.73604 1193.199985 43.5608 
C 1193.199985 42.38556 1192.733057 41.258296 1191.902037 40.427276 
C 1191.071016 39.596255 1189.943753 39.129328 1188.768512 39.129328 
C 1187.593272 39.129328 1186.466008 39.596255 1185.634988 40.427276 
C 1184.803968 41.258296 1184.33704 42.38556 1184.33704 43.5608 
C 1184.33704 44.73604 1184.803968 45.863304 1185.634988 46.694324 
C 1186.466008 47.525345 1187.593272 47.992273 1188.768512 47.992273 
z
" style="fill:#bb8bff;stroke:#bb8bff;stroke-linejoin:miter;stroke-width:1.5;"/>
   </g>
   <g id="patch_58">
    <path clip-path="url(#p9867940a74)" d="M 1173.996937 194.685375 
L 1203.540087 194.685375 
L 1203.540087 165.142225 
L 1173.996937 165.142225 
z
" style="fill:#bb8bff;stroke:#bb8bff;stroke-linejoin:miter;stroke-width:1.5;"/>
   </g>
   <g id="patch_59">
    <path clip-path="url(#p9867940a74)" d="M 83.172937 331.038375 
L 112.716087 331.038375 
L 112.716087 301.495225 
L 83.172937 301.495225 
z
" style="fill:#6fa4ff;stroke:#6fa4ff;stroke-linejoin:miter;stroke-width:1.5;"/>
   </g>
   <g id="line2d_37">
    <path clip-path="url(#p9867940a74)" d="M 279.748512 231.27343 
L 279.748512 219.45617 
" style="fill:none;stroke:#ffffff;stroke-linecap:square;stroke-width:2;"/>
   </g>
   <g id="line2d_38">
    <path clip-path="url(#p9867940a74)" d="M 273.839882 225.3648 
L 285.657142 225.3648 
" style="fill:none;stroke:#ffffff;stroke-linecap:square;stroke-width:2;"/>
   </g>
   <g id="line2d_39">
    <path clip-path="url(#p9867940a74)" d="M 370.650512 231.27343 
L 370.650512 219.45617 
" style="fill:none;stroke:#ffffff;stroke-linecap:square;stroke-width:2;"/>
   </g>
   <g id="line2d_40">
    <path clip-path="url(#p9867940a74)" d="M 364.741882 225.3648 
L 376.559142 225.3648 
" style="fill:none;stroke:#ffffff;stroke-linecap:square;stroke-width:2;"/>
   </g>
   <g id="line2d_41">
    <path clip-path="url(#p9867940a74)" d="M 416.101512 231.27343 
L 416.101512 219.45617 
" style="fill:none;stroke:#ffffff;stroke-linecap:square;stroke-width:2;"/>
   </g>
   <g id="line2d_42">
    <path clip-path="url(#p9867940a74)" d="M 410.192882 225.3648 
L 422.010142 225.3648 
" style="fill:none;stroke:#ffffff;stroke-linecap:square;stroke-width:2;"/>
   </g>
   <g id="line2d_43">
    <path clip-path="url(#p9867940a74)" d="M 507.003512 231.27343 
L 507.003512 219.45617 
" style="fill:none;stroke:#ffffff;stroke-linecap:square;stroke-width:2;"/>
   </g>
   <g id="line2d_44">
    <path clip-path="url(#p9867940a74)" d="M 501.094882 225.3648 
L 512.912142 225.3648 
" style="fill:none;stroke:#ffffff;stroke-linecap:square;stroke-width:2;"/>
   </g>
   <g id="line2d_45">
    <path clip-path="url(#p9867940a74)" d="M 688.807512 231.27343 
L 688.807512 219.45617 
" style="fill:none;stroke:#ffffff;stroke-linecap:square;stroke-width:2;"/>
   </g>
   <g id="line2d_46">
    <path clip-path="url(#p9867940a74)" d="M 682.898882 225.3648 
L 694.716142 225.3648 
" style="fill:none;stroke:#ffffff;stroke-linecap:square;stroke-width:2;"/>
   </g>
   <g id="line2d_47">
    <path clip-path="url(#p9867940a74)" d="M 779.709512 231.27343 
L 779.709512 219.45617 
" style="fill:none;stroke:#ffffff;stroke-linecap:square;stroke-width:2;"/>
   </g>
   <g id="line2d_48">
    <path clip-path="url(#p9867940a74)" d="M 773.800882 225.3648 
L 785.618142 225.3648 
" style="fill:none;stroke:#ffffff;stroke-linecap:square;stroke-width:2;"/>
   </g>
   <g id="line2d_49">
    <path clip-path="url(#p9867940a74)" d="M 825.160512 231.27343 
L 825.160512 219.45617 
" style="fill:none;stroke:#ffffff;stroke-linecap:square;stroke-width:2;"/>
   </g>
   <g id="line2d_50">
    <path clip-path="url(#p9867940a74)" d="M 819.251882 225.3648 
L 831.069142 225.3648 
" style="fill:none;stroke:#ffffff;stroke-linecap:square;stroke-width:2;"/>
   </g>
   <g id="line2d_51">
    <path clip-path="url(#p9867940a74)" d="M 916.062512 231.27343 
L 916.062512 219.45617 
" style="fill:none;stroke:#ffffff;stroke-linecap:square;stroke-width:2;"/>
   </g>
   <g id="line2d_52">
    <path clip-path="url(#p9867940a74)" d="M 910.153882 225.3648 
L 921.971142 225.3648 
" style="fill:none;stroke:#ffffff;stroke-linecap:square;stroke-width:2;"/>
   </g>
   <g id="text_1">
    <g clip-path="url(#p9867940a74)">
     <!-- H -->
     <defs>
      <path d="M 9.8125 72.90625 
L 19.671875 72.90625 
L 19.671875 43.015625 
L 55.515625 43.015625 
L 55.515625 72.90625 
L 65.375 72.90625 
L 65.375 0 
L 55.515625 0 
L 55.515625 34.71875 
L 19.671875 34.71875 
L 19.671875 0 
L 9.8125 0 
z
" id="DejaVuSans-72"/>
     </defs>
     <g transform="translate(93.056309 47.147988)scale(0.13 -0.13)">
      <use xlink:href="#DejaVuSans-72"/>
     </g>
    </g>
   </g>
   <g id="text_2">
    <g clip-path="url(#p9867940a74)">
     <!-- $\mathrm{R}_\mathrm{Y}$ -->
     <defs>
      <path d="M 44.390625 34.1875 
Q 47.5625 33.109375 50.5625 29.59375 
Q 53.5625 26.078125 56.59375 19.921875 
L 66.609375 0 
L 56 0 
L 46.6875 18.703125 
Q 43.0625 26.03125 39.671875 28.421875 
Q 36.28125 30.8125 30.421875 30.8125 
L 19.671875 30.8125 
L 19.671875 0 
L 9.8125 0 
L 9.8125 72.90625 
L 32.078125 72.90625 
Q 44.578125 72.90625 50.734375 67.671875 
Q 56.890625 62.453125 56.890625 51.90625 
Q 56.890625 45.015625 53.6875 40.46875 
Q 50.484375 35.9375 44.390625 34.1875 
z
M 19.671875 64.796875 
L 19.671875 38.921875 
L 32.078125 38.921875 
Q 39.203125 38.921875 42.84375 42.21875 
Q 46.484375 45.515625 46.484375 51.90625 
Q 46.484375 58.296875 42.84375 61.546875 
Q 39.203125 64.796875 32.078125 64.796875 
z
" id="DejaVuSans-82"/>
      <path d="M -0.203125 72.90625 
L 10.40625 72.90625 
L 30.609375 42.921875 
L 50.6875 72.90625 
L 61.28125 72.90625 
L 35.5 34.71875 
L 35.5 0 
L 25.59375 0 
L 25.59375 34.71875 
z
" id="DejaVuSans-89"/>
     </defs>
     <g transform="translate(135.855512 88.167515)scale(0.13 -0.13)">
      <use transform="translate(0 0.09375)" xlink:href="#DejaVuSans-82"/>
      <use transform="translate(70.439453 -16.3125)scale(0.7)" xlink:href="#DejaVuSans-89"/>
     </g>
    </g>
   </g>
   <g id="text_3">
    <g clip-path="url(#p9867940a74)">
     <!-- 1 -->
     <defs>
      <path d="M 12.40625 8.296875 
L 28.515625 8.296875 
L 28.515625 63.921875 
L 10.984375 60.40625 
L 10.984375 69.390625 
L 28.421875 72.90625 
L 38.28125 72.90625 
L 38.28125 8.296875 
L 54.390625 8.296875 
L 54.390625 0 
L 12.40625 0 
z
" id="DejaVuSans-49"/>
     </defs>
     <g transform="translate(140.850512 100.082245)scale(0.08 -0.08)">
      <use xlink:href="#DejaVuSans-49"/>
     </g>
    </g>
   </g>
   <g id="text_4">
    <g clip-path="url(#p9867940a74)">
     <!-- $\mathrm{R}_\mathrm{Y}$ -->
     <g transform="translate(181.306512 133.618515)scale(0.13 -0.13)">
      <use transform="translate(0 0.09375)" xlink:href="#DejaVuSans-82"/>
      <use transform="translate(70.439453 -16.3125)scale(0.7)" xlink:href="#DejaVuSans-89"/>
     </g>
    </g>
   </g>
   <g id="text_5">
    <g clip-path="url(#p9867940a74)">
     <!-- 1 -->
     <g transform="translate(186.301512 145.533245)scale(0.08 -0.08)">
      <use xlink:href="#DejaVuSans-49"/>
     </g>
    </g>
   </g>
   <g id="text_6">
    <g clip-path="url(#p9867940a74)">
     <!-- $\mathrm{R}_\mathrm{Y}$ -->
     <g transform="translate(226.757512 179.069515)scale(0.13 -0.13)">
      <use transform="translate(0 0.09375)" xlink:href="#DejaVuSans-82"/>
      <use transform="translate(70.439453 -16.3125)scale(0.7)" xlink:href="#DejaVuSans-89"/>
     </g>
    </g>
   </g>
   <g id="text_7">
    <g clip-path="url(#p9867940a74)">
     <!-- 1 -->
     <g transform="translate(231.752512 190.984245)scale(0.08 -0.08)">
      <use xlink:href="#DejaVuSans-49"/>
     </g>
    </g>
   </g>
   <g id="text_8">
    <g clip-path="url(#p9867940a74)">
     <!-- $\mathrm{R}_\mathrm{Y}$ -->
     <g transform="translate(544.914512 88.167515)scale(0.13 -0.13)">
      <use transform="translate(0 0.09375)" xlink:href="#DejaVuSans-82"/>
      <use transform="translate(70.439453 -16.3125)scale(0.7)" xlink:href="#DejaVuSans-89"/>
     </g>
    </g>
   </g>
   <g id="text_9">
    <g clip-path="url(#p9867940a74)">
     <!-- 1 -->
     <g transform="translate(549.909512 100.082245)scale(0.08 -0.08)">
      <use xlink:href="#DejaVuSans-49"/>
     </g>
    </g>
   </g>
   <g id="text_10">
    <g clip-path="url(#p9867940a74)">
     <!-- $\mathrm{R}_\mathrm{Y}$ -->
     <g transform="translate(590.365512 133.618515)scale(0.13 -0.13)">
      <use transform="translate(0 0.09375)" xlink:href="#DejaVuSans-82"/>
      <use transform="translate(70.439453 -16.3125)scale(0.7)" xlink:href="#DejaVuSans-89"/>
     </g>
    </g>
   </g>
   <g id="text_11">
    <g clip-path="url(#p9867940a74)">
     <!-- 1 -->
     <g transform="translate(595.360512 145.533245)scale(0.08 -0.08)">
      <use xlink:href="#DejaVuSans-49"/>
     </g>
    </g>
   </g>
   <g id="text_12">
    <g clip-path="url(#p9867940a74)">
     <!-- $\mathrm{R}_\mathrm{Y}$ -->
     <g transform="translate(635.816512 179.069515)scale(0.13 -0.13)">
      <use transform="translate(0 0.09375)" xlink:href="#DejaVuSans-82"/>
      <use transform="translate(70.439453 -16.3125)scale(0.7)" xlink:href="#DejaVuSans-89"/>
     </g>
    </g>
   </g>
   <g id="text_13">
    <g clip-path="url(#p9867940a74)">
     <!-- 1 -->
     <g transform="translate(640.811512 190.984245)scale(0.08 -0.08)">
      <use xlink:href="#DejaVuSans-49"/>
     </g>
    </g>
   </g>
   <g id="text_14">
    <g clip-path="url(#p9867940a74)">
     <!-- $\mathrm{R}_\mathrm{Y}$ -->
     <g transform="translate(953.973512 88.167515)scale(0.13 -0.13)">
      <use transform="translate(0 0.09375)" xlink:href="#DejaVuSans-82"/>
      <use transform="translate(70.439453 -16.3125)scale(0.7)" xlink:href="#DejaVuSans-89"/>
     </g>
    </g>
   </g>
   <g id="text_15">
    <g clip-path="url(#p9867940a74)">
     <!-- 1 -->
     <g transform="translate(958.968512 100.082245)scale(0.08 -0.08)">
      <use xlink:href="#DejaVuSans-49"/>
     </g>
    </g>
   </g>
   <g id="text_16">
    <g clip-path="url(#p9867940a74)">
     <!-- $\mathrm{R}_\mathrm{Y}$ -->
     <g transform="translate(999.424512 133.618515)scale(0.13 -0.13)">
      <use transform="translate(0 0.09375)" xlink:href="#DejaVuSans-82"/>
      <use transform="translate(70.439453 -16.3125)scale(0.7)" xlink:href="#DejaVuSans-89"/>
     </g>
    </g>
   </g>
   <g id="text_17">
    <g clip-path="url(#p9867940a74)">
     <!-- 1 -->
     <g transform="translate(1004.419512 145.533245)scale(0.08 -0.08)">
      <use xlink:href="#DejaVuSans-49"/>
     </g>
    </g>
   </g>
   <g id="text_18">
    <g clip-path="url(#p9867940a74)">
     <!-- $\mathrm{R}_\mathrm{Y}$ -->
     <g transform="translate(1044.875512 179.069515)scale(0.13 -0.13)">
      <use transform="translate(0 0.09375)" xlink:href="#DejaVuSans-82"/>
      <use transform="translate(70.439453 -16.3125)scale(0.7)" xlink:href="#DejaVuSans-89"/>
     </g>
    </g>
   </g>
   <g id="text_19">
    <g clip-path="url(#p9867940a74)">
     <!-- 1 -->
     <g transform="translate(1049.870512 190.984245)scale(0.08 -0.08)">
      <use xlink:href="#DejaVuSans-49"/>
     </g>
    </g>
   </g>
   <g id="text_20">
    <g clip-path="url(#p9867940a74)">
     <!-- H -->
     <g transform="translate(1092.978309 92.598988)scale(0.13 -0.13)">
      <use xlink:href="#DejaVuSans-72"/>
     </g>
    </g>
   </g>
   <g id="text_21">
    <g clip-path="url(#p9867940a74)">
     <!-- H -->
     <g transform="translate(1138.429309 138.049988)scale(0.13 -0.13)">
      <use xlink:href="#DejaVuSans-72"/>
     </g>
    </g>
   </g>
   <g id="text_22">
    <g clip-path="url(#p9867940a74)">
     <!-- H -->
     <g transform="translate(1183.880309 183.500988)scale(0.13 -0.13)">
      <use xlink:href="#DejaVuSans-72"/>
     </g>
    </g>
   </g>
   <g id="text_23">
    <g clip-path="url(#p9867940a74)">
     <!-- H -->
     <g transform="translate(93.056309 319.853987)scale(0.13 -0.13)">
      <use xlink:href="#DejaVuSans-72"/>
     </g>
    </g>
   </g>
   <g id="text_24">
    <g clip-path="url(#p9867940a74)">
     <!-- ${q1}_{0}$ -->
     <defs>
      <path d="M 41.703125 8.203125 
Q 38.09375 3.46875 33.171875 1.015625 
Q 28.265625 -1.421875 22.3125 -1.421875 
Q 14.015625 -1.421875 9.296875 4.171875 
Q 4.59375 9.765625 4.59375 19.578125 
Q 4.59375 27.484375 7.5 34.859375 
Q 10.40625 42.234375 15.828125 48.09375 
Q 19.34375 51.90625 23.90625 53.953125 
Q 28.46875 56 33.5 56 
Q 39.546875 56 43.453125 53.609375 
Q 47.359375 51.21875 49.125 46.390625 
L 50.6875 54.59375 
L 59.71875 54.59375 
L 45.125 -20.609375 
L 36.078125 -20.609375 
z
M 13.921875 20.90625 
Q 13.921875 13.671875 16.9375 9.890625 
Q 19.96875 6.109375 25.6875 6.109375 
Q 34.1875 6.109375 40.1875 14.234375 
Q 46.1875 22.359375 46.1875 33.984375 
Q 46.1875 41.015625 43.078125 44.75 
Q 39.984375 48.484375 34.1875 48.484375 
Q 29.9375 48.484375 26.3125 46.5 
Q 22.703125 44.53125 20.015625 40.71875 
Q 17.1875 36.71875 15.546875 31.34375 
Q 13.921875 25.984375 13.921875 20.90625 
z
" id="DejaVuSans-Oblique-113"/>
      <path d="M 31.78125 66.40625 
Q 24.171875 66.40625 20.328125 58.90625 
Q 16.5 51.421875 16.5 36.375 
Q 16.5 21.390625 20.328125 13.890625 
Q 24.171875 6.390625 31.78125 6.390625 
Q 39.453125 6.390625 43.28125 13.890625 
Q 47.125 21.390625 47.125 36.375 
Q 47.125 51.421875 43.28125 58.90625 
Q 39.453125 66.40625 31.78125 66.40625 
z
M 31.78125 74.21875 
Q 44.046875 74.21875 50.515625 64.515625 
Q 56.984375 54.828125 56.984375 36.375 
Q 56.984375 17.96875 50.515625 8.265625 
Q 44.046875 -1.421875 31.78125 -1.421875 
Q 19.53125 -1.421875 13.0625 8.265625 
Q 6.59375 17.96875 6.59375 36.375 
Q 6.59375 54.828125 13.0625 64.515625 
Q 19.53125 74.21875 31.78125 74.21875 
z
" id="DejaVuSans-48"/>
     </defs>
     <g transform="translate(35.710772 48.011777)scale(0.1625 -0.1625)">
      <use transform="translate(0 0.09375)" xlink:href="#DejaVuSans-Oblique-113"/>
      <use transform="translate(63.476562 0.09375)" xlink:href="#DejaVuSans-49"/>
      <use transform="translate(128.056641 -16.3125)scale(0.7)" xlink:href="#DejaVuSans-48"/>
     </g>
    </g>
   </g>
   <g id="text_25">
    <g clip-path="url(#p9867940a74)">
     <!-- ${q1}_{1}$ -->
     <g transform="translate(35.710772 93.462777)scale(0.1625 -0.1625)">
      <use transform="translate(0 0.09375)" xlink:href="#DejaVuSans-Oblique-113"/>
      <use transform="translate(63.476562 0.09375)" xlink:href="#DejaVuSans-49"/>
      <use transform="translate(128.056641 -16.3125)scale(0.7)" xlink:href="#DejaVuSans-49"/>
     </g>
    </g>
   </g>
   <g id="text_26">
    <g clip-path="url(#p9867940a74)">
     <!-- ${q1}_{2}$ -->
     <defs>
      <path d="M 19.1875 8.296875 
L 53.609375 8.296875 
L 53.609375 0 
L 7.328125 0 
L 7.328125 8.296875 
Q 12.9375 14.109375 22.625 23.890625 
Q 32.328125 33.6875 34.8125 36.53125 
Q 39.546875 41.84375 41.421875 45.53125 
Q 43.3125 49.21875 43.3125 52.78125 
Q 43.3125 58.59375 39.234375 62.25 
Q 35.15625 65.921875 28.609375 65.921875 
Q 23.96875 65.921875 18.8125 64.3125 
Q 13.671875 62.703125 7.8125 59.421875 
L 7.8125 69.390625 
Q 13.765625 71.78125 18.9375 73 
Q 24.125 74.21875 28.421875 74.21875 
Q 39.75 74.21875 46.484375 68.546875 
Q 53.21875 62.890625 53.21875 53.421875 
Q 53.21875 48.921875 51.53125 44.890625 
Q 49.859375 40.875 45.40625 35.40625 
Q 44.1875 33.984375 37.640625 27.21875 
Q 31.109375 20.453125 19.1875 8.296875 
z
" id="DejaVuSans-50"/>
     </defs>
     <g transform="translate(35.710772 138.913777)scale(0.1625 -0.1625)">
      <use transform="translate(0 0.09375)" xlink:href="#DejaVuSans-Oblique-113"/>
      <use transform="translate(63.476562 0.09375)" xlink:href="#DejaVuSans-49"/>
      <use transform="translate(128.056641 -16.3125)scale(0.7)" xlink:href="#DejaVuSans-50"/>
     </g>
    </g>
   </g>
   <g id="text_27">
    <g clip-path="url(#p9867940a74)">
     <!-- ${q1}_{3}$ -->
     <defs>
      <path d="M 40.578125 39.3125 
Q 47.65625 37.796875 51.625 33 
Q 55.609375 28.21875 55.609375 21.1875 
Q 55.609375 10.40625 48.1875 4.484375 
Q 40.765625 -1.421875 27.09375 -1.421875 
Q 22.515625 -1.421875 17.65625 -0.515625 
Q 12.796875 0.390625 7.625 2.203125 
L 7.625 11.71875 
Q 11.71875 9.328125 16.59375 8.109375 
Q 21.484375 6.890625 26.8125 6.890625 
Q 36.078125 6.890625 40.9375 10.546875 
Q 45.796875 14.203125 45.796875 21.1875 
Q 45.796875 27.640625 41.28125 31.265625 
Q 36.765625 34.90625 28.71875 34.90625 
L 20.21875 34.90625 
L 20.21875 43.015625 
L 29.109375 43.015625 
Q 36.375 43.015625 40.234375 45.921875 
Q 44.09375 48.828125 44.09375 54.296875 
Q 44.09375 59.90625 40.109375 62.90625 
Q 36.140625 65.921875 28.71875 65.921875 
Q 24.65625 65.921875 20.015625 65.03125 
Q 15.375 64.15625 9.8125 62.3125 
L 9.8125 71.09375 
Q 15.4375 72.65625 20.34375 73.4375 
Q 25.25 74.21875 29.59375 74.21875 
Q 40.828125 74.21875 47.359375 69.109375 
Q 53.90625 64.015625 53.90625 55.328125 
Q 53.90625 49.265625 50.4375 45.09375 
Q 46.96875 40.921875 40.578125 39.3125 
z
" id="DejaVuSans-51"/>
     </defs>
     <g transform="translate(35.710772 184.364777)scale(0.1625 -0.1625)">
      <use transform="translate(0 0.09375)" xlink:href="#DejaVuSans-Oblique-113"/>
      <use transform="translate(63.476562 0.09375)" xlink:href="#DejaVuSans-49"/>
      <use transform="translate(128.056641 -16.3125)scale(0.7)" xlink:href="#DejaVuSans-51"/>
     </g>
    </g>
   </g>
   <g id="text_28">
    <g clip-path="url(#p9867940a74)">
     <!-- ${q1}_{4}$ -->
     <defs>
      <path d="M 37.796875 64.3125 
L 12.890625 25.390625 
L 37.796875 25.390625 
z
M 35.203125 72.90625 
L 47.609375 72.90625 
L 47.609375 25.390625 
L 58.015625 25.390625 
L 58.015625 17.1875 
L 47.609375 17.1875 
L 47.609375 0 
L 37.796875 0 
L 37.796875 17.1875 
L 4.890625 17.1875 
L 4.890625 26.703125 
z
" id="DejaVuSans-52"/>
     </defs>
     <g transform="translate(35.710772 229.815777)scale(0.1625 -0.1625)">
      <use transform="translate(0 0.09375)" xlink:href="#DejaVuSans-Oblique-113"/>
      <use transform="translate(63.476562 0.09375)" xlink:href="#DejaVuSans-49"/>
      <use transform="translate(128.056641 -16.3125)scale(0.7)" xlink:href="#DejaVuSans-52"/>
     </g>
    </g>
   </g>
   <g id="text_29">
    <g clip-path="url(#p9867940a74)">
     <!-- ${q1}_{0}$ -->
     <g transform="translate(35.710772 320.717777)scale(0.1625 -0.1625)">
      <use transform="translate(0 0.09375)" xlink:href="#DejaVuSans-Oblique-113"/>
      <use transform="translate(63.476562 0.09375)" xlink:href="#DejaVuSans-49"/>
      <use transform="translate(128.056641 -16.3125)scale(0.7)" xlink:href="#DejaVuSans-48"/>
     </g>
    </g>
   </g>
   <g id="text_30">
    <g clip-path="url(#p9867940a74)">
     <!-- ${q1}_{1}$ -->
     <g transform="translate(35.710772 366.168777)scale(0.1625 -0.1625)">
      <use transform="translate(0 0.09375)" xlink:href="#DejaVuSans-Oblique-113"/>
      <use transform="translate(63.476562 0.09375)" xlink:href="#DejaVuSans-49"/>
      <use transform="translate(128.056641 -16.3125)scale(0.7)" xlink:href="#DejaVuSans-49"/>
     </g>
    </g>
   </g>
   <g id="text_31">
    <g clip-path="url(#p9867940a74)">
     <!-- ${q1}_{2}$ -->
     <g transform="translate(35.710772 411.619777)scale(0.1625 -0.1625)">
      <use transform="translate(0 0.09375)" xlink:href="#DejaVuSans-Oblique-113"/>
      <use transform="translate(63.476562 0.09375)" xlink:href="#DejaVuSans-49"/>
      <use transform="translate(128.056641 -16.3125)scale(0.7)" xlink:href="#DejaVuSans-50"/>
     </g>
    </g>
   </g>
   <g id="text_32">
    <g clip-path="url(#p9867940a74)">
     <!-- ${q1}_{3}$ -->
     <g transform="translate(35.710772 457.070777)scale(0.1625 -0.1625)">
      <use transform="translate(0 0.09375)" xlink:href="#DejaVuSans-Oblique-113"/>
      <use transform="translate(63.476562 0.09375)" xlink:href="#DejaVuSans-49"/>
      <use transform="translate(128.056641 -16.3125)scale(0.7)" xlink:href="#DejaVuSans-51"/>
     </g>
    </g>
   </g>
   <g id="text_33">
    <g clip-path="url(#p9867940a74)">
     <!-- ${q1}_{4}$ -->
     <g transform="translate(35.710772 502.521777)scale(0.1625 -0.1625)">
      <use transform="translate(0 0.09375)" xlink:href="#DejaVuSans-Oblique-113"/>
      <use transform="translate(63.476562 0.09375)" xlink:href="#DejaVuSans-49"/>
      <use transform="translate(128.056641 -16.3125)scale(0.7)" xlink:href="#DejaVuSans-52"/>
     </g>
    </g>
   </g>
  </g>
 </g>
 <defs>
  <clipPath id="p9867940a74">
   <rect height="518.1414" width="1211.566172" x="7.2" y="7.2"/>
  </clipPath>
 </defs>
</svg>
