<?xml version="1.0" encoding="utf-8" standalone="no"?>
<!DOCTYPE svg PUBLIC "-//W3C//DTD SVG 1.1//EN"
  "http://www.w3.org/Graphics/SVG/1.1/DTD/svg11.dtd">
<!-- Created with matplotlib (https://matplotlib.org/) -->
<svg height="214.3844pt" version="1.1" viewBox="0 0 488.840036 214.3844" width="488.840036pt" xmlns="http://www.w3.org/2000/svg" xmlns:xlink="http://www.w3.org/1999/xlink">
 <defs>
  <style type="text/css">
*{stroke-linecap:butt;stroke-linejoin:round;}
  </style>
 </defs>
 <g id="figure_1">
  <g id="patch_1">
   <path d="M 0 214.3844 
L 488.840036 214.3844 
L 488.840036 0 
L 0 0 
z
" style="fill:#ffffff;"/>
  </g>
  <g id="axes_1">
   <g id="line2d_1">
    <path clip-path="url(#pe780d7213b)" d="M 63.490836 43.5608 
L 477.094936 43.5608 
" style="fill:none;stroke:#000000;stroke-linecap:square;stroke-width:2;"/>
   </g>
   <g id="line2d_2">
    <path clip-path="url(#pe780d7213b)" d="M 63.490836 89.0118 
L 477.094936 89.0118 
" style="fill:none;stroke:#000000;stroke-linecap:square;stroke-width:2;"/>
   </g>
   <g id="line2d_3">
    <path clip-path="url(#pe780d7213b)" d="M 63.490836 134.4628 
L 477.094936 134.4628 
" style="fill:none;stroke:#000000;stroke-linecap:square;stroke-width:2;"/>
   </g>
   <g id="line2d_4">
    <path clip-path="url(#pe780d7213b)" d="M 63.490836 179.9138 
L 477.094936 179.9138 
" style="fill:none;stroke:#000000;stroke-linecap:square;stroke-width:2;"/>
   </g>
   <g id="line2d_5">
    <path clip-path="url(#pe780d7213b)" d="M 133.485376 134.4628 
L 133.485376 89.0118 
" style="fill:none;stroke:#6fa4ff;stroke-linecap:square;stroke-width:2;"/>
   </g>
   <g id="line2d_6">
    <path clip-path="url(#pe780d7213b)" d="M 178.936376 179.9138 
L 178.936376 89.0118 
" style="fill:none;stroke:#6fa4ff;stroke-linecap:square;stroke-width:2;"/>
   </g>
   <g id="line2d_7">
    <path clip-path="url(#pe780d7213b)" d="M 269.838376 179.9138 
L 269.838376 134.4628 
" style="fill:none;stroke:#6fa4ff;stroke-linecap:square;stroke-width:2;"/>
   </g>
   <g id="line2d_8">
    <path clip-path="url(#pe780d7213b)" d="M 315.289376 179.9138 
L 315.289376 89.0118 
" style="fill:none;stroke:#6fa4ff;stroke-linecap:square;stroke-width:2;"/>
   </g>
   <g id="line2d_9">
    <path clip-path="url(#pe780d7213b)" d="M 406.191376 179.9138 
L 406.191376 43.5608 
" style="fill:none;stroke:#6fa4ff;stroke-linecap:square;stroke-width:2;"/>
   </g>
   <g id="patch_2">
    <path clip-path="url(#pe780d7213b)" d="M 73.262801 58.332375 
L 102.805951 58.332375 
L 102.805951 28.789225 
L 73.262801 28.789225 
z
" style="fill:#6fa4ff;stroke:#6fa4ff;stroke-linejoin:miter;stroke-width:1.5;"/>
   </g>
   <g id="patch_3">
    <path clip-path="url(#pe780d7213b)" d="M 73.262801 103.783375 
L 102.805951 103.783375 
L 102.805951 74.240225 
L 73.262801 74.240225 
z
" style="fill:#bb8bff;stroke:#bb8bff;stroke-linejoin:miter;stroke-width:1.5;"/>
   </g>
   <g id="patch_4">
    <path clip-path="url(#pe780d7213b)" d="M 73.262801 149.234375 
L 102.805951 149.234375 
L 102.805951 119.691225 
L 73.262801 119.691225 
z
" style="fill:#bb8bff;stroke:#bb8bff;stroke-linejoin:miter;stroke-width:1.5;"/>
   </g>
   <g id="patch_5">
    <path clip-path="url(#pe780d7213b)" d="M 73.262801 194.685375 
L 102.805951 194.685375 
L 102.805951 165.142225 
L 73.262801 165.142225 
z
" style="fill:#bb8bff;stroke:#bb8bff;stroke-linejoin:miter;stroke-width:1.5;"/>
   </g>
   <g id="patch_6">
    <path clip-path="url(#pe780d7213b)" d="M 133.485376 93.443272 
C 134.660616 93.443272 135.78788 92.976345 136.618901 92.145324 
C 137.449921 91.314304 137.916849 90.18704 137.916849 89.0118 
C 137.916849 87.83656 137.449921 86.709296 136.618901 85.878276 
C 135.78788 85.047255 134.660616 84.580327 133.485376 84.580327 
C 132.310136 84.580327 131.182872 85.047255 130.351852 85.878276 
C 129.520832 86.709296 129.053904 87.83656 129.053904 89.0118 
C 129.053904 90.18704 129.520832 91.314304 130.351852 92.145324 
C 131.182872 92.976345 132.310136 93.443272 133.485376 93.443272 
z
" style="fill:#6fa4ff;stroke:#6fa4ff;stroke-linejoin:miter;stroke-width:1.5;"/>
   </g>
   <g id="patch_7">
    <path clip-path="url(#pe780d7213b)" d="M 133.485376 138.894273 
C 134.660616 138.894273 135.78788 138.427345 136.618901 137.596324 
C 137.449921 136.765304 137.916849 135.63804 137.916849 134.4628 
C 137.916849 133.28756 137.449921 132.160296 136.618901 131.329276 
C 135.78788 130.498255 134.660616 130.031328 133.485376 130.031328 
C 132.310136 130.031328 131.182872 130.498255 130.351852 131.329276 
C 129.520832 132.160296 129.053904 133.28756 129.053904 134.4628 
C 129.053904 135.63804 129.520832 136.765304 130.351852 137.596324 
C 131.182872 138.427345 132.310136 138.894273 133.485376 138.894273 
z
" style="fill:#6fa4ff;stroke:#6fa4ff;stroke-linejoin:miter;stroke-width:1.5;"/>
   </g>
   <g id="patch_8">
    <path clip-path="url(#pe780d7213b)" d="M 178.936376 184.345273 
C 180.111616 184.345273 181.23888 183.878345 182.069901 183.047324 
C 182.900921 182.216304 183.367849 181.08904 183.367849 179.9138 
C 183.367849 178.73856 182.900921 177.611296 182.069901 176.780276 
C 181.23888 175.949255 180.111616 175.482327 178.936376 175.482327 
C 177.761136 175.482327 176.633872 175.949255 175.802852 176.780276 
C 174.971832 177.611296 174.504904 178.73856 174.504904 179.9138 
C 174.504904 181.08904 174.971832 182.216304 175.802852 183.047324 
C 176.633872 183.878345 177.761136 184.345273 178.936376 184.345273 
z
" style="fill:#6fa4ff;stroke:#6fa4ff;stroke-linejoin:miter;stroke-width:1.5;"/>
   </g>
   <g id="patch_9">
    <path clip-path="url(#pe780d7213b)" d="M 178.936376 93.443272 
C 180.111616 93.443272 181.23888 92.976345 182.069901 92.145324 
C 182.900921 91.314304 183.367849 90.18704 183.367849 89.0118 
C 183.367849 87.83656 182.900921 86.709296 182.069901 85.878276 
C 181.23888 85.047255 180.111616 84.580327 178.936376 84.580327 
C 177.761136 84.580327 176.633872 85.047255 175.802852 85.878276 
C 174.971832 86.709296 174.504904 87.83656 174.504904 89.0118 
C 174.504904 90.18704 174.971832 91.314304 175.802852 92.145324 
C 176.633872 92.976345 177.761136 93.443272 178.936376 93.443272 
z
" style="fill:#6fa4ff;stroke:#6fa4ff;stroke-linejoin:miter;stroke-width:1.5;"/>
   </g>
   <g id="patch_10">
    <path clip-path="url(#pe780d7213b)" d="M 209.615801 149.234375 
L 239.158951 149.234375 
L 239.158951 119.691225 
L 209.615801 119.691225 
z
" style="fill:#bb8bff;stroke:#bb8bff;stroke-linejoin:miter;stroke-width:1.5;"/>
   </g>
   <g id="patch_11">
    <path clip-path="url(#pe780d7213b)" d="M 209.615801 103.783375 
L 239.158951 103.783375 
L 239.158951 74.240225 
L 209.615801 74.240225 
z
" style="fill:#bb8bff;stroke:#bb8bff;stroke-linejoin:miter;stroke-width:1.5;"/>
   </g>
   <g id="patch_12">
    <path clip-path="url(#pe780d7213b)" d="M 209.615801 194.685375 
L 239.158951 194.685375 
L 239.158951 165.142225 
L 209.615801 165.142225 
z
" style="fill:#bb8bff;stroke:#bb8bff;stroke-linejoin:miter;stroke-width:1.5;"/>
   </g>
   <g id="patch_13">
    <path clip-path="url(#pe780d7213b)" d="M 269.838376 138.894273 
C 271.013616 138.894273 272.14088 138.427345 272.971901 137.596324 
C 273.802921 136.765304 274.269849 135.63804 274.269849 134.4628 
C 274.269849 133.28756 273.802921 132.160296 272.971901 131.329276 
C 272.14088 130.498255 271.013616 130.031328 269.838376 130.031328 
C 268.663136 130.031328 267.535872 130.498255 266.704852 131.329276 
C 265.873832 132.160296 265.406904 133.28756 265.406904 134.4628 
C 265.406904 135.63804 265.873832 136.765304 266.704852 137.596324 
C 267.535872 138.427345 268.663136 138.894273 269.838376 138.894273 
z
" style="fill:#6fa4ff;stroke:#6fa4ff;stroke-linejoin:miter;stroke-width:1.5;"/>
   </g>
   <g id="patch_14">
    <path clip-path="url(#pe780d7213b)" d="M 269.838376 184.345273 
C 271.013616 184.345273 272.14088 183.878345 272.971901 183.047324 
C 273.802921 182.216304 274.269849 181.08904 274.269849 179.9138 
C 274.269849 178.73856 273.802921 177.611296 272.971901 176.780276 
C 272.14088 175.949255 271.013616 175.482327 269.838376 175.482327 
C 268.663136 175.482327 267.535872 175.949255 266.704852 176.780276 
C 265.873832 177.611296 265.406904 178.73856 265.406904 179.9138 
C 265.406904 181.08904 265.873832 182.216304 266.704852 183.047324 
C 267.535872 183.878345 268.663136 184.345273 269.838376 184.345273 
z
" style="fill:#6fa4ff;stroke:#6fa4ff;stroke-linejoin:miter;stroke-width:1.5;"/>
   </g>
   <g id="patch_15">
    <path clip-path="url(#pe780d7213b)" d="M 315.289376 184.345273 
C 316.464616 184.345273 317.59188 183.878345 318.422901 183.047324 
C 319.253921 182.216304 319.720849 181.08904 319.720849 179.9138 
C 319.720849 178.73856 319.253921 177.611296 318.422901 176.780276 
C 317.59188 175.949255 316.464616 175.482327 315.289376 175.482327 
C 314.114136 175.482327 312.986872 175.949255 312.155852 176.780276 
C 311.324832 177.611296 310.857904 178.73856 310.857904 179.9138 
C 310.857904 181.08904 311.324832 182.216304 312.155852 183.047324 
C 312.986872 183.878345 314.114136 184.345273 315.289376 184.345273 
z
" style="fill:#6fa4ff;stroke:#6fa4ff;stroke-linejoin:miter;stroke-width:1.5;"/>
   </g>
   <g id="patch_16">
    <path clip-path="url(#pe780d7213b)" d="M 315.289376 93.443272 
C 316.464616 93.443272 317.59188 92.976345 318.422901 92.145324 
C 319.253921 91.314304 319.720849 90.18704 319.720849 89.0118 
C 319.720849 87.83656 319.253921 86.709296 318.422901 85.878276 
C 317.59188 85.047255 316.464616 84.580327 315.289376 84.580327 
C 314.114136 84.580327 312.986872 85.047255 312.155852 85.878276 
C 311.324832 86.709296 310.857904 87.83656 310.857904 89.0118 
C 310.857904 90.18704 311.324832 91.314304 312.155852 92.145324 
C 312.986872 92.976345 314.114136 93.443272 315.289376 93.443272 
z
" style="fill:#6fa4ff;stroke:#6fa4ff;stroke-linejoin:miter;stroke-width:1.5;"/>
   </g>
   <g id="patch_17">
    <path clip-path="url(#pe780d7213b)" d="M 345.968801 149.234375 
L 375.511951 149.234375 
L 375.511951 119.691225 
L 345.968801 119.691225 
z
" style="fill:#bb8bff;stroke:#bb8bff;stroke-linejoin:miter;stroke-width:1.5;"/>
   </g>
   <g id="patch_18">
    <path clip-path="url(#pe780d7213b)" d="M 345.968801 103.783375 
L 375.511951 103.783375 
L 375.511951 74.240225 
L 345.968801 74.240225 
z
" style="fill:#bb8bff;stroke:#bb8bff;stroke-linejoin:miter;stroke-width:1.5;"/>
   </g>
   <g id="patch_19">
    <path clip-path="url(#pe780d7213b)" d="M 345.968801 194.685375 
L 375.511951 194.685375 
L 375.511951 165.142225 
L 345.968801 165.142225 
z
" style="fill:#bb8bff;stroke:#bb8bff;stroke-linejoin:miter;stroke-width:1.5;"/>
   </g>
   <g id="patch_20">
    <path clip-path="url(#pe780d7213b)" d="M 406.191376 47.992272 
C 407.366616 47.992272 408.49388 47.525345 409.324901 46.694324 
C 410.155921 45.863304 410.622849 44.73604 410.622849 43.5608 
C 410.622849 42.38556 410.155921 41.258296 409.324901 40.427276 
C 408.49388 39.596255 407.366616 39.129328 406.191376 39.129328 
C 405.016136 39.129328 403.888872 39.596255 403.057852 40.427276 
C 402.226832 41.258296 401.759904 42.38556 401.759904 43.5608 
C 401.759904 44.73604 402.226832 45.863304 403.057852 46.694324 
C 403.888872 47.525345 405.016136 47.992272 406.191376 47.992272 
z
" style="fill:#6fa4ff;stroke:#6fa4ff;stroke-linejoin:miter;stroke-width:1.5;"/>
   </g>
   <g id="patch_21">
    <path clip-path="url(#pe780d7213b)" d="M 406.191376 184.345273 
C 407.366616 184.345273 408.49388 183.878345 409.324901 183.047324 
C 410.155921 182.216304 410.622849 181.08904 410.622849 179.9138 
C 410.622849 178.73856 410.155921 177.611296 409.324901 176.780276 
C 408.49388 175.949255 407.366616 175.482327 406.191376 175.482327 
C 405.016136 175.482327 403.888872 175.949255 403.057852 176.780276 
C 402.226832 177.611296 401.759904 178.73856 401.759904 179.9138 
C 401.759904 181.08904 402.226832 182.216304 403.057852 183.047324 
C 403.888872 183.878345 405.016136 184.345273 406.191376 184.345273 
z
" style="fill:#6fa4ff;stroke:#6fa4ff;stroke-linejoin:miter;stroke-width:1.5;"/>
   </g>
   <g id="patch_22">
    <path clip-path="url(#pe780d7213b)" d="M 436.870801 58.332375 
L 466.413951 58.332375 
L 466.413951 28.789225 
L 436.870801 28.789225 
z
" style="fill:#6fa4ff;stroke:#6fa4ff;stroke-linejoin:miter;stroke-width:1.5;"/>
   </g>
   <g id="text_1">
    <g clip-path="url(#pe780d7213b)">
     <!-- H -->
     <defs>
      <path d="M 9.8125 72.90625 
L 19.671875 72.90625 
L 19.671875 43.015625 
L 55.515625 43.015625 
L 55.515625 72.90625 
L 65.375 72.90625 
L 65.375 0 
L 55.515625 0 
L 55.515625 34.71875 
L 19.671875 34.71875 
L 19.671875 0 
L 9.8125 0 
z
" id="DejaVuSans-72"/>
     </defs>
     <g transform="translate(83.146173 47.147987)scale(0.13 -0.13)">
      <use xlink:href="#DejaVuSans-72"/>
     </g>
    </g>
   </g>
   <g id="text_2">
    <g clip-path="url(#pe780d7213b)">
     <!-- $\mathrm{R}_\mathrm{Y}$ -->
     <defs>
      <path d="M 44.390625 34.1875 
Q 47.5625 33.109375 50.5625 29.59375 
Q 53.5625 26.078125 56.59375 19.921875 
L 66.609375 0 
L 56 0 
L 46.6875 18.703125 
Q 43.0625 26.03125 39.671875 28.421875 
Q 36.28125 30.8125 30.421875 30.8125 
L 19.671875 30.8125 
L 19.671875 0 
L 9.8125 0 
L 9.8125 72.90625 
L 32.078125 72.90625 
Q 44.578125 72.90625 50.734375 67.671875 
Q 56.890625 62.453125 56.890625 51.90625 
Q 56.890625 45.015625 53.6875 40.46875 
Q 50.484375 35.9375 44.390625 34.1875 
z
M 19.671875 64.796875 
L 19.671875 38.921875 
L 32.078125 38.921875 
Q 39.203125 38.921875 42.84375 42.21875 
Q 46.484375 45.515625 46.484375 51.90625 
Q 46.484375 58.296875 42.84375 61.546875 
Q 39.203125 64.796875 32.078125 64.796875 
z
" id="DejaVuSans-82"/>
      <path d="M -0.203125 72.90625 
L 10.40625 72.90625 
L 30.609375 42.921875 
L 50.6875 72.90625 
L 61.28125 72.90625 
L 35.5 34.71875 
L 35.5 0 
L 25.59375 0 
L 25.59375 34.71875 
z
" id="DejaVuSans-89"/>
     </defs>
     <g transform="translate(80.494376 88.167515)scale(0.13 -0.13)">
      <use transform="translate(0 0.09375)" xlink:href="#DejaVuSans-82"/>
      <use transform="translate(70.439453 -16.3125)scale(0.7)" xlink:href="#DejaVuSans-89"/>
     </g>
    </g>
   </g>
   <g id="text_3">
    <g clip-path="url(#pe780d7213b)">
     <!-- 1 -->
     <defs>
      <path d="M 12.40625 8.296875 
L 28.515625 8.296875 
L 28.515625 63.921875 
L 10.984375 60.40625 
L 10.984375 69.390625 
L 28.421875 72.90625 
L 38.28125 72.90625 
L 38.28125 8.296875 
L 54.390625 8.296875 
L 54.390625 0 
L 12.40625 0 
z
" id="DejaVuSans-49"/>
     </defs>
     <g transform="translate(85.489376 100.082245)scale(0.08 -0.08)">
      <use xlink:href="#DejaVuSans-49"/>
     </g>
    </g>
   </g>
   <g id="text_4">
    <g clip-path="url(#pe780d7213b)">
     <!-- $\mathrm{R}_\mathrm{Y}$ -->
     <g transform="translate(80.494376 133.618515)scale(0.13 -0.13)">
      <use transform="translate(0 0.09375)" xlink:href="#DejaVuSans-82"/>
      <use transform="translate(70.439453 -16.3125)scale(0.7)" xlink:href="#DejaVuSans-89"/>
     </g>
    </g>
   </g>
   <g id="text_5">
    <g clip-path="url(#pe780d7213b)">
     <!-- 1 -->
     <g transform="translate(85.489376 145.533245)scale(0.08 -0.08)">
      <use xlink:href="#DejaVuSans-49"/>
     </g>
    </g>
   </g>
   <g id="text_6">
    <g clip-path="url(#pe780d7213b)">
     <!-- $\mathrm{R}_\mathrm{Y}$ -->
     <g transform="translate(80.494376 179.069515)scale(0.13 -0.13)">
      <use transform="translate(0 0.09375)" xlink:href="#DejaVuSans-82"/>
      <use transform="translate(70.439453 -16.3125)scale(0.7)" xlink:href="#DejaVuSans-89"/>
     </g>
    </g>
   </g>
   <g id="text_7">
    <g clip-path="url(#pe780d7213b)">
     <!-- 1 -->
     <g transform="translate(85.489376 190.984245)scale(0.08 -0.08)">
      <use xlink:href="#DejaVuSans-49"/>
     </g>
    </g>
   </g>
   <g id="text_8">
    <g clip-path="url(#pe780d7213b)">
     <!-- $\mathrm{R}_\mathrm{Y}$ -->
     <g transform="translate(216.847376 133.618515)scale(0.13 -0.13)">
      <use transform="translate(0 0.09375)" xlink:href="#DejaVuSans-82"/>
      <use transform="translate(70.439453 -16.3125)scale(0.7)" xlink:href="#DejaVuSans-89"/>
     </g>
    </g>
   </g>
   <g id="text_9">
    <g clip-path="url(#pe780d7213b)">
     <!-- 1 -->
     <g transform="translate(221.842376 145.533245)scale(0.08 -0.08)">
      <use xlink:href="#DejaVuSans-49"/>
     </g>
    </g>
   </g>
   <g id="text_10">
    <g clip-path="url(#pe780d7213b)">
     <!-- $\mathrm{R}_\mathrm{Y}$ -->
     <g transform="translate(216.847376 88.167515)scale(0.13 -0.13)">
      <use transform="translate(0 0.09375)" xlink:href="#DejaVuSans-82"/>
      <use transform="translate(70.439453 -16.3125)scale(0.7)" xlink:href="#DejaVuSans-89"/>
     </g>
    </g>
   </g>
   <g id="text_11">
    <g clip-path="url(#pe780d7213b)">
     <!-- 1 -->
     <g transform="translate(221.842376 100.082245)scale(0.08 -0.08)">
      <use xlink:href="#DejaVuSans-49"/>
     </g>
    </g>
   </g>
   <g id="text_12">
    <g clip-path="url(#pe780d7213b)">
     <!-- $\mathrm{R}_\mathrm{Y}$ -->
     <g transform="translate(216.847376 179.069515)scale(0.13 -0.13)">
      <use transform="translate(0 0.09375)" xlink:href="#DejaVuSans-82"/>
      <use transform="translate(70.439453 -16.3125)scale(0.7)" xlink:href="#DejaVuSans-89"/>
     </g>
    </g>
   </g>
   <g id="text_13">
    <g clip-path="url(#pe780d7213b)">
     <!-- 1 -->
     <g transform="translate(221.842376 190.984245)scale(0.08 -0.08)">
      <use xlink:href="#DejaVuSans-49"/>
     </g>
    </g>
   </g>
   <g id="text_14">
    <g clip-path="url(#pe780d7213b)">
     <!-- $\mathrm{R}_\mathrm{Y}$ -->
     <g transform="translate(353.200376 133.618515)scale(0.13 -0.13)">
      <use transform="translate(0 0.09375)" xlink:href="#DejaVuSans-82"/>
      <use transform="translate(70.439453 -16.3125)scale(0.7)" xlink:href="#DejaVuSans-89"/>
     </g>
    </g>
   </g>
   <g id="text_15">
    <g clip-path="url(#pe780d7213b)">
     <!-- 1 -->
     <g transform="translate(358.195376 145.533245)scale(0.08 -0.08)">
      <use xlink:href="#DejaVuSans-49"/>
     </g>
    </g>
   </g>
   <g id="text_16">
    <g clip-path="url(#pe780d7213b)">
     <!-- $\mathrm{R}_\mathrm{Y}$ -->
     <g transform="translate(353.200376 88.167515)scale(0.13 -0.13)">
      <use transform="translate(0 0.09375)" xlink:href="#DejaVuSans-82"/>
      <use transform="translate(70.439453 -16.3125)scale(0.7)" xlink:href="#DejaVuSans-89"/>
     </g>
    </g>
   </g>
   <g id="text_17">
    <g clip-path="url(#pe780d7213b)">
     <!-- 1 -->
     <g transform="translate(358.195376 100.082245)scale(0.08 -0.08)">
      <use xlink:href="#DejaVuSans-49"/>
     </g>
    </g>
   </g>
   <g id="text_18">
    <g clip-path="url(#pe780d7213b)">
     <!-- $\mathrm{R}_\mathrm{Y}$ -->
     <g transform="translate(353.200376 179.069515)scale(0.13 -0.13)">
      <use transform="translate(0 0.09375)" xlink:href="#DejaVuSans-82"/>
      <use transform="translate(70.439453 -16.3125)scale(0.7)" xlink:href="#DejaVuSans-89"/>
     </g>
    </g>
   </g>
   <g id="text_19">
    <g clip-path="url(#pe780d7213b)">
     <!-- 1 -->
     <g transform="translate(358.195376 190.984245)scale(0.08 -0.08)">
      <use xlink:href="#DejaVuSans-49"/>
     </g>
    </g>
   </g>
   <g id="text_20">
    <g clip-path="url(#pe780d7213b)">
     <!-- H -->
     <g transform="translate(446.754173 47.147987)scale(0.13 -0.13)">
      <use xlink:href="#DejaVuSans-72"/>
     </g>
    </g>
   </g>
   <g id="text_21">
    <g clip-path="url(#pe780d7213b)">
     <!-- ${q}_{0}$ -->
     <defs>
      <path d="M 41.703125 8.203125 
Q 38.09375 3.46875 33.171875 1.015625 
Q 28.265625 -1.421875 22.3125 -1.421875 
Q 14.015625 -1.421875 9.296875 4.171875 
Q 4.59375 9.765625 4.59375 19.578125 
Q 4.59375 27.484375 7.5 34.859375 
Q 10.40625 42.234375 15.828125 48.09375 
Q 19.34375 51.90625 23.90625 53.953125 
Q 28.46875 56 33.5 56 
Q 39.546875 56 43.453125 53.609375 
Q 47.359375 51.21875 49.125 46.390625 
L 50.6875 54.59375 
L 59.71875 54.59375 
L 45.125 -20.609375 
L 36.078125 -20.609375 
z
M 13.921875 20.90625 
Q 13.921875 13.671875 16.9375 9.890625 
Q 19.96875 6.109375 25.6875 6.109375 
Q 34.1875 6.109375 40.1875 14.234375 
Q 46.1875 22.359375 46.1875 33.984375 
Q 46.1875 41.015625 43.078125 44.75 
Q 39.984375 48.484375 34.1875 48.484375 
Q 29.9375 48.484375 26.3125 46.5 
Q 22.703125 44.53125 20.015625 40.71875 
Q 17.1875 36.71875 15.546875 31.34375 
Q 13.921875 25.984375 13.921875 20.90625 
z
" id="DejaVuSans-Oblique-113"/>
      <path d="M 31.78125 66.40625 
Q 24.171875 66.40625 20.328125 58.90625 
Q 16.5 51.421875 16.5 36.375 
Q 16.5 21.390625 20.328125 13.890625 
Q 24.171875 6.390625 31.78125 6.390625 
Q 39.453125 6.390625 43.28125 13.890625 
Q 47.125 21.390625 47.125 36.375 
Q 47.125 51.421875 43.28125 58.90625 
Q 39.453125 66.40625 31.78125 66.40625 
z
M 31.78125 74.21875 
Q 44.046875 74.21875 50.515625 64.515625 
Q 56.984375 54.828125 56.984375 36.375 
Q 56.984375 17.96875 50.515625 8.265625 
Q 44.046875 -1.421875 31.78125 -1.421875 
Q 19.53125 -1.421875 13.0625 8.265625 
Q 6.59375 17.96875 6.59375 36.375 
Q 6.59375 54.828125 13.0625 64.515625 
Q 19.53125 74.21875 31.78125 74.21875 
z
" id="DejaVuSans-48"/>
     </defs>
     <g transform="translate(36.363136 48.011777)scale(0.1625 -0.1625)">
      <use xlink:href="#DejaVuSans-Oblique-113"/>
      <use transform="translate(63.476562 -16.40625)scale(0.7)" xlink:href="#DejaVuSans-48"/>
     </g>
    </g>
   </g>
   <g id="text_22">
    <g clip-path="url(#pe780d7213b)">
     <!-- ${q}_{1}$ -->
     <g transform="translate(36.363136 93.462777)scale(0.1625 -0.1625)">
      <use xlink:href="#DejaVuSans-Oblique-113"/>
      <use transform="translate(63.476562 -16.40625)scale(0.7)" xlink:href="#DejaVuSans-49"/>
     </g>
    </g>
   </g>
   <g id="text_23">
    <g clip-path="url(#pe780d7213b)">
     <!-- ${q}_{2}$ -->
     <defs>
      <path d="M 19.1875 8.296875 
L 53.609375 8.296875 
L 53.609375 0 
L 7.328125 0 
L 7.328125 8.296875 
Q 12.9375 14.109375 22.625 23.890625 
Q 32.328125 33.6875 34.8125 36.53125 
Q 39.546875 41.84375 41.421875 45.53125 
Q 43.3125 49.21875 43.3125 52.78125 
Q 43.3125 58.59375 39.234375 62.25 
Q 35.15625 65.921875 28.609375 65.921875 
Q 23.96875 65.921875 18.8125 64.3125 
Q 13.671875 62.703125 7.8125 59.421875 
L 7.8125 69.390625 
Q 13.765625 71.78125 18.9375 73 
Q 24.125 74.21875 28.421875 74.21875 
Q 39.75 74.21875 46.484375 68.546875 
Q 53.21875 62.890625 53.21875 53.421875 
Q 53.21875 48.921875 51.53125 44.890625 
Q 49.859375 40.875 45.40625 35.40625 
Q 44.1875 33.984375 37.640625 27.21875 
Q 31.109375 20.453125 19.1875 8.296875 
z
" id="DejaVuSans-50"/>
     </defs>
     <g transform="translate(36.363136 138.913777)scale(0.1625 -0.1625)">
      <use xlink:href="#DejaVuSans-Oblique-113"/>
      <use transform="translate(63.476562 -16.40625)scale(0.7)" xlink:href="#DejaVuSans-50"/>
     </g>
    </g>
   </g>
   <g id="text_24">
    <g clip-path="url(#pe780d7213b)">
     <!-- ${q}_{3}$ -->
     <defs>
      <path d="M 40.578125 39.3125 
Q 47.65625 37.796875 51.625 33 
Q 55.609375 28.21875 55.609375 21.1875 
Q 55.609375 10.40625 48.1875 4.484375 
Q 40.765625 -1.421875 27.09375 -1.421875 
Q 22.515625 -1.421875 17.65625 -0.515625 
Q 12.796875 0.390625 7.625 2.203125 
L 7.625 11.71875 
Q 11.71875 9.328125 16.59375 8.109375 
Q 21.484375 6.890625 26.8125 6.890625 
Q 36.078125 6.890625 40.9375 10.546875 
Q 45.796875 14.203125 45.796875 21.1875 
Q 45.796875 27.640625 41.28125 31.265625 
Q 36.765625 34.90625 28.71875 34.90625 
L 20.21875 34.90625 
L 20.21875 43.015625 
L 29.109375 43.015625 
Q 36.375 43.015625 40.234375 45.921875 
Q 44.09375 48.828125 44.09375 54.296875 
Q 44.09375 59.90625 40.109375 62.90625 
Q 36.140625 65.921875 28.71875 65.921875 
Q 24.65625 65.921875 20.015625 65.03125 
Q 15.375 64.15625 9.8125 62.3125 
L 9.8125 71.09375 
Q 15.4375 72.65625 20.34375 73.4375 
Q 25.25 74.21875 29.59375 74.21875 
Q 40.828125 74.21875 47.359375 69.109375 
Q 53.90625 64.015625 53.90625 55.328125 
Q 53.90625 49.265625 50.4375 45.09375 
Q 46.96875 40.921875 40.578125 39.3125 
z
" id="DejaVuSans-51"/>
     </defs>
     <g transform="translate(36.363136 184.364777)scale(0.1625 -0.1625)">
      <use xlink:href="#DejaVuSans-Oblique-113"/>
      <use transform="translate(63.476562 -16.40625)scale(0.7)" xlink:href="#DejaVuSans-51"/>
     </g>
    </g>
   </g>
  </g>
 </g>
 <defs>
  <clipPath id="pe780d7213b">
   <rect height="199.9844" width="474.440036" x="7.2" y="7.2"/>
  </clipPath>
 </defs>
</svg>
