<?xml version="1.0" encoding="utf-8" standalone="no"?>
<!DOCTYPE svg PUBLIC "-//W3C//DTD SVG 1.1//EN"
  "http://www.w3.org/Graphics/SVG/1.1/DTD/svg11.dtd">
<!-- Created with matplotlib (https://matplotlib.org/) -->
<svg height="340.56pt" version="1.1" viewBox="0 0 349.2 340.56" width="349.2pt" xmlns="http://www.w3.org/2000/svg" xmlns:xlink="http://www.w3.org/1999/xlink">
 <defs>
  <style type="text/css">
*{stroke-linecap:butt;stroke-linejoin:round;}
  </style>
 </defs>
 <g id="figure_1">
  <g id="patch_1">
   <path d="M 0 340.56 
L 349.2 340.56 
L 349.2 0 
L 0 0 
z
" style="fill:#02488a;"/>
  </g>
  <g id="axes_1">
   <g id="patch_2">
    <path clip-path="url(#p9f7f983016)" d="M 118.8 279 
L 173.484 225.7272 
L 118.8 172.4544 
L 64.116 225.7272 
z
" style="fill:#84b1ec;stroke:#84b1ec;stroke-linejoin:miter;"/>
   </g>
   <g id="patch_3">
    <path clip-path="url(#p9f7f983016)" d="M 63 224.64 
L 117.684 171.3672 
L 63 118.0944 
L 8.316 171.3672 
z
" style="fill:#84b1ec;stroke:#84b1ec;stroke-linejoin:miter;"/>
   </g>
   <g id="patch_4">
    <path clip-path="url(#p9f7f983016)" d="M 230.4 279 
L 285.084 225.7272 
L 230.4 172.4544 
L 175.716 225.7272 
z
" style="fill:#84b1ec;stroke:#84b1ec;stroke-linejoin:miter;"/>
   </g>
   <g id="patch_5">
    <path clip-path="url(#p9f7f983016)" d="M 286.2 224.64 
L 340.884 171.3672 
L 286.2 118.0944 
L 231.516 171.3672 
z
" style="fill:#84b1ec;stroke:#84b1ec;stroke-linejoin:miter;"/>
   </g>
   <g id="patch_6">
    <path clip-path="url(#p9f7f983016)" d="M 174.6 224.64 
L 229.284 171.3672 
L 174.6 118.0944 
L 119.916 171.3672 
z
" style="fill:#2172d8;stroke:#2172d8;stroke-linejoin:miter;"/>
   </g>
   <g id="patch_7">
    <path clip-path="url(#p9f7f983016)" d="M 230.4 170.28 
L 285.084 117.0072 
L 230.4 63.7344 
L 175.716 117.0072 
z
" style="fill:#2172d8;stroke:#2172d8;stroke-linejoin:miter;"/>
   </g>
   <g id="patch_8">
    <path clip-path="url(#p9f7f983016)" d="M 118.8 170.28 
L 173.484 117.0072 
L 118.8 63.7344 
L 64.116 117.0072 
z
" style="fill:#2172d8;stroke:#2172d8;stroke-linejoin:miter;"/>
   </g>
   <g id="patch_9">
    <path clip-path="url(#p9f7f983016)" d="M 174.6 115.92 
L 229.284 62.6472 
L 174.6 9.3744 
L 119.916 62.6472 
z
" style="fill:#2172d8;stroke:#2172d8;stroke-linejoin:miter;"/>
   </g>
   <g id="patch_10">
    <path clip-path="url(#p9f7f983016)" d="M 230.4 257.256 
C 239.279 257.256 247.795534 253.819372 254.073935 247.702995 
C 260.352336 241.586617 263.88 233.289864 263.88 224.64 
C 263.88 215.990136 260.352336 207.693383 254.073935 201.577005 
C 247.795534 195.460628 239.279 192.024 230.4 192.024 
C 221.521 192.024 213.004466 195.460628 206.726065 201.577005 
C 200.447664 207.693383 196.92 215.990136 196.92 224.64 
C 196.92 233.289864 200.447664 241.586617 206.726065 247.702995 
C 213.004466 253.819372 221.521 257.256 230.4 257.256 
z
" style="stroke:#000000;stroke-linejoin:miter;"/>
   </g>
   <g id="text_1">
    <!--  -->
    <g style="fill:#ffffff;" transform="translate(7.2 285.838594)scale(0.09 -0.09)"/>
    <!-- Rules: -->
    <defs>
     <path d="M 44.390625 34.1875 
Q 47.5625 33.109375 50.5625 29.59375 
Q 53.5625 26.078125 56.59375 19.921875 
L 66.609375 0 
L 56 0 
L 46.6875 18.703125 
Q 43.0625 26.03125 39.671875 28.421875 
Q 36.28125 30.8125 30.421875 30.8125 
L 19.671875 30.8125 
L 19.671875 0 
L 9.8125 0 
L 9.8125 72.90625 
L 32.078125 72.90625 
Q 44.578125 72.90625 50.734375 67.671875 
Q 56.890625 62.453125 56.890625 51.90625 
Q 56.890625 45.015625 53.6875 40.46875 
Q 50.484375 35.9375 44.390625 34.1875 
z
M 19.671875 64.796875 
L 19.671875 38.921875 
L 32.078125 38.921875 
Q 39.203125 38.921875 42.84375 42.21875 
Q 46.484375 45.515625 46.484375 51.90625 
Q 46.484375 58.296875 42.84375 61.546875 
Q 39.203125 64.796875 32.078125 64.796875 
z
" id="DejaVuSans-82"/>
     <path d="M 8.5 21.578125 
L 8.5 54.6875 
L 17.484375 54.6875 
L 17.484375 21.921875 
Q 17.484375 14.15625 20.5 10.265625 
Q 23.53125 6.390625 29.59375 6.390625 
Q 36.859375 6.390625 41.078125 11.03125 
Q 45.3125 15.671875 45.3125 23.6875 
L 45.3125 54.6875 
L 54.296875 54.6875 
L 54.296875 0 
L 45.3125 0 
L 45.3125 8.40625 
Q 42.046875 3.421875 37.71875 1 
Q 33.40625 -1.421875 27.6875 -1.421875 
Q 18.265625 -1.421875 13.375 4.4375 
Q 8.5 10.296875 8.5 21.578125 
z
M 31.109375 56 
z
" id="DejaVuSans-117"/>
     <path d="M 9.421875 75.984375 
L 18.40625 75.984375 
L 18.40625 0 
L 9.421875 0 
z
" id="DejaVuSans-108"/>
     <path d="M 56.203125 29.59375 
L 56.203125 25.203125 
L 14.890625 25.203125 
Q 15.484375 15.921875 20.484375 11.0625 
Q 25.484375 6.203125 34.421875 6.203125 
Q 39.59375 6.203125 44.453125 7.46875 
Q 49.3125 8.734375 54.109375 11.28125 
L 54.109375 2.78125 
Q 49.265625 0.734375 44.1875 -0.34375 
Q 39.109375 -1.421875 33.890625 -1.421875 
Q 20.796875 -1.421875 13.15625 6.1875 
Q 5.515625 13.8125 5.515625 26.8125 
Q 5.515625 40.234375 12.765625 48.109375 
Q 20.015625 56 32.328125 56 
Q 43.359375 56 49.78125 48.890625 
Q 56.203125 41.796875 56.203125 29.59375 
z
M 47.21875 32.234375 
Q 47.125 39.59375 43.09375 43.984375 
Q 39.0625 48.390625 32.421875 48.390625 
Q 24.90625 48.390625 20.390625 44.140625 
Q 15.875 39.890625 15.1875 32.171875 
z
" id="DejaVuSans-101"/>
     <path d="M 44.28125 53.078125 
L 44.28125 44.578125 
Q 40.484375 46.53125 36.375 47.5 
Q 32.28125 48.484375 27.875 48.484375 
Q 21.1875 48.484375 17.84375 46.4375 
Q 14.5 44.390625 14.5 40.28125 
Q 14.5 37.15625 16.890625 35.375 
Q 19.28125 33.59375 26.515625 31.984375 
L 29.59375 31.296875 
Q 39.15625 29.25 43.1875 25.515625 
Q 47.21875 21.78125 47.21875 15.09375 
Q 47.21875 7.46875 41.1875 3.015625 
Q 35.15625 -1.421875 24.609375 -1.421875 
Q 20.21875 -1.421875 15.453125 -0.5625 
Q 10.6875 0.296875 5.421875 2 
L 5.421875 11.28125 
Q 10.40625 8.6875 15.234375 7.390625 
Q 20.0625 6.109375 24.8125 6.109375 
Q 31.15625 6.109375 34.5625 8.28125 
Q 37.984375 10.453125 37.984375 14.40625 
Q 37.984375 18.0625 35.515625 20.015625 
Q 33.0625 21.96875 24.703125 23.78125 
L 21.578125 24.515625 
Q 13.234375 26.265625 9.515625 29.90625 
Q 5.8125 33.546875 5.8125 39.890625 
Q 5.8125 47.609375 11.28125 51.796875 
Q 16.75 56 26.8125 56 
Q 31.78125 56 36.171875 55.265625 
Q 40.578125 54.546875 44.28125 53.078125 
z
" id="DejaVuSans-115"/>
     <path d="M 11.71875 12.40625 
L 22.015625 12.40625 
L 22.015625 0 
L 11.71875 0 
z
M 11.71875 51.703125 
L 22.015625 51.703125 
L 22.015625 39.3125 
L 11.71875 39.3125 
z
" id="DejaVuSans-58"/>
    </defs>
    <g style="fill:#ffffff;" transform="translate(7.2 295.916625)scale(0.09 -0.09)">
     <use xlink:href="#DejaVuSans-82"/>
     <use x="64.982422" xlink:href="#DejaVuSans-117"/>
     <use x="128.361328" xlink:href="#DejaVuSans-108"/>
     <use x="156.144531" xlink:href="#DejaVuSans-101"/>
     <use x="217.667969" xlink:href="#DejaVuSans-115"/>
     <use x="269.767578" xlink:href="#DejaVuSans-58"/>
    </g>
    <!--     Use exactly one cz gate. -->
    <defs>
     <path id="DejaVuSans-32"/>
     <path d="M 8.6875 72.90625 
L 18.609375 72.90625 
L 18.609375 28.609375 
Q 18.609375 16.890625 22.84375 11.734375 
Q 27.09375 6.59375 36.625 6.59375 
Q 46.09375 6.59375 50.34375 11.734375 
Q 54.59375 16.890625 54.59375 28.609375 
L 54.59375 72.90625 
L 64.5 72.90625 
L 64.5 27.390625 
Q 64.5 13.140625 57.4375 5.859375 
Q 50.390625 -1.421875 36.625 -1.421875 
Q 22.796875 -1.421875 15.734375 5.859375 
Q 8.6875 13.140625 8.6875 27.390625 
z
" id="DejaVuSans-85"/>
     <path d="M 54.890625 54.6875 
L 35.109375 28.078125 
L 55.90625 0 
L 45.3125 0 
L 29.390625 21.484375 
L 13.484375 0 
L 2.875 0 
L 24.125 28.609375 
L 4.6875 54.6875 
L 15.28125 54.6875 
L 29.78125 35.203125 
L 44.28125 54.6875 
z
" id="DejaVuSans-120"/>
     <path d="M 34.28125 27.484375 
Q 23.390625 27.484375 19.1875 25 
Q 14.984375 22.515625 14.984375 16.5 
Q 14.984375 11.71875 18.140625 8.90625 
Q 21.296875 6.109375 26.703125 6.109375 
Q 34.1875 6.109375 38.703125 11.40625 
Q 43.21875 16.703125 43.21875 25.484375 
L 43.21875 27.484375 
z
M 52.203125 31.203125 
L 52.203125 0 
L 43.21875 0 
L 43.21875 8.296875 
Q 40.140625 3.328125 35.546875 0.953125 
Q 30.953125 -1.421875 24.3125 -1.421875 
Q 15.921875 -1.421875 10.953125 3.296875 
Q 6 8.015625 6 15.921875 
Q 6 25.140625 12.171875 29.828125 
Q 18.359375 34.515625 30.609375 34.515625 
L 43.21875 34.515625 
L 43.21875 35.40625 
Q 43.21875 41.609375 39.140625 45 
Q 35.0625 48.390625 27.6875 48.390625 
Q 23 48.390625 18.546875 47.265625 
Q 14.109375 46.140625 10.015625 43.890625 
L 10.015625 52.203125 
Q 14.9375 54.109375 19.578125 55.046875 
Q 24.21875 56 28.609375 56 
Q 40.484375 56 46.34375 49.84375 
Q 52.203125 43.703125 52.203125 31.203125 
z
" id="DejaVuSans-97"/>
     <path d="M 48.78125 52.59375 
L 48.78125 44.1875 
Q 44.96875 46.296875 41.140625 47.34375 
Q 37.3125 48.390625 33.40625 48.390625 
Q 24.65625 48.390625 19.8125 42.84375 
Q 14.984375 37.3125 14.984375 27.296875 
Q 14.984375 17.28125 19.8125 11.734375 
Q 24.65625 6.203125 33.40625 6.203125 
Q 37.3125 6.203125 41.140625 7.25 
Q 44.96875 8.296875 48.78125 10.40625 
L 48.78125 2.09375 
Q 45.015625 0.34375 40.984375 -0.53125 
Q 36.96875 -1.421875 32.421875 -1.421875 
Q 20.0625 -1.421875 12.78125 6.34375 
Q 5.515625 14.109375 5.515625 27.296875 
Q 5.515625 40.671875 12.859375 48.328125 
Q 20.21875 56 33.015625 56 
Q 37.15625 56 41.109375 55.140625 
Q 45.0625 54.296875 48.78125 52.59375 
z
" id="DejaVuSans-99"/>
     <path d="M 18.3125 70.21875 
L 18.3125 54.6875 
L 36.8125 54.6875 
L 36.8125 47.703125 
L 18.3125 47.703125 
L 18.3125 18.015625 
Q 18.3125 11.328125 20.140625 9.421875 
Q 21.96875 7.515625 27.59375 7.515625 
L 36.8125 7.515625 
L 36.8125 0 
L 27.59375 0 
Q 17.1875 0 13.234375 3.875 
Q 9.28125 7.765625 9.28125 18.015625 
L 9.28125 47.703125 
L 2.6875 47.703125 
L 2.6875 54.6875 
L 9.28125 54.6875 
L 9.28125 70.21875 
z
" id="DejaVuSans-116"/>
     <path d="M 32.171875 -5.078125 
Q 28.375 -14.84375 24.75 -17.8125 
Q 21.140625 -20.796875 15.09375 -20.796875 
L 7.90625 -20.796875 
L 7.90625 -13.28125 
L 13.1875 -13.28125 
Q 16.890625 -13.28125 18.9375 -11.515625 
Q 21 -9.765625 23.484375 -3.21875 
L 25.09375 0.875 
L 2.984375 54.6875 
L 12.5 54.6875 
L 29.59375 11.921875 
L 46.6875 54.6875 
L 56.203125 54.6875 
z
" id="DejaVuSans-121"/>
     <path d="M 30.609375 48.390625 
Q 23.390625 48.390625 19.1875 42.75 
Q 14.984375 37.109375 14.984375 27.296875 
Q 14.984375 17.484375 19.15625 11.84375 
Q 23.34375 6.203125 30.609375 6.203125 
Q 37.796875 6.203125 41.984375 11.859375 
Q 46.1875 17.53125 46.1875 27.296875 
Q 46.1875 37.015625 41.984375 42.703125 
Q 37.796875 48.390625 30.609375 48.390625 
z
M 30.609375 56 
Q 42.328125 56 49.015625 48.375 
Q 55.71875 40.765625 55.71875 27.296875 
Q 55.71875 13.875 49.015625 6.21875 
Q 42.328125 -1.421875 30.609375 -1.421875 
Q 18.84375 -1.421875 12.171875 6.21875 
Q 5.515625 13.875 5.515625 27.296875 
Q 5.515625 40.765625 12.171875 48.375 
Q 18.84375 56 30.609375 56 
z
" id="DejaVuSans-111"/>
     <path d="M 54.890625 33.015625 
L 54.890625 0 
L 45.90625 0 
L 45.90625 32.71875 
Q 45.90625 40.484375 42.875 44.328125 
Q 39.84375 48.1875 33.796875 48.1875 
Q 26.515625 48.1875 22.3125 43.546875 
Q 18.109375 38.921875 18.109375 30.90625 
L 18.109375 0 
L 9.078125 0 
L 9.078125 54.6875 
L 18.109375 54.6875 
L 18.109375 46.1875 
Q 21.34375 51.125 25.703125 53.5625 
Q 30.078125 56 35.796875 56 
Q 45.21875 56 50.046875 50.171875 
Q 54.890625 44.34375 54.890625 33.015625 
z
" id="DejaVuSans-110"/>
     <path d="M 5.515625 54.6875 
L 48.1875 54.6875 
L 48.1875 46.484375 
L 14.40625 7.171875 
L 48.1875 7.171875 
L 48.1875 0 
L 4.296875 0 
L 4.296875 8.203125 
L 38.09375 47.515625 
L 5.515625 47.515625 
z
" id="DejaVuSans-122"/>
     <path d="M 45.40625 27.984375 
Q 45.40625 37.75 41.375 43.109375 
Q 37.359375 48.484375 30.078125 48.484375 
Q 22.859375 48.484375 18.828125 43.109375 
Q 14.796875 37.75 14.796875 27.984375 
Q 14.796875 18.265625 18.828125 12.890625 
Q 22.859375 7.515625 30.078125 7.515625 
Q 37.359375 7.515625 41.375 12.890625 
Q 45.40625 18.265625 45.40625 27.984375 
z
M 54.390625 6.78125 
Q 54.390625 -7.171875 48.1875 -13.984375 
Q 42 -20.796875 29.203125 -20.796875 
Q 24.46875 -20.796875 20.265625 -20.09375 
Q 16.0625 -19.390625 12.109375 -17.921875 
L 12.109375 -9.1875 
Q 16.0625 -11.328125 19.921875 -12.34375 
Q 23.78125 -13.375 27.78125 -13.375 
Q 36.625 -13.375 41.015625 -8.765625 
Q 45.40625 -4.15625 45.40625 5.171875 
L 45.40625 9.625 
Q 42.625 4.78125 38.28125 2.390625 
Q 33.9375 0 27.875 0 
Q 17.828125 0 11.671875 7.65625 
Q 5.515625 15.328125 5.515625 27.984375 
Q 5.515625 40.671875 11.671875 48.328125 
Q 17.828125 56 27.875 56 
Q 33.9375 56 38.28125 53.609375 
Q 42.625 51.21875 45.40625 46.390625 
L 45.40625 54.6875 
L 54.390625 54.6875 
z
" id="DejaVuSans-103"/>
     <path d="M 10.6875 12.40625 
L 21 12.40625 
L 21 0 
L 10.6875 0 
z
" id="DejaVuSans-46"/>
    </defs>
    <g style="fill:#ffffff;" transform="translate(7.2 305.994656)scale(0.09 -0.09)">
     <use xlink:href="#DejaVuSans-32"/>
     <use x="31.787109" xlink:href="#DejaVuSans-32"/>
     <use x="63.574219" xlink:href="#DejaVuSans-32"/>
     <use x="95.361328" xlink:href="#DejaVuSans-32"/>
     <use x="127.148438" xlink:href="#DejaVuSans-85"/>
     <use x="200.341797" xlink:href="#DejaVuSans-115"/>
     <use x="252.441406" xlink:href="#DejaVuSans-101"/>
     <use x="313.964844" xlink:href="#DejaVuSans-32"/>
     <use x="345.751953" xlink:href="#DejaVuSans-101"/>
     <use x="405.525391" xlink:href="#DejaVuSans-120"/>
     <use x="464.705078" xlink:href="#DejaVuSans-97"/>
     <use x="525.984375" xlink:href="#DejaVuSans-99"/>
     <use x="580.964844" xlink:href="#DejaVuSans-116"/>
     <use x="620.173828" xlink:href="#DejaVuSans-108"/>
     <use x="647.957031" xlink:href="#DejaVuSans-121"/>
     <use x="707.136719" xlink:href="#DejaVuSans-32"/>
     <use x="738.923828" xlink:href="#DejaVuSans-111"/>
     <use x="800.105469" xlink:href="#DejaVuSans-110"/>
     <use x="863.484375" xlink:href="#DejaVuSans-101"/>
     <use x="925.007812" xlink:href="#DejaVuSans-32"/>
     <use x="956.794922" xlink:href="#DejaVuSans-99"/>
     <use x="1011.775391" xlink:href="#DejaVuSans-122"/>
     <use x="1064.265625" xlink:href="#DejaVuSans-32"/>
     <use x="1096.052734" xlink:href="#DejaVuSans-103"/>
     <use x="1159.529297" xlink:href="#DejaVuSans-97"/>
     <use x="1220.808594" xlink:href="#DejaVuSans-116"/>
     <use x="1260.017578" xlink:href="#DejaVuSans-101"/>
     <use x="1321.541016" xlink:href="#DejaVuSans-46"/>
    </g>
   </g>
   <g id="patch_11">
    <path clip-path="url(#p9f7f983016)" d="M 118.8 224.64 
C 118.8 224.64 118.8 224.64 118.8 224.64 
C 118.8 224.64 118.8 224.64 118.8 224.64 
C 118.8 224.64 118.8 224.64 118.8 224.64 
C 118.8 224.64 118.8 224.64 118.8 224.64 
C 118.8 224.64 118.8 224.64 118.8 224.64 
C 118.8 224.64 118.8 224.64 118.8 224.64 
C 118.8 224.64 118.8 224.64 118.8 224.64 
C 118.8 224.64 118.8 224.64 118.8 224.64 
z
" style="stroke:#000000;stroke-linejoin:miter;"/>
   </g>
   <g id="patch_12">
    <path clip-path="url(#p9f7f983016)" d="M 118.8 224.64 
C 118.8 224.64 118.8 224.64 118.8 224.64 
C 118.8 224.64 118.8 224.64 118.8 224.64 
C 118.8 224.64 118.8 224.64 118.8 224.64 
C 118.8 224.64 118.8 224.64 118.8 224.64 
C 118.8 224.64 118.8 224.64 118.8 224.64 
C 118.8 224.64 118.8 224.64 118.8 224.64 
C 118.8 224.64 118.8 224.64 118.8 224.64 
C 118.8 224.64 118.8 224.64 118.8 224.64 
z
" style="fill:#ffffff;stroke:#ffffff;stroke-linejoin:miter;"/>
   </g>
   <g id="patch_13">
    <path clip-path="url(#p9f7f983016)" d="M 63 170.28 
C 63 170.28 63 170.28 63 170.28 
C 63 170.28 63 170.28 63 170.28 
C 63 170.28 63 170.28 63 170.28 
C 63 170.28 63 170.28 63 170.28 
C 63 170.28 63 170.28 63 170.28 
C 63 170.28 63 170.28 63 170.28 
C 63 170.28 63 170.28 63 170.28 
C 63 170.28 63 170.28 63 170.28 
z
" style="stroke:#000000;stroke-linejoin:miter;"/>
   </g>
   <g id="patch_14">
    <path clip-path="url(#p9f7f983016)" d="M 63 170.28 
C 63 170.28 63 170.28 63 170.28 
C 63 170.28 63 170.28 63 170.28 
C 63 170.28 63 170.28 63 170.28 
C 63 170.28 63 170.28 63 170.28 
C 63 170.28 63 170.28 63 170.28 
C 63 170.28 63 170.28 63 170.28 
C 63 170.28 63 170.28 63 170.28 
C 63 170.28 63 170.28 63 170.28 
z
" style="fill:#ffffff;stroke:#ffffff;stroke-linejoin:miter;"/>
   </g>
   <g id="patch_15">
    <path clip-path="url(#p9f7f983016)" d="M 230.4 224.64 
C 230.4 224.64 230.4 224.64 230.4 224.64 
C 230.4 224.64 230.4 224.64 230.4 224.64 
C 230.4 224.64 230.4 224.64 230.4 224.64 
C 230.4 224.64 230.4 224.64 230.4 224.64 
C 230.4 224.64 230.4 224.64 230.4 224.64 
C 230.4 224.64 230.4 224.64 230.4 224.64 
C 230.4 224.64 230.4 224.64 230.4 224.64 
C 230.4 224.64 230.4 224.64 230.4 224.64 
z
" style="stroke:#000000;stroke-linejoin:miter;"/>
   </g>
   <g id="patch_16">
    <path clip-path="url(#p9f7f983016)" d="M 230.4 224.64 
C 230.4 224.64 230.4 224.64 230.4 224.64 
C 230.4 224.64 230.4 224.64 230.4 224.64 
C 230.4 224.64 230.4 224.64 230.4 224.64 
C 230.4 224.64 230.4 224.64 230.4 224.64 
C 230.4 224.64 230.4 224.64 230.4 224.64 
C 230.4 224.64 230.4 224.64 230.4 224.64 
C 230.4 224.64 230.4 224.64 230.4 224.64 
C 230.4 224.64 230.4 224.64 230.4 224.64 
z
" style="fill:#ffffff;stroke:#ffffff;stroke-linejoin:miter;"/>
   </g>
   <g id="patch_17">
    <path clip-path="url(#p9f7f983016)" d="M 286.2 170.28 
C 286.2 170.28 286.2 170.28 286.2 170.28 
C 286.2 170.28 286.2 170.28 286.2 170.28 
C 286.2 170.28 286.2 170.28 286.2 170.28 
C 286.2 170.28 286.2 170.28 286.2 170.28 
C 286.2 170.28 286.2 170.28 286.2 170.28 
C 286.2 170.28 286.2 170.28 286.2 170.28 
C 286.2 170.28 286.2 170.28 286.2 170.28 
C 286.2 170.28 286.2 170.28 286.2 170.28 
z
" style="stroke:#000000;stroke-linejoin:miter;"/>
   </g>
   <g id="patch_18">
    <path clip-path="url(#p9f7f983016)" d="M 286.2 170.28 
C 286.2 170.28 286.2 170.28 286.2 170.28 
C 286.2 170.28 286.2 170.28 286.2 170.28 
C 286.2 170.28 286.2 170.28 286.2 170.28 
C 286.2 170.28 286.2 170.28 286.2 170.28 
C 286.2 170.28 286.2 170.28 286.2 170.28 
C 286.2 170.28 286.2 170.28 286.2 170.28 
C 286.2 170.28 286.2 170.28 286.2 170.28 
C 286.2 170.28 286.2 170.28 286.2 170.28 
z
" style="fill:#ffffff;stroke:#ffffff;stroke-linejoin:miter;"/>
   </g>
   <g id="patch_19">
    <path clip-path="url(#p9f7f983016)" d="M 174.6 170.28 
C 174.6 170.28 174.6 170.28 174.6 170.28 
C 174.6 170.28 174.6 170.28 174.6 170.28 
C 174.6 170.28 174.6 170.28 174.6 170.28 
C 174.6 170.28 174.6 170.28 174.6 170.28 
C 174.6 170.28 174.6 170.28 174.6 170.28 
C 174.6 170.28 174.6 170.28 174.6 170.28 
C 174.6 170.28 174.6 170.28 174.6 170.28 
C 174.6 170.28 174.6 170.28 174.6 170.28 
z
" style="stroke:#000000;stroke-linejoin:miter;"/>
   </g>
   <g id="patch_20">
    <path clip-path="url(#p9f7f983016)" d="M 174.6 170.28 
C 174.6 170.28 174.6 170.28 174.6 170.28 
C 174.6 170.28 174.6 170.28 174.6 170.28 
C 174.6 170.28 174.6 170.28 174.6 170.28 
C 174.6 170.28 174.6 170.28 174.6 170.28 
C 174.6 170.28 174.6 170.28 174.6 170.28 
C 174.6 170.28 174.6 170.28 174.6 170.28 
C 174.6 170.28 174.6 170.28 174.6 170.28 
C 174.6 170.28 174.6 170.28 174.6 170.28 
z
" style="fill:#ffffff;stroke:#ffffff;stroke-linejoin:miter;"/>
   </g>
   <g id="patch_21">
    <path clip-path="url(#p9f7f983016)" d="M 230.4 115.92 
C 230.4 115.92 230.4 115.92 230.4 115.92 
C 230.4 115.92 230.4 115.92 230.4 115.92 
C 230.4 115.92 230.4 115.92 230.4 115.92 
C 230.4 115.92 230.4 115.92 230.4 115.92 
C 230.4 115.92 230.4 115.92 230.4 115.92 
C 230.4 115.92 230.4 115.92 230.4 115.92 
C 230.4 115.92 230.4 115.92 230.4 115.92 
C 230.4 115.92 230.4 115.92 230.4 115.92 
z
" style="stroke:#000000;stroke-linejoin:miter;"/>
   </g>
   <g id="patch_22">
    <path clip-path="url(#p9f7f983016)" d="M 230.4 115.92 
C 230.4 115.92 230.4 115.92 230.4 115.92 
C 230.4 115.92 230.4 115.92 230.4 115.92 
C 230.4 115.92 230.4 115.92 230.4 115.92 
C 230.4 115.92 230.4 115.92 230.4 115.92 
C 230.4 115.92 230.4 115.92 230.4 115.92 
C 230.4 115.92 230.4 115.92 230.4 115.92 
C 230.4 115.92 230.4 115.92 230.4 115.92 
C 230.4 115.92 230.4 115.92 230.4 115.92 
z
" style="fill:#ffffff;stroke:#ffffff;stroke-linejoin:miter;"/>
   </g>
   <g id="patch_23">
    <path clip-path="url(#p9f7f983016)" d="M 118.8 115.92 
C 118.8 115.92 118.8 115.92 118.8 115.92 
C 118.8 115.92 118.8 115.92 118.8 115.92 
C 118.8 115.92 118.8 115.92 118.8 115.92 
C 118.8 115.92 118.8 115.92 118.8 115.92 
C 118.8 115.92 118.8 115.92 118.8 115.92 
C 118.8 115.92 118.8 115.92 118.8 115.92 
C 118.8 115.92 118.8 115.92 118.8 115.92 
C 118.8 115.92 118.8 115.92 118.8 115.92 
z
" style="stroke:#000000;stroke-linejoin:miter;"/>
   </g>
   <g id="patch_24">
    <path clip-path="url(#p9f7f983016)" d="M 118.8 115.92 
C 118.8 115.92 118.8 115.92 118.8 115.92 
C 118.8 115.92 118.8 115.92 118.8 115.92 
C 118.8 115.92 118.8 115.92 118.8 115.92 
C 118.8 115.92 118.8 115.92 118.8 115.92 
C 118.8 115.92 118.8 115.92 118.8 115.92 
C 118.8 115.92 118.8 115.92 118.8 115.92 
C 118.8 115.92 118.8 115.92 118.8 115.92 
C 118.8 115.92 118.8 115.92 118.8 115.92 
z
" style="fill:#ffffff;stroke:#ffffff;stroke-linejoin:miter;"/>
   </g>
   <g id="patch_25">
    <path clip-path="url(#p9f7f983016)" d="M 174.6 61.56 
C 174.6 61.56 174.6 61.56 174.6 61.56 
C 174.6 61.56 174.6 61.56 174.6 61.56 
C 174.6 61.56 174.6 61.56 174.6 61.56 
C 174.6 61.56 174.6 61.56 174.6 61.56 
C 174.6 61.56 174.6 61.56 174.6 61.56 
C 174.6 61.56 174.6 61.56 174.6 61.56 
C 174.6 61.56 174.6 61.56 174.6 61.56 
C 174.6 61.56 174.6 61.56 174.6 61.56 
z
" style="stroke:#000000;stroke-linejoin:miter;"/>
   </g>
   <g id="patch_26">
    <path clip-path="url(#p9f7f983016)" d="M 174.6 61.56 
C 174.6 61.56 174.6 61.56 174.6 61.56 
C 174.6 61.56 174.6 61.56 174.6 61.56 
C 174.6 61.56 174.6 61.56 174.6 61.56 
C 174.6 61.56 174.6 61.56 174.6 61.56 
C 174.6 61.56 174.6 61.56 174.6 61.56 
C 174.6 61.56 174.6 61.56 174.6 61.56 
C 174.6 61.56 174.6 61.56 174.6 61.56 
C 174.6 61.56 174.6 61.56 174.6 61.56 
z
" style="fill:#ffffff;stroke:#ffffff;stroke-linejoin:miter;"/>
   </g>
  </g>
 </g>
 <defs>
  <clipPath id="p9f7f983016">
   <rect height="326.16" width="334.8" x="7.2" y="7.2"/>
  </clipPath>
 </defs>
</svg>
