<?xml version="1.0" encoding="utf-8" standalone="no"?>
<!DOCTYPE svg PUBLIC "-//W3C//DTD SVG 1.1//EN"
  "http://www.w3.org/Graphics/SVG/1.1/DTD/svg11.dtd">
<!-- Created with matplotlib (https://matplotlib.org/) -->
<svg height="259.8354pt" version="1.1" viewBox="0 0 443.389036 259.8354" width="443.389036pt" xmlns="http://www.w3.org/2000/svg" xmlns:xlink="http://www.w3.org/1999/xlink">
 <defs>
  <style type="text/css">
*{stroke-linecap:butt;stroke-linejoin:round;}
  </style>
 </defs>
 <g id="figure_1">
  <g id="patch_1">
   <path d="M 0 259.8354 
L 443.389036 259.8354 
L 443.389036 0 
L 0 0 
z
" style="fill:#ffffff;"/>
  </g>
  <g id="axes_1">
   <g id="patch_2">
    <path clip-path="url(#p0a6565d282)" d="M 354.831746 215.024698 
L 366.649006 215.024698 
L 360.740376 223.54676 
z
" style="fill:#778899;"/>
   </g>
   <g id="patch_3">
    <path clip-path="url(#p0a6565d282)" d="M 400.282746 215.024698 
L 412.100006 215.024698 
L 406.191376 223.54676 
z
" style="fill:#778899;"/>
   </g>
   <g id="line2d_1">
    <path clip-path="url(#p0a6565d282)" d="M 63.490836 43.5608 
L 431.643936 43.5608 
" style="fill:none;stroke:#000000;stroke-linecap:square;stroke-width:2;"/>
   </g>
   <g id="line2d_2">
    <path clip-path="url(#p0a6565d282)" d="M 63.490836 89.0118 
L 431.643936 89.0118 
" style="fill:none;stroke:#000000;stroke-linecap:square;stroke-width:2;"/>
   </g>
   <g id="line2d_3">
    <path clip-path="url(#p0a6565d282)" d="M 63.490836 134.4628 
L 431.643936 134.4628 
" style="fill:none;stroke:#000000;stroke-linecap:square;stroke-width:2;"/>
   </g>
   <g id="line2d_4">
    <path clip-path="url(#p0a6565d282)" d="M 63.490836 179.9138 
L 431.643936 179.9138 
" style="fill:none;stroke:#000000;stroke-linecap:square;stroke-width:2;"/>
   </g>
   <g id="line2d_5">
    <path clip-path="url(#p0a6565d282)" d="M 63.490836 223.887643 
L 431.643936 223.887643 
" style="fill:none;stroke:#778899;stroke-linecap:square;stroke-width:2;"/>
   </g>
   <g id="line2d_6">
    <path clip-path="url(#p0a6565d282)" d="M 63.490836 226.841958 
L 431.643936 226.841958 
" style="fill:none;stroke:#778899;stroke-linecap:square;stroke-width:2;"/>
   </g>
   <g id="patch_4">
    <path clip-path="url(#p0a6565d282)" d="M 124.622431 66.2863 
L 142.348321 66.2863 
L 142.348321 20.8353 
L 124.622431 20.8353 
z
" style="fill:#bdbdbd;opacity:0.6;"/>
   </g>
   <g id="patch_5">
    <path clip-path="url(#p0a6565d282)" d="M 124.622431 111.7373 
L 142.348321 111.7373 
L 142.348321 66.2863 
L 124.622431 66.2863 
z
" style="fill:#bdbdbd;opacity:0.6;"/>
   </g>
   <g id="patch_6">
    <path clip-path="url(#p0a6565d282)" d="M 124.622431 157.1883 
L 142.348321 157.1883 
L 142.348321 111.7373 
L 124.622431 111.7373 
z
" style="fill:#bdbdbd;opacity:0.6;"/>
   </g>
   <g id="patch_7">
    <path clip-path="url(#p0a6565d282)" d="M 124.622431 202.6393 
L 142.348321 202.6393 
L 142.348321 157.1883 
L 124.622431 157.1883 
z
" style="fill:#bdbdbd;opacity:0.6;"/>
   </g>
   <g id="patch_8">
    <path clip-path="url(#p0a6565d282)" d="M 306.426431 66.2863 
L 324.152321 66.2863 
L 324.152321 20.8353 
L 306.426431 20.8353 
z
" style="fill:#bdbdbd;opacity:0.6;"/>
   </g>
   <g id="patch_9">
    <path clip-path="url(#p0a6565d282)" d="M 306.426431 111.7373 
L 324.152321 111.7373 
L 324.152321 66.2863 
L 306.426431 66.2863 
z
" style="fill:#bdbdbd;opacity:0.6;"/>
   </g>
   <g id="patch_10">
    <path clip-path="url(#p0a6565d282)" d="M 306.426431 157.1883 
L 324.152321 157.1883 
L 324.152321 111.7373 
L 306.426431 111.7373 
z
" style="fill:#bdbdbd;opacity:0.6;"/>
   </g>
   <g id="patch_11">
    <path clip-path="url(#p0a6565d282)" d="M 306.426431 202.6393 
L 324.152321 202.6393 
L 324.152321 157.1883 
L 306.426431 157.1883 
z
" style="fill:#bdbdbd;opacity:0.6;"/>
   </g>
   <g id="line2d_7">
    <path clip-path="url(#p0a6565d282)" d="M 178.936376 134.4628 
L 178.936376 43.5608 
" style="fill:none;stroke:#6fa4ff;stroke-linecap:square;stroke-width:2;"/>
   </g>
   <g id="line2d_8">
    <path clip-path="url(#p0a6565d282)" d="M 224.387376 134.4628 
L 224.387376 89.0118 
" style="fill:none;stroke:#6fa4ff;stroke-linecap:square;stroke-width:2;"/>
   </g>
   <g id="line2d_9">
    <path clip-path="url(#p0a6565d282)" d="M 269.838376 179.9138 
L 269.838376 43.5608 
" style="fill:none;stroke:#bb8bff;stroke-linecap:square;stroke-width:2;"/>
   </g>
   <g id="line2d_10">
    <path clip-path="url(#p0a6565d282)" d="M 362.217534 134.4628 
L 362.217534 215.024698 
" style="fill:none;stroke:#778899;stroke-linecap:square;stroke-width:2;"/>
   </g>
   <g id="line2d_11">
    <path clip-path="url(#p0a6565d282)" d="M 359.263219 134.4628 
L 359.263219 215.024698 
" style="fill:none;stroke:#778899;stroke-linecap:square;stroke-width:2;"/>
   </g>
   <g id="line2d_12">
    <path clip-path="url(#p0a6565d282)" d="M 407.668534 179.9138 
L 407.668534 215.024698 
" style="fill:none;stroke:#778899;stroke-linecap:square;stroke-width:2;"/>
   </g>
   <g id="line2d_13">
    <path clip-path="url(#p0a6565d282)" d="M 404.714219 179.9138 
L 404.714219 215.024698 
" style="fill:none;stroke:#778899;stroke-linecap:square;stroke-width:2;"/>
   </g>
   <g id="line2d_14">
    <path clip-path="url(#p0a6565d282)" d="M 72.581036 229.9099 
L 77.126136 220.8197 
" style="fill:none;stroke:#778899;stroke-linecap:square;stroke-width:1.5;"/>
   </g>
   <g id="patch_12">
    <path clip-path="url(#p0a6565d282)" d="M 73.262801 58.332375 
L 102.805951 58.332375 
L 102.805951 28.789225 
L 73.262801 28.789225 
z
" style="fill:#05bab6;stroke:#05bab6;stroke-linejoin:miter;stroke-width:1.5;"/>
   </g>
   <g id="patch_13">
    <path clip-path="url(#p0a6565d282)" d="M 73.262801 103.783375 
L 102.805951 103.783375 
L 102.805951 74.240225 
L 73.262801 74.240225 
z
" style="fill:#05bab6;stroke:#05bab6;stroke-linejoin:miter;stroke-width:1.5;"/>
   </g>
   <g id="patch_14">
    <path clip-path="url(#p0a6565d282)" d="M 178.936376 47.992272 
C 180.111616 47.992272 181.23888 47.525345 182.069901 46.694324 
C 182.900921 45.863304 183.367849 44.73604 183.367849 43.5608 
C 183.367849 42.38556 182.900921 41.258296 182.069901 40.427276 
C 181.23888 39.596255 180.111616 39.129328 178.936376 39.129328 
C 177.761136 39.129328 176.633872 39.596255 175.802852 40.427276 
C 174.971832 41.258296 174.504904 42.38556 174.504904 43.5608 
C 174.504904 44.73604 174.971832 45.863304 175.802852 46.694324 
C 176.633872 47.525345 177.761136 47.992272 178.936376 47.992272 
z
" style="fill:#6fa4ff;stroke:#6fa4ff;stroke-linejoin:miter;stroke-width:1.5;"/>
   </g>
   <g id="patch_15">
    <path clip-path="url(#p0a6565d282)" d="M 178.936376 144.802903 
C 181.678603 144.802903 184.308885 143.713404 186.247933 141.774357 
C 188.18698 139.835309 189.276479 137.205027 189.276479 134.4628 
C 189.276479 131.720573 188.18698 129.090291 186.247933 127.151243 
C 184.308885 125.212196 181.678603 124.122698 178.936376 124.122698 
C 176.194149 124.122698 173.563867 125.212196 171.62482 127.151243 
C 169.685772 129.090291 168.596274 131.720573 168.596274 134.4628 
C 168.596274 137.205027 169.685772 139.835309 171.62482 141.774357 
C 173.563867 143.713404 176.194149 144.802903 178.936376 144.802903 
z
" style="fill:#6fa4ff;stroke:#6fa4ff;stroke-linejoin:miter;stroke-width:2;"/>
   </g>
   <g id="patch_16">
    <path clip-path="url(#p0a6565d282)" d="M 224.387376 93.443272 
C 225.562616 93.443272 226.68988 92.976345 227.520901 92.145324 
C 228.351921 91.314304 228.818849 90.18704 228.818849 89.0118 
C 228.818849 87.83656 228.351921 86.709296 227.520901 85.878276 
C 226.68988 85.047255 225.562616 84.580327 224.387376 84.580327 
C 223.212136 84.580327 222.084872 85.047255 221.253852 85.878276 
C 220.422832 86.709296 219.955904 87.83656 219.955904 89.0118 
C 219.955904 90.18704 220.422832 91.314304 221.253852 92.145324 
C 222.084872 92.976345 223.212136 93.443272 224.387376 93.443272 
z
" style="fill:#6fa4ff;stroke:#6fa4ff;stroke-linejoin:miter;stroke-width:1.5;"/>
   </g>
   <g id="patch_17">
    <path clip-path="url(#p0a6565d282)" d="M 224.387376 144.802903 
C 227.129603 144.802903 229.759885 143.713404 231.698933 141.774357 
C 233.63798 139.835309 234.727479 137.205027 234.727479 134.4628 
C 234.727479 131.720573 233.63798 129.090291 231.698933 127.151243 
C 229.759885 125.212196 227.129603 124.122698 224.387376 124.122698 
C 221.645149 124.122698 219.014867 125.212196 217.07582 127.151243 
C 215.136772 129.090291 214.047274 131.720573 214.047274 134.4628 
C 214.047274 137.205027 215.136772 139.835309 217.07582 141.774357 
C 219.014867 143.713404 221.645149 144.802903 224.387376 144.802903 
z
" style="fill:#6fa4ff;stroke:#6fa4ff;stroke-linejoin:miter;stroke-width:2;"/>
   </g>
   <g id="patch_18">
    <path clip-path="url(#p0a6565d282)" d="M 269.838376 47.992272 
C 271.013616 47.992272 272.14088 47.525345 272.971901 46.694324 
C 273.802921 45.863304 274.269849 44.73604 274.269849 43.5608 
C 274.269849 42.38556 273.802921 41.258296 272.971901 40.427276 
C 272.14088 39.596255 271.013616 39.129328 269.838376 39.129328 
C 268.663136 39.129328 267.535872 39.596255 266.704852 40.427276 
C 265.873832 41.258296 265.406904 42.38556 265.406904 43.5608 
C 265.406904 44.73604 265.873832 45.863304 266.704852 46.694324 
C 267.535872 47.525345 268.663136 47.992272 269.838376 47.992272 
z
" style="fill:#bb8bff;stroke:#bb8bff;stroke-linejoin:miter;stroke-width:1.5;"/>
   </g>
   <g id="patch_19">
    <path clip-path="url(#p0a6565d282)" d="M 269.838376 93.443272 
C 271.013616 93.443272 272.14088 92.976345 272.971901 92.145324 
C 273.802921 91.314304 274.269849 90.18704 274.269849 89.0118 
C 274.269849 87.83656 273.802921 86.709296 272.971901 85.878276 
C 272.14088 85.047255 271.013616 84.580327 269.838376 84.580327 
C 268.663136 84.580327 267.535872 85.047255 266.704852 85.878276 
C 265.873832 86.709296 265.406904 87.83656 265.406904 89.0118 
C 265.406904 90.18704 265.873832 91.314304 266.704852 92.145324 
C 267.535872 92.976345 268.663136 93.443272 269.838376 93.443272 
z
" style="fill:#bb8bff;stroke:#bb8bff;stroke-linejoin:miter;stroke-width:1.5;"/>
   </g>
   <g id="patch_20">
    <path clip-path="url(#p0a6565d282)" d="M 269.838376 190.253903 
C 272.580603 190.253903 275.210885 189.164404 277.149933 187.225357 
C 279.08898 185.286309 280.178479 182.656027 280.178479 179.9138 
C 280.178479 177.171573 279.08898 174.541291 277.149933 172.602243 
C 275.210885 170.663196 272.580603 169.573698 269.838376 169.573698 
C 267.096149 169.573698 264.465867 170.663196 262.52682 172.602243 
C 260.587772 174.541291 259.498274 177.171573 259.498274 179.9138 
C 259.498274 182.656027 260.587772 185.286309 262.52682 187.225357 
C 264.465867 189.164404 267.096149 190.253903 269.838376 190.253903 
z
" style="fill:#bb8bff;stroke:#bb8bff;stroke-linejoin:miter;stroke-width:2;"/>
   </g>
   <g id="patch_21">
    <path clip-path="url(#p0a6565d282)" d="M 345.968801 149.234375 
L 375.511951 149.234375 
L 375.511951 119.691225 
L 345.968801 119.691225 
z
" style="stroke:#000000;stroke-linejoin:miter;stroke-width:1.5;"/>
   </g>
   <g id="patch_22">
    <path clip-path="url(#p0a6565d282)" d="M 371.080479 138.894273 
C 371.080479 136.152959 369.990335 133.521118 368.051933 131.582716 
C 366.113531 129.644314 363.48169 128.55417 360.740376 128.55417 
C 357.999062 128.55417 355.367221 129.644314 353.42882 131.582716 
C 351.490418 133.521118 350.400274 136.152959 350.400274 138.894273 
" style="fill:none;stroke:#ffffff;stroke-linejoin:miter;stroke-width:2;"/>
   </g>
   <g id="patch_23">
    <path clip-path="url(#p0a6565d282)" d="M 391.419801 194.685375 
L 420.962951 194.685375 
L 420.962951 165.142225 
L 391.419801 165.142225 
z
" style="stroke:#000000;stroke-linejoin:miter;stroke-width:1.5;"/>
   </g>
   <g id="patch_24">
    <path clip-path="url(#p0a6565d282)" d="M 416.531479 184.345273 
C 416.531479 181.603959 415.441335 178.972118 413.502933 177.033716 
C 411.564531 175.095314 408.93269 174.00517 406.191376 174.00517 
C 403.450062 174.00517 400.818221 175.095314 398.87982 177.033716 
C 396.941418 178.972118 395.851274 181.603959 395.851274 184.345273 
" style="fill:none;stroke:#ffffff;stroke-linejoin:miter;stroke-width:2;"/>
   </g>
   <g id="line2d_15">
    <path clip-path="url(#p0a6565d282)" d="M 360.740376 138.894273 
L 371.080479 128.55417 
" style="fill:none;stroke:#ffffff;stroke-linecap:square;stroke-width:2;"/>
   </g>
   <g id="line2d_16">
    <path clip-path="url(#p0a6565d282)" d="M 406.191376 184.345273 
L 416.531479 174.00517 
" style="fill:none;stroke:#ffffff;stroke-linecap:square;stroke-width:2;"/>
   </g>
   <g id="line2d_17">
    <path clip-path="url(#p0a6565d282)" d="M 133.485376 20.8353 
L 133.485376 66.2863 
" style="fill:none;stroke:#000000;stroke-dasharray:3.7,1.6;stroke-dashoffset:0;"/>
   </g>
   <g id="line2d_18">
    <path clip-path="url(#p0a6565d282)" d="M 133.485376 66.2863 
L 133.485376 111.7373 
" style="fill:none;stroke:#000000;stroke-dasharray:3.7,1.6;stroke-dashoffset:0;"/>
   </g>
   <g id="line2d_19">
    <path clip-path="url(#p0a6565d282)" d="M 133.485376 111.7373 
L 133.485376 157.1883 
" style="fill:none;stroke:#000000;stroke-dasharray:3.7,1.6;stroke-dashoffset:0;"/>
   </g>
   <g id="line2d_20">
    <path clip-path="url(#p0a6565d282)" d="M 133.485376 157.1883 
L 133.485376 202.6393 
" style="fill:none;stroke:#000000;stroke-dasharray:3.7,1.6;stroke-dashoffset:0;"/>
   </g>
   <g id="line2d_21">
    <path clip-path="url(#p0a6565d282)" d="M 178.936376 140.37143 
L 178.936376 128.55417 
" style="fill:none;stroke:#ffffff;stroke-linecap:square;stroke-width:2;"/>
   </g>
   <g id="line2d_22">
    <path clip-path="url(#p0a6565d282)" d="M 173.027746 134.4628 
L 184.845006 134.4628 
" style="fill:none;stroke:#ffffff;stroke-linecap:square;stroke-width:2;"/>
   </g>
   <g id="line2d_23">
    <path clip-path="url(#p0a6565d282)" d="M 224.387376 140.37143 
L 224.387376 128.55417 
" style="fill:none;stroke:#ffffff;stroke-linecap:square;stroke-width:2;"/>
   </g>
   <g id="line2d_24">
    <path clip-path="url(#p0a6565d282)" d="M 218.478746 134.4628 
L 230.296006 134.4628 
" style="fill:none;stroke:#ffffff;stroke-linecap:square;stroke-width:2;"/>
   </g>
   <g id="line2d_25">
    <path clip-path="url(#p0a6565d282)" d="M 269.838376 185.82243 
L 269.838376 174.00517 
" style="fill:none;stroke:#ffffff;stroke-linecap:square;stroke-width:2;"/>
   </g>
   <g id="line2d_26">
    <path clip-path="url(#p0a6565d282)" d="M 263.929746 179.9138 
L 275.747006 179.9138 
" style="fill:none;stroke:#ffffff;stroke-linecap:square;stroke-width:2;"/>
   </g>
   <g id="line2d_27">
    <path clip-path="url(#p0a6565d282)" d="M 315.289376 20.8353 
L 315.289376 66.2863 
" style="fill:none;stroke:#000000;stroke-dasharray:3.7,1.6;stroke-dashoffset:0;"/>
   </g>
   <g id="line2d_28">
    <path clip-path="url(#p0a6565d282)" d="M 315.289376 66.2863 
L 315.289376 111.7373 
" style="fill:none;stroke:#000000;stroke-dasharray:3.7,1.6;stroke-dashoffset:0;"/>
   </g>
   <g id="line2d_29">
    <path clip-path="url(#p0a6565d282)" d="M 315.289376 111.7373 
L 315.289376 157.1883 
" style="fill:none;stroke:#000000;stroke-dasharray:3.7,1.6;stroke-dashoffset:0;"/>
   </g>
   <g id="line2d_30">
    <path clip-path="url(#p0a6565d282)" d="M 315.289376 157.1883 
L 315.289376 202.6393 
" style="fill:none;stroke:#000000;stroke-dasharray:3.7,1.6;stroke-dashoffset:0;"/>
   </g>
   <g id="text_1">
    <g clip-path="url(#p0a6565d282)">
     <!-- X -->
     <defs>
      <path d="M 6.296875 72.90625 
L 16.890625 72.90625 
L 35.015625 45.796875 
L 53.21875 72.90625 
L 63.8125 72.90625 
L 40.375 37.890625 
L 65.375 0 
L 54.78125 0 
L 34.28125 31 
L 13.625 0 
L 2.984375 0 
L 29 38.921875 
z
" id="DejaVuSans-88"/>
     </defs>
     <g transform="translate(83.581876 47.147987)scale(0.13 -0.13)">
      <use xlink:href="#DejaVuSans-88"/>
     </g>
    </g>
   </g>
   <g id="text_2">
    <g clip-path="url(#p0a6565d282)">
     <!-- X -->
     <g transform="translate(83.581876 92.598987)scale(0.13 -0.13)">
      <use xlink:href="#DejaVuSans-88"/>
     </g>
    </g>
   </g>
   <g id="text_3">
    <g clip-path="url(#p0a6565d282)">
     <!-- 0 -->
     <defs>
      <path d="M 31.78125 66.40625 
Q 24.171875 66.40625 20.328125 58.90625 
Q 16.5 51.421875 16.5 36.375 
Q 16.5 21.390625 20.328125 13.890625 
Q 24.171875 6.390625 31.78125 6.390625 
Q 39.453125 6.390625 43.28125 13.890625 
Q 47.125 21.390625 47.125 36.375 
Q 47.125 51.421875 43.28125 58.90625 
Q 39.453125 66.40625 31.78125 66.40625 
z
M 31.78125 74.21875 
Q 44.046875 74.21875 50.515625 64.515625 
Q 56.984375 54.828125 56.984375 36.375 
Q 56.984375 17.96875 50.515625 8.265625 
Q 44.046875 -1.421875 31.78125 -1.421875 
Q 19.53125 -1.421875 13.0625 8.265625 
Q 6.59375 17.96875 6.59375 36.375 
Q 6.59375 54.828125 13.0625 64.515625 
Q 19.53125 74.21875 31.78125 74.21875 
z
" id="DejaVuSans-48"/>
     </defs>
     <g transform="translate(372.103126 218.656825)scale(0.104 -0.104)">
      <use xlink:href="#DejaVuSans-48"/>
     </g>
    </g>
   </g>
   <g id="text_4">
    <g clip-path="url(#p0a6565d282)">
     <!-- 1 -->
     <defs>
      <path d="M 12.40625 8.296875 
L 28.515625 8.296875 
L 28.515625 63.921875 
L 10.984375 60.40625 
L 10.984375 69.390625 
L 28.421875 72.90625 
L 38.28125 72.90625 
L 38.28125 8.296875 
L 54.390625 8.296875 
L 54.390625 0 
L 12.40625 0 
z
" id="DejaVuSans-49"/>
     </defs>
     <g transform="translate(417.554126 218.656825)scale(0.104 -0.104)">
      <use xlink:href="#DejaVuSans-49"/>
     </g>
    </g>
   </g>
   <g id="text_5">
    <g clip-path="url(#p0a6565d282)">
     <!-- ${q}_{0}$ -->
     <defs>
      <path d="M 41.703125 8.203125 
Q 38.09375 3.46875 33.171875 1.015625 
Q 28.265625 -1.421875 22.3125 -1.421875 
Q 14.015625 -1.421875 9.296875 4.171875 
Q 4.59375 9.765625 4.59375 19.578125 
Q 4.59375 27.484375 7.5 34.859375 
Q 10.40625 42.234375 15.828125 48.09375 
Q 19.34375 51.90625 23.90625 53.953125 
Q 28.46875 56 33.5 56 
Q 39.546875 56 43.453125 53.609375 
Q 47.359375 51.21875 49.125 46.390625 
L 50.6875 54.59375 
L 59.71875 54.59375 
L 45.125 -20.609375 
L 36.078125 -20.609375 
z
M 13.921875 20.90625 
Q 13.921875 13.671875 16.9375 9.890625 
Q 19.96875 6.109375 25.6875 6.109375 
Q 34.1875 6.109375 40.1875 14.234375 
Q 46.1875 22.359375 46.1875 33.984375 
Q 46.1875 41.015625 43.078125 44.75 
Q 39.984375 48.484375 34.1875 48.484375 
Q 29.9375 48.484375 26.3125 46.5 
Q 22.703125 44.53125 20.015625 40.71875 
Q 17.1875 36.71875 15.546875 31.34375 
Q 13.921875 25.984375 13.921875 20.90625 
z
" id="DejaVuSans-Oblique-113"/>
     </defs>
     <g transform="translate(36.363136 48.011777)scale(0.1625 -0.1625)">
      <use xlink:href="#DejaVuSans-Oblique-113"/>
      <use transform="translate(63.476562 -16.40625)scale(0.7)" xlink:href="#DejaVuSans-48"/>
     </g>
    </g>
   </g>
   <g id="text_6">
    <g clip-path="url(#p0a6565d282)">
     <!-- ${q}_{1}$ -->
     <g transform="translate(36.363136 93.462777)scale(0.1625 -0.1625)">
      <use xlink:href="#DejaVuSans-Oblique-113"/>
      <use transform="translate(63.476562 -16.40625)scale(0.7)" xlink:href="#DejaVuSans-49"/>
     </g>
    </g>
   </g>
   <g id="text_7">
    <g clip-path="url(#p0a6565d282)">
     <!-- ${q}_{2}$ -->
     <defs>
      <path d="M 19.1875 8.296875 
L 53.609375 8.296875 
L 53.609375 0 
L 7.328125 0 
L 7.328125 8.296875 
Q 12.9375 14.109375 22.625 23.890625 
Q 32.328125 33.6875 34.8125 36.53125 
Q 39.546875 41.84375 41.421875 45.53125 
Q 43.3125 49.21875 43.3125 52.78125 
Q 43.3125 58.59375 39.234375 62.25 
Q 35.15625 65.921875 28.609375 65.921875 
Q 23.96875 65.921875 18.8125 64.3125 
Q 13.671875 62.703125 7.8125 59.421875 
L 7.8125 69.390625 
Q 13.765625 71.78125 18.9375 73 
Q 24.125 74.21875 28.421875 74.21875 
Q 39.75 74.21875 46.484375 68.546875 
Q 53.21875 62.890625 53.21875 53.421875 
Q 53.21875 48.921875 51.53125 44.890625 
Q 49.859375 40.875 45.40625 35.40625 
Q 44.1875 33.984375 37.640625 27.21875 
Q 31.109375 20.453125 19.1875 8.296875 
z
" id="DejaVuSans-50"/>
     </defs>
     <g transform="translate(36.363136 138.913777)scale(0.1625 -0.1625)">
      <use xlink:href="#DejaVuSans-Oblique-113"/>
      <use transform="translate(63.476562 -16.40625)scale(0.7)" xlink:href="#DejaVuSans-50"/>
     </g>
    </g>
   </g>
   <g id="text_8">
    <g clip-path="url(#p0a6565d282)">
     <!-- ${q}_{3}$ -->
     <defs>
      <path d="M 40.578125 39.3125 
Q 47.65625 37.796875 51.625 33 
Q 55.609375 28.21875 55.609375 21.1875 
Q 55.609375 10.40625 48.1875 4.484375 
Q 40.765625 -1.421875 27.09375 -1.421875 
Q 22.515625 -1.421875 17.65625 -0.515625 
Q 12.796875 0.390625 7.625 2.203125 
L 7.625 11.71875 
Q 11.71875 9.328125 16.59375 8.109375 
Q 21.484375 6.890625 26.8125 6.890625 
Q 36.078125 6.890625 40.9375 10.546875 
Q 45.796875 14.203125 45.796875 21.1875 
Q 45.796875 27.640625 41.28125 31.265625 
Q 36.765625 34.90625 28.71875 34.90625 
L 20.21875 34.90625 
L 20.21875 43.015625 
L 29.109375 43.015625 
Q 36.375 43.015625 40.234375 45.921875 
Q 44.09375 48.828125 44.09375 54.296875 
Q 44.09375 59.90625 40.109375 62.90625 
Q 36.140625 65.921875 28.71875 65.921875 
Q 24.65625 65.921875 20.015625 65.03125 
Q 15.375 64.15625 9.8125 62.3125 
L 9.8125 71.09375 
Q 15.4375 72.65625 20.34375 73.4375 
Q 25.25 74.21875 29.59375 74.21875 
Q 40.828125 74.21875 47.359375 69.109375 
Q 53.90625 64.015625 53.90625 55.328125 
Q 53.90625 49.265625 50.4375 45.09375 
Q 46.96875 40.921875 40.578125 39.3125 
z
" id="DejaVuSans-51"/>
     </defs>
     <g transform="translate(36.363136 184.364777)scale(0.1625 -0.1625)">
      <use xlink:href="#DejaVuSans-Oblique-113"/>
      <use transform="translate(63.476562 -16.40625)scale(0.7)" xlink:href="#DejaVuSans-51"/>
     </g>
    </g>
   </g>
   <g id="text_9">
    <g clip-path="url(#p0a6565d282)">
     <!-- 2 -->
     <g transform="translate(68.035936 218.656825)scale(0.104 -0.104)">
      <use xlink:href="#DejaVuSans-50"/>
     </g>
    </g>
   </g>
   <g id="text_10">
    <g clip-path="url(#p0a6565d282)">
     <!-- c -->
     <defs>
      <path d="M 48.78125 52.59375 
L 48.78125 44.1875 
Q 44.96875 46.296875 41.140625 47.34375 
Q 37.3125 48.390625 33.40625 48.390625 
Q 24.65625 48.390625 19.8125 42.84375 
Q 14.984375 37.3125 14.984375 27.296875 
Q 14.984375 17.28125 19.8125 11.734375 
Q 24.65625 6.203125 33.40625 6.203125 
Q 37.3125 6.203125 41.140625 7.25 
Q 44.96875 8.296875 48.78125 10.40625 
L 48.78125 2.09375 
Q 45.015625 0.34375 40.984375 -0.53125 
Q 36.96875 -1.421875 32.421875 -1.421875 
Q 20.0625 -1.421875 12.78125 6.34375 
Q 5.515625 14.109375 5.515625 27.296875 
Q 5.515625 40.671875 12.859375 48.328125 
Q 20.21875 56 33.015625 56 
Q 37.15625 56 41.109375 55.140625 
Q 45.0625 54.296875 48.78125 52.59375 
z
" id="DejaVuSans-99"/>
     </defs>
     <g transform="translate(45.465675 229.848784)scale(0.1625 -0.1625)">
      <use xlink:href="#DejaVuSans-99"/>
     </g>
    </g>
   </g>
  </g>
 </g>
 <defs>
  <clipPath id="p0a6565d282">
   <rect height="245.4354" width="428.989036" x="7.2" y="7.2"/>
  </clipPath>
 </defs>
</svg>
