<?xml version="1.0" encoding="utf-8" standalone="no"?>
<!DOCTYPE svg PUBLIC "-//W3C//DTD SVG 1.1//EN"
  "http://www.w3.org/Graphics/SVG/1.1/DTD/svg11.dtd">
<!-- Created with matplotlib (https://matplotlib.org/) -->
<svg height="123.4824pt" version="1.1" viewBox="0 0 261.475272 123.4824" width="261.475272pt" xmlns="http://www.w3.org/2000/svg" xmlns:xlink="http://www.w3.org/1999/xlink">
 <defs>
  <style type="text/css">
*{stroke-linecap:butt;stroke-linejoin:round;}
  </style>
 </defs>
 <g id="figure_1">
  <g id="patch_1">
   <path d="M 0 123.4824 
L 261.475272 123.4824 
L 261.475272 0 
L 0 0 
z
" style="fill:#ffffff;"/>
  </g>
  <g id="axes_1">
   <g id="line2d_1">
    <path clip-path="url(#p1d0e0e48a8)" d="M 63.381072 43.5608 
L 249.730172 43.5608 
" style="fill:none;stroke:#000000;stroke-linecap:square;stroke-width:2;"/>
   </g>
   <g id="line2d_2">
    <path clip-path="url(#p1d0e0e48a8)" d="M 63.381072 89.0118 
L 249.730172 89.0118 
" style="fill:none;stroke:#000000;stroke-linecap:square;stroke-width:2;"/>
   </g>
   <g id="line2d_3">
    <path clip-path="url(#p1d0e0e48a8)" d="M 87.924612 89.0118 
L 87.924612 43.5608 
" style="fill:none;stroke:#6fa4ff;stroke-linecap:square;stroke-width:2;"/>
   </g>
   <g id="line2d_4">
    <path clip-path="url(#p1d0e0e48a8)" d="M 133.375612 89.0118 
L 133.375612 43.5608 
" style="fill:none;stroke:#6fa4ff;stroke-linecap:square;stroke-width:2;"/>
   </g>
   <g id="line2d_5">
    <path clip-path="url(#p1d0e0e48a8)" d="M 178.826612 89.0118 
L 178.826612 43.5608 
" style="fill:none;stroke:#6fa4ff;stroke-linecap:square;stroke-width:2;"/>
   </g>
   <g id="line2d_6">
    <path clip-path="url(#p1d0e0e48a8)" d="M 224.277612 89.0118 
L 224.277612 43.5608 
" style="fill:none;stroke:#6fa4ff;stroke-linecap:square;stroke-width:2;"/>
   </g>
   <g id="patch_2">
    <path clip-path="url(#p1d0e0e48a8)" d="M 87.924612 47.992273 
C 89.099852 47.992273 90.227116 47.525345 91.058136 46.694324 
C 91.889157 45.863304 92.356085 44.73604 92.356085 43.5608 
C 92.356085 42.38556 91.889157 41.258296 91.058136 40.427276 
C 90.227116 39.596255 89.099852 39.129328 87.924612 39.129328 
C 86.749372 39.129328 85.622108 39.596255 84.791088 40.427276 
C 83.960067 41.258296 83.49314 42.38556 83.49314 43.5608 
C 83.49314 44.73604 83.960067 45.863304 84.791088 46.694324 
C 85.622108 47.525345 86.749372 47.992273 87.924612 47.992273 
z
" style="fill:#6fa4ff;stroke:#6fa4ff;stroke-linejoin:miter;stroke-width:1.5;"/>
   </g>
   <g id="patch_3">
    <path clip-path="url(#p1d0e0e48a8)" d="M 87.924612 99.351903 
C 90.666839 99.351903 93.297121 98.262404 95.236169 96.323357 
C 97.175216 94.384309 98.264715 91.754027 98.264715 89.0118 
C 98.264715 86.269573 97.175216 83.639291 95.236169 81.700243 
C 93.297121 79.761196 90.666839 78.671698 87.924612 78.671698 
C 85.182385 78.671698 82.552103 79.761196 80.613055 81.700243 
C 78.674008 83.639291 77.58451 86.269573 77.58451 89.0118 
C 77.58451 91.754027 78.674008 94.384309 80.613055 96.323357 
C 82.552103 98.262404 85.182385 99.351903 87.924612 99.351903 
z
" style="fill:#6fa4ff;stroke:#6fa4ff;stroke-linejoin:miter;stroke-width:2;"/>
   </g>
   <g id="patch_4">
    <path clip-path="url(#p1d0e0e48a8)" d="M 133.375612 93.443273 
C 134.550852 93.443273 135.678116 92.976345 136.509136 92.145324 
C 137.340157 91.314304 137.807085 90.18704 137.807085 89.0118 
C 137.807085 87.83656 137.340157 86.709296 136.509136 85.878276 
C 135.678116 85.047255 134.550852 84.580328 133.375612 84.580328 
C 132.200372 84.580328 131.073108 85.047255 130.242088 85.878276 
C 129.411067 86.709296 128.94414 87.83656 128.94414 89.0118 
C 128.94414 90.18704 129.411067 91.314304 130.242088 92.145324 
C 131.073108 92.976345 132.200372 93.443273 133.375612 93.443273 
z
" style="fill:#6fa4ff;stroke:#6fa4ff;stroke-linejoin:miter;stroke-width:1.5;"/>
   </g>
   <g id="patch_5">
    <path clip-path="url(#p1d0e0e48a8)" d="M 133.375612 53.900903 
C 136.117839 53.900903 138.748121 52.811404 140.687169 50.872357 
C 142.626216 48.933309 143.715715 46.303027 143.715715 43.5608 
C 143.715715 40.818573 142.626216 38.188291 140.687169 36.249243 
C 138.748121 34.310196 136.117839 33.220698 133.375612 33.220698 
C 130.633385 33.220698 128.003103 34.310196 126.064055 36.249243 
C 124.125008 38.188291 123.03551 40.818573 123.03551 43.5608 
C 123.03551 46.303027 124.125008 48.933309 126.064055 50.872357 
C 128.003103 52.811404 130.633385 53.900903 133.375612 53.900903 
z
" style="fill:#6fa4ff;stroke:#6fa4ff;stroke-linejoin:miter;stroke-width:2;"/>
   </g>
   <g id="patch_6">
    <path clip-path="url(#p1d0e0e48a8)" d="M 178.826612 93.443273 
C 180.001852 93.443273 181.129116 92.976345 181.960136 92.145324 
C 182.791157 91.314304 183.258085 90.18704 183.258085 89.0118 
C 183.258085 87.83656 182.791157 86.709296 181.960136 85.878276 
C 181.129116 85.047255 180.001852 84.580328 178.826612 84.580328 
C 177.651372 84.580328 176.524108 85.047255 175.693088 85.878276 
C 174.862067 86.709296 174.39514 87.83656 174.39514 89.0118 
C 174.39514 90.18704 174.862067 91.314304 175.693088 92.145324 
C 176.524108 92.976345 177.651372 93.443273 178.826612 93.443273 
z
" style="fill:#6fa4ff;stroke:#6fa4ff;stroke-linejoin:miter;stroke-width:1.5;"/>
   </g>
   <g id="patch_7">
    <path clip-path="url(#p1d0e0e48a8)" d="M 178.826612 53.900903 
C 181.568839 53.900903 184.199121 52.811404 186.138169 50.872357 
C 188.077216 48.933309 189.166715 46.303027 189.166715 43.5608 
C 189.166715 40.818573 188.077216 38.188291 186.138169 36.249243 
C 184.199121 34.310196 181.568839 33.220698 178.826612 33.220698 
C 176.084385 33.220698 173.454103 34.310196 171.515055 36.249243 
C 169.576008 38.188291 168.48651 40.818573 168.48651 43.5608 
C 168.48651 46.303027 169.576008 48.933309 171.515055 50.872357 
C 173.454103 52.811404 176.084385 53.900903 178.826612 53.900903 
z
" style="fill:#6fa4ff;stroke:#6fa4ff;stroke-linejoin:miter;stroke-width:2;"/>
   </g>
   <g id="patch_8">
    <path clip-path="url(#p1d0e0e48a8)" d="M 224.277612 47.992273 
C 225.452852 47.992273 226.580116 47.525345 227.411136 46.694324 
C 228.242157 45.863304 228.709085 44.73604 228.709085 43.5608 
C 228.709085 42.38556 228.242157 41.258296 227.411136 40.427276 
C 226.580116 39.596255 225.452852 39.129328 224.277612 39.129328 
C 223.102372 39.129328 221.975108 39.596255 221.144088 40.427276 
C 220.313067 41.258296 219.84614 42.38556 219.84614 43.5608 
C 219.84614 44.73604 220.313067 45.863304 221.144088 46.694324 
C 221.975108 47.525345 223.102372 47.992273 224.277612 47.992273 
z
" style="fill:#6fa4ff;stroke:#6fa4ff;stroke-linejoin:miter;stroke-width:1.5;"/>
   </g>
   <g id="patch_9">
    <path clip-path="url(#p1d0e0e48a8)" d="M 224.277612 99.351903 
C 227.019839 99.351903 229.650121 98.262404 231.589169 96.323357 
C 233.528216 94.384309 234.617715 91.754027 234.617715 89.0118 
C 234.617715 86.269573 233.528216 83.639291 231.589169 81.700243 
C 229.650121 79.761196 227.019839 78.671698 224.277612 78.671698 
C 221.535385 78.671698 218.905103 79.761196 216.966055 81.700243 
C 215.027008 83.639291 213.93751 86.269573 213.93751 89.0118 
C 213.93751 91.754027 215.027008 94.384309 216.966055 96.323357 
C 218.905103 98.262404 221.535385 99.351903 224.277612 99.351903 
z
" style="fill:#6fa4ff;stroke:#6fa4ff;stroke-linejoin:miter;stroke-width:2;"/>
   </g>
   <g id="line2d_7">
    <path clip-path="url(#p1d0e0e48a8)" d="M 87.924612 94.92043 
L 87.924612 83.10317 
" style="fill:none;stroke:#ffffff;stroke-linecap:square;stroke-width:2;"/>
   </g>
   <g id="line2d_8">
    <path clip-path="url(#p1d0e0e48a8)" d="M 82.015982 89.0118 
L 93.833242 89.0118 
" style="fill:none;stroke:#ffffff;stroke-linecap:square;stroke-width:2;"/>
   </g>
   <g id="line2d_9">
    <path clip-path="url(#p1d0e0e48a8)" d="M 133.375612 49.46943 
L 133.375612 37.65217 
" style="fill:none;stroke:#ffffff;stroke-linecap:square;stroke-width:2;"/>
   </g>
   <g id="line2d_10">
    <path clip-path="url(#p1d0e0e48a8)" d="M 127.466982 43.5608 
L 139.284242 43.5608 
" style="fill:none;stroke:#ffffff;stroke-linecap:square;stroke-width:2;"/>
   </g>
   <g id="line2d_11">
    <path clip-path="url(#p1d0e0e48a8)" d="M 178.826612 49.46943 
L 178.826612 37.65217 
" style="fill:none;stroke:#ffffff;stroke-linecap:square;stroke-width:2;"/>
   </g>
   <g id="line2d_12">
    <path clip-path="url(#p1d0e0e48a8)" d="M 172.917982 43.5608 
L 184.735242 43.5608 
" style="fill:none;stroke:#ffffff;stroke-linecap:square;stroke-width:2;"/>
   </g>
   <g id="line2d_13">
    <path clip-path="url(#p1d0e0e48a8)" d="M 224.277612 94.92043 
L 224.277612 83.10317 
" style="fill:none;stroke:#ffffff;stroke-linecap:square;stroke-width:2;"/>
   </g>
   <g id="line2d_14">
    <path clip-path="url(#p1d0e0e48a8)" d="M 218.368982 89.0118 
L 230.186242 89.0118 
" style="fill:none;stroke:#ffffff;stroke-linecap:square;stroke-width:2;"/>
   </g>
   <g id="text_1">
    <g clip-path="url(#p1d0e0e48a8)">
     <!-- ${q}_{0}$ -->
     <defs>
      <path d="M 41.703125 8.203125 
Q 38.09375 3.46875 33.171875 1.015625 
Q 28.265625 -1.421875 22.3125 -1.421875 
Q 14.015625 -1.421875 9.296875 4.171875 
Q 4.59375 9.765625 4.59375 19.578125 
Q 4.59375 27.484375 7.5 34.859375 
Q 10.40625 42.234375 15.828125 48.09375 
Q 19.34375 51.90625 23.90625 53.953125 
Q 28.46875 56 33.5 56 
Q 39.546875 56 43.453125 53.609375 
Q 47.359375 51.21875 49.125 46.390625 
L 50.6875 54.59375 
L 59.71875 54.59375 
L 45.125 -20.609375 
L 36.078125 -20.609375 
z
M 13.921875 20.90625 
Q 13.921875 13.671875 16.9375 9.890625 
Q 19.96875 6.109375 25.6875 6.109375 
Q 34.1875 6.109375 40.1875 14.234375 
Q 46.1875 22.359375 46.1875 33.984375 
Q 46.1875 41.015625 43.078125 44.75 
Q 39.984375 48.484375 34.1875 48.484375 
Q 29.9375 48.484375 26.3125 46.5 
Q 22.703125 44.53125 20.015625 40.71875 
Q 17.1875 36.71875 15.546875 31.34375 
Q 13.921875 25.984375 13.921875 20.90625 
z
" id="DejaVuSans-Oblique-113"/>
      <path d="M 31.78125 66.40625 
Q 24.171875 66.40625 20.328125 58.90625 
Q 16.5 51.421875 16.5 36.375 
Q 16.5 21.390625 20.328125 13.890625 
Q 24.171875 6.390625 31.78125 6.390625 
Q 39.453125 6.390625 43.28125 13.890625 
Q 47.125 21.390625 47.125 36.375 
Q 47.125 51.421875 43.28125 58.90625 
Q 39.453125 66.40625 31.78125 66.40625 
z
M 31.78125 74.21875 
Q 44.046875 74.21875 50.515625 64.515625 
Q 56.984375 54.828125 56.984375 36.375 
Q 56.984375 17.96875 50.515625 8.265625 
Q 44.046875 -1.421875 31.78125 -1.421875 
Q 19.53125 -1.421875 13.0625 8.265625 
Q 6.59375 17.96875 6.59375 36.375 
Q 6.59375 54.828125 13.0625 64.515625 
Q 19.53125 74.21875 31.78125 74.21875 
z
" id="DejaVuSans-48"/>
     </defs>
     <g transform="translate(36.253372 48.011777)scale(0.1625 -0.1625)">
      <use xlink:href="#DejaVuSans-Oblique-113"/>
      <use transform="translate(63.476562 -16.40625)scale(0.7)" xlink:href="#DejaVuSans-48"/>
     </g>
    </g>
   </g>
   <g id="text_2">
    <g clip-path="url(#p1d0e0e48a8)">
     <!-- ${q}_{1}$ -->
     <defs>
      <path d="M 12.40625 8.296875 
L 28.515625 8.296875 
L 28.515625 63.921875 
L 10.984375 60.40625 
L 10.984375 69.390625 
L 28.421875 72.90625 
L 38.28125 72.90625 
L 38.28125 8.296875 
L 54.390625 8.296875 
L 54.390625 0 
L 12.40625 0 
z
" id="DejaVuSans-49"/>
     </defs>
     <g transform="translate(36.253372 93.462777)scale(0.1625 -0.1625)">
      <use xlink:href="#DejaVuSans-Oblique-113"/>
      <use transform="translate(63.476562 -16.40625)scale(0.7)" xlink:href="#DejaVuSans-49"/>
     </g>
    </g>
   </g>
  </g>
 </g>
 <defs>
  <clipPath id="p1d0e0e48a8">
   <rect height="109.0824" width="247.075272" x="7.2" y="7.2"/>
  </clipPath>
 </defs>
</svg>
