<?xml version="1.0" encoding="utf-8" standalone="no"?>
<!DOCTYPE svg PUBLIC "-//W3C//DTD SVG 1.1//EN"
  "http://www.w3.org/Graphics/SVG/1.1/DTD/svg11.dtd">
<!-- Created with matplotlib (https://matplotlib.org/) -->
<svg height="78.0314pt" version="1.1" viewBox="0 0 251.565136 78.0314" width="251.565136pt" xmlns="http://www.w3.org/2000/svg" xmlns:xlink="http://www.w3.org/1999/xlink">
 <defs>
  <style type="text/css">
*{stroke-linecap:butt;stroke-linejoin:round;}
  </style>
 </defs>
 <g id="figure_1">
  <g id="patch_1">
   <path d="M 0 78.0314 
L 251.565136 78.0314 
L 251.565136 0 
L 0 0 
z
" style="fill:#ffffff;"/>
  </g>
  <g id="axes_1">
   <g id="line2d_1">
    <path clip-path="url(#p808ee38d56)" d="M 53.470936 43.5608 
L 239.820036 43.5608 
" style="fill:none;stroke:#000000;stroke-linecap:square;stroke-width:2;"/>
   </g>
   <g id="patch_2">
    <path clip-path="url(#p808ee38d56)" d="M 63.242901 58.332375 
L 92.786051 58.332375 
L 92.786051 28.789225 
L 63.242901 28.789225 
z
" style="fill:#bb8bff;stroke:#bb8bff;stroke-linejoin:miter;stroke-width:1.5;"/>
   </g>
   <g id="patch_3">
    <path clip-path="url(#p808ee38d56)" d="M 108.693901 58.332375 
L 138.237051 58.332375 
L 138.237051 28.789225 
L 108.693901 28.789225 
z
" style="fill:#6fa4ff;stroke:#6fa4ff;stroke-linejoin:miter;stroke-width:1.5;"/>
   </g>
   <g id="patch_4">
    <path clip-path="url(#p808ee38d56)" d="M 154.144901 58.332375 
L 183.688051 58.332375 
L 183.688051 28.789225 
L 154.144901 28.789225 
z
" style="fill:#bb8bff;stroke:#bb8bff;stroke-linejoin:miter;stroke-width:1.5;"/>
   </g>
   <g id="patch_5">
    <path clip-path="url(#p808ee38d56)" d="M 199.595901 58.332375 
L 229.139051 58.332375 
L 229.139051 28.789225 
L 199.595901 28.789225 
z
" style="fill:#6fa4ff;stroke:#6fa4ff;stroke-linejoin:miter;stroke-width:1.5;"/>
   </g>
   <g id="text_1">
    <g clip-path="url(#p808ee38d56)">
     <!-- T -->
     <defs>
      <path d="M -0.296875 72.90625 
L 61.375 72.90625 
L 61.375 64.59375 
L 35.5 64.59375 
L 35.5 0 
L 25.59375 0 
L 25.59375 64.59375 
L -0.296875 64.59375 
z
" id="DejaVuSans-84"/>
     </defs>
     <g transform="translate(74.044398 47.147987)scale(0.13 -0.13)">
      <use xlink:href="#DejaVuSans-84"/>
     </g>
    </g>
   </g>
   <g id="text_2">
    <g clip-path="url(#p808ee38d56)">
     <!-- H -->
     <defs>
      <path d="M 9.8125 72.90625 
L 19.671875 72.90625 
L 19.671875 43.015625 
L 55.515625 43.015625 
L 55.515625 72.90625 
L 65.375 72.90625 
L 65.375 0 
L 55.515625 0 
L 55.515625 34.71875 
L 19.671875 34.71875 
L 19.671875 0 
L 9.8125 0 
z
" id="DejaVuSans-72"/>
     </defs>
     <g transform="translate(118.577273 47.147987)scale(0.13 -0.13)">
      <use xlink:href="#DejaVuSans-72"/>
     </g>
    </g>
   </g>
   <g id="text_3">
    <g clip-path="url(#p808ee38d56)">
     <!-- T -->
     <g transform="translate(164.946398 47.147987)scale(0.13 -0.13)">
      <use xlink:href="#DejaVuSans-84"/>
     </g>
    </g>
   </g>
   <g id="text_4">
    <g clip-path="url(#p808ee38d56)">
     <!-- H -->
     <g transform="translate(209.479273 47.147987)scale(0.13 -0.13)">
      <use xlink:href="#DejaVuSans-72"/>
     </g>
    </g>
   </g>
   <g id="text_5">
    <g clip-path="url(#p808ee38d56)">
     <!-- q -->
     <defs>
      <path d="M 14.796875 27.296875 
Q 14.796875 17.390625 18.875 11.75 
Q 22.953125 6.109375 30.078125 6.109375 
Q 37.203125 6.109375 41.296875 11.75 
Q 45.40625 17.390625 45.40625 27.296875 
Q 45.40625 37.203125 41.296875 42.84375 
Q 37.203125 48.484375 30.078125 48.484375 
Q 22.953125 48.484375 18.875 42.84375 
Q 14.796875 37.203125 14.796875 27.296875 
z
M 45.40625 8.203125 
Q 42.578125 3.328125 38.25 0.953125 
Q 33.9375 -1.421875 27.875 -1.421875 
Q 17.96875 -1.421875 11.734375 6.484375 
Q 5.515625 14.40625 5.515625 27.296875 
Q 5.515625 40.1875 11.734375 48.09375 
Q 17.96875 56 27.875 56 
Q 33.9375 56 38.25 53.625 
Q 42.578125 51.265625 45.40625 46.390625 
L 45.40625 54.6875 
L 54.390625 54.6875 
L 54.390625 -20.796875 
L 45.40625 -20.796875 
z
" id="DejaVuSans-113"/>
     </defs>
     <g transform="translate(34.064525 48.044784)scale(0.1625 -0.1625)">
      <use xlink:href="#DejaVuSans-113"/>
     </g>
    </g>
   </g>
  </g>
 </g>
 <defs>
  <clipPath id="p808ee38d56">
   <rect height="63.6314" width="237.165136" x="7.2" y="7.2"/>
  </clipPath>
 </defs>
</svg>
