<?xml version="1.0" encoding="utf-8" standalone="no"?>
<!DOCTYPE svg PUBLIC "-//W3C//DTD SVG 1.1//EN"
  "http://www.w3.org/Graphics/SVG/1.1/DTD/svg11.dtd">
<!-- Created with matplotlib (https://matplotlib.org/) -->
<svg height="214.3844pt" version="1.1" viewBox="0 0 388.162208 214.3844" width="388.162208pt" xmlns="http://www.w3.org/2000/svg" xmlns:xlink="http://www.w3.org/1999/xlink">
 <defs>
  <style type="text/css">
*{stroke-linecap:butt;stroke-linejoin:round;}
  </style>
 </defs>
 <g id="figure_1">
  <g id="patch_1">
   <path d="M 0 214.3844 
L 388.162208 214.3844 
L 388.162208 0 
L 0 0 
z
" style="fill:#ffffff;"/>
  </g>
  <g id="axes_1">
   <g id="line2d_1">
    <path clip-path="url(#p789ac08b09)" d="M 144.617008 43.5608 
L 376.417108 43.5608 
" style="fill:none;stroke:#000000;stroke-linecap:square;stroke-width:2;"/>
   </g>
   <g id="line2d_2">
    <path clip-path="url(#p789ac08b09)" d="M 144.617008 89.0118 
L 376.417108 89.0118 
" style="fill:none;stroke:#000000;stroke-linecap:square;stroke-width:2;"/>
   </g>
   <g id="line2d_3">
    <path clip-path="url(#p789ac08b09)" d="M 144.617008 134.4628 
L 376.417108 134.4628 
" style="fill:none;stroke:#000000;stroke-linecap:square;stroke-width:2;"/>
   </g>
   <g id="line2d_4">
    <path clip-path="url(#p789ac08b09)" d="M 144.617008 179.9138 
L 376.417108 179.9138 
" style="fill:none;stroke:#000000;stroke-linecap:square;stroke-width:2;"/>
   </g>
   <g id="line2d_5">
    <path clip-path="url(#p789ac08b09)" d="M 169.160548 89.0118 
L 169.160548 43.5608 
" style="fill:none;stroke:#6fa4ff;stroke-linecap:square;stroke-width:2;"/>
   </g>
   <g id="line2d_6">
    <path clip-path="url(#p789ac08b09)" d="M 214.611548 134.4628 
L 214.611548 43.5608 
" style="fill:none;stroke:#6fa4ff;stroke-linecap:square;stroke-width:2;"/>
   </g>
   <g id="line2d_7">
    <path clip-path="url(#p789ac08b09)" d="M 260.062548 179.9138 
L 260.062548 89.0118 
" style="fill:none;stroke:#6fa4ff;stroke-linecap:square;stroke-width:2;"/>
   </g>
   <g id="line2d_8">
    <path clip-path="url(#p789ac08b09)" d="M 305.513548 134.4628 
L 305.513548 43.5608 
" style="fill:none;stroke:#6fa4ff;stroke-linecap:square;stroke-width:2;"/>
   </g>
   <g id="line2d_9">
    <path clip-path="url(#p789ac08b09)" d="M 350.964548 89.0118 
L 350.964548 43.5608 
" style="fill:none;stroke:#6fa4ff;stroke-linecap:square;stroke-width:2;"/>
   </g>
   <g id="patch_2">
    <path clip-path="url(#p789ac08b09)" d="M 169.160548 47.992273 
C 170.335788 47.992273 171.463052 47.525345 172.294072 46.694324 
C 173.125093 45.863304 173.59202 44.73604 173.59202 43.5608 
C 173.59202 42.38556 173.125093 41.258296 172.294072 40.427276 
C 171.463052 39.596255 170.335788 39.129328 169.160548 39.129328 
C 167.985308 39.129328 166.858044 39.596255 166.027024 40.427276 
C 165.196003 41.258296 164.729075 42.38556 164.729075 43.5608 
C 164.729075 44.73604 165.196003 45.863304 166.027024 46.694324 
C 166.858044 47.525345 167.985308 47.992273 169.160548 47.992273 
z
" style="fill:#6fa4ff;stroke:#6fa4ff;stroke-linejoin:miter;stroke-width:1.5;"/>
   </g>
   <g id="patch_3">
    <path clip-path="url(#p789ac08b09)" d="M 169.160548 99.351903 
C 171.902775 99.351903 174.533057 98.262404 176.472105 96.323357 
C 178.411152 94.384309 179.50065 91.754027 179.50065 89.0118 
C 179.50065 86.269573 178.411152 83.639291 176.472105 81.700243 
C 174.533057 79.761196 171.902775 78.671698 169.160548 78.671698 
C 166.418321 78.671698 163.788039 79.761196 161.848991 81.700243 
C 159.909944 83.639291 158.820445 86.269573 158.820445 89.0118 
C 158.820445 91.754027 159.909944 94.384309 161.848991 96.323357 
C 163.788039 98.262404 166.418321 99.351903 169.160548 99.351903 
z
" style="fill:#6fa4ff;stroke:#6fa4ff;stroke-linejoin:miter;stroke-width:2;"/>
   </g>
   <g id="patch_4">
    <path clip-path="url(#p789ac08b09)" d="M 214.611548 47.992273 
C 215.786788 47.992273 216.914052 47.525345 217.745072 46.694324 
C 218.576093 45.863304 219.04302 44.73604 219.04302 43.5608 
C 219.04302 42.38556 218.576093 41.258296 217.745072 40.427276 
C 216.914052 39.596255 215.786788 39.129328 214.611548 39.129328 
C 213.436308 39.129328 212.309044 39.596255 211.478024 40.427276 
C 210.647003 41.258296 210.180075 42.38556 210.180075 43.5608 
C 210.180075 44.73604 210.647003 45.863304 211.478024 46.694324 
C 212.309044 47.525345 213.436308 47.992273 214.611548 47.992273 
z
" style="fill:#6fa4ff;stroke:#6fa4ff;stroke-linejoin:miter;stroke-width:1.5;"/>
   </g>
   <g id="patch_5">
    <path clip-path="url(#p789ac08b09)" d="M 214.611548 144.802903 
C 217.353775 144.802903 219.984057 143.713404 221.923105 141.774357 
C 223.862152 139.835309 224.95165 137.205027 224.95165 134.4628 
C 224.95165 131.720573 223.862152 129.090291 221.923105 127.151243 
C 219.984057 125.212196 217.353775 124.122698 214.611548 124.122698 
C 211.869321 124.122698 209.239039 125.212196 207.299991 127.151243 
C 205.360944 129.090291 204.271445 131.720573 204.271445 134.4628 
C 204.271445 137.205027 205.360944 139.835309 207.299991 141.774357 
C 209.239039 143.713404 211.869321 144.802903 214.611548 144.802903 
z
" style="fill:#6fa4ff;stroke:#6fa4ff;stroke-linejoin:miter;stroke-width:2;"/>
   </g>
   <g id="patch_6">
    <path clip-path="url(#p789ac08b09)" d="M 260.062548 93.443273 
C 261.237788 93.443273 262.365052 92.976345 263.196072 92.145324 
C 264.027093 91.314304 264.49402 90.18704 264.49402 89.0118 
C 264.49402 87.83656 264.027093 86.709296 263.196072 85.878276 
C 262.365052 85.047255 261.237788 84.580328 260.062548 84.580328 
C 258.887308 84.580328 257.760044 85.047255 256.929024 85.878276 
C 256.098003 86.709296 255.631075 87.83656 255.631075 89.0118 
C 255.631075 90.18704 256.098003 91.314304 256.929024 92.145324 
C 257.760044 92.976345 258.887308 93.443273 260.062548 93.443273 
z
" style="fill:#6fa4ff;stroke:#6fa4ff;stroke-linejoin:miter;stroke-width:1.5;"/>
   </g>
   <g id="patch_7">
    <path clip-path="url(#p789ac08b09)" d="M 260.062548 190.253902 
C 262.804775 190.253902 265.435057 189.164404 267.374105 187.225357 
C 269.313152 185.286309 270.40265 182.656027 270.40265 179.9138 
C 270.40265 177.171573 269.313152 174.541291 267.374105 172.602243 
C 265.435057 170.663196 262.804775 169.573697 260.062548 169.573697 
C 257.320321 169.573697 254.690039 170.663196 252.750991 172.602243 
C 250.811944 174.541291 249.722445 177.171573 249.722445 179.9138 
C 249.722445 182.656027 250.811944 185.286309 252.750991 187.225357 
C 254.690039 189.164404 257.320321 190.253902 260.062548 190.253902 
z
" style="fill:#6fa4ff;stroke:#6fa4ff;stroke-linejoin:miter;stroke-width:2;"/>
   </g>
   <g id="patch_8">
    <path clip-path="url(#p789ac08b09)" d="M 305.513548 47.992273 
C 306.688788 47.992273 307.816052 47.525345 308.647072 46.694324 
C 309.478093 45.863304 309.94502 44.73604 309.94502 43.5608 
C 309.94502 42.38556 309.478093 41.258296 308.647072 40.427276 
C 307.816052 39.596255 306.688788 39.129328 305.513548 39.129328 
C 304.338308 39.129328 303.211044 39.596255 302.380024 40.427276 
C 301.549003 41.258296 301.082075 42.38556 301.082075 43.5608 
C 301.082075 44.73604 301.549003 45.863304 302.380024 46.694324 
C 303.211044 47.525345 304.338308 47.992273 305.513548 47.992273 
z
" style="fill:#6fa4ff;stroke:#6fa4ff;stroke-linejoin:miter;stroke-width:1.5;"/>
   </g>
   <g id="patch_9">
    <path clip-path="url(#p789ac08b09)" d="M 305.513548 144.802903 
C 308.255775 144.802903 310.886057 143.713404 312.825105 141.774357 
C 314.764152 139.835309 315.85365 137.205027 315.85365 134.4628 
C 315.85365 131.720573 314.764152 129.090291 312.825105 127.151243 
C 310.886057 125.212196 308.255775 124.122698 305.513548 124.122698 
C 302.771321 124.122698 300.141039 125.212196 298.201991 127.151243 
C 296.262944 129.090291 295.173445 131.720573 295.173445 134.4628 
C 295.173445 137.205027 296.262944 139.835309 298.201991 141.774357 
C 300.141039 143.713404 302.771321 144.802903 305.513548 144.802903 
z
" style="fill:#6fa4ff;stroke:#6fa4ff;stroke-linejoin:miter;stroke-width:2;"/>
   </g>
   <g id="patch_10">
    <path clip-path="url(#p789ac08b09)" d="M 350.964548 47.992273 
C 352.139788 47.992273 353.267052 47.525345 354.098072 46.694324 
C 354.929093 45.863304 355.39602 44.73604 355.39602 43.5608 
C 355.39602 42.38556 354.929093 41.258296 354.098072 40.427276 
C 353.267052 39.596255 352.139788 39.129328 350.964548 39.129328 
C 349.789308 39.129328 348.662044 39.596255 347.831024 40.427276 
C 347.000003 41.258296 346.533075 42.38556 346.533075 43.5608 
C 346.533075 44.73604 347.000003 45.863304 347.831024 46.694324 
C 348.662044 47.525345 349.789308 47.992273 350.964548 47.992273 
z
" style="fill:#6fa4ff;stroke:#6fa4ff;stroke-linejoin:miter;stroke-width:1.5;"/>
   </g>
   <g id="patch_11">
    <path clip-path="url(#p789ac08b09)" d="M 350.964548 99.351903 
C 353.706775 99.351903 356.337057 98.262404 358.276105 96.323357 
C 360.215152 94.384309 361.30465 91.754027 361.30465 89.0118 
C 361.30465 86.269573 360.215152 83.639291 358.276105 81.700243 
C 356.337057 79.761196 353.706775 78.671698 350.964548 78.671698 
C 348.222321 78.671698 345.592039 79.761196 343.652991 81.700243 
C 341.713944 83.639291 340.624445 86.269573 340.624445 89.0118 
C 340.624445 91.754027 341.713944 94.384309 343.652991 96.323357 
C 345.592039 98.262404 348.222321 99.351903 350.964548 99.351903 
z
" style="fill:#6fa4ff;stroke:#6fa4ff;stroke-linejoin:miter;stroke-width:2;"/>
   </g>
   <g id="line2d_10">
    <path clip-path="url(#p789ac08b09)" d="M 169.160548 94.92043 
L 169.160548 83.10317 
" style="fill:none;stroke:#ffffff;stroke-linecap:square;stroke-width:2;"/>
   </g>
   <g id="line2d_11">
    <path clip-path="url(#p789ac08b09)" d="M 163.251918 89.0118 
L 175.069178 89.0118 
" style="fill:none;stroke:#ffffff;stroke-linecap:square;stroke-width:2;"/>
   </g>
   <g id="line2d_12">
    <path clip-path="url(#p789ac08b09)" d="M 214.611548 140.37143 
L 214.611548 128.55417 
" style="fill:none;stroke:#ffffff;stroke-linecap:square;stroke-width:2;"/>
   </g>
   <g id="line2d_13">
    <path clip-path="url(#p789ac08b09)" d="M 208.702918 134.4628 
L 220.520178 134.4628 
" style="fill:none;stroke:#ffffff;stroke-linecap:square;stroke-width:2;"/>
   </g>
   <g id="line2d_14">
    <path clip-path="url(#p789ac08b09)" d="M 260.062548 185.82243 
L 260.062548 174.00517 
" style="fill:none;stroke:#ffffff;stroke-linecap:square;stroke-width:2;"/>
   </g>
   <g id="line2d_15">
    <path clip-path="url(#p789ac08b09)" d="M 254.153918 179.9138 
L 265.971178 179.9138 
" style="fill:none;stroke:#ffffff;stroke-linecap:square;stroke-width:2;"/>
   </g>
   <g id="line2d_16">
    <path clip-path="url(#p789ac08b09)" d="M 305.513548 140.37143 
L 305.513548 128.55417 
" style="fill:none;stroke:#ffffff;stroke-linecap:square;stroke-width:2;"/>
   </g>
   <g id="line2d_17">
    <path clip-path="url(#p789ac08b09)" d="M 299.604918 134.4628 
L 311.422178 134.4628 
" style="fill:none;stroke:#ffffff;stroke-linecap:square;stroke-width:2;"/>
   </g>
   <g id="line2d_18">
    <path clip-path="url(#p789ac08b09)" d="M 350.964548 94.92043 
L 350.964548 83.10317 
" style="fill:none;stroke:#ffffff;stroke-linecap:square;stroke-width:2;"/>
   </g>
   <g id="line2d_19">
    <path clip-path="url(#p789ac08b09)" d="M 345.055918 89.0118 
L 356.873178 89.0118 
" style="fill:none;stroke:#ffffff;stroke-linecap:square;stroke-width:2;"/>
   </g>
   <g id="text_1">
    <g clip-path="url(#p789ac08b09)">
     <!-- ${input}_{0}$ -->
     <defs>
      <path d="M 18.3125 75.984375 
L 27.296875 75.984375 
L 25.09375 64.59375 
L 16.109375 64.59375 
z
M 14.203125 54.6875 
L 23.1875 54.6875 
L 12.5 0 
L 3.515625 0 
z
" id="DejaVuSans-Oblique-105"/>
      <path d="M 55.71875 33.015625 
L 49.3125 0 
L 40.28125 0 
L 46.6875 32.671875 
Q 47.125 34.96875 47.359375 36.71875 
Q 47.609375 38.484375 47.609375 39.5 
Q 47.609375 43.609375 45.015625 45.890625 
Q 42.4375 48.1875 37.796875 48.1875 
Q 30.5625 48.1875 25.34375 43.375 
Q 20.125 38.578125 18.5 30.328125 
L 12.5 0 
L 3.515625 0 
L 14.109375 54.6875 
L 23.09375 54.6875 
L 21.296875 46.09375 
Q 25.046875 50.828125 30.3125 53.40625 
Q 35.59375 56 41.40625 56 
Q 48.640625 56 52.609375 52.09375 
Q 56.59375 48.1875 56.59375 41.109375 
Q 56.59375 39.359375 56.375 37.359375 
Q 56.15625 35.359375 55.71875 33.015625 
z
" id="DejaVuSans-Oblique-110"/>
      <path d="M 49.609375 33.6875 
Q 49.609375 40.875 46.484375 44.671875 
Q 43.359375 48.484375 37.5 48.484375 
Q 33.5 48.484375 29.859375 46.4375 
Q 26.21875 44.390625 23.390625 40.484375 
Q 20.609375 36.625 18.9375 31.15625 
Q 17.28125 25.6875 17.28125 20.3125 
Q 17.28125 13.484375 20.40625 9.796875 
Q 23.53125 6.109375 29.296875 6.109375 
Q 33.546875 6.109375 37.1875 8.109375 
Q 40.828125 10.109375 43.40625 13.921875 
Q 46.1875 17.921875 47.890625 23.34375 
Q 49.609375 28.765625 49.609375 33.6875 
z
M 21.78125 46.390625 
Q 25.390625 51.125 30.296875 53.5625 
Q 35.203125 56 41.21875 56 
Q 49.609375 56 54.25 50.5 
Q 58.890625 45.015625 58.890625 35.109375 
Q 58.890625 27 56 19.65625 
Q 53.125 12.3125 47.703125 6.5 
Q 44.09375 2.640625 39.546875 0.609375 
Q 35.015625 -1.421875 29.984375 -1.421875 
Q 24.171875 -1.421875 20.21875 1 
Q 16.265625 3.421875 14.3125 8.203125 
L 8.6875 -20.796875 
L -0.296875 -20.796875 
L 14.40625 54.6875 
L 23.390625 54.6875 
z
" id="DejaVuSans-Oblique-112"/>
      <path d="M 6.6875 21.6875 
L 13.09375 54.6875 
L 22.125 54.6875 
L 15.71875 22.015625 
Q 15.234375 19.625 15.015625 17.921875 
Q 14.796875 16.21875 14.796875 15.09375 
Q 14.796875 10.9375 17.328125 8.65625 
Q 19.875 6.390625 24.515625 6.390625 
Q 31.734375 6.390625 37 11.265625 
Q 42.28125 16.15625 43.890625 24.421875 
L 49.90625 54.6875 
L 58.890625 54.6875 
L 48.296875 0 
L 39.3125 0 
L 41.109375 8.59375 
Q 37.3125 3.8125 32.0625 1.1875 
Q 26.8125 -1.421875 20.90625 -1.421875 
Q 13.71875 -1.421875 9.71875 2.515625 
Q 5.71875 6.453125 5.71875 13.484375 
Q 5.71875 14.9375 5.953125 17.140625 
Q 6.203125 19.34375 6.6875 21.6875 
z
" id="DejaVuSans-Oblique-117"/>
      <path d="M 42.28125 54.6875 
L 40.921875 47.703125 
L 23 47.703125 
L 17.1875 18.015625 
Q 16.890625 16.359375 16.75 15.234375 
Q 16.609375 14.109375 16.609375 13.484375 
Q 16.609375 10.359375 18.484375 8.9375 
Q 20.359375 7.515625 24.515625 7.515625 
L 33.59375 7.515625 
L 32.078125 0 
L 23.484375 0 
Q 15.484375 0 11.546875 3.125 
Q 7.625 6.25 7.625 12.59375 
Q 7.625 13.71875 7.765625 15.0625 
Q 7.90625 16.40625 8.203125 18.015625 
L 14.015625 47.703125 
L 6.390625 47.703125 
L 7.8125 54.6875 
L 15.28125 54.6875 
L 18.3125 70.21875 
L 27.296875 70.21875 
L 24.3125 54.6875 
z
" id="DejaVuSans-Oblique-116"/>
      <path d="M 31.78125 66.40625 
Q 24.171875 66.40625 20.328125 58.90625 
Q 16.5 51.421875 16.5 36.375 
Q 16.5 21.390625 20.328125 13.890625 
Q 24.171875 6.390625 31.78125 6.390625 
Q 39.453125 6.390625 43.28125 13.890625 
Q 47.125 21.390625 47.125 36.375 
Q 47.125 51.421875 43.28125 58.90625 
Q 39.453125 66.40625 31.78125 66.40625 
z
M 31.78125 74.21875 
Q 44.046875 74.21875 50.515625 64.515625 
Q 56.984375 54.828125 56.984375 36.375 
Q 56.984375 17.96875 50.515625 8.265625 
Q 44.046875 -1.421875 31.78125 -1.421875 
Q 19.53125 -1.421875 13.0625 8.265625 
Q 6.59375 17.96875 6.59375 36.375 
Q 6.59375 54.828125 13.0625 64.515625 
Q 19.53125 74.21875 31.78125 74.21875 
z
" id="DejaVuSans-48"/>
     </defs>
     <g transform="translate(85.964308 48.02955)scale(0.1625 -0.1625)">
      <use transform="translate(0 0.015625)" xlink:href="#DejaVuSans-Oblique-105"/>
      <use transform="translate(27.783203 0.015625)" xlink:href="#DejaVuSans-Oblique-110"/>
      <use transform="translate(91.162109 0.015625)" xlink:href="#DejaVuSans-Oblique-112"/>
      <use transform="translate(154.638672 0.015625)" xlink:href="#DejaVuSans-Oblique-117"/>
      <use transform="translate(218.017578 0.015625)" xlink:href="#DejaVuSans-Oblique-116"/>
      <use transform="translate(257.226562 -16.390625)scale(0.7)" xlink:href="#DejaVuSans-48"/>
     </g>
    </g>
   </g>
   <g id="text_2">
    <g clip-path="url(#p789ac08b09)">
     <!-- ${output}_{0}$ -->
     <defs>
      <path d="M 25.390625 -1.421875 
Q 15.765625 -1.421875 10.171875 4.515625 
Q 4.59375 10.453125 4.59375 20.703125 
Q 4.59375 26.65625 6.515625 32.828125 
Q 8.453125 39.015625 11.53125 43.21875 
Q 16.359375 49.75 22.3125 52.875 
Q 28.265625 56 35.796875 56 
Q 45.125 56 50.859375 50.1875 
Q 56.59375 44.390625 56.59375 35.015625 
Q 56.59375 28.515625 54.6875 22.0625 
Q 52.78125 15.625 49.703125 11.375 
Q 44.921875 4.828125 38.96875 1.703125 
Q 33.015625 -1.421875 25.390625 -1.421875 
z
M 13.921875 21 
Q 13.921875 13.578125 17.015625 9.890625 
Q 20.125 6.203125 26.421875 6.203125 
Q 35.453125 6.203125 41.375 14.078125 
Q 47.3125 21.96875 47.3125 34.078125 
Q 47.3125 41.15625 44.140625 44.765625 
Q 40.96875 48.390625 34.8125 48.390625 
Q 29.734375 48.390625 25.78125 46.015625 
Q 21.828125 43.65625 18.703125 38.8125 
Q 16.40625 35.203125 15.15625 30.5625 
Q 13.921875 25.921875 13.921875 21 
z
" id="DejaVuSans-Oblique-111"/>
     </defs>
     <g transform="translate(74.101808 93.462777)scale(0.1625 -0.1625)">
      <use transform="translate(0 0.78125)" xlink:href="#DejaVuSans-Oblique-111"/>
      <use transform="translate(61.181641 0.78125)" xlink:href="#DejaVuSans-Oblique-117"/>
      <use transform="translate(124.560547 0.78125)" xlink:href="#DejaVuSans-Oblique-116"/>
      <use transform="translate(163.769531 0.78125)" xlink:href="#DejaVuSans-Oblique-112"/>
      <use transform="translate(227.246094 0.78125)" xlink:href="#DejaVuSans-Oblique-117"/>
      <use transform="translate(290.625 0.78125)" xlink:href="#DejaVuSans-Oblique-116"/>
      <use transform="translate(329.833984 -15.625)scale(0.7)" xlink:href="#DejaVuSans-48"/>
     </g>
    </g>
   </g>
   <g id="text_3">
    <g clip-path="url(#p789ac08b09)">
     <!-- ${garbage}_{0}$ -->
     <defs>
      <path d="M 59.625 54.6875 
L 50.296875 6.78125 
Q 47.609375 -7.125 40.015625 -13.953125 
Q 32.421875 -20.796875 19.578125 -20.796875 
Q 14.84375 -20.796875 10.78125 -20.09375 
Q 6.734375 -19.390625 3.21875 -17.921875 
L 4.890625 -9.1875 
Q 8.203125 -11.328125 11.90625 -12.34375 
Q 15.625 -13.375 19.828125 -13.375 
Q 28.375 -13.375 33.859375 -8.703125 
Q 39.359375 -4.046875 41.109375 4.6875 
L 41.890625 8.796875 
Q 38.140625 4.5 33.15625 2.25 
Q 28.171875 0 22.40625 0 
Q 14.109375 0 9.34375 5.484375 
Q 4.59375 10.984375 4.59375 20.609375 
Q 4.59375 28.171875 7.46875 35.421875 
Q 10.359375 42.671875 15.578125 48.296875 
Q 19.046875 52 23.65625 54 
Q 28.265625 56 33.296875 56 
Q 38.8125 56 42.90625 53.4375 
Q 47.015625 50.875 49.03125 46.1875 
L 50.59375 54.6875 
z
M 46.09375 34.625 
Q 46.09375 41.265625 42.96875 44.875 
Q 39.84375 48.484375 34.078125 48.484375 
Q 30.515625 48.484375 27.296875 47.0625 
Q 24.078125 45.65625 21.78125 43.109375 
Q 18.0625 38.921875 15.984375 33.234375 
Q 13.921875 27.546875 13.921875 21.484375 
Q 13.921875 14.75 17.0625 11.125 
Q 20.21875 7.515625 26.125 7.515625 
Q 34.671875 7.515625 40.375 15.25 
Q 46.09375 23 46.09375 34.625 
z
" id="DejaVuSans-Oblique-103"/>
      <path d="M 53.71875 31.203125 
L 47.609375 0 
L 38.625 0 
L 40.28125 8.296875 
Q 36.328125 3.421875 31.265625 1 
Q 26.21875 -1.421875 20.015625 -1.421875 
Q 13.03125 -1.421875 8.5625 2.84375 
Q 4.109375 7.125 4.109375 13.8125 
Q 4.109375 23.390625 11.75 28.953125 
Q 19.390625 34.515625 32.8125 34.515625 
L 45.3125 34.515625 
L 45.796875 36.921875 
Q 45.90625 37.3125 45.953125 37.765625 
Q 46 38.234375 46 39.203125 
Q 46 43.5625 42.453125 45.96875 
Q 38.921875 48.390625 32.515625 48.390625 
Q 28.125 48.390625 23.5 47.265625 
Q 18.890625 46.140625 14.015625 43.890625 
L 15.578125 52.203125 
Q 20.65625 54.109375 25.515625 55.046875 
Q 30.375 56 34.90625 56 
Q 44.578125 56 49.625 51.796875 
Q 54.6875 47.609375 54.6875 39.59375 
Q 54.6875 37.984375 54.4375 35.8125 
Q 54.203125 33.640625 53.71875 31.203125 
z
M 44 27.484375 
L 35.015625 27.484375 
Q 23.96875 27.484375 18.671875 24.53125 
Q 13.375 21.578125 13.375 15.375 
Q 13.375 11.078125 16.078125 8.640625 
Q 18.796875 6.203125 23.578125 6.203125 
Q 30.90625 6.203125 36.375 11.453125 
Q 41.84375 16.703125 43.609375 25.484375 
z
" id="DejaVuSans-Oblique-97"/>
      <path d="M 44.578125 46.390625 
Q 43.21875 47.125 41.453125 47.515625 
Q 39.703125 47.90625 37.703125 47.90625 
Q 30.515625 47.90625 25.140625 42.453125 
Q 19.78125 37.015625 18.015625 27.875 
L 12.5 0 
L 3.515625 0 
L 14.203125 54.6875 
L 23.1875 54.6875 
L 21.484375 46.1875 
Q 25.046875 50.921875 30 53.453125 
Q 34.96875 56 40.578125 56 
Q 42.046875 56 43.453125 55.828125 
Q 44.875 55.671875 46.296875 55.28125 
z
" id="DejaVuSans-Oblique-114"/>
      <path d="M 49.515625 33.40625 
Q 49.515625 40.484375 46.265625 44.484375 
Q 43.015625 48.484375 37.3125 48.484375 
Q 33.15625 48.484375 29.515625 46.453125 
Q 25.875 44.4375 23.1875 40.578125 
Q 20.359375 36.53125 18.71875 31.171875 
Q 17.09375 25.828125 17.09375 20.515625 
Q 17.09375 13.765625 20.28125 9.9375 
Q 23.484375 6.109375 29.109375 6.109375 
Q 33.34375 6.109375 36.953125 8.078125 
Q 40.578125 10.0625 43.3125 13.921875 
Q 46.09375 17.921875 47.796875 23.234375 
Q 49.515625 28.5625 49.515625 33.40625 
z
M 21.578125 46.390625 
Q 24.90625 50.875 29.90625 53.4375 
Q 34.90625 56 40.375 56 
Q 48.78125 56 53.734375 50.328125 
Q 58.6875 44.671875 58.6875 35.015625 
Q 58.6875 27.09375 55.78125 19.671875 
Q 52.875 12.25 47.515625 6.5 
Q 44 2.6875 39.40625 0.625 
Q 34.8125 -1.421875 29.78125 -1.421875 
Q 24.46875 -1.421875 20.5625 1.015625 
Q 16.65625 3.46875 14.203125 8.296875 
L 12.59375 0 
L 3.609375 0 
L 18.40625 75.984375 
L 27.390625 75.984375 
z
" id="DejaVuSans-Oblique-98"/>
      <path d="M 48.09375 32.234375 
Q 48.25 33.015625 48.3125 33.84375 
Q 48.390625 34.671875 48.390625 35.5 
Q 48.390625 41.453125 44.890625 44.921875 
Q 41.40625 48.390625 35.40625 48.390625 
Q 28.71875 48.390625 23.578125 44.15625 
Q 18.453125 39.9375 15.828125 32.171875 
z
M 55.90625 25.203125 
L 14.109375 25.203125 
Q 13.8125 23.34375 13.71875 22.265625 
Q 13.625 21.1875 13.625 20.40625 
Q 13.625 13.625 17.796875 9.90625 
Q 21.96875 6.203125 29.59375 6.203125 
Q 35.453125 6.203125 40.671875 7.515625 
Q 45.90625 8.84375 50.390625 11.375 
L 48.6875 2.484375 
Q 43.84375 0.53125 38.6875 -0.4375 
Q 33.546875 -1.421875 28.21875 -1.421875 
Q 16.84375 -1.421875 10.71875 4.015625 
Q 4.59375 9.46875 4.59375 19.484375 
Q 4.59375 28.03125 7.640625 35.375 
Q 10.6875 42.71875 16.609375 48.484375 
Q 20.40625 52.09375 25.65625 54.046875 
Q 30.90625 56 36.8125 56 
Q 46.09375 56 51.578125 50.4375 
Q 57.078125 44.875 57.078125 35.5 
Q 57.078125 33.25 56.78125 30.6875 
Q 56.5 28.125 55.90625 25.203125 
z
" id="DejaVuSans-Oblique-101"/>
     </defs>
     <g transform="translate(60.289308 138.93155)scale(0.1625 -0.1625)">
      <use transform="translate(0 0.015625)" xlink:href="#DejaVuSans-Oblique-103"/>
      <use transform="translate(63.476562 0.015625)" xlink:href="#DejaVuSans-Oblique-97"/>
      <use transform="translate(124.755859 0.015625)" xlink:href="#DejaVuSans-Oblique-114"/>
      <use transform="translate(165.869141 0.015625)" xlink:href="#DejaVuSans-Oblique-98"/>
      <use transform="translate(229.345703 0.015625)" xlink:href="#DejaVuSans-Oblique-97"/>
      <use transform="translate(290.625 0.015625)" xlink:href="#DejaVuSans-Oblique-103"/>
      <use transform="translate(354.101562 0.015625)" xlink:href="#DejaVuSans-Oblique-101"/>
      <use transform="translate(415.625 -16.390625)scale(0.7)" xlink:href="#DejaVuSans-48"/>
     </g>
    </g>
   </g>
   <g id="text_4">
    <g clip-path="url(#p789ac08b09)">
     <!-- ${final-output}_{0}$ -->
     <defs>
      <path d="M 47.796875 75.984375 
L 46.390625 68.5 
L 37.796875 68.5 
Q 32.90625 68.5 30.6875 66.578125 
Q 28.46875 64.65625 27.390625 59.515625 
L 26.421875 54.6875 
L 41.21875 54.6875 
L 39.890625 47.703125 
L 25.09375 47.703125 
L 15.828125 0 
L 6.78125 0 
L 16.109375 47.703125 
L 7.515625 47.703125 
L 8.796875 54.6875 
L 17.390625 54.6875 
L 18.109375 58.5 
Q 19.96875 68.171875 24.625 72.078125 
Q 29.296875 75.984375 39.3125 75.984375 
z
" id="DejaVuSans-Oblique-102"/>
      <path d="M 18.3125 75.984375 
L 27.296875 75.984375 
L 12.5 0 
L 3.515625 0 
z
" id="DejaVuSans-Oblique-108"/>
      <path d="M 10.59375 35.5 
L 73.1875 35.5 
L 73.1875 27.203125 
L 10.59375 27.203125 
z
" id="DejaVuSans-8722"/>
     </defs>
     <g transform="translate(19.176808 184.38255)scale(0.1625 -0.1625)">
      <use transform="translate(0 0.015625)" xlink:href="#DejaVuSans-Oblique-102"/>
      <use transform="translate(35.205078 0.015625)" xlink:href="#DejaVuSans-Oblique-105"/>
      <use transform="translate(62.988281 0.015625)" xlink:href="#DejaVuSans-Oblique-110"/>
      <use transform="translate(126.367188 0.015625)" xlink:href="#DejaVuSans-Oblique-97"/>
      <use transform="translate(187.646484 0.015625)" xlink:href="#DejaVuSans-Oblique-108"/>
      <use transform="translate(234.912109 0.015625)" xlink:href="#DejaVuSans-8722"/>
      <use transform="translate(338.183594 0.015625)" xlink:href="#DejaVuSans-Oblique-111"/>
      <use transform="translate(399.365234 0.015625)" xlink:href="#DejaVuSans-Oblique-117"/>
      <use transform="translate(462.744141 0.015625)" xlink:href="#DejaVuSans-Oblique-116"/>
      <use transform="translate(501.953125 0.015625)" xlink:href="#DejaVuSans-Oblique-112"/>
      <use transform="translate(565.429688 0.015625)" xlink:href="#DejaVuSans-Oblique-117"/>
      <use transform="translate(628.808594 0.015625)" xlink:href="#DejaVuSans-Oblique-116"/>
      <use transform="translate(668.017578 -16.390625)scale(0.7)" xlink:href="#DejaVuSans-48"/>
     </g>
    </g>
   </g>
  </g>
 </g>
 <defs>
  <clipPath id="p789ac08b09">
   <rect height="199.9844" width="373.762208" x="7.2" y="7.2"/>
  </clipPath>
 </defs>
</svg>
