<?xml version="1.0" encoding="utf-8" standalone="no"?>
<!DOCTYPE svg PUBLIC "-//W3C//DTD SVG 1.1//EN"
  "http://www.w3.org/Graphics/SVG/1.1/DTD/svg11.dtd">
<!-- Created with matplotlib (https://matplotlib.org/) -->
<svg height="350.7374pt" version="1.1" viewBox="0 0 596.863655 350.7374" width="596.863655pt" xmlns="http://www.w3.org/2000/svg" xmlns:xlink="http://www.w3.org/1999/xlink">
 <defs>
  <style type="text/css">
*{stroke-linecap:butt;stroke-linejoin:round;}
  </style>
 </defs>
 <g id="figure_1">
  <g id="patch_1">
   <path d="M 0 350.7374 
L 596.863655 350.7374 
L 596.863655 0 
L 0 0 
z
" style="fill:#ffffff;"/>
  </g>
  <g id="axes_1">
   <g id="patch_2">
    <path clip-path="url(#pb9f3259e09)" d="M 371.953365 305.926697 
L 383.770625 305.926697 
L 377.861995 314.44876 
z
" style="fill:#778899;"/>
   </g>
   <g id="patch_3">
    <path clip-path="url(#pb9f3259e09)" d="M 417.404365 260.475697 
L 429.221625 260.475697 
L 423.312995 268.99776 
z
" style="fill:#778899;"/>
   </g>
   <g id="patch_4">
    <path clip-path="url(#pb9f3259e09)" d="M 462.855365 260.475697 
L 474.672625 260.475697 
L 468.763995 268.99776 
z
" style="fill:#778899;"/>
   </g>
   <g id="patch_5">
    <path clip-path="url(#pb9f3259e09)" d="M 508.306365 305.926697 
L 520.123625 305.926697 
L 514.214995 314.44876 
z
" style="fill:#778899;"/>
   </g>
   <g id="patch_6">
    <path clip-path="url(#pb9f3259e09)" d="M 553.757365 305.926697 
L 565.574625 305.926697 
L 559.665995 314.44876 
z
" style="fill:#778899;"/>
   </g>
   <g id="line2d_1">
    <path clip-path="url(#pb9f3259e09)" d="M 171.514455 43.5608 
L 585.118555 43.5608 
" style="fill:none;stroke:#000000;stroke-linecap:square;stroke-width:2;"/>
   </g>
   <g id="line2d_2">
    <path clip-path="url(#pb9f3259e09)" d="M 171.514455 89.0118 
L 585.118555 89.0118 
" style="fill:none;stroke:#000000;stroke-linecap:square;stroke-width:2;"/>
   </g>
   <g id="line2d_3">
    <path clip-path="url(#pb9f3259e09)" d="M 171.514455 134.4628 
L 585.118555 134.4628 
" style="fill:none;stroke:#000000;stroke-linecap:square;stroke-width:2;"/>
   </g>
   <g id="line2d_4">
    <path clip-path="url(#pb9f3259e09)" d="M 171.514455 179.9138 
L 585.118555 179.9138 
" style="fill:none;stroke:#000000;stroke-linecap:square;stroke-width:2;"/>
   </g>
   <g id="line2d_5">
    <path clip-path="url(#pb9f3259e09)" d="M 171.514455 225.3648 
L 585.118555 225.3648 
" style="fill:none;stroke:#000000;stroke-linecap:square;stroke-width:2;"/>
   </g>
   <g id="line2d_6">
    <path clip-path="url(#pb9f3259e09)" d="M 171.514455 269.338642 
L 585.118555 269.338642 
" style="fill:none;stroke:#778899;stroke-linecap:square;stroke-width:2;"/>
   </g>
   <g id="line2d_7">
    <path clip-path="url(#pb9f3259e09)" d="M 171.514455 272.292957 
L 585.118555 272.292957 
" style="fill:none;stroke:#778899;stroke-linecap:square;stroke-width:2;"/>
   </g>
   <g id="line2d_8">
    <path clip-path="url(#pb9f3259e09)" d="M 171.514455 314.789642 
L 585.118555 314.789642 
" style="fill:none;stroke:#778899;stroke-linecap:square;stroke-width:2;"/>
   </g>
   <g id="line2d_9">
    <path clip-path="url(#pb9f3259e09)" d="M 171.514455 317.743957 
L 585.118555 317.743957 
" style="fill:none;stroke:#778899;stroke-linecap:square;stroke-width:2;"/>
   </g>
   <g id="line2d_10">
    <path clip-path="url(#pb9f3259e09)" d="M 196.057995 134.4628 
L 196.057995 43.5608 
" style="fill:none;stroke:#6fa4ff;stroke-linecap:square;stroke-width:2;"/>
   </g>
   <g id="line2d_11">
    <path clip-path="url(#pb9f3259e09)" d="M 241.508995 179.9138 
L 241.508995 89.0118 
" style="fill:none;stroke:#6fa4ff;stroke-linecap:square;stroke-width:2;"/>
   </g>
   <g id="line2d_12">
    <path clip-path="url(#pb9f3259e09)" d="M 286.959995 179.9138 
L 286.959995 43.5608 
" style="fill:none;stroke:#6fa4ff;stroke-linecap:square;stroke-width:2;"/>
   </g>
   <g id="line2d_13">
    <path clip-path="url(#pb9f3259e09)" d="M 332.410995 225.3648 
L 332.410995 89.0118 
" style="fill:none;stroke:#6fa4ff;stroke-linecap:square;stroke-width:2;"/>
   </g>
   <g id="line2d_14">
    <path clip-path="url(#pb9f3259e09)" d="M 379.339153 134.4628 
L 379.339153 305.926697 
" style="fill:none;stroke:#778899;stroke-linecap:square;stroke-width:2;"/>
   </g>
   <g id="line2d_15">
    <path clip-path="url(#pb9f3259e09)" d="M 376.384838 134.4628 
L 376.384838 305.926697 
" style="fill:none;stroke:#778899;stroke-linecap:square;stroke-width:2;"/>
   </g>
   <g id="line2d_16">
    <path clip-path="url(#pb9f3259e09)" d="M 424.790153 43.5608 
L 424.790153 260.475697 
" style="fill:none;stroke:#778899;stroke-linecap:square;stroke-width:2;"/>
   </g>
   <g id="line2d_17">
    <path clip-path="url(#pb9f3259e09)" d="M 421.835838 43.5608 
L 421.835838 260.475697 
" style="fill:none;stroke:#778899;stroke-linecap:square;stroke-width:2;"/>
   </g>
   <g id="line2d_18">
    <path clip-path="url(#pb9f3259e09)" d="M 470.241153 89.0118 
L 470.241153 260.475697 
" style="fill:none;stroke:#778899;stroke-linecap:square;stroke-width:2;"/>
   </g>
   <g id="line2d_19">
    <path clip-path="url(#pb9f3259e09)" d="M 467.286838 89.0118 
L 467.286838 260.475697 
" style="fill:none;stroke:#778899;stroke-linecap:square;stroke-width:2;"/>
   </g>
   <g id="line2d_20">
    <path clip-path="url(#pb9f3259e09)" d="M 515.692153 179.9138 
L 515.692153 305.926697 
" style="fill:none;stroke:#778899;stroke-linecap:square;stroke-width:2;"/>
   </g>
   <g id="line2d_21">
    <path clip-path="url(#pb9f3259e09)" d="M 512.737838 179.9138 
L 512.737838 305.926697 
" style="fill:none;stroke:#778899;stroke-linecap:square;stroke-width:2;"/>
   </g>
   <g id="line2d_22">
    <path clip-path="url(#pb9f3259e09)" d="M 561.143153 225.3648 
L 561.143153 305.926697 
" style="fill:none;stroke:#778899;stroke-linecap:square;stroke-width:2;"/>
   </g>
   <g id="line2d_23">
    <path clip-path="url(#pb9f3259e09)" d="M 558.188838 225.3648 
L 558.188838 305.926697 
" style="fill:none;stroke:#778899;stroke-linecap:square;stroke-width:2;"/>
   </g>
   <g id="line2d_24">
    <path clip-path="url(#pb9f3259e09)" d="M 180.604655 275.3609 
L 185.149755 266.2707 
" style="fill:none;stroke:#778899;stroke-linecap:square;stroke-width:1.5;"/>
   </g>
   <g id="line2d_25">
    <path clip-path="url(#pb9f3259e09)" d="M 180.604655 320.8119 
L 185.149755 311.7217 
" style="fill:none;stroke:#778899;stroke-linecap:square;stroke-width:1.5;"/>
   </g>
   <g id="patch_7">
    <path clip-path="url(#pb9f3259e09)" d="M 196.057995 138.894272 
C 197.233235 138.894272 198.360499 138.427345 199.191519 137.596324 
C 200.02254 136.765304 200.489468 135.63804 200.489468 134.4628 
C 200.489468 133.28756 200.02254 132.160296 199.191519 131.329276 
C 198.360499 130.498255 197.233235 130.031327 196.057995 130.031327 
C 194.882755 130.031327 193.755491 130.498255 192.924471 131.329276 
C 192.093451 132.160296 191.626523 133.28756 191.626523 134.4628 
C 191.626523 135.63804 192.093451 136.765304 192.924471 137.596324 
C 193.755491 138.427345 194.882755 138.894272 196.057995 138.894272 
z
" style="fill:#6fa4ff;stroke:#6fa4ff;stroke-linejoin:miter;stroke-width:1.5;"/>
   </g>
   <g id="patch_8">
    <path clip-path="url(#pb9f3259e09)" d="M 196.057995 53.900902 
C 198.800222 53.900902 201.430504 52.811404 203.369552 50.872357 
C 205.308599 48.933309 206.398098 46.303027 206.398098 43.5608 
C 206.398098 40.818573 205.308599 38.188291 203.369552 36.249243 
C 201.430504 34.310196 198.800222 33.220697 196.057995 33.220697 
C 193.315768 33.220697 190.685486 34.310196 188.746439 36.249243 
C 186.807391 38.188291 185.717893 40.818573 185.717893 43.5608 
C 185.717893 46.303027 186.807391 48.933309 188.746439 50.872357 
C 190.685486 52.811404 193.315768 53.900902 196.057995 53.900902 
z
" style="fill:#6fa4ff;stroke:#6fa4ff;stroke-linejoin:miter;stroke-width:2;"/>
   </g>
   <g id="patch_9">
    <path clip-path="url(#pb9f3259e09)" d="M 241.508995 184.345272 
C 242.684235 184.345272 243.811499 183.878345 244.642519 183.047324 
C 245.47354 182.216304 245.940468 181.08904 245.940468 179.9138 
C 245.940468 178.73856 245.47354 177.611296 244.642519 176.780276 
C 243.811499 175.949255 242.684235 175.482327 241.508995 175.482327 
C 240.333755 175.482327 239.206491 175.949255 238.375471 176.780276 
C 237.544451 177.611296 237.077523 178.73856 237.077523 179.9138 
C 237.077523 181.08904 237.544451 182.216304 238.375471 183.047324 
C 239.206491 183.878345 240.333755 184.345272 241.508995 184.345272 
z
" style="fill:#6fa4ff;stroke:#6fa4ff;stroke-linejoin:miter;stroke-width:1.5;"/>
   </g>
   <g id="patch_10">
    <path clip-path="url(#pb9f3259e09)" d="M 241.508995 99.351902 
C 244.251222 99.351902 246.881504 98.262404 248.820552 96.323357 
C 250.759599 94.384309 251.849098 91.754027 251.849098 89.0118 
C 251.849098 86.269573 250.759599 83.639291 248.820552 81.700243 
C 246.881504 79.761196 244.251222 78.671697 241.508995 78.671697 
C 238.766768 78.671697 236.136486 79.761196 234.197439 81.700243 
C 232.258391 83.639291 231.168893 86.269573 231.168893 89.0118 
C 231.168893 91.754027 232.258391 94.384309 234.197439 96.323357 
C 236.136486 98.262404 238.766768 99.351902 241.508995 99.351902 
z
" style="fill:#6fa4ff;stroke:#6fa4ff;stroke-linejoin:miter;stroke-width:2;"/>
   </g>
   <g id="patch_11">
    <path clip-path="url(#pb9f3259e09)" d="M 286.959995 184.345272 
C 288.135235 184.345272 289.262499 183.878345 290.093519 183.047324 
C 290.92454 182.216304 291.391468 181.08904 291.391468 179.9138 
C 291.391468 178.73856 290.92454 177.611296 290.093519 176.780276 
C 289.262499 175.949255 288.135235 175.482327 286.959995 175.482327 
C 285.784755 175.482327 284.657491 175.949255 283.826471 176.780276 
C 282.995451 177.611296 282.528523 178.73856 282.528523 179.9138 
C 282.528523 181.08904 282.995451 182.216304 283.826471 183.047324 
C 284.657491 183.878345 285.784755 184.345272 286.959995 184.345272 
z
" style="fill:#6fa4ff;stroke:#6fa4ff;stroke-linejoin:miter;stroke-width:1.5;"/>
   </g>
   <g id="patch_12">
    <path clip-path="url(#pb9f3259e09)" d="M 286.959995 53.900902 
C 289.702222 53.900902 292.332504 52.811404 294.271552 50.872357 
C 296.210599 48.933309 297.300098 46.303027 297.300098 43.5608 
C 297.300098 40.818573 296.210599 38.188291 294.271552 36.249243 
C 292.332504 34.310196 289.702222 33.220697 286.959995 33.220697 
C 284.217768 33.220697 281.587486 34.310196 279.648439 36.249243 
C 277.709391 38.188291 276.619893 40.818573 276.619893 43.5608 
C 276.619893 46.303027 277.709391 48.933309 279.648439 50.872357 
C 281.587486 52.811404 284.217768 53.900902 286.959995 53.900902 
z
" style="fill:#6fa4ff;stroke:#6fa4ff;stroke-linejoin:miter;stroke-width:2;"/>
   </g>
   <g id="patch_13">
    <path clip-path="url(#pb9f3259e09)" d="M 332.410995 229.796272 
C 333.586235 229.796272 334.713499 229.329345 335.544519 228.498324 
C 336.37554 227.667304 336.842468 226.54004 336.842468 225.3648 
C 336.842468 224.18956 336.37554 223.062296 335.544519 222.231276 
C 334.713499 221.400255 333.586235 220.933327 332.410995 220.933327 
C 331.235755 220.933327 330.108491 221.400255 329.277471 222.231276 
C 328.446451 223.062296 327.979523 224.18956 327.979523 225.3648 
C 327.979523 226.54004 328.446451 227.667304 329.277471 228.498324 
C 330.108491 229.329345 331.235755 229.796272 332.410995 229.796272 
z
" style="fill:#6fa4ff;stroke:#6fa4ff;stroke-linejoin:miter;stroke-width:1.5;"/>
   </g>
   <g id="patch_14">
    <path clip-path="url(#pb9f3259e09)" d="M 332.410995 99.351902 
C 335.153222 99.351902 337.783504 98.262404 339.722552 96.323357 
C 341.661599 94.384309 342.751098 91.754027 342.751098 89.0118 
C 342.751098 86.269573 341.661599 83.639291 339.722552 81.700243 
C 337.783504 79.761196 335.153222 78.671697 332.410995 78.671697 
C 329.668768 78.671697 327.038486 79.761196 325.099439 81.700243 
C 323.160391 83.639291 322.070893 86.269573 322.070893 89.0118 
C 322.070893 91.754027 323.160391 94.384309 325.099439 96.323357 
C 327.038486 98.262404 329.668768 99.351902 332.410995 99.351902 
z
" style="fill:#6fa4ff;stroke:#6fa4ff;stroke-linejoin:miter;stroke-width:2;"/>
   </g>
   <g id="patch_15">
    <path clip-path="url(#pb9f3259e09)" d="M 363.09042 149.234375 
L 392.63357 149.234375 
L 392.63357 119.691225 
L 363.09042 119.691225 
z
" style="stroke:#000000;stroke-linejoin:miter;stroke-width:1.5;"/>
   </g>
   <g id="patch_16">
    <path clip-path="url(#pb9f3259e09)" d="M 388.202098 138.894272 
C 388.202098 136.152959 387.111953 133.521118 385.173552 131.582716 
C 383.23515 129.644314 380.603309 128.55417 377.861995 128.55417 
C 375.120681 128.55417 372.48884 129.644314 370.550439 131.582716 
C 368.612037 133.521118 367.521893 136.152959 367.521893 138.894272 
" style="fill:none;stroke:#ffffff;stroke-linejoin:miter;stroke-width:2;"/>
   </g>
   <g id="patch_17">
    <path clip-path="url(#pb9f3259e09)" d="M 408.54142 58.332375 
L 438.08457 58.332375 
L 438.08457 28.789225 
L 408.54142 28.789225 
z
" style="stroke:#000000;stroke-linejoin:miter;stroke-width:1.5;"/>
   </g>
   <g id="patch_18">
    <path clip-path="url(#pb9f3259e09)" d="M 433.653098 47.992272 
C 433.653098 45.250959 432.562953 42.619118 430.624552 40.680716 
C 428.68615 38.742314 426.054309 37.65217 423.312995 37.65217 
C 420.571681 37.65217 417.93984 38.742314 416.001439 40.680716 
C 414.063037 42.619118 412.972893 45.250959 412.972893 47.992272 
" style="fill:none;stroke:#ffffff;stroke-linejoin:miter;stroke-width:2;"/>
   </g>
   <g id="patch_19">
    <path clip-path="url(#pb9f3259e09)" d="M 453.99242 103.783375 
L 483.53557 103.783375 
L 483.53557 74.240225 
L 453.99242 74.240225 
z
" style="stroke:#000000;stroke-linejoin:miter;stroke-width:1.5;"/>
   </g>
   <g id="patch_20">
    <path clip-path="url(#pb9f3259e09)" d="M 479.104098 93.443272 
C 479.104098 90.701959 478.013953 88.070118 476.075552 86.131716 
C 474.13715 84.193314 471.505309 83.10317 468.763995 83.10317 
C 466.022681 83.10317 463.39084 84.193314 461.452439 86.131716 
C 459.514037 88.070118 458.423893 90.701959 458.423893 93.443272 
" style="fill:none;stroke:#ffffff;stroke-linejoin:miter;stroke-width:2;"/>
   </g>
   <g id="patch_21">
    <path clip-path="url(#pb9f3259e09)" d="M 499.44342 194.685375 
L 528.98657 194.685375 
L 528.98657 165.142225 
L 499.44342 165.142225 
z
" style="stroke:#000000;stroke-linejoin:miter;stroke-width:1.5;"/>
   </g>
   <g id="patch_22">
    <path clip-path="url(#pb9f3259e09)" d="M 524.555098 184.345272 
C 524.555098 181.603959 523.464953 178.972118 521.526552 177.033716 
C 519.58815 175.095314 516.956309 174.00517 514.214995 174.00517 
C 511.473681 174.00517 508.84184 175.095314 506.903439 177.033716 
C 504.965037 178.972118 503.874893 181.603959 503.874893 184.345272 
" style="fill:none;stroke:#ffffff;stroke-linejoin:miter;stroke-width:2;"/>
   </g>
   <g id="patch_23">
    <path clip-path="url(#pb9f3259e09)" d="M 544.89442 240.136375 
L 574.43757 240.136375 
L 574.43757 210.593225 
L 544.89442 210.593225 
z
" style="stroke:#000000;stroke-linejoin:miter;stroke-width:1.5;"/>
   </g>
   <g id="patch_24">
    <path clip-path="url(#pb9f3259e09)" d="M 570.006098 229.796272 
C 570.006098 227.054959 568.915953 224.423118 566.977552 222.484716 
C 565.03915 220.546314 562.407309 219.45617 559.665995 219.45617 
C 556.924681 219.45617 554.29284 220.546314 552.354439 222.484716 
C 550.416037 224.423118 549.325893 227.054959 549.325893 229.796272 
" style="fill:none;stroke:#ffffff;stroke-linejoin:miter;stroke-width:2;"/>
   </g>
   <g id="line2d_26">
    <path clip-path="url(#pb9f3259e09)" d="M 377.861995 138.894272 
L 388.202098 128.55417 
" style="fill:none;stroke:#ffffff;stroke-linecap:square;stroke-width:2;"/>
   </g>
   <g id="line2d_27">
    <path clip-path="url(#pb9f3259e09)" d="M 423.312995 47.992272 
L 433.653098 37.65217 
" style="fill:none;stroke:#ffffff;stroke-linecap:square;stroke-width:2;"/>
   </g>
   <g id="line2d_28">
    <path clip-path="url(#pb9f3259e09)" d="M 468.763995 93.443272 
L 479.104098 83.10317 
" style="fill:none;stroke:#ffffff;stroke-linecap:square;stroke-width:2;"/>
   </g>
   <g id="line2d_29">
    <path clip-path="url(#pb9f3259e09)" d="M 514.214995 184.345272 
L 524.555098 174.00517 
" style="fill:none;stroke:#ffffff;stroke-linecap:square;stroke-width:2;"/>
   </g>
   <g id="line2d_30">
    <path clip-path="url(#pb9f3259e09)" d="M 559.665995 229.796272 
L 570.006098 219.45617 
" style="fill:none;stroke:#ffffff;stroke-linecap:square;stroke-width:2;"/>
   </g>
   <g id="line2d_31">
    <path clip-path="url(#pb9f3259e09)" d="M 196.057995 49.46943 
L 196.057995 37.65217 
" style="fill:none;stroke:#ffffff;stroke-linecap:square;stroke-width:2;"/>
   </g>
   <g id="line2d_32">
    <path clip-path="url(#pb9f3259e09)" d="M 190.149365 43.5608 
L 201.966625 43.5608 
" style="fill:none;stroke:#ffffff;stroke-linecap:square;stroke-width:2;"/>
   </g>
   <g id="line2d_33">
    <path clip-path="url(#pb9f3259e09)" d="M 241.508995 94.92043 
L 241.508995 83.10317 
" style="fill:none;stroke:#ffffff;stroke-linecap:square;stroke-width:2;"/>
   </g>
   <g id="line2d_34">
    <path clip-path="url(#pb9f3259e09)" d="M 235.600365 89.0118 
L 247.417625 89.0118 
" style="fill:none;stroke:#ffffff;stroke-linecap:square;stroke-width:2;"/>
   </g>
   <g id="line2d_35">
    <path clip-path="url(#pb9f3259e09)" d="M 286.959995 49.46943 
L 286.959995 37.65217 
" style="fill:none;stroke:#ffffff;stroke-linecap:square;stroke-width:2;"/>
   </g>
   <g id="line2d_36">
    <path clip-path="url(#pb9f3259e09)" d="M 281.051365 43.5608 
L 292.868625 43.5608 
" style="fill:none;stroke:#ffffff;stroke-linecap:square;stroke-width:2;"/>
   </g>
   <g id="line2d_37">
    <path clip-path="url(#pb9f3259e09)" d="M 332.410995 94.92043 
L 332.410995 83.10317 
" style="fill:none;stroke:#ffffff;stroke-linecap:square;stroke-width:2;"/>
   </g>
   <g id="line2d_38">
    <path clip-path="url(#pb9f3259e09)" d="M 326.502365 89.0118 
L 338.319625 89.0118 
" style="fill:none;stroke:#ffffff;stroke-linecap:square;stroke-width:2;"/>
   </g>
   <g id="text_1">
    <g clip-path="url(#pb9f3259e09)">
     <!-- 0 -->
     <defs>
      <path d="M 31.78125 66.40625 
Q 24.171875 66.40625 20.328125 58.90625 
Q 16.5 51.421875 16.5 36.375 
Q 16.5 21.390625 20.328125 13.890625 
Q 24.171875 6.390625 31.78125 6.390625 
Q 39.453125 6.390625 43.28125 13.890625 
Q 47.125 21.390625 47.125 36.375 
Q 47.125 51.421875 43.28125 58.90625 
Q 39.453125 66.40625 31.78125 66.40625 
z
M 31.78125 74.21875 
Q 44.046875 74.21875 50.515625 64.515625 
Q 56.984375 54.828125 56.984375 36.375 
Q 56.984375 17.96875 50.515625 8.265625 
Q 44.046875 -1.421875 31.78125 -1.421875 
Q 19.53125 -1.421875 13.0625 8.265625 
Q 6.59375 17.96875 6.59375 36.375 
Q 6.59375 54.828125 13.0625 64.515625 
Q 19.53125 74.21875 31.78125 74.21875 
z
" id="DejaVuSans-48"/>
     </defs>
     <g transform="translate(389.224745 309.558825)scale(0.104 -0.104)">
      <use xlink:href="#DejaVuSans-48"/>
     </g>
    </g>
   </g>
   <g id="text_2">
    <g clip-path="url(#pb9f3259e09)">
     <!-- 0 -->
     <g transform="translate(434.675745 264.107825)scale(0.104 -0.104)">
      <use xlink:href="#DejaVuSans-48"/>
     </g>
    </g>
   </g>
   <g id="text_3">
    <g clip-path="url(#pb9f3259e09)">
     <!-- 1 -->
     <defs>
      <path d="M 12.40625 8.296875 
L 28.515625 8.296875 
L 28.515625 63.921875 
L 10.984375 60.40625 
L 10.984375 69.390625 
L 28.421875 72.90625 
L 38.28125 72.90625 
L 38.28125 8.296875 
L 54.390625 8.296875 
L 54.390625 0 
L 12.40625 0 
z
" id="DejaVuSans-49"/>
     </defs>
     <g transform="translate(480.126745 264.107825)scale(0.104 -0.104)">
      <use xlink:href="#DejaVuSans-49"/>
     </g>
    </g>
   </g>
   <g id="text_4">
    <g clip-path="url(#pb9f3259e09)">
     <!-- 1 -->
     <g transform="translate(525.577745 309.558825)scale(0.104 -0.104)">
      <use xlink:href="#DejaVuSans-49"/>
     </g>
    </g>
   </g>
   <g id="text_5">
    <g clip-path="url(#pb9f3259e09)">
     <!-- 2 -->
     <defs>
      <path d="M 19.1875 8.296875 
L 53.609375 8.296875 
L 53.609375 0 
L 7.328125 0 
L 7.328125 8.296875 
Q 12.9375 14.109375 22.625 23.890625 
Q 32.328125 33.6875 34.8125 36.53125 
Q 39.546875 41.84375 41.421875 45.53125 
Q 43.3125 49.21875 43.3125 52.78125 
Q 43.3125 58.59375 39.234375 62.25 
Q 35.15625 65.921875 28.609375 65.921875 
Q 23.96875 65.921875 18.8125 64.3125 
Q 13.671875 62.703125 7.8125 59.421875 
L 7.8125 69.390625 
Q 13.765625 71.78125 18.9375 73 
Q 24.125 74.21875 28.421875 74.21875 
Q 39.75 74.21875 46.484375 68.546875 
Q 53.21875 62.890625 53.21875 53.421875 
Q 53.21875 48.921875 51.53125 44.890625 
Q 49.859375 40.875 45.40625 35.40625 
Q 44.1875 33.984375 37.640625 27.21875 
Q 31.109375 20.453125 19.1875 8.296875 
z
" id="DejaVuSans-50"/>
     </defs>
     <g transform="translate(571.028745 309.558825)scale(0.104 -0.104)">
      <use xlink:href="#DejaVuSans-50"/>
     </g>
    </g>
   </g>
   <g id="text_6">
    <g clip-path="url(#pb9f3259e09)">
     <!-- ${link\_qubit}\_{0}$ -->
     <defs>
      <path d="M 18.3125 75.984375 
L 27.296875 75.984375 
L 12.5 0 
L 3.515625 0 
z
" id="DejaVuSans-Oblique-108"/>
      <path d="M 18.3125 75.984375 
L 27.296875 75.984375 
L 25.09375 64.59375 
L 16.109375 64.59375 
z
M 14.203125 54.6875 
L 23.1875 54.6875 
L 12.5 0 
L 3.515625 0 
z
" id="DejaVuSans-Oblique-105"/>
      <path d="M 55.71875 33.015625 
L 49.3125 0 
L 40.28125 0 
L 46.6875 32.671875 
Q 47.125 34.96875 47.359375 36.71875 
Q 47.609375 38.484375 47.609375 39.5 
Q 47.609375 43.609375 45.015625 45.890625 
Q 42.4375 48.1875 37.796875 48.1875 
Q 30.5625 48.1875 25.34375 43.375 
Q 20.125 38.578125 18.5 30.328125 
L 12.5 0 
L 3.515625 0 
L 14.109375 54.6875 
L 23.09375 54.6875 
L 21.296875 46.09375 
Q 25.046875 50.828125 30.3125 53.40625 
Q 35.59375 56 41.40625 56 
Q 48.640625 56 52.609375 52.09375 
Q 56.59375 48.1875 56.59375 41.109375 
Q 56.59375 39.359375 56.375 37.359375 
Q 56.15625 35.359375 55.71875 33.015625 
z
" id="DejaVuSans-Oblique-110"/>
      <path d="M 18.3125 75.984375 
L 27.296875 75.984375 
L 18.703125 31.6875 
L 49.515625 54.6875 
L 61.1875 54.6875 
L 26.8125 28.515625 
L 51.90625 0 
L 41.015625 0 
L 17.671875 26.703125 
L 12.5 0 
L 3.515625 0 
z
" id="DejaVuSans-Oblique-107"/>
      <path d="M 50.984375 -16.609375 
L 50.984375 -23.578125 
L -0.984375 -23.578125 
L -0.984375 -16.609375 
z
" id="DejaVuSans-95"/>
      <path d="M 41.703125 8.203125 
Q 38.09375 3.46875 33.171875 1.015625 
Q 28.265625 -1.421875 22.3125 -1.421875 
Q 14.015625 -1.421875 9.296875 4.171875 
Q 4.59375 9.765625 4.59375 19.578125 
Q 4.59375 27.484375 7.5 34.859375 
Q 10.40625 42.234375 15.828125 48.09375 
Q 19.34375 51.90625 23.90625 53.953125 
Q 28.46875 56 33.5 56 
Q 39.546875 56 43.453125 53.609375 
Q 47.359375 51.21875 49.125 46.390625 
L 50.6875 54.59375 
L 59.71875 54.59375 
L 45.125 -20.609375 
L 36.078125 -20.609375 
z
M 13.921875 20.90625 
Q 13.921875 13.671875 16.9375 9.890625 
Q 19.96875 6.109375 25.6875 6.109375 
Q 34.1875 6.109375 40.1875 14.234375 
Q 46.1875 22.359375 46.1875 33.984375 
Q 46.1875 41.015625 43.078125 44.75 
Q 39.984375 48.484375 34.1875 48.484375 
Q 29.9375 48.484375 26.3125 46.5 
Q 22.703125 44.53125 20.015625 40.71875 
Q 17.1875 36.71875 15.546875 31.34375 
Q 13.921875 25.984375 13.921875 20.90625 
z
" id="DejaVuSans-Oblique-113"/>
      <path d="M 6.6875 21.6875 
L 13.09375 54.6875 
L 22.125 54.6875 
L 15.71875 22.015625 
Q 15.234375 19.625 15.015625 17.921875 
Q 14.796875 16.21875 14.796875 15.09375 
Q 14.796875 10.9375 17.328125 8.65625 
Q 19.875 6.390625 24.515625 6.390625 
Q 31.734375 6.390625 37 11.265625 
Q 42.28125 16.15625 43.890625 24.421875 
L 49.90625 54.6875 
L 58.890625 54.6875 
L 48.296875 0 
L 39.3125 0 
L 41.109375 8.59375 
Q 37.3125 3.8125 32.0625 1.1875 
Q 26.8125 -1.421875 20.90625 -1.421875 
Q 13.71875 -1.421875 9.71875 2.515625 
Q 5.71875 6.453125 5.71875 13.484375 
Q 5.71875 14.9375 5.953125 17.140625 
Q 6.203125 19.34375 6.6875 21.6875 
z
" id="DejaVuSans-Oblique-117"/>
      <path d="M 49.515625 33.40625 
Q 49.515625 40.484375 46.265625 44.484375 
Q 43.015625 48.484375 37.3125 48.484375 
Q 33.15625 48.484375 29.515625 46.453125 
Q 25.875 44.4375 23.1875 40.578125 
Q 20.359375 36.53125 18.71875 31.171875 
Q 17.09375 25.828125 17.09375 20.515625 
Q 17.09375 13.765625 20.28125 9.9375 
Q 23.484375 6.109375 29.109375 6.109375 
Q 33.34375 6.109375 36.953125 8.078125 
Q 40.578125 10.0625 43.3125 13.921875 
Q 46.09375 17.921875 47.796875 23.234375 
Q 49.515625 28.5625 49.515625 33.40625 
z
M 21.578125 46.390625 
Q 24.90625 50.875 29.90625 53.4375 
Q 34.90625 56 40.375 56 
Q 48.78125 56 53.734375 50.328125 
Q 58.6875 44.671875 58.6875 35.015625 
Q 58.6875 27.09375 55.78125 19.671875 
Q 52.875 12.25 47.515625 6.5 
Q 44 2.6875 39.40625 0.625 
Q 34.8125 -1.421875 29.78125 -1.421875 
Q 24.46875 -1.421875 20.5625 1.015625 
Q 16.65625 3.46875 14.203125 8.296875 
L 12.59375 0 
L 3.609375 0 
L 18.40625 75.984375 
L 27.390625 75.984375 
z
" id="DejaVuSans-Oblique-98"/>
      <path d="M 42.28125 54.6875 
L 40.921875 47.703125 
L 23 47.703125 
L 17.1875 18.015625 
Q 16.890625 16.359375 16.75 15.234375 
Q 16.609375 14.109375 16.609375 13.484375 
Q 16.609375 10.359375 18.484375 8.9375 
Q 20.359375 7.515625 24.515625 7.515625 
L 33.59375 7.515625 
L 32.078125 0 
L 23.484375 0 
Q 15.484375 0 11.546875 3.125 
Q 7.625 6.25 7.625 12.59375 
Q 7.625 13.71875 7.765625 15.0625 
Q 7.90625 16.40625 8.203125 18.015625 
L 14.015625 47.703125 
L 6.390625 47.703125 
L 7.8125 54.6875 
L 15.28125 54.6875 
L 18.3125 70.21875 
L 27.296875 70.21875 
L 24.3125 54.6875 
z
" id="DejaVuSans-Oblique-116"/>
     </defs>
     <g transform="translate(65.249255 47.7858)scale(0.1625 -0.1625)">
      <use transform="translate(0 0.015625)" xlink:href="#DejaVuSans-Oblique-108"/>
      <use transform="translate(27.783203 0.015625)" xlink:href="#DejaVuSans-Oblique-105"/>
      <use transform="translate(55.566406 0.015625)" xlink:href="#DejaVuSans-Oblique-110"/>
      <use transform="translate(118.945312 0.015625)" xlink:href="#DejaVuSans-Oblique-107"/>
      <use transform="translate(176.855469 0.015625)" xlink:href="#DejaVuSans-95"/>
      <use transform="translate(226.855469 0.015625)" xlink:href="#DejaVuSans-Oblique-113"/>
      <use transform="translate(290.332031 0.015625)" xlink:href="#DejaVuSans-Oblique-117"/>
      <use transform="translate(353.710938 0.015625)" xlink:href="#DejaVuSans-Oblique-98"/>
      <use transform="translate(417.1875 0.015625)" xlink:href="#DejaVuSans-Oblique-105"/>
      <use transform="translate(444.970703 0.015625)" xlink:href="#DejaVuSans-Oblique-116"/>
      <use transform="translate(484.179688 0.015625)" xlink:href="#DejaVuSans-95"/>
      <use transform="translate(534.179688 0.015625)" xlink:href="#DejaVuSans-48"/>
     </g>
    </g>
   </g>
   <g id="text_7">
    <g clip-path="url(#pb9f3259e09)">
     <!-- ${link\_qubit}\_{1}$ -->
     <g transform="translate(65.249255 93.2368)scale(0.1625 -0.1625)">
      <use transform="translate(0 0.015625)" xlink:href="#DejaVuSans-Oblique-108"/>
      <use transform="translate(27.783203 0.015625)" xlink:href="#DejaVuSans-Oblique-105"/>
      <use transform="translate(55.566406 0.015625)" xlink:href="#DejaVuSans-Oblique-110"/>
      <use transform="translate(118.945312 0.015625)" xlink:href="#DejaVuSans-Oblique-107"/>
      <use transform="translate(176.855469 0.015625)" xlink:href="#DejaVuSans-95"/>
      <use transform="translate(226.855469 0.015625)" xlink:href="#DejaVuSans-Oblique-113"/>
      <use transform="translate(290.332031 0.015625)" xlink:href="#DejaVuSans-Oblique-117"/>
      <use transform="translate(353.710938 0.015625)" xlink:href="#DejaVuSans-Oblique-98"/>
      <use transform="translate(417.1875 0.015625)" xlink:href="#DejaVuSans-Oblique-105"/>
      <use transform="translate(444.970703 0.015625)" xlink:href="#DejaVuSans-Oblique-116"/>
      <use transform="translate(484.179688 0.015625)" xlink:href="#DejaVuSans-95"/>
      <use transform="translate(534.179688 0.015625)" xlink:href="#DejaVuSans-49"/>
     </g>
    </g>
   </g>
   <g id="text_8">
    <g clip-path="url(#pb9f3259e09)">
     <!-- ${code\_qubit}\_{0}$ -->
     <defs>
      <path d="M 53.609375 52.59375 
L 51.8125 43.703125 
Q 48.578125 46.046875 44.9375 47.21875 
Q 41.3125 48.390625 37.40625 48.390625 
Q 33.109375 48.390625 29.21875 46.875 
Q 25.34375 45.359375 22.703125 42.578125 
Q 18.5 38.328125 16.203125 32.609375 
Q 13.921875 26.90625 13.921875 20.796875 
Q 13.921875 13.421875 17.609375 9.8125 
Q 21.296875 6.203125 28.8125 6.203125 
Q 32.515625 6.203125 36.6875 7.328125 
Q 40.875 8.453125 45.40625 10.6875 
L 43.703125 1.8125 
Q 39.796875 0.203125 35.671875 -0.609375 
Q 31.546875 -1.421875 27.203125 -1.421875 
Q 16.3125 -1.421875 10.453125 4.015625 
Q 4.59375 9.46875 4.59375 19.578125 
Q 4.59375 28.078125 7.640625 35.234375 
Q 10.6875 42.390625 16.703125 48.09375 
Q 20.796875 52 26.3125 54 
Q 31.84375 56 38.375 56 
Q 42.1875 56 45.9375 55.140625 
Q 49.703125 54.296875 53.609375 52.59375 
z
" id="DejaVuSans-Oblique-99"/>
      <path d="M 25.390625 -1.421875 
Q 15.765625 -1.421875 10.171875 4.515625 
Q 4.59375 10.453125 4.59375 20.703125 
Q 4.59375 26.65625 6.515625 32.828125 
Q 8.453125 39.015625 11.53125 43.21875 
Q 16.359375 49.75 22.3125 52.875 
Q 28.265625 56 35.796875 56 
Q 45.125 56 50.859375 50.1875 
Q 56.59375 44.390625 56.59375 35.015625 
Q 56.59375 28.515625 54.6875 22.0625 
Q 52.78125 15.625 49.703125 11.375 
Q 44.921875 4.828125 38.96875 1.703125 
Q 33.015625 -1.421875 25.390625 -1.421875 
z
M 13.921875 21 
Q 13.921875 13.578125 17.015625 9.890625 
Q 20.125 6.203125 26.421875 6.203125 
Q 35.453125 6.203125 41.375 14.078125 
Q 47.3125 21.96875 47.3125 34.078125 
Q 47.3125 41.15625 44.140625 44.765625 
Q 40.96875 48.390625 34.8125 48.390625 
Q 29.734375 48.390625 25.78125 46.015625 
Q 21.828125 43.65625 18.703125 38.8125 
Q 16.40625 35.203125 15.15625 30.5625 
Q 13.921875 25.921875 13.921875 21 
z
" id="DejaVuSans-Oblique-111"/>
      <path d="M 41.796875 8.203125 
Q 38.1875 3.46875 33.25 1.015625 
Q 28.328125 -1.421875 22.3125 -1.421875 
Q 14.109375 -1.421875 9.34375 4.171875 
Q 4.59375 9.765625 4.59375 19.484375 
Q 4.59375 27.59375 7.46875 34.9375 
Q 10.359375 42.28125 15.828125 48.09375 
Q 19.4375 51.953125 23.96875 53.96875 
Q 28.515625 56 33.5 56 
Q 38.765625 56 42.796875 53.453125 
Q 46.828125 50.921875 49.03125 46.1875 
L 54.890625 75.984375 
L 63.921875 75.984375 
L 49.125 0 
L 40.09375 0 
z
M 13.921875 21.09375 
Q 13.921875 14.015625 17.109375 10.0625 
Q 20.3125 6.109375 25.984375 6.109375 
Q 30.171875 6.109375 33.765625 8.125 
Q 37.359375 10.15625 40.09375 14.109375 
Q 42.96875 18.21875 44.625 23.578125 
Q 46.296875 28.953125 46.296875 34.1875 
Q 46.296875 40.96875 43.09375 44.765625 
Q 39.890625 48.578125 34.28125 48.578125 
Q 30.03125 48.578125 26.359375 46.578125 
Q 22.703125 44.578125 20.125 40.828125 
Q 17.28125 36.765625 15.59375 31.390625 
Q 13.921875 26.03125 13.921875 21.09375 
z
" id="DejaVuSans-Oblique-100"/>
      <path d="M 48.09375 32.234375 
Q 48.25 33.015625 48.3125 33.84375 
Q 48.390625 34.671875 48.390625 35.5 
Q 48.390625 41.453125 44.890625 44.921875 
Q 41.40625 48.390625 35.40625 48.390625 
Q 28.71875 48.390625 23.578125 44.15625 
Q 18.453125 39.9375 15.828125 32.171875 
z
M 55.90625 25.203125 
L 14.109375 25.203125 
Q 13.8125 23.34375 13.71875 22.265625 
Q 13.625 21.1875 13.625 20.40625 
Q 13.625 13.625 17.796875 9.90625 
Q 21.96875 6.203125 29.59375 6.203125 
Q 35.453125 6.203125 40.671875 7.515625 
Q 45.90625 8.84375 50.390625 11.375 
L 48.6875 2.484375 
Q 43.84375 0.53125 38.6875 -0.4375 
Q 33.546875 -1.421875 28.21875 -1.421875 
Q 16.84375 -1.421875 10.71875 4.015625 
Q 4.59375 9.46875 4.59375 19.484375 
Q 4.59375 28.03125 7.640625 35.375 
Q 10.6875 42.71875 16.609375 48.484375 
Q 20.40625 52.09375 25.65625 54.046875 
Q 30.90625 56 36.8125 56 
Q 46.09375 56 51.578125 50.4375 
Q 57.078125 44.875 57.078125 35.5 
Q 57.078125 33.25 56.78125 30.6875 
Q 56.5 28.125 55.90625 25.203125 
z
" id="DejaVuSans-Oblique-101"/>
     </defs>
     <g transform="translate(54.686755 138.6878)scale(0.1625 -0.1625)">
      <use transform="translate(0 0.015625)" xlink:href="#DejaVuSans-Oblique-99"/>
      <use transform="translate(54.980469 0.015625)" xlink:href="#DejaVuSans-Oblique-111"/>
      <use transform="translate(116.162109 0.015625)" xlink:href="#DejaVuSans-Oblique-100"/>
      <use transform="translate(179.638672 0.015625)" xlink:href="#DejaVuSans-Oblique-101"/>
      <use transform="translate(241.162109 0.015625)" xlink:href="#DejaVuSans-95"/>
      <use transform="translate(291.162109 0.015625)" xlink:href="#DejaVuSans-Oblique-113"/>
      <use transform="translate(354.638672 0.015625)" xlink:href="#DejaVuSans-Oblique-117"/>
      <use transform="translate(418.017578 0.015625)" xlink:href="#DejaVuSans-Oblique-98"/>
      <use transform="translate(481.494141 0.015625)" xlink:href="#DejaVuSans-Oblique-105"/>
      <use transform="translate(509.277344 0.015625)" xlink:href="#DejaVuSans-Oblique-116"/>
      <use transform="translate(548.486328 0.015625)" xlink:href="#DejaVuSans-95"/>
      <use transform="translate(598.486328 0.015625)" xlink:href="#DejaVuSans-48"/>
     </g>
    </g>
   </g>
   <g id="text_9">
    <g clip-path="url(#pb9f3259e09)">
     <!-- ${code\_qubit}\_{1}$ -->
     <g transform="translate(54.686755 184.1388)scale(0.1625 -0.1625)">
      <use transform="translate(0 0.015625)" xlink:href="#DejaVuSans-Oblique-99"/>
      <use transform="translate(54.980469 0.015625)" xlink:href="#DejaVuSans-Oblique-111"/>
      <use transform="translate(116.162109 0.015625)" xlink:href="#DejaVuSans-Oblique-100"/>
      <use transform="translate(179.638672 0.015625)" xlink:href="#DejaVuSans-Oblique-101"/>
      <use transform="translate(241.162109 0.015625)" xlink:href="#DejaVuSans-95"/>
      <use transform="translate(291.162109 0.015625)" xlink:href="#DejaVuSans-Oblique-113"/>
      <use transform="translate(354.638672 0.015625)" xlink:href="#DejaVuSans-Oblique-117"/>
      <use transform="translate(418.017578 0.015625)" xlink:href="#DejaVuSans-Oblique-98"/>
      <use transform="translate(481.494141 0.015625)" xlink:href="#DejaVuSans-Oblique-105"/>
      <use transform="translate(509.277344 0.015625)" xlink:href="#DejaVuSans-Oblique-116"/>
      <use transform="translate(548.486328 0.015625)" xlink:href="#DejaVuSans-95"/>
      <use transform="translate(598.486328 0.015625)" xlink:href="#DejaVuSans-49"/>
     </g>
    </g>
   </g>
   <g id="text_10">
    <g clip-path="url(#pb9f3259e09)">
     <!-- ${code\_qubit}\_{2}$ -->
     <g transform="translate(54.686755 229.5898)scale(0.1625 -0.1625)">
      <use transform="translate(0 0.015625)" xlink:href="#DejaVuSans-Oblique-99"/>
      <use transform="translate(54.980469 0.015625)" xlink:href="#DejaVuSans-Oblique-111"/>
      <use transform="translate(116.162109 0.015625)" xlink:href="#DejaVuSans-Oblique-100"/>
      <use transform="translate(179.638672 0.015625)" xlink:href="#DejaVuSans-Oblique-101"/>
      <use transform="translate(241.162109 0.015625)" xlink:href="#DejaVuSans-95"/>
      <use transform="translate(291.162109 0.015625)" xlink:href="#DejaVuSans-Oblique-113"/>
      <use transform="translate(354.638672 0.015625)" xlink:href="#DejaVuSans-Oblique-117"/>
      <use transform="translate(418.017578 0.015625)" xlink:href="#DejaVuSans-Oblique-98"/>
      <use transform="translate(481.494141 0.015625)" xlink:href="#DejaVuSans-Oblique-105"/>
      <use transform="translate(509.277344 0.015625)" xlink:href="#DejaVuSans-Oblique-116"/>
      <use transform="translate(548.486328 0.015625)" xlink:href="#DejaVuSans-95"/>
      <use transform="translate(598.486328 0.015625)" xlink:href="#DejaVuSans-50"/>
     </g>
    </g>
   </g>
   <g id="text_11">
    <g clip-path="url(#pb9f3259e09)">
     <!-- 2 -->
     <g transform="translate(176.059555 264.107825)scale(0.104 -0.104)">
      <use xlink:href="#DejaVuSans-50"/>
     </g>
    </g>
   </g>
   <g id="text_12">
    <g clip-path="url(#pb9f3259e09)">
     <!-- round\_0\_link\_bit -->
     <defs>
      <path d="M 41.109375 46.296875 
Q 39.59375 47.171875 37.8125 47.578125 
Q 36.03125 48 33.890625 48 
Q 26.265625 48 22.1875 43.046875 
Q 18.109375 38.09375 18.109375 28.8125 
L 18.109375 0 
L 9.078125 0 
L 9.078125 54.6875 
L 18.109375 54.6875 
L 18.109375 46.1875 
Q 20.953125 51.171875 25.484375 53.578125 
Q 30.03125 56 36.53125 56 
Q 37.453125 56 38.578125 55.875 
Q 39.703125 55.765625 41.0625 55.515625 
z
" id="DejaVuSans-114"/>
      <path d="M 30.609375 48.390625 
Q 23.390625 48.390625 19.1875 42.75 
Q 14.984375 37.109375 14.984375 27.296875 
Q 14.984375 17.484375 19.15625 11.84375 
Q 23.34375 6.203125 30.609375 6.203125 
Q 37.796875 6.203125 41.984375 11.859375 
Q 46.1875 17.53125 46.1875 27.296875 
Q 46.1875 37.015625 41.984375 42.703125 
Q 37.796875 48.390625 30.609375 48.390625 
z
M 30.609375 56 
Q 42.328125 56 49.015625 48.375 
Q 55.71875 40.765625 55.71875 27.296875 
Q 55.71875 13.875 49.015625 6.21875 
Q 42.328125 -1.421875 30.609375 -1.421875 
Q 18.84375 -1.421875 12.171875 6.21875 
Q 5.515625 13.875 5.515625 27.296875 
Q 5.515625 40.765625 12.171875 48.375 
Q 18.84375 56 30.609375 56 
z
" id="DejaVuSans-111"/>
      <path d="M 8.5 21.578125 
L 8.5 54.6875 
L 17.484375 54.6875 
L 17.484375 21.921875 
Q 17.484375 14.15625 20.5 10.265625 
Q 23.53125 6.390625 29.59375 6.390625 
Q 36.859375 6.390625 41.078125 11.03125 
Q 45.3125 15.671875 45.3125 23.6875 
L 45.3125 54.6875 
L 54.296875 54.6875 
L 54.296875 0 
L 45.3125 0 
L 45.3125 8.40625 
Q 42.046875 3.421875 37.71875 1 
Q 33.40625 -1.421875 27.6875 -1.421875 
Q 18.265625 -1.421875 13.375 4.4375 
Q 8.5 10.296875 8.5 21.578125 
z
M 31.109375 56 
z
" id="DejaVuSans-117"/>
      <path d="M 54.890625 33.015625 
L 54.890625 0 
L 45.90625 0 
L 45.90625 32.71875 
Q 45.90625 40.484375 42.875 44.328125 
Q 39.84375 48.1875 33.796875 48.1875 
Q 26.515625 48.1875 22.3125 43.546875 
Q 18.109375 38.921875 18.109375 30.90625 
L 18.109375 0 
L 9.078125 0 
L 9.078125 54.6875 
L 18.109375 54.6875 
L 18.109375 46.1875 
Q 21.34375 51.125 25.703125 53.5625 
Q 30.078125 56 35.796875 56 
Q 45.21875 56 50.046875 50.171875 
Q 54.890625 44.34375 54.890625 33.015625 
z
" id="DejaVuSans-110"/>
      <path d="M 45.40625 46.390625 
L 45.40625 75.984375 
L 54.390625 75.984375 
L 54.390625 0 
L 45.40625 0 
L 45.40625 8.203125 
Q 42.578125 3.328125 38.25 0.953125 
Q 33.9375 -1.421875 27.875 -1.421875 
Q 17.96875 -1.421875 11.734375 6.484375 
Q 5.515625 14.40625 5.515625 27.296875 
Q 5.515625 40.1875 11.734375 48.09375 
Q 17.96875 56 27.875 56 
Q 33.9375 56 38.25 53.625 
Q 42.578125 51.265625 45.40625 46.390625 
z
M 14.796875 27.296875 
Q 14.796875 17.390625 18.875 11.75 
Q 22.953125 6.109375 30.078125 6.109375 
Q 37.203125 6.109375 41.296875 11.75 
Q 45.40625 17.390625 45.40625 27.296875 
Q 45.40625 37.203125 41.296875 42.84375 
Q 37.203125 48.484375 30.078125 48.484375 
Q 22.953125 48.484375 18.875 42.84375 
Q 14.796875 37.203125 14.796875 27.296875 
z
" id="DejaVuSans-100"/>
      <path d="M 8.296875 72.90625 
L 33.6875 -9.28125 
L 25.390625 -9.28125 
L 0 72.90625 
z
" id="DejaVuSans-92"/>
      <path d="M 9.421875 75.984375 
L 18.40625 75.984375 
L 18.40625 0 
L 9.421875 0 
z
" id="DejaVuSans-108"/>
      <path d="M 9.421875 54.6875 
L 18.40625 54.6875 
L 18.40625 0 
L 9.421875 0 
z
M 9.421875 75.984375 
L 18.40625 75.984375 
L 18.40625 64.59375 
L 9.421875 64.59375 
z
" id="DejaVuSans-105"/>
      <path d="M 9.078125 75.984375 
L 18.109375 75.984375 
L 18.109375 31.109375 
L 44.921875 54.6875 
L 56.390625 54.6875 
L 27.390625 29.109375 
L 57.625 0 
L 45.90625 0 
L 18.109375 26.703125 
L 18.109375 0 
L 9.078125 0 
z
" id="DejaVuSans-107"/>
      <path d="M 48.6875 27.296875 
Q 48.6875 37.203125 44.609375 42.84375 
Q 40.53125 48.484375 33.40625 48.484375 
Q 26.265625 48.484375 22.1875 42.84375 
Q 18.109375 37.203125 18.109375 27.296875 
Q 18.109375 17.390625 22.1875 11.75 
Q 26.265625 6.109375 33.40625 6.109375 
Q 40.53125 6.109375 44.609375 11.75 
Q 48.6875 17.390625 48.6875 27.296875 
z
M 18.109375 46.390625 
Q 20.953125 51.265625 25.265625 53.625 
Q 29.59375 56 35.59375 56 
Q 45.5625 56 51.78125 48.09375 
Q 58.015625 40.1875 58.015625 27.296875 
Q 58.015625 14.40625 51.78125 6.484375 
Q 45.5625 -1.421875 35.59375 -1.421875 
Q 29.59375 -1.421875 25.265625 0.953125 
Q 20.953125 3.328125 18.109375 8.203125 
L 18.109375 0 
L 9.078125 0 
L 9.078125 75.984375 
L 18.109375 75.984375 
z
" id="DejaVuSans-98"/>
      <path d="M 18.3125 70.21875 
L 18.3125 54.6875 
L 36.8125 54.6875 
L 36.8125 47.703125 
L 18.3125 47.703125 
L 18.3125 18.015625 
Q 18.3125 11.328125 20.140625 9.421875 
Q 21.96875 7.515625 27.59375 7.515625 
L 36.8125 7.515625 
L 36.8125 0 
L 27.59375 0 
Q 17.1875 0 13.234375 3.875 
Q 9.28125 7.765625 9.28125 18.015625 
L 9.28125 47.703125 
L 2.6875 47.703125 
L 2.6875 54.6875 
L 9.28125 54.6875 
L 9.28125 70.21875 
z
" id="DejaVuSans-116"/>
     </defs>
     <g transform="translate(14.178552 275.073808)scale(0.1625 -0.1625)">
      <use xlink:href="#DejaVuSans-114"/>
      <use x="38.863281" xlink:href="#DejaVuSans-111"/>
      <use x="100.044922" xlink:href="#DejaVuSans-117"/>
      <use x="163.423828" xlink:href="#DejaVuSans-110"/>
      <use x="226.802734" xlink:href="#DejaVuSans-100"/>
      <use x="290.279297" xlink:href="#DejaVuSans-92"/>
      <use x="323.970703" xlink:href="#DejaVuSans-95"/>
      <use x="373.970703" xlink:href="#DejaVuSans-48"/>
      <use x="437.59375" xlink:href="#DejaVuSans-92"/>
      <use x="471.285156" xlink:href="#DejaVuSans-95"/>
      <use x="521.285156" xlink:href="#DejaVuSans-108"/>
      <use x="549.068359" xlink:href="#DejaVuSans-105"/>
      <use x="576.851562" xlink:href="#DejaVuSans-110"/>
      <use x="640.230469" xlink:href="#DejaVuSans-107"/>
      <use x="698.140625" xlink:href="#DejaVuSans-92"/>
      <use x="731.832031" xlink:href="#DejaVuSans-95"/>
      <use x="781.832031" xlink:href="#DejaVuSans-98"/>
      <use x="845.308594" xlink:href="#DejaVuSans-105"/>
      <use x="873.091797" xlink:href="#DejaVuSans-116"/>
     </g>
    </g>
   </g>
   <g id="text_13">
    <g clip-path="url(#pb9f3259e09)">
     <!-- 3 -->
     <defs>
      <path d="M 40.578125 39.3125 
Q 47.65625 37.796875 51.625 33 
Q 55.609375 28.21875 55.609375 21.1875 
Q 55.609375 10.40625 48.1875 4.484375 
Q 40.765625 -1.421875 27.09375 -1.421875 
Q 22.515625 -1.421875 17.65625 -0.515625 
Q 12.796875 0.390625 7.625 2.203125 
L 7.625 11.71875 
Q 11.71875 9.328125 16.59375 8.109375 
Q 21.484375 6.890625 26.8125 6.890625 
Q 36.078125 6.890625 40.9375 10.546875 
Q 45.796875 14.203125 45.796875 21.1875 
Q 45.796875 27.640625 41.28125 31.265625 
Q 36.765625 34.90625 28.71875 34.90625 
L 20.21875 34.90625 
L 20.21875 43.015625 
L 29.109375 43.015625 
Q 36.375 43.015625 40.234375 45.921875 
Q 44.09375 48.828125 44.09375 54.296875 
Q 44.09375 59.90625 40.109375 62.90625 
Q 36.140625 65.921875 28.71875 65.921875 
Q 24.65625 65.921875 20.015625 65.03125 
Q 15.375 64.15625 9.8125 62.3125 
L 9.8125 71.09375 
Q 15.4375 72.65625 20.34375 73.4375 
Q 25.25 74.21875 29.59375 74.21875 
Q 40.828125 74.21875 47.359375 69.109375 
Q 53.90625 64.015625 53.90625 55.328125 
Q 53.90625 49.265625 50.4375 45.09375 
Q 46.96875 40.921875 40.578125 39.3125 
z
" id="DejaVuSans-51"/>
     </defs>
     <g transform="translate(176.059555 309.558825)scale(0.104 -0.104)">
      <use xlink:href="#DejaVuSans-51"/>
     </g>
    </g>
   </g>
   <g id="text_14">
    <g clip-path="url(#pb9f3259e09)">
     <!-- code_bit -->
     <defs>
      <path d="M 48.78125 52.59375 
L 48.78125 44.1875 
Q 44.96875 46.296875 41.140625 47.34375 
Q 37.3125 48.390625 33.40625 48.390625 
Q 24.65625 48.390625 19.8125 42.84375 
Q 14.984375 37.3125 14.984375 27.296875 
Q 14.984375 17.28125 19.8125 11.734375 
Q 24.65625 6.203125 33.40625 6.203125 
Q 37.3125 6.203125 41.140625 7.25 
Q 44.96875 8.296875 48.78125 10.40625 
L 48.78125 2.09375 
Q 45.015625 0.34375 40.984375 -0.53125 
Q 36.96875 -1.421875 32.421875 -1.421875 
Q 20.0625 -1.421875 12.78125 6.34375 
Q 5.515625 14.109375 5.515625 27.296875 
Q 5.515625 40.671875 12.859375 48.328125 
Q 20.21875 56 33.015625 56 
Q 37.15625 56 41.109375 55.140625 
Q 45.0625 54.296875 48.78125 52.59375 
z
" id="DejaVuSans-99"/>
      <path d="M 56.203125 29.59375 
L 56.203125 25.203125 
L 14.890625 25.203125 
Q 15.484375 15.921875 20.484375 11.0625 
Q 25.484375 6.203125 34.421875 6.203125 
Q 39.59375 6.203125 44.453125 7.46875 
Q 49.3125 8.734375 54.109375 11.28125 
L 54.109375 2.78125 
Q 49.265625 0.734375 44.1875 -0.34375 
Q 39.109375 -1.421875 33.890625 -1.421875 
Q 20.796875 -1.421875 13.15625 6.1875 
Q 5.515625 13.8125 5.515625 26.8125 
Q 5.515625 40.234375 12.765625 48.109375 
Q 20.015625 56 32.328125 56 
Q 43.359375 56 49.78125 48.890625 
Q 56.203125 41.796875 56.203125 29.59375 
z
M 47.21875 32.234375 
Q 47.125 39.59375 43.09375 43.984375 
Q 39.0625 48.390625 32.421875 48.390625 
Q 24.90625 48.390625 20.390625 44.140625 
Q 15.875 39.890625 15.1875 32.171875 
z
" id="DejaVuSans-101"/>
     </defs>
     <g transform="translate(93.905115 320.524808)scale(0.1625 -0.1625)">
      <use xlink:href="#DejaVuSans-99"/>
      <use x="54.980469" xlink:href="#DejaVuSans-111"/>
      <use x="116.162109" xlink:href="#DejaVuSans-100"/>
      <use x="179.638672" xlink:href="#DejaVuSans-101"/>
      <use x="241.162109" xlink:href="#DejaVuSans-95"/>
      <use x="291.162109" xlink:href="#DejaVuSans-98"/>
      <use x="354.638672" xlink:href="#DejaVuSans-105"/>
      <use x="382.421875" xlink:href="#DejaVuSans-116"/>
     </g>
    </g>
   </g>
  </g>
 </g>
 <defs>
  <clipPath id="pb9f3259e09">
   <rect height="336.3374" width="582.463655" x="7.2" y="7.2"/>
  </clipPath>
 </defs>
</svg>
