<?xml version="1.0" encoding="utf-8" standalone="no"?>
<!DOCTYPE svg PUBLIC "-//W3C//DTD SVG 1.1//EN"
  "http://www.w3.org/Graphics/SVG/1.1/DTD/svg11.dtd">
<!-- Created with matplotlib (https://matplotlib.org/) -->
<svg height="176.531837pt" version="1.1" viewBox="0 0 1397.860036 176.531837" width="1397.860036pt" xmlns="http://www.w3.org/2000/svg" xmlns:xlink="http://www.w3.org/1999/xlink">
 <defs>
  <style type="text/css">
*{stroke-linecap:butt;stroke-linejoin:round;}
  </style>
 </defs>
 <g id="figure_1">
  <g id="patch_1">
   <path d="M -0 176.531837 
L 1397.860036 176.531837 
L 1397.860036 0 
L -0 0 
z
" style="fill:#ffffff;"/>
  </g>
  <g id="axes_1">
   <g id="line2d_1">
    <path clip-path="url(#pa112e380cb)" d="M 63.490836 51.159237 
L 1386.114936 51.159237 
" style="fill:none;stroke:#000000;stroke-linecap:square;stroke-width:2;"/>
   </g>
   <g id="line2d_2">
    <path clip-path="url(#pa112e380cb)" d="M 63.490836 96.610237 
L 1386.114936 96.610237 
" style="fill:none;stroke:#000000;stroke-linecap:square;stroke-width:2;"/>
   </g>
   <g id="line2d_3">
    <path clip-path="url(#pa112e380cb)" d="M 63.490836 142.061237 
L 1386.114936 142.061237 
" style="fill:none;stroke:#000000;stroke-linecap:square;stroke-width:2;"/>
   </g>
   <g id="line2d_4">
    <path clip-path="url(#pa112e380cb)" d="M 178.936376 142.061237 
L 178.936376 51.159237 
" style="fill:none;stroke:#6fa4ff;stroke-linecap:square;stroke-width:2;"/>
   </g>
   <g id="line2d_5">
    <path clip-path="url(#pa112e380cb)" d="M 315.289376 142.061237 
L 315.289376 51.159237 
" style="fill:none;stroke:#6fa4ff;stroke-linecap:square;stroke-width:2;"/>
   </g>
   <g id="line2d_6">
    <path clip-path="url(#pa112e380cb)" d="M 451.642376 142.061237 
L 451.642376 51.159237 
" style="fill:none;stroke:#6fa4ff;stroke-linecap:square;stroke-width:2;"/>
   </g>
   <g id="line2d_7">
    <path clip-path="url(#pa112e380cb)" d="M 587.995376 96.610237 
L 587.995376 51.159237 
" style="fill:none;stroke:#6fa4ff;stroke-linecap:square;stroke-width:2;"/>
   </g>
   <g id="line2d_8">
    <path clip-path="url(#pa112e380cb)" d="M 724.348376 96.610237 
L 724.348376 51.159237 
" style="fill:none;stroke:#6fa4ff;stroke-linecap:square;stroke-width:2;"/>
   </g>
   <g id="line2d_9">
    <path clip-path="url(#pa112e380cb)" d="M 860.701376 96.610237 
L 860.701376 51.159237 
" style="fill:none;stroke:#6fa4ff;stroke-linecap:square;stroke-width:2;"/>
   </g>
   <g id="line2d_10">
    <path clip-path="url(#pa112e380cb)" d="M 997.054376 96.610237 
L 997.054376 51.159237 
" style="fill:none;stroke:#6fa4ff;stroke-linecap:square;stroke-width:2;"/>
   </g>
   <g id="line2d_11">
    <path clip-path="url(#pa112e380cb)" d="M 1133.407376 96.610237 
L 1133.407376 51.159237 
" style="fill:none;stroke:#6fa4ff;stroke-linecap:square;stroke-width:2;"/>
   </g>
   <g id="line2d_12">
    <path clip-path="url(#pa112e380cb)" d="M 1269.760376 96.610237 
L 1269.760376 51.159237 
" style="fill:none;stroke:#6fa4ff;stroke-linecap:square;stroke-width:2;"/>
   </g>
   <g id="text_1">
    <!-- Global Phase: 3.7006 -->
    <defs>
     <path d="M 59.515625 10.40625 
L 59.515625 29.984375 
L 43.40625 29.984375 
L 43.40625 38.09375 
L 69.28125 38.09375 
L 69.28125 6.78125 
Q 63.578125 2.734375 56.6875 0.65625 
Q 49.8125 -1.421875 42 -1.421875 
Q 24.90625 -1.421875 15.25 8.5625 
Q 5.609375 18.5625 5.609375 36.375 
Q 5.609375 54.25 15.25 64.234375 
Q 24.90625 74.21875 42 74.21875 
Q 49.125 74.21875 55.546875 72.453125 
Q 61.96875 70.703125 67.390625 67.28125 
L 67.390625 56.78125 
Q 61.921875 61.421875 55.765625 63.765625 
Q 49.609375 66.109375 42.828125 66.109375 
Q 29.4375 66.109375 22.71875 58.640625 
Q 16.015625 51.171875 16.015625 36.375 
Q 16.015625 21.625 22.71875 14.15625 
Q 29.4375 6.6875 42.828125 6.6875 
Q 48.046875 6.6875 52.140625 7.59375 
Q 56.25 8.5 59.515625 10.40625 
z
" id="DejaVuSans-71"/>
     <path d="M 9.421875 75.984375 
L 18.40625 75.984375 
L 18.40625 0 
L 9.421875 0 
z
" id="DejaVuSans-108"/>
     <path d="M 30.609375 48.390625 
Q 23.390625 48.390625 19.1875 42.75 
Q 14.984375 37.109375 14.984375 27.296875 
Q 14.984375 17.484375 19.15625 11.84375 
Q 23.34375 6.203125 30.609375 6.203125 
Q 37.796875 6.203125 41.984375 11.859375 
Q 46.1875 17.53125 46.1875 27.296875 
Q 46.1875 37.015625 41.984375 42.703125 
Q 37.796875 48.390625 30.609375 48.390625 
z
M 30.609375 56 
Q 42.328125 56 49.015625 48.375 
Q 55.71875 40.765625 55.71875 27.296875 
Q 55.71875 13.875 49.015625 6.21875 
Q 42.328125 -1.421875 30.609375 -1.421875 
Q 18.84375 -1.421875 12.171875 6.21875 
Q 5.515625 13.875 5.515625 27.296875 
Q 5.515625 40.765625 12.171875 48.375 
Q 18.84375 56 30.609375 56 
z
" id="DejaVuSans-111"/>
     <path d="M 48.6875 27.296875 
Q 48.6875 37.203125 44.609375 42.84375 
Q 40.53125 48.484375 33.40625 48.484375 
Q 26.265625 48.484375 22.1875 42.84375 
Q 18.109375 37.203125 18.109375 27.296875 
Q 18.109375 17.390625 22.1875 11.75 
Q 26.265625 6.109375 33.40625 6.109375 
Q 40.53125 6.109375 44.609375 11.75 
Q 48.6875 17.390625 48.6875 27.296875 
z
M 18.109375 46.390625 
Q 20.953125 51.265625 25.265625 53.625 
Q 29.59375 56 35.59375 56 
Q 45.5625 56 51.78125 48.09375 
Q 58.015625 40.1875 58.015625 27.296875 
Q 58.015625 14.40625 51.78125 6.484375 
Q 45.5625 -1.421875 35.59375 -1.421875 
Q 29.59375 -1.421875 25.265625 0.953125 
Q 20.953125 3.328125 18.109375 8.203125 
L 18.109375 0 
L 9.078125 0 
L 9.078125 75.984375 
L 18.109375 75.984375 
z
" id="DejaVuSans-98"/>
     <path d="M 34.28125 27.484375 
Q 23.390625 27.484375 19.1875 25 
Q 14.984375 22.515625 14.984375 16.5 
Q 14.984375 11.71875 18.140625 8.90625 
Q 21.296875 6.109375 26.703125 6.109375 
Q 34.1875 6.109375 38.703125 11.40625 
Q 43.21875 16.703125 43.21875 25.484375 
L 43.21875 27.484375 
z
M 52.203125 31.203125 
L 52.203125 0 
L 43.21875 0 
L 43.21875 8.296875 
Q 40.140625 3.328125 35.546875 0.953125 
Q 30.953125 -1.421875 24.3125 -1.421875 
Q 15.921875 -1.421875 10.953125 3.296875 
Q 6 8.015625 6 15.921875 
Q 6 25.140625 12.171875 29.828125 
Q 18.359375 34.515625 30.609375 34.515625 
L 43.21875 34.515625 
L 43.21875 35.40625 
Q 43.21875 41.609375 39.140625 45 
Q 35.0625 48.390625 27.6875 48.390625 
Q 23 48.390625 18.546875 47.265625 
Q 14.109375 46.140625 10.015625 43.890625 
L 10.015625 52.203125 
Q 14.9375 54.109375 19.578125 55.046875 
Q 24.21875 56 28.609375 56 
Q 40.484375 56 46.34375 49.84375 
Q 52.203125 43.703125 52.203125 31.203125 
z
" id="DejaVuSans-97"/>
     <path id="DejaVuSans-32"/>
     <path d="M 19.671875 64.796875 
L 19.671875 37.40625 
L 32.078125 37.40625 
Q 38.96875 37.40625 42.71875 40.96875 
Q 46.484375 44.53125 46.484375 51.125 
Q 46.484375 57.671875 42.71875 61.234375 
Q 38.96875 64.796875 32.078125 64.796875 
z
M 9.8125 72.90625 
L 32.078125 72.90625 
Q 44.34375 72.90625 50.609375 67.359375 
Q 56.890625 61.8125 56.890625 51.125 
Q 56.890625 40.328125 50.609375 34.8125 
Q 44.34375 29.296875 32.078125 29.296875 
L 19.671875 29.296875 
L 19.671875 0 
L 9.8125 0 
z
" id="DejaVuSans-80"/>
     <path d="M 54.890625 33.015625 
L 54.890625 0 
L 45.90625 0 
L 45.90625 32.71875 
Q 45.90625 40.484375 42.875 44.328125 
Q 39.84375 48.1875 33.796875 48.1875 
Q 26.515625 48.1875 22.3125 43.546875 
Q 18.109375 38.921875 18.109375 30.90625 
L 18.109375 0 
L 9.078125 0 
L 9.078125 75.984375 
L 18.109375 75.984375 
L 18.109375 46.1875 
Q 21.34375 51.125 25.703125 53.5625 
Q 30.078125 56 35.796875 56 
Q 45.21875 56 50.046875 50.171875 
Q 54.890625 44.34375 54.890625 33.015625 
z
" id="DejaVuSans-104"/>
     <path d="M 44.28125 53.078125 
L 44.28125 44.578125 
Q 40.484375 46.53125 36.375 47.5 
Q 32.28125 48.484375 27.875 48.484375 
Q 21.1875 48.484375 17.84375 46.4375 
Q 14.5 44.390625 14.5 40.28125 
Q 14.5 37.15625 16.890625 35.375 
Q 19.28125 33.59375 26.515625 31.984375 
L 29.59375 31.296875 
Q 39.15625 29.25 43.1875 25.515625 
Q 47.21875 21.78125 47.21875 15.09375 
Q 47.21875 7.46875 41.1875 3.015625 
Q 35.15625 -1.421875 24.609375 -1.421875 
Q 20.21875 -1.421875 15.453125 -0.5625 
Q 10.6875 0.296875 5.421875 2 
L 5.421875 11.28125 
Q 10.40625 8.6875 15.234375 7.390625 
Q 20.0625 6.109375 24.8125 6.109375 
Q 31.15625 6.109375 34.5625 8.28125 
Q 37.984375 10.453125 37.984375 14.40625 
Q 37.984375 18.0625 35.515625 20.015625 
Q 33.0625 21.96875 24.703125 23.78125 
L 21.578125 24.515625 
Q 13.234375 26.265625 9.515625 29.90625 
Q 5.8125 33.546875 5.8125 39.890625 
Q 5.8125 47.609375 11.28125 51.796875 
Q 16.75 56 26.8125 56 
Q 31.78125 56 36.171875 55.265625 
Q 40.578125 54.546875 44.28125 53.078125 
z
" id="DejaVuSans-115"/>
     <path d="M 56.203125 29.59375 
L 56.203125 25.203125 
L 14.890625 25.203125 
Q 15.484375 15.921875 20.484375 11.0625 
Q 25.484375 6.203125 34.421875 6.203125 
Q 39.59375 6.203125 44.453125 7.46875 
Q 49.3125 8.734375 54.109375 11.28125 
L 54.109375 2.78125 
Q 49.265625 0.734375 44.1875 -0.34375 
Q 39.109375 -1.421875 33.890625 -1.421875 
Q 20.796875 -1.421875 13.15625 6.1875 
Q 5.515625 13.8125 5.515625 26.8125 
Q 5.515625 40.234375 12.765625 48.109375 
Q 20.015625 56 32.328125 56 
Q 43.359375 56 49.78125 48.890625 
Q 56.203125 41.796875 56.203125 29.59375 
z
M 47.21875 32.234375 
Q 47.125 39.59375 43.09375 43.984375 
Q 39.0625 48.390625 32.421875 48.390625 
Q 24.90625 48.390625 20.390625 44.140625 
Q 15.875 39.890625 15.1875 32.171875 
z
" id="DejaVuSans-101"/>
     <path d="M 11.71875 12.40625 
L 22.015625 12.40625 
L 22.015625 0 
L 11.71875 0 
z
M 11.71875 51.703125 
L 22.015625 51.703125 
L 22.015625 39.3125 
L 11.71875 39.3125 
z
" id="DejaVuSans-58"/>
     <path d="M 40.578125 39.3125 
Q 47.65625 37.796875 51.625 33 
Q 55.609375 28.21875 55.609375 21.1875 
Q 55.609375 10.40625 48.1875 4.484375 
Q 40.765625 -1.421875 27.09375 -1.421875 
Q 22.515625 -1.421875 17.65625 -0.515625 
Q 12.796875 0.390625 7.625 2.203125 
L 7.625 11.71875 
Q 11.71875 9.328125 16.59375 8.109375 
Q 21.484375 6.890625 26.8125 6.890625 
Q 36.078125 6.890625 40.9375 10.546875 
Q 45.796875 14.203125 45.796875 21.1875 
Q 45.796875 27.640625 41.28125 31.265625 
Q 36.765625 34.90625 28.71875 34.90625 
L 20.21875 34.90625 
L 20.21875 43.015625 
L 29.109375 43.015625 
Q 36.375 43.015625 40.234375 45.921875 
Q 44.09375 48.828125 44.09375 54.296875 
Q 44.09375 59.90625 40.109375 62.90625 
Q 36.140625 65.921875 28.71875 65.921875 
Q 24.65625 65.921875 20.015625 65.03125 
Q 15.375 64.15625 9.8125 62.3125 
L 9.8125 71.09375 
Q 15.4375 72.65625 20.34375 73.4375 
Q 25.25 74.21875 29.59375 74.21875 
Q 40.828125 74.21875 47.359375 69.109375 
Q 53.90625 64.015625 53.90625 55.328125 
Q 53.90625 49.265625 50.4375 45.09375 
Q 46.96875 40.921875 40.578125 39.3125 
z
" id="DejaVuSans-51"/>
     <path d="M 10.6875 12.40625 
L 21 12.40625 
L 21 0 
L 10.6875 0 
z
" id="DejaVuSans-46"/>
     <path d="M 8.203125 72.90625 
L 55.078125 72.90625 
L 55.078125 68.703125 
L 28.609375 0 
L 18.3125 0 
L 43.21875 64.59375 
L 8.203125 64.59375 
z
" id="DejaVuSans-55"/>
     <path d="M 31.78125 66.40625 
Q 24.171875 66.40625 20.328125 58.90625 
Q 16.5 51.421875 16.5 36.375 
Q 16.5 21.390625 20.328125 13.890625 
Q 24.171875 6.390625 31.78125 6.390625 
Q 39.453125 6.390625 43.28125 13.890625 
Q 47.125 21.390625 47.125 36.375 
Q 47.125 51.421875 43.28125 58.90625 
Q 39.453125 66.40625 31.78125 66.40625 
z
M 31.78125 74.21875 
Q 44.046875 74.21875 50.515625 64.515625 
Q 56.984375 54.828125 56.984375 36.375 
Q 56.984375 17.96875 50.515625 8.265625 
Q 44.046875 -1.421875 31.78125 -1.421875 
Q 19.53125 -1.421875 13.0625 8.265625 
Q 6.59375 17.96875 6.59375 36.375 
Q 6.59375 54.828125 13.0625 64.515625 
Q 19.53125 74.21875 31.78125 74.21875 
z
" id="DejaVuSans-48"/>
     <path d="M 33.015625 40.375 
Q 26.375 40.375 22.484375 35.828125 
Q 18.609375 31.296875 18.609375 23.390625 
Q 18.609375 15.53125 22.484375 10.953125 
Q 26.375 6.390625 33.015625 6.390625 
Q 39.65625 6.390625 43.53125 10.953125 
Q 47.40625 15.53125 47.40625 23.390625 
Q 47.40625 31.296875 43.53125 35.828125 
Q 39.65625 40.375 33.015625 40.375 
z
M 52.59375 71.296875 
L 52.59375 62.3125 
Q 48.875 64.0625 45.09375 64.984375 
Q 41.3125 65.921875 37.59375 65.921875 
Q 27.828125 65.921875 22.671875 59.328125 
Q 17.53125 52.734375 16.796875 39.40625 
Q 19.671875 43.65625 24.015625 45.921875 
Q 28.375 48.1875 33.59375 48.1875 
Q 44.578125 48.1875 50.953125 41.515625 
Q 57.328125 34.859375 57.328125 23.390625 
Q 57.328125 12.15625 50.6875 5.359375 
Q 44.046875 -1.421875 33.015625 -1.421875 
Q 20.359375 -1.421875 13.671875 8.265625 
Q 6.984375 17.96875 6.984375 36.375 
Q 6.984375 53.65625 15.1875 63.9375 
Q 23.390625 74.21875 37.203125 74.21875 
Q 40.921875 74.21875 44.703125 73.484375 
Q 48.484375 72.75 52.59375 71.296875 
z
" id="DejaVuSans-54"/>
    </defs>
    <g transform="translate(7.2 14.798437)scale(0.1 -0.1)">
     <use xlink:href="#DejaVuSans-71"/>
     <use x="77.490234" xlink:href="#DejaVuSans-108"/>
     <use x="105.273438" xlink:href="#DejaVuSans-111"/>
     <use x="166.455078" xlink:href="#DejaVuSans-98"/>
     <use x="229.931641" xlink:href="#DejaVuSans-97"/>
     <use x="291.210938" xlink:href="#DejaVuSans-108"/>
     <use x="318.994141" xlink:href="#DejaVuSans-32"/>
     <use x="350.78125" xlink:href="#DejaVuSans-80"/>
     <use x="411.083984" xlink:href="#DejaVuSans-104"/>
     <use x="474.462891" xlink:href="#DejaVuSans-97"/>
     <use x="535.742188" xlink:href="#DejaVuSans-115"/>
     <use x="587.841797" xlink:href="#DejaVuSans-101"/>
     <use x="649.365234" xlink:href="#DejaVuSans-58"/>
     <use x="683.056641" xlink:href="#DejaVuSans-32"/>
     <use x="714.84375" xlink:href="#DejaVuSans-51"/>
     <use x="778.466797" xlink:href="#DejaVuSans-46"/>
     <use x="810.253906" xlink:href="#DejaVuSans-55"/>
     <use x="873.876953" xlink:href="#DejaVuSans-48"/>
     <use x="937.5" xlink:href="#DejaVuSans-48"/>
     <use x="1001.123047" xlink:href="#DejaVuSans-54"/>
    </g>
   </g>
   <g id="patch_2">
    <path clip-path="url(#pa112e380cb)" d="M 71.931087 65.930812 
L 149.588666 65.930812 
L 149.588666 36.387662 
L 71.931087 36.387662 
z
" style="fill:#fa74a6;stroke:#fa74a6;stroke-linejoin:miter;stroke-width:1.5;"/>
   </g>
   <g id="patch_3">
    <path clip-path="url(#pa112e380cb)" d="M 71.931087 111.381812 
L 149.588666 111.381812 
L 149.588666 81.838662 
L 71.931087 81.838662 
z
" style="fill:#fa74a6;stroke:#fa74a6;stroke-linejoin:miter;stroke-width:1.5;"/>
   </g>
   <g id="patch_4">
    <path clip-path="url(#pa112e380cb)" d="M 77.235219 156.832812 
L 144.284534 156.832812 
L 144.284534 127.289662 
L 77.235219 127.289662 
z
" style="fill:#fa74a6;stroke:#fa74a6;stroke-linejoin:miter;stroke-width:1.5;"/>
   </g>
   <g id="patch_5">
    <path clip-path="url(#pa112e380cb)" d="M 178.936376 146.49271 
C 180.111616 146.49271 181.23888 146.025782 182.069901 145.194762 
C 182.900921 144.363741 183.367849 143.236478 183.367849 142.061237 
C 183.367849 140.885997 182.900921 139.758734 182.069901 138.927713 
C 181.23888 138.096693 180.111616 137.629765 178.936376 137.629765 
C 177.761136 137.629765 176.633872 138.096693 175.802852 138.927713 
C 174.971832 139.758734 174.504904 140.885997 174.504904 142.061237 
C 174.504904 143.236478 174.971832 144.363741 175.802852 145.194762 
C 176.633872 146.025782 177.761136 146.49271 178.936376 146.49271 
z
" style="fill:#6fa4ff;stroke:#6fa4ff;stroke-linejoin:miter;stroke-width:1.5;"/>
   </g>
   <g id="patch_6">
    <path clip-path="url(#pa112e380cb)" d="M 178.936376 61.49934 
C 181.678603 61.49934 184.308885 60.409842 186.247933 58.470794 
C 188.18698 56.531747 189.276479 53.901465 189.276479 51.159237 
C 189.276479 48.41701 188.18698 45.786728 186.247933 43.847681 
C 184.308885 41.908633 181.678603 40.819135 178.936376 40.819135 
C 176.194149 40.819135 173.563867 41.908633 171.62482 43.847681 
C 169.685772 45.786728 168.596274 48.41701 168.596274 51.159237 
C 168.596274 53.901465 169.685772 56.531747 171.62482 58.470794 
C 173.563867 60.409842 176.194149 61.49934 178.936376 61.49934 
z
" style="fill:#6fa4ff;stroke:#6fa4ff;stroke-linejoin:miter;stroke-width:2;"/>
   </g>
   <g id="patch_7">
    <path clip-path="url(#pa112e380cb)" d="M 225.714545 65.930812 
L 268.511207 65.930812 
L 268.511207 36.387662 
L 225.714545 36.387662 
z
" style="fill:#fa74a6;stroke:#fa74a6;stroke-linejoin:miter;stroke-width:1.5;"/>
   </g>
   <g id="patch_8">
    <path clip-path="url(#pa112e380cb)" d="M 213.354146 156.832812 
L 280.871606 156.832812 
L 280.871606 127.289662 
L 213.354146 127.289662 
z
" style="fill:#fa74a6;stroke:#fa74a6;stroke-linejoin:miter;stroke-width:1.5;"/>
   </g>
   <g id="patch_9">
    <path clip-path="url(#pa112e380cb)" d="M 315.289376 146.49271 
C 316.464616 146.49271 317.59188 146.025782 318.422901 145.194762 
C 319.253921 144.363741 319.720849 143.236478 319.720849 142.061237 
C 319.720849 140.885997 319.253921 139.758734 318.422901 138.927713 
C 317.59188 138.096693 316.464616 137.629765 315.289376 137.629765 
C 314.114136 137.629765 312.986872 138.096693 312.155852 138.927713 
C 311.324832 139.758734 310.857904 140.885997 310.857904 142.061237 
C 310.857904 143.236478 311.324832 144.363741 312.155852 145.194762 
C 312.986872 146.025782 314.114136 146.49271 315.289376 146.49271 
z
" style="fill:#6fa4ff;stroke:#6fa4ff;stroke-linejoin:miter;stroke-width:1.5;"/>
   </g>
   <g id="patch_10">
    <path clip-path="url(#pa112e380cb)" d="M 315.289376 61.49934 
C 318.031603 61.49934 320.661885 60.409842 322.600933 58.470794 
C 324.53998 56.531747 325.629479 53.901465 325.629479 51.159237 
C 325.629479 48.41701 324.53998 45.786728 322.600933 43.847681 
C 320.661885 41.908633 318.031603 40.819135 315.289376 40.819135 
C 312.547149 40.819135 309.916867 41.908633 307.97782 43.847681 
C 306.038772 45.786728 304.949274 48.41701 304.949274 51.159237 
C 304.949274 53.901465 306.038772 56.531747 307.97782 58.470794 
C 309.916867 60.409842 312.547149 61.49934 315.289376 61.49934 
z
" style="fill:#6fa4ff;stroke:#6fa4ff;stroke-linejoin:miter;stroke-width:2;"/>
   </g>
   <g id="patch_11">
    <path clip-path="url(#pa112e380cb)" d="M 365.521821 65.930812 
L 401.409931 65.930812 
L 401.409931 36.387662 
L 365.521821 36.387662 
z
" style="fill:#fa74a6;stroke:#fa74a6;stroke-linejoin:miter;stroke-width:1.5;"/>
   </g>
   <g id="patch_12">
    <path clip-path="url(#pa112e380cb)" d="M 350.795697 156.832812 
L 416.136055 156.832812 
L 416.136055 127.289662 
L 350.795697 127.289662 
z
" style="fill:#fa74a6;stroke:#fa74a6;stroke-linejoin:miter;stroke-width:1.5;"/>
   </g>
   <g id="patch_13">
    <path clip-path="url(#pa112e380cb)" d="M 451.642376 146.49271 
C 452.817616 146.49271 453.94488 146.025782 454.775901 145.194762 
C 455.606921 144.363741 456.073849 143.236478 456.073849 142.061237 
C 456.073849 140.885997 455.606921 139.758734 454.775901 138.927713 
C 453.94488 138.096693 452.817616 137.629765 451.642376 137.629765 
C 450.467136 137.629765 449.339872 138.096693 448.508852 138.927713 
C 447.677832 139.758734 447.210904 140.885997 447.210904 142.061237 
C 447.210904 143.236478 447.677832 144.363741 448.508852 145.194762 
C 449.339872 146.025782 450.467136 146.49271 451.642376 146.49271 
z
" style="fill:#6fa4ff;stroke:#6fa4ff;stroke-linejoin:miter;stroke-width:1.5;"/>
   </g>
   <g id="patch_14">
    <path clip-path="url(#pa112e380cb)" d="M 451.642376 61.49934 
C 454.384603 61.49934 457.014885 60.409842 458.953933 58.470794 
C 460.89298 56.531747 461.982479 53.901465 461.982479 51.159237 
C 461.982479 48.41701 460.89298 45.786728 458.953933 43.847681 
C 457.014885 41.908633 454.384603 40.819135 451.642376 40.819135 
C 448.900149 40.819135 446.269867 41.908633 444.33082 43.847681 
C 442.391772 45.786728 441.302274 48.41701 441.302274 51.159237 
C 441.302274 53.901465 442.391772 56.531747 444.33082 58.470794 
C 446.269867 60.409842 448.900149 61.49934 451.642376 61.49934 
z
" style="fill:#6fa4ff;stroke:#6fa4ff;stroke-linejoin:miter;stroke-width:2;"/>
   </g>
   <g id="patch_15">
    <path clip-path="url(#pa112e380cb)" d="M 480.187877 65.930812 
L 559.449876 65.930812 
L 559.449876 36.387662 
L 480.187877 36.387662 
z
" style="fill:#fa74a6;stroke:#fa74a6;stroke-linejoin:miter;stroke-width:1.5;"/>
   </g>
   <g id="patch_16">
    <path clip-path="url(#pa112e380cb)" d="M 485.539732 156.832812 
L 554.09802 156.832812 
L 554.09802 127.289662 
L 485.539732 127.289662 
z
" style="fill:#fa74a6;stroke:#fa74a6;stroke-linejoin:miter;stroke-width:1.5;"/>
   </g>
   <g id="patch_17">
    <path clip-path="url(#pa112e380cb)" d="M 587.995376 101.04171 
C 589.170616 101.04171 590.29788 100.574782 591.128901 99.743762 
C 591.959921 98.912741 592.426849 97.785478 592.426849 96.610237 
C 592.426849 95.434997 591.959921 94.307734 591.128901 93.476713 
C 590.29788 92.645693 589.170616 92.178765 587.995376 92.178765 
C 586.820136 92.178765 585.692872 92.645693 584.861852 93.476713 
C 584.030832 94.307734 583.563904 95.434997 583.563904 96.610237 
C 583.563904 97.785478 584.030832 98.912741 584.861852 99.743762 
C 585.692872 100.574782 586.820136 101.04171 587.995376 101.04171 
z
" style="fill:#6fa4ff;stroke:#6fa4ff;stroke-linejoin:miter;stroke-width:1.5;"/>
   </g>
   <g id="patch_18">
    <path clip-path="url(#pa112e380cb)" d="M 587.995376 61.49934 
C 590.737603 61.49934 593.367885 60.409842 595.306933 58.470794 
C 597.24598 56.531747 598.335479 53.901465 598.335479 51.159237 
C 598.335479 48.41701 597.24598 45.786728 595.306933 43.847681 
C 593.367885 41.908633 590.737603 40.819135 587.995376 40.819135 
C 585.253149 40.819135 582.622867 41.908633 580.68382 43.847681 
C 578.744772 45.786728 577.655274 48.41701 577.655274 51.159237 
C 577.655274 53.901465 578.744772 56.531747 580.68382 58.470794 
C 582.622867 60.409842 585.253149 61.49934 587.995376 61.49934 
z
" style="fill:#6fa4ff;stroke:#6fa4ff;stroke-linejoin:miter;stroke-width:2;"/>
   </g>
   <g id="patch_19">
    <path clip-path="url(#pa112e380cb)" d="M 634.678098 65.930812 
L 677.665654 65.930812 
L 677.665654 36.387662 
L 634.678098 36.387662 
z
" style="fill:#fa74a6;stroke:#fa74a6;stroke-linejoin:miter;stroke-width:1.5;"/>
   </g>
   <g id="patch_20">
    <path clip-path="url(#pa112e380cb)" d="M 619.76108 111.381812 
L 692.582672 111.381812 
L 692.582672 81.838662 
L 619.76108 81.838662 
z
" style="fill:#fa74a6;stroke:#fa74a6;stroke-linejoin:miter;stroke-width:1.5;"/>
   </g>
   <g id="patch_21">
    <path clip-path="url(#pa112e380cb)" d="M 724.348376 101.04171 
C 725.523616 101.04171 726.65088 100.574782 727.481901 99.743762 
C 728.312921 98.912741 728.779849 97.785478 728.779849 96.610237 
C 728.779849 95.434997 728.312921 94.307734 727.481901 93.476713 
C 726.65088 92.645693 725.523616 92.178765 724.348376 92.178765 
C 723.173136 92.178765 722.045872 92.645693 721.214852 93.476713 
C 720.383832 94.307734 719.916904 95.434997 719.916904 96.610237 
C 719.916904 97.785478 720.383832 98.912741 721.214852 99.743762 
C 722.045872 100.574782 723.173136 101.04171 724.348376 101.04171 
z
" style="fill:#6fa4ff;stroke:#6fa4ff;stroke-linejoin:miter;stroke-width:1.5;"/>
   </g>
   <g id="patch_22">
    <path clip-path="url(#pa112e380cb)" d="M 724.348376 61.49934 
C 727.090603 61.49934 729.720885 60.409842 731.659933 58.470794 
C 733.59898 56.531747 734.688479 53.901465 734.688479 51.159237 
C 734.688479 48.41701 733.59898 45.786728 731.659933 43.847681 
C 729.720885 41.908633 727.090603 40.819135 724.348376 40.819135 
C 721.606149 40.819135 718.975867 41.908633 717.03682 43.847681 
C 715.097772 45.786728 714.008274 48.41701 714.008274 51.159237 
C 714.008274 53.901465 715.097772 56.531747 717.03682 58.470794 
C 718.975867 60.409842 721.606149 61.49934 724.348376 61.49934 
z
" style="fill:#6fa4ff;stroke:#6fa4ff;stroke-linejoin:miter;stroke-width:2;"/>
   </g>
   <g id="patch_23">
    <path clip-path="url(#pa112e380cb)" d="M 774.580821 65.930812 
L 810.468931 65.930812 
L 810.468931 36.387662 
L 774.580821 36.387662 
z
" style="fill:#fa74a6;stroke:#fa74a6;stroke-linejoin:miter;stroke-width:1.5;"/>
   </g>
   <g id="patch_24">
    <path clip-path="url(#pa112e380cb)" d="M 759.950145 111.381812 
L 825.099608 111.381812 
L 825.099608 81.838662 
L 759.950145 81.838662 
z
" style="fill:#fa74a6;stroke:#fa74a6;stroke-linejoin:miter;stroke-width:1.5;"/>
   </g>
   <g id="patch_25">
    <path clip-path="url(#pa112e380cb)" d="M 860.701376 101.04171 
C 861.876616 101.04171 863.00388 100.574782 863.834901 99.743762 
C 864.665921 98.912741 865.132849 97.785478 865.132849 96.610237 
C 865.132849 95.434997 864.665921 94.307734 863.834901 93.476713 
C 863.00388 92.645693 861.876616 92.178765 860.701376 92.178765 
C 859.526136 92.178765 858.398872 92.645693 857.567852 93.476713 
C 856.736832 94.307734 856.269904 95.434997 856.269904 96.610237 
C 856.269904 97.785478 856.736832 98.912741 857.567852 99.743762 
C 858.398872 100.574782 859.526136 101.04171 860.701376 101.04171 
z
" style="fill:#6fa4ff;stroke:#6fa4ff;stroke-linejoin:miter;stroke-width:1.5;"/>
   </g>
   <g id="patch_26">
    <path clip-path="url(#pa112e380cb)" d="M 860.701376 61.49934 
C 863.443603 61.49934 866.073885 60.409842 868.012933 58.470794 
C 869.95198 56.531747 871.041479 53.901465 871.041479 51.159237 
C 871.041479 48.41701 869.95198 45.786728 868.012933 43.847681 
C 866.073885 41.908633 863.443603 40.819135 860.701376 40.819135 
C 857.959149 40.819135 855.328867 41.908633 853.38982 43.847681 
C 851.450772 45.786728 850.361274 48.41701 850.361274 51.159237 
C 850.361274 53.901465 851.450772 56.531747 853.38982 58.470794 
C 855.328867 60.409842 857.959149 61.49934 860.701376 61.49934 
z
" style="fill:#6fa4ff;stroke:#6fa4ff;stroke-linejoin:miter;stroke-width:2;"/>
   </g>
   <g id="patch_27">
    <path clip-path="url(#pa112e380cb)" d="M 885.553983 65.930812 
L 972.201769 65.930812 
L 972.201769 36.387662 
L 885.553983 36.387662 
z
" style="fill:#fa74a6;stroke:#fa74a6;stroke-linejoin:miter;stroke-width:1.5;"/>
   </g>
   <g id="patch_28">
    <path clip-path="url(#pa112e380cb)" d="M 890.905838 111.381812 
L 966.849914 111.381812 
L 966.849914 81.838662 
L 890.905838 81.838662 
z
" style="fill:#fa74a6;stroke:#fa74a6;stroke-linejoin:miter;stroke-width:1.5;"/>
   </g>
   <g id="patch_29">
    <path clip-path="url(#pa112e380cb)" d="M 997.054376 101.04171 
C 998.229616 101.04171 999.35688 100.574782 1000.187901 99.743762 
C 1001.018921 98.912741 1001.485849 97.785478 1001.485849 96.610237 
C 1001.485849 95.434997 1001.018921 94.307734 1000.187901 93.476713 
C 999.35688 92.645693 998.229616 92.178765 997.054376 92.178765 
C 995.879136 92.178765 994.751872 92.645693 993.920852 93.476713 
C 993.089832 94.307734 992.622904 95.434997 992.622904 96.610237 
C 992.622904 97.785478 993.089832 98.912741 993.920852 99.743762 
C 994.751872 100.574782 995.879136 101.04171 997.054376 101.04171 
z
" style="fill:#6fa4ff;stroke:#6fa4ff;stroke-linejoin:miter;stroke-width:1.5;"/>
   </g>
   <g id="patch_30">
    <path clip-path="url(#pa112e380cb)" d="M 997.054376 61.49934 
C 999.796603 61.49934 1002.426885 60.409842 1004.365933 58.470794 
C 1006.30498 56.531747 1007.394479 53.901465 1007.394479 51.159237 
C 1007.394479 48.41701 1006.30498 45.786728 1004.365933 43.847681 
C 1002.426885 41.908633 999.796603 40.819135 997.054376 40.819135 
C 994.312149 40.819135 991.681867 41.908633 989.74282 43.847681 
C 987.803772 45.786728 986.714274 48.41701 986.714274 51.159237 
C 986.714274 53.901465 987.803772 56.531747 989.74282 58.470794 
C 991.681867 60.409842 994.312149 61.49934 997.054376 61.49934 
z
" style="fill:#6fa4ff;stroke:#6fa4ff;stroke-linejoin:miter;stroke-width:2;"/>
   </g>
   <g id="patch_31">
    <path clip-path="url(#pa112e380cb)" d="M 1043.689375 65.930812 
L 1086.772378 65.930812 
L 1086.772378 36.387662 
L 1043.689375 36.387662 
z
" style="fill:#fa74a6;stroke:#fa74a6;stroke-linejoin:miter;stroke-width:1.5;"/>
   </g>
   <g id="patch_32">
    <path clip-path="url(#pa112e380cb)" d="M 1028.772357 111.381812 
L 1101.689396 111.381812 
L 1101.689396 81.838662 
L 1028.772357 81.838662 
z
" style="fill:#fa74a6;stroke:#fa74a6;stroke-linejoin:miter;stroke-width:1.5;"/>
   </g>
   <g id="patch_33">
    <path clip-path="url(#pa112e380cb)" d="M 1133.407376 101.04171 
C 1134.582616 101.04171 1135.70988 100.574782 1136.540901 99.743762 
C 1137.371921 98.912741 1137.838849 97.785478 1137.838849 96.610237 
C 1137.838849 95.434997 1137.371921 94.307734 1136.540901 93.476713 
C 1135.70988 92.645693 1134.582616 92.178765 1133.407376 92.178765 
C 1132.232136 92.178765 1131.104872 92.645693 1130.273852 93.476713 
C 1129.442832 94.307734 1128.975904 95.434997 1128.975904 96.610237 
C 1128.975904 97.785478 1129.442832 98.912741 1130.273852 99.743762 
C 1131.104872 100.574782 1132.232136 101.04171 1133.407376 101.04171 
z
" style="fill:#6fa4ff;stroke:#6fa4ff;stroke-linejoin:miter;stroke-width:1.5;"/>
   </g>
   <g id="patch_34">
    <path clip-path="url(#pa112e380cb)" d="M 1133.407376 61.49934 
C 1136.149603 61.49934 1138.779885 60.409842 1140.718933 58.470794 
C 1142.65798 56.531747 1143.747479 53.901465 1143.747479 51.159237 
C 1143.747479 48.41701 1142.65798 45.786728 1140.718933 43.847681 
C 1138.779885 41.908633 1136.149603 40.819135 1133.407376 40.819135 
C 1130.665149 40.819135 1128.034867 41.908633 1126.09582 43.847681 
C 1124.156772 45.786728 1123.067274 48.41701 1123.067274 51.159237 
C 1123.067274 53.901465 1124.156772 56.531747 1126.09582 58.470794 
C 1128.034867 60.409842 1130.665149 61.49934 1133.407376 61.49934 
z
" style="fill:#6fa4ff;stroke:#6fa4ff;stroke-linejoin:miter;stroke-width:2;"/>
   </g>
   <g id="patch_35">
    <path clip-path="url(#pa112e380cb)" d="M 1183.639821 65.930812 
L 1219.527931 65.930812 
L 1219.527931 36.387662 
L 1183.639821 36.387662 
z
" style="fill:#fa74a6;stroke:#fa74a6;stroke-linejoin:miter;stroke-width:1.5;"/>
   </g>
   <g id="patch_36">
    <path clip-path="url(#pa112e380cb)" d="M 1168.961421 111.381812 
L 1234.206331 111.381812 
L 1234.206331 81.838662 
L 1168.961421 81.838662 
z
" style="fill:#fa74a6;stroke:#fa74a6;stroke-linejoin:miter;stroke-width:1.5;"/>
   </g>
   <g id="patch_37">
    <path clip-path="url(#pa112e380cb)" d="M 1269.760376 101.04171 
C 1270.935616 101.04171 1272.06288 100.574782 1272.893901 99.743762 
C 1273.724921 98.912741 1274.191849 97.785478 1274.191849 96.610237 
C 1274.191849 95.434997 1273.724921 94.307734 1272.893901 93.476713 
C 1272.06288 92.645693 1270.935616 92.178765 1269.760376 92.178765 
C 1268.585136 92.178765 1267.457872 92.645693 1266.626852 93.476713 
C 1265.795832 94.307734 1265.328904 95.434997 1265.328904 96.610237 
C 1265.328904 97.785478 1265.795832 98.912741 1266.626852 99.743762 
C 1267.457872 100.574782 1268.585136 101.04171 1269.760376 101.04171 
z
" style="fill:#6fa4ff;stroke:#6fa4ff;stroke-linejoin:miter;stroke-width:1.5;"/>
   </g>
   <g id="patch_38">
    <path clip-path="url(#pa112e380cb)" d="M 1269.760376 61.49934 
C 1272.502603 61.49934 1275.132885 60.409842 1277.071933 58.470794 
C 1279.01098 56.531747 1280.100479 53.901465 1280.100479 51.159237 
C 1280.100479 48.41701 1279.01098 45.786728 1277.071933 43.847681 
C 1275.132885 41.908633 1272.502603 40.819135 1269.760376 40.819135 
C 1267.018149 40.819135 1264.387867 41.908633 1262.44882 43.847681 
C 1260.509772 45.786728 1259.420274 48.41701 1259.420274 51.159237 
C 1259.420274 53.901465 1260.509772 56.531747 1262.44882 58.470794 
C 1264.387867 60.409842 1267.018149 61.49934 1269.760376 61.49934 
z
" style="fill:#6fa4ff;stroke:#6fa4ff;stroke-linejoin:miter;stroke-width:2;"/>
   </g>
   <g id="patch_39">
    <path clip-path="url(#pa112e380cb)" d="M 1297.40822 65.930812 
L 1378.465533 65.930812 
L 1378.465533 36.387662 
L 1297.40822 36.387662 
z
" style="fill:#fa74a6;stroke:#fa74a6;stroke-linejoin:miter;stroke-width:1.5;"/>
   </g>
   <g id="patch_40">
    <path clip-path="url(#pa112e380cb)" d="M 1298.3536 111.381812 
L 1377.520152 111.381812 
L 1377.520152 81.838662 
L 1298.3536 81.838662 
z
" style="fill:#fa74a6;stroke:#fa74a6;stroke-linejoin:miter;stroke-width:1.5;"/>
   </g>
   <g id="line2d_13">
    <path clip-path="url(#pa112e380cb)" d="M 178.936376 57.067867 
L 178.936376 45.250607 
" style="fill:none;stroke:#ffffff;stroke-linecap:square;stroke-width:2;"/>
   </g>
   <g id="line2d_14">
    <path clip-path="url(#pa112e380cb)" d="M 173.027746 51.159237 
L 184.845006 51.159237 
" style="fill:none;stroke:#ffffff;stroke-linecap:square;stroke-width:2;"/>
   </g>
   <g id="line2d_15">
    <path clip-path="url(#pa112e380cb)" d="M 315.289376 57.067867 
L 315.289376 45.250607 
" style="fill:none;stroke:#ffffff;stroke-linecap:square;stroke-width:2;"/>
   </g>
   <g id="line2d_16">
    <path clip-path="url(#pa112e380cb)" d="M 309.380746 51.159237 
L 321.198006 51.159237 
" style="fill:none;stroke:#ffffff;stroke-linecap:square;stroke-width:2;"/>
   </g>
   <g id="line2d_17">
    <path clip-path="url(#pa112e380cb)" d="M 451.642376 57.067867 
L 451.642376 45.250607 
" style="fill:none;stroke:#ffffff;stroke-linecap:square;stroke-width:2;"/>
   </g>
   <g id="line2d_18">
    <path clip-path="url(#pa112e380cb)" d="M 445.733746 51.159237 
L 457.551006 51.159237 
" style="fill:none;stroke:#ffffff;stroke-linecap:square;stroke-width:2;"/>
   </g>
   <g id="line2d_19">
    <path clip-path="url(#pa112e380cb)" d="M 587.995376 57.067867 
L 587.995376 45.250607 
" style="fill:none;stroke:#ffffff;stroke-linecap:square;stroke-width:2;"/>
   </g>
   <g id="line2d_20">
    <path clip-path="url(#pa112e380cb)" d="M 582.086746 51.159237 
L 593.904006 51.159237 
" style="fill:none;stroke:#ffffff;stroke-linecap:square;stroke-width:2;"/>
   </g>
   <g id="line2d_21">
    <path clip-path="url(#pa112e380cb)" d="M 724.348376 57.067867 
L 724.348376 45.250607 
" style="fill:none;stroke:#ffffff;stroke-linecap:square;stroke-width:2;"/>
   </g>
   <g id="line2d_22">
    <path clip-path="url(#pa112e380cb)" d="M 718.439746 51.159237 
L 730.257006 51.159237 
" style="fill:none;stroke:#ffffff;stroke-linecap:square;stroke-width:2;"/>
   </g>
   <g id="line2d_23">
    <path clip-path="url(#pa112e380cb)" d="M 860.701376 57.067867 
L 860.701376 45.250607 
" style="fill:none;stroke:#ffffff;stroke-linecap:square;stroke-width:2;"/>
   </g>
   <g id="line2d_24">
    <path clip-path="url(#pa112e380cb)" d="M 854.792746 51.159237 
L 866.610006 51.159237 
" style="fill:none;stroke:#ffffff;stroke-linecap:square;stroke-width:2;"/>
   </g>
   <g id="line2d_25">
    <path clip-path="url(#pa112e380cb)" d="M 997.054376 57.067867 
L 997.054376 45.250607 
" style="fill:none;stroke:#ffffff;stroke-linecap:square;stroke-width:2;"/>
   </g>
   <g id="line2d_26">
    <path clip-path="url(#pa112e380cb)" d="M 991.145746 51.159237 
L 1002.963006 51.159237 
" style="fill:none;stroke:#ffffff;stroke-linecap:square;stroke-width:2;"/>
   </g>
   <g id="line2d_27">
    <path clip-path="url(#pa112e380cb)" d="M 1133.407376 57.067867 
L 1133.407376 45.250607 
" style="fill:none;stroke:#ffffff;stroke-linecap:square;stroke-width:2;"/>
   </g>
   <g id="line2d_28">
    <path clip-path="url(#pa112e380cb)" d="M 1127.498746 51.159237 
L 1139.316006 51.159237 
" style="fill:none;stroke:#ffffff;stroke-linecap:square;stroke-width:2;"/>
   </g>
   <g id="line2d_29">
    <path clip-path="url(#pa112e380cb)" d="M 1269.760376 57.067867 
L 1269.760376 45.250607 
" style="fill:none;stroke:#ffffff;stroke-linecap:square;stroke-width:2;"/>
   </g>
   <g id="line2d_30">
    <path clip-path="url(#pa112e380cb)" d="M 1263.851746 51.159237 
L 1275.669006 51.159237 
" style="fill:none;stroke:#ffffff;stroke-linecap:square;stroke-width:2;"/>
   </g>
   <g id="text_2">
    <g clip-path="url(#pa112e380cb)">
     <!-- $\mathrm{U}_3$ -->
     <defs>
      <path d="M 8.6875 72.90625 
L 18.609375 72.90625 
L 18.609375 28.609375 
Q 18.609375 16.890625 22.84375 11.734375 
Q 27.09375 6.59375 36.625 6.59375 
Q 46.09375 6.59375 50.34375 11.734375 
Q 54.59375 16.890625 54.59375 28.609375 
L 54.59375 72.90625 
L 64.5 72.90625 
L 64.5 27.390625 
Q 64.5 13.140625 57.4375 5.859375 
Q 50.390625 -1.421875 36.625 -1.421875 
Q 22.796875 -1.421875 15.734375 5.859375 
Q 8.6875 13.140625 8.6875 27.390625 
z
" id="DejaVuSans-85"/>
     </defs>
     <g transform="translate(102.829876 50.314952)scale(0.13 -0.13)">
      <use transform="translate(0 0.09375)" xlink:href="#DejaVuSans-85"/>
      <use transform="translate(74.150391 -16.3125)scale(0.7)" xlink:href="#DejaVuSans-51"/>
     </g>
    </g>
   </g>
   <g id="text_3">
    <g clip-path="url(#pa112e380cb)">
     <!-- 0.418, 4.57, 0.554 -->
     <defs>
      <path d="M 37.796875 64.3125 
L 12.890625 25.390625 
L 37.796875 25.390625 
z
M 35.203125 72.90625 
L 47.609375 72.90625 
L 47.609375 25.390625 
L 58.015625 25.390625 
L 58.015625 17.1875 
L 47.609375 17.1875 
L 47.609375 0 
L 37.796875 0 
L 37.796875 17.1875 
L 4.890625 17.1875 
L 4.890625 26.703125 
z
" id="DejaVuSans-52"/>
      <path d="M 12.40625 8.296875 
L 28.515625 8.296875 
L 28.515625 63.921875 
L 10.984375 60.40625 
L 10.984375 69.390625 
L 28.421875 72.90625 
L 38.28125 72.90625 
L 38.28125 8.296875 
L 54.390625 8.296875 
L 54.390625 0 
L 12.40625 0 
z
" id="DejaVuSans-49"/>
      <path d="M 31.78125 34.625 
Q 24.75 34.625 20.71875 30.859375 
Q 16.703125 27.09375 16.703125 20.515625 
Q 16.703125 13.921875 20.71875 10.15625 
Q 24.75 6.390625 31.78125 6.390625 
Q 38.8125 6.390625 42.859375 10.171875 
Q 46.921875 13.96875 46.921875 20.515625 
Q 46.921875 27.09375 42.890625 30.859375 
Q 38.875 34.625 31.78125 34.625 
z
M 21.921875 38.8125 
Q 15.578125 40.375 12.03125 44.71875 
Q 8.5 49.078125 8.5 55.328125 
Q 8.5 64.0625 14.71875 69.140625 
Q 20.953125 74.21875 31.78125 74.21875 
Q 42.671875 74.21875 48.875 69.140625 
Q 55.078125 64.0625 55.078125 55.328125 
Q 55.078125 49.078125 51.53125 44.71875 
Q 48 40.375 41.703125 38.8125 
Q 48.828125 37.15625 52.796875 32.3125 
Q 56.78125 27.484375 56.78125 20.515625 
Q 56.78125 9.90625 50.3125 4.234375 
Q 43.84375 -1.421875 31.78125 -1.421875 
Q 19.734375 -1.421875 13.25 4.234375 
Q 6.78125 9.90625 6.78125 20.515625 
Q 6.78125 27.484375 10.78125 32.3125 
Q 14.796875 37.15625 21.921875 38.8125 
z
M 18.3125 54.390625 
Q 18.3125 48.734375 21.84375 45.5625 
Q 25.390625 42.390625 31.78125 42.390625 
Q 38.140625 42.390625 41.71875 45.5625 
Q 45.3125 48.734375 45.3125 54.390625 
Q 45.3125 60.0625 41.71875 63.234375 
Q 38.140625 66.40625 31.78125 66.40625 
Q 25.390625 66.40625 21.84375 63.234375 
Q 18.3125 60.0625 18.3125 54.390625 
z
" id="DejaVuSans-56"/>
      <path d="M 11.71875 12.40625 
L 22.015625 12.40625 
L 22.015625 4 
L 14.015625 -11.625 
L 7.71875 -11.625 
L 11.71875 4 
z
" id="DejaVuSans-44"/>
      <path d="M 10.796875 72.90625 
L 49.515625 72.90625 
L 49.515625 64.59375 
L 19.828125 64.59375 
L 19.828125 46.734375 
Q 21.96875 47.46875 24.109375 47.828125 
Q 26.265625 48.1875 28.421875 48.1875 
Q 40.625 48.1875 47.75 41.5 
Q 54.890625 34.8125 54.890625 23.390625 
Q 54.890625 11.625 47.5625 5.09375 
Q 40.234375 -1.421875 26.90625 -1.421875 
Q 22.3125 -1.421875 17.546875 -0.640625 
Q 12.796875 0.140625 7.71875 1.703125 
L 7.71875 11.625 
Q 12.109375 9.234375 16.796875 8.0625 
Q 21.484375 6.890625 26.703125 6.890625 
Q 35.15625 6.890625 40.078125 11.328125 
Q 45.015625 15.765625 45.015625 23.390625 
Q 45.015625 31 40.078125 35.4375 
Q 35.15625 39.890625 26.703125 39.890625 
Q 22.75 39.890625 18.8125 39.015625 
Q 14.890625 38.140625 10.796875 36.28125 
z
" id="DejaVuSans-53"/>
     </defs>
     <g transform="translate(73.866126 62.229682)scale(0.08 -0.08)">
      <use xlink:href="#DejaVuSans-48"/>
      <use x="63.623047" xlink:href="#DejaVuSans-46"/>
      <use x="95.410156" xlink:href="#DejaVuSans-52"/>
      <use x="159.033203" xlink:href="#DejaVuSans-49"/>
      <use x="222.65625" xlink:href="#DejaVuSans-56"/>
      <use x="286.279297" xlink:href="#DejaVuSans-44"/>
      <use x="318.066406" xlink:href="#DejaVuSans-32"/>
      <use x="349.853516" xlink:href="#DejaVuSans-52"/>
      <use x="413.476562" xlink:href="#DejaVuSans-46"/>
      <use x="445.263672" xlink:href="#DejaVuSans-53"/>
      <use x="508.886719" xlink:href="#DejaVuSans-55"/>
      <use x="572.509766" xlink:href="#DejaVuSans-44"/>
      <use x="604.296875" xlink:href="#DejaVuSans-32"/>
      <use x="636.083984" xlink:href="#DejaVuSans-48"/>
      <use x="699.707031" xlink:href="#DejaVuSans-46"/>
      <use x="731.494141" xlink:href="#DejaVuSans-53"/>
      <use x="795.117188" xlink:href="#DejaVuSans-53"/>
      <use x="858.740234" xlink:href="#DejaVuSans-52"/>
     </g>
    </g>
   </g>
   <g id="text_4">
    <g clip-path="url(#pa112e380cb)">
     <!-- $\mathrm{U}_3$ -->
     <g transform="translate(102.829876 95.765952)scale(0.13 -0.13)">
      <use transform="translate(0 0.09375)" xlink:href="#DejaVuSans-85"/>
      <use transform="translate(74.150391 -16.3125)scale(0.7)" xlink:href="#DejaVuSans-51"/>
     </g>
    </g>
   </g>
   <g id="text_5">
    <g clip-path="url(#pa112e380cb)">
     <!-- 0.897, 3.62, 0.901 -->
     <defs>
      <path d="M 10.984375 1.515625 
L 10.984375 10.5 
Q 14.703125 8.734375 18.5 7.8125 
Q 22.3125 6.890625 25.984375 6.890625 
Q 35.75 6.890625 40.890625 13.453125 
Q 46.046875 20.015625 46.78125 33.40625 
Q 43.953125 29.203125 39.59375 26.953125 
Q 35.25 24.703125 29.984375 24.703125 
Q 19.046875 24.703125 12.671875 31.3125 
Q 6.296875 37.9375 6.296875 49.421875 
Q 6.296875 60.640625 12.9375 67.421875 
Q 19.578125 74.21875 30.609375 74.21875 
Q 43.265625 74.21875 49.921875 64.515625 
Q 56.59375 54.828125 56.59375 36.375 
Q 56.59375 19.140625 48.40625 8.859375 
Q 40.234375 -1.421875 26.421875 -1.421875 
Q 22.703125 -1.421875 18.890625 -0.6875 
Q 15.09375 0.046875 10.984375 1.515625 
z
M 30.609375 32.421875 
Q 37.25 32.421875 41.125 36.953125 
Q 45.015625 41.5 45.015625 49.421875 
Q 45.015625 57.28125 41.125 61.84375 
Q 37.25 66.40625 30.609375 66.40625 
Q 23.96875 66.40625 20.09375 61.84375 
Q 16.21875 57.28125 16.21875 49.421875 
Q 16.21875 41.5 20.09375 36.953125 
Q 23.96875 32.421875 30.609375 32.421875 
z
" id="DejaVuSans-57"/>
      <path d="M 19.1875 8.296875 
L 53.609375 8.296875 
L 53.609375 0 
L 7.328125 0 
L 7.328125 8.296875 
Q 12.9375 14.109375 22.625 23.890625 
Q 32.328125 33.6875 34.8125 36.53125 
Q 39.546875 41.84375 41.421875 45.53125 
Q 43.3125 49.21875 43.3125 52.78125 
Q 43.3125 58.59375 39.234375 62.25 
Q 35.15625 65.921875 28.609375 65.921875 
Q 23.96875 65.921875 18.8125 64.3125 
Q 13.671875 62.703125 7.8125 59.421875 
L 7.8125 69.390625 
Q 13.765625 71.78125 18.9375 73 
Q 24.125 74.21875 28.421875 74.21875 
Q 39.75 74.21875 46.484375 68.546875 
Q 53.21875 62.890625 53.21875 53.421875 
Q 53.21875 48.921875 51.53125 44.890625 
Q 49.859375 40.875 45.40625 35.40625 
Q 44.1875 33.984375 37.640625 27.21875 
Q 31.109375 20.453125 19.1875 8.296875 
z
" id="DejaVuSans-50"/>
     </defs>
     <g transform="translate(73.866126 107.680682)scale(0.08 -0.08)">
      <use xlink:href="#DejaVuSans-48"/>
      <use x="63.623047" xlink:href="#DejaVuSans-46"/>
      <use x="95.410156" xlink:href="#DejaVuSans-56"/>
      <use x="159.033203" xlink:href="#DejaVuSans-57"/>
      <use x="222.65625" xlink:href="#DejaVuSans-55"/>
      <use x="286.279297" xlink:href="#DejaVuSans-44"/>
      <use x="318.066406" xlink:href="#DejaVuSans-32"/>
      <use x="349.853516" xlink:href="#DejaVuSans-51"/>
      <use x="413.476562" xlink:href="#DejaVuSans-46"/>
      <use x="445.263672" xlink:href="#DejaVuSans-54"/>
      <use x="508.886719" xlink:href="#DejaVuSans-50"/>
      <use x="572.509766" xlink:href="#DejaVuSans-44"/>
      <use x="604.296875" xlink:href="#DejaVuSans-32"/>
      <use x="636.083984" xlink:href="#DejaVuSans-48"/>
      <use x="699.707031" xlink:href="#DejaVuSans-46"/>
      <use x="731.494141" xlink:href="#DejaVuSans-57"/>
      <use x="795.117188" xlink:href="#DejaVuSans-48"/>
      <use x="858.740234" xlink:href="#DejaVuSans-49"/>
     </g>
    </g>
   </g>
   <g id="text_6">
    <g clip-path="url(#pa112e380cb)">
     <!-- $\mathrm{U}_3$ -->
     <g transform="translate(102.829876 141.216952)scale(0.13 -0.13)">
      <use transform="translate(0 0.09375)" xlink:href="#DejaVuSans-85"/>
      <use transform="translate(74.150391 -16.3125)scale(0.7)" xlink:href="#DejaVuSans-51"/>
     </g>
    </g>
   </g>
   <g id="text_7">
    <g clip-path="url(#pa112e380cb)">
     <!-- 1.76, 2.92, 1.26 -->
     <g transform="translate(78.956126 153.131682)scale(0.08 -0.08)">
      <use xlink:href="#DejaVuSans-49"/>
      <use x="63.623047" xlink:href="#DejaVuSans-46"/>
      <use x="95.410156" xlink:href="#DejaVuSans-55"/>
      <use x="159.033203" xlink:href="#DejaVuSans-54"/>
      <use x="222.65625" xlink:href="#DejaVuSans-44"/>
      <use x="254.443359" xlink:href="#DejaVuSans-32"/>
      <use x="286.230469" xlink:href="#DejaVuSans-50"/>
      <use x="349.853516" xlink:href="#DejaVuSans-46"/>
      <use x="381.640625" xlink:href="#DejaVuSans-57"/>
      <use x="445.263672" xlink:href="#DejaVuSans-50"/>
      <use x="508.886719" xlink:href="#DejaVuSans-44"/>
      <use x="540.673828" xlink:href="#DejaVuSans-32"/>
      <use x="572.460938" xlink:href="#DejaVuSans-49"/>
      <use x="636.083984" xlink:href="#DejaVuSans-46"/>
      <use x="667.871094" xlink:href="#DejaVuSans-50"/>
      <use x="731.494141" xlink:href="#DejaVuSans-54"/>
     </g>
    </g>
   </g>
   <g id="text_8">
    <g clip-path="url(#pa112e380cb)">
     <!-- $\mathrm{U}_2$ -->
     <g transform="translate(239.182876 50.314952)scale(0.13 -0.13)">
      <use transform="translate(0 0.09375)" xlink:href="#DejaVuSans-85"/>
      <use transform="translate(74.150391 -16.3125)scale(0.7)" xlink:href="#DejaVuSans-50"/>
     </g>
    </g>
   </g>
   <g id="text_9">
    <g clip-path="url(#pa112e380cb)">
     <!-- $-$$\pi$, $-$3.06 -->
     <defs>
      <path d="M 10.59375 35.5 
L 73.1875 35.5 
L 73.1875 27.203125 
L 10.59375 27.203125 
z
" id="DejaVuSans-8722"/>
      <path d="M 9.125 54.6875 
L 61.53125 54.6875 
L 59.765625 45.703125 
L 52.875 45.703125 
L 46.34375 12.109375 
Q 45.65625 8.59375 46.578125 7.03125 
Q 47.46875 5.515625 50.140625 5.515625 
Q 50.875 5.515625 51.953125 5.671875 
Q 53.078125 5.765625 53.421875 5.8125 
L 52.15625 -0.6875 
Q 50.34375 -1.3125 48.484375 -1.609375 
Q 46.578125 -1.90625 44.78125 -1.90625 
Q 38.921875 -1.90625 37.3125 1.265625 
Q 35.6875 4.5 37.359375 13.09375 
L 43.703125 45.703125 
L 23.53125 45.703125 
L 14.65625 0 
L 5.46875 0 
L 14.359375 45.703125 
L 7.375 45.703125 
z
" id="DejaVuSans-Oblique-960"/>
     </defs>
     <g transform="translate(226.512876 62.229682)scale(0.08 -0.08)">
      <use transform="translate(0 0.78125)" xlink:href="#DejaVuSans-8722"/>
      <use transform="translate(83.789062 0.78125)" xlink:href="#DejaVuSans-Oblique-960"/>
      <use transform="translate(143.994141 0.78125)" xlink:href="#DejaVuSans-44"/>
      <use transform="translate(175.78125 0.78125)" xlink:href="#DejaVuSans-32"/>
      <use transform="translate(207.568359 0.78125)" xlink:href="#DejaVuSans-8722"/>
      <use transform="translate(291.357422 0.78125)" xlink:href="#DejaVuSans-51"/>
      <use transform="translate(354.980469 0.78125)" xlink:href="#DejaVuSans-46"/>
      <use transform="translate(386.767578 0.78125)" xlink:href="#DejaVuSans-48"/>
      <use transform="translate(450.390625 0.78125)" xlink:href="#DejaVuSans-54"/>
     </g>
    </g>
   </g>
   <g id="text_10">
    <g clip-path="url(#pa112e380cb)">
     <!-- $\mathrm{U}_3$ -->
     <g transform="translate(239.182876 141.216952)scale(0.13 -0.13)">
      <use transform="translate(0 0.09375)" xlink:href="#DejaVuSans-85"/>
      <use transform="translate(74.150391 -16.3125)scale(0.7)" xlink:href="#DejaVuSans-51"/>
     </g>
    </g>
   </g>
   <g id="text_11">
    <g clip-path="url(#pa112e380cb)">
     <!-- 1.02, $-$3$\pi$/2, $\pi$/2 -->
     <defs>
      <path d="M 25.390625 72.90625 
L 33.6875 72.90625 
L 8.296875 -9.28125 
L 0 -9.28125 
z
" id="DejaVuSans-47"/>
     </defs>
     <g transform="translate(214.872876 153.131682)scale(0.08 -0.08)">
      <use transform="translate(0 0.78125)" xlink:href="#DejaVuSans-49"/>
      <use transform="translate(63.623047 0.78125)" xlink:href="#DejaVuSans-46"/>
      <use transform="translate(95.410156 0.78125)" xlink:href="#DejaVuSans-48"/>
      <use transform="translate(159.033203 0.78125)" xlink:href="#DejaVuSans-50"/>
      <use transform="translate(222.65625 0.78125)" xlink:href="#DejaVuSans-44"/>
      <use transform="translate(254.443359 0.78125)" xlink:href="#DejaVuSans-32"/>
      <use transform="translate(286.230469 0.78125)" xlink:href="#DejaVuSans-8722"/>
      <use transform="translate(370.019531 0.78125)" xlink:href="#DejaVuSans-51"/>
      <use transform="translate(433.642578 0.78125)" xlink:href="#DejaVuSans-Oblique-960"/>
      <use transform="translate(493.847656 0.78125)" xlink:href="#DejaVuSans-47"/>
      <use transform="translate(523.914062 0.78125)" xlink:href="#DejaVuSans-50"/>
      <use transform="translate(587.537109 0.78125)" xlink:href="#DejaVuSans-44"/>
      <use transform="translate(619.324219 0.78125)" xlink:href="#DejaVuSans-32"/>
      <use transform="translate(651.111328 0.78125)" xlink:href="#DejaVuSans-Oblique-960"/>
      <use transform="translate(711.316406 0.78125)" xlink:href="#DejaVuSans-47"/>
      <use transform="translate(741.382812 0.78125)" xlink:href="#DejaVuSans-50"/>
     </g>
    </g>
   </g>
   <g id="text_12">
    <g clip-path="url(#pa112e380cb)">
     <!-- $\mathrm{U}_2$ -->
     <g transform="translate(375.535876 50.314952)scale(0.13 -0.13)">
      <use transform="translate(0 0.09375)" xlink:href="#DejaVuSans-85"/>
      <use transform="translate(74.150391 -16.3125)scale(0.7)" xlink:href="#DejaVuSans-50"/>
     </g>
    </g>
   </g>
   <g id="text_13">
    <g clip-path="url(#pa112e380cb)">
     <!-- 0, $-$3$\pi$/2 -->
     <g transform="translate(366.305876 62.229682)scale(0.08 -0.08)">
      <use transform="translate(0 0.78125)" xlink:href="#DejaVuSans-48"/>
      <use transform="translate(63.623047 0.78125)" xlink:href="#DejaVuSans-44"/>
      <use transform="translate(95.410156 0.78125)" xlink:href="#DejaVuSans-32"/>
      <use transform="translate(127.197266 0.78125)" xlink:href="#DejaVuSans-8722"/>
      <use transform="translate(210.986328 0.78125)" xlink:href="#DejaVuSans-51"/>
      <use transform="translate(274.609375 0.78125)" xlink:href="#DejaVuSans-Oblique-960"/>
      <use transform="translate(334.814453 0.78125)" xlink:href="#DejaVuSans-47"/>
      <use transform="translate(364.880859 0.78125)" xlink:href="#DejaVuSans-50"/>
     </g>
    </g>
   </g>
   <g id="text_14">
    <g clip-path="url(#pa112e380cb)">
     <!-- $\mathrm{U}_3$ -->
     <g transform="translate(375.535876 141.216952)scale(0.13 -0.13)">
      <use transform="translate(0 0.09375)" xlink:href="#DejaVuSans-85"/>
      <use transform="translate(74.150391 -16.3125)scale(0.7)" xlink:href="#DejaVuSans-51"/>
     </g>
    </g>
   </g>
   <g id="text_15">
    <g clip-path="url(#pa112e380cb)">
     <!-- 0.264, 0, $-$3$\pi$/2 -->
     <g transform="translate(352.545876 153.131682)scale(0.08 -0.08)">
      <use transform="translate(0 0.78125)" xlink:href="#DejaVuSans-48"/>
      <use transform="translate(63.623047 0.78125)" xlink:href="#DejaVuSans-46"/>
      <use transform="translate(89.910156 0.78125)" xlink:href="#DejaVuSans-50"/>
      <use transform="translate(153.533203 0.78125)" xlink:href="#DejaVuSans-54"/>
      <use transform="translate(217.15625 0.78125)" xlink:href="#DejaVuSans-52"/>
      <use transform="translate(280.779297 0.78125)" xlink:href="#DejaVuSans-44"/>
      <use transform="translate(312.566406 0.78125)" xlink:href="#DejaVuSans-32"/>
      <use transform="translate(344.353516 0.78125)" xlink:href="#DejaVuSans-48"/>
      <use transform="translate(407.976562 0.78125)" xlink:href="#DejaVuSans-44"/>
      <use transform="translate(439.763672 0.78125)" xlink:href="#DejaVuSans-32"/>
      <use transform="translate(471.550781 0.78125)" xlink:href="#DejaVuSans-8722"/>
      <use transform="translate(555.339844 0.78125)" xlink:href="#DejaVuSans-51"/>
      <use transform="translate(618.962891 0.78125)" xlink:href="#DejaVuSans-Oblique-960"/>
      <use transform="translate(679.167969 0.78125)" xlink:href="#DejaVuSans-47"/>
      <use transform="translate(709.234375 0.78125)" xlink:href="#DejaVuSans-50"/>
     </g>
    </g>
   </g>
   <g id="text_16">
    <g clip-path="url(#pa112e380cb)">
     <!-- $\mathrm{U}_3$ -->
     <g transform="translate(511.888876 50.314952)scale(0.13 -0.13)">
      <use transform="translate(0 0.09375)" xlink:href="#DejaVuSans-85"/>
      <use transform="translate(74.150391 -16.3125)scale(0.7)" xlink:href="#DejaVuSans-51"/>
     </g>
    </g>
   </g>
   <g id="text_17">
    <g clip-path="url(#pa112e380cb)">
     <!-- 0.868, $-$1.36, 3.54 -->
     <g transform="translate(482.218876 62.229682)scale(0.08 -0.08)">
      <use transform="translate(0 0.78125)" xlink:href="#DejaVuSans-48"/>
      <use transform="translate(63.623047 0.78125)" xlink:href="#DejaVuSans-46"/>
      <use transform="translate(92.785156 0.78125)" xlink:href="#DejaVuSans-56"/>
      <use transform="translate(156.408203 0.78125)" xlink:href="#DejaVuSans-54"/>
      <use transform="translate(220.03125 0.78125)" xlink:href="#DejaVuSans-56"/>
      <use transform="translate(283.654297 0.78125)" xlink:href="#DejaVuSans-44"/>
      <use transform="translate(315.441406 0.78125)" xlink:href="#DejaVuSans-32"/>
      <use transform="translate(347.228516 0.78125)" xlink:href="#DejaVuSans-8722"/>
      <use transform="translate(431.017578 0.78125)" xlink:href="#DejaVuSans-49"/>
      <use transform="translate(494.640625 0.78125)" xlink:href="#DejaVuSans-46"/>
      <use transform="translate(526.427734 0.78125)" xlink:href="#DejaVuSans-51"/>
      <use transform="translate(590.050781 0.78125)" xlink:href="#DejaVuSans-54"/>
      <use transform="translate(653.673828 0.78125)" xlink:href="#DejaVuSans-44"/>
      <use transform="translate(685.460938 0.78125)" xlink:href="#DejaVuSans-32"/>
      <use transform="translate(717.248047 0.78125)" xlink:href="#DejaVuSans-51"/>
      <use transform="translate(780.871094 0.78125)" xlink:href="#DejaVuSans-46"/>
      <use transform="translate(812.658203 0.78125)" xlink:href="#DejaVuSans-53"/>
      <use transform="translate(876.28125 0.78125)" xlink:href="#DejaVuSans-52"/>
     </g>
    </g>
   </g>
   <g id="text_18">
    <g clip-path="url(#pa112e380cb)">
     <!-- $\mathrm{U}_3$ -->
     <g transform="translate(511.888876 141.216952)scale(0.13 -0.13)">
      <use transform="translate(0 0.09375)" xlink:href="#DejaVuSans-85"/>
      <use transform="translate(74.150391 -16.3125)scale(0.7)" xlink:href="#DejaVuSans-51"/>
     </g>
    </g>
   </g>
   <g id="text_19">
    <g clip-path="url(#pa112e380cb)">
     <!-- 1.31, $-$2.9, 1.06 -->
     <g transform="translate(487.178876 153.131682)scale(0.08 -0.08)">
      <use transform="translate(0 0.78125)" xlink:href="#DejaVuSans-49"/>
      <use transform="translate(63.623047 0.78125)" xlink:href="#DejaVuSans-46"/>
      <use transform="translate(95.410156 0.78125)" xlink:href="#DejaVuSans-51"/>
      <use transform="translate(159.033203 0.78125)" xlink:href="#DejaVuSans-49"/>
      <use transform="translate(222.65625 0.78125)" xlink:href="#DejaVuSans-44"/>
      <use transform="translate(254.443359 0.78125)" xlink:href="#DejaVuSans-32"/>
      <use transform="translate(286.230469 0.78125)" xlink:href="#DejaVuSans-8722"/>
      <use transform="translate(370.019531 0.78125)" xlink:href="#DejaVuSans-50"/>
      <use transform="translate(433.642578 0.78125)" xlink:href="#DejaVuSans-46"/>
      <use transform="translate(465.429688 0.78125)" xlink:href="#DejaVuSans-57"/>
      <use transform="translate(529.052734 0.78125)" xlink:href="#DejaVuSans-44"/>
      <use transform="translate(560.839844 0.78125)" xlink:href="#DejaVuSans-32"/>
      <use transform="translate(592.626953 0.78125)" xlink:href="#DejaVuSans-49"/>
      <use transform="translate(656.25 0.78125)" xlink:href="#DejaVuSans-46"/>
      <use transform="translate(688.037109 0.78125)" xlink:href="#DejaVuSans-48"/>
      <use transform="translate(751.660156 0.78125)" xlink:href="#DejaVuSans-54"/>
     </g>
    </g>
   </g>
   <g id="text_20">
    <g clip-path="url(#pa112e380cb)">
     <!-- $\mathrm{U}_2$ -->
     <g transform="translate(648.241876 50.314952)scale(0.13 -0.13)">
      <use transform="translate(0 0.09375)" xlink:href="#DejaVuSans-85"/>
      <use transform="translate(74.150391 -16.3125)scale(0.7)" xlink:href="#DejaVuSans-50"/>
     </g>
    </g>
   </g>
   <g id="text_21">
    <g clip-path="url(#pa112e380cb)">
     <!-- $-$$\pi$, $-$2.81 -->
     <g transform="translate(635.691876 62.229682)scale(0.08 -0.08)">
      <use transform="translate(0 0.78125)" xlink:href="#DejaVuSans-8722"/>
      <use transform="translate(83.789062 0.78125)" xlink:href="#DejaVuSans-Oblique-960"/>
      <use transform="translate(143.994141 0.78125)" xlink:href="#DejaVuSans-44"/>
      <use transform="translate(175.78125 0.78125)" xlink:href="#DejaVuSans-32"/>
      <use transform="translate(207.568359 0.78125)" xlink:href="#DejaVuSans-8722"/>
      <use transform="translate(291.357422 0.78125)" xlink:href="#DejaVuSans-50"/>
      <use transform="translate(354.980469 0.78125)" xlink:href="#DejaVuSans-46"/>
      <use transform="translate(384.142578 0.78125)" xlink:href="#DejaVuSans-56"/>
      <use transform="translate(447.765625 0.78125)" xlink:href="#DejaVuSans-49"/>
     </g>
    </g>
   </g>
   <g id="text_22">
    <g clip-path="url(#pa112e380cb)">
     <!-- $\mathrm{U}_3$ -->
     <g transform="translate(648.241876 95.765952)scale(0.13 -0.13)">
      <use transform="translate(0 0.09375)" xlink:href="#DejaVuSans-85"/>
      <use transform="translate(74.150391 -16.3125)scale(0.7)" xlink:href="#DejaVuSans-51"/>
     </g>
    </g>
   </g>
   <g id="text_23">
    <g clip-path="url(#pa112e380cb)">
     <!-- 0.763, $-$3$\pi$/2, $\pi$/2 -->
     <g transform="translate(621.731876 107.680682)scale(0.08 -0.08)">
      <use transform="translate(0 0.78125)" xlink:href="#DejaVuSans-48"/>
      <use transform="translate(63.623047 0.78125)" xlink:href="#DejaVuSans-46"/>
      <use transform="translate(87.660156 0.78125)" xlink:href="#DejaVuSans-55"/>
      <use transform="translate(151.283203 0.78125)" xlink:href="#DejaVuSans-54"/>
      <use transform="translate(214.90625 0.78125)" xlink:href="#DejaVuSans-51"/>
      <use transform="translate(278.529297 0.78125)" xlink:href="#DejaVuSans-44"/>
      <use transform="translate(310.316406 0.78125)" xlink:href="#DejaVuSans-32"/>
      <use transform="translate(342.103516 0.78125)" xlink:href="#DejaVuSans-8722"/>
      <use transform="translate(425.892578 0.78125)" xlink:href="#DejaVuSans-51"/>
      <use transform="translate(489.515625 0.78125)" xlink:href="#DejaVuSans-Oblique-960"/>
      <use transform="translate(549.720703 0.78125)" xlink:href="#DejaVuSans-47"/>
      <use transform="translate(579.787109 0.78125)" xlink:href="#DejaVuSans-50"/>
      <use transform="translate(643.410156 0.78125)" xlink:href="#DejaVuSans-44"/>
      <use transform="translate(675.197266 0.78125)" xlink:href="#DejaVuSans-32"/>
      <use transform="translate(706.984375 0.78125)" xlink:href="#DejaVuSans-Oblique-960"/>
      <use transform="translate(767.189453 0.78125)" xlink:href="#DejaVuSans-47"/>
      <use transform="translate(797.255859 0.78125)" xlink:href="#DejaVuSans-50"/>
     </g>
    </g>
   </g>
   <g id="text_24">
    <g clip-path="url(#pa112e380cb)">
     <!-- $\mathrm{U}_2$ -->
     <g transform="translate(784.594876 50.314952)scale(0.13 -0.13)">
      <use transform="translate(0 0.09375)" xlink:href="#DejaVuSans-85"/>
      <use transform="translate(74.150391 -16.3125)scale(0.7)" xlink:href="#DejaVuSans-50"/>
     </g>
    </g>
   </g>
   <g id="text_25">
    <g clip-path="url(#pa112e380cb)">
     <!-- 0, $-$3$\pi$/2 -->
     <g transform="translate(775.364876 62.229682)scale(0.08 -0.08)">
      <use transform="translate(0 0.78125)" xlink:href="#DejaVuSans-48"/>
      <use transform="translate(63.623047 0.78125)" xlink:href="#DejaVuSans-44"/>
      <use transform="translate(95.410156 0.78125)" xlink:href="#DejaVuSans-32"/>
      <use transform="translate(127.197266 0.78125)" xlink:href="#DejaVuSans-8722"/>
      <use transform="translate(210.986328 0.78125)" xlink:href="#DejaVuSans-51"/>
      <use transform="translate(274.609375 0.78125)" xlink:href="#DejaVuSans-Oblique-960"/>
      <use transform="translate(334.814453 0.78125)" xlink:href="#DejaVuSans-47"/>
      <use transform="translate(364.880859 0.78125)" xlink:href="#DejaVuSans-50"/>
     </g>
    </g>
   </g>
   <g id="text_26">
    <g clip-path="url(#pa112e380cb)">
     <!-- $\mathrm{U}_3$ -->
     <g transform="translate(784.594876 95.765952)scale(0.13 -0.13)">
      <use transform="translate(0 0.09375)" xlink:href="#DejaVuSans-85"/>
      <use transform="translate(74.150391 -16.3125)scale(0.7)" xlink:href="#DejaVuSans-51"/>
     </g>
    </g>
   </g>
   <g id="text_27">
    <g clip-path="url(#pa112e380cb)">
     <!-- 0.363, 0, $-$3$\pi$/2 -->
     <g transform="translate(761.364876 107.680682)scale(0.08 -0.08)">
      <use transform="translate(0 0.78125)" xlink:href="#DejaVuSans-48"/>
      <use transform="translate(63.623047 0.78125)" xlink:href="#DejaVuSans-46"/>
      <use transform="translate(95.410156 0.78125)" xlink:href="#DejaVuSans-51"/>
      <use transform="translate(159.033203 0.78125)" xlink:href="#DejaVuSans-54"/>
      <use transform="translate(222.65625 0.78125)" xlink:href="#DejaVuSans-51"/>
      <use transform="translate(286.279297 0.78125)" xlink:href="#DejaVuSans-44"/>
      <use transform="translate(318.066406 0.78125)" xlink:href="#DejaVuSans-32"/>
      <use transform="translate(349.853516 0.78125)" xlink:href="#DejaVuSans-48"/>
      <use transform="translate(413.476562 0.78125)" xlink:href="#DejaVuSans-44"/>
      <use transform="translate(445.263672 0.78125)" xlink:href="#DejaVuSans-32"/>
      <use transform="translate(477.050781 0.78125)" xlink:href="#DejaVuSans-8722"/>
      <use transform="translate(560.839844 0.78125)" xlink:href="#DejaVuSans-51"/>
      <use transform="translate(624.462891 0.78125)" xlink:href="#DejaVuSans-Oblique-960"/>
      <use transform="translate(684.667969 0.78125)" xlink:href="#DejaVuSans-47"/>
      <use transform="translate(714.734375 0.78125)" xlink:href="#DejaVuSans-50"/>
     </g>
    </g>
   </g>
   <g id="text_28">
    <g clip-path="url(#pa112e380cb)">
     <!-- $\mathrm{U}_3$ -->
     <g transform="translate(920.947876 50.314952)scale(0.13 -0.13)">
      <use transform="translate(0 0.09375)" xlink:href="#DejaVuSans-85"/>
      <use transform="translate(74.150391 -16.3125)scale(0.7)" xlink:href="#DejaVuSans-51"/>
     </g>
    </g>
   </g>
   <g id="text_29">
    <g clip-path="url(#pa112e380cb)">
     <!-- 2.72, $-$0.753, $-$4.86 -->
     <g transform="translate(888.517876 62.229682)scale(0.08 -0.08)">
      <use transform="translate(0 0.78125)" xlink:href="#DejaVuSans-50"/>
      <use transform="translate(63.623047 0.78125)" xlink:href="#DejaVuSans-46"/>
      <use transform="translate(87.660156 0.78125)" xlink:href="#DejaVuSans-55"/>
      <use transform="translate(151.283203 0.78125)" xlink:href="#DejaVuSans-50"/>
      <use transform="translate(214.90625 0.78125)" xlink:href="#DejaVuSans-44"/>
      <use transform="translate(246.693359 0.78125)" xlink:href="#DejaVuSans-32"/>
      <use transform="translate(278.480469 0.78125)" xlink:href="#DejaVuSans-8722"/>
      <use transform="translate(362.269531 0.78125)" xlink:href="#DejaVuSans-48"/>
      <use transform="translate(425.892578 0.78125)" xlink:href="#DejaVuSans-46"/>
      <use transform="translate(449.929688 0.78125)" xlink:href="#DejaVuSans-55"/>
      <use transform="translate(513.552734 0.78125)" xlink:href="#DejaVuSans-53"/>
      <use transform="translate(577.175781 0.78125)" xlink:href="#DejaVuSans-51"/>
      <use transform="translate(640.798828 0.78125)" xlink:href="#DejaVuSans-44"/>
      <use transform="translate(672.585938 0.78125)" xlink:href="#DejaVuSans-32"/>
      <use transform="translate(704.373047 0.78125)" xlink:href="#DejaVuSans-8722"/>
      <use transform="translate(788.162109 0.78125)" xlink:href="#DejaVuSans-52"/>
      <use transform="translate(851.785156 0.78125)" xlink:href="#DejaVuSans-46"/>
      <use transform="translate(880.947266 0.78125)" xlink:href="#DejaVuSans-56"/>
      <use transform="translate(944.570312 0.78125)" xlink:href="#DejaVuSans-54"/>
     </g>
    </g>
   </g>
   <g id="text_30">
    <g clip-path="url(#pa112e380cb)">
     <!-- $\mathrm{U}_3$ -->
     <g transform="translate(920.947876 95.765952)scale(0.13 -0.13)">
      <use transform="translate(0 0.09375)" xlink:href="#DejaVuSans-85"/>
      <use transform="translate(74.150391 -16.3125)scale(0.7)" xlink:href="#DejaVuSans-51"/>
     </g>
    </g>
   </g>
   <g id="text_31">
    <g clip-path="url(#pa112e380cb)">
     <!-- 2.39, $-$4.12, $-$2.6 -->
     <g transform="translate(892.877876 107.680682)scale(0.08 -0.08)">
      <use transform="translate(0 0.78125)" xlink:href="#DejaVuSans-50"/>
      <use transform="translate(63.623047 0.78125)" xlink:href="#DejaVuSans-46"/>
      <use transform="translate(95.410156 0.78125)" xlink:href="#DejaVuSans-51"/>
      <use transform="translate(159.033203 0.78125)" xlink:href="#DejaVuSans-57"/>
      <use transform="translate(222.65625 0.78125)" xlink:href="#DejaVuSans-44"/>
      <use transform="translate(254.443359 0.78125)" xlink:href="#DejaVuSans-32"/>
      <use transform="translate(286.230469 0.78125)" xlink:href="#DejaVuSans-8722"/>
      <use transform="translate(370.019531 0.78125)" xlink:href="#DejaVuSans-52"/>
      <use transform="translate(433.642578 0.78125)" xlink:href="#DejaVuSans-46"/>
      <use transform="translate(465.429688 0.78125)" xlink:href="#DejaVuSans-49"/>
      <use transform="translate(529.052734 0.78125)" xlink:href="#DejaVuSans-50"/>
      <use transform="translate(592.675781 0.78125)" xlink:href="#DejaVuSans-44"/>
      <use transform="translate(624.462891 0.78125)" xlink:href="#DejaVuSans-32"/>
      <use transform="translate(656.25 0.78125)" xlink:href="#DejaVuSans-8722"/>
      <use transform="translate(740.039062 0.78125)" xlink:href="#DejaVuSans-50"/>
      <use transform="translate(803.662109 0.78125)" xlink:href="#DejaVuSans-46"/>
      <use transform="translate(835.449219 0.78125)" xlink:href="#DejaVuSans-54"/>
     </g>
    </g>
   </g>
   <g id="text_32">
    <g clip-path="url(#pa112e380cb)">
     <!-- $\mathrm{U}_2$ -->
     <g transform="translate(1057.300876 50.314952)scale(0.13 -0.13)">
      <use transform="translate(0 0.09375)" xlink:href="#DejaVuSans-85"/>
      <use transform="translate(74.150391 -16.3125)scale(0.7)" xlink:href="#DejaVuSans-50"/>
     </g>
    </g>
   </g>
   <g id="text_33">
    <g clip-path="url(#pa112e380cb)">
     <!-- $-$$\pi$, $-$2.72 -->
     <g transform="translate(1044.950876 62.229682)scale(0.08 -0.08)">
      <use transform="translate(0 0.78125)" xlink:href="#DejaVuSans-8722"/>
      <use transform="translate(83.789062 0.78125)" xlink:href="#DejaVuSans-Oblique-960"/>
      <use transform="translate(143.994141 0.78125)" xlink:href="#DejaVuSans-44"/>
      <use transform="translate(175.78125 0.78125)" xlink:href="#DejaVuSans-32"/>
      <use transform="translate(207.568359 0.78125)" xlink:href="#DejaVuSans-8722"/>
      <use transform="translate(291.357422 0.78125)" xlink:href="#DejaVuSans-50"/>
      <use transform="translate(354.980469 0.78125)" xlink:href="#DejaVuSans-46"/>
      <use transform="translate(379.017578 0.78125)" xlink:href="#DejaVuSans-55"/>
      <use transform="translate(442.640625 0.78125)" xlink:href="#DejaVuSans-50"/>
     </g>
    </g>
   </g>
   <g id="text_34">
    <g clip-path="url(#pa112e380cb)">
     <!-- $\mathrm{U}_3$ -->
     <g transform="translate(1057.300876 95.765952)scale(0.13 -0.13)">
      <use transform="translate(0 0.09375)" xlink:href="#DejaVuSans-85"/>
      <use transform="translate(74.150391 -16.3125)scale(0.7)" xlink:href="#DejaVuSans-51"/>
     </g>
    </g>
   </g>
   <g id="text_35">
    <g clip-path="url(#pa112e380cb)">
     <!-- 0.588, $-$3$\pi$/2, $\pi$/2 -->
     <g transform="translate(1030.470876 107.680682)scale(0.08 -0.08)">
      <use transform="translate(0 0.78125)" xlink:href="#DejaVuSans-48"/>
      <use transform="translate(63.623047 0.78125)" xlink:href="#DejaVuSans-46"/>
      <use transform="translate(95.410156 0.78125)" xlink:href="#DejaVuSans-53"/>
      <use transform="translate(159.033203 0.78125)" xlink:href="#DejaVuSans-56"/>
      <use transform="translate(222.65625 0.78125)" xlink:href="#DejaVuSans-56"/>
      <use transform="translate(286.279297 0.78125)" xlink:href="#DejaVuSans-44"/>
      <use transform="translate(318.066406 0.78125)" xlink:href="#DejaVuSans-32"/>
      <use transform="translate(349.853516 0.78125)" xlink:href="#DejaVuSans-8722"/>
      <use transform="translate(433.642578 0.78125)" xlink:href="#DejaVuSans-51"/>
      <use transform="translate(497.265625 0.78125)" xlink:href="#DejaVuSans-Oblique-960"/>
      <use transform="translate(557.470703 0.78125)" xlink:href="#DejaVuSans-47"/>
      <use transform="translate(587.537109 0.78125)" xlink:href="#DejaVuSans-50"/>
      <use transform="translate(651.160156 0.78125)" xlink:href="#DejaVuSans-44"/>
      <use transform="translate(682.947266 0.78125)" xlink:href="#DejaVuSans-32"/>
      <use transform="translate(714.734375 0.78125)" xlink:href="#DejaVuSans-Oblique-960"/>
      <use transform="translate(774.939453 0.78125)" xlink:href="#DejaVuSans-47"/>
      <use transform="translate(805.005859 0.78125)" xlink:href="#DejaVuSans-50"/>
     </g>
    </g>
   </g>
   <g id="text_36">
    <g clip-path="url(#pa112e380cb)">
     <!-- $\mathrm{U}_2$ -->
     <g transform="translate(1193.653876 50.314952)scale(0.13 -0.13)">
      <use transform="translate(0 0.09375)" xlink:href="#DejaVuSans-85"/>
      <use transform="translate(74.150391 -16.3125)scale(0.7)" xlink:href="#DejaVuSans-50"/>
     </g>
    </g>
   </g>
   <g id="text_37">
    <g clip-path="url(#pa112e380cb)">
     <!-- 0, $-$3$\pi$/2 -->
     <g transform="translate(1184.423876 62.229682)scale(0.08 -0.08)">
      <use transform="translate(0 0.78125)" xlink:href="#DejaVuSans-48"/>
      <use transform="translate(63.623047 0.78125)" xlink:href="#DejaVuSans-44"/>
      <use transform="translate(95.410156 0.78125)" xlink:href="#DejaVuSans-32"/>
      <use transform="translate(127.197266 0.78125)" xlink:href="#DejaVuSans-8722"/>
      <use transform="translate(210.986328 0.78125)" xlink:href="#DejaVuSans-51"/>
      <use transform="translate(274.609375 0.78125)" xlink:href="#DejaVuSans-Oblique-960"/>
      <use transform="translate(334.814453 0.78125)" xlink:href="#DejaVuSans-47"/>
      <use transform="translate(364.880859 0.78125)" xlink:href="#DejaVuSans-50"/>
     </g>
    </g>
   </g>
   <g id="text_38">
    <g clip-path="url(#pa112e380cb)">
     <!-- $\mathrm{U}_3$ -->
     <g transform="translate(1193.653876 95.765952)scale(0.13 -0.13)">
      <use transform="translate(0 0.09375)" xlink:href="#DejaVuSans-85"/>
      <use transform="translate(74.150391 -16.3125)scale(0.7)" xlink:href="#DejaVuSans-51"/>
     </g>
    </g>
   </g>
   <g id="text_39">
    <g clip-path="url(#pa112e380cb)">
     <!-- 0.157, 0, $-$3$\pi$/2 -->
     <g transform="translate(1170.703876 107.680682)scale(0.08 -0.08)">
      <use transform="translate(0 0.78125)" xlink:href="#DejaVuSans-48"/>
      <use transform="translate(63.623047 0.78125)" xlink:href="#DejaVuSans-46"/>
      <use transform="translate(95.410156 0.78125)" xlink:href="#DejaVuSans-49"/>
      <use transform="translate(159.033203 0.78125)" xlink:href="#DejaVuSans-53"/>
      <use transform="translate(215.40625 0.78125)" xlink:href="#DejaVuSans-55"/>
      <use transform="translate(279.029297 0.78125)" xlink:href="#DejaVuSans-44"/>
      <use transform="translate(310.816406 0.78125)" xlink:href="#DejaVuSans-32"/>
      <use transform="translate(342.603516 0.78125)" xlink:href="#DejaVuSans-48"/>
      <use transform="translate(406.226562 0.78125)" xlink:href="#DejaVuSans-44"/>
      <use transform="translate(438.013672 0.78125)" xlink:href="#DejaVuSans-32"/>
      <use transform="translate(469.800781 0.78125)" xlink:href="#DejaVuSans-8722"/>
      <use transform="translate(553.589844 0.78125)" xlink:href="#DejaVuSans-51"/>
      <use transform="translate(617.212891 0.78125)" xlink:href="#DejaVuSans-Oblique-960"/>
      <use transform="translate(677.417969 0.78125)" xlink:href="#DejaVuSans-47"/>
      <use transform="translate(707.484375 0.78125)" xlink:href="#DejaVuSans-50"/>
     </g>
    </g>
   </g>
   <g id="text_40">
    <g clip-path="url(#pa112e380cb)">
     <!-- $\mathrm{U}_3$ -->
     <g transform="translate(1330.006876 50.314952)scale(0.13 -0.13)">
      <use transform="translate(0 0.09375)" xlink:href="#DejaVuSans-85"/>
      <use transform="translate(74.150391 -16.3125)scale(0.7)" xlink:href="#DejaVuSans-51"/>
     </g>
    </g>
   </g>
   <g id="text_41">
    <g clip-path="url(#pa112e380cb)">
     <!-- 1.4, $-$1.76, $-$0.236 -->
     <g transform="translate(1299.936876 62.229682)scale(0.08 -0.08)">
      <use transform="translate(0 0.78125)" xlink:href="#DejaVuSans-49"/>
      <use transform="translate(63.623047 0.78125)" xlink:href="#DejaVuSans-46"/>
      <use transform="translate(95.410156 0.78125)" xlink:href="#DejaVuSans-52"/>
      <use transform="translate(159.033203 0.78125)" xlink:href="#DejaVuSans-44"/>
      <use transform="translate(190.820312 0.78125)" xlink:href="#DejaVuSans-32"/>
      <use transform="translate(222.607422 0.78125)" xlink:href="#DejaVuSans-8722"/>
      <use transform="translate(306.396484 0.78125)" xlink:href="#DejaVuSans-49"/>
      <use transform="translate(370.019531 0.78125)" xlink:href="#DejaVuSans-46"/>
      <use transform="translate(394.056641 0.78125)" xlink:href="#DejaVuSans-55"/>
      <use transform="translate(457.679688 0.78125)" xlink:href="#DejaVuSans-54"/>
      <use transform="translate(521.302734 0.78125)" xlink:href="#DejaVuSans-44"/>
      <use transform="translate(553.089844 0.78125)" xlink:href="#DejaVuSans-32"/>
      <use transform="translate(584.876953 0.78125)" xlink:href="#DejaVuSans-8722"/>
      <use transform="translate(668.666016 0.78125)" xlink:href="#DejaVuSans-48"/>
      <use transform="translate(732.289062 0.78125)" xlink:href="#DejaVuSans-46"/>
      <use transform="translate(758.576172 0.78125)" xlink:href="#DejaVuSans-50"/>
      <use transform="translate(822.199219 0.78125)" xlink:href="#DejaVuSans-51"/>
      <use transform="translate(885.822266 0.78125)" xlink:href="#DejaVuSans-54"/>
     </g>
    </g>
   </g>
   <g id="text_42">
    <g clip-path="url(#pa112e380cb)">
     <!-- $\mathrm{U}_3$ -->
     <g transform="translate(1330.006876 95.765952)scale(0.13 -0.13)">
      <use transform="translate(0 0.09375)" xlink:href="#DejaVuSans-85"/>
      <use transform="translate(74.150391 -16.3125)scale(0.7)" xlink:href="#DejaVuSans-51"/>
     </g>
    </g>
   </g>
   <g id="text_43">
    <g clip-path="url(#pa112e380cb)">
     <!-- 1.66, 5.52, $-$0.463 -->
     <g transform="translate(1300.216876 107.680682)scale(0.08 -0.08)">
      <use transform="translate(0 0.78125)" xlink:href="#DejaVuSans-49"/>
      <use transform="translate(63.623047 0.78125)" xlink:href="#DejaVuSans-46"/>
      <use transform="translate(95.410156 0.78125)" xlink:href="#DejaVuSans-54"/>
      <use transform="translate(159.033203 0.78125)" xlink:href="#DejaVuSans-54"/>
      <use transform="translate(222.65625 0.78125)" xlink:href="#DejaVuSans-44"/>
      <use transform="translate(254.443359 0.78125)" xlink:href="#DejaVuSans-32"/>
      <use transform="translate(286.230469 0.78125)" xlink:href="#DejaVuSans-53"/>
      <use transform="translate(349.853516 0.78125)" xlink:href="#DejaVuSans-46"/>
      <use transform="translate(381.640625 0.78125)" xlink:href="#DejaVuSans-53"/>
      <use transform="translate(445.263672 0.78125)" xlink:href="#DejaVuSans-50"/>
      <use transform="translate(508.886719 0.78125)" xlink:href="#DejaVuSans-44"/>
      <use transform="translate(540.673828 0.78125)" xlink:href="#DejaVuSans-32"/>
      <use transform="translate(572.460938 0.78125)" xlink:href="#DejaVuSans-8722"/>
      <use transform="translate(656.25 0.78125)" xlink:href="#DejaVuSans-48"/>
      <use transform="translate(719.873047 0.78125)" xlink:href="#DejaVuSans-46"/>
      <use transform="translate(751.660156 0.78125)" xlink:href="#DejaVuSans-52"/>
      <use transform="translate(815.283203 0.78125)" xlink:href="#DejaVuSans-54"/>
      <use transform="translate(878.90625 0.78125)" xlink:href="#DejaVuSans-51"/>
     </g>
    </g>
   </g>
   <g id="text_44">
    <g clip-path="url(#pa112e380cb)">
     <!-- ${q}_{0}$ -->
     <defs>
      <path d="M 41.703125 8.203125 
Q 38.09375 3.46875 33.171875 1.015625 
Q 28.265625 -1.421875 22.3125 -1.421875 
Q 14.015625 -1.421875 9.296875 4.171875 
Q 4.59375 9.765625 4.59375 19.578125 
Q 4.59375 27.484375 7.5 34.859375 
Q 10.40625 42.234375 15.828125 48.09375 
Q 19.34375 51.90625 23.90625 53.953125 
Q 28.46875 56 33.5 56 
Q 39.546875 56 43.453125 53.609375 
Q 47.359375 51.21875 49.125 46.390625 
L 50.6875 54.59375 
L 59.71875 54.59375 
L 45.125 -20.609375 
L 36.078125 -20.609375 
z
M 13.921875 20.90625 
Q 13.921875 13.671875 16.9375 9.890625 
Q 19.96875 6.109375 25.6875 6.109375 
Q 34.1875 6.109375 40.1875 14.234375 
Q 46.1875 22.359375 46.1875 33.984375 
Q 46.1875 41.015625 43.078125 44.75 
Q 39.984375 48.484375 34.1875 48.484375 
Q 29.9375 48.484375 26.3125 46.5 
Q 22.703125 44.53125 20.015625 40.71875 
Q 17.1875 36.71875 15.546875 31.34375 
Q 13.921875 25.984375 13.921875 20.90625 
z
" id="DejaVuSans-Oblique-113"/>
     </defs>
     <g transform="translate(36.363136 55.610214)scale(0.1625 -0.1625)">
      <use xlink:href="#DejaVuSans-Oblique-113"/>
      <use transform="translate(63.476562 -16.40625)scale(0.7)" xlink:href="#DejaVuSans-48"/>
     </g>
    </g>
   </g>
   <g id="text_45">
    <g clip-path="url(#pa112e380cb)">
     <!-- ${q}_{1}$ -->
     <g transform="translate(36.363136 101.061214)scale(0.1625 -0.1625)">
      <use xlink:href="#DejaVuSans-Oblique-113"/>
      <use transform="translate(63.476562 -16.40625)scale(0.7)" xlink:href="#DejaVuSans-49"/>
     </g>
    </g>
   </g>
   <g id="text_46">
    <g clip-path="url(#pa112e380cb)">
     <!-- ${q}_{2}$ -->
     <g transform="translate(36.363136 146.512214)scale(0.1625 -0.1625)">
      <use xlink:href="#DejaVuSans-Oblique-113"/>
      <use transform="translate(63.476562 -16.40625)scale(0.7)" xlink:href="#DejaVuSans-50"/>
     </g>
    </g>
   </g>
  </g>
 </g>
 <defs>
  <clipPath id="pa112e380cb">
   <rect height="154.5334" width="1383.460036" x="7.2" y="14.798437"/>
  </clipPath>
 </defs>
</svg>
