<?xml version="1.0" encoding="utf-8" standalone="no"?>
<!DOCTYPE svg PUBLIC "-//W3C//DTD SVG 1.1//EN"
  "http://www.w3.org/Graphics/SVG/1.1/DTD/svg11.dtd">
<!-- Created with matplotlib (https://matplotlib.org/) -->
<svg height="168.9334pt" version="1.1" viewBox="0 0 813.420853 168.9334" width="813.420853pt" xmlns="http://www.w3.org/2000/svg" xmlns:xlink="http://www.w3.org/1999/xlink">
 <defs>
  <style type="text/css">
*{stroke-linecap:butt;stroke-linejoin:round;}
  </style>
 </defs>
 <g id="figure_1">
  <g id="patch_1">
   <path d="M 0 168.9334 
L 813.420853 168.9334 
L 813.420853 0 
L 0 0 
z
" style="fill:#ffffff;"/>
  </g>
  <g id="axes_1">
   <g id="patch_2">
    <path clip-path="url(#p97cac6f827)" d="M 724.863563 124.122697 
L 736.680823 124.122697 
L 730.772193 132.64476 
z
" style="fill:#778899;"/>
   </g>
   <g id="patch_3">
    <path clip-path="url(#p97cac6f827)" d="M 770.314563 124.122697 
L 782.131823 124.122697 
L 776.223193 132.64476 
z
" style="fill:#778899;"/>
   </g>
   <g id="line2d_1">
    <path clip-path="url(#p97cac6f827)" d="M 69.914653 43.5608 
L 801.675753 43.5608 
" style="fill:none;stroke:#000000;stroke-linecap:square;stroke-width:2;"/>
   </g>
   <g id="line2d_2">
    <path clip-path="url(#p97cac6f827)" d="M 69.914653 89.0118 
L 801.675753 89.0118 
" style="fill:none;stroke:#000000;stroke-linecap:square;stroke-width:2;"/>
   </g>
   <g id="line2d_3">
    <path clip-path="url(#p97cac6f827)" d="M 69.914653 132.985642 
L 801.675753 132.985642 
" style="fill:none;stroke:#778899;stroke-linecap:square;stroke-width:2;"/>
   </g>
   <g id="line2d_4">
    <path clip-path="url(#p97cac6f827)" d="M 69.914653 135.939957 
L 801.675753 135.939957 
" style="fill:none;stroke:#778899;stroke-linecap:square;stroke-width:2;"/>
   </g>
   <g id="patch_4">
    <path clip-path="url(#p97cac6f827)" d="M 403.752248 66.2863 
L 421.478138 66.2863 
L 421.478138 20.8353 
L 403.752248 20.8353 
z
" style="fill:#bdbdbd;opacity:0.6;"/>
   </g>
   <g id="patch_5">
    <path clip-path="url(#p97cac6f827)" d="M 403.752248 111.7373 
L 421.478138 111.7373 
L 421.478138 66.2863 
L 403.752248 66.2863 
z
" style="fill:#bdbdbd;opacity:0.6;"/>
   </g>
   <g id="line2d_5">
    <path clip-path="url(#p97cac6f827)" d="M 230.811193 89.0118 
L 230.811193 43.5608 
" style="fill:none;stroke:#6fa4ff;stroke-linecap:square;stroke-width:2;"/>
   </g>
   <g id="line2d_6">
    <path clip-path="url(#p97cac6f827)" d="M 367.164193 89.0118 
L 367.164193 43.5608 
" style="fill:none;stroke:#6fa4ff;stroke-linecap:square;stroke-width:2;"/>
   </g>
   <g id="line2d_7">
    <path clip-path="url(#p97cac6f827)" d="M 458.066193 89.0118 
L 458.066193 43.5608 
" style="fill:none;stroke:#6fa4ff;stroke-linecap:square;stroke-width:2;"/>
   </g>
   <g id="line2d_8">
    <path clip-path="url(#p97cac6f827)" d="M 594.419193 89.0118 
L 594.419193 43.5608 
" style="fill:none;stroke:#6fa4ff;stroke-linecap:square;stroke-width:2;"/>
   </g>
   <g id="line2d_9">
    <path clip-path="url(#p97cac6f827)" d="M 732.249351 89.0118 
L 732.249351 124.122697 
" style="fill:none;stroke:#778899;stroke-linecap:square;stroke-width:2;"/>
   </g>
   <g id="line2d_10">
    <path clip-path="url(#p97cac6f827)" d="M 729.295036 89.0118 
L 729.295036 124.122697 
" style="fill:none;stroke:#778899;stroke-linecap:square;stroke-width:2;"/>
   </g>
   <g id="line2d_11">
    <path clip-path="url(#p97cac6f827)" d="M 777.700351 43.5608 
L 777.700351 124.122697 
" style="fill:none;stroke:#778899;stroke-linecap:square;stroke-width:2;"/>
   </g>
   <g id="line2d_12">
    <path clip-path="url(#p97cac6f827)" d="M 774.746036 43.5608 
L 774.746036 124.122697 
" style="fill:none;stroke:#778899;stroke-linecap:square;stroke-width:2;"/>
   </g>
   <g id="line2d_13">
    <path clip-path="url(#p97cac6f827)" d="M 79.004853 139.0079 
L 83.549953 129.9177 
" style="fill:none;stroke:#778899;stroke-linecap:square;stroke-width:1.5;"/>
   </g>
   <g id="patch_6">
    <path clip-path="url(#p97cac6f827)" d="M 79.686618 58.332375 
L 109.229768 58.332375 
L 109.229768 28.789225 
L 79.686618 28.789225 
z
" style="fill:#05bab6;stroke:#05bab6;stroke-linejoin:miter;stroke-width:1.5;"/>
   </g>
   <g id="patch_7">
    <path clip-path="url(#p97cac6f827)" d="M 79.686618 103.783375 
L 109.229768 103.783375 
L 109.229768 74.240225 
L 79.686618 74.240225 
z
" style="fill:#6fa4ff;stroke:#6fa4ff;stroke-linejoin:miter;stroke-width:1.5;"/>
   </g>
   <g id="patch_8">
    <path clip-path="url(#p97cac6f827)" d="M 125.137618 58.332375 
L 154.680768 58.332375 
L 154.680768 28.789225 
L 125.137618 28.789225 
z
" style="fill:#6fa4ff;stroke:#6fa4ff;stroke-linejoin:miter;stroke-width:1.5;"/>
   </g>
   <g id="patch_9">
    <path clip-path="url(#p97cac6f827)" d="M 125.137618 103.783375 
L 154.680768 103.783375 
L 154.680768 74.240225 
L 125.137618 74.240225 
z
" style="fill:#6fa4ff;stroke:#6fa4ff;stroke-linejoin:miter;stroke-width:1.5;"/>
   </g>
   <g id="patch_10">
    <path clip-path="url(#p97cac6f827)" d="M 170.588618 58.332375 
L 200.131768 58.332375 
L 200.131768 28.789225 
L 170.588618 28.789225 
z
" style="fill:#6fa4ff;stroke:#6fa4ff;stroke-linejoin:miter;stroke-width:1.5;"/>
   </g>
   <g id="patch_11">
    <path clip-path="url(#p97cac6f827)" d="M 230.811193 47.992272 
C 231.986434 47.992272 233.113697 47.525345 233.944718 46.694324 
C 234.775738 45.863304 235.242666 44.73604 235.242666 43.5608 
C 235.242666 42.38556 234.775738 41.258296 233.944718 40.427276 
C 233.113697 39.596255 231.986434 39.129327 230.811193 39.129327 
C 229.635953 39.129327 228.508689 39.596255 227.677669 40.427276 
C 226.846649 41.258296 226.379721 42.38556 226.379721 43.5608 
C 226.379721 44.73604 226.846649 45.863304 227.677669 46.694324 
C 228.508689 47.525345 229.635953 47.992272 230.811193 47.992272 
z
" style="fill:#6fa4ff;stroke:#6fa4ff;stroke-linejoin:miter;stroke-width:1.5;"/>
   </g>
   <g id="patch_12">
    <path clip-path="url(#p97cac6f827)" d="M 230.811193 99.351902 
C 233.553421 99.351902 236.183702 98.262404 238.12275 96.323357 
C 240.061797 94.384309 241.151296 91.754027 241.151296 89.0118 
C 241.151296 86.269573 240.061797 83.639291 238.12275 81.700243 
C 236.183702 79.761196 233.553421 78.671697 230.811193 78.671697 
C 228.068966 78.671697 225.438684 79.761196 223.499637 81.700243 
C 221.560589 83.639291 220.471091 86.269573 220.471091 89.0118 
C 220.471091 91.754027 221.560589 94.384309 223.499637 96.323357 
C 225.438684 98.262404 228.068966 99.351902 230.811193 99.351902 
z
" style="fill:#6fa4ff;stroke:#6fa4ff;stroke-linejoin:miter;stroke-width:2;"/>
   </g>
   <g id="patch_13">
    <path clip-path="url(#p97cac6f827)" d="M 261.490618 58.332375 
L 291.033768 58.332375 
L 291.033768 28.789225 
L 261.490618 28.789225 
z
" style="fill:#6fa4ff;stroke:#6fa4ff;stroke-linejoin:miter;stroke-width:1.5;"/>
   </g>
   <g id="patch_14">
    <path clip-path="url(#p97cac6f827)" d="M 261.490618 103.783375 
L 291.033768 103.783375 
L 291.033768 74.240225 
L 261.490618 74.240225 
z
" style="fill:#6fa4ff;stroke:#6fa4ff;stroke-linejoin:miter;stroke-width:1.5;"/>
   </g>
   <g id="patch_15">
    <path clip-path="url(#p97cac6f827)" d="M 306.941618 58.332375 
L 336.484768 58.332375 
L 336.484768 28.789225 
L 306.941618 28.789225 
z
" style="fill:#6fa4ff;stroke:#6fa4ff;stroke-linejoin:miter;stroke-width:1.5;"/>
   </g>
   <g id="patch_16">
    <path clip-path="url(#p97cac6f827)" d="M 306.941618 103.783375 
L 336.484768 103.783375 
L 336.484768 74.240225 
L 306.941618 74.240225 
z
" style="fill:#6fa4ff;stroke:#6fa4ff;stroke-linejoin:miter;stroke-width:1.5;"/>
   </g>
   <g id="patch_17">
    <path clip-path="url(#p97cac6f827)" d="M 367.164193 47.992272 
C 368.339434 47.992272 369.466697 47.525345 370.297718 46.694324 
C 371.128738 45.863304 371.595666 44.73604 371.595666 43.5608 
C 371.595666 42.38556 371.128738 41.258296 370.297718 40.427276 
C 369.466697 39.596255 368.339434 39.129327 367.164193 39.129327 
C 365.988953 39.129327 364.861689 39.596255 364.030669 40.427276 
C 363.199649 41.258296 362.732721 42.38556 362.732721 43.5608 
C 362.732721 44.73604 363.199649 45.863304 364.030669 46.694324 
C 364.861689 47.525345 365.988953 47.992272 367.164193 47.992272 
z
" style="fill:#6fa4ff;stroke:#6fa4ff;stroke-linejoin:miter;stroke-width:1.5;"/>
   </g>
   <g id="patch_18">
    <path clip-path="url(#p97cac6f827)" d="M 367.164193 99.351902 
C 369.906421 99.351902 372.536702 98.262404 374.47575 96.323357 
C 376.414797 94.384309 377.504296 91.754027 377.504296 89.0118 
C 377.504296 86.269573 376.414797 83.639291 374.47575 81.700243 
C 372.536702 79.761196 369.906421 78.671697 367.164193 78.671697 
C 364.421966 78.671697 361.791684 79.761196 359.852637 81.700243 
C 357.913589 83.639291 356.824091 86.269573 356.824091 89.0118 
C 356.824091 91.754027 357.913589 94.384309 359.852637 96.323357 
C 361.791684 98.262404 364.421966 99.351902 367.164193 99.351902 
z
" style="fill:#6fa4ff;stroke:#6fa4ff;stroke-linejoin:miter;stroke-width:2;"/>
   </g>
   <g id="patch_19">
    <path clip-path="url(#p97cac6f827)" d="M 458.066193 47.992272 
C 459.241434 47.992272 460.368697 47.525345 461.199718 46.694324 
C 462.030738 45.863304 462.497666 44.73604 462.497666 43.5608 
C 462.497666 42.38556 462.030738 41.258296 461.199718 40.427276 
C 460.368697 39.596255 459.241434 39.129327 458.066193 39.129327 
C 456.890953 39.129327 455.763689 39.596255 454.932669 40.427276 
C 454.101649 41.258296 453.634721 42.38556 453.634721 43.5608 
C 453.634721 44.73604 454.101649 45.863304 454.932669 46.694324 
C 455.763689 47.525345 456.890953 47.992272 458.066193 47.992272 
z
" style="fill:#6fa4ff;stroke:#6fa4ff;stroke-linejoin:miter;stroke-width:1.5;"/>
   </g>
   <g id="patch_20">
    <path clip-path="url(#p97cac6f827)" d="M 458.066193 99.351902 
C 460.808421 99.351902 463.438702 98.262404 465.37775 96.323357 
C 467.316797 94.384309 468.406296 91.754027 468.406296 89.0118 
C 468.406296 86.269573 467.316797 83.639291 465.37775 81.700243 
C 463.438702 79.761196 460.808421 78.671697 458.066193 78.671697 
C 455.323966 78.671697 452.693684 79.761196 450.754637 81.700243 
C 448.815589 83.639291 447.726091 86.269573 447.726091 89.0118 
C 447.726091 91.754027 448.815589 94.384309 450.754637 96.323357 
C 452.693684 98.262404 455.323966 99.351902 458.066193 99.351902 
z
" style="fill:#6fa4ff;stroke:#6fa4ff;stroke-linejoin:miter;stroke-width:2;"/>
   </g>
   <g id="patch_21">
    <path clip-path="url(#p97cac6f827)" d="M 488.745618 103.783375 
L 518.288768 103.783375 
L 518.288768 74.240225 
L 488.745618 74.240225 
z
" style="fill:#6fa4ff;stroke:#6fa4ff;stroke-linejoin:miter;stroke-width:1.5;"/>
   </g>
   <g id="patch_22">
    <path clip-path="url(#p97cac6f827)" d="M 488.745618 58.332375 
L 518.288768 58.332375 
L 518.288768 28.789225 
L 488.745618 28.789225 
z
" style="fill:#6fa4ff;stroke:#6fa4ff;stroke-linejoin:miter;stroke-width:1.5;"/>
   </g>
   <g id="patch_23">
    <path clip-path="url(#p97cac6f827)" d="M 534.196618 103.783375 
L 563.739768 103.783375 
L 563.739768 74.240225 
L 534.196618 74.240225 
z
" style="fill:#6fa4ff;stroke:#6fa4ff;stroke-linejoin:miter;stroke-width:1.5;"/>
   </g>
   <g id="patch_24">
    <path clip-path="url(#p97cac6f827)" d="M 534.196618 58.332375 
L 563.739768 58.332375 
L 563.739768 28.789225 
L 534.196618 28.789225 
z
" style="fill:#6fa4ff;stroke:#6fa4ff;stroke-linejoin:miter;stroke-width:1.5;"/>
   </g>
   <g id="patch_25">
    <path clip-path="url(#p97cac6f827)" d="M 594.419193 47.992272 
C 595.594434 47.992272 596.721697 47.525345 597.552718 46.694324 
C 598.383738 45.863304 598.850666 44.73604 598.850666 43.5608 
C 598.850666 42.38556 598.383738 41.258296 597.552718 40.427276 
C 596.721697 39.596255 595.594434 39.129327 594.419193 39.129327 
C 593.243953 39.129327 592.116689 39.596255 591.285669 40.427276 
C 590.454649 41.258296 589.987721 42.38556 589.987721 43.5608 
C 589.987721 44.73604 590.454649 45.863304 591.285669 46.694324 
C 592.116689 47.525345 593.243953 47.992272 594.419193 47.992272 
z
" style="fill:#6fa4ff;stroke:#6fa4ff;stroke-linejoin:miter;stroke-width:1.5;"/>
   </g>
   <g id="patch_26">
    <path clip-path="url(#p97cac6f827)" d="M 594.419193 99.351902 
C 597.161421 99.351902 599.791702 98.262404 601.73075 96.323357 
C 603.669797 94.384309 604.759296 91.754027 604.759296 89.0118 
C 604.759296 86.269573 603.669797 83.639291 601.73075 81.700243 
C 599.791702 79.761196 597.161421 78.671697 594.419193 78.671697 
C 591.676966 78.671697 589.046684 79.761196 587.107637 81.700243 
C 585.168589 83.639291 584.079091 86.269573 584.079091 89.0118 
C 584.079091 91.754027 585.168589 94.384309 587.107637 96.323357 
C 589.046684 98.262404 591.676966 99.351902 594.419193 99.351902 
z
" style="fill:#6fa4ff;stroke:#6fa4ff;stroke-linejoin:miter;stroke-width:2;"/>
   </g>
   <g id="patch_27">
    <path clip-path="url(#p97cac6f827)" d="M 625.098618 103.783375 
L 654.641768 103.783375 
L 654.641768 74.240225 
L 625.098618 74.240225 
z
" style="fill:#6fa4ff;stroke:#6fa4ff;stroke-linejoin:miter;stroke-width:1.5;"/>
   </g>
   <g id="patch_28">
    <path clip-path="url(#p97cac6f827)" d="M 625.098618 58.332375 
L 654.641768 58.332375 
L 654.641768 28.789225 
L 625.098618 28.789225 
z
" style="fill:#6fa4ff;stroke:#6fa4ff;stroke-linejoin:miter;stroke-width:1.5;"/>
   </g>
   <g id="patch_29">
    <path clip-path="url(#p97cac6f827)" d="M 670.549618 103.783375 
L 700.092768 103.783375 
L 700.092768 74.240225 
L 670.549618 74.240225 
z
" style="fill:#6fa4ff;stroke:#6fa4ff;stroke-linejoin:miter;stroke-width:1.5;"/>
   </g>
   <g id="patch_30">
    <path clip-path="url(#p97cac6f827)" d="M 670.549618 58.332375 
L 700.092768 58.332375 
L 700.092768 28.789225 
L 670.549618 28.789225 
z
" style="fill:#6fa4ff;stroke:#6fa4ff;stroke-linejoin:miter;stroke-width:1.5;"/>
   </g>
   <g id="patch_31">
    <path clip-path="url(#p97cac6f827)" d="M 716.000618 58.332375 
L 745.543768 58.332375 
L 745.543768 28.789225 
L 716.000618 28.789225 
z
" style="fill:#05bab6;stroke:#05bab6;stroke-linejoin:miter;stroke-width:1.5;"/>
   </g>
   <g id="patch_32">
    <path clip-path="url(#p97cac6f827)" d="M 716.000618 103.783375 
L 745.543768 103.783375 
L 745.543768 74.240225 
L 716.000618 74.240225 
z
" style="stroke:#000000;stroke-linejoin:miter;stroke-width:1.5;"/>
   </g>
   <g id="patch_33">
    <path clip-path="url(#p97cac6f827)" d="M 741.112296 93.443272 
C 741.112296 90.701959 740.022152 88.070118 738.08375 86.131716 
C 736.145348 84.193314 733.513507 83.10317 730.772193 83.10317 
C 728.030879 83.10317 725.399038 84.193314 723.460637 86.131716 
C 721.522235 88.070118 720.432091 90.701959 720.432091 93.443272 
" style="fill:none;stroke:#ffffff;stroke-linejoin:miter;stroke-width:2;"/>
   </g>
   <g id="patch_34">
    <path clip-path="url(#p97cac6f827)" d="M 761.451618 58.332375 
L 790.994768 58.332375 
L 790.994768 28.789225 
L 761.451618 28.789225 
z
" style="stroke:#000000;stroke-linejoin:miter;stroke-width:1.5;"/>
   </g>
   <g id="patch_35">
    <path clip-path="url(#p97cac6f827)" d="M 786.563296 47.992272 
C 786.563296 45.250959 785.473152 42.619118 783.53475 40.680716 
C 781.596348 38.742314 778.964507 37.65217 776.223193 37.65217 
C 773.481879 37.65217 770.850038 38.742314 768.911637 40.680716 
C 766.973235 42.619118 765.883091 45.250959 765.883091 47.992272 
" style="fill:none;stroke:#ffffff;stroke-linejoin:miter;stroke-width:2;"/>
   </g>
   <g id="line2d_14">
    <path clip-path="url(#p97cac6f827)" d="M 730.772193 93.443272 
L 741.112296 83.10317 
" style="fill:none;stroke:#ffffff;stroke-linecap:square;stroke-width:2;"/>
   </g>
   <g id="line2d_15">
    <path clip-path="url(#p97cac6f827)" d="M 776.223193 47.992272 
L 786.563296 37.65217 
" style="fill:none;stroke:#ffffff;stroke-linecap:square;stroke-width:2;"/>
   </g>
   <g id="line2d_16">
    <path clip-path="url(#p97cac6f827)" d="M 230.811193 94.92043 
L 230.811193 83.10317 
" style="fill:none;stroke:#ffffff;stroke-linecap:square;stroke-width:2;"/>
   </g>
   <g id="line2d_17">
    <path clip-path="url(#p97cac6f827)" d="M 224.902563 89.0118 
L 236.719823 89.0118 
" style="fill:none;stroke:#ffffff;stroke-linecap:square;stroke-width:2;"/>
   </g>
   <g id="line2d_18">
    <path clip-path="url(#p97cac6f827)" d="M 367.164193 94.92043 
L 367.164193 83.10317 
" style="fill:none;stroke:#ffffff;stroke-linecap:square;stroke-width:2;"/>
   </g>
   <g id="line2d_19">
    <path clip-path="url(#p97cac6f827)" d="M 361.255563 89.0118 
L 373.072823 89.0118 
" style="fill:none;stroke:#ffffff;stroke-linecap:square;stroke-width:2;"/>
   </g>
   <g id="line2d_20">
    <path clip-path="url(#p97cac6f827)" d="M 412.615193 20.8353 
L 412.615193 66.2863 
" style="fill:none;stroke:#000000;stroke-dasharray:3.7,1.6;stroke-dashoffset:0;"/>
   </g>
   <g id="line2d_21">
    <path clip-path="url(#p97cac6f827)" d="M 412.615193 66.2863 
L 412.615193 111.7373 
" style="fill:none;stroke:#000000;stroke-dasharray:3.7,1.6;stroke-dashoffset:0;"/>
   </g>
   <g id="line2d_22">
    <path clip-path="url(#p97cac6f827)" d="M 458.066193 94.92043 
L 458.066193 83.10317 
" style="fill:none;stroke:#ffffff;stroke-linecap:square;stroke-width:2;"/>
   </g>
   <g id="line2d_23">
    <path clip-path="url(#p97cac6f827)" d="M 452.157563 89.0118 
L 463.974823 89.0118 
" style="fill:none;stroke:#ffffff;stroke-linecap:square;stroke-width:2;"/>
   </g>
   <g id="line2d_24">
    <path clip-path="url(#p97cac6f827)" d="M 594.419193 94.92043 
L 594.419193 83.10317 
" style="fill:none;stroke:#ffffff;stroke-linecap:square;stroke-width:2;"/>
   </g>
   <g id="line2d_25">
    <path clip-path="url(#p97cac6f827)" d="M 588.510563 89.0118 
L 600.327823 89.0118 
" style="fill:none;stroke:#ffffff;stroke-linecap:square;stroke-width:2;"/>
   </g>
   <g id="text_1">
    <g clip-path="url(#p97cac6f827)">
     <!-- Y -->
     <defs>
      <path d="M -0.203125 72.90625 
L 10.40625 72.90625 
L 30.609375 42.921875 
L 50.6875 72.90625 
L 61.28125 72.90625 
L 35.5 34.71875 
L 35.5 0 
L 25.59375 0 
L 25.59375 34.71875 
z
" id="DejaVuSans-89"/>
     </defs>
     <g transform="translate(90.488115 47.147987)scale(0.13 -0.13)">
      <use xlink:href="#DejaVuSans-89"/>
     </g>
    </g>
   </g>
   <g id="text_2">
    <g clip-path="url(#p97cac6f827)">
     <!-- H -->
     <defs>
      <path d="M 9.8125 72.90625 
L 19.671875 72.90625 
L 19.671875 43.015625 
L 55.515625 43.015625 
L 55.515625 72.90625 
L 65.375 72.90625 
L 65.375 0 
L 55.515625 0 
L 55.515625 34.71875 
L 19.671875 34.71875 
L 19.671875 0 
L 9.8125 0 
z
" id="DejaVuSans-72"/>
     </defs>
     <g transform="translate(89.56999 92.598987)scale(0.13 -0.13)">
      <use xlink:href="#DejaVuSans-72"/>
     </g>
    </g>
   </g>
   <g id="text_3">
    <g clip-path="url(#p97cac6f827)">
     <!-- H -->
     <g transform="translate(135.02099 47.147987)scale(0.13 -0.13)">
      <use xlink:href="#DejaVuSans-72"/>
     </g>
    </g>
   </g>
   <g id="text_4">
    <g clip-path="url(#p97cac6f827)">
     <!-- S -->
     <defs>
      <path d="M 53.515625 70.515625 
L 53.515625 60.890625 
Q 47.90625 63.578125 42.921875 64.890625 
Q 37.9375 66.21875 33.296875 66.21875 
Q 25.25 66.21875 20.875 63.09375 
Q 16.5 59.96875 16.5 54.203125 
Q 16.5 49.359375 19.40625 46.890625 
Q 22.3125 44.4375 30.421875 42.921875 
L 36.375 41.703125 
Q 47.40625 39.59375 52.65625 34.296875 
Q 57.90625 29 57.90625 20.125 
Q 57.90625 9.515625 50.796875 4.046875 
Q 43.703125 -1.421875 29.984375 -1.421875 
Q 24.8125 -1.421875 18.96875 -0.25 
Q 13.140625 0.921875 6.890625 3.21875 
L 6.890625 13.375 
Q 12.890625 10.015625 18.65625 8.296875 
Q 24.421875 6.59375 29.984375 6.59375 
Q 38.421875 6.59375 43.015625 9.90625 
Q 47.609375 13.234375 47.609375 19.390625 
Q 47.609375 24.75 44.3125 27.78125 
Q 41.015625 30.8125 33.5 32.328125 
L 27.484375 33.5 
Q 16.453125 35.6875 11.515625 40.375 
Q 6.59375 45.0625 6.59375 53.421875 
Q 6.59375 63.09375 13.40625 68.65625 
Q 20.21875 74.21875 32.171875 74.21875 
Q 37.3125 74.21875 42.625 73.28125 
Q 47.953125 72.359375 53.515625 70.515625 
z
" id="DejaVuSans-83"/>
     </defs>
     <g transform="translate(135.782709 92.598987)scale(0.13 -0.13)">
      <use xlink:href="#DejaVuSans-83"/>
     </g>
    </g>
   </g>
   <g id="text_5">
    <g clip-path="url(#p97cac6f827)">
     <!-- S -->
     <g transform="translate(181.233709 47.147987)scale(0.13 -0.13)">
      <use xlink:href="#DejaVuSans-83"/>
     </g>
    </g>
   </g>
   <g id="text_6">
    <g clip-path="url(#p97cac6f827)">
     <!-- $\mathrm{S}^\dagger$ -->
     <defs>
      <path d="M 20.703125 72.90625 
L 29.296875 72.90625 
L 29.296875 52.390625 
L 47.21875 52.390625 
L 47.21875 44.921875 
L 29.296875 44.921875 
L 29.296875 -9.625 
L 20.703125 -9.625 
L 20.703125 44.921875 
L 2.78125 44.921875 
L 2.78125 52.390625 
L 20.703125 52.390625 
z
" id="DejaVuSans-8224"/>
     </defs>
     <g transform="translate(267.812193 47.147987)scale(0.13 -0.13)">
      <use transform="translate(0 0.684375)" xlink:href="#DejaVuSans-83"/>
      <use transform="translate(78.071289 38.965625)scale(0.7)" xlink:href="#DejaVuSans-8224"/>
     </g>
    </g>
   </g>
   <g id="text_7">
    <g clip-path="url(#p97cac6f827)">
     <!-- $\mathrm{S}^\dagger$ -->
     <g transform="translate(267.812193 92.598987)scale(0.13 -0.13)">
      <use transform="translate(0 0.684375)" xlink:href="#DejaVuSans-83"/>
      <use transform="translate(78.071289 38.965625)scale(0.7)" xlink:href="#DejaVuSans-8224"/>
     </g>
    </g>
   </g>
   <g id="text_8">
    <g clip-path="url(#p97cac6f827)">
     <!-- H -->
     <g transform="translate(316.82499 47.147987)scale(0.13 -0.13)">
      <use xlink:href="#DejaVuSans-72"/>
     </g>
    </g>
   </g>
   <g id="text_9">
    <g clip-path="url(#p97cac6f827)">
     <!-- H -->
     <g transform="translate(316.82499 92.598987)scale(0.13 -0.13)">
      <use xlink:href="#DejaVuSans-72"/>
     </g>
    </g>
   </g>
   <g id="text_10">
    <g clip-path="url(#p97cac6f827)">
     <!-- H -->
     <g transform="translate(498.62899 92.598987)scale(0.13 -0.13)">
      <use xlink:href="#DejaVuSans-72"/>
     </g>
    </g>
   </g>
   <g id="text_11">
    <g clip-path="url(#p97cac6f827)">
     <!-- H -->
     <g transform="translate(498.62899 47.147987)scale(0.13 -0.13)">
      <use xlink:href="#DejaVuSans-72"/>
     </g>
    </g>
   </g>
   <g id="text_12">
    <g clip-path="url(#p97cac6f827)">
     <!-- S -->
     <g transform="translate(544.841709 92.598987)scale(0.13 -0.13)">
      <use xlink:href="#DejaVuSans-83"/>
     </g>
    </g>
   </g>
   <g id="text_13">
    <g clip-path="url(#p97cac6f827)">
     <!-- S -->
     <g transform="translate(544.841709 47.147987)scale(0.13 -0.13)">
      <use xlink:href="#DejaVuSans-83"/>
     </g>
    </g>
   </g>
   <g id="text_14">
    <g clip-path="url(#p97cac6f827)">
     <!-- $\mathrm{S}^\dagger$ -->
     <g transform="translate(631.420193 92.598987)scale(0.13 -0.13)">
      <use transform="translate(0 0.684375)" xlink:href="#DejaVuSans-83"/>
      <use transform="translate(78.071289 38.965625)scale(0.7)" xlink:href="#DejaVuSans-8224"/>
     </g>
    </g>
   </g>
   <g id="text_15">
    <g clip-path="url(#p97cac6f827)">
     <!-- $\mathrm{S}^\dagger$ -->
     <g transform="translate(631.420193 47.147987)scale(0.13 -0.13)">
      <use transform="translate(0 0.684375)" xlink:href="#DejaVuSans-83"/>
      <use transform="translate(78.071289 38.965625)scale(0.7)" xlink:href="#DejaVuSans-8224"/>
     </g>
    </g>
   </g>
   <g id="text_16">
    <g clip-path="url(#p97cac6f827)">
     <!-- H -->
     <g transform="translate(680.43299 92.598987)scale(0.13 -0.13)">
      <use xlink:href="#DejaVuSans-72"/>
     </g>
    </g>
   </g>
   <g id="text_17">
    <g clip-path="url(#p97cac6f827)">
     <!-- H -->
     <g transform="translate(680.43299 47.147987)scale(0.13 -0.13)">
      <use xlink:href="#DejaVuSans-72"/>
     </g>
    </g>
   </g>
   <g id="text_18">
    <g clip-path="url(#p97cac6f827)">
     <!-- Y -->
     <g transform="translate(726.802115 47.147987)scale(0.13 -0.13)">
      <use xlink:href="#DejaVuSans-89"/>
     </g>
    </g>
   </g>
   <g id="text_19">
    <g clip-path="url(#p97cac6f827)">
     <!-- 1 -->
     <defs>
      <path d="M 12.40625 8.296875 
L 28.515625 8.296875 
L 28.515625 63.921875 
L 10.984375 60.40625 
L 10.984375 69.390625 
L 28.421875 72.90625 
L 38.28125 72.90625 
L 38.28125 8.296875 
L 54.390625 8.296875 
L 54.390625 0 
L 12.40625 0 
z
" id="DejaVuSans-49"/>
     </defs>
     <g transform="translate(742.134943 127.754825)scale(0.104 -0.104)">
      <use xlink:href="#DejaVuSans-49"/>
     </g>
    </g>
   </g>
   <g id="text_20">
    <g clip-path="url(#p97cac6f827)">
     <!-- 0 -->
     <defs>
      <path d="M 31.78125 66.40625 
Q 24.171875 66.40625 20.328125 58.90625 
Q 16.5 51.421875 16.5 36.375 
Q 16.5 21.390625 20.328125 13.890625 
Q 24.171875 6.390625 31.78125 6.390625 
Q 39.453125 6.390625 43.28125 13.890625 
Q 47.125 21.390625 47.125 36.375 
Q 47.125 51.421875 43.28125 58.90625 
Q 39.453125 66.40625 31.78125 66.40625 
z
M 31.78125 74.21875 
Q 44.046875 74.21875 50.515625 64.515625 
Q 56.984375 54.828125 56.984375 36.375 
Q 56.984375 17.96875 50.515625 8.265625 
Q 44.046875 -1.421875 31.78125 -1.421875 
Q 19.53125 -1.421875 13.0625 8.265625 
Q 6.59375 17.96875 6.59375 36.375 
Q 6.59375 54.828125 13.0625 64.515625 
Q 19.53125 74.21875 31.78125 74.21875 
z
" id="DejaVuSans-48"/>
     </defs>
     <g transform="translate(787.585943 127.754825)scale(0.104 -0.104)">
      <use xlink:href="#DejaVuSans-48"/>
     </g>
    </g>
   </g>
   <g id="text_21">
    <g clip-path="url(#p97cac6f827)">
     <!-- ${qr}_{0}$ -->
     <defs>
      <path d="M 41.703125 8.203125 
Q 38.09375 3.46875 33.171875 1.015625 
Q 28.265625 -1.421875 22.3125 -1.421875 
Q 14.015625 -1.421875 9.296875 4.171875 
Q 4.59375 9.765625 4.59375 19.578125 
Q 4.59375 27.484375 7.5 34.859375 
Q 10.40625 42.234375 15.828125 48.09375 
Q 19.34375 51.90625 23.90625 53.953125 
Q 28.46875 56 33.5 56 
Q 39.546875 56 43.453125 53.609375 
Q 47.359375 51.21875 49.125 46.390625 
L 50.6875 54.59375 
L 59.71875 54.59375 
L 45.125 -20.609375 
L 36.078125 -20.609375 
z
M 13.921875 20.90625 
Q 13.921875 13.671875 16.9375 9.890625 
Q 19.96875 6.109375 25.6875 6.109375 
Q 34.1875 6.109375 40.1875 14.234375 
Q 46.1875 22.359375 46.1875 33.984375 
Q 46.1875 41.015625 43.078125 44.75 
Q 39.984375 48.484375 34.1875 48.484375 
Q 29.9375 48.484375 26.3125 46.5 
Q 22.703125 44.53125 20.015625 40.71875 
Q 17.1875 36.71875 15.546875 31.34375 
Q 13.921875 25.984375 13.921875 20.90625 
z
" id="DejaVuSans-Oblique-113"/>
      <path d="M 44.578125 46.390625 
Q 43.21875 47.125 41.453125 47.515625 
Q 39.703125 47.90625 37.703125 47.90625 
Q 30.515625 47.90625 25.140625 42.453125 
Q 19.78125 37.015625 18.015625 27.875 
L 12.5 0 
L 3.515625 0 
L 14.203125 54.6875 
L 23.1875 54.6875 
L 21.484375 46.1875 
Q 25.046875 50.921875 30 53.453125 
Q 34.96875 56 40.578125 56 
Q 42.046875 56 43.453125 55.828125 
Q 44.875 55.671875 46.296875 55.28125 
z
" id="DejaVuSans-Oblique-114"/>
     </defs>
     <g transform="translate(36.124453 48.011777)scale(0.1625 -0.1625)">
      <use xlink:href="#DejaVuSans-Oblique-113"/>
      <use transform="translate(63.476562 0)" xlink:href="#DejaVuSans-Oblique-114"/>
      <use transform="translate(104.589844 -16.40625)scale(0.7)" xlink:href="#DejaVuSans-48"/>
     </g>
    </g>
   </g>
   <g id="text_22">
    <g clip-path="url(#p97cac6f827)">
     <!-- ${qr}_{1}$ -->
     <g transform="translate(36.124453 93.462777)scale(0.1625 -0.1625)">
      <use xlink:href="#DejaVuSans-Oblique-113"/>
      <use transform="translate(63.476562 0)" xlink:href="#DejaVuSans-Oblique-114"/>
      <use transform="translate(104.589844 -16.40625)scale(0.7)" xlink:href="#DejaVuSans-49"/>
     </g>
    </g>
   </g>
   <g id="text_23">
    <g clip-path="url(#p97cac6f827)">
     <!-- 2 -->
     <defs>
      <path d="M 19.1875 8.296875 
L 53.609375 8.296875 
L 53.609375 0 
L 7.328125 0 
L 7.328125 8.296875 
Q 12.9375 14.109375 22.625 23.890625 
Q 32.328125 33.6875 34.8125 36.53125 
Q 39.546875 41.84375 41.421875 45.53125 
Q 43.3125 49.21875 43.3125 52.78125 
Q 43.3125 58.59375 39.234375 62.25 
Q 35.15625 65.921875 28.609375 65.921875 
Q 23.96875 65.921875 18.8125 64.3125 
Q 13.671875 62.703125 7.8125 59.421875 
L 7.8125 69.390625 
Q 13.765625 71.78125 18.9375 73 
Q 24.125 74.21875 28.421875 74.21875 
Q 39.75 74.21875 46.484375 68.546875 
Q 53.21875 62.890625 53.21875 53.421875 
Q 53.21875 48.921875 51.53125 44.890625 
Q 49.859375 40.875 45.40625 35.40625 
Q 44.1875 33.984375 37.640625 27.21875 
Q 31.109375 20.453125 19.1875 8.296875 
z
" id="DejaVuSans-50"/>
     </defs>
     <g transform="translate(74.459753 127.754825)scale(0.104 -0.104)">
      <use xlink:href="#DejaVuSans-50"/>
     </g>
    </g>
   </g>
   <g id="text_24">
    <g clip-path="url(#p97cac6f827)">
     <!-- cr -->
     <defs>
      <path d="M 48.78125 52.59375 
L 48.78125 44.1875 
Q 44.96875 46.296875 41.140625 47.34375 
Q 37.3125 48.390625 33.40625 48.390625 
Q 24.65625 48.390625 19.8125 42.84375 
Q 14.984375 37.3125 14.984375 27.296875 
Q 14.984375 17.28125 19.8125 11.734375 
Q 24.65625 6.203125 33.40625 6.203125 
Q 37.3125 6.203125 41.140625 7.25 
Q 44.96875 8.296875 48.78125 10.40625 
L 48.78125 2.09375 
Q 45.015625 0.34375 40.984375 -0.53125 
Q 36.96875 -1.421875 32.421875 -1.421875 
Q 20.0625 -1.421875 12.78125 6.34375 
Q 5.515625 14.109375 5.515625 27.296875 
Q 5.515625 40.671875 12.859375 48.328125 
Q 20.21875 56 33.015625 56 
Q 37.15625 56 41.109375 55.140625 
Q 45.0625 54.296875 48.78125 52.59375 
z
" id="DejaVuSans-99"/>
      <path d="M 41.109375 46.296875 
Q 39.59375 47.171875 37.8125 47.578125 
Q 36.03125 48 33.890625 48 
Q 26.265625 48 22.1875 43.046875 
Q 18.109375 38.09375 18.109375 28.8125 
L 18.109375 0 
L 9.078125 0 
L 9.078125 54.6875 
L 18.109375 54.6875 
L 18.109375 46.1875 
Q 20.953125 51.171875 25.484375 53.578125 
Q 30.03125 56 36.53125 56 
Q 37.453125 56 38.578125 55.875 
Q 39.703125 55.765625 41.0625 55.515625 
z
" id="DejaVuSans-114"/>
     </defs>
     <g transform="translate(45.209219 138.946784)scale(0.1625 -0.1625)">
      <use xlink:href="#DejaVuSans-99"/>
      <use x="54.980469" xlink:href="#DejaVuSans-114"/>
     </g>
    </g>
   </g>
  </g>
 </g>
 <defs>
  <clipPath id="p97cac6f827">
   <rect height="154.5334" width="799.020853" x="7.2" y="7.2"/>
  </clipPath>
 </defs>
</svg>
