<?xml version="1.0" encoding="utf-8" standalone="no"?>
<!DOCTYPE svg PUBLIC "-//W3C//DTD SVG 1.1//EN"
  "http://www.w3.org/Graphics/SVG/1.1/DTD/svg11.dtd">
<!-- Created with matplotlib (https://matplotlib.org/) -->
<svg height="168.9334pt" version="1.1" viewBox="0 0 579.742036 168.9334" width="579.742036pt" xmlns="http://www.w3.org/2000/svg" xmlns:xlink="http://www.w3.org/1999/xlink">
 <defs>
  <style type="text/css">
*{stroke-linecap:butt;stroke-linejoin:round;}
  </style>
 </defs>
 <g id="figure_1">
  <g id="patch_1">
   <path d="M 0 168.9334 
L 579.742036 168.9334 
L 579.742036 0 
L 0 0 
z
" style="fill:#ffffff;"/>
  </g>
  <g id="axes_1">
   <g id="line2d_1">
    <path clip-path="url(#p989a34590e)" d="M 63.490836 43.5608 
L 567.996936 43.5608 
" style="fill:none;stroke:#000000;stroke-linecap:square;stroke-width:2;"/>
   </g>
   <g id="line2d_2">
    <path clip-path="url(#p989a34590e)" d="M 63.490836 89.0118 
L 567.996936 89.0118 
" style="fill:none;stroke:#000000;stroke-linecap:square;stroke-width:2;"/>
   </g>
   <g id="line2d_3">
    <path clip-path="url(#p989a34590e)" d="M 63.490836 134.4628 
L 567.996936 134.4628 
" style="fill:none;stroke:#000000;stroke-linecap:square;stroke-width:2;"/>
   </g>
   <g id="line2d_4">
    <path clip-path="url(#p989a34590e)" d="M 133.485376 134.4628 
L 133.485376 89.0118 
" style="fill:none;stroke:#6fa4ff;stroke-linecap:square;stroke-width:2;"/>
   </g>
   <g id="line2d_5">
    <path clip-path="url(#p989a34590e)" d="M 224.387376 134.4628 
L 224.387376 43.5608 
" style="fill:none;stroke:#6fa4ff;stroke-linecap:square;stroke-width:2;"/>
   </g>
   <g id="line2d_6">
    <path clip-path="url(#p989a34590e)" d="M 315.289376 134.4628 
L 315.289376 89.0118 
" style="fill:none;stroke:#6fa4ff;stroke-linecap:square;stroke-width:2;"/>
   </g>
   <g id="line2d_7">
    <path clip-path="url(#p989a34590e)" d="M 406.191376 134.4628 
L 406.191376 43.5608 
" style="fill:none;stroke:#6fa4ff;stroke-linecap:square;stroke-width:2;"/>
   </g>
   <g id="line2d_8">
    <path clip-path="url(#p989a34590e)" d="M 451.642376 89.0118 
L 451.642376 43.5608 
" style="fill:none;stroke:#6fa4ff;stroke-linecap:square;stroke-width:2;"/>
   </g>
   <g id="line2d_9">
    <path clip-path="url(#p989a34590e)" d="M 542.544376 89.0118 
L 542.544376 43.5608 
" style="fill:none;stroke:#6fa4ff;stroke-linecap:square;stroke-width:2;"/>
   </g>
   <g id="patch_2">
    <path clip-path="url(#p989a34590e)" d="M 73.262801 149.234375 
L 102.805951 149.234375 
L 102.805951 119.691225 
L 73.262801 119.691225 
z
" style="fill:#6fa4ff;stroke:#6fa4ff;stroke-linejoin:miter;stroke-width:1.5;"/>
   </g>
   <g id="patch_3">
    <path clip-path="url(#p989a34590e)" d="M 133.485376 93.443273 
C 134.660616 93.443273 135.78788 92.976345 136.618901 92.145324 
C 137.449921 91.314304 137.916849 90.18704 137.916849 89.0118 
C 137.916849 87.83656 137.449921 86.709296 136.618901 85.878276 
C 135.78788 85.047255 134.660616 84.580328 133.485376 84.580328 
C 132.310136 84.580328 131.182872 85.047255 130.351852 85.878276 
C 129.520832 86.709296 129.053904 87.83656 129.053904 89.0118 
C 129.053904 90.18704 129.520832 91.314304 130.351852 92.145324 
C 131.182872 92.976345 132.310136 93.443273 133.485376 93.443273 
z
" style="fill:#6fa4ff;stroke:#6fa4ff;stroke-linejoin:miter;stroke-width:1.5;"/>
   </g>
   <g id="patch_4">
    <path clip-path="url(#p989a34590e)" d="M 133.485376 144.802902 
C 136.227603 144.802902 138.857885 143.713404 140.796933 141.774357 
C 142.73598 139.835309 143.825479 137.205027 143.825479 134.4628 
C 143.825479 131.720573 142.73598 129.090291 140.796933 127.151243 
C 138.857885 125.212196 136.227603 124.122697 133.485376 124.122697 
C 130.743149 124.122697 128.112867 125.212196 126.17382 127.151243 
C 124.234772 129.090291 123.145274 131.720573 123.145274 134.4628 
C 123.145274 137.205027 124.234772 139.835309 126.17382 141.774357 
C 128.112867 143.713404 130.743149 144.802902 133.485376 144.802902 
z
" style="fill:#6fa4ff;stroke:#6fa4ff;stroke-linejoin:miter;stroke-width:2;"/>
   </g>
   <g id="patch_5">
    <path clip-path="url(#p989a34590e)" d="M 164.164801 149.234375 
L 193.707951 149.234375 
L 193.707951 119.691225 
L 164.164801 119.691225 
z
" style="fill:#bb8bff;stroke:#bb8bff;stroke-linejoin:miter;stroke-width:1.5;"/>
   </g>
   <g id="patch_6">
    <path clip-path="url(#p989a34590e)" d="M 224.387376 47.992273 
C 225.562616 47.992273 226.68988 47.525345 227.520901 46.694324 
C 228.351921 45.863304 228.818849 44.73604 228.818849 43.5608 
C 228.818849 42.38556 228.351921 41.258296 227.520901 40.427276 
C 226.68988 39.596255 225.562616 39.129328 224.387376 39.129328 
C 223.212136 39.129328 222.084872 39.596255 221.253852 40.427276 
C 220.422832 41.258296 219.955904 42.38556 219.955904 43.5608 
C 219.955904 44.73604 220.422832 45.863304 221.253852 46.694324 
C 222.084872 47.525345 223.212136 47.992273 224.387376 47.992273 
z
" style="fill:#6fa4ff;stroke:#6fa4ff;stroke-linejoin:miter;stroke-width:1.5;"/>
   </g>
   <g id="patch_7">
    <path clip-path="url(#p989a34590e)" d="M 224.387376 144.802902 
C 227.129603 144.802902 229.759885 143.713404 231.698933 141.774357 
C 233.63798 139.835309 234.727479 137.205027 234.727479 134.4628 
C 234.727479 131.720573 233.63798 129.090291 231.698933 127.151243 
C 229.759885 125.212196 227.129603 124.122697 224.387376 124.122697 
C 221.645149 124.122697 219.014867 125.212196 217.07582 127.151243 
C 215.136772 129.090291 214.047274 131.720573 214.047274 134.4628 
C 214.047274 137.205027 215.136772 139.835309 217.07582 141.774357 
C 219.014867 143.713404 221.645149 144.802902 224.387376 144.802902 
z
" style="fill:#6fa4ff;stroke:#6fa4ff;stroke-linejoin:miter;stroke-width:2;"/>
   </g>
   <g id="patch_8">
    <path clip-path="url(#p989a34590e)" d="M 255.066801 149.234375 
L 284.609951 149.234375 
L 284.609951 119.691225 
L 255.066801 119.691225 
z
" style="fill:#bb8bff;stroke:#bb8bff;stroke-linejoin:miter;stroke-width:1.5;"/>
   </g>
   <g id="patch_9">
    <path clip-path="url(#p989a34590e)" d="M 315.289376 93.443273 
C 316.464616 93.443273 317.59188 92.976345 318.422901 92.145324 
C 319.253921 91.314304 319.720849 90.18704 319.720849 89.0118 
C 319.720849 87.83656 319.253921 86.709296 318.422901 85.878276 
C 317.59188 85.047255 316.464616 84.580328 315.289376 84.580328 
C 314.114136 84.580328 312.986872 85.047255 312.155852 85.878276 
C 311.324832 86.709296 310.857904 87.83656 310.857904 89.0118 
C 310.857904 90.18704 311.324832 91.314304 312.155852 92.145324 
C 312.986872 92.976345 314.114136 93.443273 315.289376 93.443273 
z
" style="fill:#6fa4ff;stroke:#6fa4ff;stroke-linejoin:miter;stroke-width:1.5;"/>
   </g>
   <g id="patch_10">
    <path clip-path="url(#p989a34590e)" d="M 315.289376 144.802902 
C 318.031603 144.802902 320.661885 143.713404 322.600933 141.774357 
C 324.53998 139.835309 325.629479 137.205027 325.629479 134.4628 
C 325.629479 131.720573 324.53998 129.090291 322.600933 127.151243 
C 320.661885 125.212196 318.031603 124.122697 315.289376 124.122697 
C 312.547149 124.122697 309.916867 125.212196 307.97782 127.151243 
C 306.038772 129.090291 304.949274 131.720573 304.949274 134.4628 
C 304.949274 137.205027 306.038772 139.835309 307.97782 141.774357 
C 309.916867 143.713404 312.547149 144.802902 315.289376 144.802902 
z
" style="fill:#6fa4ff;stroke:#6fa4ff;stroke-linejoin:miter;stroke-width:2;"/>
   </g>
   <g id="patch_11">
    <path clip-path="url(#p989a34590e)" d="M 345.968801 103.783375 
L 375.511951 103.783375 
L 375.511951 74.240225 
L 345.968801 74.240225 
z
" style="fill:#bb8bff;stroke:#bb8bff;stroke-linejoin:miter;stroke-width:1.5;"/>
   </g>
   <g id="patch_12">
    <path clip-path="url(#p989a34590e)" d="M 345.968801 149.234375 
L 375.511951 149.234375 
L 375.511951 119.691225 
L 345.968801 119.691225 
z
" style="fill:#bb8bff;stroke:#bb8bff;stroke-linejoin:miter;stroke-width:1.5;"/>
   </g>
   <g id="patch_13">
    <path clip-path="url(#p989a34590e)" d="M 406.191376 47.992273 
C 407.366616 47.992273 408.49388 47.525345 409.324901 46.694324 
C 410.155921 45.863304 410.622849 44.73604 410.622849 43.5608 
C 410.622849 42.38556 410.155921 41.258296 409.324901 40.427276 
C 408.49388 39.596255 407.366616 39.129328 406.191376 39.129328 
C 405.016136 39.129328 403.888872 39.596255 403.057852 40.427276 
C 402.226832 41.258296 401.759904 42.38556 401.759904 43.5608 
C 401.759904 44.73604 402.226832 45.863304 403.057852 46.694324 
C 403.888872 47.525345 405.016136 47.992273 406.191376 47.992273 
z
" style="fill:#6fa4ff;stroke:#6fa4ff;stroke-linejoin:miter;stroke-width:1.5;"/>
   </g>
   <g id="patch_14">
    <path clip-path="url(#p989a34590e)" d="M 406.191376 144.802902 
C 408.933603 144.802902 411.563885 143.713404 413.502933 141.774357 
C 415.44198 139.835309 416.531479 137.205027 416.531479 134.4628 
C 416.531479 131.720573 415.44198 129.090291 413.502933 127.151243 
C 411.563885 125.212196 408.933603 124.122697 406.191376 124.122697 
C 403.449149 124.122697 400.818867 125.212196 398.87982 127.151243 
C 396.940772 129.090291 395.851274 131.720573 395.851274 134.4628 
C 395.851274 137.205027 396.940772 139.835309 398.87982 141.774357 
C 400.818867 143.713404 403.449149 144.802902 406.191376 144.802902 
z
" style="fill:#6fa4ff;stroke:#6fa4ff;stroke-linejoin:miter;stroke-width:2;"/>
   </g>
   <g id="patch_15">
    <path clip-path="url(#p989a34590e)" d="M 451.642376 47.992273 
C 452.817616 47.992273 453.94488 47.525345 454.775901 46.694324 
C 455.606921 45.863304 456.073849 44.73604 456.073849 43.5608 
C 456.073849 42.38556 455.606921 41.258296 454.775901 40.427276 
C 453.94488 39.596255 452.817616 39.129328 451.642376 39.129328 
C 450.467136 39.129328 449.339872 39.596255 448.508852 40.427276 
C 447.677832 41.258296 447.210904 42.38556 447.210904 43.5608 
C 447.210904 44.73604 447.677832 45.863304 448.508852 46.694324 
C 449.339872 47.525345 450.467136 47.992273 451.642376 47.992273 
z
" style="fill:#6fa4ff;stroke:#6fa4ff;stroke-linejoin:miter;stroke-width:1.5;"/>
   </g>
   <g id="patch_16">
    <path clip-path="url(#p989a34590e)" d="M 451.642376 99.351903 
C 454.384603 99.351903 457.014885 98.262404 458.953933 96.323357 
C 460.89298 94.384309 461.982479 91.754027 461.982479 89.0118 
C 461.982479 86.269573 460.89298 83.639291 458.953933 81.700243 
C 457.014885 79.761196 454.384603 78.671698 451.642376 78.671698 
C 448.900149 78.671698 446.269867 79.761196 444.33082 81.700243 
C 442.391772 83.639291 441.302274 86.269573 441.302274 89.0118 
C 441.302274 91.754027 442.391772 94.384309 444.33082 96.323357 
C 446.269867 98.262404 448.900149 99.351903 451.642376 99.351903 
z
" style="fill:#6fa4ff;stroke:#6fa4ff;stroke-linejoin:miter;stroke-width:2;"/>
   </g>
   <g id="patch_17">
    <path clip-path="url(#p989a34590e)" d="M 436.870801 149.234375 
L 466.413951 149.234375 
L 466.413951 119.691225 
L 436.870801 119.691225 
z
" style="fill:#bb8bff;stroke:#bb8bff;stroke-linejoin:miter;stroke-width:1.5;"/>
   </g>
   <g id="patch_18">
    <path clip-path="url(#p989a34590e)" d="M 482.321801 58.332375 
L 511.864951 58.332375 
L 511.864951 28.789225 
L 482.321801 28.789225 
z
" style="fill:#bb8bff;stroke:#bb8bff;stroke-linejoin:miter;stroke-width:1.5;"/>
   </g>
   <g id="patch_19">
    <path clip-path="url(#p989a34590e)" d="M 482.321801 103.783375 
L 511.864951 103.783375 
L 511.864951 74.240225 
L 482.321801 74.240225 
z
" style="fill:#bb8bff;stroke:#bb8bff;stroke-linejoin:miter;stroke-width:1.5;"/>
   </g>
   <g id="patch_20">
    <path clip-path="url(#p989a34590e)" d="M 482.321801 149.234375 
L 511.864951 149.234375 
L 511.864951 119.691225 
L 482.321801 119.691225 
z
" style="fill:#6fa4ff;stroke:#6fa4ff;stroke-linejoin:miter;stroke-width:1.5;"/>
   </g>
   <g id="patch_21">
    <path clip-path="url(#p989a34590e)" d="M 542.544376 47.992273 
C 543.719616 47.992273 544.84688 47.525345 545.677901 46.694324 
C 546.508921 45.863304 546.975849 44.73604 546.975849 43.5608 
C 546.975849 42.38556 546.508921 41.258296 545.677901 40.427276 
C 544.84688 39.596255 543.719616 39.129328 542.544376 39.129328 
C 541.369136 39.129328 540.241872 39.596255 539.410852 40.427276 
C 538.579832 41.258296 538.112904 42.38556 538.112904 43.5608 
C 538.112904 44.73604 538.579832 45.863304 539.410852 46.694324 
C 540.241872 47.525345 541.369136 47.992273 542.544376 47.992273 
z
" style="fill:#6fa4ff;stroke:#6fa4ff;stroke-linejoin:miter;stroke-width:1.5;"/>
   </g>
   <g id="patch_22">
    <path clip-path="url(#p989a34590e)" d="M 542.544376 99.351903 
C 545.286603 99.351903 547.916885 98.262404 549.855933 96.323357 
C 551.79498 94.384309 552.884479 91.754027 552.884479 89.0118 
C 552.884479 86.269573 551.79498 83.639291 549.855933 81.700243 
C 547.916885 79.761196 545.286603 78.671698 542.544376 78.671698 
C 539.802149 78.671698 537.171867 79.761196 535.23282 81.700243 
C 533.293772 83.639291 532.204274 86.269573 532.204274 89.0118 
C 532.204274 91.754027 533.293772 94.384309 535.23282 96.323357 
C 537.171867 98.262404 539.802149 99.351903 542.544376 99.351903 
z
" style="fill:#6fa4ff;stroke:#6fa4ff;stroke-linejoin:miter;stroke-width:2;"/>
   </g>
   <g id="line2d_10">
    <path clip-path="url(#p989a34590e)" d="M 133.485376 140.37143 
L 133.485376 128.55417 
" style="fill:none;stroke:#ffffff;stroke-linecap:square;stroke-width:2;"/>
   </g>
   <g id="line2d_11">
    <path clip-path="url(#p989a34590e)" d="M 127.576746 134.4628 
L 139.394006 134.4628 
" style="fill:none;stroke:#ffffff;stroke-linecap:square;stroke-width:2;"/>
   </g>
   <g id="line2d_12">
    <path clip-path="url(#p989a34590e)" d="M 224.387376 140.37143 
L 224.387376 128.55417 
" style="fill:none;stroke:#ffffff;stroke-linecap:square;stroke-width:2;"/>
   </g>
   <g id="line2d_13">
    <path clip-path="url(#p989a34590e)" d="M 218.478746 134.4628 
L 230.296006 134.4628 
" style="fill:none;stroke:#ffffff;stroke-linecap:square;stroke-width:2;"/>
   </g>
   <g id="line2d_14">
    <path clip-path="url(#p989a34590e)" d="M 315.289376 140.37143 
L 315.289376 128.55417 
" style="fill:none;stroke:#ffffff;stroke-linecap:square;stroke-width:2;"/>
   </g>
   <g id="line2d_15">
    <path clip-path="url(#p989a34590e)" d="M 309.380746 134.4628 
L 321.198006 134.4628 
" style="fill:none;stroke:#ffffff;stroke-linecap:square;stroke-width:2;"/>
   </g>
   <g id="line2d_16">
    <path clip-path="url(#p989a34590e)" d="M 406.191376 140.37143 
L 406.191376 128.55417 
" style="fill:none;stroke:#ffffff;stroke-linecap:square;stroke-width:2;"/>
   </g>
   <g id="line2d_17">
    <path clip-path="url(#p989a34590e)" d="M 400.282746 134.4628 
L 412.100006 134.4628 
" style="fill:none;stroke:#ffffff;stroke-linecap:square;stroke-width:2;"/>
   </g>
   <g id="line2d_18">
    <path clip-path="url(#p989a34590e)" d="M 451.642376 94.92043 
L 451.642376 83.10317 
" style="fill:none;stroke:#ffffff;stroke-linecap:square;stroke-width:2;"/>
   </g>
   <g id="line2d_19">
    <path clip-path="url(#p989a34590e)" d="M 445.733746 89.0118 
L 457.551006 89.0118 
" style="fill:none;stroke:#ffffff;stroke-linecap:square;stroke-width:2;"/>
   </g>
   <g id="line2d_20">
    <path clip-path="url(#p989a34590e)" d="M 542.544376 94.92043 
L 542.544376 83.10317 
" style="fill:none;stroke:#ffffff;stroke-linecap:square;stroke-width:2;"/>
   </g>
   <g id="line2d_21">
    <path clip-path="url(#p989a34590e)" d="M 536.635746 89.0118 
L 548.453006 89.0118 
" style="fill:none;stroke:#ffffff;stroke-linecap:square;stroke-width:2;"/>
   </g>
   <g id="text_1">
    <g clip-path="url(#p989a34590e)">
     <!-- H -->
     <defs>
      <path d="M 9.8125 72.90625 
L 19.671875 72.90625 
L 19.671875 43.015625 
L 55.515625 43.015625 
L 55.515625 72.90625 
L 65.375 72.90625 
L 65.375 0 
L 55.515625 0 
L 55.515625 34.71875 
L 19.671875 34.71875 
L 19.671875 0 
L 9.8125 0 
z
" id="DejaVuSans-72"/>
     </defs>
     <g transform="translate(83.146173 138.049987)scale(0.13 -0.13)">
      <use xlink:href="#DejaVuSans-72"/>
     </g>
    </g>
   </g>
   <g id="text_2">
    <g clip-path="url(#p989a34590e)">
     <!-- $\mathrm{T}^\dagger$ -->
     <defs>
      <path d="M -0.296875 72.90625 
L 61.375 72.90625 
L 61.375 64.59375 
L 35.5 64.59375 
L 35.5 0 
L 25.59375 0 
L 25.59375 64.59375 
L -0.296875 64.59375 
z
" id="DejaVuSans-84"/>
      <path d="M 20.703125 72.90625 
L 29.296875 72.90625 
L 29.296875 52.390625 
L 47.21875 52.390625 
L 47.21875 44.921875 
L 29.296875 44.921875 
L 29.296875 -9.625 
L 20.703125 -9.625 
L 20.703125 44.921875 
L 2.78125 44.921875 
L 2.78125 52.390625 
L 20.703125 52.390625 
z
" id="DejaVuSans-8224"/>
     </defs>
     <g transform="translate(170.616376 138.049987)scale(0.13 -0.13)">
      <use transform="translate(0 0.684375)" xlink:href="#DejaVuSans-84"/>
      <use transform="translate(75.678711 38.965625)scale(0.7)" xlink:href="#DejaVuSans-8224"/>
     </g>
    </g>
   </g>
   <g id="text_3">
    <g clip-path="url(#p989a34590e)">
     <!-- T -->
     <g transform="translate(265.868298 138.049987)scale(0.13 -0.13)">
      <use xlink:href="#DejaVuSans-84"/>
     </g>
    </g>
   </g>
   <g id="text_4">
    <g clip-path="url(#p989a34590e)">
     <!-- T -->
     <g transform="translate(356.770298 92.598988)scale(0.13 -0.13)">
      <use xlink:href="#DejaVuSans-84"/>
     </g>
    </g>
   </g>
   <g id="text_5">
    <g clip-path="url(#p989a34590e)">
     <!-- $\mathrm{T}^\dagger$ -->
     <g transform="translate(352.420376 138.049987)scale(0.13 -0.13)">
      <use transform="translate(0 0.684375)" xlink:href="#DejaVuSans-84"/>
      <use transform="translate(75.678711 38.965625)scale(0.7)" xlink:href="#DejaVuSans-8224"/>
     </g>
    </g>
   </g>
   <g id="text_6">
    <g clip-path="url(#p989a34590e)">
     <!-- T -->
     <g transform="translate(447.672298 138.049987)scale(0.13 -0.13)">
      <use xlink:href="#DejaVuSans-84"/>
     </g>
    </g>
   </g>
   <g id="text_7">
    <g clip-path="url(#p989a34590e)">
     <!-- T -->
     <g transform="translate(493.123298 47.147988)scale(0.13 -0.13)">
      <use xlink:href="#DejaVuSans-84"/>
     </g>
    </g>
   </g>
   <g id="text_8">
    <g clip-path="url(#p989a34590e)">
     <!-- $\mathrm{T}^\dagger$ -->
     <g transform="translate(488.773376 92.598988)scale(0.13 -0.13)">
      <use transform="translate(0 0.684375)" xlink:href="#DejaVuSans-84"/>
      <use transform="translate(75.678711 38.965625)scale(0.7)" xlink:href="#DejaVuSans-8224"/>
     </g>
    </g>
   </g>
   <g id="text_9">
    <g clip-path="url(#p989a34590e)">
     <!-- H -->
     <g transform="translate(492.205173 138.049987)scale(0.13 -0.13)">
      <use xlink:href="#DejaVuSans-72"/>
     </g>
    </g>
   </g>
   <g id="text_10">
    <g clip-path="url(#p989a34590e)">
     <!-- ${q}_{0}$ -->
     <defs>
      <path d="M 41.703125 8.203125 
Q 38.09375 3.46875 33.171875 1.015625 
Q 28.265625 -1.421875 22.3125 -1.421875 
Q 14.015625 -1.421875 9.296875 4.171875 
Q 4.59375 9.765625 4.59375 19.578125 
Q 4.59375 27.484375 7.5 34.859375 
Q 10.40625 42.234375 15.828125 48.09375 
Q 19.34375 51.90625 23.90625 53.953125 
Q 28.46875 56 33.5 56 
Q 39.546875 56 43.453125 53.609375 
Q 47.359375 51.21875 49.125 46.390625 
L 50.6875 54.59375 
L 59.71875 54.59375 
L 45.125 -20.609375 
L 36.078125 -20.609375 
z
M 13.921875 20.90625 
Q 13.921875 13.671875 16.9375 9.890625 
Q 19.96875 6.109375 25.6875 6.109375 
Q 34.1875 6.109375 40.1875 14.234375 
Q 46.1875 22.359375 46.1875 33.984375 
Q 46.1875 41.015625 43.078125 44.75 
Q 39.984375 48.484375 34.1875 48.484375 
Q 29.9375 48.484375 26.3125 46.5 
Q 22.703125 44.53125 20.015625 40.71875 
Q 17.1875 36.71875 15.546875 31.34375 
Q 13.921875 25.984375 13.921875 20.90625 
z
" id="DejaVuSans-Oblique-113"/>
      <path d="M 31.78125 66.40625 
Q 24.171875 66.40625 20.328125 58.90625 
Q 16.5 51.421875 16.5 36.375 
Q 16.5 21.390625 20.328125 13.890625 
Q 24.171875 6.390625 31.78125 6.390625 
Q 39.453125 6.390625 43.28125 13.890625 
Q 47.125 21.390625 47.125 36.375 
Q 47.125 51.421875 43.28125 58.90625 
Q 39.453125 66.40625 31.78125 66.40625 
z
M 31.78125 74.21875 
Q 44.046875 74.21875 50.515625 64.515625 
Q 56.984375 54.828125 56.984375 36.375 
Q 56.984375 17.96875 50.515625 8.265625 
Q 44.046875 -1.421875 31.78125 -1.421875 
Q 19.53125 -1.421875 13.0625 8.265625 
Q 6.59375 17.96875 6.59375 36.375 
Q 6.59375 54.828125 13.0625 64.515625 
Q 19.53125 74.21875 31.78125 74.21875 
z
" id="DejaVuSans-48"/>
     </defs>
     <g transform="translate(36.363136 48.011777)scale(0.1625 -0.1625)">
      <use xlink:href="#DejaVuSans-Oblique-113"/>
      <use transform="translate(63.476562 -16.40625)scale(0.7)" xlink:href="#DejaVuSans-48"/>
     </g>
    </g>
   </g>
   <g id="text_11">
    <g clip-path="url(#p989a34590e)">
     <!-- ${q}_{1}$ -->
     <defs>
      <path d="M 12.40625 8.296875 
L 28.515625 8.296875 
L 28.515625 63.921875 
L 10.984375 60.40625 
L 10.984375 69.390625 
L 28.421875 72.90625 
L 38.28125 72.90625 
L 38.28125 8.296875 
L 54.390625 8.296875 
L 54.390625 0 
L 12.40625 0 
z
" id="DejaVuSans-49"/>
     </defs>
     <g transform="translate(36.363136 93.462777)scale(0.1625 -0.1625)">
      <use xlink:href="#DejaVuSans-Oblique-113"/>
      <use transform="translate(63.476562 -16.40625)scale(0.7)" xlink:href="#DejaVuSans-49"/>
     </g>
    </g>
   </g>
   <g id="text_12">
    <g clip-path="url(#p989a34590e)">
     <!-- ${q}_{2}$ -->
     <defs>
      <path d="M 19.1875 8.296875 
L 53.609375 8.296875 
L 53.609375 0 
L 7.328125 0 
L 7.328125 8.296875 
Q 12.9375 14.109375 22.625 23.890625 
Q 32.328125 33.6875 34.8125 36.53125 
Q 39.546875 41.84375 41.421875 45.53125 
Q 43.3125 49.21875 43.3125 52.78125 
Q 43.3125 58.59375 39.234375 62.25 
Q 35.15625 65.921875 28.609375 65.921875 
Q 23.96875 65.921875 18.8125 64.3125 
Q 13.671875 62.703125 7.8125 59.421875 
L 7.8125 69.390625 
Q 13.765625 71.78125 18.9375 73 
Q 24.125 74.21875 28.421875 74.21875 
Q 39.75 74.21875 46.484375 68.546875 
Q 53.21875 62.890625 53.21875 53.421875 
Q 53.21875 48.921875 51.53125 44.890625 
Q 49.859375 40.875 45.40625 35.40625 
Q 44.1875 33.984375 37.640625 27.21875 
Q 31.109375 20.453125 19.1875 8.296875 
z
" id="DejaVuSans-50"/>
     </defs>
     <g transform="translate(36.363136 138.913777)scale(0.1625 -0.1625)">
      <use xlink:href="#DejaVuSans-Oblique-113"/>
      <use transform="translate(63.476562 -16.40625)scale(0.7)" xlink:href="#DejaVuSans-50"/>
     </g>
    </g>
   </g>
  </g>
 </g>
 <defs>
  <clipPath id="p989a34590e">
   <rect height="154.5334" width="565.342036" x="7.2" y="7.2"/>
  </clipPath>
 </defs>
</svg>
