<?xml version="1.0" encoding="utf-8" standalone="no"?>
<!DOCTYPE svg PUBLIC "-//W3C//DTD SVG 1.1//EN"
  "http://www.w3.org/Graphics/SVG/1.1/DTD/svg11.dtd">
<!-- Created with matplotlib (https://matplotlib.org/) -->
<svg height="320.355469pt" version="1.1" viewBox="0 0 454.528125 320.355469" width="454.528125pt" xmlns="http://www.w3.org/2000/svg" xmlns:xlink="http://www.w3.org/1999/xlink">
 <defs>
  <style type="text/css">
*{stroke-linecap:butt;stroke-linejoin:round;}
  </style>
 </defs>
 <g id="figure_1">
  <g id="patch_1">
   <path d="M 0 320.355469 
L 454.528125 320.355469 
L 454.528125 0 
L 0 0 
z
" style="fill:none;"/>
  </g>
  <g id="axes_1">
   <g id="patch_2">
    <path d="M 50.365625 282.799219 
L 440.965625 282.799219 
L 440.965625 10.999219 
L 50.365625 10.999219 
z
" style="fill:#ffffff;"/>
   </g>
   <g id="matplotlib.axis_1">
    <g id="xtick_1">
     <g id="line2d_1">
      <path clip-path="url(#pa968772752)" d="M 50.365625 282.799219 
L 50.365625 10.999219 
" style="fill:none;stroke:#b0b0b0;stroke-linecap:square;stroke-width:0.8;"/>
     </g>
     <g id="line2d_2">
      <defs>
       <path d="M 0 0 
L 0 3.5 
" id="m6f6061dc26" style="stroke:#000000;stroke-width:0.8;"/>
      </defs>
      <g>
       <use style="stroke:#000000;stroke-width:0.8;" x="50.365625" xlink:href="#m6f6061dc26" y="282.799219"/>
      </g>
     </g>
     <g id="text_1">
      <!-- 5 -->
      <defs>
       <path d="M 10.796875 72.90625 
L 49.515625 72.90625 
L 49.515625 64.59375 
L 19.828125 64.59375 
L 19.828125 46.734375 
Q 21.96875 47.46875 24.109375 47.828125 
Q 26.265625 48.1875 28.421875 48.1875 
Q 40.625 48.1875 47.75 41.5 
Q 54.890625 34.8125 54.890625 23.390625 
Q 54.890625 11.625 47.5625 5.09375 
Q 40.234375 -1.421875 26.90625 -1.421875 
Q 22.3125 -1.421875 17.546875 -0.640625 
Q 12.796875 0.140625 7.71875 1.703125 
L 7.71875 11.625 
Q 12.109375 9.234375 16.796875 8.0625 
Q 21.484375 6.890625 26.703125 6.890625 
Q 35.15625 6.890625 40.078125 11.328125 
Q 45.015625 15.765625 45.015625 23.390625 
Q 45.015625 31 40.078125 35.4375 
Q 35.15625 39.890625 26.703125 39.890625 
Q 22.75 39.890625 18.8125 39.015625 
Q 14.890625 38.140625 10.796875 36.28125 
z
" id="DejaVuSans-53"/>
      </defs>
      <g transform="translate(47.184375 297.397656)scale(0.1 -0.1)">
       <use xlink:href="#DejaVuSans-53"/>
      </g>
     </g>
    </g>
    <g id="xtick_2">
     <g id="line2d_3">
      <path clip-path="url(#pa968772752)" d="M 128.485625 282.799219 
L 128.485625 10.999219 
" style="fill:none;stroke:#b0b0b0;stroke-linecap:square;stroke-width:0.8;"/>
     </g>
     <g id="line2d_4">
      <g>
       <use style="stroke:#000000;stroke-width:0.8;" x="128.485625" xlink:href="#m6f6061dc26" y="282.799219"/>
      </g>
     </g>
     <g id="text_2">
      <!-- 6 -->
      <defs>
       <path d="M 33.015625 40.375 
Q 26.375 40.375 22.484375 35.828125 
Q 18.609375 31.296875 18.609375 23.390625 
Q 18.609375 15.53125 22.484375 10.953125 
Q 26.375 6.390625 33.015625 6.390625 
Q 39.65625 6.390625 43.53125 10.953125 
Q 47.40625 15.53125 47.40625 23.390625 
Q 47.40625 31.296875 43.53125 35.828125 
Q 39.65625 40.375 33.015625 40.375 
z
M 52.59375 71.296875 
L 52.59375 62.3125 
Q 48.875 64.0625 45.09375 64.984375 
Q 41.3125 65.921875 37.59375 65.921875 
Q 27.828125 65.921875 22.671875 59.328125 
Q 17.53125 52.734375 16.796875 39.40625 
Q 19.671875 43.65625 24.015625 45.921875 
Q 28.375 48.1875 33.59375 48.1875 
Q 44.578125 48.1875 50.953125 41.515625 
Q 57.328125 34.859375 57.328125 23.390625 
Q 57.328125 12.15625 50.6875 5.359375 
Q 44.046875 -1.421875 33.015625 -1.421875 
Q 20.359375 -1.421875 13.671875 8.265625 
Q 6.984375 17.96875 6.984375 36.375 
Q 6.984375 53.65625 15.1875 63.9375 
Q 23.390625 74.21875 37.203125 74.21875 
Q 40.921875 74.21875 44.703125 73.484375 
Q 48.484375 72.75 52.59375 71.296875 
z
" id="DejaVuSans-54"/>
      </defs>
      <g transform="translate(125.304375 297.397656)scale(0.1 -0.1)">
       <use xlink:href="#DejaVuSans-54"/>
      </g>
     </g>
    </g>
    <g id="xtick_3">
     <g id="line2d_5">
      <path clip-path="url(#pa968772752)" d="M 206.605625 282.799219 
L 206.605625 10.999219 
" style="fill:none;stroke:#b0b0b0;stroke-linecap:square;stroke-width:0.8;"/>
     </g>
     <g id="line2d_6">
      <g>
       <use style="stroke:#000000;stroke-width:0.8;" x="206.605625" xlink:href="#m6f6061dc26" y="282.799219"/>
      </g>
     </g>
     <g id="text_3">
      <!-- 7 -->
      <defs>
       <path d="M 8.203125 72.90625 
L 55.078125 72.90625 
L 55.078125 68.703125 
L 28.609375 0 
L 18.3125 0 
L 43.21875 64.59375 
L 8.203125 64.59375 
z
" id="DejaVuSans-55"/>
      </defs>
      <g transform="translate(203.424375 297.397656)scale(0.1 -0.1)">
       <use xlink:href="#DejaVuSans-55"/>
      </g>
     </g>
    </g>
    <g id="xtick_4">
     <g id="line2d_7">
      <path clip-path="url(#pa968772752)" d="M 284.725625 282.799219 
L 284.725625 10.999219 
" style="fill:none;stroke:#b0b0b0;stroke-linecap:square;stroke-width:0.8;"/>
     </g>
     <g id="line2d_8">
      <g>
       <use style="stroke:#000000;stroke-width:0.8;" x="284.725625" xlink:href="#m6f6061dc26" y="282.799219"/>
      </g>
     </g>
     <g id="text_4">
      <!-- 8 -->
      <defs>
       <path d="M 31.78125 34.625 
Q 24.75 34.625 20.71875 30.859375 
Q 16.703125 27.09375 16.703125 20.515625 
Q 16.703125 13.921875 20.71875 10.15625 
Q 24.75 6.390625 31.78125 6.390625 
Q 38.8125 6.390625 42.859375 10.171875 
Q 46.921875 13.96875 46.921875 20.515625 
Q 46.921875 27.09375 42.890625 30.859375 
Q 38.875 34.625 31.78125 34.625 
z
M 21.921875 38.8125 
Q 15.578125 40.375 12.03125 44.71875 
Q 8.5 49.078125 8.5 55.328125 
Q 8.5 64.0625 14.71875 69.140625 
Q 20.953125 74.21875 31.78125 74.21875 
Q 42.671875 74.21875 48.875 69.140625 
Q 55.078125 64.0625 55.078125 55.328125 
Q 55.078125 49.078125 51.53125 44.71875 
Q 48 40.375 41.703125 38.8125 
Q 48.828125 37.15625 52.796875 32.3125 
Q 56.78125 27.484375 56.78125 20.515625 
Q 56.78125 9.90625 50.3125 4.234375 
Q 43.84375 -1.421875 31.78125 -1.421875 
Q 19.734375 -1.421875 13.25 4.234375 
Q 6.78125 9.90625 6.78125 20.515625 
Q 6.78125 27.484375 10.78125 32.3125 
Q 14.796875 37.15625 21.921875 38.8125 
z
M 18.3125 54.390625 
Q 18.3125 48.734375 21.84375 45.5625 
Q 25.390625 42.390625 31.78125 42.390625 
Q 38.140625 42.390625 41.71875 45.5625 
Q 45.3125 48.734375 45.3125 54.390625 
Q 45.3125 60.0625 41.71875 63.234375 
Q 38.140625 66.40625 31.78125 66.40625 
Q 25.390625 66.40625 21.84375 63.234375 
Q 18.3125 60.0625 18.3125 54.390625 
z
" id="DejaVuSans-56"/>
      </defs>
      <g transform="translate(281.544375 297.397656)scale(0.1 -0.1)">
       <use xlink:href="#DejaVuSans-56"/>
      </g>
     </g>
    </g>
    <g id="xtick_5">
     <g id="line2d_9">
      <path clip-path="url(#pa968772752)" d="M 362.845625 282.799219 
L 362.845625 10.999219 
" style="fill:none;stroke:#b0b0b0;stroke-linecap:square;stroke-width:0.8;"/>
     </g>
     <g id="line2d_10">
      <g>
       <use style="stroke:#000000;stroke-width:0.8;" x="362.845625" xlink:href="#m6f6061dc26" y="282.799219"/>
      </g>
     </g>
     <g id="text_5">
      <!-- 9 -->
      <defs>
       <path d="M 10.984375 1.515625 
L 10.984375 10.5 
Q 14.703125 8.734375 18.5 7.8125 
Q 22.3125 6.890625 25.984375 6.890625 
Q 35.75 6.890625 40.890625 13.453125 
Q 46.046875 20.015625 46.78125 33.40625 
Q 43.953125 29.203125 39.59375 26.953125 
Q 35.25 24.703125 29.984375 24.703125 
Q 19.046875 24.703125 12.671875 31.3125 
Q 6.296875 37.9375 6.296875 49.421875 
Q 6.296875 60.640625 12.9375 67.421875 
Q 19.578125 74.21875 30.609375 74.21875 
Q 43.265625 74.21875 49.921875 64.515625 
Q 56.59375 54.828125 56.59375 36.375 
Q 56.59375 19.140625 48.40625 8.859375 
Q 40.234375 -1.421875 26.421875 -1.421875 
Q 22.703125 -1.421875 18.890625 -0.6875 
Q 15.09375 0.046875 10.984375 1.515625 
z
M 30.609375 32.421875 
Q 37.25 32.421875 41.125 36.953125 
Q 45.015625 41.5 45.015625 49.421875 
Q 45.015625 57.28125 41.125 61.84375 
Q 37.25 66.40625 30.609375 66.40625 
Q 23.96875 66.40625 20.09375 61.84375 
Q 16.21875 57.28125 16.21875 49.421875 
Q 16.21875 41.5 20.09375 36.953125 
Q 23.96875 32.421875 30.609375 32.421875 
z
" id="DejaVuSans-57"/>
      </defs>
      <g transform="translate(359.664375 297.397656)scale(0.1 -0.1)">
       <use xlink:href="#DejaVuSans-57"/>
      </g>
     </g>
    </g>
    <g id="xtick_6">
     <g id="line2d_11">
      <path clip-path="url(#pa968772752)" d="M 440.965625 282.799219 
L 440.965625 10.999219 
" style="fill:none;stroke:#b0b0b0;stroke-linecap:square;stroke-width:0.8;"/>
     </g>
     <g id="line2d_12">
      <g>
       <use style="stroke:#000000;stroke-width:0.8;" x="440.965625" xlink:href="#m6f6061dc26" y="282.799219"/>
      </g>
     </g>
     <g id="text_6">
      <!-- 10 -->
      <defs>
       <path d="M 12.40625 8.296875 
L 28.515625 8.296875 
L 28.515625 63.921875 
L 10.984375 60.40625 
L 10.984375 69.390625 
L 28.421875 72.90625 
L 38.28125 72.90625 
L 38.28125 8.296875 
L 54.390625 8.296875 
L 54.390625 0 
L 12.40625 0 
z
" id="DejaVuSans-49"/>
       <path d="M 31.78125 66.40625 
Q 24.171875 66.40625 20.328125 58.90625 
Q 16.5 51.421875 16.5 36.375 
Q 16.5 21.390625 20.328125 13.890625 
Q 24.171875 6.390625 31.78125 6.390625 
Q 39.453125 6.390625 43.28125 13.890625 
Q 47.125 21.390625 47.125 36.375 
Q 47.125 51.421875 43.28125 58.90625 
Q 39.453125 66.40625 31.78125 66.40625 
z
M 31.78125 74.21875 
Q 44.046875 74.21875 50.515625 64.515625 
Q 56.984375 54.828125 56.984375 36.375 
Q 56.984375 17.96875 50.515625 8.265625 
Q 44.046875 -1.421875 31.78125 -1.421875 
Q 19.53125 -1.421875 13.0625 8.265625 
Q 6.59375 17.96875 6.59375 36.375 
Q 6.59375 54.828125 13.0625 64.515625 
Q 19.53125 74.21875 31.78125 74.21875 
z
" id="DejaVuSans-48"/>
      </defs>
      <g transform="translate(434.603125 297.397656)scale(0.1 -0.1)">
       <use xlink:href="#DejaVuSans-49"/>
       <use x="63.623047" xlink:href="#DejaVuSans-48"/>
      </g>
     </g>
    </g>
    <g id="text_7">
     <!-- t: number of counting qubits -->
     <defs>
      <path d="M 18.3125 70.21875 
L 18.3125 54.6875 
L 36.8125 54.6875 
L 36.8125 47.703125 
L 18.3125 47.703125 
L 18.3125 18.015625 
Q 18.3125 11.328125 20.140625 9.421875 
Q 21.96875 7.515625 27.59375 7.515625 
L 36.8125 7.515625 
L 36.8125 0 
L 27.59375 0 
Q 17.1875 0 13.234375 3.875 
Q 9.28125 7.765625 9.28125 18.015625 
L 9.28125 47.703125 
L 2.6875 47.703125 
L 2.6875 54.6875 
L 9.28125 54.6875 
L 9.28125 70.21875 
z
" id="DejaVuSans-116"/>
      <path d="M 11.71875 12.40625 
L 22.015625 12.40625 
L 22.015625 0 
L 11.71875 0 
z
M 11.71875 51.703125 
L 22.015625 51.703125 
L 22.015625 39.3125 
L 11.71875 39.3125 
z
" id="DejaVuSans-58"/>
      <path id="DejaVuSans-32"/>
      <path d="M 54.890625 33.015625 
L 54.890625 0 
L 45.90625 0 
L 45.90625 32.71875 
Q 45.90625 40.484375 42.875 44.328125 
Q 39.84375 48.1875 33.796875 48.1875 
Q 26.515625 48.1875 22.3125 43.546875 
Q 18.109375 38.921875 18.109375 30.90625 
L 18.109375 0 
L 9.078125 0 
L 9.078125 54.6875 
L 18.109375 54.6875 
L 18.109375 46.1875 
Q 21.34375 51.125 25.703125 53.5625 
Q 30.078125 56 35.796875 56 
Q 45.21875 56 50.046875 50.171875 
Q 54.890625 44.34375 54.890625 33.015625 
z
" id="DejaVuSans-110"/>
      <path d="M 8.5 21.578125 
L 8.5 54.6875 
L 17.484375 54.6875 
L 17.484375 21.921875 
Q 17.484375 14.15625 20.5 10.265625 
Q 23.53125 6.390625 29.59375 6.390625 
Q 36.859375 6.390625 41.078125 11.03125 
Q 45.3125 15.671875 45.3125 23.6875 
L 45.3125 54.6875 
L 54.296875 54.6875 
L 54.296875 0 
L 45.3125 0 
L 45.3125 8.40625 
Q 42.046875 3.421875 37.71875 1 
Q 33.40625 -1.421875 27.6875 -1.421875 
Q 18.265625 -1.421875 13.375 4.4375 
Q 8.5 10.296875 8.5 21.578125 
z
M 31.109375 56 
z
" id="DejaVuSans-117"/>
      <path d="M 52 44.1875 
Q 55.375 50.25 60.0625 53.125 
Q 64.75 56 71.09375 56 
Q 79.640625 56 84.28125 50.015625 
Q 88.921875 44.046875 88.921875 33.015625 
L 88.921875 0 
L 79.890625 0 
L 79.890625 32.71875 
Q 79.890625 40.578125 77.09375 44.375 
Q 74.3125 48.1875 68.609375 48.1875 
Q 61.625 48.1875 57.5625 43.546875 
Q 53.515625 38.921875 53.515625 30.90625 
L 53.515625 0 
L 44.484375 0 
L 44.484375 32.71875 
Q 44.484375 40.625 41.703125 44.40625 
Q 38.921875 48.1875 33.109375 48.1875 
Q 26.21875 48.1875 22.15625 43.53125 
Q 18.109375 38.875 18.109375 30.90625 
L 18.109375 0 
L 9.078125 0 
L 9.078125 54.6875 
L 18.109375 54.6875 
L 18.109375 46.1875 
Q 21.1875 51.21875 25.484375 53.609375 
Q 29.78125 56 35.6875 56 
Q 41.65625 56 45.828125 52.96875 
Q 50 49.953125 52 44.1875 
z
" id="DejaVuSans-109"/>
      <path d="M 48.6875 27.296875 
Q 48.6875 37.203125 44.609375 42.84375 
Q 40.53125 48.484375 33.40625 48.484375 
Q 26.265625 48.484375 22.1875 42.84375 
Q 18.109375 37.203125 18.109375 27.296875 
Q 18.109375 17.390625 22.1875 11.75 
Q 26.265625 6.109375 33.40625 6.109375 
Q 40.53125 6.109375 44.609375 11.75 
Q 48.6875 17.390625 48.6875 27.296875 
z
M 18.109375 46.390625 
Q 20.953125 51.265625 25.265625 53.625 
Q 29.59375 56 35.59375 56 
Q 45.5625 56 51.78125 48.09375 
Q 58.015625 40.1875 58.015625 27.296875 
Q 58.015625 14.40625 51.78125 6.484375 
Q 45.5625 -1.421875 35.59375 -1.421875 
Q 29.59375 -1.421875 25.265625 0.953125 
Q 20.953125 3.328125 18.109375 8.203125 
L 18.109375 0 
L 9.078125 0 
L 9.078125 75.984375 
L 18.109375 75.984375 
z
" id="DejaVuSans-98"/>
      <path d="M 56.203125 29.59375 
L 56.203125 25.203125 
L 14.890625 25.203125 
Q 15.484375 15.921875 20.484375 11.0625 
Q 25.484375 6.203125 34.421875 6.203125 
Q 39.59375 6.203125 44.453125 7.46875 
Q 49.3125 8.734375 54.109375 11.28125 
L 54.109375 2.78125 
Q 49.265625 0.734375 44.1875 -0.34375 
Q 39.109375 -1.421875 33.890625 -1.421875 
Q 20.796875 -1.421875 13.15625 6.1875 
Q 5.515625 13.8125 5.515625 26.8125 
Q 5.515625 40.234375 12.765625 48.109375 
Q 20.015625 56 32.328125 56 
Q 43.359375 56 49.78125 48.890625 
Q 56.203125 41.796875 56.203125 29.59375 
z
M 47.21875 32.234375 
Q 47.125 39.59375 43.09375 43.984375 
Q 39.0625 48.390625 32.421875 48.390625 
Q 24.90625 48.390625 20.390625 44.140625 
Q 15.875 39.890625 15.1875 32.171875 
z
" id="DejaVuSans-101"/>
      <path d="M 41.109375 46.296875 
Q 39.59375 47.171875 37.8125 47.578125 
Q 36.03125 48 33.890625 48 
Q 26.265625 48 22.1875 43.046875 
Q 18.109375 38.09375 18.109375 28.8125 
L 18.109375 0 
L 9.078125 0 
L 9.078125 54.6875 
L 18.109375 54.6875 
L 18.109375 46.1875 
Q 20.953125 51.171875 25.484375 53.578125 
Q 30.03125 56 36.53125 56 
Q 37.453125 56 38.578125 55.875 
Q 39.703125 55.765625 41.0625 55.515625 
z
" id="DejaVuSans-114"/>
      <path d="M 30.609375 48.390625 
Q 23.390625 48.390625 19.1875 42.75 
Q 14.984375 37.109375 14.984375 27.296875 
Q 14.984375 17.484375 19.15625 11.84375 
Q 23.34375 6.203125 30.609375 6.203125 
Q 37.796875 6.203125 41.984375 11.859375 
Q 46.1875 17.53125 46.1875 27.296875 
Q 46.1875 37.015625 41.984375 42.703125 
Q 37.796875 48.390625 30.609375 48.390625 
z
M 30.609375 56 
Q 42.328125 56 49.015625 48.375 
Q 55.71875 40.765625 55.71875 27.296875 
Q 55.71875 13.875 49.015625 6.21875 
Q 42.328125 -1.421875 30.609375 -1.421875 
Q 18.84375 -1.421875 12.171875 6.21875 
Q 5.515625 13.875 5.515625 27.296875 
Q 5.515625 40.765625 12.171875 48.375 
Q 18.84375 56 30.609375 56 
z
" id="DejaVuSans-111"/>
      <path d="M 37.109375 75.984375 
L 37.109375 68.5 
L 28.515625 68.5 
Q 23.6875 68.5 21.796875 66.546875 
Q 19.921875 64.59375 19.921875 59.515625 
L 19.921875 54.6875 
L 34.71875 54.6875 
L 34.71875 47.703125 
L 19.921875 47.703125 
L 19.921875 0 
L 10.890625 0 
L 10.890625 47.703125 
L 2.296875 47.703125 
L 2.296875 54.6875 
L 10.890625 54.6875 
L 10.890625 58.5 
Q 10.890625 67.625 15.140625 71.796875 
Q 19.390625 75.984375 28.609375 75.984375 
z
" id="DejaVuSans-102"/>
      <path d="M 48.78125 52.59375 
L 48.78125 44.1875 
Q 44.96875 46.296875 41.140625 47.34375 
Q 37.3125 48.390625 33.40625 48.390625 
Q 24.65625 48.390625 19.8125 42.84375 
Q 14.984375 37.3125 14.984375 27.296875 
Q 14.984375 17.28125 19.8125 11.734375 
Q 24.65625 6.203125 33.40625 6.203125 
Q 37.3125 6.203125 41.140625 7.25 
Q 44.96875 8.296875 48.78125 10.40625 
L 48.78125 2.09375 
Q 45.015625 0.34375 40.984375 -0.53125 
Q 36.96875 -1.421875 32.421875 -1.421875 
Q 20.0625 -1.421875 12.78125 6.34375 
Q 5.515625 14.109375 5.515625 27.296875 
Q 5.515625 40.671875 12.859375 48.328125 
Q 20.21875 56 33.015625 56 
Q 37.15625 56 41.109375 55.140625 
Q 45.0625 54.296875 48.78125 52.59375 
z
" id="DejaVuSans-99"/>
      <path d="M 9.421875 54.6875 
L 18.40625 54.6875 
L 18.40625 0 
L 9.421875 0 
z
M 9.421875 75.984375 
L 18.40625 75.984375 
L 18.40625 64.59375 
L 9.421875 64.59375 
z
" id="DejaVuSans-105"/>
      <path d="M 45.40625 27.984375 
Q 45.40625 37.75 41.375 43.109375 
Q 37.359375 48.484375 30.078125 48.484375 
Q 22.859375 48.484375 18.828125 43.109375 
Q 14.796875 37.75 14.796875 27.984375 
Q 14.796875 18.265625 18.828125 12.890625 
Q 22.859375 7.515625 30.078125 7.515625 
Q 37.359375 7.515625 41.375 12.890625 
Q 45.40625 18.265625 45.40625 27.984375 
z
M 54.390625 6.78125 
Q 54.390625 -7.171875 48.1875 -13.984375 
Q 42 -20.796875 29.203125 -20.796875 
Q 24.46875 -20.796875 20.265625 -20.09375 
Q 16.0625 -19.390625 12.109375 -17.921875 
L 12.109375 -9.1875 
Q 16.0625 -11.328125 19.921875 -12.34375 
Q 23.78125 -13.375 27.78125 -13.375 
Q 36.625 -13.375 41.015625 -8.765625 
Q 45.40625 -4.15625 45.40625 5.171875 
L 45.40625 9.625 
Q 42.625 4.78125 38.28125 2.390625 
Q 33.9375 0 27.875 0 
Q 17.828125 0 11.671875 7.65625 
Q 5.515625 15.328125 5.515625 27.984375 
Q 5.515625 40.671875 11.671875 48.328125 
Q 17.828125 56 27.875 56 
Q 33.9375 56 38.28125 53.609375 
Q 42.625 51.21875 45.40625 46.390625 
L 45.40625 54.6875 
L 54.390625 54.6875 
z
" id="DejaVuSans-103"/>
      <path d="M 14.796875 27.296875 
Q 14.796875 17.390625 18.875 11.75 
Q 22.953125 6.109375 30.078125 6.109375 
Q 37.203125 6.109375 41.296875 11.75 
Q 45.40625 17.390625 45.40625 27.296875 
Q 45.40625 37.203125 41.296875 42.84375 
Q 37.203125 48.484375 30.078125 48.484375 
Q 22.953125 48.484375 18.875 42.84375 
Q 14.796875 37.203125 14.796875 27.296875 
z
M 45.40625 8.203125 
Q 42.578125 3.328125 38.25 0.953125 
Q 33.9375 -1.421875 27.875 -1.421875 
Q 17.96875 -1.421875 11.734375 6.484375 
Q 5.515625 14.40625 5.515625 27.296875 
Q 5.515625 40.1875 11.734375 48.09375 
Q 17.96875 56 27.875 56 
Q 33.9375 56 38.25 53.625 
Q 42.578125 51.265625 45.40625 46.390625 
L 45.40625 54.6875 
L 54.390625 54.6875 
L 54.390625 -20.796875 
L 45.40625 -20.796875 
z
" id="DejaVuSans-113"/>
      <path d="M 44.28125 53.078125 
L 44.28125 44.578125 
Q 40.484375 46.53125 36.375 47.5 
Q 32.28125 48.484375 27.875 48.484375 
Q 21.1875 48.484375 17.84375 46.4375 
Q 14.5 44.390625 14.5 40.28125 
Q 14.5 37.15625 16.890625 35.375 
Q 19.28125 33.59375 26.515625 31.984375 
L 29.59375 31.296875 
Q 39.15625 29.25 43.1875 25.515625 
Q 47.21875 21.78125 47.21875 15.09375 
Q 47.21875 7.46875 41.1875 3.015625 
Q 35.15625 -1.421875 24.609375 -1.421875 
Q 20.21875 -1.421875 15.453125 -0.5625 
Q 10.6875 0.296875 5.421875 2 
L 5.421875 11.28125 
Q 10.40625 8.6875 15.234375 7.390625 
Q 20.0625 6.109375 24.8125 6.109375 
Q 31.15625 6.109375 34.5625 8.28125 
Q 37.984375 10.453125 37.984375 14.40625 
Q 37.984375 18.0625 35.515625 20.015625 
Q 33.0625 21.96875 24.703125 23.78125 
L 21.578125 24.515625 
Q 13.234375 26.265625 9.515625 29.90625 
Q 5.8125 33.546875 5.8125 39.890625 
Q 5.8125 47.609375 11.28125 51.796875 
Q 16.75 56 26.8125 56 
Q 31.78125 56 36.171875 55.265625 
Q 40.578125 54.546875 44.28125 53.078125 
z
" id="DejaVuSans-115"/>
     </defs>
     <g transform="translate(174.021875 311.075781)scale(0.1 -0.1)">
      <use xlink:href="#DejaVuSans-116"/>
      <use x="39.208984" xlink:href="#DejaVuSans-58"/>
      <use x="72.900391" xlink:href="#DejaVuSans-32"/>
      <use x="104.6875" xlink:href="#DejaVuSans-110"/>
      <use x="168.066406" xlink:href="#DejaVuSans-117"/>
      <use x="231.445312" xlink:href="#DejaVuSans-109"/>
      <use x="328.857422" xlink:href="#DejaVuSans-98"/>
      <use x="392.333984" xlink:href="#DejaVuSans-101"/>
      <use x="453.857422" xlink:href="#DejaVuSans-114"/>
      <use x="494.970703" xlink:href="#DejaVuSans-32"/>
      <use x="526.757812" xlink:href="#DejaVuSans-111"/>
      <use x="587.939453" xlink:href="#DejaVuSans-102"/>
      <use x="623.144531" xlink:href="#DejaVuSans-32"/>
      <use x="654.931641" xlink:href="#DejaVuSans-99"/>
      <use x="709.912109" xlink:href="#DejaVuSans-111"/>
      <use x="771.09375" xlink:href="#DejaVuSans-117"/>
      <use x="834.472656" xlink:href="#DejaVuSans-110"/>
      <use x="897.851562" xlink:href="#DejaVuSans-116"/>
      <use x="937.060547" xlink:href="#DejaVuSans-105"/>
      <use x="964.84375" xlink:href="#DejaVuSans-110"/>
      <use x="1028.222656" xlink:href="#DejaVuSans-103"/>
      <use x="1091.699219" xlink:href="#DejaVuSans-32"/>
      <use x="1123.486328" xlink:href="#DejaVuSans-113"/>
      <use x="1186.962891" xlink:href="#DejaVuSans-117"/>
      <use x="1250.341797" xlink:href="#DejaVuSans-98"/>
      <use x="1313.818359" xlink:href="#DejaVuSans-105"/>
      <use x="1341.601562" xlink:href="#DejaVuSans-116"/>
      <use x="1380.810547" xlink:href="#DejaVuSans-115"/>
     </g>
    </g>
   </g>
   <g id="matplotlib.axis_2">
    <g id="ytick_1">
     <g id="line2d_13">
      <path clip-path="url(#pa968772752)" d="M 50.365625 282.799219 
L 440.965625 282.799219 
" style="fill:none;stroke:#b0b0b0;stroke-linecap:square;stroke-width:0.8;"/>
     </g>
     <g id="line2d_14">
      <defs>
       <path d="M 0 0 
L -3.5 0 
" id="m65eaf73224" style="stroke:#000000;stroke-width:0.8;"/>
      </defs>
      <g>
       <use style="stroke:#000000;stroke-width:0.8;" x="50.365625" xlink:href="#m65eaf73224" y="282.799219"/>
      </g>
     </g>
     <g id="text_8">
      <!-- 0.70 -->
      <defs>
       <path d="M 10.6875 12.40625 
L 21 12.40625 
L 21 0 
L 10.6875 0 
z
" id="DejaVuSans-46"/>
      </defs>
      <g transform="translate(21.1 286.598437)scale(0.1 -0.1)">
       <use xlink:href="#DejaVuSans-48"/>
       <use x="63.623047" xlink:href="#DejaVuSans-46"/>
       <use x="95.410156" xlink:href="#DejaVuSans-55"/>
       <use x="159.033203" xlink:href="#DejaVuSans-48"/>
      </g>
     </g>
    </g>
    <g id="ytick_2">
     <g id="line2d_15">
      <path clip-path="url(#pa968772752)" d="M 50.365625 243.970647 
L 440.965625 243.970647 
" style="fill:none;stroke:#b0b0b0;stroke-linecap:square;stroke-width:0.8;"/>
     </g>
     <g id="line2d_16">
      <g>
       <use style="stroke:#000000;stroke-width:0.8;" x="50.365625" xlink:href="#m65eaf73224" y="243.970647"/>
      </g>
     </g>
     <g id="text_9">
      <!-- 0.75 -->
      <g transform="translate(21.1 247.769866)scale(0.1 -0.1)">
       <use xlink:href="#DejaVuSans-48"/>
       <use x="63.623047" xlink:href="#DejaVuSans-46"/>
       <use x="95.410156" xlink:href="#DejaVuSans-55"/>
       <use x="159.033203" xlink:href="#DejaVuSans-53"/>
      </g>
     </g>
    </g>
    <g id="ytick_3">
     <g id="line2d_17">
      <path clip-path="url(#pa968772752)" d="M 50.365625 205.142076 
L 440.965625 205.142076 
" style="fill:none;stroke:#b0b0b0;stroke-linecap:square;stroke-width:0.8;"/>
     </g>
     <g id="line2d_18">
      <g>
       <use style="stroke:#000000;stroke-width:0.8;" x="50.365625" xlink:href="#m65eaf73224" y="205.142076"/>
      </g>
     </g>
     <g id="text_10">
      <!-- 0.80 -->
      <g transform="translate(21.1 208.941295)scale(0.1 -0.1)">
       <use xlink:href="#DejaVuSans-48"/>
       <use x="63.623047" xlink:href="#DejaVuSans-46"/>
       <use x="95.410156" xlink:href="#DejaVuSans-56"/>
       <use x="159.033203" xlink:href="#DejaVuSans-48"/>
      </g>
     </g>
    </g>
    <g id="ytick_4">
     <g id="line2d_19">
      <path clip-path="url(#pa968772752)" d="M 50.365625 166.313504 
L 440.965625 166.313504 
" style="fill:none;stroke:#b0b0b0;stroke-linecap:square;stroke-width:0.8;"/>
     </g>
     <g id="line2d_20">
      <g>
       <use style="stroke:#000000;stroke-width:0.8;" x="50.365625" xlink:href="#m65eaf73224" y="166.313504"/>
      </g>
     </g>
     <g id="text_11">
      <!-- 0.85 -->
      <g transform="translate(21.1 170.112723)scale(0.1 -0.1)">
       <use xlink:href="#DejaVuSans-48"/>
       <use x="63.623047" xlink:href="#DejaVuSans-46"/>
       <use x="95.410156" xlink:href="#DejaVuSans-56"/>
       <use x="159.033203" xlink:href="#DejaVuSans-53"/>
      </g>
     </g>
    </g>
    <g id="ytick_5">
     <g id="line2d_21">
      <path clip-path="url(#pa968772752)" d="M 50.365625 127.484933 
L 440.965625 127.484933 
" style="fill:none;stroke:#b0b0b0;stroke-linecap:square;stroke-width:0.8;"/>
     </g>
     <g id="line2d_22">
      <g>
       <use style="stroke:#000000;stroke-width:0.8;" x="50.365625" xlink:href="#m65eaf73224" y="127.484933"/>
      </g>
     </g>
     <g id="text_12">
      <!-- 0.90 -->
      <g transform="translate(21.1 131.284152)scale(0.1 -0.1)">
       <use xlink:href="#DejaVuSans-48"/>
       <use x="63.623047" xlink:href="#DejaVuSans-46"/>
       <use x="95.410156" xlink:href="#DejaVuSans-57"/>
       <use x="159.033203" xlink:href="#DejaVuSans-48"/>
      </g>
     </g>
    </g>
    <g id="ytick_6">
     <g id="line2d_23">
      <path clip-path="url(#pa968772752)" d="M 50.365625 88.656362 
L 440.965625 88.656362 
" style="fill:none;stroke:#b0b0b0;stroke-linecap:square;stroke-width:0.8;"/>
     </g>
     <g id="line2d_24">
      <g>
       <use style="stroke:#000000;stroke-width:0.8;" x="50.365625" xlink:href="#m65eaf73224" y="88.656362"/>
      </g>
     </g>
     <g id="text_13">
      <!-- 0.95 -->
      <g transform="translate(21.1 92.45558)scale(0.1 -0.1)">
       <use xlink:href="#DejaVuSans-48"/>
       <use x="63.623047" xlink:href="#DejaVuSans-46"/>
       <use x="95.410156" xlink:href="#DejaVuSans-57"/>
       <use x="159.033203" xlink:href="#DejaVuSans-53"/>
      </g>
     </g>
    </g>
    <g id="ytick_7">
     <g id="line2d_25">
      <path clip-path="url(#pa968772752)" d="M 50.365625 49.82779 
L 440.965625 49.82779 
" style="fill:none;stroke:#b0b0b0;stroke-linecap:square;stroke-width:0.8;"/>
     </g>
     <g id="line2d_26">
      <g>
       <use style="stroke:#000000;stroke-width:0.8;" x="50.365625" xlink:href="#m65eaf73224" y="49.82779"/>
      </g>
     </g>
     <g id="text_14">
      <!-- 1.00 -->
      <g transform="translate(21.1 53.627009)scale(0.1 -0.1)">
       <use xlink:href="#DejaVuSans-49"/>
       <use x="63.623047" xlink:href="#DejaVuSans-46"/>
       <use x="95.410156" xlink:href="#DejaVuSans-48"/>
       <use x="159.033203" xlink:href="#DejaVuSans-48"/>
      </g>
     </g>
    </g>
    <g id="ytick_8">
     <g id="line2d_27">
      <path clip-path="url(#pa968772752)" d="M 50.365625 10.999219 
L 440.965625 10.999219 
" style="fill:none;stroke:#b0b0b0;stroke-linecap:square;stroke-width:0.8;"/>
     </g>
     <g id="line2d_28">
      <g>
       <use style="stroke:#000000;stroke-width:0.8;" x="50.365625" xlink:href="#m65eaf73224" y="10.999219"/>
      </g>
     </g>
     <g id="text_15">
      <!-- 1.05 -->
      <g transform="translate(21.1 14.798437)scale(0.1 -0.1)">
       <use xlink:href="#DejaVuSans-49"/>
       <use x="63.623047" xlink:href="#DejaVuSans-46"/>
       <use x="95.410156" xlink:href="#DejaVuSans-48"/>
       <use x="159.033203" xlink:href="#DejaVuSans-53"/>
      </g>
     </g>
    </g>
    <g id="text_16">
     <!-- probability of success for the accuracy $2^{-n}$ -->
     <defs>
      <path d="M 18.109375 8.203125 
L 18.109375 -20.796875 
L 9.078125 -20.796875 
L 9.078125 54.6875 
L 18.109375 54.6875 
L 18.109375 46.390625 
Q 20.953125 51.265625 25.265625 53.625 
Q 29.59375 56 35.59375 56 
Q 45.5625 56 51.78125 48.09375 
Q 58.015625 40.1875 58.015625 27.296875 
Q 58.015625 14.40625 51.78125 6.484375 
Q 45.5625 -1.421875 35.59375 -1.421875 
Q 29.59375 -1.421875 25.265625 0.953125 
Q 20.953125 3.328125 18.109375 8.203125 
z
M 48.6875 27.296875 
Q 48.6875 37.203125 44.609375 42.84375 
Q 40.53125 48.484375 33.40625 48.484375 
Q 26.265625 48.484375 22.1875 42.84375 
Q 18.109375 37.203125 18.109375 27.296875 
Q 18.109375 17.390625 22.1875 11.75 
Q 26.265625 6.109375 33.40625 6.109375 
Q 40.53125 6.109375 44.609375 11.75 
Q 48.6875 17.390625 48.6875 27.296875 
z
" id="DejaVuSans-112"/>
      <path d="M 34.28125 27.484375 
Q 23.390625 27.484375 19.1875 25 
Q 14.984375 22.515625 14.984375 16.5 
Q 14.984375 11.71875 18.140625 8.90625 
Q 21.296875 6.109375 26.703125 6.109375 
Q 34.1875 6.109375 38.703125 11.40625 
Q 43.21875 16.703125 43.21875 25.484375 
L 43.21875 27.484375 
z
M 52.203125 31.203125 
L 52.203125 0 
L 43.21875 0 
L 43.21875 8.296875 
Q 40.140625 3.328125 35.546875 0.953125 
Q 30.953125 -1.421875 24.3125 -1.421875 
Q 15.921875 -1.421875 10.953125 3.296875 
Q 6 8.015625 6 15.921875 
Q 6 25.140625 12.171875 29.828125 
Q 18.359375 34.515625 30.609375 34.515625 
L 43.21875 34.515625 
L 43.21875 35.40625 
Q 43.21875 41.609375 39.140625 45 
Q 35.0625 48.390625 27.6875 48.390625 
Q 23 48.390625 18.546875 47.265625 
Q 14.109375 46.140625 10.015625 43.890625 
L 10.015625 52.203125 
Q 14.9375 54.109375 19.578125 55.046875 
Q 24.21875 56 28.609375 56 
Q 40.484375 56 46.34375 49.84375 
Q 52.203125 43.703125 52.203125 31.203125 
z
" id="DejaVuSans-97"/>
      <path d="M 9.421875 75.984375 
L 18.40625 75.984375 
L 18.40625 0 
L 9.421875 0 
z
" id="DejaVuSans-108"/>
      <path d="M 32.171875 -5.078125 
Q 28.375 -14.84375 24.75 -17.8125 
Q 21.140625 -20.796875 15.09375 -20.796875 
L 7.90625 -20.796875 
L 7.90625 -13.28125 
L 13.1875 -13.28125 
Q 16.890625 -13.28125 18.9375 -11.515625 
Q 21 -9.765625 23.484375 -3.21875 
L 25.09375 0.875 
L 2.984375 54.6875 
L 12.5 54.6875 
L 29.59375 11.921875 
L 46.6875 54.6875 
L 56.203125 54.6875 
z
" id="DejaVuSans-121"/>
      <path d="M 54.890625 33.015625 
L 54.890625 0 
L 45.90625 0 
L 45.90625 32.71875 
Q 45.90625 40.484375 42.875 44.328125 
Q 39.84375 48.1875 33.796875 48.1875 
Q 26.515625 48.1875 22.3125 43.546875 
Q 18.109375 38.921875 18.109375 30.90625 
L 18.109375 0 
L 9.078125 0 
L 9.078125 75.984375 
L 18.109375 75.984375 
L 18.109375 46.1875 
Q 21.34375 51.125 25.703125 53.5625 
Q 30.078125 56 35.796875 56 
Q 45.21875 56 50.046875 50.171875 
Q 54.890625 44.34375 54.890625 33.015625 
z
" id="DejaVuSans-104"/>
      <path d="M 19.1875 8.296875 
L 53.609375 8.296875 
L 53.609375 0 
L 7.328125 0 
L 7.328125 8.296875 
Q 12.9375 14.109375 22.625 23.890625 
Q 32.328125 33.6875 34.8125 36.53125 
Q 39.546875 41.84375 41.421875 45.53125 
Q 43.3125 49.21875 43.3125 52.78125 
Q 43.3125 58.59375 39.234375 62.25 
Q 35.15625 65.921875 28.609375 65.921875 
Q 23.96875 65.921875 18.8125 64.3125 
Q 13.671875 62.703125 7.8125 59.421875 
L 7.8125 69.390625 
Q 13.765625 71.78125 18.9375 73 
Q 24.125 74.21875 28.421875 74.21875 
Q 39.75 74.21875 46.484375 68.546875 
Q 53.21875 62.890625 53.21875 53.421875 
Q 53.21875 48.921875 51.53125 44.890625 
Q 49.859375 40.875 45.40625 35.40625 
Q 44.1875 33.984375 37.640625 27.21875 
Q 31.109375 20.453125 19.1875 8.296875 
z
" id="DejaVuSans-50"/>
      <path d="M 10.59375 35.5 
L 73.1875 35.5 
L 73.1875 27.203125 
L 10.59375 27.203125 
z
" id="DejaVuSans-8722"/>
      <path d="M 55.71875 33.015625 
L 49.3125 0 
L 40.28125 0 
L 46.6875 32.671875 
Q 47.125 34.96875 47.359375 36.71875 
Q 47.609375 38.484375 47.609375 39.5 
Q 47.609375 43.609375 45.015625 45.890625 
Q 42.4375 48.1875 37.796875 48.1875 
Q 30.5625 48.1875 25.34375 43.375 
Q 20.125 38.578125 18.5 30.328125 
L 12.5 0 
L 3.515625 0 
L 14.109375 54.6875 
L 23.09375 54.6875 
L 21.296875 46.09375 
Q 25.046875 50.828125 30.3125 53.40625 
Q 35.59375 56 41.40625 56 
Q 48.640625 56 52.609375 52.09375 
Q 56.59375 48.1875 56.59375 41.109375 
Q 56.59375 39.359375 56.375 37.359375 
Q 56.15625 35.359375 55.71875 33.015625 
z
" id="DejaVuSans-Oblique-110"/>
     </defs>
     <g transform="translate(15 253.799219)rotate(-90)scale(0.1 -0.1)">
      <use transform="translate(0 0.51875)" xlink:href="#DejaVuSans-112"/>
      <use transform="translate(63.476562 0.51875)" xlink:href="#DejaVuSans-114"/>
      <use transform="translate(104.589844 0.51875)" xlink:href="#DejaVuSans-111"/>
      <use transform="translate(165.771484 0.51875)" xlink:href="#DejaVuSans-98"/>
      <use transform="translate(229.248047 0.51875)" xlink:href="#DejaVuSans-97"/>
      <use transform="translate(290.527344 0.51875)" xlink:href="#DejaVuSans-98"/>
      <use transform="translate(354.003906 0.51875)" xlink:href="#DejaVuSans-105"/>
      <use transform="translate(381.787109 0.51875)" xlink:href="#DejaVuSans-108"/>
      <use transform="translate(409.570312 0.51875)" xlink:href="#DejaVuSans-105"/>
      <use transform="translate(437.353516 0.51875)" xlink:href="#DejaVuSans-116"/>
      <use transform="translate(476.5625 0.51875)" xlink:href="#DejaVuSans-121"/>
      <use transform="translate(535.742188 0.51875)" xlink:href="#DejaVuSans-32"/>
      <use transform="translate(567.529297 0.51875)" xlink:href="#DejaVuSans-111"/>
      <use transform="translate(628.710938 0.51875)" xlink:href="#DejaVuSans-102"/>
      <use transform="translate(663.916016 0.51875)" xlink:href="#DejaVuSans-32"/>
      <use transform="translate(695.703125 0.51875)" xlink:href="#DejaVuSans-115"/>
      <use transform="translate(747.802734 0.51875)" xlink:href="#DejaVuSans-117"/>
      <use transform="translate(811.181641 0.51875)" xlink:href="#DejaVuSans-99"/>
      <use transform="translate(866.162109 0.51875)" xlink:href="#DejaVuSans-99"/>
      <use transform="translate(921.142578 0.51875)" xlink:href="#DejaVuSans-101"/>
      <use transform="translate(982.666016 0.51875)" xlink:href="#DejaVuSans-115"/>
      <use transform="translate(1034.765625 0.51875)" xlink:href="#DejaVuSans-115"/>
      <use transform="translate(1086.865234 0.51875)" xlink:href="#DejaVuSans-32"/>
      <use transform="translate(1118.652344 0.51875)" xlink:href="#DejaVuSans-102"/>
      <use transform="translate(1153.857422 0.51875)" xlink:href="#DejaVuSans-111"/>
      <use transform="translate(1215.039062 0.51875)" xlink:href="#DejaVuSans-114"/>
      <use transform="translate(1256.152344 0.51875)" xlink:href="#DejaVuSans-32"/>
      <use transform="translate(1287.939453 0.51875)" xlink:href="#DejaVuSans-116"/>
      <use transform="translate(1327.148438 0.51875)" xlink:href="#DejaVuSans-104"/>
      <use transform="translate(1390.527344 0.51875)" xlink:href="#DejaVuSans-101"/>
      <use transform="translate(1452.050781 0.51875)" xlink:href="#DejaVuSans-32"/>
      <use transform="translate(1483.837891 0.51875)" xlink:href="#DejaVuSans-97"/>
      <use transform="translate(1545.117188 0.51875)" xlink:href="#DejaVuSans-99"/>
      <use transform="translate(1600.097656 0.51875)" xlink:href="#DejaVuSans-99"/>
      <use transform="translate(1655.078125 0.51875)" xlink:href="#DejaVuSans-117"/>
      <use transform="translate(1718.457031 0.51875)" xlink:href="#DejaVuSans-114"/>
      <use transform="translate(1759.570312 0.51875)" xlink:href="#DejaVuSans-97"/>
      <use transform="translate(1820.849609 0.51875)" xlink:href="#DejaVuSans-99"/>
      <use transform="translate(1875.830078 0.51875)" xlink:href="#DejaVuSans-121"/>
      <use transform="translate(1935.009766 0.51875)" xlink:href="#DejaVuSans-32"/>
      <use transform="translate(1966.796875 0.51875)" xlink:href="#DejaVuSans-50"/>
      <use transform="translate(2031.376953 38.8)scale(0.7)" xlink:href="#DejaVuSans-8722"/>
      <use transform="translate(2090.029297 38.8)scale(0.7)" xlink:href="#DejaVuSans-Oblique-110"/>
     </g>
    </g>
   </g>
   <g id="line2d_29">
    <path clip-path="url(#pa968772752)" d="M 58.177625 108.889948 
L 62.04417 106.318458 
L 65.910716 103.882828 
L 69.777261 101.573893 
L 73.643807 99.383274 
L 77.510352 97.303299 
L 81.376898 95.326926 
L 85.243443 93.44768 
L 89.109989 91.659602 
L 92.976534 89.957193 
L 96.84308 88.335371 
L 100.709625 86.789437 
L 104.57617 85.315032 
L 108.442716 83.908115 
L 112.309261 82.564928 
L 116.175807 81.281976 
L 120.042352 80.056 
L 123.908898 78.883964 
L 127.775443 77.763028 
L 131.641989 76.690541 
L 135.508534 75.664018 
L 139.37508 74.681135 
L 143.241625 73.739707 
L 147.10817 72.837687 
L 150.974716 71.973149 
L 154.841261 71.144283 
L 158.707807 70.349383 
L 162.574352 69.586843 
L 166.440898 68.85515 
L 170.307443 68.152873 
L 174.173989 67.478663 
L 178.040534 66.831242 
L 181.90708 66.209406 
L 185.773625 65.612011 
L 189.64017 65.037975 
L 193.506716 64.486273 
L 197.373261 63.955934 
L 201.239807 63.446033 
L 205.106352 62.955695 
L 208.972898 62.484087 
L 212.839443 62.030419 
L 216.705989 61.593938 
L 220.572534 61.173928 
L 224.43908 60.769708 
L 228.305625 60.380628 
L 232.17217 60.00607 
L 236.038716 59.645445 
L 239.905261 59.298188 
L 243.771807 58.963765 
L 247.638352 58.641661 
L 251.504898 58.33139 
L 255.371443 58.032482 
L 259.237989 57.744491 
L 263.104534 57.466991 
L 266.97108 57.199573 
L 270.837625 56.941846 
L 274.70417 56.693437 
L 278.570716 56.453987 
L 282.437261 56.223154 
L 286.303807 56.000609 
L 290.170352 55.786039 
L 294.036898 55.579141 
L 297.903443 55.379628 
L 301.769989 55.187221 
L 305.636534 55.001654 
L 309.50308 54.822674 
L 313.369625 54.650035 
L 317.23617 54.483503 
L 321.102716 54.322851 
L 324.969261 54.167864 
L 328.835807 54.018334 
L 332.702352 53.87406 
L 336.568898 53.734852 
L 340.435443 53.600524 
L 344.301989 53.470899 
L 348.168534 53.345807 
L 352.03508 53.225084 
L 355.901625 53.108572 
L 359.76817 52.996121 
L 363.634716 52.887583 
L 367.501261 52.78282 
L 371.367807 52.681695 
L 375.234352 52.584079 
L 379.100898 52.489847 
L 382.967443 52.398879 
L 386.833989 52.311059 
L 390.700534 52.226275 
L 394.56708 52.14442 
L 398.433625 52.06539 
L 402.30017 51.989086 
L 406.166716 51.915411 
L 410.033261 51.844274 
L 413.899807 51.775585 
L 417.766352 51.709258 
L 421.632898 51.645211 
L 425.499443 51.583363 
L 429.365989 51.523638 
L 433.232534 51.465962 
L 437.09908 51.410264 
L 440.965625 51.356474 
" style="fill:none;stroke:#1f77b4;stroke-linecap:square;stroke-width:1.5;"/>
   </g>
   <g id="line2d_30">
    <path clip-path="url(#pa968772752)" d="M 58.177625 219.600322 
L 62.04417 209.175195 
L 65.910716 199.653799 
L 69.777261 190.928425 
L 73.643807 182.907784 
L 77.510352 175.513992 
L 81.376898 168.680199 
L 85.243443 162.348694 
L 89.109989 156.469401 
L 92.976534 150.998651 
L 96.84308 145.898193 
L 100.709625 141.134374 
L 104.57617 136.677469 
L 108.442716 132.501125 
L 112.309261 128.581896 
L 116.175807 124.89885 
L 120.042352 121.433241 
L 123.908898 118.168233 
L 127.775443 115.08866 
L 131.641989 112.180825 
L 135.508534 109.432325 
L 139.37508 106.831904 
L 143.241625 104.369319 
L 147.10817 102.035233 
L 150.974716 99.821113 
L 154.841261 97.719149 
L 158.707807 95.722176 
L 162.574352 93.823608 
L 166.440898 92.017386 
L 170.307443 90.297919 
L 174.173989 88.660044 
L 178.040534 87.098987 
L 181.90708 85.610323 
L 185.773625 84.189947 
L 189.64017 82.834046 
L 193.506716 81.539073 
L 197.373261 80.301723 
L 201.239807 79.118915 
L 205.106352 77.987772 
L 208.972898 76.905604 
L 212.839443 75.869895 
L 216.705989 74.878287 
L 220.572534 73.92857 
L 224.43908 73.018667 
L 228.305625 72.146631 
L 232.17217 71.310626 
L 236.038716 70.508928 
L 239.905261 69.73991 
L 243.771807 69.002041 
L 247.638352 68.293873 
L 251.504898 67.61404 
L 255.371443 66.961253 
L 259.237989 66.33429 
L 263.104534 65.731997 
L 266.97108 65.153279 
L 270.837625 64.5971 
L 274.70417 64.062477 
L 278.570716 63.548477 
L 282.437261 63.054216 
L 286.303807 62.578851 
L 290.170352 62.121585 
L 294.036898 61.681655 
L 297.903443 61.258341 
L 301.769989 60.850952 
L 305.636534 60.458833 
L 309.50308 60.081361 
L 313.369625 59.717938 
L 317.23617 59.367997 
L 321.102716 59.030997 
L 324.969261 58.70642 
L 328.835807 58.393773 
L 332.702352 58.092583 
L 336.568898 57.802399 
L 340.435443 57.522792 
L 344.301989 57.253349 
L 348.168534 56.993675 
L 352.03508 56.743393 
L 355.901625 56.502143 
L 359.76817 56.269579 
L 363.634716 56.045369 
L 367.501261 55.829196 
L 371.367807 55.620756 
L 375.234352 55.419759 
L 379.100898 55.225923 
L 382.967443 55.038982 
L 386.833989 54.858678 
L 390.700534 54.684764 
L 394.56708 54.517004 
L 398.433625 54.35517 
L 402.30017 54.199044 
L 406.166716 54.048417 
L 410.033261 53.903086 
L 413.899807 53.762859 
L 417.766352 53.62755 
L 421.632898 53.496979 
L 425.499443 53.370976 
L 429.365989 53.249374 
L 433.232534 53.132016 
L 437.09908 53.018748 
L 440.965625 52.909423 
" style="fill:none;stroke:#ff7f0e;stroke-linecap:square;stroke-width:1.5;"/>
   </g>
   <g id="line2d_31">
    <path clip-path="url(#pa968772752)" d="M 111.212006 321.355469 
L 112.309261 314.837108 
L 116.175807 294.629838 
L 120.042352 276.724819 
L 123.908898 260.758698 
L 127.775443 246.440706 
L 131.641989 233.535394 
L 135.508534 221.850074 
L 139.37508 211.225527 
L 143.241625 201.529042 
L 147.10817 192.649115 
L 150.974716 184.491375 
L 154.841261 176.975414 
L 158.707807 170.032296 
L 162.574352 163.602579 
L 166.440898 157.634738 
L 170.307443 152.083882 
L 174.173989 146.910727 
L 178.040534 142.080739 
L 181.90708 137.563441 
L 185.773625 133.331833 
L 189.64017 129.361909 
L 193.506716 125.632251 
L 197.373261 122.123693 
L 201.239807 118.819029 
L 205.106352 115.70277 
L 208.972898 112.760933 
L 212.839443 109.980866 
L 216.705989 107.351087 
L 220.572534 104.861159 
L 224.43908 102.501566 
L 228.305625 100.263621 
L 232.17217 98.13937 
L 236.038716 96.121522 
L 239.905261 94.203381 
L 243.771807 92.378781 
L 247.638352 90.642041 
L 251.504898 88.987915 
L 255.371443 87.411551 
L 259.237989 85.908456 
L 263.104534 84.474463 
L 266.97108 83.1057 
L 270.837625 81.798569 
L 274.70417 80.549716 
L 278.570716 79.356017 
L 282.437261 78.214555 
L 286.303807 77.122602 
L 290.170352 76.077608 
L 294.036898 75.077184 
L 297.903443 74.11909 
L 301.769989 73.201225 
L 305.636534 72.321613 
L 309.50308 71.478398 
L 313.369625 70.669834 
L 317.23617 69.894274 
L 321.102716 69.150168 
L 324.969261 68.436052 
L 328.835807 67.750544 
L 332.702352 67.092339 
L 336.568898 66.460201 
L 340.435443 65.852964 
L 344.301989 65.269521 
L 348.168534 64.708824 
L 352.03508 64.169879 
L 355.901625 63.651744 
L 359.76817 63.153524 
L 363.634716 62.674369 
L 367.501261 62.213472 
L 371.367807 61.770064 
L 375.234352 61.343416 
L 379.100898 60.932831 
L 382.967443 60.537648 
L 386.833989 60.157236 
L 390.700534 59.790993 
L 394.56708 59.438346 
L 398.433625 59.098747 
L 402.30017 58.771676 
L 406.166716 58.456633 
L 410.033261 58.153142 
L 413.899807 57.860748 
L 417.766352 57.579016 
L 421.632898 57.307531 
L 425.499443 57.045895 
L 429.365989 56.793726 
L 433.232534 56.550661 
L 437.09908 56.316352 
L 440.965625 56.090463 
" style="fill:none;stroke:#2ca02c;stroke-linecap:square;stroke-width:1.5;"/>
   </g>
   <g id="line2d_32">
    <path clip-path="url(#pa968772752)" d="M 58.177625 49.82779 
L 62.04417 49.82779 
L 65.910716 49.82779 
L 69.777261 49.82779 
L 73.643807 49.82779 
L 77.510352 49.82779 
L 81.376898 49.82779 
L 85.243443 49.82779 
L 89.109989 49.82779 
L 92.976534 49.82779 
L 96.84308 49.82779 
L 100.709625 49.82779 
L 104.57617 49.82779 
L 108.442716 49.82779 
L 112.309261 49.82779 
L 116.175807 49.82779 
L 120.042352 49.82779 
L 123.908898 49.82779 
L 127.775443 49.82779 
L 131.641989 49.82779 
L 135.508534 49.82779 
L 139.37508 49.82779 
L 143.241625 49.82779 
L 147.10817 49.82779 
L 150.974716 49.82779 
L 154.841261 49.82779 
L 158.707807 49.82779 
L 162.574352 49.82779 
L 166.440898 49.82779 
L 170.307443 49.82779 
L 174.173989 49.82779 
L 178.040534 49.82779 
L 181.90708 49.82779 
L 185.773625 49.82779 
L 189.64017 49.82779 
L 193.506716 49.82779 
L 197.373261 49.82779 
L 201.239807 49.82779 
L 205.106352 49.82779 
L 208.972898 49.82779 
L 212.839443 49.82779 
L 216.705989 49.82779 
L 220.572534 49.82779 
L 224.43908 49.82779 
L 228.305625 49.82779 
L 232.17217 49.82779 
L 236.038716 49.82779 
L 239.905261 49.82779 
L 243.771807 49.82779 
L 247.638352 49.82779 
L 251.504898 49.82779 
L 255.371443 49.82779 
L 259.237989 49.82779 
L 263.104534 49.82779 
L 266.97108 49.82779 
L 270.837625 49.82779 
L 274.70417 49.82779 
L 278.570716 49.82779 
L 282.437261 49.82779 
L 286.303807 49.82779 
L 290.170352 49.82779 
L 294.036898 49.82779 
L 297.903443 49.82779 
L 301.769989 49.82779 
L 305.636534 49.82779 
L 309.50308 49.82779 
L 313.369625 49.82779 
L 317.23617 49.82779 
L 321.102716 49.82779 
L 324.969261 49.82779 
L 328.835807 49.82779 
L 332.702352 49.82779 
L 336.568898 49.82779 
L 340.435443 49.82779 
L 344.301989 49.82779 
L 348.168534 49.82779 
L 352.03508 49.82779 
L 355.901625 49.82779 
L 359.76817 49.82779 
L 363.634716 49.82779 
L 367.501261 49.82779 
L 371.367807 49.82779 
L 375.234352 49.82779 
L 379.100898 49.82779 
L 382.967443 49.82779 
L 386.833989 49.82779 
L 390.700534 49.82779 
L 394.56708 49.82779 
L 398.433625 49.82779 
L 402.30017 49.82779 
L 406.166716 49.82779 
L 410.033261 49.82779 
L 413.899807 49.82779 
L 417.766352 49.82779 
L 421.632898 49.82779 
L 425.499443 49.82779 
L 429.365989 49.82779 
L 433.232534 49.82779 
L 437.09908 49.82779 
L 440.965625 49.82779 
" style="fill:none;stroke:#d62728;stroke-dasharray:5.55,2.4;stroke-dashoffset:0;stroke-width:1.5;"/>
   </g>
   <g id="patch_3">
    <path d="M 50.365625 282.799219 
L 50.365625 10.999219 
" style="fill:none;stroke:#000000;stroke-linecap:square;stroke-linejoin:miter;stroke-width:0.8;"/>
   </g>
   <g id="patch_4">
    <path d="M 440.965625 282.799219 
L 440.965625 10.999219 
" style="fill:none;stroke:#000000;stroke-linecap:square;stroke-linejoin:miter;stroke-width:0.8;"/>
   </g>
   <g id="patch_5">
    <path d="M 50.365625 282.799219 
L 440.965625 282.799219 
" style="fill:none;stroke:#000000;stroke-linecap:square;stroke-linejoin:miter;stroke-width:0.8;"/>
   </g>
   <g id="patch_6">
    <path d="M 50.365625 10.999219 
L 440.965625 10.999219 
" style="fill:none;stroke:#000000;stroke-linecap:square;stroke-linejoin:miter;stroke-width:0.8;"/>
   </g>
   <g id="legend_1">
    <g id="patch_7">
     <path d="M 374.529688 277.799219 
L 433.965625 277.799219 
Q 435.965625 277.799219 435.965625 275.799219 
L 435.965625 232.764844 
Q 435.965625 230.764844 433.965625 230.764844 
L 374.529688 230.764844 
Q 372.529688 230.764844 372.529688 232.764844 
L 372.529688 275.799219 
Q 372.529688 277.799219 374.529688 277.799219 
z
" style="fill:#ffffff;opacity:0.8;stroke:#cccccc;stroke-linejoin:miter;"/>
    </g>
    <g id="line2d_33">
     <path d="M 376.529688 238.863281 
L 396.529688 238.863281 
" style="fill:none;stroke:#1f77b4;stroke-linecap:square;stroke-width:1.5;"/>
    </g>
    <g id="line2d_34"/>
    <g id="text_17">
     <!-- n = 2 -->
     <defs>
      <path d="M 10.59375 45.40625 
L 73.1875 45.40625 
L 73.1875 37.203125 
L 10.59375 37.203125 
z
M 10.59375 25.484375 
L 73.1875 25.484375 
L 73.1875 17.1875 
L 10.59375 17.1875 
z
" id="DejaVuSans-61"/>
     </defs>
     <g transform="translate(404.529688 242.363281)scale(0.1 -0.1)">
      <use xlink:href="#DejaVuSans-110"/>
      <use x="63.378906" xlink:href="#DejaVuSans-32"/>
      <use x="95.166016" xlink:href="#DejaVuSans-61"/>
      <use x="178.955078" xlink:href="#DejaVuSans-32"/>
      <use x="210.742188" xlink:href="#DejaVuSans-50"/>
     </g>
    </g>
    <g id="line2d_35">
     <path d="M 376.529688 253.541406 
L 396.529688 253.541406 
" style="fill:none;stroke:#ff7f0e;stroke-linecap:square;stroke-width:1.5;"/>
    </g>
    <g id="line2d_36"/>
    <g id="text_18">
     <!-- n = 3 -->
     <defs>
      <path d="M 40.578125 39.3125 
Q 47.65625 37.796875 51.625 33 
Q 55.609375 28.21875 55.609375 21.1875 
Q 55.609375 10.40625 48.1875 4.484375 
Q 40.765625 -1.421875 27.09375 -1.421875 
Q 22.515625 -1.421875 17.65625 -0.515625 
Q 12.796875 0.390625 7.625 2.203125 
L 7.625 11.71875 
Q 11.71875 9.328125 16.59375 8.109375 
Q 21.484375 6.890625 26.8125 6.890625 
Q 36.078125 6.890625 40.9375 10.546875 
Q 45.796875 14.203125 45.796875 21.1875 
Q 45.796875 27.640625 41.28125 31.265625 
Q 36.765625 34.90625 28.71875 34.90625 
L 20.21875 34.90625 
L 20.21875 43.015625 
L 29.109375 43.015625 
Q 36.375 43.015625 40.234375 45.921875 
Q 44.09375 48.828125 44.09375 54.296875 
Q 44.09375 59.90625 40.109375 62.90625 
Q 36.140625 65.921875 28.71875 65.921875 
Q 24.65625 65.921875 20.015625 65.03125 
Q 15.375 64.15625 9.8125 62.3125 
L 9.8125 71.09375 
Q 15.4375 72.65625 20.34375 73.4375 
Q 25.25 74.21875 29.59375 74.21875 
Q 40.828125 74.21875 47.359375 69.109375 
Q 53.90625 64.015625 53.90625 55.328125 
Q 53.90625 49.265625 50.4375 45.09375 
Q 46.96875 40.921875 40.578125 39.3125 
z
" id="DejaVuSans-51"/>
     </defs>
     <g transform="translate(404.529688 257.041406)scale(0.1 -0.1)">
      <use xlink:href="#DejaVuSans-110"/>
      <use x="63.378906" xlink:href="#DejaVuSans-32"/>
      <use x="95.166016" xlink:href="#DejaVuSans-61"/>
      <use x="178.955078" xlink:href="#DejaVuSans-32"/>
      <use x="210.742188" xlink:href="#DejaVuSans-51"/>
     </g>
    </g>
    <g id="line2d_37">
     <path d="M 376.529688 268.219531 
L 396.529688 268.219531 
" style="fill:none;stroke:#2ca02c;stroke-linecap:square;stroke-width:1.5;"/>
    </g>
    <g id="line2d_38"/>
    <g id="text_19">
     <!-- n = 4 -->
     <defs>
      <path d="M 37.796875 64.3125 
L 12.890625 25.390625 
L 37.796875 25.390625 
z
M 35.203125 72.90625 
L 47.609375 72.90625 
L 47.609375 25.390625 
L 58.015625 25.390625 
L 58.015625 17.1875 
L 47.609375 17.1875 
L 47.609375 0 
L 37.796875 0 
L 37.796875 17.1875 
L 4.890625 17.1875 
L 4.890625 26.703125 
z
" id="DejaVuSans-52"/>
     </defs>
     <g transform="translate(404.529688 271.719531)scale(0.1 -0.1)">
      <use xlink:href="#DejaVuSans-110"/>
      <use x="63.378906" xlink:href="#DejaVuSans-32"/>
      <use x="95.166016" xlink:href="#DejaVuSans-61"/>
      <use x="178.955078" xlink:href="#DejaVuSans-32"/>
      <use x="210.742188" xlink:href="#DejaVuSans-52"/>
     </g>
    </g>
   </g>
  </g>
 </g>
 <defs>
  <clipPath id="pa968772752">
   <rect height="271.8" width="390.6" x="50.365625" y="10.999219"/>
  </clipPath>
 </defs>
</svg>
