<?xml version="1.0" encoding="utf-8" standalone="no"?>
<!DOCTYPE svg PUBLIC "-//W3C//DTD SVG 1.1//EN"
  "http://www.w3.org/Graphics/SVG/1.1/DTD/svg11.dtd">
<!-- Created with matplotlib (https://matplotlib.org/) -->
<svg height="487.0904pt" version="1.1" viewBox="0 0 869.869177 487.0904" width="869.869177pt" xmlns="http://www.w3.org/2000/svg" xmlns:xlink="http://www.w3.org/1999/xlink">
 <defs>
  <style type="text/css">
*{stroke-linecap:butt;stroke-linejoin:round;}
  </style>
 </defs>
 <g id="figure_1">
  <g id="patch_1">
   <path d="M 0 487.0904 
L 869.869177 487.0904 
L 869.869177 0 
L 0 0 
z
" style="fill:#ffffff;"/>
  </g>
  <g id="axes_1">
   <g id="line2d_1">
    <path clip-path="url(#p8d036a970a)" d="M 80.911977 43.5608 
L 858.124077 43.5608 
" style="fill:none;stroke:#000000;stroke-linecap:square;stroke-width:2;"/>
   </g>
   <g id="line2d_2">
    <path clip-path="url(#p8d036a970a)" d="M 80.911977 89.0118 
L 858.124077 89.0118 
" style="fill:none;stroke:#000000;stroke-linecap:square;stroke-width:2;"/>
   </g>
   <g id="line2d_3">
    <path clip-path="url(#p8d036a970a)" d="M 80.911977 134.4628 
L 858.124077 134.4628 
" style="fill:none;stroke:#000000;stroke-linecap:square;stroke-width:2;"/>
   </g>
   <g id="line2d_4">
    <path clip-path="url(#p8d036a970a)" d="M 80.911977 179.9138 
L 858.124077 179.9138 
" style="fill:none;stroke:#000000;stroke-linecap:square;stroke-width:2;"/>
   </g>
   <g id="line2d_5">
    <path clip-path="url(#p8d036a970a)" d="M 80.911977 225.3648 
L 858.124077 225.3648 
" style="fill:none;stroke:#000000;stroke-linecap:square;stroke-width:2;"/>
   </g>
   <g id="line2d_6">
    <path clip-path="url(#p8d036a970a)" d="M 80.911977 270.8158 
L 858.124077 270.8158 
" style="fill:none;stroke:#000000;stroke-linecap:square;stroke-width:2;"/>
   </g>
   <g id="line2d_7">
    <path clip-path="url(#p8d036a970a)" d="M 80.911977 316.2668 
L 858.124077 316.2668 
" style="fill:none;stroke:#000000;stroke-linecap:square;stroke-width:2;"/>
   </g>
   <g id="line2d_8">
    <path clip-path="url(#p8d036a970a)" d="M 80.911977 361.7178 
L 858.124077 361.7178 
" style="fill:none;stroke:#000000;stroke-linecap:square;stroke-width:2;"/>
   </g>
   <g id="line2d_9">
    <path clip-path="url(#p8d036a970a)" d="M 80.911977 407.1688 
L 858.124077 407.1688 
" style="fill:none;stroke:#000000;stroke-linecap:square;stroke-width:2;"/>
   </g>
   <g id="line2d_10">
    <path clip-path="url(#p8d036a970a)" d="M 80.911977 451.142643 
L 858.124077 451.142643 
" style="fill:none;stroke:#778899;stroke-linecap:square;stroke-width:2;"/>
   </g>
   <g id="line2d_11">
    <path clip-path="url(#p8d036a970a)" d="M 80.911977 454.096958 
L 858.124077 454.096958 
" style="fill:none;stroke:#778899;stroke-linecap:square;stroke-width:2;"/>
   </g>
   <g id="line2d_12">
    <path clip-path="url(#p8d036a970a)" d="M 105.455517 225.3648 
L 105.455517 43.5608 
" style="fill:none;stroke:#6fa4ff;stroke-linecap:square;stroke-width:2;"/>
   </g>
   <g id="line2d_13">
    <path clip-path="url(#p8d036a970a)" d="M 150.906517 225.3648 
L 150.906517 89.0118 
" style="fill:none;stroke:#6fa4ff;stroke-linecap:square;stroke-width:2;"/>
   </g>
   <g id="line2d_14">
    <path clip-path="url(#p8d036a970a)" d="M 196.357517 270.8158 
L 196.357517 43.5608 
" style="fill:none;stroke:#6fa4ff;stroke-linecap:square;stroke-width:2;"/>
   </g>
   <g id="line2d_15">
    <path clip-path="url(#p8d036a970a)" d="M 241.808517 270.8158 
L 241.808517 134.4628 
" style="fill:none;stroke:#6fa4ff;stroke-linecap:square;stroke-width:2;"/>
   </g>
   <g id="line2d_16">
    <path clip-path="url(#p8d036a970a)" d="M 287.259517 316.2668 
L 287.259517 89.0118 
" style="fill:none;stroke:#6fa4ff;stroke-linecap:square;stroke-width:2;"/>
   </g>
   <g id="line2d_17">
    <path clip-path="url(#p8d036a970a)" d="M 332.710517 316.2668 
L 332.710517 179.9138 
" style="fill:none;stroke:#6fa4ff;stroke-linecap:square;stroke-width:2;"/>
   </g>
   <g id="line2d_18">
    <path clip-path="url(#p8d036a970a)" d="M 378.161517 361.7178 
L 378.161517 134.4628 
" style="fill:none;stroke:#6fa4ff;stroke-linecap:square;stroke-width:2;"/>
   </g>
   <g id="line2d_19">
    <path clip-path="url(#p8d036a970a)" d="M 423.612517 361.7178 
L 423.612517 179.9138 
" style="fill:none;stroke:#6fa4ff;stroke-linecap:square;stroke-width:2;"/>
   </g>
   <g id="line2d_20">
    <path clip-path="url(#p8d036a970a)" d="M 469.063517 407.1688 
L 469.063517 225.3648 
" style="fill:none;stroke:#bb8bff;stroke-linecap:square;stroke-width:2;"/>
   </g>
   <g id="line2d_21">
    <path clip-path="url(#p8d036a970a)" d="M 514.514517 225.3648 
L 514.514517 43.5608 
" style="fill:none;stroke:#6fa4ff;stroke-linecap:square;stroke-width:2;"/>
   </g>
   <g id="line2d_22">
    <path clip-path="url(#p8d036a970a)" d="M 559.965517 225.3648 
L 559.965517 89.0118 
" style="fill:none;stroke:#6fa4ff;stroke-linecap:square;stroke-width:2;"/>
   </g>
   <g id="line2d_23">
    <path clip-path="url(#p8d036a970a)" d="M 605.416517 270.8158 
L 605.416517 43.5608 
" style="fill:none;stroke:#6fa4ff;stroke-linecap:square;stroke-width:2;"/>
   </g>
   <g id="line2d_24">
    <path clip-path="url(#p8d036a970a)" d="M 650.867517 270.8158 
L 650.867517 134.4628 
" style="fill:none;stroke:#6fa4ff;stroke-linecap:square;stroke-width:2;"/>
   </g>
   <g id="line2d_25">
    <path clip-path="url(#p8d036a970a)" d="M 696.318517 316.2668 
L 696.318517 89.0118 
" style="fill:none;stroke:#6fa4ff;stroke-linecap:square;stroke-width:2;"/>
   </g>
   <g id="line2d_26">
    <path clip-path="url(#p8d036a970a)" d="M 741.769517 316.2668 
L 741.769517 179.9138 
" style="fill:none;stroke:#6fa4ff;stroke-linecap:square;stroke-width:2;"/>
   </g>
   <g id="line2d_27">
    <path clip-path="url(#p8d036a970a)" d="M 787.220517 361.7178 
L 787.220517 134.4628 
" style="fill:none;stroke:#6fa4ff;stroke-linecap:square;stroke-width:2;"/>
   </g>
   <g id="line2d_28">
    <path clip-path="url(#p8d036a970a)" d="M 832.671517 361.7178 
L 832.671517 179.9138 
" style="fill:none;stroke:#6fa4ff;stroke-linecap:square;stroke-width:2;"/>
   </g>
   <g id="line2d_29">
    <path clip-path="url(#p8d036a970a)" d="M 90.002177 457.1649 
L 94.547277 448.0747 
" style="fill:none;stroke:#778899;stroke-linecap:square;stroke-width:1.5;"/>
   </g>
   <g id="patch_2">
    <path clip-path="url(#p8d036a970a)" d="M 105.455517 47.992273 
C 106.630758 47.992273 107.758021 47.525345 108.589042 46.694324 
C 109.420062 45.863304 109.88699 44.73604 109.88699 43.5608 
C 109.88699 42.38556 109.420062 41.258296 108.589042 40.427276 
C 107.758021 39.596255 106.630758 39.129328 105.455517 39.129328 
C 104.280277 39.129328 103.153013 39.596255 102.321993 40.427276 
C 101.490973 41.258296 101.024045 42.38556 101.024045 43.5608 
C 101.024045 44.73604 101.490973 45.863304 102.321993 46.694324 
C 103.153013 47.525345 104.280277 47.992273 105.455517 47.992273 
z
" style="fill:#6fa4ff;stroke:#6fa4ff;stroke-linejoin:miter;stroke-width:1.5;"/>
   </g>
   <g id="patch_3">
    <path clip-path="url(#p8d036a970a)" d="M 105.455517 235.704903 
C 108.197745 235.704903 110.828026 234.615404 112.767074 232.676357 
C 114.706121 230.737309 115.79562 228.107027 115.79562 225.3648 
C 115.79562 222.622573 114.706121 219.992291 112.767074 218.053243 
C 110.828026 216.114196 108.197745 215.024698 105.455517 215.024698 
C 102.71329 215.024698 100.083008 216.114196 98.143961 218.053243 
C 96.204913 219.992291 95.115415 222.622573 95.115415 225.3648 
C 95.115415 228.107027 96.204913 230.737309 98.143961 232.676357 
C 100.083008 234.615404 102.71329 235.704903 105.455517 235.704903 
z
" style="fill:#6fa4ff;stroke:#6fa4ff;stroke-linejoin:miter;stroke-width:2;"/>
   </g>
   <g id="patch_4">
    <path clip-path="url(#p8d036a970a)" d="M 150.906517 93.443273 
C 152.081758 93.443273 153.209021 92.976345 154.040042 92.145324 
C 154.871062 91.314304 155.33799 90.18704 155.33799 89.0118 
C 155.33799 87.83656 154.871062 86.709296 154.040042 85.878276 
C 153.209021 85.047255 152.081758 84.580328 150.906517 84.580328 
C 149.731277 84.580328 148.604013 85.047255 147.772993 85.878276 
C 146.941973 86.709296 146.475045 87.83656 146.475045 89.0118 
C 146.475045 90.18704 146.941973 91.314304 147.772993 92.145324 
C 148.604013 92.976345 149.731277 93.443273 150.906517 93.443273 
z
" style="fill:#6fa4ff;stroke:#6fa4ff;stroke-linejoin:miter;stroke-width:1.5;"/>
   </g>
   <g id="patch_5">
    <path clip-path="url(#p8d036a970a)" d="M 150.906517 235.704903 
C 153.648745 235.704903 156.279026 234.615404 158.218074 232.676357 
C 160.157121 230.737309 161.24662 228.107027 161.24662 225.3648 
C 161.24662 222.622573 160.157121 219.992291 158.218074 218.053243 
C 156.279026 216.114196 153.648745 215.024698 150.906517 215.024698 
C 148.16429 215.024698 145.534008 216.114196 143.594961 218.053243 
C 141.655913 219.992291 140.566415 222.622573 140.566415 225.3648 
C 140.566415 228.107027 141.655913 230.737309 143.594961 232.676357 
C 145.534008 234.615404 148.16429 235.704903 150.906517 235.704903 
z
" style="fill:#6fa4ff;stroke:#6fa4ff;stroke-linejoin:miter;stroke-width:2;"/>
   </g>
   <g id="patch_6">
    <path clip-path="url(#p8d036a970a)" d="M 196.357517 47.992273 
C 197.532758 47.992273 198.660021 47.525345 199.491042 46.694324 
C 200.322062 45.863304 200.78899 44.73604 200.78899 43.5608 
C 200.78899 42.38556 200.322062 41.258296 199.491042 40.427276 
C 198.660021 39.596255 197.532758 39.129328 196.357517 39.129328 
C 195.182277 39.129328 194.055013 39.596255 193.223993 40.427276 
C 192.392973 41.258296 191.926045 42.38556 191.926045 43.5608 
C 191.926045 44.73604 192.392973 45.863304 193.223993 46.694324 
C 194.055013 47.525345 195.182277 47.992273 196.357517 47.992273 
z
" style="fill:#6fa4ff;stroke:#6fa4ff;stroke-linejoin:miter;stroke-width:1.5;"/>
   </g>
   <g id="patch_7">
    <path clip-path="url(#p8d036a970a)" d="M 196.357517 281.155903 
C 199.099745 281.155903 201.730026 280.066404 203.669074 278.127357 
C 205.608121 276.188309 206.69762 273.558027 206.69762 270.8158 
C 206.69762 268.073573 205.608121 265.443291 203.669074 263.504243 
C 201.730026 261.565196 199.099745 260.475698 196.357517 260.475698 
C 193.61529 260.475698 190.985008 261.565196 189.045961 263.504243 
C 187.106913 265.443291 186.017415 268.073573 186.017415 270.8158 
C 186.017415 273.558027 187.106913 276.188309 189.045961 278.127357 
C 190.985008 280.066404 193.61529 281.155903 196.357517 281.155903 
z
" style="fill:#6fa4ff;stroke:#6fa4ff;stroke-linejoin:miter;stroke-width:2;"/>
   </g>
   <g id="patch_8">
    <path clip-path="url(#p8d036a970a)" d="M 241.808517 138.894273 
C 242.983758 138.894273 244.111021 138.427345 244.942042 137.596324 
C 245.773062 136.765304 246.23999 135.63804 246.23999 134.4628 
C 246.23999 133.28756 245.773062 132.160296 244.942042 131.329276 
C 244.111021 130.498255 242.983758 130.031328 241.808517 130.031328 
C 240.633277 130.031328 239.506013 130.498255 238.674993 131.329276 
C 237.843973 132.160296 237.377045 133.28756 237.377045 134.4628 
C 237.377045 135.63804 237.843973 136.765304 238.674993 137.596324 
C 239.506013 138.427345 240.633277 138.894273 241.808517 138.894273 
z
" style="fill:#6fa4ff;stroke:#6fa4ff;stroke-linejoin:miter;stroke-width:1.5;"/>
   </g>
   <g id="patch_9">
    <path clip-path="url(#p8d036a970a)" d="M 241.808517 281.155903 
C 244.550745 281.155903 247.181026 280.066404 249.120074 278.127357 
C 251.059121 276.188309 252.14862 273.558027 252.14862 270.8158 
C 252.14862 268.073573 251.059121 265.443291 249.120074 263.504243 
C 247.181026 261.565196 244.550745 260.475698 241.808517 260.475698 
C 239.06629 260.475698 236.436008 261.565196 234.496961 263.504243 
C 232.557913 265.443291 231.468415 268.073573 231.468415 270.8158 
C 231.468415 273.558027 232.557913 276.188309 234.496961 278.127357 
C 236.436008 280.066404 239.06629 281.155903 241.808517 281.155903 
z
" style="fill:#6fa4ff;stroke:#6fa4ff;stroke-linejoin:miter;stroke-width:2;"/>
   </g>
   <g id="patch_10">
    <path clip-path="url(#p8d036a970a)" d="M 287.259517 93.443273 
C 288.434758 93.443273 289.562021 92.976345 290.393042 92.145324 
C 291.224062 91.314304 291.69099 90.18704 291.69099 89.0118 
C 291.69099 87.83656 291.224062 86.709296 290.393042 85.878276 
C 289.562021 85.047255 288.434758 84.580328 287.259517 84.580328 
C 286.084277 84.580328 284.957013 85.047255 284.125993 85.878276 
C 283.294973 86.709296 282.828045 87.83656 282.828045 89.0118 
C 282.828045 90.18704 283.294973 91.314304 284.125993 92.145324 
C 284.957013 92.976345 286.084277 93.443273 287.259517 93.443273 
z
" style="fill:#6fa4ff;stroke:#6fa4ff;stroke-linejoin:miter;stroke-width:1.5;"/>
   </g>
   <g id="patch_11">
    <path clip-path="url(#p8d036a970a)" d="M 287.259517 326.606903 
C 290.001745 326.606903 292.632026 325.517404 294.571074 323.578357 
C 296.510121 321.639309 297.59962 319.009027 297.59962 316.2668 
C 297.59962 313.524573 296.510121 310.894291 294.571074 308.955243 
C 292.632026 307.016196 290.001745 305.926698 287.259517 305.926698 
C 284.51729 305.926698 281.887008 307.016196 279.947961 308.955243 
C 278.008913 310.894291 276.919415 313.524573 276.919415 316.2668 
C 276.919415 319.009027 278.008913 321.639309 279.947961 323.578357 
C 281.887008 325.517404 284.51729 326.606903 287.259517 326.606903 
z
" style="fill:#6fa4ff;stroke:#6fa4ff;stroke-linejoin:miter;stroke-width:2;"/>
   </g>
   <g id="patch_12">
    <path clip-path="url(#p8d036a970a)" d="M 332.710517 184.345273 
C 333.885758 184.345273 335.013021 183.878345 335.844042 183.047324 
C 336.675062 182.216304 337.14199 181.08904 337.14199 179.9138 
C 337.14199 178.73856 336.675062 177.611296 335.844042 176.780276 
C 335.013021 175.949255 333.885758 175.482328 332.710517 175.482328 
C 331.535277 175.482328 330.408013 175.949255 329.576993 176.780276 
C 328.745973 177.611296 328.279045 178.73856 328.279045 179.9138 
C 328.279045 181.08904 328.745973 182.216304 329.576993 183.047324 
C 330.408013 183.878345 331.535277 184.345273 332.710517 184.345273 
z
" style="fill:#6fa4ff;stroke:#6fa4ff;stroke-linejoin:miter;stroke-width:1.5;"/>
   </g>
   <g id="patch_13">
    <path clip-path="url(#p8d036a970a)" d="M 332.710517 326.606903 
C 335.452745 326.606903 338.083026 325.517404 340.022074 323.578357 
C 341.961121 321.639309 343.05062 319.009027 343.05062 316.2668 
C 343.05062 313.524573 341.961121 310.894291 340.022074 308.955243 
C 338.083026 307.016196 335.452745 305.926698 332.710517 305.926698 
C 329.96829 305.926698 327.338008 307.016196 325.398961 308.955243 
C 323.459913 310.894291 322.370415 313.524573 322.370415 316.2668 
C 322.370415 319.009027 323.459913 321.639309 325.398961 323.578357 
C 327.338008 325.517404 329.96829 326.606903 332.710517 326.606903 
z
" style="fill:#6fa4ff;stroke:#6fa4ff;stroke-linejoin:miter;stroke-width:2;"/>
   </g>
   <g id="patch_14">
    <path clip-path="url(#p8d036a970a)" d="M 378.161517 138.894273 
C 379.336758 138.894273 380.464021 138.427345 381.295042 137.596324 
C 382.126062 136.765304 382.59299 135.63804 382.59299 134.4628 
C 382.59299 133.28756 382.126062 132.160296 381.295042 131.329276 
C 380.464021 130.498255 379.336758 130.031328 378.161517 130.031328 
C 376.986277 130.031328 375.859013 130.498255 375.027993 131.329276 
C 374.196973 132.160296 373.730045 133.28756 373.730045 134.4628 
C 373.730045 135.63804 374.196973 136.765304 375.027993 137.596324 
C 375.859013 138.427345 376.986277 138.894273 378.161517 138.894273 
z
" style="fill:#6fa4ff;stroke:#6fa4ff;stroke-linejoin:miter;stroke-width:1.5;"/>
   </g>
   <g id="patch_15">
    <path clip-path="url(#p8d036a970a)" d="M 378.161517 372.057903 
C 380.903745 372.057903 383.534026 370.968404 385.473074 369.029357 
C 387.412121 367.090309 388.50162 364.460027 388.50162 361.7178 
C 388.50162 358.975573 387.412121 356.345291 385.473074 354.406243 
C 383.534026 352.467196 380.903745 351.377698 378.161517 351.377698 
C 375.41929 351.377698 372.789008 352.467196 370.849961 354.406243 
C 368.910913 356.345291 367.821415 358.975573 367.821415 361.7178 
C 367.821415 364.460027 368.910913 367.090309 370.849961 369.029357 
C 372.789008 370.968404 375.41929 372.057903 378.161517 372.057903 
z
" style="fill:#6fa4ff;stroke:#6fa4ff;stroke-linejoin:miter;stroke-width:2;"/>
   </g>
   <g id="patch_16">
    <path clip-path="url(#p8d036a970a)" d="M 423.612517 184.345273 
C 424.787758 184.345273 425.915021 183.878345 426.746042 183.047324 
C 427.577062 182.216304 428.04399 181.08904 428.04399 179.9138 
C 428.04399 178.73856 427.577062 177.611296 426.746042 176.780276 
C 425.915021 175.949255 424.787758 175.482328 423.612517 175.482328 
C 422.437277 175.482328 421.310013 175.949255 420.478993 176.780276 
C 419.647973 177.611296 419.181045 178.73856 419.181045 179.9138 
C 419.181045 181.08904 419.647973 182.216304 420.478993 183.047324 
C 421.310013 183.878345 422.437277 184.345273 423.612517 184.345273 
z
" style="fill:#6fa4ff;stroke:#6fa4ff;stroke-linejoin:miter;stroke-width:1.5;"/>
   </g>
   <g id="patch_17">
    <path clip-path="url(#p8d036a970a)" d="M 423.612517 372.057903 
C 426.354745 372.057903 428.985026 370.968404 430.924074 369.029357 
C 432.863121 367.090309 433.95262 364.460027 433.95262 361.7178 
C 433.95262 358.975573 432.863121 356.345291 430.924074 354.406243 
C 428.985026 352.467196 426.354745 351.377698 423.612517 351.377698 
C 420.87029 351.377698 418.240008 352.467196 416.300961 354.406243 
C 414.361913 356.345291 413.272415 358.975573 413.272415 361.7178 
C 413.272415 364.460027 414.361913 367.090309 416.300961 369.029357 
C 418.240008 370.968404 420.87029 372.057903 423.612517 372.057903 
z
" style="fill:#6fa4ff;stroke:#6fa4ff;stroke-linejoin:miter;stroke-width:2;"/>
   </g>
   <g id="patch_18">
    <path clip-path="url(#p8d036a970a)" d="M 469.063517 229.796273 
C 470.238758 229.796273 471.366021 229.329345 472.197042 228.498324 
C 473.028062 227.667304 473.49499 226.54004 473.49499 225.3648 
C 473.49499 224.18956 473.028062 223.062296 472.197042 222.231276 
C 471.366021 221.400255 470.238758 220.933328 469.063517 220.933328 
C 467.888277 220.933328 466.761013 221.400255 465.929993 222.231276 
C 465.098973 223.062296 464.632045 224.18956 464.632045 225.3648 
C 464.632045 226.54004 465.098973 227.667304 465.929993 228.498324 
C 466.761013 229.329345 467.888277 229.796273 469.063517 229.796273 
z
" style="fill:#bb8bff;stroke:#bb8bff;stroke-linejoin:miter;stroke-width:1.5;"/>
   </g>
   <g id="patch_19">
    <path clip-path="url(#p8d036a970a)" d="M 469.063517 275.247273 
C 470.238758 275.247273 471.366021 274.780345 472.197042 273.949324 
C 473.028062 273.118304 473.49499 271.99104 473.49499 270.8158 
C 473.49499 269.64056 473.028062 268.513296 472.197042 267.682276 
C 471.366021 266.851255 470.238758 266.384328 469.063517 266.384328 
C 467.888277 266.384328 466.761013 266.851255 465.929993 267.682276 
C 465.098973 268.513296 464.632045 269.64056 464.632045 270.8158 
C 464.632045 271.99104 465.098973 273.118304 465.929993 273.949324 
C 466.761013 274.780345 467.888277 275.247273 469.063517 275.247273 
z
" style="fill:#bb8bff;stroke:#bb8bff;stroke-linejoin:miter;stroke-width:1.5;"/>
   </g>
   <g id="patch_20">
    <path clip-path="url(#p8d036a970a)" d="M 469.063517 320.698273 
C 470.238758 320.698273 471.366021 320.231345 472.197042 319.400324 
C 473.028062 318.569304 473.49499 317.44204 473.49499 316.2668 
C 473.49499 315.09156 473.028062 313.964296 472.197042 313.133276 
C 471.366021 312.302255 470.238758 311.835328 469.063517 311.835328 
C 467.888277 311.835328 466.761013 312.302255 465.929993 313.133276 
C 465.098973 313.964296 464.632045 315.09156 464.632045 316.2668 
C 464.632045 317.44204 465.098973 318.569304 465.929993 319.400324 
C 466.761013 320.231345 467.888277 320.698273 469.063517 320.698273 
z
" style="fill:#bb8bff;stroke:#bb8bff;stroke-linejoin:miter;stroke-width:1.5;"/>
   </g>
   <g id="patch_21">
    <path clip-path="url(#p8d036a970a)" d="M 469.063517 366.149272 
C 470.238758 366.149272 471.366021 365.682345 472.197042 364.851324 
C 473.028062 364.020304 473.49499 362.89304 473.49499 361.7178 
C 473.49499 360.54256 473.028062 359.415296 472.197042 358.584276 
C 471.366021 357.753255 470.238758 357.286328 469.063517 357.286328 
C 467.888277 357.286328 466.761013 357.753255 465.929993 358.584276 
C 465.098973 359.415296 464.632045 360.54256 464.632045 361.7178 
C 464.632045 362.89304 465.098973 364.020304 465.929993 364.851324 
C 466.761013 365.682345 467.888277 366.149272 469.063517 366.149272 
z
" style="fill:#bb8bff;stroke:#bb8bff;stroke-linejoin:miter;stroke-width:1.5;"/>
   </g>
   <g id="patch_22">
    <path clip-path="url(#p8d036a970a)" d="M 469.063517 417.508903 
C 471.805745 417.508903 474.436026 416.419404 476.375074 414.480357 
C 478.314121 412.541309 479.40362 409.911027 479.40362 407.1688 
C 479.40362 404.426573 478.314121 401.796291 476.375074 399.857243 
C 474.436026 397.918196 471.805745 396.828698 469.063517 396.828698 
C 466.32129 396.828698 463.691008 397.918196 461.751961 399.857243 
C 459.812913 401.796291 458.723415 404.426573 458.723415 407.1688 
C 458.723415 409.911027 459.812913 412.541309 461.751961 414.480357 
C 463.691008 416.419404 466.32129 417.508903 469.063517 417.508903 
z
" style="fill:#bb8bff;stroke:#bb8bff;stroke-linejoin:miter;stroke-width:2;"/>
   </g>
   <g id="patch_23">
    <path clip-path="url(#p8d036a970a)" d="M 514.514517 47.992273 
C 515.689758 47.992273 516.817021 47.525345 517.648042 46.694324 
C 518.479062 45.863304 518.94599 44.73604 518.94599 43.5608 
C 518.94599 42.38556 518.479062 41.258296 517.648042 40.427276 
C 516.817021 39.596255 515.689758 39.129328 514.514517 39.129328 
C 513.339277 39.129328 512.212013 39.596255 511.380993 40.427276 
C 510.549973 41.258296 510.083045 42.38556 510.083045 43.5608 
C 510.083045 44.73604 510.549973 45.863304 511.380993 46.694324 
C 512.212013 47.525345 513.339277 47.992273 514.514517 47.992273 
z
" style="fill:#6fa4ff;stroke:#6fa4ff;stroke-linejoin:miter;stroke-width:1.5;"/>
   </g>
   <g id="patch_24">
    <path clip-path="url(#p8d036a970a)" d="M 514.514517 235.704903 
C 517.256745 235.704903 519.887026 234.615404 521.826074 232.676357 
C 523.765121 230.737309 524.85462 228.107027 524.85462 225.3648 
C 524.85462 222.622573 523.765121 219.992291 521.826074 218.053243 
C 519.887026 216.114196 517.256745 215.024698 514.514517 215.024698 
C 511.77229 215.024698 509.142008 216.114196 507.202961 218.053243 
C 505.263913 219.992291 504.174415 222.622573 504.174415 225.3648 
C 504.174415 228.107027 505.263913 230.737309 507.202961 232.676357 
C 509.142008 234.615404 511.77229 235.704903 514.514517 235.704903 
z
" style="fill:#6fa4ff;stroke:#6fa4ff;stroke-linejoin:miter;stroke-width:2;"/>
   </g>
   <g id="patch_25">
    <path clip-path="url(#p8d036a970a)" d="M 559.965517 93.443273 
C 561.140758 93.443273 562.268021 92.976345 563.099042 92.145324 
C 563.930062 91.314304 564.39699 90.18704 564.39699 89.0118 
C 564.39699 87.83656 563.930062 86.709296 563.099042 85.878276 
C 562.268021 85.047255 561.140758 84.580328 559.965517 84.580328 
C 558.790277 84.580328 557.663013 85.047255 556.831993 85.878276 
C 556.000973 86.709296 555.534045 87.83656 555.534045 89.0118 
C 555.534045 90.18704 556.000973 91.314304 556.831993 92.145324 
C 557.663013 92.976345 558.790277 93.443273 559.965517 93.443273 
z
" style="fill:#6fa4ff;stroke:#6fa4ff;stroke-linejoin:miter;stroke-width:1.5;"/>
   </g>
   <g id="patch_26">
    <path clip-path="url(#p8d036a970a)" d="M 559.965517 235.704903 
C 562.707745 235.704903 565.338026 234.615404 567.277074 232.676357 
C 569.216121 230.737309 570.30562 228.107027 570.30562 225.3648 
C 570.30562 222.622573 569.216121 219.992291 567.277074 218.053243 
C 565.338026 216.114196 562.707745 215.024698 559.965517 215.024698 
C 557.22329 215.024698 554.593008 216.114196 552.653961 218.053243 
C 550.714913 219.992291 549.625415 222.622573 549.625415 225.3648 
C 549.625415 228.107027 550.714913 230.737309 552.653961 232.676357 
C 554.593008 234.615404 557.22329 235.704903 559.965517 235.704903 
z
" style="fill:#6fa4ff;stroke:#6fa4ff;stroke-linejoin:miter;stroke-width:2;"/>
   </g>
   <g id="patch_27">
    <path clip-path="url(#p8d036a970a)" d="M 605.416517 47.992273 
C 606.591758 47.992273 607.719021 47.525345 608.550042 46.694324 
C 609.381062 45.863304 609.84799 44.73604 609.84799 43.5608 
C 609.84799 42.38556 609.381062 41.258296 608.550042 40.427276 
C 607.719021 39.596255 606.591758 39.129328 605.416517 39.129328 
C 604.241277 39.129328 603.114013 39.596255 602.282993 40.427276 
C 601.451973 41.258296 600.985045 42.38556 600.985045 43.5608 
C 600.985045 44.73604 601.451973 45.863304 602.282993 46.694324 
C 603.114013 47.525345 604.241277 47.992273 605.416517 47.992273 
z
" style="fill:#6fa4ff;stroke:#6fa4ff;stroke-linejoin:miter;stroke-width:1.5;"/>
   </g>
   <g id="patch_28">
    <path clip-path="url(#p8d036a970a)" d="M 605.416517 281.155903 
C 608.158745 281.155903 610.789026 280.066404 612.728074 278.127357 
C 614.667121 276.188309 615.75662 273.558027 615.75662 270.8158 
C 615.75662 268.073573 614.667121 265.443291 612.728074 263.504243 
C 610.789026 261.565196 608.158745 260.475698 605.416517 260.475698 
C 602.67429 260.475698 600.044008 261.565196 598.104961 263.504243 
C 596.165913 265.443291 595.076415 268.073573 595.076415 270.8158 
C 595.076415 273.558027 596.165913 276.188309 598.104961 278.127357 
C 600.044008 280.066404 602.67429 281.155903 605.416517 281.155903 
z
" style="fill:#6fa4ff;stroke:#6fa4ff;stroke-linejoin:miter;stroke-width:2;"/>
   </g>
   <g id="patch_29">
    <path clip-path="url(#p8d036a970a)" d="M 650.867517 138.894273 
C 652.042758 138.894273 653.170021 138.427345 654.001042 137.596324 
C 654.832062 136.765304 655.29899 135.63804 655.29899 134.4628 
C 655.29899 133.28756 654.832062 132.160296 654.001042 131.329276 
C 653.170021 130.498255 652.042758 130.031328 650.867517 130.031328 
C 649.692277 130.031328 648.565013 130.498255 647.733993 131.329276 
C 646.902973 132.160296 646.436045 133.28756 646.436045 134.4628 
C 646.436045 135.63804 646.902973 136.765304 647.733993 137.596324 
C 648.565013 138.427345 649.692277 138.894273 650.867517 138.894273 
z
" style="fill:#6fa4ff;stroke:#6fa4ff;stroke-linejoin:miter;stroke-width:1.5;"/>
   </g>
   <g id="patch_30">
    <path clip-path="url(#p8d036a970a)" d="M 650.867517 281.155903 
C 653.609745 281.155903 656.240026 280.066404 658.179074 278.127357 
C 660.118121 276.188309 661.20762 273.558027 661.20762 270.8158 
C 661.20762 268.073573 660.118121 265.443291 658.179074 263.504243 
C 656.240026 261.565196 653.609745 260.475698 650.867517 260.475698 
C 648.12529 260.475698 645.495008 261.565196 643.555961 263.504243 
C 641.616913 265.443291 640.527415 268.073573 640.527415 270.8158 
C 640.527415 273.558027 641.616913 276.188309 643.555961 278.127357 
C 645.495008 280.066404 648.12529 281.155903 650.867517 281.155903 
z
" style="fill:#6fa4ff;stroke:#6fa4ff;stroke-linejoin:miter;stroke-width:2;"/>
   </g>
   <g id="patch_31">
    <path clip-path="url(#p8d036a970a)" d="M 696.318517 93.443273 
C 697.493758 93.443273 698.621021 92.976345 699.452042 92.145324 
C 700.283062 91.314304 700.74999 90.18704 700.74999 89.0118 
C 700.74999 87.83656 700.283062 86.709296 699.452042 85.878276 
C 698.621021 85.047255 697.493758 84.580328 696.318517 84.580328 
C 695.143277 84.580328 694.016013 85.047255 693.184993 85.878276 
C 692.353973 86.709296 691.887045 87.83656 691.887045 89.0118 
C 691.887045 90.18704 692.353973 91.314304 693.184993 92.145324 
C 694.016013 92.976345 695.143277 93.443273 696.318517 93.443273 
z
" style="fill:#6fa4ff;stroke:#6fa4ff;stroke-linejoin:miter;stroke-width:1.5;"/>
   </g>
   <g id="patch_32">
    <path clip-path="url(#p8d036a970a)" d="M 696.318517 326.606903 
C 699.060745 326.606903 701.691026 325.517404 703.630074 323.578357 
C 705.569121 321.639309 706.65862 319.009027 706.65862 316.2668 
C 706.65862 313.524573 705.569121 310.894291 703.630074 308.955243 
C 701.691026 307.016196 699.060745 305.926698 696.318517 305.926698 
C 693.57629 305.926698 690.946008 307.016196 689.006961 308.955243 
C 687.067913 310.894291 685.978415 313.524573 685.978415 316.2668 
C 685.978415 319.009027 687.067913 321.639309 689.006961 323.578357 
C 690.946008 325.517404 693.57629 326.606903 696.318517 326.606903 
z
" style="fill:#6fa4ff;stroke:#6fa4ff;stroke-linejoin:miter;stroke-width:2;"/>
   </g>
   <g id="patch_33">
    <path clip-path="url(#p8d036a970a)" d="M 741.769517 184.345273 
C 742.944758 184.345273 744.072021 183.878345 744.903042 183.047324 
C 745.734062 182.216304 746.20099 181.08904 746.20099 179.9138 
C 746.20099 178.73856 745.734062 177.611296 744.903042 176.780276 
C 744.072021 175.949255 742.944758 175.482328 741.769517 175.482328 
C 740.594277 175.482328 739.467013 175.949255 738.635993 176.780276 
C 737.804973 177.611296 737.338045 178.73856 737.338045 179.9138 
C 737.338045 181.08904 737.804973 182.216304 738.635993 183.047324 
C 739.467013 183.878345 740.594277 184.345273 741.769517 184.345273 
z
" style="fill:#6fa4ff;stroke:#6fa4ff;stroke-linejoin:miter;stroke-width:1.5;"/>
   </g>
   <g id="patch_34">
    <path clip-path="url(#p8d036a970a)" d="M 741.769517 326.606903 
C 744.511745 326.606903 747.142026 325.517404 749.081074 323.578357 
C 751.020121 321.639309 752.10962 319.009027 752.10962 316.2668 
C 752.10962 313.524573 751.020121 310.894291 749.081074 308.955243 
C 747.142026 307.016196 744.511745 305.926698 741.769517 305.926698 
C 739.02729 305.926698 736.397008 307.016196 734.457961 308.955243 
C 732.518913 310.894291 731.429415 313.524573 731.429415 316.2668 
C 731.429415 319.009027 732.518913 321.639309 734.457961 323.578357 
C 736.397008 325.517404 739.02729 326.606903 741.769517 326.606903 
z
" style="fill:#6fa4ff;stroke:#6fa4ff;stroke-linejoin:miter;stroke-width:2;"/>
   </g>
   <g id="patch_35">
    <path clip-path="url(#p8d036a970a)" d="M 787.220517 138.894273 
C 788.395758 138.894273 789.523021 138.427345 790.354042 137.596324 
C 791.185062 136.765304 791.65199 135.63804 791.65199 134.4628 
C 791.65199 133.28756 791.185062 132.160296 790.354042 131.329276 
C 789.523021 130.498255 788.395758 130.031328 787.220517 130.031328 
C 786.045277 130.031328 784.918013 130.498255 784.086993 131.329276 
C 783.255973 132.160296 782.789045 133.28756 782.789045 134.4628 
C 782.789045 135.63804 783.255973 136.765304 784.086993 137.596324 
C 784.918013 138.427345 786.045277 138.894273 787.220517 138.894273 
z
" style="fill:#6fa4ff;stroke:#6fa4ff;stroke-linejoin:miter;stroke-width:1.5;"/>
   </g>
   <g id="patch_36">
    <path clip-path="url(#p8d036a970a)" d="M 787.220517 372.057903 
C 789.962745 372.057903 792.593026 370.968404 794.532074 369.029357 
C 796.471121 367.090309 797.56062 364.460027 797.56062 361.7178 
C 797.56062 358.975573 796.471121 356.345291 794.532074 354.406243 
C 792.593026 352.467196 789.962745 351.377698 787.220517 351.377698 
C 784.47829 351.377698 781.848008 352.467196 779.908961 354.406243 
C 777.969913 356.345291 776.880415 358.975573 776.880415 361.7178 
C 776.880415 364.460027 777.969913 367.090309 779.908961 369.029357 
C 781.848008 370.968404 784.47829 372.057903 787.220517 372.057903 
z
" style="fill:#6fa4ff;stroke:#6fa4ff;stroke-linejoin:miter;stroke-width:2;"/>
   </g>
   <g id="patch_37">
    <path clip-path="url(#p8d036a970a)" d="M 832.671517 184.345273 
C 833.846758 184.345273 834.974021 183.878345 835.805042 183.047324 
C 836.636062 182.216304 837.10299 181.08904 837.10299 179.9138 
C 837.10299 178.73856 836.636062 177.611296 835.805042 176.780276 
C 834.974021 175.949255 833.846758 175.482328 832.671517 175.482328 
C 831.496277 175.482328 830.369013 175.949255 829.537993 176.780276 
C 828.706973 177.611296 828.240045 178.73856 828.240045 179.9138 
C 828.240045 181.08904 828.706973 182.216304 829.537993 183.047324 
C 830.369013 183.878345 831.496277 184.345273 832.671517 184.345273 
z
" style="fill:#6fa4ff;stroke:#6fa4ff;stroke-linejoin:miter;stroke-width:1.5;"/>
   </g>
   <g id="patch_38">
    <path clip-path="url(#p8d036a970a)" d="M 832.671517 372.057903 
C 835.413745 372.057903 838.044026 370.968404 839.983074 369.029357 
C 841.922121 367.090309 843.01162 364.460027 843.01162 361.7178 
C 843.01162 358.975573 841.922121 356.345291 839.983074 354.406243 
C 838.044026 352.467196 835.413745 351.377698 832.671517 351.377698 
C 829.92929 351.377698 827.299008 352.467196 825.359961 354.406243 
C 823.420913 356.345291 822.331415 358.975573 822.331415 361.7178 
C 822.331415 364.460027 823.420913 367.090309 825.359961 369.029357 
C 827.299008 370.968404 829.92929 372.057903 832.671517 372.057903 
z
" style="fill:#6fa4ff;stroke:#6fa4ff;stroke-linejoin:miter;stroke-width:2;"/>
   </g>
   <g id="line2d_30">
    <path clip-path="url(#p8d036a970a)" d="M 105.455517 231.27343 
L 105.455517 219.45617 
" style="fill:none;stroke:#ffffff;stroke-linecap:square;stroke-width:2;"/>
   </g>
   <g id="line2d_31">
    <path clip-path="url(#p8d036a970a)" d="M 99.546887 225.3648 
L 111.364147 225.3648 
" style="fill:none;stroke:#ffffff;stroke-linecap:square;stroke-width:2;"/>
   </g>
   <g id="line2d_32">
    <path clip-path="url(#p8d036a970a)" d="M 150.906517 231.27343 
L 150.906517 219.45617 
" style="fill:none;stroke:#ffffff;stroke-linecap:square;stroke-width:2;"/>
   </g>
   <g id="line2d_33">
    <path clip-path="url(#p8d036a970a)" d="M 144.997887 225.3648 
L 156.815147 225.3648 
" style="fill:none;stroke:#ffffff;stroke-linecap:square;stroke-width:2;"/>
   </g>
   <g id="line2d_34">
    <path clip-path="url(#p8d036a970a)" d="M 196.357517 276.72443 
L 196.357517 264.90717 
" style="fill:none;stroke:#ffffff;stroke-linecap:square;stroke-width:2;"/>
   </g>
   <g id="line2d_35">
    <path clip-path="url(#p8d036a970a)" d="M 190.448887 270.8158 
L 202.266147 270.8158 
" style="fill:none;stroke:#ffffff;stroke-linecap:square;stroke-width:2;"/>
   </g>
   <g id="line2d_36">
    <path clip-path="url(#p8d036a970a)" d="M 241.808517 276.72443 
L 241.808517 264.90717 
" style="fill:none;stroke:#ffffff;stroke-linecap:square;stroke-width:2;"/>
   </g>
   <g id="line2d_37">
    <path clip-path="url(#p8d036a970a)" d="M 235.899887 270.8158 
L 247.717147 270.8158 
" style="fill:none;stroke:#ffffff;stroke-linecap:square;stroke-width:2;"/>
   </g>
   <g id="line2d_38">
    <path clip-path="url(#p8d036a970a)" d="M 287.259517 322.17543 
L 287.259517 310.35817 
" style="fill:none;stroke:#ffffff;stroke-linecap:square;stroke-width:2;"/>
   </g>
   <g id="line2d_39">
    <path clip-path="url(#p8d036a970a)" d="M 281.350887 316.2668 
L 293.168147 316.2668 
" style="fill:none;stroke:#ffffff;stroke-linecap:square;stroke-width:2;"/>
   </g>
   <g id="line2d_40">
    <path clip-path="url(#p8d036a970a)" d="M 332.710517 322.17543 
L 332.710517 310.35817 
" style="fill:none;stroke:#ffffff;stroke-linecap:square;stroke-width:2;"/>
   </g>
   <g id="line2d_41">
    <path clip-path="url(#p8d036a970a)" d="M 326.801887 316.2668 
L 338.619147 316.2668 
" style="fill:none;stroke:#ffffff;stroke-linecap:square;stroke-width:2;"/>
   </g>
   <g id="line2d_42">
    <path clip-path="url(#p8d036a970a)" d="M 378.161517 367.62643 
L 378.161517 355.80917 
" style="fill:none;stroke:#ffffff;stroke-linecap:square;stroke-width:2;"/>
   </g>
   <g id="line2d_43">
    <path clip-path="url(#p8d036a970a)" d="M 372.252887 361.7178 
L 384.070147 361.7178 
" style="fill:none;stroke:#ffffff;stroke-linecap:square;stroke-width:2;"/>
   </g>
   <g id="line2d_44">
    <path clip-path="url(#p8d036a970a)" d="M 423.612517 367.62643 
L 423.612517 355.80917 
" style="fill:none;stroke:#ffffff;stroke-linecap:square;stroke-width:2;"/>
   </g>
   <g id="line2d_45">
    <path clip-path="url(#p8d036a970a)" d="M 417.703887 361.7178 
L 429.521147 361.7178 
" style="fill:none;stroke:#ffffff;stroke-linecap:square;stroke-width:2;"/>
   </g>
   <g id="line2d_46">
    <path clip-path="url(#p8d036a970a)" d="M 469.063517 413.07743 
L 469.063517 401.26017 
" style="fill:none;stroke:#ffffff;stroke-linecap:square;stroke-width:2;"/>
   </g>
   <g id="line2d_47">
    <path clip-path="url(#p8d036a970a)" d="M 463.154887 407.1688 
L 474.972147 407.1688 
" style="fill:none;stroke:#ffffff;stroke-linecap:square;stroke-width:2;"/>
   </g>
   <g id="line2d_48">
    <path clip-path="url(#p8d036a970a)" d="M 514.514517 231.27343 
L 514.514517 219.45617 
" style="fill:none;stroke:#ffffff;stroke-linecap:square;stroke-width:2;"/>
   </g>
   <g id="line2d_49">
    <path clip-path="url(#p8d036a970a)" d="M 508.605887 225.3648 
L 520.423147 225.3648 
" style="fill:none;stroke:#ffffff;stroke-linecap:square;stroke-width:2;"/>
   </g>
   <g id="line2d_50">
    <path clip-path="url(#p8d036a970a)" d="M 559.965517 231.27343 
L 559.965517 219.45617 
" style="fill:none;stroke:#ffffff;stroke-linecap:square;stroke-width:2;"/>
   </g>
   <g id="line2d_51">
    <path clip-path="url(#p8d036a970a)" d="M 554.056887 225.3648 
L 565.874147 225.3648 
" style="fill:none;stroke:#ffffff;stroke-linecap:square;stroke-width:2;"/>
   </g>
   <g id="line2d_52">
    <path clip-path="url(#p8d036a970a)" d="M 605.416517 276.72443 
L 605.416517 264.90717 
" style="fill:none;stroke:#ffffff;stroke-linecap:square;stroke-width:2;"/>
   </g>
   <g id="line2d_53">
    <path clip-path="url(#p8d036a970a)" d="M 599.507887 270.8158 
L 611.325147 270.8158 
" style="fill:none;stroke:#ffffff;stroke-linecap:square;stroke-width:2;"/>
   </g>
   <g id="line2d_54">
    <path clip-path="url(#p8d036a970a)" d="M 650.867517 276.72443 
L 650.867517 264.90717 
" style="fill:none;stroke:#ffffff;stroke-linecap:square;stroke-width:2;"/>
   </g>
   <g id="line2d_55">
    <path clip-path="url(#p8d036a970a)" d="M 644.958887 270.8158 
L 656.776147 270.8158 
" style="fill:none;stroke:#ffffff;stroke-linecap:square;stroke-width:2;"/>
   </g>
   <g id="line2d_56">
    <path clip-path="url(#p8d036a970a)" d="M 696.318517 322.17543 
L 696.318517 310.35817 
" style="fill:none;stroke:#ffffff;stroke-linecap:square;stroke-width:2;"/>
   </g>
   <g id="line2d_57">
    <path clip-path="url(#p8d036a970a)" d="M 690.409887 316.2668 
L 702.227147 316.2668 
" style="fill:none;stroke:#ffffff;stroke-linecap:square;stroke-width:2;"/>
   </g>
   <g id="line2d_58">
    <path clip-path="url(#p8d036a970a)" d="M 741.769517 322.17543 
L 741.769517 310.35817 
" style="fill:none;stroke:#ffffff;stroke-linecap:square;stroke-width:2;"/>
   </g>
   <g id="line2d_59">
    <path clip-path="url(#p8d036a970a)" d="M 735.860887 316.2668 
L 747.678147 316.2668 
" style="fill:none;stroke:#ffffff;stroke-linecap:square;stroke-width:2;"/>
   </g>
   <g id="line2d_60">
    <path clip-path="url(#p8d036a970a)" d="M 787.220517 367.62643 
L 787.220517 355.80917 
" style="fill:none;stroke:#ffffff;stroke-linecap:square;stroke-width:2;"/>
   </g>
   <g id="line2d_61">
    <path clip-path="url(#p8d036a970a)" d="M 781.311887 361.7178 
L 793.129147 361.7178 
" style="fill:none;stroke:#ffffff;stroke-linecap:square;stroke-width:2;"/>
   </g>
   <g id="line2d_62">
    <path clip-path="url(#p8d036a970a)" d="M 832.671517 367.62643 
L 832.671517 355.80917 
" style="fill:none;stroke:#ffffff;stroke-linecap:square;stroke-width:2;"/>
   </g>
   <g id="line2d_63">
    <path clip-path="url(#p8d036a970a)" d="M 826.762887 361.7178 
L 838.580147 361.7178 
" style="fill:none;stroke:#ffffff;stroke-linecap:square;stroke-width:2;"/>
   </g>
   <g id="text_1">
    <g clip-path="url(#p8d036a970a)">
     <!-- ${v}_{0}$ -->
     <defs>
      <path d="M 7.171875 54.6875 
L 16.703125 54.6875 
L 24.703125 8.203125 
L 50.875 54.6875 
L 60.40625 54.6875 
L 29.296875 0 
L 17.1875 0 
z
" id="DejaVuSans-Oblique-118"/>
      <path d="M 31.78125 66.40625 
Q 24.171875 66.40625 20.328125 58.90625 
Q 16.5 51.421875 16.5 36.375 
Q 16.5 21.390625 20.328125 13.890625 
Q 24.171875 6.390625 31.78125 6.390625 
Q 39.453125 6.390625 43.28125 13.890625 
Q 47.125 21.390625 47.125 36.375 
Q 47.125 51.421875 43.28125 58.90625 
Q 39.453125 66.40625 31.78125 66.40625 
z
M 31.78125 74.21875 
Q 44.046875 74.21875 50.515625 64.515625 
Q 56.984375 54.828125 56.984375 36.375 
Q 56.984375 17.96875 50.515625 8.265625 
Q 44.046875 -1.421875 31.78125 -1.421875 
Q 19.53125 -1.421875 13.0625 8.265625 
Q 6.59375 17.96875 6.59375 36.375 
Q 6.59375 54.828125 13.0625 64.515625 
Q 19.53125 74.21875 31.78125 74.21875 
z
" id="DejaVuSans-48"/>
     </defs>
     <g transform="translate(54.434277 48.044784)scale(0.1625 -0.1625)">
      <use transform="translate(0 0.3125)" xlink:href="#DejaVuSans-Oblique-118"/>
      <use transform="translate(59.179688 -16.09375)scale(0.7)" xlink:href="#DejaVuSans-48"/>
     </g>
    </g>
   </g>
   <g id="text_2">
    <g clip-path="url(#p8d036a970a)">
     <!-- ${v}_{1}$ -->
     <defs>
      <path d="M 12.40625 8.296875 
L 28.515625 8.296875 
L 28.515625 63.921875 
L 10.984375 60.40625 
L 10.984375 69.390625 
L 28.421875 72.90625 
L 38.28125 72.90625 
L 38.28125 8.296875 
L 54.390625 8.296875 
L 54.390625 0 
L 12.40625 0 
z
" id="DejaVuSans-49"/>
     </defs>
     <g transform="translate(54.434277 93.495784)scale(0.1625 -0.1625)">
      <use transform="translate(0 0.3125)" xlink:href="#DejaVuSans-Oblique-118"/>
      <use transform="translate(59.179688 -16.09375)scale(0.7)" xlink:href="#DejaVuSans-49"/>
     </g>
    </g>
   </g>
   <g id="text_3">
    <g clip-path="url(#p8d036a970a)">
     <!-- ${v}_{2}$ -->
     <defs>
      <path d="M 19.1875 8.296875 
L 53.609375 8.296875 
L 53.609375 0 
L 7.328125 0 
L 7.328125 8.296875 
Q 12.9375 14.109375 22.625 23.890625 
Q 32.328125 33.6875 34.8125 36.53125 
Q 39.546875 41.84375 41.421875 45.53125 
Q 43.3125 49.21875 43.3125 52.78125 
Q 43.3125 58.59375 39.234375 62.25 
Q 35.15625 65.921875 28.609375 65.921875 
Q 23.96875 65.921875 18.8125 64.3125 
Q 13.671875 62.703125 7.8125 59.421875 
L 7.8125 69.390625 
Q 13.765625 71.78125 18.9375 73 
Q 24.125 74.21875 28.421875 74.21875 
Q 39.75 74.21875 46.484375 68.546875 
Q 53.21875 62.890625 53.21875 53.421875 
Q 53.21875 48.921875 51.53125 44.890625 
Q 49.859375 40.875 45.40625 35.40625 
Q 44.1875 33.984375 37.640625 27.21875 
Q 31.109375 20.453125 19.1875 8.296875 
z
" id="DejaVuSans-50"/>
     </defs>
     <g transform="translate(54.434277 138.946784)scale(0.1625 -0.1625)">
      <use transform="translate(0 0.3125)" xlink:href="#DejaVuSans-Oblique-118"/>
      <use transform="translate(59.179688 -16.09375)scale(0.7)" xlink:href="#DejaVuSans-50"/>
     </g>
    </g>
   </g>
   <g id="text_4">
    <g clip-path="url(#p8d036a970a)">
     <!-- ${v}_{3}$ -->
     <defs>
      <path d="M 40.578125 39.3125 
Q 47.65625 37.796875 51.625 33 
Q 55.609375 28.21875 55.609375 21.1875 
Q 55.609375 10.40625 48.1875 4.484375 
Q 40.765625 -1.421875 27.09375 -1.421875 
Q 22.515625 -1.421875 17.65625 -0.515625 
Q 12.796875 0.390625 7.625 2.203125 
L 7.625 11.71875 
Q 11.71875 9.328125 16.59375 8.109375 
Q 21.484375 6.890625 26.8125 6.890625 
Q 36.078125 6.890625 40.9375 10.546875 
Q 45.796875 14.203125 45.796875 21.1875 
Q 45.796875 27.640625 41.28125 31.265625 
Q 36.765625 34.90625 28.71875 34.90625 
L 20.21875 34.90625 
L 20.21875 43.015625 
L 29.109375 43.015625 
Q 36.375 43.015625 40.234375 45.921875 
Q 44.09375 48.828125 44.09375 54.296875 
Q 44.09375 59.90625 40.109375 62.90625 
Q 36.140625 65.921875 28.71875 65.921875 
Q 24.65625 65.921875 20.015625 65.03125 
Q 15.375 64.15625 9.8125 62.3125 
L 9.8125 71.09375 
Q 15.4375 72.65625 20.34375 73.4375 
Q 25.25 74.21875 29.59375 74.21875 
Q 40.828125 74.21875 47.359375 69.109375 
Q 53.90625 64.015625 53.90625 55.328125 
Q 53.90625 49.265625 50.4375 45.09375 
Q 46.96875 40.921875 40.578125 39.3125 
z
" id="DejaVuSans-51"/>
     </defs>
     <g transform="translate(54.434277 184.397784)scale(0.1625 -0.1625)">
      <use transform="translate(0 0.3125)" xlink:href="#DejaVuSans-Oblique-118"/>
      <use transform="translate(59.179688 -16.09375)scale(0.7)" xlink:href="#DejaVuSans-51"/>
     </g>
    </g>
   </g>
   <g id="text_5">
    <g clip-path="url(#p8d036a970a)">
     <!-- ${c}_{0}$ -->
     <defs>
      <path d="M 53.609375 52.59375 
L 51.8125 43.703125 
Q 48.578125 46.046875 44.9375 47.21875 
Q 41.3125 48.390625 37.40625 48.390625 
Q 33.109375 48.390625 29.21875 46.875 
Q 25.34375 45.359375 22.703125 42.578125 
Q 18.5 38.328125 16.203125 32.609375 
Q 13.921875 26.90625 13.921875 20.796875 
Q 13.921875 13.421875 17.609375 9.8125 
Q 21.296875 6.203125 28.8125 6.203125 
Q 32.515625 6.203125 36.6875 7.328125 
Q 40.875 8.453125 45.40625 10.6875 
L 43.703125 1.8125 
Q 39.796875 0.203125 35.671875 -0.609375 
Q 31.546875 -1.421875 27.203125 -1.421875 
Q 16.3125 -1.421875 10.453125 4.015625 
Q 4.59375 9.46875 4.59375 19.578125 
Q 4.59375 28.078125 7.640625 35.234375 
Q 10.6875 42.390625 16.703125 48.09375 
Q 20.796875 52 26.3125 54 
Q 31.84375 56 38.375 56 
Q 42.1875 56 45.9375 55.140625 
Q 49.703125 54.296875 53.609375 52.59375 
z
" id="DejaVuSans-Oblique-99"/>
     </defs>
     <g transform="translate(55.084277 229.848784)scale(0.1625 -0.1625)">
      <use xlink:href="#DejaVuSans-Oblique-99"/>
      <use transform="translate(54.980469 -16.40625)scale(0.7)" xlink:href="#DejaVuSans-48"/>
     </g>
    </g>
   </g>
   <g id="text_6">
    <g clip-path="url(#p8d036a970a)">
     <!-- ${c}_{1}$ -->
     <g transform="translate(55.084277 275.299784)scale(0.1625 -0.1625)">
      <use xlink:href="#DejaVuSans-Oblique-99"/>
      <use transform="translate(54.980469 -16.40625)scale(0.7)" xlink:href="#DejaVuSans-49"/>
     </g>
    </g>
   </g>
   <g id="text_7">
    <g clip-path="url(#p8d036a970a)">
     <!-- ${c}_{2}$ -->
     <g transform="translate(55.084277 320.750784)scale(0.1625 -0.1625)">
      <use xlink:href="#DejaVuSans-Oblique-99"/>
      <use transform="translate(54.980469 -16.40625)scale(0.7)" xlink:href="#DejaVuSans-50"/>
     </g>
    </g>
   </g>
   <g id="text_8">
    <g clip-path="url(#p8d036a970a)">
     <!-- ${c}_{3}$ -->
     <g transform="translate(55.084277 366.201784)scale(0.1625 -0.1625)">
      <use xlink:href="#DejaVuSans-Oblique-99"/>
      <use transform="translate(54.980469 -16.40625)scale(0.7)" xlink:href="#DejaVuSans-51"/>
     </g>
    </g>
   </g>
   <g id="text_9">
    <g clip-path="url(#p8d036a970a)">
     <!-- ${out}_{0}$ -->
     <defs>
      <path d="M 25.390625 -1.421875 
Q 15.765625 -1.421875 10.171875 4.515625 
Q 4.59375 10.453125 4.59375 20.703125 
Q 4.59375 26.65625 6.515625 32.828125 
Q 8.453125 39.015625 11.53125 43.21875 
Q 16.359375 49.75 22.3125 52.875 
Q 28.265625 56 35.796875 56 
Q 45.125 56 50.859375 50.1875 
Q 56.59375 44.390625 56.59375 35.015625 
Q 56.59375 28.515625 54.6875 22.0625 
Q 52.78125 15.625 49.703125 11.375 
Q 44.921875 4.828125 38.96875 1.703125 
Q 33.015625 -1.421875 25.390625 -1.421875 
z
M 13.921875 21 
Q 13.921875 13.578125 17.015625 9.890625 
Q 20.125 6.203125 26.421875 6.203125 
Q 35.453125 6.203125 41.375 14.078125 
Q 47.3125 21.96875 47.3125 34.078125 
Q 47.3125 41.15625 44.140625 44.765625 
Q 40.96875 48.390625 34.8125 48.390625 
Q 29.734375 48.390625 25.78125 46.015625 
Q 21.828125 43.65625 18.703125 38.8125 
Q 16.40625 35.203125 15.15625 30.5625 
Q 13.921875 25.921875 13.921875 21 
z
" id="DejaVuSans-Oblique-111"/>
      <path d="M 6.6875 21.6875 
L 13.09375 54.6875 
L 22.125 54.6875 
L 15.71875 22.015625 
Q 15.234375 19.625 15.015625 17.921875 
Q 14.796875 16.21875 14.796875 15.09375 
Q 14.796875 10.9375 17.328125 8.65625 
Q 19.875 6.390625 24.515625 6.390625 
Q 31.734375 6.390625 37 11.265625 
Q 42.28125 16.15625 43.890625 24.421875 
L 49.90625 54.6875 
L 58.890625 54.6875 
L 48.296875 0 
L 39.3125 0 
L 41.109375 8.59375 
Q 37.3125 3.8125 32.0625 1.1875 
Q 26.8125 -1.421875 20.90625 -1.421875 
Q 13.71875 -1.421875 9.71875 2.515625 
Q 5.71875 6.453125 5.71875 13.484375 
Q 5.71875 14.9375 5.953125 17.140625 
Q 6.203125 19.34375 6.6875 21.6875 
z
" id="DejaVuSans-Oblique-117"/>
      <path d="M 42.28125 54.6875 
L 40.921875 47.703125 
L 23 47.703125 
L 17.1875 18.015625 
Q 16.890625 16.359375 16.75 15.234375 
Q 16.609375 14.109375 16.609375 13.484375 
Q 16.609375 10.359375 18.484375 8.9375 
Q 20.359375 7.515625 24.515625 7.515625 
L 33.59375 7.515625 
L 32.078125 0 
L 23.484375 0 
Q 15.484375 0 11.546875 3.125 
Q 7.625 6.25 7.625 12.59375 
Q 7.625 13.71875 7.765625 15.0625 
Q 7.90625 16.40625 8.203125 18.015625 
L 14.015625 47.703125 
L 6.390625 47.703125 
L 7.8125 54.6875 
L 15.28125 54.6875 
L 18.3125 70.21875 
L 27.296875 70.21875 
L 24.3125 54.6875 
z
" id="DejaVuSans-Oblique-116"/>
     </defs>
     <g transform="translate(37.371777 411.652784)scale(0.1625 -0.1625)">
      <use transform="translate(0 0.78125)" xlink:href="#DejaVuSans-Oblique-111"/>
      <use transform="translate(61.181641 0.78125)" xlink:href="#DejaVuSans-Oblique-117"/>
      <use transform="translate(124.560547 0.78125)" xlink:href="#DejaVuSans-Oblique-116"/>
      <use transform="translate(163.769531 -15.625)scale(0.7)" xlink:href="#DejaVuSans-48"/>
     </g>
    </g>
   </g>
   <g id="text_10">
    <g clip-path="url(#p8d036a970a)">
     <!-- 4 -->
     <defs>
      <path d="M 37.796875 64.3125 
L 12.890625 25.390625 
L 37.796875 25.390625 
z
M 35.203125 72.90625 
L 47.609375 72.90625 
L 47.609375 25.390625 
L 58.015625 25.390625 
L 58.015625 17.1875 
L 47.609375 17.1875 
L 47.609375 0 
L 37.796875 0 
L 37.796875 17.1875 
L 4.890625 17.1875 
L 4.890625 26.703125 
z
" id="DejaVuSans-52"/>
     </defs>
     <g transform="translate(85.457077 445.911825)scale(0.104 -0.104)">
      <use xlink:href="#DejaVuSans-52"/>
     </g>
    </g>
   </g>
   <g id="text_11">
    <g clip-path="url(#p8d036a970a)">
     <!-- cbits -->
     <defs>
      <path d="M 48.78125 52.59375 
L 48.78125 44.1875 
Q 44.96875 46.296875 41.140625 47.34375 
Q 37.3125 48.390625 33.40625 48.390625 
Q 24.65625 48.390625 19.8125 42.84375 
Q 14.984375 37.3125 14.984375 27.296875 
Q 14.984375 17.28125 19.8125 11.734375 
Q 24.65625 6.203125 33.40625 6.203125 
Q 37.3125 6.203125 41.140625 7.25 
Q 44.96875 8.296875 48.78125 10.40625 
L 48.78125 2.09375 
Q 45.015625 0.34375 40.984375 -0.53125 
Q 36.96875 -1.421875 32.421875 -1.421875 
Q 20.0625 -1.421875 12.78125 6.34375 
Q 5.515625 14.109375 5.515625 27.296875 
Q 5.515625 40.671875 12.859375 48.328125 
Q 20.21875 56 33.015625 56 
Q 37.15625 56 41.109375 55.140625 
Q 45.0625 54.296875 48.78125 52.59375 
z
" id="DejaVuSans-99"/>
      <path d="M 48.6875 27.296875 
Q 48.6875 37.203125 44.609375 42.84375 
Q 40.53125 48.484375 33.40625 48.484375 
Q 26.265625 48.484375 22.1875 42.84375 
Q 18.109375 37.203125 18.109375 27.296875 
Q 18.109375 17.390625 22.1875 11.75 
Q 26.265625 6.109375 33.40625 6.109375 
Q 40.53125 6.109375 44.609375 11.75 
Q 48.6875 17.390625 48.6875 27.296875 
z
M 18.109375 46.390625 
Q 20.953125 51.265625 25.265625 53.625 
Q 29.59375 56 35.59375 56 
Q 45.5625 56 51.78125 48.09375 
Q 58.015625 40.1875 58.015625 27.296875 
Q 58.015625 14.40625 51.78125 6.484375 
Q 45.5625 -1.421875 35.59375 -1.421875 
Q 29.59375 -1.421875 25.265625 0.953125 
Q 20.953125 3.328125 18.109375 8.203125 
L 18.109375 0 
L 9.078125 0 
L 9.078125 75.984375 
L 18.109375 75.984375 
z
" id="DejaVuSans-98"/>
      <path d="M 9.421875 54.6875 
L 18.40625 54.6875 
L 18.40625 0 
L 9.421875 0 
z
M 9.421875 75.984375 
L 18.40625 75.984375 
L 18.40625 64.59375 
L 9.421875 64.59375 
z
" id="DejaVuSans-105"/>
      <path d="M 18.3125 70.21875 
L 18.3125 54.6875 
L 36.8125 54.6875 
L 36.8125 47.703125 
L 18.3125 47.703125 
L 18.3125 18.015625 
Q 18.3125 11.328125 20.140625 9.421875 
Q 21.96875 7.515625 27.59375 7.515625 
L 36.8125 7.515625 
L 36.8125 0 
L 27.59375 0 
Q 17.1875 0 13.234375 3.875 
Q 9.28125 7.765625 9.28125 18.015625 
L 9.28125 47.703125 
L 2.6875 47.703125 
L 2.6875 54.6875 
L 9.28125 54.6875 
L 9.28125 70.21875 
z
" id="DejaVuSans-116"/>
      <path d="M 44.28125 53.078125 
L 44.28125 44.578125 
Q 40.484375 46.53125 36.375 47.5 
Q 32.28125 48.484375 27.875 48.484375 
Q 21.1875 48.484375 17.84375 46.4375 
Q 14.5 44.390625 14.5 40.28125 
Q 14.5 37.15625 16.890625 35.375 
Q 19.28125 33.59375 26.515625 31.984375 
L 29.59375 31.296875 
Q 39.15625 29.25 43.1875 25.515625 
Q 47.21875 21.78125 47.21875 15.09375 
Q 47.21875 7.46875 41.1875 3.015625 
Q 35.15625 -1.421875 24.609375 -1.421875 
Q 20.21875 -1.421875 15.453125 -0.5625 
Q 10.6875 0.296875 5.421875 2 
L 5.421875 11.28125 
Q 10.40625 8.6875 15.234375 7.390625 
Q 20.0625 6.109375 24.8125 6.109375 
Q 31.15625 6.109375 34.5625 8.28125 
Q 37.984375 10.453125 37.984375 14.40625 
Q 37.984375 18.0625 35.515625 20.015625 
Q 33.0625 21.96875 24.703125 23.78125 
L 21.578125 24.515625 
Q 13.234375 26.265625 9.515625 29.90625 
Q 5.8125 33.546875 5.8125 39.890625 
Q 5.8125 47.609375 11.28125 51.796875 
Q 16.75 56 26.8125 56 
Q 31.78125 56 36.171875 55.265625 
Q 40.578125 54.546875 44.28125 53.078125 
z
" id="DejaVuSans-115"/>
     </defs>
     <g transform="translate(33.22041 457.103784)scale(0.1625 -0.1625)">
      <use xlink:href="#DejaVuSans-99"/>
      <use x="54.980469" xlink:href="#DejaVuSans-98"/>
      <use x="118.457031" xlink:href="#DejaVuSans-105"/>
      <use x="146.240234" xlink:href="#DejaVuSans-116"/>
      <use x="185.449219" xlink:href="#DejaVuSans-115"/>
     </g>
    </g>
   </g>
  </g>
 </g>
 <defs>
  <clipPath id="p8d036a970a">
   <rect height="472.6904" width="855.469177" x="7.2" y="7.2"/>
  </clipPath>
 </defs>
</svg>
