<?xml version="1.0" encoding="utf-8" standalone="no"?>
<!DOCTYPE svg PUBLIC "-//W3C//DTD SVG 1.1//EN"
  "http://www.w3.org/Graphics/SVG/1.1/DTD/svg11.dtd">
<!-- Created with matplotlib (https://matplotlib.org/) -->
<svg height="441.6394pt" version="1.1" viewBox="0 0 504.301103 441.6394" width="504.301103pt" xmlns="http://www.w3.org/2000/svg" xmlns:xlink="http://www.w3.org/1999/xlink">
 <defs>
  <style type="text/css">
*{stroke-linecap:butt;stroke-linejoin:round;}
  </style>
 </defs>
 <g id="figure_1">
  <g id="patch_1">
   <path d="M 0 441.6394 
L 504.301103 441.6394 
L 504.301103 0 
L 0 0 
z
" style="fill:#ffffff;"/>
  </g>
  <g id="axes_1">
   <g id="line2d_1">
    <path clip-path="url(#p4148ac7a8f)" d="M 78.951903 43.5608 
L 492.556003 43.5608 
" style="fill:none;stroke:#000000;stroke-linecap:square;stroke-width:2;"/>
   </g>
   <g id="line2d_2">
    <path clip-path="url(#p4148ac7a8f)" d="M 78.951903 89.0118 
L 492.556003 89.0118 
" style="fill:none;stroke:#000000;stroke-linecap:square;stroke-width:2;"/>
   </g>
   <g id="line2d_3">
    <path clip-path="url(#p4148ac7a8f)" d="M 78.951903 134.4628 
L 492.556003 134.4628 
" style="fill:none;stroke:#000000;stroke-linecap:square;stroke-width:2;"/>
   </g>
   <g id="line2d_4">
    <path clip-path="url(#p4148ac7a8f)" d="M 78.951903 179.9138 
L 492.556003 179.9138 
" style="fill:none;stroke:#000000;stroke-linecap:square;stroke-width:2;"/>
   </g>
   <g id="line2d_5">
    <path clip-path="url(#p4148ac7a8f)" d="M 78.951903 225.3648 
L 492.556003 225.3648 
" style="fill:none;stroke:#000000;stroke-linecap:square;stroke-width:2;"/>
   </g>
   <g id="line2d_6">
    <path clip-path="url(#p4148ac7a8f)" d="M 78.951903 270.8158 
L 492.556003 270.8158 
" style="fill:none;stroke:#000000;stroke-linecap:square;stroke-width:2;"/>
   </g>
   <g id="line2d_7">
    <path clip-path="url(#p4148ac7a8f)" d="M 78.951903 316.2668 
L 492.556003 316.2668 
" style="fill:none;stroke:#000000;stroke-linecap:square;stroke-width:2;"/>
   </g>
   <g id="line2d_8">
    <path clip-path="url(#p4148ac7a8f)" d="M 78.951903 361.7178 
L 492.556003 361.7178 
" style="fill:none;stroke:#000000;stroke-linecap:square;stroke-width:2;"/>
   </g>
   <g id="line2d_9">
    <path clip-path="url(#p4148ac7a8f)" d="M 78.951903 407.1688 
L 492.556003 407.1688 
" style="fill:none;stroke:#000000;stroke-linecap:square;stroke-width:2;"/>
   </g>
   <g id="line2d_10">
    <path clip-path="url(#p4148ac7a8f)" d="M 103.495443 225.3648 
L 103.495443 43.5608 
" style="fill:none;stroke:#6fa4ff;stroke-linecap:square;stroke-width:2;"/>
   </g>
   <g id="line2d_11">
    <path clip-path="url(#p4148ac7a8f)" d="M 148.946443 225.3648 
L 148.946443 89.0118 
" style="fill:none;stroke:#6fa4ff;stroke-linecap:square;stroke-width:2;"/>
   </g>
   <g id="line2d_12">
    <path clip-path="url(#p4148ac7a8f)" d="M 194.397443 270.8158 
L 194.397443 43.5608 
" style="fill:none;stroke:#6fa4ff;stroke-linecap:square;stroke-width:2;"/>
   </g>
   <g id="line2d_13">
    <path clip-path="url(#p4148ac7a8f)" d="M 239.848443 270.8158 
L 239.848443 134.4628 
" style="fill:none;stroke:#6fa4ff;stroke-linecap:square;stroke-width:2;"/>
   </g>
   <g id="line2d_14">
    <path clip-path="url(#p4148ac7a8f)" d="M 285.299443 316.2668 
L 285.299443 89.0118 
" style="fill:none;stroke:#6fa4ff;stroke-linecap:square;stroke-width:2;"/>
   </g>
   <g id="line2d_15">
    <path clip-path="url(#p4148ac7a8f)" d="M 330.750443 316.2668 
L 330.750443 179.9138 
" style="fill:none;stroke:#6fa4ff;stroke-linecap:square;stroke-width:2;"/>
   </g>
   <g id="line2d_16">
    <path clip-path="url(#p4148ac7a8f)" d="M 376.201443 361.7178 
L 376.201443 134.4628 
" style="fill:none;stroke:#6fa4ff;stroke-linecap:square;stroke-width:2;"/>
   </g>
   <g id="line2d_17">
    <path clip-path="url(#p4148ac7a8f)" d="M 421.652443 361.7178 
L 421.652443 179.9138 
" style="fill:none;stroke:#6fa4ff;stroke-linecap:square;stroke-width:2;"/>
   </g>
   <g id="line2d_18">
    <path clip-path="url(#p4148ac7a8f)" d="M 467.103443 407.1688 
L 467.103443 225.3648 
" style="fill:none;stroke:#bb8bff;stroke-linecap:square;stroke-width:2;"/>
   </g>
   <g id="patch_2">
    <path clip-path="url(#p4148ac7a8f)" d="M 103.495443 47.992272 
C 104.670683 47.992272 105.797947 47.525345 106.628967 46.694324 
C 107.459988 45.863304 107.926915 44.73604 107.926915 43.5608 
C 107.926915 42.38556 107.459988 41.258296 106.628967 40.427276 
C 105.797947 39.596255 104.670683 39.129327 103.495443 39.129327 
C 102.320203 39.129327 101.192939 39.596255 100.361919 40.427276 
C 99.530898 41.258296 99.06397 42.38556 99.06397 43.5608 
C 99.06397 44.73604 99.530898 45.863304 100.361919 46.694324 
C 101.192939 47.525345 102.320203 47.992272 103.495443 47.992272 
z
" style="fill:#6fa4ff;stroke:#6fa4ff;stroke-linejoin:miter;stroke-width:1.5;"/>
   </g>
   <g id="patch_3">
    <path clip-path="url(#p4148ac7a8f)" d="M 103.495443 235.704902 
C 106.23767 235.704902 108.867952 234.615404 110.807 232.676357 
C 112.746047 230.737309 113.835545 228.107027 113.835545 225.3648 
C 113.835545 222.622573 112.746047 219.992291 110.807 218.053243 
C 108.867952 216.114196 106.23767 215.024697 103.495443 215.024697 
C 100.753216 215.024697 98.122934 216.114196 96.183886 218.053243 
C 94.244839 219.992291 93.15534 222.622573 93.15534 225.3648 
C 93.15534 228.107027 94.244839 230.737309 96.183886 232.676357 
C 98.122934 234.615404 100.753216 235.704902 103.495443 235.704902 
z
" style="fill:#6fa4ff;stroke:#6fa4ff;stroke-linejoin:miter;stroke-width:2;"/>
   </g>
   <g id="patch_4">
    <path clip-path="url(#p4148ac7a8f)" d="M 148.946443 93.443272 
C 150.121683 93.443272 151.248947 92.976345 152.079967 92.145324 
C 152.910988 91.314304 153.377915 90.18704 153.377915 89.0118 
C 153.377915 87.83656 152.910988 86.709296 152.079967 85.878276 
C 151.248947 85.047255 150.121683 84.580327 148.946443 84.580327 
C 147.771203 84.580327 146.643939 85.047255 145.812919 85.878276 
C 144.981898 86.709296 144.51497 87.83656 144.51497 89.0118 
C 144.51497 90.18704 144.981898 91.314304 145.812919 92.145324 
C 146.643939 92.976345 147.771203 93.443272 148.946443 93.443272 
z
" style="fill:#6fa4ff;stroke:#6fa4ff;stroke-linejoin:miter;stroke-width:1.5;"/>
   </g>
   <g id="patch_5">
    <path clip-path="url(#p4148ac7a8f)" d="M 148.946443 235.704902 
C 151.68867 235.704902 154.318952 234.615404 156.258 232.676357 
C 158.197047 230.737309 159.286545 228.107027 159.286545 225.3648 
C 159.286545 222.622573 158.197047 219.992291 156.258 218.053243 
C 154.318952 216.114196 151.68867 215.024697 148.946443 215.024697 
C 146.204216 215.024697 143.573934 216.114196 141.634886 218.053243 
C 139.695839 219.992291 138.60634 222.622573 138.60634 225.3648 
C 138.60634 228.107027 139.695839 230.737309 141.634886 232.676357 
C 143.573934 234.615404 146.204216 235.704902 148.946443 235.704902 
z
" style="fill:#6fa4ff;stroke:#6fa4ff;stroke-linejoin:miter;stroke-width:2;"/>
   </g>
   <g id="patch_6">
    <path clip-path="url(#p4148ac7a8f)" d="M 194.397443 47.992272 
C 195.572683 47.992272 196.699947 47.525345 197.530967 46.694324 
C 198.361988 45.863304 198.828915 44.73604 198.828915 43.5608 
C 198.828915 42.38556 198.361988 41.258296 197.530967 40.427276 
C 196.699947 39.596255 195.572683 39.129327 194.397443 39.129327 
C 193.222203 39.129327 192.094939 39.596255 191.263919 40.427276 
C 190.432898 41.258296 189.96597 42.38556 189.96597 43.5608 
C 189.96597 44.73604 190.432898 45.863304 191.263919 46.694324 
C 192.094939 47.525345 193.222203 47.992272 194.397443 47.992272 
z
" style="fill:#6fa4ff;stroke:#6fa4ff;stroke-linejoin:miter;stroke-width:1.5;"/>
   </g>
   <g id="patch_7">
    <path clip-path="url(#p4148ac7a8f)" d="M 194.397443 281.155902 
C 197.13967 281.155902 199.769952 280.066404 201.709 278.127357 
C 203.648047 276.188309 204.737545 273.558027 204.737545 270.8158 
C 204.737545 268.073573 203.648047 265.443291 201.709 263.504243 
C 199.769952 261.565196 197.13967 260.475697 194.397443 260.475697 
C 191.655216 260.475697 189.024934 261.565196 187.085886 263.504243 
C 185.146839 265.443291 184.05734 268.073573 184.05734 270.8158 
C 184.05734 273.558027 185.146839 276.188309 187.085886 278.127357 
C 189.024934 280.066404 191.655216 281.155902 194.397443 281.155902 
z
" style="fill:#6fa4ff;stroke:#6fa4ff;stroke-linejoin:miter;stroke-width:2;"/>
   </g>
   <g id="patch_8">
    <path clip-path="url(#p4148ac7a8f)" d="M 239.848443 138.894272 
C 241.023683 138.894272 242.150947 138.427345 242.981967 137.596324 
C 243.812988 136.765304 244.279915 135.63804 244.279915 134.4628 
C 244.279915 133.28756 243.812988 132.160296 242.981967 131.329276 
C 242.150947 130.498255 241.023683 130.031327 239.848443 130.031327 
C 238.673203 130.031327 237.545939 130.498255 236.714919 131.329276 
C 235.883898 132.160296 235.41697 133.28756 235.41697 134.4628 
C 235.41697 135.63804 235.883898 136.765304 236.714919 137.596324 
C 237.545939 138.427345 238.673203 138.894272 239.848443 138.894272 
z
" style="fill:#6fa4ff;stroke:#6fa4ff;stroke-linejoin:miter;stroke-width:1.5;"/>
   </g>
   <g id="patch_9">
    <path clip-path="url(#p4148ac7a8f)" d="M 239.848443 281.155902 
C 242.59067 281.155902 245.220952 280.066404 247.16 278.127357 
C 249.099047 276.188309 250.188545 273.558027 250.188545 270.8158 
C 250.188545 268.073573 249.099047 265.443291 247.16 263.504243 
C 245.220952 261.565196 242.59067 260.475697 239.848443 260.475697 
C 237.106216 260.475697 234.475934 261.565196 232.536886 263.504243 
C 230.597839 265.443291 229.50834 268.073573 229.50834 270.8158 
C 229.50834 273.558027 230.597839 276.188309 232.536886 278.127357 
C 234.475934 280.066404 237.106216 281.155902 239.848443 281.155902 
z
" style="fill:#6fa4ff;stroke:#6fa4ff;stroke-linejoin:miter;stroke-width:2;"/>
   </g>
   <g id="patch_10">
    <path clip-path="url(#p4148ac7a8f)" d="M 285.299443 93.443272 
C 286.474683 93.443272 287.601947 92.976345 288.432967 92.145324 
C 289.263988 91.314304 289.730915 90.18704 289.730915 89.0118 
C 289.730915 87.83656 289.263988 86.709296 288.432967 85.878276 
C 287.601947 85.047255 286.474683 84.580327 285.299443 84.580327 
C 284.124203 84.580327 282.996939 85.047255 282.165919 85.878276 
C 281.334898 86.709296 280.86797 87.83656 280.86797 89.0118 
C 280.86797 90.18704 281.334898 91.314304 282.165919 92.145324 
C 282.996939 92.976345 284.124203 93.443272 285.299443 93.443272 
z
" style="fill:#6fa4ff;stroke:#6fa4ff;stroke-linejoin:miter;stroke-width:1.5;"/>
   </g>
   <g id="patch_11">
    <path clip-path="url(#p4148ac7a8f)" d="M 285.299443 326.606902 
C 288.04167 326.606902 290.671952 325.517404 292.611 323.578357 
C 294.550047 321.639309 295.639545 319.009027 295.639545 316.2668 
C 295.639545 313.524573 294.550047 310.894291 292.611 308.955243 
C 290.671952 307.016196 288.04167 305.926697 285.299443 305.926697 
C 282.557216 305.926697 279.926934 307.016196 277.987886 308.955243 
C 276.048839 310.894291 274.95934 313.524573 274.95934 316.2668 
C 274.95934 319.009027 276.048839 321.639309 277.987886 323.578357 
C 279.926934 325.517404 282.557216 326.606902 285.299443 326.606902 
z
" style="fill:#6fa4ff;stroke:#6fa4ff;stroke-linejoin:miter;stroke-width:2;"/>
   </g>
   <g id="patch_12">
    <path clip-path="url(#p4148ac7a8f)" d="M 330.750443 184.345272 
C 331.925683 184.345272 333.052947 183.878345 333.883967 183.047324 
C 334.714988 182.216304 335.181915 181.08904 335.181915 179.9138 
C 335.181915 178.73856 334.714988 177.611296 333.883967 176.780276 
C 333.052947 175.949255 331.925683 175.482327 330.750443 175.482327 
C 329.575203 175.482327 328.447939 175.949255 327.616919 176.780276 
C 326.785898 177.611296 326.31897 178.73856 326.31897 179.9138 
C 326.31897 181.08904 326.785898 182.216304 327.616919 183.047324 
C 328.447939 183.878345 329.575203 184.345272 330.750443 184.345272 
z
" style="fill:#6fa4ff;stroke:#6fa4ff;stroke-linejoin:miter;stroke-width:1.5;"/>
   </g>
   <g id="patch_13">
    <path clip-path="url(#p4148ac7a8f)" d="M 330.750443 326.606902 
C 333.49267 326.606902 336.122952 325.517404 338.062 323.578357 
C 340.001047 321.639309 341.090545 319.009027 341.090545 316.2668 
C 341.090545 313.524573 340.001047 310.894291 338.062 308.955243 
C 336.122952 307.016196 333.49267 305.926697 330.750443 305.926697 
C 328.008216 305.926697 325.377934 307.016196 323.438886 308.955243 
C 321.499839 310.894291 320.41034 313.524573 320.41034 316.2668 
C 320.41034 319.009027 321.499839 321.639309 323.438886 323.578357 
C 325.377934 325.517404 328.008216 326.606902 330.750443 326.606902 
z
" style="fill:#6fa4ff;stroke:#6fa4ff;stroke-linejoin:miter;stroke-width:2;"/>
   </g>
   <g id="patch_14">
    <path clip-path="url(#p4148ac7a8f)" d="M 376.201443 138.894272 
C 377.376683 138.894272 378.503947 138.427345 379.334967 137.596324 
C 380.165988 136.765304 380.632915 135.63804 380.632915 134.4628 
C 380.632915 133.28756 380.165988 132.160296 379.334967 131.329276 
C 378.503947 130.498255 377.376683 130.031327 376.201443 130.031327 
C 375.026203 130.031327 373.898939 130.498255 373.067919 131.329276 
C 372.236898 132.160296 371.76997 133.28756 371.76997 134.4628 
C 371.76997 135.63804 372.236898 136.765304 373.067919 137.596324 
C 373.898939 138.427345 375.026203 138.894272 376.201443 138.894272 
z
" style="fill:#6fa4ff;stroke:#6fa4ff;stroke-linejoin:miter;stroke-width:1.5;"/>
   </g>
   <g id="patch_15">
    <path clip-path="url(#p4148ac7a8f)" d="M 376.201443 372.057902 
C 378.94367 372.057902 381.573952 370.968404 383.513 369.029357 
C 385.452047 367.090309 386.541545 364.460027 386.541545 361.7178 
C 386.541545 358.975573 385.452047 356.345291 383.513 354.406243 
C 381.573952 352.467196 378.94367 351.377697 376.201443 351.377697 
C 373.459216 351.377697 370.828934 352.467196 368.889886 354.406243 
C 366.950839 356.345291 365.86134 358.975573 365.86134 361.7178 
C 365.86134 364.460027 366.950839 367.090309 368.889886 369.029357 
C 370.828934 370.968404 373.459216 372.057902 376.201443 372.057902 
z
" style="fill:#6fa4ff;stroke:#6fa4ff;stroke-linejoin:miter;stroke-width:2;"/>
   </g>
   <g id="patch_16">
    <path clip-path="url(#p4148ac7a8f)" d="M 421.652443 184.345272 
C 422.827683 184.345272 423.954947 183.878345 424.785967 183.047324 
C 425.616988 182.216304 426.083915 181.08904 426.083915 179.9138 
C 426.083915 178.73856 425.616988 177.611296 424.785967 176.780276 
C 423.954947 175.949255 422.827683 175.482327 421.652443 175.482327 
C 420.477203 175.482327 419.349939 175.949255 418.518919 176.780276 
C 417.687898 177.611296 417.22097 178.73856 417.22097 179.9138 
C 417.22097 181.08904 417.687898 182.216304 418.518919 183.047324 
C 419.349939 183.878345 420.477203 184.345272 421.652443 184.345272 
z
" style="fill:#6fa4ff;stroke:#6fa4ff;stroke-linejoin:miter;stroke-width:1.5;"/>
   </g>
   <g id="patch_17">
    <path clip-path="url(#p4148ac7a8f)" d="M 421.652443 372.057902 
C 424.39467 372.057902 427.024952 370.968404 428.964 369.029357 
C 430.903047 367.090309 431.992545 364.460027 431.992545 361.7178 
C 431.992545 358.975573 430.903047 356.345291 428.964 354.406243 
C 427.024952 352.467196 424.39467 351.377697 421.652443 351.377697 
C 418.910216 351.377697 416.279934 352.467196 414.340886 354.406243 
C 412.401839 356.345291 411.31234 358.975573 411.31234 361.7178 
C 411.31234 364.460027 412.401839 367.090309 414.340886 369.029357 
C 416.279934 370.968404 418.910216 372.057902 421.652443 372.057902 
z
" style="fill:#6fa4ff;stroke:#6fa4ff;stroke-linejoin:miter;stroke-width:2;"/>
   </g>
   <g id="patch_18">
    <path clip-path="url(#p4148ac7a8f)" d="M 467.103443 229.796272 
C 468.278683 229.796272 469.405947 229.329345 470.236967 228.498324 
C 471.067988 227.667304 471.534915 226.54004 471.534915 225.3648 
C 471.534915 224.18956 471.067988 223.062296 470.236967 222.231276 
C 469.405947 221.400255 468.278683 220.933327 467.103443 220.933327 
C 465.928203 220.933327 464.800939 221.400255 463.969919 222.231276 
C 463.138898 223.062296 462.67197 224.18956 462.67197 225.3648 
C 462.67197 226.54004 463.138898 227.667304 463.969919 228.498324 
C 464.800939 229.329345 465.928203 229.796272 467.103443 229.796272 
z
" style="fill:#bb8bff;stroke:#bb8bff;stroke-linejoin:miter;stroke-width:1.5;"/>
   </g>
   <g id="patch_19">
    <path clip-path="url(#p4148ac7a8f)" d="M 467.103443 275.247272 
C 468.278683 275.247272 469.405947 274.780345 470.236967 273.949324 
C 471.067988 273.118304 471.534915 271.99104 471.534915 270.8158 
C 471.534915 269.64056 471.067988 268.513296 470.236967 267.682276 
C 469.405947 266.851255 468.278683 266.384327 467.103443 266.384327 
C 465.928203 266.384327 464.800939 266.851255 463.969919 267.682276 
C 463.138898 268.513296 462.67197 269.64056 462.67197 270.8158 
C 462.67197 271.99104 463.138898 273.118304 463.969919 273.949324 
C 464.800939 274.780345 465.928203 275.247272 467.103443 275.247272 
z
" style="fill:#bb8bff;stroke:#bb8bff;stroke-linejoin:miter;stroke-width:1.5;"/>
   </g>
   <g id="patch_20">
    <path clip-path="url(#p4148ac7a8f)" d="M 467.103443 320.698272 
C 468.278683 320.698272 469.405947 320.231345 470.236967 319.400324 
C 471.067988 318.569304 471.534915 317.44204 471.534915 316.2668 
C 471.534915 315.09156 471.067988 313.964296 470.236967 313.133276 
C 469.405947 312.302255 468.278683 311.835328 467.103443 311.835328 
C 465.928203 311.835328 464.800939 312.302255 463.969919 313.133276 
C 463.138898 313.964296 462.67197 315.09156 462.67197 316.2668 
C 462.67197 317.44204 463.138898 318.569304 463.969919 319.400324 
C 464.800939 320.231345 465.928203 320.698272 467.103443 320.698272 
z
" style="fill:#bb8bff;stroke:#bb8bff;stroke-linejoin:miter;stroke-width:1.5;"/>
   </g>
   <g id="patch_21">
    <path clip-path="url(#p4148ac7a8f)" d="M 467.103443 366.149272 
C 468.278683 366.149272 469.405947 365.682345 470.236967 364.851324 
C 471.067988 364.020304 471.534915 362.89304 471.534915 361.7178 
C 471.534915 360.54256 471.067988 359.415296 470.236967 358.584276 
C 469.405947 357.753255 468.278683 357.286327 467.103443 357.286327 
C 465.928203 357.286327 464.800939 357.753255 463.969919 358.584276 
C 463.138898 359.415296 462.67197 360.54256 462.67197 361.7178 
C 462.67197 362.89304 463.138898 364.020304 463.969919 364.851324 
C 464.800939 365.682345 465.928203 366.149272 467.103443 366.149272 
z
" style="fill:#bb8bff;stroke:#bb8bff;stroke-linejoin:miter;stroke-width:1.5;"/>
   </g>
   <g id="patch_22">
    <path clip-path="url(#p4148ac7a8f)" d="M 467.103443 417.508902 
C 469.84567 417.508902 472.475952 416.419404 474.415 414.480357 
C 476.354047 412.541309 477.443545 409.911027 477.443545 407.1688 
C 477.443545 404.426573 476.354047 401.796291 474.415 399.857243 
C 472.475952 397.918196 469.84567 396.828697 467.103443 396.828697 
C 464.361216 396.828697 461.730934 397.918196 459.791886 399.857243 
C 457.852839 401.796291 456.76334 404.426573 456.76334 407.1688 
C 456.76334 409.911027 457.852839 412.541309 459.791886 414.480357 
C 461.730934 416.419404 464.361216 417.508902 467.103443 417.508902 
z
" style="fill:#bb8bff;stroke:#bb8bff;stroke-linejoin:miter;stroke-width:2;"/>
   </g>
   <g id="line2d_19">
    <path clip-path="url(#p4148ac7a8f)" d="M 103.495443 231.27343 
L 103.495443 219.45617 
" style="fill:none;stroke:#ffffff;stroke-linecap:square;stroke-width:2;"/>
   </g>
   <g id="line2d_20">
    <path clip-path="url(#p4148ac7a8f)" d="M 97.586813 225.3648 
L 109.404073 225.3648 
" style="fill:none;stroke:#ffffff;stroke-linecap:square;stroke-width:2;"/>
   </g>
   <g id="line2d_21">
    <path clip-path="url(#p4148ac7a8f)" d="M 148.946443 231.27343 
L 148.946443 219.45617 
" style="fill:none;stroke:#ffffff;stroke-linecap:square;stroke-width:2;"/>
   </g>
   <g id="line2d_22">
    <path clip-path="url(#p4148ac7a8f)" d="M 143.037813 225.3648 
L 154.855073 225.3648 
" style="fill:none;stroke:#ffffff;stroke-linecap:square;stroke-width:2;"/>
   </g>
   <g id="line2d_23">
    <path clip-path="url(#p4148ac7a8f)" d="M 194.397443 276.72443 
L 194.397443 264.90717 
" style="fill:none;stroke:#ffffff;stroke-linecap:square;stroke-width:2;"/>
   </g>
   <g id="line2d_24">
    <path clip-path="url(#p4148ac7a8f)" d="M 188.488813 270.8158 
L 200.306073 270.8158 
" style="fill:none;stroke:#ffffff;stroke-linecap:square;stroke-width:2;"/>
   </g>
   <g id="line2d_25">
    <path clip-path="url(#p4148ac7a8f)" d="M 239.848443 276.72443 
L 239.848443 264.90717 
" style="fill:none;stroke:#ffffff;stroke-linecap:square;stroke-width:2;"/>
   </g>
   <g id="line2d_26">
    <path clip-path="url(#p4148ac7a8f)" d="M 233.939813 270.8158 
L 245.757073 270.8158 
" style="fill:none;stroke:#ffffff;stroke-linecap:square;stroke-width:2;"/>
   </g>
   <g id="line2d_27">
    <path clip-path="url(#p4148ac7a8f)" d="M 285.299443 322.17543 
L 285.299443 310.35817 
" style="fill:none;stroke:#ffffff;stroke-linecap:square;stroke-width:2;"/>
   </g>
   <g id="line2d_28">
    <path clip-path="url(#p4148ac7a8f)" d="M 279.390813 316.2668 
L 291.208073 316.2668 
" style="fill:none;stroke:#ffffff;stroke-linecap:square;stroke-width:2;"/>
   </g>
   <g id="line2d_29">
    <path clip-path="url(#p4148ac7a8f)" d="M 330.750443 322.17543 
L 330.750443 310.35817 
" style="fill:none;stroke:#ffffff;stroke-linecap:square;stroke-width:2;"/>
   </g>
   <g id="line2d_30">
    <path clip-path="url(#p4148ac7a8f)" d="M 324.841813 316.2668 
L 336.659073 316.2668 
" style="fill:none;stroke:#ffffff;stroke-linecap:square;stroke-width:2;"/>
   </g>
   <g id="line2d_31">
    <path clip-path="url(#p4148ac7a8f)" d="M 376.201443 367.62643 
L 376.201443 355.80917 
" style="fill:none;stroke:#ffffff;stroke-linecap:square;stroke-width:2;"/>
   </g>
   <g id="line2d_32">
    <path clip-path="url(#p4148ac7a8f)" d="M 370.292813 361.7178 
L 382.110073 361.7178 
" style="fill:none;stroke:#ffffff;stroke-linecap:square;stroke-width:2;"/>
   </g>
   <g id="line2d_33">
    <path clip-path="url(#p4148ac7a8f)" d="M 421.652443 367.62643 
L 421.652443 355.80917 
" style="fill:none;stroke:#ffffff;stroke-linecap:square;stroke-width:2;"/>
   </g>
   <g id="line2d_34">
    <path clip-path="url(#p4148ac7a8f)" d="M 415.743813 361.7178 
L 427.561073 361.7178 
" style="fill:none;stroke:#ffffff;stroke-linecap:square;stroke-width:2;"/>
   </g>
   <g id="line2d_35">
    <path clip-path="url(#p4148ac7a8f)" d="M 467.103443 413.07743 
L 467.103443 401.26017 
" style="fill:none;stroke:#ffffff;stroke-linecap:square;stroke-width:2;"/>
   </g>
   <g id="line2d_36">
    <path clip-path="url(#p4148ac7a8f)" d="M 461.194813 407.1688 
L 473.012073 407.1688 
" style="fill:none;stroke:#ffffff;stroke-linecap:square;stroke-width:2;"/>
   </g>
   <g id="text_1">
    <g clip-path="url(#p4148ac7a8f)">
     <!-- ${v}_{0}$ -->
     <defs>
      <path d="M 7.171875 54.6875 
L 16.703125 54.6875 
L 24.703125 8.203125 
L 50.875 54.6875 
L 60.40625 54.6875 
L 29.296875 0 
L 17.1875 0 
z
" id="DejaVuSans-Oblique-118"/>
      <path d="M 31.78125 66.40625 
Q 24.171875 66.40625 20.328125 58.90625 
Q 16.5 51.421875 16.5 36.375 
Q 16.5 21.390625 20.328125 13.890625 
Q 24.171875 6.390625 31.78125 6.390625 
Q 39.453125 6.390625 43.28125 13.890625 
Q 47.125 21.390625 47.125 36.375 
Q 47.125 51.421875 43.28125 58.90625 
Q 39.453125 66.40625 31.78125 66.40625 
z
M 31.78125 74.21875 
Q 44.046875 74.21875 50.515625 64.515625 
Q 56.984375 54.828125 56.984375 36.375 
Q 56.984375 17.96875 50.515625 8.265625 
Q 44.046875 -1.421875 31.78125 -1.421875 
Q 19.53125 -1.421875 13.0625 8.265625 
Q 6.59375 17.96875 6.59375 36.375 
Q 6.59375 54.828125 13.0625 64.515625 
Q 19.53125 74.21875 31.78125 74.21875 
z
" id="DejaVuSans-48"/>
     </defs>
     <g transform="translate(52.474203 48.044784)scale(0.1625 -0.1625)">
      <use transform="translate(0 0.3125)" xlink:href="#DejaVuSans-Oblique-118"/>
      <use transform="translate(59.179688 -16.09375)scale(0.7)" xlink:href="#DejaVuSans-48"/>
     </g>
    </g>
   </g>
   <g id="text_2">
    <g clip-path="url(#p4148ac7a8f)">
     <!-- ${v}_{1}$ -->
     <defs>
      <path d="M 12.40625 8.296875 
L 28.515625 8.296875 
L 28.515625 63.921875 
L 10.984375 60.40625 
L 10.984375 69.390625 
L 28.421875 72.90625 
L 38.28125 72.90625 
L 38.28125 8.296875 
L 54.390625 8.296875 
L 54.390625 0 
L 12.40625 0 
z
" id="DejaVuSans-49"/>
     </defs>
     <g transform="translate(52.474203 93.495784)scale(0.1625 -0.1625)">
      <use transform="translate(0 0.3125)" xlink:href="#DejaVuSans-Oblique-118"/>
      <use transform="translate(59.179688 -16.09375)scale(0.7)" xlink:href="#DejaVuSans-49"/>
     </g>
    </g>
   </g>
   <g id="text_3">
    <g clip-path="url(#p4148ac7a8f)">
     <!-- ${v}_{2}$ -->
     <defs>
      <path d="M 19.1875 8.296875 
L 53.609375 8.296875 
L 53.609375 0 
L 7.328125 0 
L 7.328125 8.296875 
Q 12.9375 14.109375 22.625 23.890625 
Q 32.328125 33.6875 34.8125 36.53125 
Q 39.546875 41.84375 41.421875 45.53125 
Q 43.3125 49.21875 43.3125 52.78125 
Q 43.3125 58.59375 39.234375 62.25 
Q 35.15625 65.921875 28.609375 65.921875 
Q 23.96875 65.921875 18.8125 64.3125 
Q 13.671875 62.703125 7.8125 59.421875 
L 7.8125 69.390625 
Q 13.765625 71.78125 18.9375 73 
Q 24.125 74.21875 28.421875 74.21875 
Q 39.75 74.21875 46.484375 68.546875 
Q 53.21875 62.890625 53.21875 53.421875 
Q 53.21875 48.921875 51.53125 44.890625 
Q 49.859375 40.875 45.40625 35.40625 
Q 44.1875 33.984375 37.640625 27.21875 
Q 31.109375 20.453125 19.1875 8.296875 
z
" id="DejaVuSans-50"/>
     </defs>
     <g transform="translate(52.474203 138.946784)scale(0.1625 -0.1625)">
      <use transform="translate(0 0.3125)" xlink:href="#DejaVuSans-Oblique-118"/>
      <use transform="translate(59.179688 -16.09375)scale(0.7)" xlink:href="#DejaVuSans-50"/>
     </g>
    </g>
   </g>
   <g id="text_4">
    <g clip-path="url(#p4148ac7a8f)">
     <!-- ${v}_{3}$ -->
     <defs>
      <path d="M 40.578125 39.3125 
Q 47.65625 37.796875 51.625 33 
Q 55.609375 28.21875 55.609375 21.1875 
Q 55.609375 10.40625 48.1875 4.484375 
Q 40.765625 -1.421875 27.09375 -1.421875 
Q 22.515625 -1.421875 17.65625 -0.515625 
Q 12.796875 0.390625 7.625 2.203125 
L 7.625 11.71875 
Q 11.71875 9.328125 16.59375 8.109375 
Q 21.484375 6.890625 26.8125 6.890625 
Q 36.078125 6.890625 40.9375 10.546875 
Q 45.796875 14.203125 45.796875 21.1875 
Q 45.796875 27.640625 41.28125 31.265625 
Q 36.765625 34.90625 28.71875 34.90625 
L 20.21875 34.90625 
L 20.21875 43.015625 
L 29.109375 43.015625 
Q 36.375 43.015625 40.234375 45.921875 
Q 44.09375 48.828125 44.09375 54.296875 
Q 44.09375 59.90625 40.109375 62.90625 
Q 36.140625 65.921875 28.71875 65.921875 
Q 24.65625 65.921875 20.015625 65.03125 
Q 15.375 64.15625 9.8125 62.3125 
L 9.8125 71.09375 
Q 15.4375 72.65625 20.34375 73.4375 
Q 25.25 74.21875 29.59375 74.21875 
Q 40.828125 74.21875 47.359375 69.109375 
Q 53.90625 64.015625 53.90625 55.328125 
Q 53.90625 49.265625 50.4375 45.09375 
Q 46.96875 40.921875 40.578125 39.3125 
z
" id="DejaVuSans-51"/>
     </defs>
     <g transform="translate(52.474203 184.397784)scale(0.1625 -0.1625)">
      <use transform="translate(0 0.3125)" xlink:href="#DejaVuSans-Oblique-118"/>
      <use transform="translate(59.179688 -16.09375)scale(0.7)" xlink:href="#DejaVuSans-51"/>
     </g>
    </g>
   </g>
   <g id="text_5">
    <g clip-path="url(#p4148ac7a8f)">
     <!-- ${c}_{0}$ -->
     <defs>
      <path d="M 53.609375 52.59375 
L 51.8125 43.703125 
Q 48.578125 46.046875 44.9375 47.21875 
Q 41.3125 48.390625 37.40625 48.390625 
Q 33.109375 48.390625 29.21875 46.875 
Q 25.34375 45.359375 22.703125 42.578125 
Q 18.5 38.328125 16.203125 32.609375 
Q 13.921875 26.90625 13.921875 20.796875 
Q 13.921875 13.421875 17.609375 9.8125 
Q 21.296875 6.203125 28.8125 6.203125 
Q 32.515625 6.203125 36.6875 7.328125 
Q 40.875 8.453125 45.40625 10.6875 
L 43.703125 1.8125 
Q 39.796875 0.203125 35.671875 -0.609375 
Q 31.546875 -1.421875 27.203125 -1.421875 
Q 16.3125 -1.421875 10.453125 4.015625 
Q 4.59375 9.46875 4.59375 19.578125 
Q 4.59375 28.078125 7.640625 35.234375 
Q 10.6875 42.390625 16.703125 48.09375 
Q 20.796875 52 26.3125 54 
Q 31.84375 56 38.375 56 
Q 42.1875 56 45.9375 55.140625 
Q 49.703125 54.296875 53.609375 52.59375 
z
" id="DejaVuSans-Oblique-99"/>
     </defs>
     <g transform="translate(53.124203 229.848784)scale(0.1625 -0.1625)">
      <use xlink:href="#DejaVuSans-Oblique-99"/>
      <use transform="translate(54.980469 -16.40625)scale(0.7)" xlink:href="#DejaVuSans-48"/>
     </g>
    </g>
   </g>
   <g id="text_6">
    <g clip-path="url(#p4148ac7a8f)">
     <!-- ${c}_{1}$ -->
     <g transform="translate(53.124203 275.299784)scale(0.1625 -0.1625)">
      <use xlink:href="#DejaVuSans-Oblique-99"/>
      <use transform="translate(54.980469 -16.40625)scale(0.7)" xlink:href="#DejaVuSans-49"/>
     </g>
    </g>
   </g>
   <g id="text_7">
    <g clip-path="url(#p4148ac7a8f)">
     <!-- ${c}_{2}$ -->
     <g transform="translate(53.124203 320.750784)scale(0.1625 -0.1625)">
      <use xlink:href="#DejaVuSans-Oblique-99"/>
      <use transform="translate(54.980469 -16.40625)scale(0.7)" xlink:href="#DejaVuSans-50"/>
     </g>
    </g>
   </g>
   <g id="text_8">
    <g clip-path="url(#p4148ac7a8f)">
     <!-- ${c}_{3}$ -->
     <g transform="translate(53.124203 366.201784)scale(0.1625 -0.1625)">
      <use xlink:href="#DejaVuSans-Oblique-99"/>
      <use transform="translate(54.980469 -16.40625)scale(0.7)" xlink:href="#DejaVuSans-51"/>
     </g>
    </g>
   </g>
   <g id="text_9">
    <g clip-path="url(#p4148ac7a8f)">
     <!-- ${out}_{0}$ -->
     <defs>
      <path d="M 25.390625 -1.421875 
Q 15.765625 -1.421875 10.171875 4.515625 
Q 4.59375 10.453125 4.59375 20.703125 
Q 4.59375 26.65625 6.515625 32.828125 
Q 8.453125 39.015625 11.53125 43.21875 
Q 16.359375 49.75 22.3125 52.875 
Q 28.265625 56 35.796875 56 
Q 45.125 56 50.859375 50.1875 
Q 56.59375 44.390625 56.59375 35.015625 
Q 56.59375 28.515625 54.6875 22.0625 
Q 52.78125 15.625 49.703125 11.375 
Q 44.921875 4.828125 38.96875 1.703125 
Q 33.015625 -1.421875 25.390625 -1.421875 
z
M 13.921875 21 
Q 13.921875 13.578125 17.015625 9.890625 
Q 20.125 6.203125 26.421875 6.203125 
Q 35.453125 6.203125 41.375 14.078125 
Q 47.3125 21.96875 47.3125 34.078125 
Q 47.3125 41.15625 44.140625 44.765625 
Q 40.96875 48.390625 34.8125 48.390625 
Q 29.734375 48.390625 25.78125 46.015625 
Q 21.828125 43.65625 18.703125 38.8125 
Q 16.40625 35.203125 15.15625 30.5625 
Q 13.921875 25.921875 13.921875 21 
z
" id="DejaVuSans-Oblique-111"/>
      <path d="M 6.6875 21.6875 
L 13.09375 54.6875 
L 22.125 54.6875 
L 15.71875 22.015625 
Q 15.234375 19.625 15.015625 17.921875 
Q 14.796875 16.21875 14.796875 15.09375 
Q 14.796875 10.9375 17.328125 8.65625 
Q 19.875 6.390625 24.515625 6.390625 
Q 31.734375 6.390625 37 11.265625 
Q 42.28125 16.15625 43.890625 24.421875 
L 49.90625 54.6875 
L 58.890625 54.6875 
L 48.296875 0 
L 39.3125 0 
L 41.109375 8.59375 
Q 37.3125 3.8125 32.0625 1.1875 
Q 26.8125 -1.421875 20.90625 -1.421875 
Q 13.71875 -1.421875 9.71875 2.515625 
Q 5.71875 6.453125 5.71875 13.484375 
Q 5.71875 14.9375 5.953125 17.140625 
Q 6.203125 19.34375 6.6875 21.6875 
z
" id="DejaVuSans-Oblique-117"/>
      <path d="M 42.28125 54.6875 
L 40.921875 47.703125 
L 23 47.703125 
L 17.1875 18.015625 
Q 16.890625 16.359375 16.75 15.234375 
Q 16.609375 14.109375 16.609375 13.484375 
Q 16.609375 10.359375 18.484375 8.9375 
Q 20.359375 7.515625 24.515625 7.515625 
L 33.59375 7.515625 
L 32.078125 0 
L 23.484375 0 
Q 15.484375 0 11.546875 3.125 
Q 7.625 6.25 7.625 12.59375 
Q 7.625 13.71875 7.765625 15.0625 
Q 7.90625 16.40625 8.203125 18.015625 
L 14.015625 47.703125 
L 6.390625 47.703125 
L 7.8125 54.6875 
L 15.28125 54.6875 
L 18.3125 70.21875 
L 27.296875 70.21875 
L 24.3125 54.6875 
z
" id="DejaVuSans-Oblique-116"/>
     </defs>
     <g transform="translate(35.411703 411.652784)scale(0.1625 -0.1625)">
      <use transform="translate(0 0.78125)" xlink:href="#DejaVuSans-Oblique-111"/>
      <use transform="translate(61.181641 0.78125)" xlink:href="#DejaVuSans-Oblique-117"/>
      <use transform="translate(124.560547 0.78125)" xlink:href="#DejaVuSans-Oblique-116"/>
      <use transform="translate(163.769531 -15.625)scale(0.7)" xlink:href="#DejaVuSans-48"/>
     </g>
    </g>
   </g>
  </g>
 </g>
 <defs>
  <clipPath id="p4148ac7a8f">
   <rect height="427.2394" width="489.901103" x="7.2" y="7.2"/>
  </clipPath>
 </defs>
</svg>
