<?xml version="1.0" encoding="utf-8" standalone="no"?>
<!DOCTYPE svg PUBLIC "-//W3C//DTD SVG 1.1//EN"
  "http://www.w3.org/Graphics/SVG/1.1/DTD/svg11.dtd">
<!-- Created with matplotlib (https://matplotlib.org/) -->
<svg height="396.1884pt" version="1.1" viewBox="0 0 442.735678 396.1884" width="442.735678pt" xmlns="http://www.w3.org/2000/svg" xmlns:xlink="http://www.w3.org/1999/xlink">
 <defs>
  <style type="text/css">
*{stroke-linecap:butt;stroke-linejoin:round;}
  </style>
 </defs>
 <g id="figure_1">
  <g id="patch_1">
   <path d="M 0 396.1884 
L 442.735678 396.1884 
L 442.735678 0 
L 0 0 
z
" style="fill:#ffffff;"/>
  </g>
  <g id="axes_1">
   <g id="line2d_1">
    <path clip-path="url(#p6cc47b9d0d)" d="M 62.837478 43.5608 
L 430.990578 43.5608 
" style="fill:none;stroke:#000000;stroke-linecap:square;stroke-width:2;"/>
   </g>
   <g id="line2d_2">
    <path clip-path="url(#p6cc47b9d0d)" d="M 62.837478 89.0118 
L 430.990578 89.0118 
" style="fill:none;stroke:#000000;stroke-linecap:square;stroke-width:2;"/>
   </g>
   <g id="line2d_3">
    <path clip-path="url(#p6cc47b9d0d)" d="M 62.837478 134.4628 
L 430.990578 134.4628 
" style="fill:none;stroke:#000000;stroke-linecap:square;stroke-width:2;"/>
   </g>
   <g id="line2d_4">
    <path clip-path="url(#p6cc47b9d0d)" d="M 62.837478 179.9138 
L 430.990578 179.9138 
" style="fill:none;stroke:#000000;stroke-linecap:square;stroke-width:2;"/>
   </g>
   <g id="line2d_5">
    <path clip-path="url(#p6cc47b9d0d)" d="M 62.837478 225.3648 
L 430.990578 225.3648 
" style="fill:none;stroke:#000000;stroke-linecap:square;stroke-width:2;"/>
   </g>
   <g id="line2d_6">
    <path clip-path="url(#p6cc47b9d0d)" d="M 62.837478 270.8158 
L 430.990578 270.8158 
" style="fill:none;stroke:#000000;stroke-linecap:square;stroke-width:2;"/>
   </g>
   <g id="line2d_7">
    <path clip-path="url(#p6cc47b9d0d)" d="M 62.837478 316.2668 
L 430.990578 316.2668 
" style="fill:none;stroke:#000000;stroke-linecap:square;stroke-width:2;"/>
   </g>
   <g id="line2d_8">
    <path clip-path="url(#p6cc47b9d0d)" d="M 62.837478 361.7178 
L 430.990578 361.7178 
" style="fill:none;stroke:#000000;stroke-linecap:square;stroke-width:2;"/>
   </g>
   <g id="line2d_9">
    <path clip-path="url(#p6cc47b9d0d)" d="M 87.381018 225.3648 
L 87.381018 43.5608 
" style="fill:none;stroke:#6fa4ff;stroke-linecap:square;stroke-width:2;"/>
   </g>
   <g id="line2d_10">
    <path clip-path="url(#p6cc47b9d0d)" d="M 132.832018 225.3648 
L 132.832018 89.0118 
" style="fill:none;stroke:#6fa4ff;stroke-linecap:square;stroke-width:2;"/>
   </g>
   <g id="line2d_11">
    <path clip-path="url(#p6cc47b9d0d)" d="M 178.283018 270.8158 
L 178.283018 43.5608 
" style="fill:none;stroke:#6fa4ff;stroke-linecap:square;stroke-width:2;"/>
   </g>
   <g id="line2d_12">
    <path clip-path="url(#p6cc47b9d0d)" d="M 223.734018 270.8158 
L 223.734018 134.4628 
" style="fill:none;stroke:#6fa4ff;stroke-linecap:square;stroke-width:2;"/>
   </g>
   <g id="line2d_13">
    <path clip-path="url(#p6cc47b9d0d)" d="M 269.185018 316.2668 
L 269.185018 89.0118 
" style="fill:none;stroke:#6fa4ff;stroke-linecap:square;stroke-width:2;"/>
   </g>
   <g id="line2d_14">
    <path clip-path="url(#p6cc47b9d0d)" d="M 314.636018 316.2668 
L 314.636018 179.9138 
" style="fill:none;stroke:#6fa4ff;stroke-linecap:square;stroke-width:2;"/>
   </g>
   <g id="line2d_15">
    <path clip-path="url(#p6cc47b9d0d)" d="M 360.087018 361.7178 
L 360.087018 134.4628 
" style="fill:none;stroke:#6fa4ff;stroke-linecap:square;stroke-width:2;"/>
   </g>
   <g id="line2d_16">
    <path clip-path="url(#p6cc47b9d0d)" d="M 405.538018 361.7178 
L 405.538018 179.9138 
" style="fill:none;stroke:#6fa4ff;stroke-linecap:square;stroke-width:2;"/>
   </g>
   <g id="patch_2">
    <path clip-path="url(#p6cc47b9d0d)" d="M 87.381018 47.992272 
C 88.556258 47.992272 89.683522 47.525345 90.514542 46.694324 
C 91.345563 45.863304 91.812491 44.73604 91.812491 43.5608 
C 91.812491 42.38556 91.345563 41.258296 90.514542 40.427276 
C 89.683522 39.596255 88.556258 39.129327 87.381018 39.129327 
C 86.205778 39.129327 85.078514 39.596255 84.247494 40.427276 
C 83.416474 41.258296 82.949546 42.38556 82.949546 43.5608 
C 82.949546 44.73604 83.416474 45.863304 84.247494 46.694324 
C 85.078514 47.525345 86.205778 47.992272 87.381018 47.992272 
z
" style="fill:#6fa4ff;stroke:#6fa4ff;stroke-linejoin:miter;stroke-width:1.5;"/>
   </g>
   <g id="patch_3">
    <path clip-path="url(#p6cc47b9d0d)" d="M 87.381018 235.704902 
C 90.123245 235.704902 92.753527 234.615404 94.692575 232.676357 
C 96.631622 230.737309 97.721121 228.107027 97.721121 225.3648 
C 97.721121 222.622573 96.631622 219.992291 94.692575 218.053243 
C 92.753527 216.114196 90.123245 215.024697 87.381018 215.024697 
C 84.638791 215.024697 82.008509 216.114196 80.069462 218.053243 
C 78.130414 219.992291 77.040916 222.622573 77.040916 225.3648 
C 77.040916 228.107027 78.130414 230.737309 80.069462 232.676357 
C 82.008509 234.615404 84.638791 235.704902 87.381018 235.704902 
z
" style="fill:#6fa4ff;stroke:#6fa4ff;stroke-linejoin:miter;stroke-width:2;"/>
   </g>
   <g id="patch_4">
    <path clip-path="url(#p6cc47b9d0d)" d="M 132.832018 93.443272 
C 134.007258 93.443272 135.134522 92.976345 135.965542 92.145324 
C 136.796563 91.314304 137.263491 90.18704 137.263491 89.0118 
C 137.263491 87.83656 136.796563 86.709296 135.965542 85.878276 
C 135.134522 85.047255 134.007258 84.580327 132.832018 84.580327 
C 131.656778 84.580327 130.529514 85.047255 129.698494 85.878276 
C 128.867474 86.709296 128.400546 87.83656 128.400546 89.0118 
C 128.400546 90.18704 128.867474 91.314304 129.698494 92.145324 
C 130.529514 92.976345 131.656778 93.443272 132.832018 93.443272 
z
" style="fill:#6fa4ff;stroke:#6fa4ff;stroke-linejoin:miter;stroke-width:1.5;"/>
   </g>
   <g id="patch_5">
    <path clip-path="url(#p6cc47b9d0d)" d="M 132.832018 235.704902 
C 135.574245 235.704902 138.204527 234.615404 140.143575 232.676357 
C 142.082622 230.737309 143.172121 228.107027 143.172121 225.3648 
C 143.172121 222.622573 142.082622 219.992291 140.143575 218.053243 
C 138.204527 216.114196 135.574245 215.024697 132.832018 215.024697 
C 130.089791 215.024697 127.459509 216.114196 125.520462 218.053243 
C 123.581414 219.992291 122.491916 222.622573 122.491916 225.3648 
C 122.491916 228.107027 123.581414 230.737309 125.520462 232.676357 
C 127.459509 234.615404 130.089791 235.704902 132.832018 235.704902 
z
" style="fill:#6fa4ff;stroke:#6fa4ff;stroke-linejoin:miter;stroke-width:2;"/>
   </g>
   <g id="patch_6">
    <path clip-path="url(#p6cc47b9d0d)" d="M 178.283018 47.992272 
C 179.458258 47.992272 180.585522 47.525345 181.416542 46.694324 
C 182.247563 45.863304 182.714491 44.73604 182.714491 43.5608 
C 182.714491 42.38556 182.247563 41.258296 181.416542 40.427276 
C 180.585522 39.596255 179.458258 39.129327 178.283018 39.129327 
C 177.107778 39.129327 175.980514 39.596255 175.149494 40.427276 
C 174.318474 41.258296 173.851546 42.38556 173.851546 43.5608 
C 173.851546 44.73604 174.318474 45.863304 175.149494 46.694324 
C 175.980514 47.525345 177.107778 47.992272 178.283018 47.992272 
z
" style="fill:#6fa4ff;stroke:#6fa4ff;stroke-linejoin:miter;stroke-width:1.5;"/>
   </g>
   <g id="patch_7">
    <path clip-path="url(#p6cc47b9d0d)" d="M 178.283018 281.155902 
C 181.025245 281.155902 183.655527 280.066404 185.594575 278.127357 
C 187.533622 276.188309 188.623121 273.558027 188.623121 270.8158 
C 188.623121 268.073573 187.533622 265.443291 185.594575 263.504243 
C 183.655527 261.565196 181.025245 260.475697 178.283018 260.475697 
C 175.540791 260.475697 172.910509 261.565196 170.971462 263.504243 
C 169.032414 265.443291 167.942916 268.073573 167.942916 270.8158 
C 167.942916 273.558027 169.032414 276.188309 170.971462 278.127357 
C 172.910509 280.066404 175.540791 281.155902 178.283018 281.155902 
z
" style="fill:#6fa4ff;stroke:#6fa4ff;stroke-linejoin:miter;stroke-width:2;"/>
   </g>
   <g id="patch_8">
    <path clip-path="url(#p6cc47b9d0d)" d="M 223.734018 138.894272 
C 224.909258 138.894272 226.036522 138.427345 226.867542 137.596324 
C 227.698563 136.765304 228.165491 135.63804 228.165491 134.4628 
C 228.165491 133.28756 227.698563 132.160296 226.867542 131.329276 
C 226.036522 130.498255 224.909258 130.031327 223.734018 130.031327 
C 222.558778 130.031327 221.431514 130.498255 220.600494 131.329276 
C 219.769474 132.160296 219.302546 133.28756 219.302546 134.4628 
C 219.302546 135.63804 219.769474 136.765304 220.600494 137.596324 
C 221.431514 138.427345 222.558778 138.894272 223.734018 138.894272 
z
" style="fill:#6fa4ff;stroke:#6fa4ff;stroke-linejoin:miter;stroke-width:1.5;"/>
   </g>
   <g id="patch_9">
    <path clip-path="url(#p6cc47b9d0d)" d="M 223.734018 281.155902 
C 226.476245 281.155902 229.106527 280.066404 231.045575 278.127357 
C 232.984622 276.188309 234.074121 273.558027 234.074121 270.8158 
C 234.074121 268.073573 232.984622 265.443291 231.045575 263.504243 
C 229.106527 261.565196 226.476245 260.475697 223.734018 260.475697 
C 220.991791 260.475697 218.361509 261.565196 216.422462 263.504243 
C 214.483414 265.443291 213.393916 268.073573 213.393916 270.8158 
C 213.393916 273.558027 214.483414 276.188309 216.422462 278.127357 
C 218.361509 280.066404 220.991791 281.155902 223.734018 281.155902 
z
" style="fill:#6fa4ff;stroke:#6fa4ff;stroke-linejoin:miter;stroke-width:2;"/>
   </g>
   <g id="patch_10">
    <path clip-path="url(#p6cc47b9d0d)" d="M 269.185018 93.443272 
C 270.360258 93.443272 271.487522 92.976345 272.318542 92.145324 
C 273.149563 91.314304 273.616491 90.18704 273.616491 89.0118 
C 273.616491 87.83656 273.149563 86.709296 272.318542 85.878276 
C 271.487522 85.047255 270.360258 84.580327 269.185018 84.580327 
C 268.009778 84.580327 266.882514 85.047255 266.051494 85.878276 
C 265.220474 86.709296 264.753546 87.83656 264.753546 89.0118 
C 264.753546 90.18704 265.220474 91.314304 266.051494 92.145324 
C 266.882514 92.976345 268.009778 93.443272 269.185018 93.443272 
z
" style="fill:#6fa4ff;stroke:#6fa4ff;stroke-linejoin:miter;stroke-width:1.5;"/>
   </g>
   <g id="patch_11">
    <path clip-path="url(#p6cc47b9d0d)" d="M 269.185018 326.606902 
C 271.927245 326.606902 274.557527 325.517404 276.496575 323.578357 
C 278.435622 321.639309 279.525121 319.009027 279.525121 316.2668 
C 279.525121 313.524573 278.435622 310.894291 276.496575 308.955243 
C 274.557527 307.016196 271.927245 305.926697 269.185018 305.926697 
C 266.442791 305.926697 263.812509 307.016196 261.873462 308.955243 
C 259.934414 310.894291 258.844916 313.524573 258.844916 316.2668 
C 258.844916 319.009027 259.934414 321.639309 261.873462 323.578357 
C 263.812509 325.517404 266.442791 326.606902 269.185018 326.606902 
z
" style="fill:#6fa4ff;stroke:#6fa4ff;stroke-linejoin:miter;stroke-width:2;"/>
   </g>
   <g id="patch_12">
    <path clip-path="url(#p6cc47b9d0d)" d="M 314.636018 184.345272 
C 315.811258 184.345272 316.938522 183.878345 317.769542 183.047324 
C 318.600563 182.216304 319.067491 181.08904 319.067491 179.9138 
C 319.067491 178.73856 318.600563 177.611296 317.769542 176.780276 
C 316.938522 175.949255 315.811258 175.482327 314.636018 175.482327 
C 313.460778 175.482327 312.333514 175.949255 311.502494 176.780276 
C 310.671474 177.611296 310.204546 178.73856 310.204546 179.9138 
C 310.204546 181.08904 310.671474 182.216304 311.502494 183.047324 
C 312.333514 183.878345 313.460778 184.345272 314.636018 184.345272 
z
" style="fill:#6fa4ff;stroke:#6fa4ff;stroke-linejoin:miter;stroke-width:1.5;"/>
   </g>
   <g id="patch_13">
    <path clip-path="url(#p6cc47b9d0d)" d="M 314.636018 326.606902 
C 317.378245 326.606902 320.008527 325.517404 321.947575 323.578357 
C 323.886622 321.639309 324.976121 319.009027 324.976121 316.2668 
C 324.976121 313.524573 323.886622 310.894291 321.947575 308.955243 
C 320.008527 307.016196 317.378245 305.926697 314.636018 305.926697 
C 311.893791 305.926697 309.263509 307.016196 307.324462 308.955243 
C 305.385414 310.894291 304.295916 313.524573 304.295916 316.2668 
C 304.295916 319.009027 305.385414 321.639309 307.324462 323.578357 
C 309.263509 325.517404 311.893791 326.606902 314.636018 326.606902 
z
" style="fill:#6fa4ff;stroke:#6fa4ff;stroke-linejoin:miter;stroke-width:2;"/>
   </g>
   <g id="patch_14">
    <path clip-path="url(#p6cc47b9d0d)" d="M 360.087018 138.894272 
C 361.262258 138.894272 362.389522 138.427345 363.220542 137.596324 
C 364.051563 136.765304 364.518491 135.63804 364.518491 134.4628 
C 364.518491 133.28756 364.051563 132.160296 363.220542 131.329276 
C 362.389522 130.498255 361.262258 130.031327 360.087018 130.031327 
C 358.911778 130.031327 357.784514 130.498255 356.953494 131.329276 
C 356.122474 132.160296 355.655546 133.28756 355.655546 134.4628 
C 355.655546 135.63804 356.122474 136.765304 356.953494 137.596324 
C 357.784514 138.427345 358.911778 138.894272 360.087018 138.894272 
z
" style="fill:#6fa4ff;stroke:#6fa4ff;stroke-linejoin:miter;stroke-width:1.5;"/>
   </g>
   <g id="patch_15">
    <path clip-path="url(#p6cc47b9d0d)" d="M 360.087018 372.057902 
C 362.829245 372.057902 365.459527 370.968404 367.398575 369.029357 
C 369.337622 367.090309 370.427121 364.460027 370.427121 361.7178 
C 370.427121 358.975573 369.337622 356.345291 367.398575 354.406243 
C 365.459527 352.467196 362.829245 351.377697 360.087018 351.377697 
C 357.344791 351.377697 354.714509 352.467196 352.775462 354.406243 
C 350.836414 356.345291 349.746916 358.975573 349.746916 361.7178 
C 349.746916 364.460027 350.836414 367.090309 352.775462 369.029357 
C 354.714509 370.968404 357.344791 372.057902 360.087018 372.057902 
z
" style="fill:#6fa4ff;stroke:#6fa4ff;stroke-linejoin:miter;stroke-width:2;"/>
   </g>
   <g id="patch_16">
    <path clip-path="url(#p6cc47b9d0d)" d="M 405.538018 184.345272 
C 406.713258 184.345272 407.840522 183.878345 408.671542 183.047324 
C 409.502563 182.216304 409.969491 181.08904 409.969491 179.9138 
C 409.969491 178.73856 409.502563 177.611296 408.671542 176.780276 
C 407.840522 175.949255 406.713258 175.482327 405.538018 175.482327 
C 404.362778 175.482327 403.235514 175.949255 402.404494 176.780276 
C 401.573474 177.611296 401.106546 178.73856 401.106546 179.9138 
C 401.106546 181.08904 401.573474 182.216304 402.404494 183.047324 
C 403.235514 183.878345 404.362778 184.345272 405.538018 184.345272 
z
" style="fill:#6fa4ff;stroke:#6fa4ff;stroke-linejoin:miter;stroke-width:1.5;"/>
   </g>
   <g id="patch_17">
    <path clip-path="url(#p6cc47b9d0d)" d="M 405.538018 372.057902 
C 408.280245 372.057902 410.910527 370.968404 412.849575 369.029357 
C 414.788622 367.090309 415.878121 364.460027 415.878121 361.7178 
C 415.878121 358.975573 414.788622 356.345291 412.849575 354.406243 
C 410.910527 352.467196 408.280245 351.377697 405.538018 351.377697 
C 402.795791 351.377697 400.165509 352.467196 398.226462 354.406243 
C 396.287414 356.345291 395.197916 358.975573 395.197916 361.7178 
C 395.197916 364.460027 396.287414 367.090309 398.226462 369.029357 
C 400.165509 370.968404 402.795791 372.057902 405.538018 372.057902 
z
" style="fill:#6fa4ff;stroke:#6fa4ff;stroke-linejoin:miter;stroke-width:2;"/>
   </g>
   <g id="line2d_17">
    <path clip-path="url(#p6cc47b9d0d)" d="M 87.381018 231.27343 
L 87.381018 219.45617 
" style="fill:none;stroke:#ffffff;stroke-linecap:square;stroke-width:2;"/>
   </g>
   <g id="line2d_18">
    <path clip-path="url(#p6cc47b9d0d)" d="M 81.472388 225.3648 
L 93.289648 225.3648 
" style="fill:none;stroke:#ffffff;stroke-linecap:square;stroke-width:2;"/>
   </g>
   <g id="line2d_19">
    <path clip-path="url(#p6cc47b9d0d)" d="M 132.832018 231.27343 
L 132.832018 219.45617 
" style="fill:none;stroke:#ffffff;stroke-linecap:square;stroke-width:2;"/>
   </g>
   <g id="line2d_20">
    <path clip-path="url(#p6cc47b9d0d)" d="M 126.923388 225.3648 
L 138.740648 225.3648 
" style="fill:none;stroke:#ffffff;stroke-linecap:square;stroke-width:2;"/>
   </g>
   <g id="line2d_21">
    <path clip-path="url(#p6cc47b9d0d)" d="M 178.283018 276.72443 
L 178.283018 264.90717 
" style="fill:none;stroke:#ffffff;stroke-linecap:square;stroke-width:2;"/>
   </g>
   <g id="line2d_22">
    <path clip-path="url(#p6cc47b9d0d)" d="M 172.374388 270.8158 
L 184.191648 270.8158 
" style="fill:none;stroke:#ffffff;stroke-linecap:square;stroke-width:2;"/>
   </g>
   <g id="line2d_23">
    <path clip-path="url(#p6cc47b9d0d)" d="M 223.734018 276.72443 
L 223.734018 264.90717 
" style="fill:none;stroke:#ffffff;stroke-linecap:square;stroke-width:2;"/>
   </g>
   <g id="line2d_24">
    <path clip-path="url(#p6cc47b9d0d)" d="M 217.825388 270.8158 
L 229.642648 270.8158 
" style="fill:none;stroke:#ffffff;stroke-linecap:square;stroke-width:2;"/>
   </g>
   <g id="line2d_25">
    <path clip-path="url(#p6cc47b9d0d)" d="M 269.185018 322.17543 
L 269.185018 310.35817 
" style="fill:none;stroke:#ffffff;stroke-linecap:square;stroke-width:2;"/>
   </g>
   <g id="line2d_26">
    <path clip-path="url(#p6cc47b9d0d)" d="M 263.276388 316.2668 
L 275.093648 316.2668 
" style="fill:none;stroke:#ffffff;stroke-linecap:square;stroke-width:2;"/>
   </g>
   <g id="line2d_27">
    <path clip-path="url(#p6cc47b9d0d)" d="M 314.636018 322.17543 
L 314.636018 310.35817 
" style="fill:none;stroke:#ffffff;stroke-linecap:square;stroke-width:2;"/>
   </g>
   <g id="line2d_28">
    <path clip-path="url(#p6cc47b9d0d)" d="M 308.727388 316.2668 
L 320.544648 316.2668 
" style="fill:none;stroke:#ffffff;stroke-linecap:square;stroke-width:2;"/>
   </g>
   <g id="line2d_29">
    <path clip-path="url(#p6cc47b9d0d)" d="M 360.087018 367.62643 
L 360.087018 355.80917 
" style="fill:none;stroke:#ffffff;stroke-linecap:square;stroke-width:2;"/>
   </g>
   <g id="line2d_30">
    <path clip-path="url(#p6cc47b9d0d)" d="M 354.178388 361.7178 
L 365.995648 361.7178 
" style="fill:none;stroke:#ffffff;stroke-linecap:square;stroke-width:2;"/>
   </g>
   <g id="line2d_31">
    <path clip-path="url(#p6cc47b9d0d)" d="M 405.538018 367.62643 
L 405.538018 355.80917 
" style="fill:none;stroke:#ffffff;stroke-linecap:square;stroke-width:2;"/>
   </g>
   <g id="line2d_32">
    <path clip-path="url(#p6cc47b9d0d)" d="M 399.629388 361.7178 
L 411.446648 361.7178 
" style="fill:none;stroke:#ffffff;stroke-linecap:square;stroke-width:2;"/>
   </g>
   <g id="text_1">
    <g clip-path="url(#p6cc47b9d0d)">
     <!-- ${v}_{0}$ -->
     <defs>
      <path d="M 7.171875 54.6875 
L 16.703125 54.6875 
L 24.703125 8.203125 
L 50.875 54.6875 
L 60.40625 54.6875 
L 29.296875 0 
L 17.1875 0 
z
" id="DejaVuSans-Oblique-118"/>
      <path d="M 31.78125 66.40625 
Q 24.171875 66.40625 20.328125 58.90625 
Q 16.5 51.421875 16.5 36.375 
Q 16.5 21.390625 20.328125 13.890625 
Q 24.171875 6.390625 31.78125 6.390625 
Q 39.453125 6.390625 43.28125 13.890625 
Q 47.125 21.390625 47.125 36.375 
Q 47.125 51.421875 43.28125 58.90625 
Q 39.453125 66.40625 31.78125 66.40625 
z
M 31.78125 74.21875 
Q 44.046875 74.21875 50.515625 64.515625 
Q 56.984375 54.828125 56.984375 36.375 
Q 56.984375 17.96875 50.515625 8.265625 
Q 44.046875 -1.421875 31.78125 -1.421875 
Q 19.53125 -1.421875 13.0625 8.265625 
Q 6.59375 17.96875 6.59375 36.375 
Q 6.59375 54.828125 13.0625 64.515625 
Q 19.53125 74.21875 31.78125 74.21875 
z
" id="DejaVuSans-48"/>
     </defs>
     <g transform="translate(36.359778 48.044784)scale(0.1625 -0.1625)">
      <use transform="translate(0 0.3125)" xlink:href="#DejaVuSans-Oblique-118"/>
      <use transform="translate(59.179688 -16.09375)scale(0.7)" xlink:href="#DejaVuSans-48"/>
     </g>
    </g>
   </g>
   <g id="text_2">
    <g clip-path="url(#p6cc47b9d0d)">
     <!-- ${v}_{1}$ -->
     <defs>
      <path d="M 12.40625 8.296875 
L 28.515625 8.296875 
L 28.515625 63.921875 
L 10.984375 60.40625 
L 10.984375 69.390625 
L 28.421875 72.90625 
L 38.28125 72.90625 
L 38.28125 8.296875 
L 54.390625 8.296875 
L 54.390625 0 
L 12.40625 0 
z
" id="DejaVuSans-49"/>
     </defs>
     <g transform="translate(36.359778 93.495784)scale(0.1625 -0.1625)">
      <use transform="translate(0 0.3125)" xlink:href="#DejaVuSans-Oblique-118"/>
      <use transform="translate(59.179688 -16.09375)scale(0.7)" xlink:href="#DejaVuSans-49"/>
     </g>
    </g>
   </g>
   <g id="text_3">
    <g clip-path="url(#p6cc47b9d0d)">
     <!-- ${v}_{2}$ -->
     <defs>
      <path d="M 19.1875 8.296875 
L 53.609375 8.296875 
L 53.609375 0 
L 7.328125 0 
L 7.328125 8.296875 
Q 12.9375 14.109375 22.625 23.890625 
Q 32.328125 33.6875 34.8125 36.53125 
Q 39.546875 41.84375 41.421875 45.53125 
Q 43.3125 49.21875 43.3125 52.78125 
Q 43.3125 58.59375 39.234375 62.25 
Q 35.15625 65.921875 28.609375 65.921875 
Q 23.96875 65.921875 18.8125 64.3125 
Q 13.671875 62.703125 7.8125 59.421875 
L 7.8125 69.390625 
Q 13.765625 71.78125 18.9375 73 
Q 24.125 74.21875 28.421875 74.21875 
Q 39.75 74.21875 46.484375 68.546875 
Q 53.21875 62.890625 53.21875 53.421875 
Q 53.21875 48.921875 51.53125 44.890625 
Q 49.859375 40.875 45.40625 35.40625 
Q 44.1875 33.984375 37.640625 27.21875 
Q 31.109375 20.453125 19.1875 8.296875 
z
" id="DejaVuSans-50"/>
     </defs>
     <g transform="translate(36.359778 138.946784)scale(0.1625 -0.1625)">
      <use transform="translate(0 0.3125)" xlink:href="#DejaVuSans-Oblique-118"/>
      <use transform="translate(59.179688 -16.09375)scale(0.7)" xlink:href="#DejaVuSans-50"/>
     </g>
    </g>
   </g>
   <g id="text_4">
    <g clip-path="url(#p6cc47b9d0d)">
     <!-- ${v}_{3}$ -->
     <defs>
      <path d="M 40.578125 39.3125 
Q 47.65625 37.796875 51.625 33 
Q 55.609375 28.21875 55.609375 21.1875 
Q 55.609375 10.40625 48.1875 4.484375 
Q 40.765625 -1.421875 27.09375 -1.421875 
Q 22.515625 -1.421875 17.65625 -0.515625 
Q 12.796875 0.390625 7.625 2.203125 
L 7.625 11.71875 
Q 11.71875 9.328125 16.59375 8.109375 
Q 21.484375 6.890625 26.8125 6.890625 
Q 36.078125 6.890625 40.9375 10.546875 
Q 45.796875 14.203125 45.796875 21.1875 
Q 45.796875 27.640625 41.28125 31.265625 
Q 36.765625 34.90625 28.71875 34.90625 
L 20.21875 34.90625 
L 20.21875 43.015625 
L 29.109375 43.015625 
Q 36.375 43.015625 40.234375 45.921875 
Q 44.09375 48.828125 44.09375 54.296875 
Q 44.09375 59.90625 40.109375 62.90625 
Q 36.140625 65.921875 28.71875 65.921875 
Q 24.65625 65.921875 20.015625 65.03125 
Q 15.375 64.15625 9.8125 62.3125 
L 9.8125 71.09375 
Q 15.4375 72.65625 20.34375 73.4375 
Q 25.25 74.21875 29.59375 74.21875 
Q 40.828125 74.21875 47.359375 69.109375 
Q 53.90625 64.015625 53.90625 55.328125 
Q 53.90625 49.265625 50.4375 45.09375 
Q 46.96875 40.921875 40.578125 39.3125 
z
" id="DejaVuSans-51"/>
     </defs>
     <g transform="translate(36.359778 184.397784)scale(0.1625 -0.1625)">
      <use transform="translate(0 0.3125)" xlink:href="#DejaVuSans-Oblique-118"/>
      <use transform="translate(59.179688 -16.09375)scale(0.7)" xlink:href="#DejaVuSans-51"/>
     </g>
    </g>
   </g>
   <g id="text_5">
    <g clip-path="url(#p6cc47b9d0d)">
     <!-- ${c}_{0}$ -->
     <defs>
      <path d="M 53.609375 52.59375 
L 51.8125 43.703125 
Q 48.578125 46.046875 44.9375 47.21875 
Q 41.3125 48.390625 37.40625 48.390625 
Q 33.109375 48.390625 29.21875 46.875 
Q 25.34375 45.359375 22.703125 42.578125 
Q 18.5 38.328125 16.203125 32.609375 
Q 13.921875 26.90625 13.921875 20.796875 
Q 13.921875 13.421875 17.609375 9.8125 
Q 21.296875 6.203125 28.8125 6.203125 
Q 32.515625 6.203125 36.6875 7.328125 
Q 40.875 8.453125 45.40625 10.6875 
L 43.703125 1.8125 
Q 39.796875 0.203125 35.671875 -0.609375 
Q 31.546875 -1.421875 27.203125 -1.421875 
Q 16.3125 -1.421875 10.453125 4.015625 
Q 4.59375 9.46875 4.59375 19.578125 
Q 4.59375 28.078125 7.640625 35.234375 
Q 10.6875 42.390625 16.703125 48.09375 
Q 20.796875 52 26.3125 54 
Q 31.84375 56 38.375 56 
Q 42.1875 56 45.9375 55.140625 
Q 49.703125 54.296875 53.609375 52.59375 
z
" id="DejaVuSans-Oblique-99"/>
     </defs>
     <g transform="translate(37.009778 229.848784)scale(0.1625 -0.1625)">
      <use xlink:href="#DejaVuSans-Oblique-99"/>
      <use transform="translate(54.980469 -16.40625)scale(0.7)" xlink:href="#DejaVuSans-48"/>
     </g>
    </g>
   </g>
   <g id="text_6">
    <g clip-path="url(#p6cc47b9d0d)">
     <!-- ${c}_{1}$ -->
     <g transform="translate(37.009778 275.299784)scale(0.1625 -0.1625)">
      <use xlink:href="#DejaVuSans-Oblique-99"/>
      <use transform="translate(54.980469 -16.40625)scale(0.7)" xlink:href="#DejaVuSans-49"/>
     </g>
    </g>
   </g>
   <g id="text_7">
    <g clip-path="url(#p6cc47b9d0d)">
     <!-- ${c}_{2}$ -->
     <g transform="translate(37.009778 320.750784)scale(0.1625 -0.1625)">
      <use xlink:href="#DejaVuSans-Oblique-99"/>
      <use transform="translate(54.980469 -16.40625)scale(0.7)" xlink:href="#DejaVuSans-50"/>
     </g>
    </g>
   </g>
   <g id="text_8">
    <g clip-path="url(#p6cc47b9d0d)">
     <!-- ${c}_{3}$ -->
     <g transform="translate(37.009778 366.201784)scale(0.1625 -0.1625)">
      <use xlink:href="#DejaVuSans-Oblique-99"/>
      <use transform="translate(54.980469 -16.40625)scale(0.7)" xlink:href="#DejaVuSans-51"/>
     </g>
    </g>
   </g>
  </g>
 </g>
 <defs>
  <clipPath id="p6cc47b9d0d">
   <rect height="381.7884" width="428.335678" x="7.2" y="7.2"/>
  </clipPath>
 </defs>
</svg>
