<?xml version="1.0" encoding="utf-8" standalone="no"?>
<!DOCTYPE svg PUBLIC "-//W3C//DTD SVG 1.1//EN"
  "http://www.w3.org/Graphics/SVG/1.1/DTD/svg11.dtd">
<!-- Created with matplotlib (https://matplotlib.org/) -->
<svg height="214.3844pt" version="1.1" viewBox="0 0 579.742036 214.3844" width="579.742036pt" xmlns="http://www.w3.org/2000/svg" xmlns:xlink="http://www.w3.org/1999/xlink">
 <defs>
  <style type="text/css">
*{stroke-linecap:butt;stroke-linejoin:round;}
  </style>
 </defs>
 <g id="figure_1">
  <g id="patch_1">
   <path d="M 0 214.3844 
L 579.742036 214.3844 
L 579.742036 0 
L 0 0 
z
" style="fill:#ffffff;"/>
  </g>
  <g id="axes_1">
   <g id="line2d_1">
    <path clip-path="url(#p64be48d634)" d="M 63.490836 43.5608 
L 567.996936 43.5608 
" style="fill:none;stroke:#000000;stroke-linecap:square;stroke-width:2;"/>
   </g>
   <g id="line2d_2">
    <path clip-path="url(#p64be48d634)" d="M 63.490836 89.0118 
L 567.996936 89.0118 
" style="fill:none;stroke:#000000;stroke-linecap:square;stroke-width:2;"/>
   </g>
   <g id="line2d_3">
    <path clip-path="url(#p64be48d634)" d="M 63.490836 134.4628 
L 567.996936 134.4628 
" style="fill:none;stroke:#000000;stroke-linecap:square;stroke-width:2;"/>
   </g>
   <g id="line2d_4">
    <path clip-path="url(#p64be48d634)" d="M 63.490836 179.9138 
L 567.996936 179.9138 
" style="fill:none;stroke:#000000;stroke-linecap:square;stroke-width:2;"/>
   </g>
   <g id="line2d_5">
    <path clip-path="url(#p64be48d634)" d="M 133.485376 179.9138 
L 133.485376 43.5608 
" style="fill:none;stroke:#bb8bff;stroke-linecap:square;stroke-width:2;"/>
   </g>
   <g id="line2d_6">
    <path clip-path="url(#p64be48d634)" d="M 178.936376 179.9138 
L 178.936376 89.0118 
" style="fill:none;stroke:#bb8bff;stroke-linecap:square;stroke-width:2;"/>
   </g>
   <g id="line2d_7">
    <path clip-path="url(#p64be48d634)" d="M 224.387376 179.9138 
L 224.387376 134.4628 
" style="fill:none;stroke:#bb8bff;stroke-linecap:square;stroke-width:2;"/>
   </g>
   <g id="line2d_8">
    <path clip-path="url(#p64be48d634)" d="M 315.289376 134.4628 
L 315.289376 43.5608 
" style="fill:none;stroke:#bb8bff;stroke-linecap:square;stroke-width:2;"/>
   </g>
   <g id="line2d_9">
    <path clip-path="url(#p64be48d634)" d="M 360.740376 134.4628 
L 360.740376 89.0118 
" style="fill:none;stroke:#bb8bff;stroke-linecap:square;stroke-width:2;"/>
   </g>
   <g id="line2d_10">
    <path clip-path="url(#p64be48d634)" d="M 451.642376 89.0118 
L 451.642376 43.5608 
" style="fill:none;stroke:#bb8bff;stroke-linecap:square;stroke-width:2;"/>
   </g>
   <g id="line2d_11">
    <path clip-path="url(#p64be48d634)" d="M 497.093376 134.4628 
L 497.093376 89.0118 
" style="fill:none;stroke:#6fa4ff;stroke-linecap:square;stroke-width:2;"/>
   </g>
   <g id="line2d_12">
    <path clip-path="url(#p64be48d634)" d="M 542.544376 179.9138 
L 542.544376 43.5608 
" style="fill:none;stroke:#6fa4ff;stroke-linecap:square;stroke-width:2;"/>
   </g>
   <g id="line2d_13">
    <path clip-path="url(#p64be48d634)" d="M 491.184746 94.92043 
L 503.002006 83.10317 
" style="fill:none;stroke:#6fa4ff;stroke-linecap:square;stroke-width:2;"/>
   </g>
   <g id="line2d_14">
    <path clip-path="url(#p64be48d634)" d="M 491.184746 83.10317 
L 503.002006 94.92043 
" style="fill:none;stroke:#6fa4ff;stroke-linecap:square;stroke-width:2;"/>
   </g>
   <g id="line2d_15">
    <path clip-path="url(#p64be48d634)" d="M 491.184746 140.37143 
L 503.002006 128.55417 
" style="fill:none;stroke:#6fa4ff;stroke-linecap:square;stroke-width:2;"/>
   </g>
   <g id="line2d_16">
    <path clip-path="url(#p64be48d634)" d="M 491.184746 128.55417 
L 503.002006 140.37143 
" style="fill:none;stroke:#6fa4ff;stroke-linecap:square;stroke-width:2;"/>
   </g>
   <g id="line2d_17">
    <path clip-path="url(#p64be48d634)" d="M 536.635746 49.46943 
L 548.453006 37.65217 
" style="fill:none;stroke:#6fa4ff;stroke-linecap:square;stroke-width:2;"/>
   </g>
   <g id="line2d_18">
    <path clip-path="url(#p64be48d634)" d="M 536.635746 37.65217 
L 548.453006 49.46943 
" style="fill:none;stroke:#6fa4ff;stroke-linecap:square;stroke-width:2;"/>
   </g>
   <g id="line2d_19">
    <path clip-path="url(#p64be48d634)" d="M 536.635746 185.82243 
L 548.453006 174.00517 
" style="fill:none;stroke:#6fa4ff;stroke-linecap:square;stroke-width:2;"/>
   </g>
   <g id="line2d_20">
    <path clip-path="url(#p64be48d634)" d="M 536.635746 174.00517 
L 548.453006 185.82243 
" style="fill:none;stroke:#6fa4ff;stroke-linecap:square;stroke-width:2;"/>
   </g>
   <g id="patch_2">
    <path clip-path="url(#p64be48d634)" d="M 73.262801 194.685375 
L 102.805951 194.685375 
L 102.805951 165.142225 
L 73.262801 165.142225 
z
" style="fill:#6fa4ff;stroke:#6fa4ff;stroke-linejoin:miter;stroke-width:1.5;"/>
   </g>
   <g id="patch_3">
    <path clip-path="url(#p64be48d634)" d="M 133.485376 47.992272 
C 134.660616 47.992272 135.78788 47.525345 136.618901 46.694324 
C 137.449921 45.863304 137.916849 44.73604 137.916849 43.5608 
C 137.916849 42.38556 137.449921 41.258296 136.618901 40.427276 
C 135.78788 39.596255 134.660616 39.129327 133.485376 39.129327 
C 132.310136 39.129327 131.182872 39.596255 130.351852 40.427276 
C 129.520832 41.258296 129.053904 42.38556 129.053904 43.5608 
C 129.053904 44.73604 129.520832 45.863304 130.351852 46.694324 
C 131.182872 47.525345 132.310136 47.992272 133.485376 47.992272 
z
" style="fill:#bb8bff;stroke:#bb8bff;stroke-linejoin:miter;stroke-width:1.5;"/>
   </g>
   <g id="patch_4">
    <path clip-path="url(#p64be48d634)" d="M 118.713801 194.685375 
L 148.256951 194.685375 
L 148.256951 165.142225 
L 118.713801 165.142225 
z
" style="fill:#bb8bff;stroke:#bb8bff;stroke-linejoin:miter;stroke-width:1.5;"/>
   </g>
   <g id="patch_5">
    <path clip-path="url(#p64be48d634)" d="M 178.936376 93.443272 
C 180.111616 93.443272 181.23888 92.976345 182.069901 92.145324 
C 182.900921 91.314304 183.367849 90.18704 183.367849 89.0118 
C 183.367849 87.83656 182.900921 86.709296 182.069901 85.878276 
C 181.23888 85.047255 180.111616 84.580327 178.936376 84.580327 
C 177.761136 84.580327 176.633872 85.047255 175.802852 85.878276 
C 174.971832 86.709296 174.504904 87.83656 174.504904 89.0118 
C 174.504904 90.18704 174.971832 91.314304 175.802852 92.145324 
C 176.633872 92.976345 177.761136 93.443272 178.936376 93.443272 
z
" style="fill:#bb8bff;stroke:#bb8bff;stroke-linejoin:miter;stroke-width:1.5;"/>
   </g>
   <g id="patch_6">
    <path clip-path="url(#p64be48d634)" d="M 164.164801 194.685375 
L 193.707951 194.685375 
L 193.707951 165.142225 
L 164.164801 165.142225 
z
" style="fill:#bb8bff;stroke:#bb8bff;stroke-linejoin:miter;stroke-width:1.5;"/>
   </g>
   <g id="patch_7">
    <path clip-path="url(#p64be48d634)" d="M 224.387376 138.894272 
C 225.562616 138.894272 226.68988 138.427345 227.520901 137.596324 
C 228.351921 136.765304 228.818849 135.63804 228.818849 134.4628 
C 228.818849 133.28756 228.351921 132.160296 227.520901 131.329276 
C 226.68988 130.498255 225.562616 130.031327 224.387376 130.031327 
C 223.212136 130.031327 222.084872 130.498255 221.253852 131.329276 
C 220.422832 132.160296 219.955904 133.28756 219.955904 134.4628 
C 219.955904 135.63804 220.422832 136.765304 221.253852 137.596324 
C 222.084872 138.427345 223.212136 138.894272 224.387376 138.894272 
z
" style="fill:#bb8bff;stroke:#bb8bff;stroke-linejoin:miter;stroke-width:1.5;"/>
   </g>
   <g id="patch_8">
    <path clip-path="url(#p64be48d634)" d="M 209.615801 194.685375 
L 239.158951 194.685375 
L 239.158951 165.142225 
L 209.615801 165.142225 
z
" style="fill:#bb8bff;stroke:#bb8bff;stroke-linejoin:miter;stroke-width:1.5;"/>
   </g>
   <g id="patch_9">
    <path clip-path="url(#p64be48d634)" d="M 255.066801 149.234375 
L 284.609951 149.234375 
L 284.609951 119.691225 
L 255.066801 119.691225 
z
" style="fill:#6fa4ff;stroke:#6fa4ff;stroke-linejoin:miter;stroke-width:1.5;"/>
   </g>
   <g id="patch_10">
    <path clip-path="url(#p64be48d634)" d="M 315.289376 47.992272 
C 316.464616 47.992272 317.59188 47.525345 318.422901 46.694324 
C 319.253921 45.863304 319.720849 44.73604 319.720849 43.5608 
C 319.720849 42.38556 319.253921 41.258296 318.422901 40.427276 
C 317.59188 39.596255 316.464616 39.129327 315.289376 39.129327 
C 314.114136 39.129327 312.986872 39.596255 312.155852 40.427276 
C 311.324832 41.258296 310.857904 42.38556 310.857904 43.5608 
C 310.857904 44.73604 311.324832 45.863304 312.155852 46.694324 
C 312.986872 47.525345 314.114136 47.992272 315.289376 47.992272 
z
" style="fill:#bb8bff;stroke:#bb8bff;stroke-linejoin:miter;stroke-width:1.5;"/>
   </g>
   <g id="patch_11">
    <path clip-path="url(#p64be48d634)" d="M 300.517801 149.234375 
L 330.060951 149.234375 
L 330.060951 119.691225 
L 300.517801 119.691225 
z
" style="fill:#bb8bff;stroke:#bb8bff;stroke-linejoin:miter;stroke-width:1.5;"/>
   </g>
   <g id="patch_12">
    <path clip-path="url(#p64be48d634)" d="M 360.740376 93.443272 
C 361.915616 93.443272 363.04288 92.976345 363.873901 92.145324 
C 364.704921 91.314304 365.171849 90.18704 365.171849 89.0118 
C 365.171849 87.83656 364.704921 86.709296 363.873901 85.878276 
C 363.04288 85.047255 361.915616 84.580327 360.740376 84.580327 
C 359.565136 84.580327 358.437872 85.047255 357.606852 85.878276 
C 356.775832 86.709296 356.308904 87.83656 356.308904 89.0118 
C 356.308904 90.18704 356.775832 91.314304 357.606852 92.145324 
C 358.437872 92.976345 359.565136 93.443272 360.740376 93.443272 
z
" style="fill:#bb8bff;stroke:#bb8bff;stroke-linejoin:miter;stroke-width:1.5;"/>
   </g>
   <g id="patch_13">
    <path clip-path="url(#p64be48d634)" d="M 345.968801 149.234375 
L 375.511951 149.234375 
L 375.511951 119.691225 
L 345.968801 119.691225 
z
" style="fill:#bb8bff;stroke:#bb8bff;stroke-linejoin:miter;stroke-width:1.5;"/>
   </g>
   <g id="patch_14">
    <path clip-path="url(#p64be48d634)" d="M 391.419801 103.783375 
L 420.962951 103.783375 
L 420.962951 74.240225 
L 391.419801 74.240225 
z
" style="fill:#6fa4ff;stroke:#6fa4ff;stroke-linejoin:miter;stroke-width:1.5;"/>
   </g>
   <g id="patch_15">
    <path clip-path="url(#p64be48d634)" d="M 451.642376 47.992272 
C 452.817616 47.992272 453.94488 47.525345 454.775901 46.694324 
C 455.606921 45.863304 456.073849 44.73604 456.073849 43.5608 
C 456.073849 42.38556 455.606921 41.258296 454.775901 40.427276 
C 453.94488 39.596255 452.817616 39.129327 451.642376 39.129327 
C 450.467136 39.129327 449.339872 39.596255 448.508852 40.427276 
C 447.677832 41.258296 447.210904 42.38556 447.210904 43.5608 
C 447.210904 44.73604 447.677832 45.863304 448.508852 46.694324 
C 449.339872 47.525345 450.467136 47.992272 451.642376 47.992272 
z
" style="fill:#bb8bff;stroke:#bb8bff;stroke-linejoin:miter;stroke-width:1.5;"/>
   </g>
   <g id="patch_16">
    <path clip-path="url(#p64be48d634)" d="M 436.870801 103.783375 
L 466.413951 103.783375 
L 466.413951 74.240225 
L 436.870801 74.240225 
z
" style="fill:#bb8bff;stroke:#bb8bff;stroke-linejoin:miter;stroke-width:1.5;"/>
   </g>
   <g id="patch_17">
    <path clip-path="url(#p64be48d634)" d="M 482.321801 58.332375 
L 511.864951 58.332375 
L 511.864951 28.789225 
L 482.321801 28.789225 
z
" style="fill:#6fa4ff;stroke:#6fa4ff;stroke-linejoin:miter;stroke-width:1.5;"/>
   </g>
   <g id="text_1">
    <g clip-path="url(#p64be48d634)">
     <!-- H -->
     <defs>
      <path d="M 9.8125 72.90625 
L 19.671875 72.90625 
L 19.671875 43.015625 
L 55.515625 43.015625 
L 55.515625 72.90625 
L 65.375 72.90625 
L 65.375 0 
L 55.515625 0 
L 55.515625 34.71875 
L 19.671875 34.71875 
L 19.671875 0 
L 9.8125 0 
z
" id="DejaVuSans-72"/>
     </defs>
     <g transform="translate(83.146173 183.500987)scale(0.13 -0.13)">
      <use xlink:href="#DejaVuSans-72"/>
     </g>
    </g>
   </g>
   <g id="text_2">
    <g clip-path="url(#p64be48d634)">
     <!-- P -->
     <defs>
      <path d="M 19.671875 64.796875 
L 19.671875 37.40625 
L 32.078125 37.40625 
Q 38.96875 37.40625 42.71875 40.96875 
Q 46.484375 44.53125 46.484375 51.125 
Q 46.484375 57.671875 42.71875 61.234375 
Q 38.96875 64.796875 32.078125 64.796875 
z
M 9.8125 72.90625 
L 32.078125 72.90625 
Q 44.34375 72.90625 50.609375 67.359375 
Q 56.890625 61.8125 56.890625 51.125 
Q 56.890625 40.328125 50.609375 34.8125 
Q 44.34375 29.296875 32.078125 29.296875 
L 19.671875 29.296875 
L 19.671875 0 
L 9.8125 0 
z
" id="DejaVuSans-80"/>
     </defs>
     <g transform="translate(129.566079 179.069515)scale(0.13 -0.13)">
      <use xlink:href="#DejaVuSans-80"/>
     </g>
    </g>
   </g>
   <g id="text_3">
    <g clip-path="url(#p64be48d634)">
     <!-- $\pi$/8 -->
     <defs>
      <path d="M 9.125 54.6875 
L 61.53125 54.6875 
L 59.765625 45.703125 
L 52.875 45.703125 
L 46.34375 12.109375 
Q 45.65625 8.59375 46.578125 7.03125 
Q 47.46875 5.515625 50.140625 5.515625 
Q 50.875 5.515625 51.953125 5.671875 
Q 53.078125 5.765625 53.421875 5.8125 
L 52.15625 -0.6875 
Q 50.34375 -1.3125 48.484375 -1.609375 
Q 46.578125 -1.90625 44.78125 -1.90625 
Q 38.921875 -1.90625 37.3125 1.265625 
Q 35.6875 4.5 37.359375 13.09375 
L 43.703125 45.703125 
L 23.53125 45.703125 
L 14.65625 0 
L 5.46875 0 
L 14.359375 45.703125 
L 7.375 45.703125 
z
" id="DejaVuSans-Oblique-960"/>
      <path d="M 25.390625 72.90625 
L 33.6875 72.90625 
L 8.296875 -9.28125 
L 0 -9.28125 
z
" id="DejaVuSans-47"/>
      <path d="M 31.78125 34.625 
Q 24.75 34.625 20.71875 30.859375 
Q 16.703125 27.09375 16.703125 20.515625 
Q 16.703125 13.921875 20.71875 10.15625 
Q 24.75 6.390625 31.78125 6.390625 
Q 38.8125 6.390625 42.859375 10.171875 
Q 46.921875 13.96875 46.921875 20.515625 
Q 46.921875 27.09375 42.890625 30.859375 
Q 38.875 34.625 31.78125 34.625 
z
M 21.921875 38.8125 
Q 15.578125 40.375 12.03125 44.71875 
Q 8.5 49.078125 8.5 55.328125 
Q 8.5 64.0625 14.71875 69.140625 
Q 20.953125 74.21875 31.78125 74.21875 
Q 42.671875 74.21875 48.875 69.140625 
Q 55.078125 64.0625 55.078125 55.328125 
Q 55.078125 49.078125 51.53125 44.71875 
Q 48 40.375 41.703125 38.8125 
Q 48.828125 37.15625 52.796875 32.3125 
Q 56.78125 27.484375 56.78125 20.515625 
Q 56.78125 9.90625 50.3125 4.234375 
Q 43.84375 -1.421875 31.78125 -1.421875 
Q 19.734375 -1.421875 13.25 4.234375 
Q 6.78125 9.90625 6.78125 20.515625 
Q 6.78125 27.484375 10.78125 32.3125 
Q 14.796875 37.15625 21.921875 38.8125 
z
M 18.3125 54.390625 
Q 18.3125 48.734375 21.84375 45.5625 
Q 25.390625 42.390625 31.78125 42.390625 
Q 38.140625 42.390625 41.71875 45.5625 
Q 45.3125 48.734375 45.3125 54.390625 
Q 45.3125 60.0625 41.71875 63.234375 
Q 38.140625 66.40625 31.78125 66.40625 
Q 25.390625 66.40625 21.84375 63.234375 
Q 18.3125 60.0625 18.3125 54.390625 
z
" id="DejaVuSans-56"/>
     </defs>
     <g transform="translate(127.365376 190.984245)scale(0.08 -0.08)">
      <use transform="translate(0 0.78125)" xlink:href="#DejaVuSans-Oblique-960"/>
      <use transform="translate(60.205078 0.78125)" xlink:href="#DejaVuSans-47"/>
      <use transform="translate(88.896484 0.78125)" xlink:href="#DejaVuSans-56"/>
     </g>
    </g>
   </g>
   <g id="text_4">
    <g clip-path="url(#p64be48d634)">
     <!-- P -->
     <g transform="translate(175.017079 179.069515)scale(0.13 -0.13)">
      <use xlink:href="#DejaVuSans-80"/>
     </g>
    </g>
   </g>
   <g id="text_5">
    <g clip-path="url(#p64be48d634)">
     <!-- $\pi$/4 -->
     <defs>
      <path d="M 37.796875 64.3125 
L 12.890625 25.390625 
L 37.796875 25.390625 
z
M 35.203125 72.90625 
L 47.609375 72.90625 
L 47.609375 25.390625 
L 58.015625 25.390625 
L 58.015625 17.1875 
L 47.609375 17.1875 
L 47.609375 0 
L 37.796875 0 
L 37.796875 17.1875 
L 4.890625 17.1875 
L 4.890625 26.703125 
z
" id="DejaVuSans-52"/>
     </defs>
     <g transform="translate(172.616376 190.984245)scale(0.08 -0.08)">
      <use transform="translate(0 0.09375)" xlink:href="#DejaVuSans-Oblique-960"/>
      <use transform="translate(60.205078 0.09375)" xlink:href="#DejaVuSans-47"/>
      <use transform="translate(93.896484 0.09375)" xlink:href="#DejaVuSans-52"/>
     </g>
    </g>
   </g>
   <g id="text_6">
    <g clip-path="url(#p64be48d634)">
     <!-- P -->
     <g transform="translate(220.468079 179.069515)scale(0.13 -0.13)">
      <use xlink:href="#DejaVuSans-80"/>
     </g>
    </g>
   </g>
   <g id="text_7">
    <g clip-path="url(#p64be48d634)">
     <!-- $\pi$/2 -->
     <defs>
      <path d="M 19.1875 8.296875 
L 53.609375 8.296875 
L 53.609375 0 
L 7.328125 0 
L 7.328125 8.296875 
Q 12.9375 14.109375 22.625 23.890625 
Q 32.328125 33.6875 34.8125 36.53125 
Q 39.546875 41.84375 41.421875 45.53125 
Q 43.3125 49.21875 43.3125 52.78125 
Q 43.3125 58.59375 39.234375 62.25 
Q 35.15625 65.921875 28.609375 65.921875 
Q 23.96875 65.921875 18.8125 64.3125 
Q 13.671875 62.703125 7.8125 59.421875 
L 7.8125 69.390625 
Q 13.765625 71.78125 18.9375 73 
Q 24.125 74.21875 28.421875 74.21875 
Q 39.75 74.21875 46.484375 68.546875 
Q 53.21875 62.890625 53.21875 53.421875 
Q 53.21875 48.921875 51.53125 44.890625 
Q 49.859375 40.875 45.40625 35.40625 
Q 44.1875 33.984375 37.640625 27.21875 
Q 31.109375 20.453125 19.1875 8.296875 
z
" id="DejaVuSans-50"/>
     </defs>
     <g transform="translate(218.227376 190.984245)scale(0.08 -0.08)">
      <use transform="translate(0 0.78125)" xlink:href="#DejaVuSans-Oblique-960"/>
      <use transform="translate(60.205078 0.78125)" xlink:href="#DejaVuSans-47"/>
      <use transform="translate(90.271484 0.78125)" xlink:href="#DejaVuSans-50"/>
     </g>
    </g>
   </g>
   <g id="text_8">
    <g clip-path="url(#p64be48d634)">
     <!-- H -->
     <g transform="translate(264.950173 138.049987)scale(0.13 -0.13)">
      <use xlink:href="#DejaVuSans-72"/>
     </g>
    </g>
   </g>
   <g id="text_9">
    <g clip-path="url(#p64be48d634)">
     <!-- P -->
     <g transform="translate(311.370079 133.618515)scale(0.13 -0.13)">
      <use xlink:href="#DejaVuSans-80"/>
     </g>
    </g>
   </g>
   <g id="text_10">
    <g clip-path="url(#p64be48d634)">
     <!-- $\pi$/4 -->
     <g transform="translate(308.969376 145.533245)scale(0.08 -0.08)">
      <use transform="translate(0 0.09375)" xlink:href="#DejaVuSans-Oblique-960"/>
      <use transform="translate(60.205078 0.09375)" xlink:href="#DejaVuSans-47"/>
      <use transform="translate(93.896484 0.09375)" xlink:href="#DejaVuSans-52"/>
     </g>
    </g>
   </g>
   <g id="text_11">
    <g clip-path="url(#p64be48d634)">
     <!-- P -->
     <g transform="translate(356.821079 133.618515)scale(0.13 -0.13)">
      <use xlink:href="#DejaVuSans-80"/>
     </g>
    </g>
   </g>
   <g id="text_12">
    <g clip-path="url(#p64be48d634)">
     <!-- $\pi$/2 -->
     <g transform="translate(354.580376 145.533245)scale(0.08 -0.08)">
      <use transform="translate(0 0.78125)" xlink:href="#DejaVuSans-Oblique-960"/>
      <use transform="translate(60.205078 0.78125)" xlink:href="#DejaVuSans-47"/>
      <use transform="translate(90.271484 0.78125)" xlink:href="#DejaVuSans-50"/>
     </g>
    </g>
   </g>
   <g id="text_13">
    <g clip-path="url(#p64be48d634)">
     <!-- H -->
     <g transform="translate(401.303173 92.598987)scale(0.13 -0.13)">
      <use xlink:href="#DejaVuSans-72"/>
     </g>
    </g>
   </g>
   <g id="text_14">
    <g clip-path="url(#p64be48d634)">
     <!-- P -->
     <g transform="translate(447.723079 88.167515)scale(0.13 -0.13)">
      <use xlink:href="#DejaVuSans-80"/>
     </g>
    </g>
   </g>
   <g id="text_15">
    <g clip-path="url(#p64be48d634)">
     <!-- $\pi$/2 -->
     <g transform="translate(445.482376 100.082245)scale(0.08 -0.08)">
      <use transform="translate(0 0.78125)" xlink:href="#DejaVuSans-Oblique-960"/>
      <use transform="translate(60.205078 0.78125)" xlink:href="#DejaVuSans-47"/>
      <use transform="translate(90.271484 0.78125)" xlink:href="#DejaVuSans-50"/>
     </g>
    </g>
   </g>
   <g id="text_16">
    <g clip-path="url(#p64be48d634)">
     <!-- H -->
     <g transform="translate(492.205173 47.147987)scale(0.13 -0.13)">
      <use xlink:href="#DejaVuSans-72"/>
     </g>
    </g>
   </g>
   <g id="text_17">
    <g clip-path="url(#p64be48d634)">
     <!-- ${q}_{0}$ -->
     <defs>
      <path d="M 41.703125 8.203125 
Q 38.09375 3.46875 33.171875 1.015625 
Q 28.265625 -1.421875 22.3125 -1.421875 
Q 14.015625 -1.421875 9.296875 4.171875 
Q 4.59375 9.765625 4.59375 19.578125 
Q 4.59375 27.484375 7.5 34.859375 
Q 10.40625 42.234375 15.828125 48.09375 
Q 19.34375 51.90625 23.90625 53.953125 
Q 28.46875 56 33.5 56 
Q 39.546875 56 43.453125 53.609375 
Q 47.359375 51.21875 49.125 46.390625 
L 50.6875 54.59375 
L 59.71875 54.59375 
L 45.125 -20.609375 
L 36.078125 -20.609375 
z
M 13.921875 20.90625 
Q 13.921875 13.671875 16.9375 9.890625 
Q 19.96875 6.109375 25.6875 6.109375 
Q 34.1875 6.109375 40.1875 14.234375 
Q 46.1875 22.359375 46.1875 33.984375 
Q 46.1875 41.015625 43.078125 44.75 
Q 39.984375 48.484375 34.1875 48.484375 
Q 29.9375 48.484375 26.3125 46.5 
Q 22.703125 44.53125 20.015625 40.71875 
Q 17.1875 36.71875 15.546875 31.34375 
Q 13.921875 25.984375 13.921875 20.90625 
z
" id="DejaVuSans-Oblique-113"/>
      <path d="M 31.78125 66.40625 
Q 24.171875 66.40625 20.328125 58.90625 
Q 16.5 51.421875 16.5 36.375 
Q 16.5 21.390625 20.328125 13.890625 
Q 24.171875 6.390625 31.78125 6.390625 
Q 39.453125 6.390625 43.28125 13.890625 
Q 47.125 21.390625 47.125 36.375 
Q 47.125 51.421875 43.28125 58.90625 
Q 39.453125 66.40625 31.78125 66.40625 
z
M 31.78125 74.21875 
Q 44.046875 74.21875 50.515625 64.515625 
Q 56.984375 54.828125 56.984375 36.375 
Q 56.984375 17.96875 50.515625 8.265625 
Q 44.046875 -1.421875 31.78125 -1.421875 
Q 19.53125 -1.421875 13.0625 8.265625 
Q 6.59375 17.96875 6.59375 36.375 
Q 6.59375 54.828125 13.0625 64.515625 
Q 19.53125 74.21875 31.78125 74.21875 
z
" id="DejaVuSans-48"/>
     </defs>
     <g transform="translate(36.363136 48.011777)scale(0.1625 -0.1625)">
      <use xlink:href="#DejaVuSans-Oblique-113"/>
      <use transform="translate(63.476562 -16.40625)scale(0.7)" xlink:href="#DejaVuSans-48"/>
     </g>
    </g>
   </g>
   <g id="text_18">
    <g clip-path="url(#p64be48d634)">
     <!-- ${q}_{1}$ -->
     <defs>
      <path d="M 12.40625 8.296875 
L 28.515625 8.296875 
L 28.515625 63.921875 
L 10.984375 60.40625 
L 10.984375 69.390625 
L 28.421875 72.90625 
L 38.28125 72.90625 
L 38.28125 8.296875 
L 54.390625 8.296875 
L 54.390625 0 
L 12.40625 0 
z
" id="DejaVuSans-49"/>
     </defs>
     <g transform="translate(36.363136 93.462777)scale(0.1625 -0.1625)">
      <use xlink:href="#DejaVuSans-Oblique-113"/>
      <use transform="translate(63.476562 -16.40625)scale(0.7)" xlink:href="#DejaVuSans-49"/>
     </g>
    </g>
   </g>
   <g id="text_19">
    <g clip-path="url(#p64be48d634)">
     <!-- ${q}_{2}$ -->
     <g transform="translate(36.363136 138.913777)scale(0.1625 -0.1625)">
      <use xlink:href="#DejaVuSans-Oblique-113"/>
      <use transform="translate(63.476562 -16.40625)scale(0.7)" xlink:href="#DejaVuSans-50"/>
     </g>
    </g>
   </g>
   <g id="text_20">
    <g clip-path="url(#p64be48d634)">
     <!-- ${q}_{3}$ -->
     <defs>
      <path d="M 40.578125 39.3125 
Q 47.65625 37.796875 51.625 33 
Q 55.609375 28.21875 55.609375 21.1875 
Q 55.609375 10.40625 48.1875 4.484375 
Q 40.765625 -1.421875 27.09375 -1.421875 
Q 22.515625 -1.421875 17.65625 -0.515625 
Q 12.796875 0.390625 7.625 2.203125 
L 7.625 11.71875 
Q 11.71875 9.328125 16.59375 8.109375 
Q 21.484375 6.890625 26.8125 6.890625 
Q 36.078125 6.890625 40.9375 10.546875 
Q 45.796875 14.203125 45.796875 21.1875 
Q 45.796875 27.640625 41.28125 31.265625 
Q 36.765625 34.90625 28.71875 34.90625 
L 20.21875 34.90625 
L 20.21875 43.015625 
L 29.109375 43.015625 
Q 36.375 43.015625 40.234375 45.921875 
Q 44.09375 48.828125 44.09375 54.296875 
Q 44.09375 59.90625 40.109375 62.90625 
Q 36.140625 65.921875 28.71875 65.921875 
Q 24.65625 65.921875 20.015625 65.03125 
Q 15.375 64.15625 9.8125 62.3125 
L 9.8125 71.09375 
Q 15.4375 72.65625 20.34375 73.4375 
Q 25.25 74.21875 29.59375 74.21875 
Q 40.828125 74.21875 47.359375 69.109375 
Q 53.90625 64.015625 53.90625 55.328125 
Q 53.90625 49.265625 50.4375 45.09375 
Q 46.96875 40.921875 40.578125 39.3125 
z
" id="DejaVuSans-51"/>
     </defs>
     <g transform="translate(36.363136 184.364777)scale(0.1625 -0.1625)">
      <use xlink:href="#DejaVuSans-Oblique-113"/>
      <use transform="translate(63.476562 -16.40625)scale(0.7)" xlink:href="#DejaVuSans-51"/>
     </g>
    </g>
   </g>
  </g>
 </g>
 <defs>
  <clipPath id="p64be48d634">
   <rect height="199.9844" width="565.342036" x="7.2" y="7.2"/>
  </clipPath>
 </defs>
</svg>
