<?xml version="1.0" encoding="utf-8" standalone="no"?>
<!DOCTYPE svg PUBLIC "-//W3C//DTD SVG 1.1//EN"
  "http://www.w3.org/Graphics/SVG/1.1/DTD/svg11.dtd">
<!-- Created with matplotlib (https://matplotlib.org/) -->
<svg height="350.7374pt" version="1.1" viewBox="0 0 625.193036 350.7374" width="625.193036pt" xmlns="http://www.w3.org/2000/svg" xmlns:xlink="http://www.w3.org/1999/xlink">
 <defs>
  <style type="text/css">
*{stroke-linecap:butt;stroke-linejoin:round;}
  </style>
 </defs>
 <g id="figure_1">
  <g id="patch_1">
   <path d="M -0 350.7374 
L 625.193036 350.7374 
L 625.193036 0 
L -0 0 
z
" style="fill:#ffffff;"/>
  </g>
  <g id="axes_1">
   <g id="patch_2">
    <path clip-path="url(#p2cd25f5d99)" d="M 491.184746 305.926697 
L 503.002006 305.926697 
L 497.093376 314.44876 
z
" style="fill:#778899;"/>
   </g>
   <g id="patch_3">
    <path clip-path="url(#p2cd25f5d99)" d="M 536.635746 305.926697 
L 548.453006 305.926697 
L 542.544376 314.44876 
z
" style="fill:#778899;"/>
   </g>
   <g id="patch_4">
    <path clip-path="url(#p2cd25f5d99)" d="M 582.086746 305.926697 
L 593.904006 305.926697 
L 587.995376 314.44876 
z
" style="fill:#778899;"/>
   </g>
   <g id="line2d_1">
    <path clip-path="url(#p2cd25f5d99)" d="M 63.490836 43.5608 
L 613.447936 43.5608 
" style="fill:none;stroke:#000000;stroke-linecap:square;stroke-width:2;"/>
   </g>
   <g id="line2d_2">
    <path clip-path="url(#p2cd25f5d99)" d="M 63.490836 89.0118 
L 613.447936 89.0118 
" style="fill:none;stroke:#000000;stroke-linecap:square;stroke-width:2;"/>
   </g>
   <g id="line2d_3">
    <path clip-path="url(#p2cd25f5d99)" d="M 63.490836 134.4628 
L 613.447936 134.4628 
" style="fill:none;stroke:#000000;stroke-linecap:square;stroke-width:2;"/>
   </g>
   <g id="line2d_4">
    <path clip-path="url(#p2cd25f5d99)" d="M 63.490836 179.9138 
L 613.447936 179.9138 
" style="fill:none;stroke:#000000;stroke-linecap:square;stroke-width:2;"/>
   </g>
   <g id="line2d_5">
    <path clip-path="url(#p2cd25f5d99)" d="M 63.490836 225.3648 
L 613.447936 225.3648 
" style="fill:none;stroke:#000000;stroke-linecap:square;stroke-width:2;"/>
   </g>
   <g id="line2d_6">
    <path clip-path="url(#p2cd25f5d99)" d="M 63.490836 270.8158 
L 613.447936 270.8158 
" style="fill:none;stroke:#000000;stroke-linecap:square;stroke-width:2;"/>
   </g>
   <g id="line2d_7">
    <path clip-path="url(#p2cd25f5d99)" d="M 63.490836 314.789642 
L 613.447936 314.789642 
" style="fill:none;stroke:#778899;stroke-linecap:square;stroke-width:2;"/>
   </g>
   <g id="line2d_8">
    <path clip-path="url(#p2cd25f5d99)" d="M 63.490836 317.743957 
L 613.447936 317.743957 
" style="fill:none;stroke:#778899;stroke-linecap:square;stroke-width:2;"/>
   </g>
   <g id="patch_5">
    <path clip-path="url(#p2cd25f5d99)" d="M 124.622431 66.2863 
L 142.348321 66.2863 
L 142.348321 20.8353 
L 124.622431 20.8353 
z
" style="fill:#bdbdbd;opacity:0.6;"/>
   </g>
   <g id="patch_6">
    <path clip-path="url(#p2cd25f5d99)" d="M 124.622431 111.7373 
L 142.348321 111.7373 
L 142.348321 66.2863 
L 124.622431 66.2863 
z
" style="fill:#bdbdbd;opacity:0.6;"/>
   </g>
   <g id="patch_7">
    <path clip-path="url(#p2cd25f5d99)" d="M 124.622431 157.1883 
L 142.348321 157.1883 
L 142.348321 111.7373 
L 124.622431 111.7373 
z
" style="fill:#bdbdbd;opacity:0.6;"/>
   </g>
   <g id="patch_8">
    <path clip-path="url(#p2cd25f5d99)" d="M 124.622431 202.6393 
L 142.348321 202.6393 
L 142.348321 157.1883 
L 124.622431 157.1883 
z
" style="fill:#bdbdbd;opacity:0.6;"/>
   </g>
   <g id="patch_9">
    <path clip-path="url(#p2cd25f5d99)" d="M 124.622431 248.0903 
L 142.348321 248.0903 
L 142.348321 202.6393 
L 124.622431 202.6393 
z
" style="fill:#bdbdbd;opacity:0.6;"/>
   </g>
   <g id="patch_10">
    <path clip-path="url(#p2cd25f5d99)" d="M 124.622431 293.5413 
L 142.348321 293.5413 
L 142.348321 248.0903 
L 124.622431 248.0903 
z
" style="fill:#bdbdbd;opacity:0.6;"/>
   </g>
   <g id="patch_11">
    <path clip-path="url(#p2cd25f5d99)" d="M 397.328431 66.2863 
L 415.054321 66.2863 
L 415.054321 20.8353 
L 397.328431 20.8353 
z
" style="fill:#bdbdbd;opacity:0.6;"/>
   </g>
   <g id="patch_12">
    <path clip-path="url(#p2cd25f5d99)" d="M 397.328431 111.7373 
L 415.054321 111.7373 
L 415.054321 66.2863 
L 397.328431 66.2863 
z
" style="fill:#bdbdbd;opacity:0.6;"/>
   </g>
   <g id="patch_13">
    <path clip-path="url(#p2cd25f5d99)" d="M 397.328431 157.1883 
L 415.054321 157.1883 
L 415.054321 111.7373 
L 397.328431 111.7373 
z
" style="fill:#bdbdbd;opacity:0.6;"/>
   </g>
   <g id="patch_14">
    <path clip-path="url(#p2cd25f5d99)" d="M 397.328431 202.6393 
L 415.054321 202.6393 
L 415.054321 157.1883 
L 397.328431 157.1883 
z
" style="fill:#bdbdbd;opacity:0.6;"/>
   </g>
   <g id="patch_15">
    <path clip-path="url(#p2cd25f5d99)" d="M 397.328431 248.0903 
L 415.054321 248.0903 
L 415.054321 202.6393 
L 397.328431 202.6393 
z
" style="fill:#bdbdbd;opacity:0.6;"/>
   </g>
   <g id="patch_16">
    <path clip-path="url(#p2cd25f5d99)" d="M 397.328431 293.5413 
L 415.054321 293.5413 
L 415.054321 248.0903 
L 397.328431 248.0903 
z
" style="fill:#bdbdbd;opacity:0.6;"/>
   </g>
   <g id="line2d_9">
    <path clip-path="url(#p2cd25f5d99)" d="M 178.936376 179.9138 
L 178.936376 43.5608 
" style="fill:none;stroke:#6fa4ff;stroke-linecap:square;stroke-width:2;"/>
   </g>
   <g id="line2d_10">
    <path clip-path="url(#p2cd25f5d99)" d="M 224.387376 225.3648 
L 224.387376 89.0118 
" style="fill:none;stroke:#6fa4ff;stroke-linecap:square;stroke-width:2;"/>
   </g>
   <g id="line2d_11">
    <path clip-path="url(#p2cd25f5d99)" d="M 269.838376 270.8158 
L 269.838376 134.4628 
" style="fill:none;stroke:#6fa4ff;stroke-linecap:square;stroke-width:2;"/>
   </g>
   <g id="line2d_12">
    <path clip-path="url(#p2cd25f5d99)" d="M 315.289376 225.3648 
L 315.289376 89.0118 
" style="fill:none;stroke:#6fa4ff;stroke-linecap:square;stroke-width:2;"/>
   </g>
   <g id="line2d_13">
    <path clip-path="url(#p2cd25f5d99)" d="M 360.740376 270.8158 
L 360.740376 89.0118 
" style="fill:none;stroke:#6fa4ff;stroke-linecap:square;stroke-width:2;"/>
   </g>
   <g id="line2d_14">
    <path clip-path="url(#p2cd25f5d99)" d="M 498.570534 43.5608 
L 498.570534 305.926697 
" style="fill:none;stroke:#778899;stroke-linecap:square;stroke-width:2;"/>
   </g>
   <g id="line2d_15">
    <path clip-path="url(#p2cd25f5d99)" d="M 495.616219 43.5608 
L 495.616219 305.926697 
" style="fill:none;stroke:#778899;stroke-linecap:square;stroke-width:2;"/>
   </g>
   <g id="line2d_16">
    <path clip-path="url(#p2cd25f5d99)" d="M 544.021534 89.0118 
L 544.021534 305.926697 
" style="fill:none;stroke:#778899;stroke-linecap:square;stroke-width:2;"/>
   </g>
   <g id="line2d_17">
    <path clip-path="url(#p2cd25f5d99)" d="M 541.067219 89.0118 
L 541.067219 305.926697 
" style="fill:none;stroke:#778899;stroke-linecap:square;stroke-width:2;"/>
   </g>
   <g id="line2d_18">
    <path clip-path="url(#p2cd25f5d99)" d="M 589.472534 134.4628 
L 589.472534 305.926697 
" style="fill:none;stroke:#778899;stroke-linecap:square;stroke-width:2;"/>
   </g>
   <g id="line2d_19">
    <path clip-path="url(#p2cd25f5d99)" d="M 586.518219 134.4628 
L 586.518219 305.926697 
" style="fill:none;stroke:#778899;stroke-linecap:square;stroke-width:2;"/>
   </g>
   <g id="line2d_20">
    <path clip-path="url(#p2cd25f5d99)" d="M 72.581036 320.8119 
L 77.126136 311.7217 
" style="fill:none;stroke:#778899;stroke-linecap:square;stroke-width:1.5;"/>
   </g>
   <g id="patch_17">
    <path clip-path="url(#p2cd25f5d99)" d="M 73.262801 58.332375 
L 102.805951 58.332375 
L 102.805951 28.789225 
L 73.262801 28.789225 
z
" style="fill:#6fa4ff;stroke:#6fa4ff;stroke-linejoin:miter;stroke-width:1.5;"/>
   </g>
   <g id="patch_18">
    <path clip-path="url(#p2cd25f5d99)" d="M 73.262801 103.783375 
L 102.805951 103.783375 
L 102.805951 74.240225 
L 73.262801 74.240225 
z
" style="fill:#6fa4ff;stroke:#6fa4ff;stroke-linejoin:miter;stroke-width:1.5;"/>
   </g>
   <g id="patch_19">
    <path clip-path="url(#p2cd25f5d99)" d="M 73.262801 149.234375 
L 102.805951 149.234375 
L 102.805951 119.691225 
L 73.262801 119.691225 
z
" style="fill:#6fa4ff;stroke:#6fa4ff;stroke-linejoin:miter;stroke-width:1.5;"/>
   </g>
   <g id="patch_20">
    <path clip-path="url(#p2cd25f5d99)" d="M 178.936376 47.992272 
C 180.111616 47.992272 181.23888 47.525345 182.069901 46.694324 
C 182.900921 45.863304 183.367849 44.73604 183.367849 43.5608 
C 183.367849 42.38556 182.900921 41.258296 182.069901 40.427276 
C 181.23888 39.596255 180.111616 39.129327 178.936376 39.129327 
C 177.761136 39.129327 176.633872 39.596255 175.802852 40.427276 
C 174.971832 41.258296 174.504904 42.38556 174.504904 43.5608 
C 174.504904 44.73604 174.971832 45.863304 175.802852 46.694324 
C 176.633872 47.525345 177.761136 47.992272 178.936376 47.992272 
z
" style="fill:#6fa4ff;stroke:#6fa4ff;stroke-linejoin:miter;stroke-width:1.5;"/>
   </g>
   <g id="patch_21">
    <path clip-path="url(#p2cd25f5d99)" d="M 178.936376 190.253902 
C 181.678603 190.253902 184.308885 189.164404 186.247933 187.225357 
C 188.18698 185.286309 189.276479 182.656027 189.276479 179.9138 
C 189.276479 177.171573 188.18698 174.541291 186.247933 172.602243 
C 184.308885 170.663196 181.678603 169.573697 178.936376 169.573697 
C 176.194149 169.573697 173.563867 170.663196 171.62482 172.602243 
C 169.685772 174.541291 168.596274 177.171573 168.596274 179.9138 
C 168.596274 182.656027 169.685772 185.286309 171.62482 187.225357 
C 173.563867 189.164404 176.194149 190.253902 178.936376 190.253902 
z
" style="fill:#6fa4ff;stroke:#6fa4ff;stroke-linejoin:miter;stroke-width:2;"/>
   </g>
   <g id="patch_22">
    <path clip-path="url(#p2cd25f5d99)" d="M 224.387376 93.443272 
C 225.562616 93.443272 226.68988 92.976345 227.520901 92.145324 
C 228.351921 91.314304 228.818849 90.18704 228.818849 89.0118 
C 228.818849 87.83656 228.351921 86.709296 227.520901 85.878276 
C 226.68988 85.047255 225.562616 84.580327 224.387376 84.580327 
C 223.212136 84.580327 222.084872 85.047255 221.253852 85.878276 
C 220.422832 86.709296 219.955904 87.83656 219.955904 89.0118 
C 219.955904 90.18704 220.422832 91.314304 221.253852 92.145324 
C 222.084872 92.976345 223.212136 93.443272 224.387376 93.443272 
z
" style="fill:#6fa4ff;stroke:#6fa4ff;stroke-linejoin:miter;stroke-width:1.5;"/>
   </g>
   <g id="patch_23">
    <path clip-path="url(#p2cd25f5d99)" d="M 224.387376 235.704902 
C 227.129603 235.704902 229.759885 234.615404 231.698933 232.676357 
C 233.63798 230.737309 234.727479 228.107027 234.727479 225.3648 
C 234.727479 222.622573 233.63798 219.992291 231.698933 218.053243 
C 229.759885 216.114196 227.129603 215.024697 224.387376 215.024697 
C 221.645149 215.024697 219.014867 216.114196 217.07582 218.053243 
C 215.136772 219.992291 214.047274 222.622573 214.047274 225.3648 
C 214.047274 228.107027 215.136772 230.737309 217.07582 232.676357 
C 219.014867 234.615404 221.645149 235.704902 224.387376 235.704902 
z
" style="fill:#6fa4ff;stroke:#6fa4ff;stroke-linejoin:miter;stroke-width:2;"/>
   </g>
   <g id="patch_24">
    <path clip-path="url(#p2cd25f5d99)" d="M 269.838376 138.894272 
C 271.013616 138.894272 272.14088 138.427345 272.971901 137.596324 
C 273.802921 136.765304 274.269849 135.63804 274.269849 134.4628 
C 274.269849 133.28756 273.802921 132.160296 272.971901 131.329276 
C 272.14088 130.498255 271.013616 130.031327 269.838376 130.031327 
C 268.663136 130.031327 267.535872 130.498255 266.704852 131.329276 
C 265.873832 132.160296 265.406904 133.28756 265.406904 134.4628 
C 265.406904 135.63804 265.873832 136.765304 266.704852 137.596324 
C 267.535872 138.427345 268.663136 138.894272 269.838376 138.894272 
z
" style="fill:#6fa4ff;stroke:#6fa4ff;stroke-linejoin:miter;stroke-width:1.5;"/>
   </g>
   <g id="patch_25">
    <path clip-path="url(#p2cd25f5d99)" d="M 269.838376 281.155902 
C 272.580603 281.155902 275.210885 280.066404 277.149933 278.127357 
C 279.08898 276.188309 280.178479 273.558027 280.178479 270.8158 
C 280.178479 268.073573 279.08898 265.443291 277.149933 263.504243 
C 275.210885 261.565196 272.580603 260.475697 269.838376 260.475697 
C 267.096149 260.475697 264.465867 261.565196 262.52682 263.504243 
C 260.587772 265.443291 259.498274 268.073573 259.498274 270.8158 
C 259.498274 273.558027 260.587772 276.188309 262.52682 278.127357 
C 264.465867 280.066404 267.096149 281.155902 269.838376 281.155902 
z
" style="fill:#6fa4ff;stroke:#6fa4ff;stroke-linejoin:miter;stroke-width:2;"/>
   </g>
   <g id="patch_26">
    <path clip-path="url(#p2cd25f5d99)" d="M 315.289376 93.443272 
C 316.464616 93.443272 317.59188 92.976345 318.422901 92.145324 
C 319.253921 91.314304 319.720849 90.18704 319.720849 89.0118 
C 319.720849 87.83656 319.253921 86.709296 318.422901 85.878276 
C 317.59188 85.047255 316.464616 84.580327 315.289376 84.580327 
C 314.114136 84.580327 312.986872 85.047255 312.155852 85.878276 
C 311.324832 86.709296 310.857904 87.83656 310.857904 89.0118 
C 310.857904 90.18704 311.324832 91.314304 312.155852 92.145324 
C 312.986872 92.976345 314.114136 93.443272 315.289376 93.443272 
z
" style="fill:#6fa4ff;stroke:#6fa4ff;stroke-linejoin:miter;stroke-width:1.5;"/>
   </g>
   <g id="patch_27">
    <path clip-path="url(#p2cd25f5d99)" d="M 315.289376 235.704902 
C 318.031603 235.704902 320.661885 234.615404 322.600933 232.676357 
C 324.53998 230.737309 325.629479 228.107027 325.629479 225.3648 
C 325.629479 222.622573 324.53998 219.992291 322.600933 218.053243 
C 320.661885 216.114196 318.031603 215.024697 315.289376 215.024697 
C 312.547149 215.024697 309.916867 216.114196 307.97782 218.053243 
C 306.038772 219.992291 304.949274 222.622573 304.949274 225.3648 
C 304.949274 228.107027 306.038772 230.737309 307.97782 232.676357 
C 309.916867 234.615404 312.547149 235.704902 315.289376 235.704902 
z
" style="fill:#6fa4ff;stroke:#6fa4ff;stroke-linejoin:miter;stroke-width:2;"/>
   </g>
   <g id="patch_28">
    <path clip-path="url(#p2cd25f5d99)" d="M 360.740376 93.443272 
C 361.915616 93.443272 363.04288 92.976345 363.873901 92.145324 
C 364.704921 91.314304 365.171849 90.18704 365.171849 89.0118 
C 365.171849 87.83656 364.704921 86.709296 363.873901 85.878276 
C 363.04288 85.047255 361.915616 84.580327 360.740376 84.580327 
C 359.565136 84.580327 358.437872 85.047255 357.606852 85.878276 
C 356.775832 86.709296 356.308904 87.83656 356.308904 89.0118 
C 356.308904 90.18704 356.775832 91.314304 357.606852 92.145324 
C 358.437872 92.976345 359.565136 93.443272 360.740376 93.443272 
z
" style="fill:#6fa4ff;stroke:#6fa4ff;stroke-linejoin:miter;stroke-width:1.5;"/>
   </g>
   <g id="patch_29">
    <path clip-path="url(#p2cd25f5d99)" d="M 360.740376 281.155902 
C 363.482603 281.155902 366.112885 280.066404 368.051933 278.127357 
C 369.99098 276.188309 371.080479 273.558027 371.080479 270.8158 
C 371.080479 268.073573 369.99098 265.443291 368.051933 263.504243 
C 366.112885 261.565196 363.482603 260.475697 360.740376 260.475697 
C 357.998149 260.475697 355.367867 261.565196 353.42882 263.504243 
C 351.489772 265.443291 350.400274 268.073573 350.400274 270.8158 
C 350.400274 273.558027 351.489772 276.188309 353.42882 278.127357 
C 355.367867 280.066404 357.998149 281.155902 360.740376 281.155902 
z
" style="fill:#6fa4ff;stroke:#6fa4ff;stroke-linejoin:miter;stroke-width:2;"/>
   </g>
   <g id="patch_30">
    <path clip-path="url(#p2cd25f5d99)" d="M 436.870801 58.332375 
L 466.413951 58.332375 
L 466.413951 28.789225 
L 436.870801 28.789225 
z
" style="fill:#6fa4ff;stroke:#6fa4ff;stroke-linejoin:miter;stroke-width:1.5;"/>
   </g>
   <g id="patch_31">
    <path clip-path="url(#p2cd25f5d99)" d="M 436.870801 103.783375 
L 466.413951 103.783375 
L 466.413951 74.240225 
L 436.870801 74.240225 
z
" style="fill:#6fa4ff;stroke:#6fa4ff;stroke-linejoin:miter;stroke-width:1.5;"/>
   </g>
   <g id="patch_32">
    <path clip-path="url(#p2cd25f5d99)" d="M 436.870801 149.234375 
L 466.413951 149.234375 
L 466.413951 119.691225 
L 436.870801 119.691225 
z
" style="fill:#6fa4ff;stroke:#6fa4ff;stroke-linejoin:miter;stroke-width:1.5;"/>
   </g>
   <g id="patch_33">
    <path clip-path="url(#p2cd25f5d99)" d="M 482.321801 58.332375 
L 511.864951 58.332375 
L 511.864951 28.789225 
L 482.321801 28.789225 
z
" style="stroke:#000000;stroke-linejoin:miter;stroke-width:1.5;"/>
   </g>
   <g id="patch_34">
    <path clip-path="url(#p2cd25f5d99)" d="M 507.433479 47.992272 
C 507.433479 45.250959 506.343335 42.619118 504.404933 40.680716 
C 502.466531 38.742314 499.83469 37.65217 497.093376 37.65217 
C 494.352062 37.65217 491.720221 38.742314 489.78182 40.680716 
C 487.843418 42.619118 486.753274 45.250959 486.753274 47.992272 
" style="fill:none;stroke:#ffffff;stroke-linejoin:miter;stroke-width:2;"/>
   </g>
   <g id="patch_35">
    <path clip-path="url(#p2cd25f5d99)" d="M 527.772801 103.783375 
L 557.315951 103.783375 
L 557.315951 74.240225 
L 527.772801 74.240225 
z
" style="stroke:#000000;stroke-linejoin:miter;stroke-width:1.5;"/>
   </g>
   <g id="patch_36">
    <path clip-path="url(#p2cd25f5d99)" d="M 552.884479 93.443272 
C 552.884479 90.701959 551.794335 88.070118 549.855933 86.131716 
C 547.917531 84.193314 545.28569 83.10317 542.544376 83.10317 
C 539.803062 83.10317 537.171221 84.193314 535.23282 86.131716 
C 533.294418 88.070118 532.204274 90.701959 532.204274 93.443272 
" style="fill:none;stroke:#ffffff;stroke-linejoin:miter;stroke-width:2;"/>
   </g>
   <g id="patch_37">
    <path clip-path="url(#p2cd25f5d99)" d="M 573.223801 149.234375 
L 602.766951 149.234375 
L 602.766951 119.691225 
L 573.223801 119.691225 
z
" style="stroke:#000000;stroke-linejoin:miter;stroke-width:1.5;"/>
   </g>
   <g id="patch_38">
    <path clip-path="url(#p2cd25f5d99)" d="M 598.335479 138.894272 
C 598.335479 136.152959 597.245335 133.521118 595.306933 131.582716 
C 593.368531 129.644314 590.73669 128.55417 587.995376 128.55417 
C 585.254062 128.55417 582.622221 129.644314 580.68382 131.582716 
C 578.745418 133.521118 577.655274 136.152959 577.655274 138.894272 
" style="fill:none;stroke:#ffffff;stroke-linejoin:miter;stroke-width:2;"/>
   </g>
   <g id="line2d_21">
    <path clip-path="url(#p2cd25f5d99)" d="M 497.093376 47.992272 
L 507.433479 37.65217 
" style="fill:none;stroke:#ffffff;stroke-linecap:square;stroke-width:2;"/>
   </g>
   <g id="line2d_22">
    <path clip-path="url(#p2cd25f5d99)" d="M 542.544376 93.443272 
L 552.884479 83.10317 
" style="fill:none;stroke:#ffffff;stroke-linecap:square;stroke-width:2;"/>
   </g>
   <g id="line2d_23">
    <path clip-path="url(#p2cd25f5d99)" d="M 587.995376 138.894272 
L 598.335479 128.55417 
" style="fill:none;stroke:#ffffff;stroke-linecap:square;stroke-width:2;"/>
   </g>
   <g id="line2d_24">
    <path clip-path="url(#p2cd25f5d99)" d="M 133.485376 20.8353 
L 133.485376 66.2863 
" style="fill:none;stroke:#000000;stroke-dasharray:3.7,1.6;stroke-dashoffset:0;"/>
   </g>
   <g id="line2d_25">
    <path clip-path="url(#p2cd25f5d99)" d="M 133.485376 66.2863 
L 133.485376 111.7373 
" style="fill:none;stroke:#000000;stroke-dasharray:3.7,1.6;stroke-dashoffset:0;"/>
   </g>
   <g id="line2d_26">
    <path clip-path="url(#p2cd25f5d99)" d="M 133.485376 111.7373 
L 133.485376 157.1883 
" style="fill:none;stroke:#000000;stroke-dasharray:3.7,1.6;stroke-dashoffset:0;"/>
   </g>
   <g id="line2d_27">
    <path clip-path="url(#p2cd25f5d99)" d="M 133.485376 157.1883 
L 133.485376 202.6393 
" style="fill:none;stroke:#000000;stroke-dasharray:3.7,1.6;stroke-dashoffset:0;"/>
   </g>
   <g id="line2d_28">
    <path clip-path="url(#p2cd25f5d99)" d="M 133.485376 202.6393 
L 133.485376 248.0903 
" style="fill:none;stroke:#000000;stroke-dasharray:3.7,1.6;stroke-dashoffset:0;"/>
   </g>
   <g id="line2d_29">
    <path clip-path="url(#p2cd25f5d99)" d="M 133.485376 248.0903 
L 133.485376 293.5413 
" style="fill:none;stroke:#000000;stroke-dasharray:3.7,1.6;stroke-dashoffset:0;"/>
   </g>
   <g id="line2d_30">
    <path clip-path="url(#p2cd25f5d99)" d="M 178.936376 185.82243 
L 178.936376 174.00517 
" style="fill:none;stroke:#ffffff;stroke-linecap:square;stroke-width:2;"/>
   </g>
   <g id="line2d_31">
    <path clip-path="url(#p2cd25f5d99)" d="M 173.027746 179.9138 
L 184.845006 179.9138 
" style="fill:none;stroke:#ffffff;stroke-linecap:square;stroke-width:2;"/>
   </g>
   <g id="line2d_32">
    <path clip-path="url(#p2cd25f5d99)" d="M 224.387376 231.27343 
L 224.387376 219.45617 
" style="fill:none;stroke:#ffffff;stroke-linecap:square;stroke-width:2;"/>
   </g>
   <g id="line2d_33">
    <path clip-path="url(#p2cd25f5d99)" d="M 218.478746 225.3648 
L 230.296006 225.3648 
" style="fill:none;stroke:#ffffff;stroke-linecap:square;stroke-width:2;"/>
   </g>
   <g id="line2d_34">
    <path clip-path="url(#p2cd25f5d99)" d="M 269.838376 276.72443 
L 269.838376 264.90717 
" style="fill:none;stroke:#ffffff;stroke-linecap:square;stroke-width:2;"/>
   </g>
   <g id="line2d_35">
    <path clip-path="url(#p2cd25f5d99)" d="M 263.929746 270.8158 
L 275.747006 270.8158 
" style="fill:none;stroke:#ffffff;stroke-linecap:square;stroke-width:2;"/>
   </g>
   <g id="line2d_36">
    <path clip-path="url(#p2cd25f5d99)" d="M 315.289376 231.27343 
L 315.289376 219.45617 
" style="fill:none;stroke:#ffffff;stroke-linecap:square;stroke-width:2;"/>
   </g>
   <g id="line2d_37">
    <path clip-path="url(#p2cd25f5d99)" d="M 309.380746 225.3648 
L 321.198006 225.3648 
" style="fill:none;stroke:#ffffff;stroke-linecap:square;stroke-width:2;"/>
   </g>
   <g id="line2d_38">
    <path clip-path="url(#p2cd25f5d99)" d="M 360.740376 276.72443 
L 360.740376 264.90717 
" style="fill:none;stroke:#ffffff;stroke-linecap:square;stroke-width:2;"/>
   </g>
   <g id="line2d_39">
    <path clip-path="url(#p2cd25f5d99)" d="M 354.831746 270.8158 
L 366.649006 270.8158 
" style="fill:none;stroke:#ffffff;stroke-linecap:square;stroke-width:2;"/>
   </g>
   <g id="line2d_40">
    <path clip-path="url(#p2cd25f5d99)" d="M 406.191376 20.8353 
L 406.191376 66.2863 
" style="fill:none;stroke:#000000;stroke-dasharray:3.7,1.6;stroke-dashoffset:0;"/>
   </g>
   <g id="line2d_41">
    <path clip-path="url(#p2cd25f5d99)" d="M 406.191376 66.2863 
L 406.191376 111.7373 
" style="fill:none;stroke:#000000;stroke-dasharray:3.7,1.6;stroke-dashoffset:0;"/>
   </g>
   <g id="line2d_42">
    <path clip-path="url(#p2cd25f5d99)" d="M 406.191376 111.7373 
L 406.191376 157.1883 
" style="fill:none;stroke:#000000;stroke-dasharray:3.7,1.6;stroke-dashoffset:0;"/>
   </g>
   <g id="line2d_43">
    <path clip-path="url(#p2cd25f5d99)" d="M 406.191376 157.1883 
L 406.191376 202.6393 
" style="fill:none;stroke:#000000;stroke-dasharray:3.7,1.6;stroke-dashoffset:0;"/>
   </g>
   <g id="line2d_44">
    <path clip-path="url(#p2cd25f5d99)" d="M 406.191376 202.6393 
L 406.191376 248.0903 
" style="fill:none;stroke:#000000;stroke-dasharray:3.7,1.6;stroke-dashoffset:0;"/>
   </g>
   <g id="line2d_45">
    <path clip-path="url(#p2cd25f5d99)" d="M 406.191376 248.0903 
L 406.191376 293.5413 
" style="fill:none;stroke:#000000;stroke-dasharray:3.7,1.6;stroke-dashoffset:0;"/>
   </g>
   <g id="text_1">
    <g clip-path="url(#p2cd25f5d99)">
     <!-- H -->
     <defs>
      <path d="M 9.8125 72.90625 
L 19.671875 72.90625 
L 19.671875 43.015625 
L 55.515625 43.015625 
L 55.515625 72.90625 
L 65.375 72.90625 
L 65.375 0 
L 55.515625 0 
L 55.515625 34.71875 
L 19.671875 34.71875 
L 19.671875 0 
L 9.8125 0 
z
" id="DejaVuSans-72"/>
     </defs>
     <g transform="translate(83.146173 47.147987)scale(0.13 -0.13)">
      <use xlink:href="#DejaVuSans-72"/>
     </g>
    </g>
   </g>
   <g id="text_2">
    <g clip-path="url(#p2cd25f5d99)">
     <!-- H -->
     <g transform="translate(83.146173 92.598987)scale(0.13 -0.13)">
      <use xlink:href="#DejaVuSans-72"/>
     </g>
    </g>
   </g>
   <g id="text_3">
    <g clip-path="url(#p2cd25f5d99)">
     <!-- H -->
     <g transform="translate(83.146173 138.049987)scale(0.13 -0.13)">
      <use xlink:href="#DejaVuSans-72"/>
     </g>
    </g>
   </g>
   <g id="text_4">
    <g clip-path="url(#p2cd25f5d99)">
     <!-- H -->
     <g transform="translate(446.754173 47.147987)scale(0.13 -0.13)">
      <use xlink:href="#DejaVuSans-72"/>
     </g>
    </g>
   </g>
   <g id="text_5">
    <g clip-path="url(#p2cd25f5d99)">
     <!-- H -->
     <g transform="translate(446.754173 92.598987)scale(0.13 -0.13)">
      <use xlink:href="#DejaVuSans-72"/>
     </g>
    </g>
   </g>
   <g id="text_6">
    <g clip-path="url(#p2cd25f5d99)">
     <!-- H -->
     <g transform="translate(446.754173 138.049987)scale(0.13 -0.13)">
      <use xlink:href="#DejaVuSans-72"/>
     </g>
    </g>
   </g>
   <g id="text_7">
    <g clip-path="url(#p2cd25f5d99)">
     <!-- 0 -->
     <defs>
      <path d="M 31.78125 66.40625 
Q 24.171875 66.40625 20.328125 58.90625 
Q 16.5 51.421875 16.5 36.375 
Q 16.5 21.390625 20.328125 13.890625 
Q 24.171875 6.390625 31.78125 6.390625 
Q 39.453125 6.390625 43.28125 13.890625 
Q 47.125 21.390625 47.125 36.375 
Q 47.125 51.421875 43.28125 58.90625 
Q 39.453125 66.40625 31.78125 66.40625 
z
M 31.78125 74.21875 
Q 44.046875 74.21875 50.515625 64.515625 
Q 56.984375 54.828125 56.984375 36.375 
Q 56.984375 17.96875 50.515625 8.265625 
Q 44.046875 -1.421875 31.78125 -1.421875 
Q 19.53125 -1.421875 13.0625 8.265625 
Q 6.59375 17.96875 6.59375 36.375 
Q 6.59375 54.828125 13.0625 64.515625 
Q 19.53125 74.21875 31.78125 74.21875 
z
" id="DejaVuSans-48"/>
     </defs>
     <g transform="translate(508.456126 309.558825)scale(0.104 -0.104)">
      <use xlink:href="#DejaVuSans-48"/>
     </g>
    </g>
   </g>
   <g id="text_8">
    <g clip-path="url(#p2cd25f5d99)">
     <!-- 1 -->
     <defs>
      <path d="M 12.40625 8.296875 
L 28.515625 8.296875 
L 28.515625 63.921875 
L 10.984375 60.40625 
L 10.984375 69.390625 
L 28.421875 72.90625 
L 38.28125 72.90625 
L 38.28125 8.296875 
L 54.390625 8.296875 
L 54.390625 0 
L 12.40625 0 
z
" id="DejaVuSans-49"/>
     </defs>
     <g transform="translate(553.907126 309.558825)scale(0.104 -0.104)">
      <use xlink:href="#DejaVuSans-49"/>
     </g>
    </g>
   </g>
   <g id="text_9">
    <g clip-path="url(#p2cd25f5d99)">
     <!-- 2 -->
     <defs>
      <path d="M 19.1875 8.296875 
L 53.609375 8.296875 
L 53.609375 0 
L 7.328125 0 
L 7.328125 8.296875 
Q 12.9375 14.109375 22.625 23.890625 
Q 32.328125 33.6875 34.8125 36.53125 
Q 39.546875 41.84375 41.421875 45.53125 
Q 43.3125 49.21875 43.3125 52.78125 
Q 43.3125 58.59375 39.234375 62.25 
Q 35.15625 65.921875 28.609375 65.921875 
Q 23.96875 65.921875 18.8125 64.3125 
Q 13.671875 62.703125 7.8125 59.421875 
L 7.8125 69.390625 
Q 13.765625 71.78125 18.9375 73 
Q 24.125 74.21875 28.421875 74.21875 
Q 39.75 74.21875 46.484375 68.546875 
Q 53.21875 62.890625 53.21875 53.421875 
Q 53.21875 48.921875 51.53125 44.890625 
Q 49.859375 40.875 45.40625 35.40625 
Q 44.1875 33.984375 37.640625 27.21875 
Q 31.109375 20.453125 19.1875 8.296875 
z
" id="DejaVuSans-50"/>
     </defs>
     <g transform="translate(599.358126 309.558825)scale(0.104 -0.104)">
      <use xlink:href="#DejaVuSans-50"/>
     </g>
    </g>
   </g>
   <g id="text_10">
    <g clip-path="url(#p2cd25f5d99)">
     <!-- ${q}_{0}$ -->
     <defs>
      <path d="M 41.703125 8.203125 
Q 38.09375 3.46875 33.171875 1.015625 
Q 28.265625 -1.421875 22.3125 -1.421875 
Q 14.015625 -1.421875 9.296875 4.171875 
Q 4.59375 9.765625 4.59375 19.578125 
Q 4.59375 27.484375 7.5 34.859375 
Q 10.40625 42.234375 15.828125 48.09375 
Q 19.34375 51.90625 23.90625 53.953125 
Q 28.46875 56 33.5 56 
Q 39.546875 56 43.453125 53.609375 
Q 47.359375 51.21875 49.125 46.390625 
L 50.6875 54.59375 
L 59.71875 54.59375 
L 45.125 -20.609375 
L 36.078125 -20.609375 
z
M 13.921875 20.90625 
Q 13.921875 13.671875 16.9375 9.890625 
Q 19.96875 6.109375 25.6875 6.109375 
Q 34.1875 6.109375 40.1875 14.234375 
Q 46.1875 22.359375 46.1875 33.984375 
Q 46.1875 41.015625 43.078125 44.75 
Q 39.984375 48.484375 34.1875 48.484375 
Q 29.9375 48.484375 26.3125 46.5 
Q 22.703125 44.53125 20.015625 40.71875 
Q 17.1875 36.71875 15.546875 31.34375 
Q 13.921875 25.984375 13.921875 20.90625 
z
" id="DejaVuSans-Oblique-113"/>
     </defs>
     <g transform="translate(36.363136 48.011777)scale(0.1625 -0.1625)">
      <use xlink:href="#DejaVuSans-Oblique-113"/>
      <use transform="translate(63.476562 -16.40625)scale(0.7)" xlink:href="#DejaVuSans-48"/>
     </g>
    </g>
   </g>
   <g id="text_11">
    <g clip-path="url(#p2cd25f5d99)">
     <!-- ${q}_{1}$ -->
     <g transform="translate(36.363136 93.462777)scale(0.1625 -0.1625)">
      <use xlink:href="#DejaVuSans-Oblique-113"/>
      <use transform="translate(63.476562 -16.40625)scale(0.7)" xlink:href="#DejaVuSans-49"/>
     </g>
    </g>
   </g>
   <g id="text_12">
    <g clip-path="url(#p2cd25f5d99)">
     <!-- ${q}_{2}$ -->
     <g transform="translate(36.363136 138.913777)scale(0.1625 -0.1625)">
      <use xlink:href="#DejaVuSans-Oblique-113"/>
      <use transform="translate(63.476562 -16.40625)scale(0.7)" xlink:href="#DejaVuSans-50"/>
     </g>
    </g>
   </g>
   <g id="text_13">
    <g clip-path="url(#p2cd25f5d99)">
     <!-- ${q}_{3}$ -->
     <defs>
      <path d="M 40.578125 39.3125 
Q 47.65625 37.796875 51.625 33 
Q 55.609375 28.21875 55.609375 21.1875 
Q 55.609375 10.40625 48.1875 4.484375 
Q 40.765625 -1.421875 27.09375 -1.421875 
Q 22.515625 -1.421875 17.65625 -0.515625 
Q 12.796875 0.390625 7.625 2.203125 
L 7.625 11.71875 
Q 11.71875 9.328125 16.59375 8.109375 
Q 21.484375 6.890625 26.8125 6.890625 
Q 36.078125 6.890625 40.9375 10.546875 
Q 45.796875 14.203125 45.796875 21.1875 
Q 45.796875 27.640625 41.28125 31.265625 
Q 36.765625 34.90625 28.71875 34.90625 
L 20.21875 34.90625 
L 20.21875 43.015625 
L 29.109375 43.015625 
Q 36.375 43.015625 40.234375 45.921875 
Q 44.09375 48.828125 44.09375 54.296875 
Q 44.09375 59.90625 40.109375 62.90625 
Q 36.140625 65.921875 28.71875 65.921875 
Q 24.65625 65.921875 20.015625 65.03125 
Q 15.375 64.15625 9.8125 62.3125 
L 9.8125 71.09375 
Q 15.4375 72.65625 20.34375 73.4375 
Q 25.25 74.21875 29.59375 74.21875 
Q 40.828125 74.21875 47.359375 69.109375 
Q 53.90625 64.015625 53.90625 55.328125 
Q 53.90625 49.265625 50.4375 45.09375 
Q 46.96875 40.921875 40.578125 39.3125 
z
" id="DejaVuSans-51"/>
     </defs>
     <g transform="translate(36.363136 184.364777)scale(0.1625 -0.1625)">
      <use xlink:href="#DejaVuSans-Oblique-113"/>
      <use transform="translate(63.476562 -16.40625)scale(0.7)" xlink:href="#DejaVuSans-51"/>
     </g>
    </g>
   </g>
   <g id="text_14">
    <g clip-path="url(#p2cd25f5d99)">
     <!-- ${q}_{4}$ -->
     <defs>
      <path d="M 37.796875 64.3125 
L 12.890625 25.390625 
L 37.796875 25.390625 
z
M 35.203125 72.90625 
L 47.609375 72.90625 
L 47.609375 25.390625 
L 58.015625 25.390625 
L 58.015625 17.1875 
L 47.609375 17.1875 
L 47.609375 0 
L 37.796875 0 
L 37.796875 17.1875 
L 4.890625 17.1875 
L 4.890625 26.703125 
z
" id="DejaVuSans-52"/>
     </defs>
     <g transform="translate(36.363136 229.815777)scale(0.1625 -0.1625)">
      <use xlink:href="#DejaVuSans-Oblique-113"/>
      <use transform="translate(63.476562 -16.40625)scale(0.7)" xlink:href="#DejaVuSans-52"/>
     </g>
    </g>
   </g>
   <g id="text_15">
    <g clip-path="url(#p2cd25f5d99)">
     <!-- ${q}_{5}$ -->
     <defs>
      <path d="M 10.796875 72.90625 
L 49.515625 72.90625 
L 49.515625 64.59375 
L 19.828125 64.59375 
L 19.828125 46.734375 
Q 21.96875 47.46875 24.109375 47.828125 
Q 26.265625 48.1875 28.421875 48.1875 
Q 40.625 48.1875 47.75 41.5 
Q 54.890625 34.8125 54.890625 23.390625 
Q 54.890625 11.625 47.5625 5.09375 
Q 40.234375 -1.421875 26.90625 -1.421875 
Q 22.3125 -1.421875 17.546875 -0.640625 
Q 12.796875 0.140625 7.71875 1.703125 
L 7.71875 11.625 
Q 12.109375 9.234375 16.796875 8.0625 
Q 21.484375 6.890625 26.703125 6.890625 
Q 35.15625 6.890625 40.078125 11.328125 
Q 45.015625 15.765625 45.015625 23.390625 
Q 45.015625 31 40.078125 35.4375 
Q 35.15625 39.890625 26.703125 39.890625 
Q 22.75 39.890625 18.8125 39.015625 
Q 14.890625 38.140625 10.796875 36.28125 
z
" id="DejaVuSans-53"/>
     </defs>
     <g transform="translate(36.363136 275.266777)scale(0.1625 -0.1625)">
      <use xlink:href="#DejaVuSans-Oblique-113"/>
      <use transform="translate(63.476562 -16.40625)scale(0.7)" xlink:href="#DejaVuSans-53"/>
     </g>
    </g>
   </g>
   <g id="text_16">
    <g clip-path="url(#p2cd25f5d99)">
     <!-- 3 -->
     <g transform="translate(68.035936 309.558825)scale(0.104 -0.104)">
      <use xlink:href="#DejaVuSans-51"/>
     </g>
    </g>
   </g>
   <g id="text_17">
    <g clip-path="url(#p2cd25f5d99)">
     <!-- c -->
     <defs>
      <path d="M 48.78125 52.59375 
L 48.78125 44.1875 
Q 44.96875 46.296875 41.140625 47.34375 
Q 37.3125 48.390625 33.40625 48.390625 
Q 24.65625 48.390625 19.8125 42.84375 
Q 14.984375 37.3125 14.984375 27.296875 
Q 14.984375 17.28125 19.8125 11.734375 
Q 24.65625 6.203125 33.40625 6.203125 
Q 37.3125 6.203125 41.140625 7.25 
Q 44.96875 8.296875 48.78125 10.40625 
L 48.78125 2.09375 
Q 45.015625 0.34375 40.984375 -0.53125 
Q 36.96875 -1.421875 32.421875 -1.421875 
Q 20.0625 -1.421875 12.78125 6.34375 
Q 5.515625 14.109375 5.515625 27.296875 
Q 5.515625 40.671875 12.859375 48.328125 
Q 20.21875 56 33.015625 56 
Q 37.15625 56 41.109375 55.140625 
Q 45.0625 54.296875 48.78125 52.59375 
z
" id="DejaVuSans-99"/>
     </defs>
     <g transform="translate(45.465675 320.750784)scale(0.1625 -0.1625)">
      <use xlink:href="#DejaVuSans-99"/>
     </g>
    </g>
   </g>
  </g>
 </g>
 <defs>
  <clipPath id="p2cd25f5d99">
   <rect height="336.3374" width="610.793036" x="7.2" y="7.2"/>
  </clipPath>
 </defs>
</svg>
