<?xml version="1.0" encoding="utf-8" standalone="no"?>
<!DOCTYPE svg PUBLIC "-//W3C//DTD SVG 1.1//EN"
  "http://www.w3.org/Graphics/SVG/1.1/DTD/svg11.dtd">
<!-- Created with matplotlib (https://matplotlib.org/) -->
<svg height="259.8354pt" version="1.1" viewBox="0 0 584.205779 259.8354" width="584.205779pt" xmlns="http://www.w3.org/2000/svg" xmlns:xlink="http://www.w3.org/1999/xlink">
 <defs>
  <style type="text/css">
*{stroke-linecap:butt;stroke-linejoin:round;}
  </style>
 </defs>
 <g id="figure_1">
  <g id="patch_1">
   <path d="M 0 259.8354 
L 584.205779 259.8354 
L 584.205779 0 
L 0 0 
z
" style="fill:#ffffff;"/>
  </g>
  <g id="axes_1">
   <g id="patch_2">
    <path clip-path="url(#p1154a63522)" d="M 359.295489 169.573697 
L 371.112749 169.573697 
L 365.204119 178.09576 
z
" style="fill:#778899;"/>
   </g>
   <g id="patch_3">
    <path clip-path="url(#p1154a63522)" d="M 404.746489 215.024697 
L 416.563749 215.024697 
L 410.655119 223.54676 
z
" style="fill:#778899;"/>
   </g>
   <g id="line2d_1">
    <path clip-path="url(#p1154a63522)" d="M 67.954579 43.5608 
L 572.460679 43.5608 
" style="fill:none;stroke:#000000;stroke-linecap:square;stroke-width:2;"/>
   </g>
   <g id="line2d_2">
    <path clip-path="url(#p1154a63522)" d="M 67.954579 89.0118 
L 572.460679 89.0118 
" style="fill:none;stroke:#000000;stroke-linecap:square;stroke-width:2;"/>
   </g>
   <g id="line2d_3">
    <path clip-path="url(#p1154a63522)" d="M 67.954579 134.4628 
L 572.460679 134.4628 
" style="fill:none;stroke:#000000;stroke-linecap:square;stroke-width:2;"/>
   </g>
   <g id="line2d_4">
    <path clip-path="url(#p1154a63522)" d="M 67.954579 178.436642 
L 572.460679 178.436642 
" style="fill:none;stroke:#778899;stroke-linecap:square;stroke-width:2;"/>
   </g>
   <g id="line2d_5">
    <path clip-path="url(#p1154a63522)" d="M 67.954579 181.390957 
L 572.460679 181.390957 
" style="fill:none;stroke:#778899;stroke-linecap:square;stroke-width:2;"/>
   </g>
   <g id="line2d_6">
    <path clip-path="url(#p1154a63522)" d="M 67.954579 223.887642 
L 572.460679 223.887642 
" style="fill:none;stroke:#778899;stroke-linecap:square;stroke-width:2;"/>
   </g>
   <g id="line2d_7">
    <path clip-path="url(#p1154a63522)" d="M 67.954579 226.841957 
L 572.460679 226.841957 
" style="fill:none;stroke:#778899;stroke-linecap:square;stroke-width:2;"/>
   </g>
   <g id="patch_4">
    <path clip-path="url(#p1154a63522)" d="M 174.537174 66.2863 
L 192.263064 66.2863 
L 192.263064 20.8353 
L 174.537174 20.8353 
z
" style="fill:#bdbdbd;opacity:0.6;"/>
   </g>
   <g id="patch_5">
    <path clip-path="url(#p1154a63522)" d="M 174.537174 111.7373 
L 192.263064 111.7373 
L 192.263064 66.2863 
L 174.537174 66.2863 
z
" style="fill:#bdbdbd;opacity:0.6;"/>
   </g>
   <g id="patch_6">
    <path clip-path="url(#p1154a63522)" d="M 174.537174 157.1883 
L 192.263064 157.1883 
L 192.263064 111.7373 
L 174.537174 111.7373 
z
" style="fill:#bdbdbd;opacity:0.6;"/>
   </g>
   <g id="patch_7">
    <path clip-path="url(#p1154a63522)" d="M 310.890174 66.2863 
L 328.616064 66.2863 
L 328.616064 20.8353 
L 310.890174 20.8353 
z
" style="fill:#bdbdbd;opacity:0.6;"/>
   </g>
   <g id="patch_8">
    <path clip-path="url(#p1154a63522)" d="M 310.890174 111.7373 
L 328.616064 111.7373 
L 328.616064 66.2863 
L 310.890174 66.2863 
z
" style="fill:#bdbdbd;opacity:0.6;"/>
   </g>
   <g id="patch_9">
    <path clip-path="url(#p1154a63522)" d="M 310.890174 157.1883 
L 328.616064 157.1883 
L 328.616064 111.7373 
L 310.890174 111.7373 
z
" style="fill:#bdbdbd;opacity:0.6;"/>
   </g>
   <g id="patch_10">
    <path clip-path="url(#p1154a63522)" d="M 447.243174 66.2863 
L 464.969064 66.2863 
L 464.969064 20.8353 
L 447.243174 20.8353 
z
" style="fill:#bdbdbd;opacity:0.6;"/>
   </g>
   <g id="patch_11">
    <path clip-path="url(#p1154a63522)" d="M 447.243174 111.7373 
L 464.969064 111.7373 
L 464.969064 66.2863 
L 447.243174 66.2863 
z
" style="fill:#bdbdbd;opacity:0.6;"/>
   </g>
   <g id="patch_12">
    <path clip-path="url(#p1154a63522)" d="M 447.243174 157.1883 
L 464.969064 157.1883 
L 464.969064 111.7373 
L 447.243174 111.7373 
z
" style="fill:#bdbdbd;opacity:0.6;"/>
   </g>
   <g id="line2d_8">
    <path clip-path="url(#p1154a63522)" d="M 137.949119 134.4628 
L 137.949119 89.0118 
" style="fill:none;stroke:#6fa4ff;stroke-linecap:square;stroke-width:2;"/>
   </g>
   <g id="line2d_9">
    <path clip-path="url(#p1154a63522)" d="M 228.851119 89.0118 
L 228.851119 43.5608 
" style="fill:none;stroke:#6fa4ff;stroke-linecap:square;stroke-width:2;"/>
   </g>
   <g id="line2d_10">
    <path clip-path="url(#p1154a63522)" d="M 366.681276 43.5608 
L 366.681276 169.573697 
" style="fill:none;stroke:#778899;stroke-linecap:square;stroke-width:2;"/>
   </g>
   <g id="line2d_11">
    <path clip-path="url(#p1154a63522)" d="M 363.726961 43.5608 
L 363.726961 169.573697 
" style="fill:none;stroke:#778899;stroke-linecap:square;stroke-width:2;"/>
   </g>
   <g id="line2d_12">
    <path clip-path="url(#p1154a63522)" d="M 412.132276 89.0118 
L 412.132276 215.024697 
" style="fill:none;stroke:#778899;stroke-linecap:square;stroke-width:2;"/>
   </g>
   <g id="line2d_13">
    <path clip-path="url(#p1154a63522)" d="M 409.177961 89.0118 
L 409.177961 215.024697 
" style="fill:none;stroke:#778899;stroke-linecap:square;stroke-width:2;"/>
   </g>
   <g id="line2d_14">
    <path clip-path="url(#p1154a63522)" d="M 503.034276 134.4628 
L 503.034276 225.3648 
" style="fill:none;stroke:#778899;stroke-linecap:square;stroke-width:2;"/>
   </g>
   <g id="line2d_15">
    <path clip-path="url(#p1154a63522)" d="M 500.079961 134.4628 
L 500.079961 225.3648 
" style="fill:none;stroke:#778899;stroke-linecap:square;stroke-width:2;"/>
   </g>
   <g id="line2d_16">
    <path clip-path="url(#p1154a63522)" d="M 548.485276 134.4628 
L 548.485276 179.9138 
" style="fill:none;stroke:#778899;stroke-linecap:square;stroke-width:2;"/>
   </g>
   <g id="line2d_17">
    <path clip-path="url(#p1154a63522)" d="M 545.530961 134.4628 
L 545.530961 179.9138 
" style="fill:none;stroke:#778899;stroke-linecap:square;stroke-width:2;"/>
   </g>
   <g id="patch_13">
    <path clip-path="url(#p1154a63522)" d="M 77.726544 103.783375 
L 107.269694 103.783375 
L 107.269694 74.240225 
L 77.726544 74.240225 
z
" style="fill:#6fa4ff;stroke:#6fa4ff;stroke-linejoin:miter;stroke-width:1.5;"/>
   </g>
   <g id="patch_14">
    <path clip-path="url(#p1154a63522)" d="M 137.949119 93.443272 
C 139.124359 93.443272 140.251623 92.976345 141.082643 92.145324 
C 141.913664 91.314304 142.380591 90.18704 142.380591 89.0118 
C 142.380591 87.83656 141.913664 86.709296 141.082643 85.878276 
C 140.251623 85.047255 139.124359 84.580327 137.949119 84.580327 
C 136.773879 84.580327 135.646615 85.047255 134.815595 85.878276 
C 133.984574 86.709296 133.517646 87.83656 133.517646 89.0118 
C 133.517646 90.18704 133.984574 91.314304 134.815595 92.145324 
C 135.646615 92.976345 136.773879 93.443272 137.949119 93.443272 
z
" style="fill:#6fa4ff;stroke:#6fa4ff;stroke-linejoin:miter;stroke-width:1.5;"/>
   </g>
   <g id="patch_15">
    <path clip-path="url(#p1154a63522)" d="M 137.949119 144.802902 
C 140.691346 144.802902 143.321628 143.713404 145.260676 141.774357 
C 147.199723 139.835309 148.289221 137.205027 148.289221 134.4628 
C 148.289221 131.720573 147.199723 129.090291 145.260676 127.151243 
C 143.321628 125.212196 140.691346 124.122697 137.949119 124.122697 
C 135.206892 124.122697 132.57661 125.212196 130.637562 127.151243 
C 128.698515 129.090291 127.609016 131.720573 127.609016 134.4628 
C 127.609016 137.205027 128.698515 139.835309 130.637562 141.774357 
C 132.57661 143.713404 135.206892 144.802902 137.949119 144.802902 
z
" style="fill:#6fa4ff;stroke:#6fa4ff;stroke-linejoin:miter;stroke-width:2;"/>
   </g>
   <g id="patch_16">
    <path clip-path="url(#p1154a63522)" d="M 228.851119 47.992272 
C 230.026359 47.992272 231.153623 47.525345 231.984643 46.694324 
C 232.815664 45.863304 233.282591 44.73604 233.282591 43.5608 
C 233.282591 42.38556 232.815664 41.258296 231.984643 40.427276 
C 231.153623 39.596255 230.026359 39.129327 228.851119 39.129327 
C 227.675879 39.129327 226.548615 39.596255 225.717595 40.427276 
C 224.886574 41.258296 224.419646 42.38556 224.419646 43.5608 
C 224.419646 44.73604 224.886574 45.863304 225.717595 46.694324 
C 226.548615 47.525345 227.675879 47.992272 228.851119 47.992272 
z
" style="fill:#6fa4ff;stroke:#6fa4ff;stroke-linejoin:miter;stroke-width:1.5;"/>
   </g>
   <g id="patch_17">
    <path clip-path="url(#p1154a63522)" d="M 228.851119 99.351902 
C 231.593346 99.351902 234.223628 98.262404 236.162676 96.323357 
C 238.101723 94.384309 239.191221 91.754027 239.191221 89.0118 
C 239.191221 86.269573 238.101723 83.639291 236.162676 81.700243 
C 234.223628 79.761196 231.593346 78.671697 228.851119 78.671697 
C 226.108892 78.671697 223.47861 79.761196 221.539562 81.700243 
C 219.600515 83.639291 218.511016 86.269573 218.511016 89.0118 
C 218.511016 91.754027 219.600515 94.384309 221.539562 96.323357 
C 223.47861 98.262404 226.108892 99.351902 228.851119 99.351902 
z
" style="fill:#6fa4ff;stroke:#6fa4ff;stroke-linejoin:miter;stroke-width:2;"/>
   </g>
   <g id="patch_18">
    <path clip-path="url(#p1154a63522)" d="M 259.530544 58.332375 
L 289.073694 58.332375 
L 289.073694 28.789225 
L 259.530544 28.789225 
z
" style="fill:#6fa4ff;stroke:#6fa4ff;stroke-linejoin:miter;stroke-width:1.5;"/>
   </g>
   <g id="patch_19">
    <path clip-path="url(#p1154a63522)" d="M 350.432544 58.332375 
L 379.975694 58.332375 
L 379.975694 28.789225 
L 350.432544 28.789225 
z
" style="stroke:#000000;stroke-linejoin:miter;stroke-width:1.5;"/>
   </g>
   <g id="patch_20">
    <path clip-path="url(#p1154a63522)" d="M 375.544221 47.992272 
C 375.544221 45.250959 374.454077 42.619118 372.515676 40.680716 
C 370.577274 38.742314 367.945433 37.65217 365.204119 37.65217 
C 362.462805 37.65217 359.830964 38.742314 357.892562 40.680716 
C 355.954161 42.619118 354.864016 45.250959 354.864016 47.992272 
" style="fill:none;stroke:#ffffff;stroke-linejoin:miter;stroke-width:2;"/>
   </g>
   <g id="patch_21">
    <path clip-path="url(#p1154a63522)" d="M 395.883544 103.783375 
L 425.426694 103.783375 
L 425.426694 74.240225 
L 395.883544 74.240225 
z
" style="stroke:#000000;stroke-linejoin:miter;stroke-width:1.5;"/>
   </g>
   <g id="patch_22">
    <path clip-path="url(#p1154a63522)" d="M 420.995221 93.443272 
C 420.995221 90.701959 419.905077 88.070118 417.966676 86.131716 
C 416.028274 84.193314 413.396433 83.10317 410.655119 83.10317 
C 407.913805 83.10317 405.281964 84.193314 403.343562 86.131716 
C 401.405161 88.070118 400.315016 90.701959 400.315016 93.443272 
" style="fill:none;stroke:#ffffff;stroke-linejoin:miter;stroke-width:2;"/>
   </g>
   <g id="patch_23">
    <path clip-path="url(#p1154a63522)" d="M 501.557119 229.796272 
C 502.732359 229.796272 503.859623 229.329345 504.690643 228.498324 
C 505.521664 227.667304 505.988591 226.54004 505.988591 225.3648 
C 505.988591 224.18956 505.521664 223.062296 504.690643 222.231276 
C 503.859623 221.400255 502.732359 220.933327 501.557119 220.933327 
C 500.381879 220.933327 499.254615 221.400255 498.423595 222.231276 
C 497.592574 223.062296 497.125646 224.18956 497.125646 225.3648 
C 497.125646 226.54004 497.592574 227.667304 498.423595 228.498324 
C 499.254615 229.329345 500.381879 229.796272 501.557119 229.796272 
z
" style="stroke:#000000;stroke-linejoin:miter;stroke-width:1.5;"/>
   </g>
   <g id="patch_24">
    <path clip-path="url(#p1154a63522)" d="M 486.785544 149.234375 
L 516.328694 149.234375 
L 516.328694 119.691225 
L 486.785544 119.691225 
z
" style="fill:#05bab6;stroke:#05bab6;stroke-linejoin:miter;stroke-width:1.5;"/>
   </g>
   <g id="patch_25">
    <path clip-path="url(#p1154a63522)" d="M 547.008119 184.345272 
C 548.183359 184.345272 549.310623 183.878345 550.141643 183.047324 
C 550.972664 182.216304 551.439591 181.08904 551.439591 179.9138 
C 551.439591 178.73856 550.972664 177.611296 550.141643 176.780276 
C 549.310623 175.949255 548.183359 175.482327 547.008119 175.482327 
C 545.832879 175.482327 544.705615 175.949255 543.874595 176.780276 
C 543.043574 177.611296 542.576646 178.73856 542.576646 179.9138 
C 542.576646 181.08904 543.043574 182.216304 543.874595 183.047324 
C 544.705615 183.878345 545.832879 184.345272 547.008119 184.345272 
z
" style="stroke:#000000;stroke-linejoin:miter;stroke-width:1.5;"/>
   </g>
   <g id="patch_26">
    <path clip-path="url(#p1154a63522)" d="M 532.236544 149.234375 
L 561.779694 149.234375 
L 561.779694 119.691225 
L 532.236544 119.691225 
z
" style="fill:#05bab6;stroke:#05bab6;stroke-linejoin:miter;stroke-width:1.5;"/>
   </g>
   <g id="line2d_18">
    <path clip-path="url(#p1154a63522)" d="M 365.204119 47.992272 
L 375.544221 37.65217 
" style="fill:none;stroke:#ffffff;stroke-linecap:square;stroke-width:2;"/>
   </g>
   <g id="line2d_19">
    <path clip-path="url(#p1154a63522)" d="M 410.655119 93.443272 
L 420.995221 83.10317 
" style="fill:none;stroke:#ffffff;stroke-linecap:square;stroke-width:2;"/>
   </g>
   <g id="line2d_20">
    <path clip-path="url(#p1154a63522)" d="M 137.949119 140.37143 
L 137.949119 128.55417 
" style="fill:none;stroke:#ffffff;stroke-linecap:square;stroke-width:2;"/>
   </g>
   <g id="line2d_21">
    <path clip-path="url(#p1154a63522)" d="M 132.040489 134.4628 
L 143.857749 134.4628 
" style="fill:none;stroke:#ffffff;stroke-linecap:square;stroke-width:2;"/>
   </g>
   <g id="line2d_22">
    <path clip-path="url(#p1154a63522)" d="M 183.400119 20.8353 
L 183.400119 66.2863 
" style="fill:none;stroke:#000000;stroke-dasharray:3.7,1.6;stroke-dashoffset:0;"/>
   </g>
   <g id="line2d_23">
    <path clip-path="url(#p1154a63522)" d="M 183.400119 66.2863 
L 183.400119 111.7373 
" style="fill:none;stroke:#000000;stroke-dasharray:3.7,1.6;stroke-dashoffset:0;"/>
   </g>
   <g id="line2d_24">
    <path clip-path="url(#p1154a63522)" d="M 183.400119 111.7373 
L 183.400119 157.1883 
" style="fill:none;stroke:#000000;stroke-dasharray:3.7,1.6;stroke-dashoffset:0;"/>
   </g>
   <g id="line2d_25">
    <path clip-path="url(#p1154a63522)" d="M 228.851119 94.92043 
L 228.851119 83.10317 
" style="fill:none;stroke:#ffffff;stroke-linecap:square;stroke-width:2;"/>
   </g>
   <g id="line2d_26">
    <path clip-path="url(#p1154a63522)" d="M 222.942489 89.0118 
L 234.759749 89.0118 
" style="fill:none;stroke:#ffffff;stroke-linecap:square;stroke-width:2;"/>
   </g>
   <g id="line2d_27">
    <path clip-path="url(#p1154a63522)" d="M 319.753119 20.8353 
L 319.753119 66.2863 
" style="fill:none;stroke:#000000;stroke-dasharray:3.7,1.6;stroke-dashoffset:0;"/>
   </g>
   <g id="line2d_28">
    <path clip-path="url(#p1154a63522)" d="M 319.753119 66.2863 
L 319.753119 111.7373 
" style="fill:none;stroke:#000000;stroke-dasharray:3.7,1.6;stroke-dashoffset:0;"/>
   </g>
   <g id="line2d_29">
    <path clip-path="url(#p1154a63522)" d="M 319.753119 111.7373 
L 319.753119 157.1883 
" style="fill:none;stroke:#000000;stroke-dasharray:3.7,1.6;stroke-dashoffset:0;"/>
   </g>
   <g id="line2d_30">
    <path clip-path="url(#p1154a63522)" d="M 456.106119 20.8353 
L 456.106119 66.2863 
" style="fill:none;stroke:#000000;stroke-dasharray:3.7,1.6;stroke-dashoffset:0;"/>
   </g>
   <g id="line2d_31">
    <path clip-path="url(#p1154a63522)" d="M 456.106119 66.2863 
L 456.106119 111.7373 
" style="fill:none;stroke:#000000;stroke-dasharray:3.7,1.6;stroke-dashoffset:0;"/>
   </g>
   <g id="line2d_32">
    <path clip-path="url(#p1154a63522)" d="M 456.106119 111.7373 
L 456.106119 157.1883 
" style="fill:none;stroke:#000000;stroke-dasharray:3.7,1.6;stroke-dashoffset:0;"/>
   </g>
   <g id="text_1">
    <g clip-path="url(#p1154a63522)">
     <!-- H -->
     <defs>
      <path d="M 9.8125 72.90625 
L 19.671875 72.90625 
L 19.671875 43.015625 
L 55.515625 43.015625 
L 55.515625 72.90625 
L 65.375 72.90625 
L 65.375 0 
L 55.515625 0 
L 55.515625 34.71875 
L 19.671875 34.71875 
L 19.671875 0 
L 9.8125 0 
z
" id="DejaVuSans-72"/>
     </defs>
     <g transform="translate(87.609916 92.598987)scale(0.13 -0.13)">
      <use xlink:href="#DejaVuSans-72"/>
     </g>
    </g>
   </g>
   <g id="text_2">
    <g clip-path="url(#p1154a63522)">
     <!-- H -->
     <g transform="translate(269.413916 47.147987)scale(0.13 -0.13)">
      <use xlink:href="#DejaVuSans-72"/>
     </g>
    </g>
   </g>
   <g id="text_3">
    <g clip-path="url(#p1154a63522)">
     <!-- 0 -->
     <defs>
      <path d="M 31.78125 66.40625 
Q 24.171875 66.40625 20.328125 58.90625 
Q 16.5 51.421875 16.5 36.375 
Q 16.5 21.390625 20.328125 13.890625 
Q 24.171875 6.390625 31.78125 6.390625 
Q 39.453125 6.390625 43.28125 13.890625 
Q 47.125 21.390625 47.125 36.375 
Q 47.125 51.421875 43.28125 58.90625 
Q 39.453125 66.40625 31.78125 66.40625 
z
M 31.78125 74.21875 
Q 44.046875 74.21875 50.515625 64.515625 
Q 56.984375 54.828125 56.984375 36.375 
Q 56.984375 17.96875 50.515625 8.265625 
Q 44.046875 -1.421875 31.78125 -1.421875 
Q 19.53125 -1.421875 13.0625 8.265625 
Q 6.59375 17.96875 6.59375 36.375 
Q 6.59375 54.828125 13.0625 64.515625 
Q 19.53125 74.21875 31.78125 74.21875 
z
" id="DejaVuSans-48"/>
     </defs>
     <g transform="translate(376.566869 173.205825)scale(0.104 -0.104)">
      <use xlink:href="#DejaVuSans-48"/>
     </g>
    </g>
   </g>
   <g id="text_4">
    <g clip-path="url(#p1154a63522)">
     <!-- 0 -->
     <g transform="translate(422.017869 218.656825)scale(0.104 -0.104)">
      <use xlink:href="#DejaVuSans-48"/>
     </g>
    </g>
   </g>
   <g id="text_5">
    <g clip-path="url(#p1154a63522)">
     <!-- 0x1 -->
     <defs>
      <path d="M 54.890625 54.6875 
L 35.109375 28.078125 
L 55.90625 0 
L 45.3125 0 
L 29.390625 21.484375 
L 13.484375 0 
L 2.875 0 
L 24.125 28.609375 
L 4.6875 54.6875 
L 15.28125 54.6875 
L 29.78125 35.203125 
L 44.28125 54.6875 
z
" id="DejaVuSans-120"/>
      <path d="M 12.40625 8.296875 
L 28.515625 8.296875 
L 28.515625 63.921875 
L 10.984375 60.40625 
L 10.984375 69.390625 
L 28.421875 72.90625 
L 38.28125 72.90625 
L 38.28125 8.296875 
L 54.390625 8.296875 
L 54.390625 0 
L 12.40625 0 
z
" id="DejaVuSans-49"/>
     </defs>
     <g transform="translate(494.099619 240.306495)scale(0.08 -0.08)">
      <use xlink:href="#DejaVuSans-48"/>
      <use x="63.623047" xlink:href="#DejaVuSans-120"/>
      <use x="122.802734" xlink:href="#DejaVuSans-49"/>
     </g>
    </g>
   </g>
   <g id="text_6">
    <g clip-path="url(#p1154a63522)">
     <!-- X -->
     <defs>
      <path d="M 6.296875 72.90625 
L 16.890625 72.90625 
L 35.015625 45.796875 
L 53.21875 72.90625 
L 63.8125 72.90625 
L 40.375 37.890625 
L 65.375 0 
L 54.78125 0 
L 34.28125 31 
L 13.625 0 
L 2.984375 0 
L 29 38.921875 
z
" id="DejaVuSans-88"/>
     </defs>
     <g transform="translate(497.104619 138.049987)scale(0.13 -0.13)">
      <use xlink:href="#DejaVuSans-88"/>
     </g>
    </g>
   </g>
   <g id="text_7">
    <g clip-path="url(#p1154a63522)">
     <!-- 0x1 -->
     <g transform="translate(539.550619 194.855495)scale(0.08 -0.08)">
      <use xlink:href="#DejaVuSans-48"/>
      <use x="63.623047" xlink:href="#DejaVuSans-120"/>
      <use x="122.802734" xlink:href="#DejaVuSans-49"/>
     </g>
    </g>
   </g>
   <g id="text_8">
    <g clip-path="url(#p1154a63522)">
     <!-- Z -->
     <defs>
      <path d="M 5.609375 72.90625 
L 62.890625 72.90625 
L 62.890625 65.375 
L 16.796875 8.296875 
L 64.015625 8.296875 
L 64.015625 0 
L 4.5 0 
L 4.5 7.515625 
L 50.59375 64.59375 
L 5.609375 64.59375 
z
" id="DejaVuSans-90"/>
     </defs>
     <g transform="translate(542.555619 138.049987)scale(0.13 -0.13)">
      <use xlink:href="#DejaVuSans-90"/>
     </g>
    </g>
   </g>
   <g id="text_9">
    <g clip-path="url(#p1154a63522)">
     <!-- ${q}_{0}$ -->
     <defs>
      <path d="M 41.703125 8.203125 
Q 38.09375 3.46875 33.171875 1.015625 
Q 28.265625 -1.421875 22.3125 -1.421875 
Q 14.015625 -1.421875 9.296875 4.171875 
Q 4.59375 9.765625 4.59375 19.578125 
Q 4.59375 27.484375 7.5 34.859375 
Q 10.40625 42.234375 15.828125 48.09375 
Q 19.34375 51.90625 23.90625 53.953125 
Q 28.46875 56 33.5 56 
Q 39.546875 56 43.453125 53.609375 
Q 47.359375 51.21875 49.125 46.390625 
L 50.6875 54.59375 
L 59.71875 54.59375 
L 45.125 -20.609375 
L 36.078125 -20.609375 
z
M 13.921875 20.90625 
Q 13.921875 13.671875 16.9375 9.890625 
Q 19.96875 6.109375 25.6875 6.109375 
Q 34.1875 6.109375 40.1875 14.234375 
Q 46.1875 22.359375 46.1875 33.984375 
Q 46.1875 41.015625 43.078125 44.75 
Q 39.984375 48.484375 34.1875 48.484375 
Q 29.9375 48.484375 26.3125 46.5 
Q 22.703125 44.53125 20.015625 40.71875 
Q 17.1875 36.71875 15.546875 31.34375 
Q 13.921875 25.984375 13.921875 20.90625 
z
" id="DejaVuSans-Oblique-113"/>
     </defs>
     <g transform="translate(40.826879 48.011777)scale(0.1625 -0.1625)">
      <use xlink:href="#DejaVuSans-Oblique-113"/>
      <use transform="translate(63.476562 -16.40625)scale(0.7)" xlink:href="#DejaVuSans-48"/>
     </g>
    </g>
   </g>
   <g id="text_10">
    <g clip-path="url(#p1154a63522)">
     <!-- ${q}_{1}$ -->
     <g transform="translate(40.826879 93.462777)scale(0.1625 -0.1625)">
      <use xlink:href="#DejaVuSans-Oblique-113"/>
      <use transform="translate(63.476562 -16.40625)scale(0.7)" xlink:href="#DejaVuSans-49"/>
     </g>
    </g>
   </g>
   <g id="text_11">
    <g clip-path="url(#p1154a63522)">
     <!-- ${q}_{2}$ -->
     <defs>
      <path d="M 19.1875 8.296875 
L 53.609375 8.296875 
L 53.609375 0 
L 7.328125 0 
L 7.328125 8.296875 
Q 12.9375 14.109375 22.625 23.890625 
Q 32.328125 33.6875 34.8125 36.53125 
Q 39.546875 41.84375 41.421875 45.53125 
Q 43.3125 49.21875 43.3125 52.78125 
Q 43.3125 58.59375 39.234375 62.25 
Q 35.15625 65.921875 28.609375 65.921875 
Q 23.96875 65.921875 18.8125 64.3125 
Q 13.671875 62.703125 7.8125 59.421875 
L 7.8125 69.390625 
Q 13.765625 71.78125 18.9375 73 
Q 24.125 74.21875 28.421875 74.21875 
Q 39.75 74.21875 46.484375 68.546875 
Q 53.21875 62.890625 53.21875 53.421875 
Q 53.21875 48.921875 51.53125 44.890625 
Q 49.859375 40.875 45.40625 35.40625 
Q 44.1875 33.984375 37.640625 27.21875 
Q 31.109375 20.453125 19.1875 8.296875 
z
" id="DejaVuSans-50"/>
     </defs>
     <g transform="translate(40.826879 138.913777)scale(0.1625 -0.1625)">
      <use xlink:href="#DejaVuSans-Oblique-113"/>
      <use transform="translate(63.476562 -16.40625)scale(0.7)" xlink:href="#DejaVuSans-50"/>
     </g>
    </g>
   </g>
   <g id="text_12">
    <g clip-path="url(#p1154a63522)">
     <!-- crz -->
     <defs>
      <path d="M 48.78125 52.59375 
L 48.78125 44.1875 
Q 44.96875 46.296875 41.140625 47.34375 
Q 37.3125 48.390625 33.40625 48.390625 
Q 24.65625 48.390625 19.8125 42.84375 
Q 14.984375 37.3125 14.984375 27.296875 
Q 14.984375 17.28125 19.8125 11.734375 
Q 24.65625 6.203125 33.40625 6.203125 
Q 37.3125 6.203125 41.140625 7.25 
Q 44.96875 8.296875 48.78125 10.40625 
L 48.78125 2.09375 
Q 45.015625 0.34375 40.984375 -0.53125 
Q 36.96875 -1.421875 32.421875 -1.421875 
Q 20.0625 -1.421875 12.78125 6.34375 
Q 5.515625 14.109375 5.515625 27.296875 
Q 5.515625 40.671875 12.859375 48.328125 
Q 20.21875 56 33.015625 56 
Q 37.15625 56 41.109375 55.140625 
Q 45.0625 54.296875 48.78125 52.59375 
z
" id="DejaVuSans-99"/>
      <path d="M 41.109375 46.296875 
Q 39.59375 47.171875 37.8125 47.578125 
Q 36.03125 48 33.890625 48 
Q 26.265625 48 22.1875 43.046875 
Q 18.109375 38.09375 18.109375 28.8125 
L 18.109375 0 
L 9.078125 0 
L 9.078125 54.6875 
L 18.109375 54.6875 
L 18.109375 46.1875 
Q 20.953125 51.171875 25.484375 53.578125 
Q 30.03125 56 36.53125 56 
Q 37.453125 56 38.578125 55.875 
Q 39.703125 55.765625 41.0625 55.515625 
z
" id="DejaVuSans-114"/>
      <path d="M 5.515625 54.6875 
L 48.1875 54.6875 
L 48.1875 46.484375 
L 14.40625 7.171875 
L 48.1875 7.171875 
L 48.1875 0 
L 4.296875 0 
L 4.296875 8.203125 
L 38.09375 47.515625 
L 5.515625 47.515625 
z
" id="DejaVuSans-122"/>
     </defs>
     <g transform="translate(34.720434 184.397784)scale(0.1625 -0.1625)">
      <use xlink:href="#DejaVuSans-99"/>
      <use x="54.980469" xlink:href="#DejaVuSans-114"/>
      <use x="96.09375" xlink:href="#DejaVuSans-122"/>
     </g>
    </g>
   </g>
   <g id="text_13">
    <g clip-path="url(#p1154a63522)">
     <!-- crx -->
     <g transform="translate(34.057738 229.848784)scale(0.1625 -0.1625)">
      <use xlink:href="#DejaVuSans-99"/>
      <use x="54.980469" xlink:href="#DejaVuSans-114"/>
      <use x="93.46875" xlink:href="#DejaVuSans-120"/>
     </g>
    </g>
   </g>
  </g>
 </g>
 <defs>
  <clipPath id="p1154a63522">
   <rect height="245.4354" width="569.805779" x="7.2" y="7.2"/>
  </clipPath>
 </defs>
</svg>
